<svg width="223" height="14" viewBox="0 0 223 14" fill="none" xmlns="http://www.w3.org/2000/svg">
<path d="M219.544 11.4455C218.938 11.4455 218.392 11.3382 217.906 11.1235C217.43 10.8995 217.052 10.6008 216.772 10.2275C216.492 9.84483 216.343 9.42016 216.324 8.95349H217.976C218.004 9.28016 218.158 9.55549 218.438 9.77949C218.728 9.99416 219.087 10.1015 219.516 10.1015C219.964 10.1015 220.31 10.0175 220.552 9.84949C220.804 9.67216 220.93 9.44816 220.93 9.17749C220.93 8.88816 220.79 8.67349 220.51 8.53349C220.24 8.39349 219.806 8.23949 219.208 8.07149C218.63 7.91283 218.158 7.75883 217.794 7.60949C217.43 7.46016 217.113 7.23149 216.842 6.92349C216.581 6.61549 216.45 6.20949 216.45 5.70549C216.45 5.29483 216.572 4.92149 216.814 4.58549C217.057 4.24016 217.402 3.96949 217.85 3.77349C218.308 3.57749 218.83 3.47949 219.418 3.47949C220.296 3.47949 221 3.70349 221.532 4.15149C222.074 4.59016 222.363 5.19216 222.4 5.95749H220.804C220.776 5.61216 220.636 5.33683 220.384 5.13149C220.132 4.92616 219.792 4.82349 219.362 4.82349C218.942 4.82349 218.62 4.90283 218.396 5.06149C218.172 5.22016 218.06 5.43016 218.06 5.69149C218.06 5.89683 218.135 6.06949 218.284 6.20949C218.434 6.34949 218.616 6.46149 218.83 6.54549C219.045 6.62016 219.362 6.71816 219.782 6.83949C220.342 6.98883 220.8 7.14283 221.154 7.30149C221.518 7.45083 221.831 7.67483 222.092 7.97349C222.354 8.27216 222.489 8.66883 222.498 9.16349C222.498 9.60216 222.377 9.99416 222.134 10.3395C221.892 10.6848 221.546 10.9555 221.098 11.1515C220.66 11.3475 220.142 11.4455 219.544 11.4455Z" fill="#777E91"/>
<path d="M215.174 7.27349C215.174 7.56283 215.156 7.82416 215.118 8.05749H209.224C209.271 8.67349 209.5 9.16816 209.91 9.54149C210.321 9.91483 210.825 10.1015 211.422 10.1015C212.281 10.1015 212.888 9.74216 213.242 9.02349H214.964C214.731 9.73283 214.306 10.3162 213.69 10.7735C213.084 11.2215 212.328 11.4455 211.422 11.4455C210.685 11.4455 210.022 11.2822 209.434 10.9555C208.856 10.6195 208.398 10.1528 208.062 9.55549C207.736 8.94883 207.572 8.24883 207.572 7.45549C207.572 6.66216 207.731 5.96683 208.048 5.36949C208.375 4.76283 208.828 4.29616 209.406 3.96949C209.994 3.64283 210.666 3.47949 211.422 3.47949C212.15 3.47949 212.799 3.63816 213.368 3.95549C213.938 4.27283 214.381 4.72083 214.698 5.29949C215.016 5.86883 215.174 6.52682 215.174 7.27349ZM213.508 6.76949C213.499 6.18149 213.289 5.71016 212.878 5.35549C212.468 5.00083 211.959 4.82349 211.352 4.82349C210.802 4.82349 210.33 5.00083 209.938 5.35549C209.546 5.70082 209.313 6.17216 209.238 6.76949H213.508Z" fill="#777E91"/>
<path d="M204.756 4.9075V9.1775C204.756 9.46683 204.822 9.67683 204.952 9.8075C205.092 9.92883 205.326 9.9895 205.652 9.9895H206.632V11.3195H205.372C204.654 11.3195 204.103 11.1515 203.72 10.8155C203.338 10.4795 203.146 9.9335 203.146 9.1775V4.9075H202.236V3.6055H203.146V1.6875H204.756V3.6055H206.632V4.9075H204.756Z" fill="#777E91"/>
<path d="M192.875 7.42749C192.875 6.65283 193.034 5.96683 193.351 5.36949C193.678 4.77216 194.116 4.31016 194.667 3.98349C195.227 3.64749 195.843 3.47949 196.515 3.47949C197.122 3.47949 197.649 3.60083 198.097 3.84349C198.554 4.07683 198.918 4.37083 199.189 4.72549V3.60549H200.799V11.3195H199.189V10.1715C198.918 10.5355 198.55 10.8388 198.083 11.0815C197.616 11.3242 197.084 11.4455 196.487 11.4455C195.824 11.4455 195.218 11.2775 194.667 10.9415C194.116 10.5962 193.678 10.1202 193.351 9.51349C193.034 8.89749 192.875 8.20216 192.875 7.42749ZM199.189 7.45549C199.189 6.92349 199.077 6.46149 198.853 6.06949C198.638 5.67749 198.354 5.37883 197.999 5.17349C197.644 4.96816 197.262 4.86549 196.851 4.86549C196.44 4.86549 196.058 4.96816 195.703 5.17349C195.348 5.36949 195.059 5.66349 194.835 6.05549C194.62 6.43816 194.513 6.89549 194.513 7.42749C194.513 7.95949 194.62 8.42616 194.835 8.82749C195.059 9.22883 195.348 9.53683 195.703 9.75149C196.067 9.95683 196.45 10.0595 196.851 10.0595C197.262 10.0595 197.644 9.95683 197.999 9.75149C198.354 9.54616 198.638 9.24749 198.853 8.85549C199.077 8.45416 199.189 7.98749 199.189 7.45549Z" fill="#777E91"/>
<path d="M190.059 4.9075V9.1775C190.059 9.46683 190.124 9.67683 190.255 9.8075C190.395 9.92883 190.628 9.9895 190.955 9.9895H191.935V11.3195H190.675C189.956 11.3195 189.406 11.1515 189.023 10.8155C188.64 10.4795 188.449 9.9335 188.449 9.1775V4.9075H187.539V3.6055H188.449V1.6875H190.059V3.6055H191.935V4.9075H190.059Z" fill="#777E91"/>
<path d="M182.954 11.4169C182.3 11.4169 181.712 11.3049 181.19 11.0809C180.667 10.8476 180.256 10.5209 179.958 10.1009C179.659 9.68089 179.51 9.19089 179.51 8.63089H181.218C181.255 9.05089 181.418 9.39622 181.708 9.66689C182.006 9.93756 182.422 10.0729 182.954 10.0729C183.504 10.0729 183.934 9.94222 184.242 9.68089C184.55 9.41022 184.704 9.06489 184.704 8.64489C184.704 8.31822 184.606 8.05222 184.41 7.84689C184.223 7.64156 183.985 7.48289 183.696 7.37089C183.416 7.25889 183.024 7.13756 182.52 7.00689C181.885 6.83889 181.367 6.67089 180.966 6.50289C180.574 6.32556 180.238 6.05489 179.958 5.69089C179.678 5.32689 179.538 4.84156 179.538 4.23489C179.538 3.67489 179.678 3.18489 179.958 2.76489C180.238 2.34489 180.63 2.02289 181.134 1.79889C181.638 1.57489 182.221 1.46289 182.884 1.46289C183.826 1.46289 184.596 1.70089 185.194 2.17689C185.8 2.64356 186.136 3.28756 186.202 4.10889H184.438C184.41 3.75422 184.242 3.45089 183.934 3.19889C183.626 2.94689 183.22 2.82089 182.716 2.82089C182.258 2.82089 181.885 2.93756 181.596 3.17089C181.306 3.40422 181.162 3.74022 181.162 4.17889C181.162 4.47756 181.25 4.72489 181.428 4.92089C181.614 5.10756 181.848 5.25689 182.128 5.36889C182.408 5.48089 182.79 5.60222 183.276 5.73289C183.92 5.91022 184.442 6.08756 184.844 6.26489C185.254 6.44222 185.6 6.71756 185.88 7.09089C186.169 7.45489 186.314 7.94489 186.314 8.56089C186.314 9.05556 186.178 9.52223 185.908 9.96089C185.646 10.3996 185.259 10.7542 184.746 11.0249C184.242 11.2862 183.644 11.4169 182.954 11.4169Z" fill="#777E91"/>
<path d="M166.092 7.42698C166.092 6.65232 166.25 5.96632 166.568 5.36898C166.894 4.77165 167.333 4.30965 167.884 3.98298C168.444 3.64698 169.064 3.47898 169.746 3.47898C170.25 3.47898 170.744 3.59098 171.23 3.81498C171.724 4.02965 172.116 4.31898 172.406 4.68298V0.958984H174.016V11.319H172.406V10.157C172.144 10.5303 171.78 10.8383 171.314 11.081C170.856 11.3237 170.329 11.445 169.732 11.445C169.06 11.445 168.444 11.277 167.884 10.941C167.333 10.5957 166.894 10.1197 166.568 9.51299C166.25 8.89699 166.092 8.20165 166.092 7.42698ZM172.406 7.45498C172.406 6.92298 172.294 6.46098 172.07 6.06898C171.855 5.67698 171.57 5.37832 171.216 5.17298C170.861 4.96765 170.478 4.86498 170.068 4.86498C169.657 4.86498 169.274 4.96765 168.92 5.17298C168.565 5.36898 168.276 5.66298 168.052 6.05498C167.837 6.43765 167.73 6.89498 167.73 7.42698C167.73 7.95898 167.837 8.42565 168.052 8.82698C168.276 9.22832 168.565 9.53632 168.92 9.75098C169.284 9.95632 169.666 10.059 170.068 10.059C170.478 10.059 170.861 9.95632 171.216 9.75098C171.57 9.54565 171.855 9.24698 172.07 8.85498C172.294 8.45365 172.406 7.98698 172.406 7.45498Z" fill="#777E91"/>
<path d="M165.053 7.27349C165.053 7.56283 165.034 7.82416 164.997 8.05749H159.103C159.15 8.67349 159.379 9.16816 159.789 9.54149C160.2 9.91483 160.704 10.1015 161.301 10.1015C162.16 10.1015 162.767 9.74216 163.121 9.02349H164.843C164.61 9.73283 164.185 10.3162 163.569 10.7735C162.963 11.2215 162.206 11.4455 161.301 11.4455C160.564 11.4455 159.901 11.2822 159.313 10.9555C158.735 10.6195 158.277 10.1528 157.941 9.55549C157.614 8.94883 157.451 8.24883 157.451 7.45549C157.451 6.66216 157.61 5.96683 157.927 5.36949C158.254 4.76283 158.707 4.29616 159.285 3.96949C159.873 3.64283 160.545 3.47949 161.301 3.47949C162.029 3.47949 162.678 3.63816 163.247 3.95549C163.816 4.27283 164.26 4.72083 164.577 5.29949C164.894 5.86883 165.053 6.52682 165.053 7.27349ZM163.387 6.76949C163.378 6.18149 163.168 5.71016 162.757 5.35549C162.347 5.00083 161.838 4.82349 161.231 4.82349C160.681 4.82349 160.209 5.00083 159.817 5.35549C159.425 5.70082 159.192 6.17216 159.117 6.76949H163.387Z" fill="#777E91"/>
<path d="M154.635 4.9075V9.1775C154.635 9.46683 154.701 9.67683 154.831 9.8075C154.971 9.92883 155.205 9.9895 155.531 9.9895H156.511V11.3195H155.251C154.533 11.3195 153.982 11.1515 153.599 10.8155C153.217 10.4795 153.025 9.9335 153.025 9.1775V4.9075H152.115V3.6055H153.025V1.6875H154.635V3.6055H156.511V4.9075H154.635Z" fill="#777E91"/>
<path d="M149.895 2.58306C149.606 2.58306 149.363 2.48506 149.167 2.28906C148.971 2.09306 148.873 1.8504 148.873 1.56106C148.873 1.27173 148.971 1.02906 149.167 0.833063C149.363 0.637063 149.606 0.539062 149.895 0.539062C150.175 0.539062 150.413 0.637063 150.609 0.833063C150.805 1.02906 150.903 1.27173 150.903 1.56106C150.903 1.8504 150.805 2.09306 150.609 2.28906C150.413 2.48506 150.175 2.58306 149.895 2.58306ZM150.679 3.60506V11.3191H149.083V3.60506H150.679Z" fill="#777E91"/>
<path d="M143.882 3.47949C144.489 3.47949 145.03 3.60549 145.506 3.85749C145.992 4.10949 146.37 4.48283 146.64 4.97749C146.911 5.47216 147.046 6.06949 147.046 6.76949V11.3195H145.464V7.00749C145.464 6.31683 145.292 5.78949 144.946 5.42549C144.601 5.05216 144.13 4.86549 143.532 4.86549C142.935 4.86549 142.459 5.05216 142.104 5.42549C141.759 5.78949 141.586 6.31683 141.586 7.00749V11.3195H139.99V3.60549H141.586V4.48749C141.848 4.17016 142.179 3.92283 142.58 3.74549C142.991 3.56816 143.425 3.47949 143.882 3.47949Z" fill="#777E91"/>
<path d="M131.907 1.58887V7.79087C131.907 8.5282 132.098 9.08353 132.481 9.45687C132.873 9.8302 133.414 10.0169 134.105 10.0169C134.805 10.0169 135.346 9.8302 135.729 9.45687C136.121 9.08353 136.317 8.5282 136.317 7.79087V1.58887H137.913V7.76287C137.913 8.5562 137.74 9.2282 137.395 9.77887C137.049 10.3295 136.587 10.7402 136.009 11.0109C135.43 11.2815 134.791 11.4169 134.091 11.4169C133.391 11.4169 132.751 11.2815 132.173 11.0109C131.603 10.7402 131.151 10.3295 130.815 9.77887C130.479 9.2282 130.311 8.5562 130.311 7.76287V1.58887H131.907Z" fill="#777E91"/>
<path d="M125.293 9.40137L123.599 13.2654H122.562L123.557 9.40137H125.293Z" fill="#777E91"/>
<path d="M118.843 7.46898L122.399 11.319H120.243L117.387 8.00098V11.319H115.791V0.958984H117.387V6.97898L120.187 3.60498H122.399L118.843 7.46898Z" fill="#777E91"/>
<path d="M112.014 4.72549C112.247 4.33349 112.555 4.03016 112.938 3.81549C113.33 3.59149 113.792 3.47949 114.324 3.47949V5.13149H113.918C113.293 5.13149 112.817 5.29016 112.49 5.60749C112.173 5.92483 112.014 6.47549 112.014 7.25949V11.3195H110.418V3.60549H112.014V4.72549Z" fill="#777E91"/>
<path d="M104.837 11.4455C104.109 11.4455 103.451 11.2822 102.863 10.9555C102.275 10.6195 101.813 10.1528 101.477 9.55549C101.141 8.94883 100.973 8.24883 100.973 7.45549C100.973 6.67149 101.145 5.97616 101.491 5.36949C101.836 4.76283 102.307 4.29616 102.905 3.96949C103.502 3.64283 104.169 3.47949 104.907 3.47949C105.644 3.47949 106.311 3.64283 106.909 3.96949C107.506 4.29616 107.977 4.76283 108.323 5.36949C108.668 5.97616 108.841 6.67149 108.841 7.45549C108.841 8.23949 108.663 8.93483 108.309 9.54149C107.954 10.1482 107.469 10.6195 106.853 10.9555C106.246 11.2822 105.574 11.4455 104.837 11.4455ZM104.837 10.0595C105.247 10.0595 105.63 9.96149 105.985 9.76549C106.349 9.56949 106.643 9.27549 106.867 8.88349C107.091 8.49149 107.203 8.01549 107.203 7.45549C107.203 6.89549 107.095 6.42416 106.881 6.04149C106.666 5.64949 106.381 5.35549 106.027 5.15949C105.672 4.96349 105.289 4.86549 104.879 4.86549C104.468 4.86549 104.085 4.96349 103.731 5.15949C103.385 5.35549 103.11 5.64949 102.905 6.04149C102.699 6.42416 102.597 6.89549 102.597 7.45549C102.597 8.28616 102.807 8.93016 103.227 9.38749C103.656 9.83549 104.193 10.0595 104.837 10.0595Z" fill="#777E91"/>
<path d="M100.224 1.58887L97.0038 7.79087V11.3189H95.4078V7.79087L92.1738 1.58887H93.9518L96.2058 6.36287L98.4598 1.58887H100.224Z" fill="#777E91"/>
<path d="M88.1841 3.60547L85.7901 11.3195H84.1101L82.5561 5.62147L81.0021 11.3195H79.3221L76.9141 3.60547H78.5381L80.1481 9.80747L81.7861 3.60547H83.4521L85.0201 9.77947L86.6161 3.60547H88.1841Z" fill="#777E91"/>
<path d="M76.2543 7.27349C76.2543 7.56283 76.2357 7.82416 76.1983 8.05749H70.3043C70.351 8.67349 70.5797 9.16816 70.9903 9.54149C71.401 9.91483 71.905 10.1015 72.5023 10.1015C73.361 10.1015 73.9677 9.74216 74.3223 9.02349H76.0443C75.811 9.73283 75.3863 10.3162 74.7703 10.7735C74.1637 11.2215 73.4077 11.4455 72.5023 11.4455C71.765 11.4455 71.1023 11.2822 70.5143 10.9555C69.9357 10.6195 69.4783 10.1528 69.1423 9.55549C68.8157 8.94883 68.6523 8.24883 68.6523 7.45549C68.6523 6.66216 68.811 5.96683 69.1283 5.36949C69.455 4.76283 69.9077 4.29616 70.4863 3.96949C71.0743 3.64283 71.7463 3.47949 72.5023 3.47949C73.2304 3.47949 73.879 3.63816 74.4483 3.95549C75.0177 4.27283 75.461 4.72083 75.7783 5.29949C76.0957 5.86883 76.2543 6.52682 76.2543 7.27349ZM74.5883 6.76949C74.579 6.18149 74.369 5.71016 73.9583 5.35549C73.5477 5.00083 73.039 4.82349 72.4323 4.82349C71.8817 4.82349 71.4103 5.00083 71.0183 5.35549C70.6263 5.70082 70.393 6.17216 70.3183 6.76949H74.5883Z" fill="#777E91"/>
<path d="M67.0877 11.3192H65.4917L60.6898 4.05319V11.3192H59.0938V1.5752H60.6898L65.4917 8.8272V1.5752H67.0877V11.3192Z" fill="#777E91"/>
<path d="M54.062 9.40137L52.368 13.2654H51.332L52.326 9.40137H54.062Z" fill="#777E91"/>
<path d="M50.7426 7.27349C50.7426 7.56283 50.724 7.82416 50.6866 8.05749H44.7926C44.8393 8.67349 45.068 9.16816 45.4786 9.54149C45.8893 9.91483 46.3933 10.1015 46.9906 10.1015C47.8493 10.1015 48.456 9.74216 48.8106 9.02349H50.5326C50.2993 9.73283 49.8746 10.3162 49.2586 10.7735C48.652 11.2215 47.896 11.4455 46.9906 11.4455C46.2533 11.4455 45.5906 11.2822 45.0026 10.9555C44.424 10.6195 43.9666 10.1528 43.6306 9.55549C43.304 8.94883 43.1406 8.24883 43.1406 7.45549C43.1406 6.66216 43.2993 5.96683 43.6166 5.36949C43.9433 4.76283 44.396 4.29616 44.9746 3.96949C45.5626 3.64283 46.2346 3.47949 46.9906 3.47949C47.7186 3.47949 48.3673 3.63816 48.9366 3.95549C49.506 4.27283 49.9493 4.72083 50.2666 5.29949C50.584 5.86883 50.7426 6.52682 50.7426 7.27349ZM49.0766 6.76949C49.0673 6.18149 48.8573 5.71016 48.4466 5.35549C48.036 5.00083 47.5273 4.82349 46.9206 4.82349C46.37 4.82349 45.8986 5.00083 45.5066 5.35549C45.1146 5.70082 44.8813 6.17216 44.8066 6.76949H49.0766Z" fill="#777E91"/>
<path d="M38.5873 9.89147L40.7713 3.60547H42.4653L39.5253 11.3195H37.6213L34.6953 3.60547H36.4033L38.5873 9.89147Z" fill="#777E91"/>
<path d="M31.7095 9.3312H27.6355L26.9355 11.3192H25.2695L28.7555 1.5752H30.6035L34.0895 11.3192H32.4095L31.7095 9.3312ZM31.2615 8.0292L29.6795 3.5072L28.0835 8.0292H31.2615Z" fill="#777E91"/>
<path d="M13.6576 3.633C13.7136 2.765 14.0449 2.08833 14.6516 1.603C15.2676 1.11767 16.0516 0.875 17.0036 0.875C17.6569 0.875 18.2216 0.991667 18.6976 1.225C19.1736 1.45833 19.5329 1.77567 19.7756 2.177C20.0182 2.57833 20.1396 3.031 20.1396 3.535C20.1396 4.11367 19.9856 4.60833 19.6776 5.019C19.3696 5.42967 19.0009 5.705 18.5716 5.845V5.901C19.1222 6.069 19.5516 6.377 19.8596 6.825C20.1676 7.26367 20.3216 7.82833 20.3216 8.519C20.3216 9.06967 20.1956 9.55967 19.9436 9.989C19.6916 10.4183 19.3182 10.759 18.8236 11.011C18.3289 11.2537 17.7362 11.375 17.0456 11.375C16.0376 11.375 15.2069 11.1183 14.5536 10.605C13.9096 10.0823 13.5642 9.33567 13.5176 8.365H15.0576C15.0949 8.85967 15.2862 9.26567 15.6316 9.583C15.9769 9.891 16.4436 10.045 17.0316 10.045C17.6009 10.045 18.0396 9.891 18.3476 9.583C18.6556 9.26567 18.8096 8.85967 18.8096 8.365C18.8096 7.71167 18.5996 7.24967 18.1796 6.979C17.7689 6.699 17.1342 6.559 16.2756 6.559H15.9116V5.243H16.2896C17.0456 5.23367 17.6196 5.10767 18.0116 4.865C18.4129 4.62233 18.6136 4.23967 18.6136 3.717C18.6136 3.269 18.4689 2.91433 18.1796 2.653C17.8902 2.38233 17.4796 2.247 16.9476 2.247C16.4249 2.247 16.0189 2.38233 15.7296 2.653C15.4402 2.91433 15.2676 3.241 15.2116 3.633H13.6576Z" fill="#777E91"/>
<path d="M6.48684 9.14932C7.38284 8.37465 8.08751 7.73999 8.60084 7.24532C9.12351 6.74132 9.55751 6.21865 9.90284 5.67732C10.2482 5.13599 10.4208 4.59465 10.4208 4.05332C10.4208 3.49332 10.2855 3.05465 10.0148 2.73732C9.75351 2.41999 9.33818 2.26132 8.76884 2.26132C8.21818 2.26132 7.78884 2.43865 7.48084 2.79332C7.18218 3.13865 7.02351 3.60532 7.00484 4.19332H5.46484C5.49284 3.12932 5.81018 2.31732 6.41684 1.75732C7.03284 1.18799 7.81218 0.90332 8.75484 0.90332C9.77218 0.90332 10.5655 1.18332 11.1348 1.74332C11.7135 2.30332 12.0028 3.04999 12.0028 3.98332C12.0028 4.65532 11.8302 5.30399 11.4848 5.92932C11.1488 6.54532 10.7428 7.10065 10.2668 7.59532C9.80018 8.08065 9.20284 8.64532 8.47484 9.28932L7.84484 9.84932H12.2828V11.1793H5.47884V10.0173L6.48684 9.14932Z" fill="#777E91"/>
<path d="M0.5 2.56928V1.11328H3.412V11.3193H1.802V2.56928H0.5Z" fill="#777E91"/>
</svg>
