<svg width="110" height="14" viewBox="0 0 110 14" fill="none" xmlns="http://www.w3.org/2000/svg">
<path d="M102.915 4.46255C102.915 4.84788 102.969 5.19355 103.077 5.49955C103.19 5.79988 103.349 6.05488 103.553 6.26455C103.763 6.47421 104.015 6.63288 104.309 6.74055C104.61 6.84821 104.944 6.90205 105.312 6.90205C105.72 6.90205 106.08 6.83688 106.392 6.70655C106.709 6.57055 106.976 6.39205 107.191 6.17105C107.406 5.95005 107.571 5.69505 107.684 5.40605C107.797 5.11705 107.854 4.81671 107.854 4.50505C107.854 4.12538 107.792 3.78255 107.667 3.47655C107.548 3.16488 107.381 2.90138 107.165 2.68605C106.95 2.47071 106.692 2.30638 106.392 2.19305C106.097 2.07405 105.771 2.01455 105.414 2.01455C105.04 2.01455 104.7 2.07688 104.394 2.20155C104.088 2.32055 103.825 2.48771 103.604 2.70305C103.383 2.91838 103.213 3.17621 103.094 3.47655C102.975 3.77688 102.915 4.10555 102.915 4.46255ZM106.451 8.21105C106.576 8.04671 106.692 7.89088 106.8 7.74355C106.908 7.59621 107.01 7.44888 107.106 7.30155C106.794 7.55088 106.443 7.74072 106.052 7.87105C105.661 8.00138 105.247 8.06655 104.811 8.06655C104.352 8.06655 103.916 7.99005 103.502 7.83705C103.094 7.68405 102.734 7.46021 102.422 7.16555C102.111 6.86521 101.861 6.49971 101.674 6.06905C101.493 5.63271 101.402 5.13405 101.402 4.57305C101.402 4.04038 101.502 3.54171 101.7 3.07705C101.898 2.61238 102.176 2.20721 102.533 1.86155C102.89 1.51588 103.315 1.24388 103.808 1.04555C104.301 0.847214 104.842 0.748047 105.431 0.748047C106.015 0.748047 106.545 0.84438 107.021 1.03705C107.497 1.22971 107.905 1.49888 108.245 1.84455C108.585 2.19021 108.846 2.60388 109.027 3.08555C109.214 3.56721 109.307 4.09988 109.307 4.68355C109.307 5.03488 109.273 5.36921 109.205 5.68655C109.143 5.99821 109.05 6.30705 108.925 6.61305C108.806 6.91338 108.659 7.21371 108.483 7.51405C108.307 7.80871 108.109 8.11188 107.888 8.42355L104.921 12.7075C104.848 12.8152 104.743 12.903 104.607 12.971C104.471 13.0334 104.315 13.0645 104.139 13.0645H102.745L106.451 8.21105Z" fill="#353945"/>
<path d="M95.5801 11.9935C95.9768 11.9935 96.3309 11.9397 96.6426 11.832C96.9599 11.7187 97.2263 11.5629 97.4416 11.3645C97.6626 11.1605 97.8298 10.9197 97.9431 10.642C98.0621 10.3587 98.1216 10.047 98.1216 9.70705C98.1216 9.28772 98.0508 8.93071 97.9091 8.63605C97.7731 8.33571 97.5861 8.09205 97.3481 7.90505C97.1158 7.71805 96.8466 7.58205 96.5406 7.49705C96.2346 7.40638 95.9144 7.36105 95.5801 7.36105C95.2458 7.36105 94.9256 7.40638 94.6196 7.49705C94.3136 7.58205 94.0416 7.71805 93.8036 7.90505C93.5713 8.09205 93.3843 8.33571 93.2426 8.63605C93.1066 8.93071 93.0386 9.28772 93.0386 9.70705C93.0386 10.047 93.0953 10.3587 93.2086 10.642C93.3276 10.9197 93.4948 11.1605 93.7101 11.3645C93.9311 11.5629 94.1974 11.7187 94.5091 11.832C94.8264 11.9397 95.1834 11.9935 95.5801 11.9935ZM95.5801 1.92105C95.2174 1.92105 94.8973 1.97488 94.6196 2.08255C94.3476 2.19021 94.1181 2.33755 93.9311 2.52455C93.7498 2.71155 93.6109 2.92971 93.5146 3.17905C93.4239 3.42838 93.3786 3.69471 93.3786 3.97805C93.3786 4.25571 93.4183 4.52488 93.4976 4.78555C93.5769 5.04621 93.7044 5.27855 93.8801 5.48255C94.0558 5.68088 94.2824 5.84238 94.5601 5.96705C94.8434 6.08605 95.1834 6.14555 95.5801 6.14555C95.9768 6.14555 96.3139 6.08605 96.5916 5.96705C96.8749 5.84238 97.1044 5.68088 97.2801 5.48255C97.4558 5.27855 97.5833 5.04621 97.6626 4.78555C97.7419 4.52488 97.7816 4.25571 97.7816 3.97805C97.7816 3.69471 97.7334 3.42838 97.6371 3.17905C97.5464 2.92971 97.4076 2.71155 97.2206 2.52455C97.0393 2.33755 96.8098 2.19021 96.5321 2.08255C96.2601 1.97488 95.9428 1.92105 95.5801 1.92105ZM97.3226 6.71505C98.0819 6.93038 98.6656 7.29021 99.0736 7.79455C99.4816 8.29888 99.6856 8.94488 99.6856 9.73255C99.6856 10.2652 99.5836 10.7469 99.3796 11.1775C99.1813 11.6025 98.9008 11.9652 98.5381 12.2655C98.1811 12.5659 97.7504 12.7982 97.2461 12.9625C96.7418 13.1212 96.1864 13.2005 95.5801 13.2005C94.9738 13.2005 94.4184 13.1212 93.9141 12.9625C93.4098 12.7982 92.9763 12.5659 92.6136 12.2655C92.2509 11.9652 91.9704 11.6025 91.7721 11.1775C91.5738 10.7469 91.4746 10.2652 91.4746 9.73255C91.4746 8.94488 91.6786 8.29888 92.0866 7.79455C92.4946 7.29021 93.0783 6.93038 93.8376 6.71505C93.1973 6.47705 92.7128 6.12288 92.3841 5.65255C92.0611 5.17655 91.8996 4.60988 91.8996 3.95255C91.8996 3.50488 91.9874 3.08555 92.1631 2.69455C92.3388 2.30355 92.5881 1.96355 92.9111 1.67455C93.2341 1.38555 93.6194 1.15888 94.0671 0.994547C94.5204 0.830214 95.0248 0.748047 95.5801 0.748047C96.1298 0.748047 96.6313 0.830214 97.0846 0.994547C97.5379 1.15888 97.9261 1.38555 98.2491 1.67455C98.5721 1.96355 98.8214 2.30355 98.9971 2.69455C99.1728 3.08555 99.2606 3.50488 99.2606 3.95255C99.2606 4.60988 99.0963 5.17655 98.7676 5.65255C98.4446 6.12288 97.9629 6.47705 97.3226 6.71505Z" fill="#353945"/>
<path d="M89.9756 0.883789V1.56379C89.9756 1.75646 89.9529 1.91512 89.9076 2.03979C89.8679 2.16446 89.8282 2.26929 89.7886 2.35429L84.7396 12.5288C84.6659 12.6761 84.5639 12.8036 84.4336 12.9113C84.3032 13.0133 84.1304 13.0643 83.9151 13.0643H82.8271L87.9441 3.01729C88.0177 2.87562 88.0942 2.74529 88.1736 2.62629C88.2529 2.50729 88.3379 2.39396 88.4286 2.28629H82.0706C81.9742 2.28629 81.8892 2.24946 81.8156 2.17579C81.7419 2.09646 81.7051 2.00862 81.7051 1.91229V0.883789H89.9756Z" fill="#353945"/>
<path d="M75.8388 11.9423C76.2468 11.9423 76.6151 11.8771 76.9437 11.7468C77.2781 11.6165 77.5614 11.4351 77.7938 11.2028C78.0318 10.9705 78.2131 10.6956 78.3378 10.3783C78.4681 10.061 78.5332 9.71529 78.5332 9.34129C78.5332 8.94462 78.4709 8.58762 78.3463 8.27029C78.2216 7.94729 78.0431 7.67529 77.8108 7.45429C77.5841 7.22762 77.3121 7.05479 76.9948 6.93579C76.6774 6.81679 76.3289 6.75729 75.9492 6.75729C75.5412 6.75729 75.1729 6.82812 74.8443 6.96979C74.5156 7.10579 74.2351 7.29279 74.0028 7.53079C73.7761 7.76312 73.6004 8.03512 73.4758 8.34679C73.3568 8.65279 73.2972 8.97296 73.2972 9.30729C73.2972 9.69829 73.3539 10.0553 73.4673 10.3783C73.5806 10.7013 73.7449 10.979 73.9603 11.2113C74.1813 11.4436 74.4476 11.625 74.7593 11.7553C75.0766 11.88 75.4364 11.9423 75.8388 11.9423ZM74.9548 5.44829C74.8471 5.58429 74.7423 5.71746 74.6403 5.84779C74.5439 5.97246 74.4504 6.09712 74.3597 6.22179C74.6487 6.02346 74.9661 5.87046 75.3118 5.76279C75.6574 5.65512 76.0343 5.60129 76.4423 5.60129C76.9353 5.60129 77.3999 5.68346 77.8363 5.84779C78.2726 6.00646 78.6523 6.24162 78.9753 6.55329C79.3039 6.85929 79.5646 7.23896 79.7572 7.69229C79.9499 8.13996 80.0462 8.65279 80.0462 9.23079C80.0462 9.79179 79.9442 10.3131 79.7402 10.7948C79.5362 11.2765 79.2501 11.6958 78.8818 12.0528C78.5191 12.4098 78.0799 12.6903 77.5642 12.8943C77.0542 13.0983 76.4904 13.2003 75.8727 13.2003C75.2607 13.2003 74.7054 13.104 74.2067 12.9113C73.7081 12.713 73.2831 12.4353 72.9317 12.0783C72.5861 11.7156 72.3169 11.2793 72.1243 10.7693C71.9373 10.2536 71.8438 9.67846 71.8438 9.04379C71.8438 8.51112 71.9599 7.94446 72.1923 7.34379C72.4303 6.73746 72.8071 6.09146 73.3228 5.40579L76.4167 1.24929C76.4961 1.14729 76.6038 1.06229 76.7398 0.994289C76.8814 0.920623 77.0429 0.883789 77.2243 0.883789H78.5673L74.9548 5.44829Z" fill="#353945"/>
<path d="M65.6797 7.32715H69.8787V8.61065H65.6797V7.32715Z" fill="#353945"/>
<path d="M57.834 5.48229C58.4687 5.34629 59.0523 5.27829 59.585 5.27829C60.2197 5.27829 60.7807 5.37179 61.268 5.55879C61.7553 5.74579 62.1605 6.00362 62.4835 6.33229C62.8122 6.66096 63.0587 7.04912 63.223 7.49679C63.393 7.94446 63.478 8.43179 63.478 8.95879C63.478 9.60479 63.3647 10.1885 63.138 10.7098C62.917 11.2311 62.6082 11.6788 62.2115 12.0528C61.8205 12.4211 61.3587 12.7045 60.826 12.9028C60.2933 13.1011 59.7182 13.2003 59.1005 13.2003C58.7435 13.2003 58.4006 13.1635 58.072 13.0898C57.7433 13.0218 57.4345 12.9283 57.1455 12.8093C56.8622 12.6903 56.5987 12.5543 56.355 12.4013C56.1113 12.2483 55.896 12.0868 55.709 11.9168L56.1765 11.2708C56.2785 11.1235 56.4117 11.0498 56.576 11.0498C56.6893 11.0498 56.8168 11.0951 56.9585 11.1858C57.1002 11.2708 57.273 11.3671 57.477 11.4748C57.681 11.5825 57.919 11.6816 58.191 11.7723C58.4687 11.8573 58.7973 11.8998 59.177 11.8998C59.602 11.8998 59.9845 11.8318 60.3245 11.6958C60.6645 11.5598 60.9563 11.3671 61.2 11.1178C61.4437 10.8628 61.6307 10.5596 61.761 10.2083C61.8913 9.85696 61.9565 9.46312 61.9565 9.02679C61.9565 8.64712 61.8998 8.30429 61.7865 7.99829C61.6788 7.69229 61.5117 7.43162 61.285 7.21629C61.064 7.00096 60.7863 6.83379 60.452 6.71479C60.1177 6.59579 59.7267 6.53629 59.279 6.53629C58.973 6.53629 58.6528 6.56179 58.3185 6.61279C57.9898 6.66379 57.6527 6.74596 57.307 6.85929L56.355 6.57879L57.3325 0.883789H63.104V1.54679C63.104 1.76212 63.036 1.94062 62.9 2.08229C62.7697 2.21829 62.543 2.28629 62.22 2.28629H58.395L57.834 5.48229Z" fill="#353945"/>
<path d="M51.1013 8.66979V3.64629C51.1013 3.49896 51.107 3.33746 51.1183 3.16179C51.1296 2.98612 51.1466 2.80762 51.1693 2.62629L46.7323 8.66979H51.1013ZM54.2718 8.66979V9.53679C54.2718 9.62746 54.2435 9.70396 54.1868 9.76629C54.1358 9.82862 54.0536 9.85979 53.9403 9.85979H52.4273V13.0643H51.1013V9.85979H45.6953C45.582 9.85979 45.4828 9.82862 45.3978 9.76629C45.3185 9.69829 45.2675 9.61612 45.2448 9.51979L45.0918 8.74629L51.0163 0.883789H52.4273V8.66979H54.2718Z" fill="#353945"/>
<path d="M36.1396 4.18205C36.219 3.62671 36.372 3.13655 36.5986 2.71155C36.8253 2.28088 37.1115 1.92105 37.4571 1.63205C37.8085 1.34305 38.208 1.12488 38.6556 0.977548C39.109 0.824547 39.5963 0.748047 40.1176 0.748047C40.6333 0.748047 41.1093 0.821714 41.5456 0.969047C41.982 1.11638 42.356 1.32605 42.6676 1.59805C42.985 1.87005 43.2315 2.19871 43.4071 2.58405C43.5828 2.96938 43.6706 3.39721 43.6706 3.86755C43.6706 4.25288 43.6196 4.59855 43.5176 4.90455C43.4213 5.20488 43.2796 5.46838 43.0926 5.69505C42.9113 5.92171 42.6903 6.11438 42.4296 6.27305C42.169 6.43171 41.8771 6.56205 41.5541 6.66405C42.3475 6.86805 42.9425 7.21938 43.3391 7.71805C43.7415 8.21105 43.9426 8.82872 43.9426 9.57105C43.9426 10.132 43.835 10.6364 43.6196 11.084C43.41 11.5317 43.121 11.9142 42.7526 12.2315C42.3843 12.5432 41.9536 12.784 41.4606 12.954C40.9733 13.1184 40.4491 13.2005 39.8881 13.2005C39.2421 13.2005 38.6896 13.1212 38.2306 12.9625C37.7716 12.7982 37.3835 12.5744 37.0661 12.291C36.7488 12.0077 36.4881 11.6734 36.2841 11.288C36.0801 10.897 35.9073 10.4749 35.7656 10.0215L36.4201 9.74955C36.5901 9.67588 36.7545 9.65605 36.9131 9.69005C37.0775 9.72405 37.1965 9.81755 37.2701 9.97055C37.3438 10.1292 37.4345 10.319 37.5421 10.54C37.6555 10.761 37.8085 10.9735 38.0011 11.1775C38.1938 11.3815 38.4375 11.5544 38.7321 11.696C39.0325 11.8377 39.4121 11.9085 39.8711 11.9085C40.2961 11.9085 40.6673 11.8405 40.9846 11.7045C41.3076 11.5629 41.574 11.3815 41.7836 11.1605C41.999 10.9395 42.1605 10.693 42.2681 10.421C42.3758 10.149 42.4296 9.87988 42.4296 9.61355C42.4296 9.28488 42.3871 8.98455 42.3021 8.71255C42.2171 8.44055 42.0585 8.20538 41.8261 8.00705C41.5938 7.80871 41.2736 7.65288 40.8656 7.53955C40.4633 7.42621 39.9448 7.36955 39.3101 7.36955V6.27305C39.8315 6.26738 40.2735 6.21071 40.6361 6.10305C41.0045 5.99538 41.302 5.84805 41.5286 5.66105C41.761 5.47405 41.9281 5.25021 42.0301 4.98955C42.1378 4.72888 42.1916 4.43988 42.1916 4.12255C42.1916 3.77121 42.135 3.46521 42.0216 3.20455C41.914 2.94388 41.7638 2.72855 41.5711 2.55855C41.3785 2.38855 41.149 2.26105 40.8826 2.17605C40.622 2.09105 40.3386 2.04855 40.0326 2.04855C39.7266 2.04855 39.4405 2.09388 39.1741 2.18455C38.9135 2.27521 38.6811 2.40271 38.4771 2.56705C38.2788 2.72571 38.1116 2.91555 37.9756 3.13655C37.8396 3.35755 37.7433 3.60121 37.6866 3.86755C37.613 4.06588 37.5195 4.19905 37.4061 4.26705C37.2985 4.32938 37.1398 4.34638 36.9301 4.31805L36.1396 4.18205Z" fill="#353945"/>
<path d="M33.5632 11.628C33.7275 11.628 33.8578 11.6762 33.9542 11.7725C34.0505 11.8689 34.0987 11.9935 34.0987 12.1465V13.0645H25.9727V12.546C25.9727 12.4384 25.9953 12.3279 26.0407 12.2145C26.086 12.1012 26.1568 11.9964 26.2532 11.9L30.1547 7.98155C30.4777 7.65288 30.7723 7.33838 31.0387 7.03805C31.305 6.73205 31.5317 6.42605 31.7187 6.12005C31.9057 5.81405 32.0502 5.50521 32.1522 5.19355C32.2542 4.87621 32.3052 4.53905 32.3052 4.18205C32.3052 3.82505 32.2485 3.51338 32.1352 3.24705C32.0218 2.97505 31.866 2.75121 31.6677 2.57555C31.475 2.39988 31.2455 2.26955 30.9792 2.18455C30.7128 2.09388 30.4267 2.04855 30.1207 2.04855C29.809 2.04855 29.5228 2.09388 29.2622 2.18455C29.0015 2.27521 28.7692 2.40271 28.5652 2.56705C28.3668 2.72571 28.1997 2.91555 28.0637 3.13655C27.9277 3.35755 27.8313 3.60121 27.7747 3.86755C27.7067 4.06588 27.6132 4.19905 27.4942 4.26705C27.3808 4.32938 27.2193 4.34638 27.0097 4.31805L26.2192 4.18205C26.2985 3.62671 26.4515 3.13655 26.6782 2.71155C26.9105 2.28088 27.1995 1.92105 27.5452 1.63205C27.8965 1.34305 28.296 1.12488 28.7437 0.977548C29.1913 0.824547 29.6758 0.748047 30.1972 0.748047C30.7128 0.748047 31.1945 0.824547 31.6422 0.977548C32.0898 1.13055 32.478 1.35438 32.8067 1.64905C33.1353 1.93805 33.3932 2.29221 33.5802 2.71155C33.7672 3.13088 33.8607 3.60688 33.8607 4.13955C33.8607 4.59288 33.7927 5.01505 33.6567 5.40605C33.5207 5.79138 33.3365 6.15971 33.1042 6.51105C32.8718 6.86238 32.6027 7.20521 32.2967 7.53955C31.9963 7.87388 31.6762 8.21105 31.3362 8.55105L28.1232 11.832C28.3498 11.7697 28.5793 11.7215 28.8117 11.6875C29.044 11.6479 29.2678 11.628 29.4832 11.628H33.5632Z" fill="#353945"/>
<path d="M19.9258 7.32715H24.1248V8.61065H19.9258V7.32715Z" fill="#353945"/>
<path d="M17.6555 11.9084V13.0644H11.1275V11.9084H13.737V3.6039C13.737 3.35457 13.7455 3.1024 13.7625 2.8474L11.595 4.7089C11.5213 4.77123 11.4477 4.8109 11.374 4.8279C11.3003 4.83923 11.2323 4.83923 11.17 4.8279C11.1077 4.81656 11.0482 4.7939 10.9915 4.7599C10.9405 4.7259 10.9008 4.68907 10.8725 4.6494L10.3965 3.9949L14.026 0.858398H15.2585V11.9084H17.6555Z" fill="#353945"/>
<path d="M8.1515 7.93032H4.6835V11.5853H3.451V7.93032H0V6.78282H3.451V3.15332H4.6835V6.78282H8.1515V7.93032Z" fill="#353945"/>
</svg>
