<svg width="110" height="13" viewBox="0 0 110 13" fill="none" xmlns="http://www.w3.org/2000/svg">
<path d="M102.915 3.96255C102.915 4.34788 102.969 4.69355 103.077 4.99955C103.19 5.29988 103.349 5.55488 103.553 5.76455C103.763 5.97421 104.015 6.13288 104.309 6.24055C104.61 6.34821 104.944 6.40205 105.312 6.40205C105.72 6.40205 106.08 6.33688 106.392 6.20655C106.709 6.07055 106.976 5.89205 107.191 5.67105C107.406 5.45005 107.571 5.19505 107.684 4.90605C107.797 4.61705 107.854 4.31671 107.854 4.00505C107.854 3.62538 107.792 3.28255 107.667 2.97655C107.548 2.66488 107.381 2.40138 107.165 2.18605C106.95 1.97071 106.692 1.80638 106.392 1.69305C106.097 1.57405 105.771 1.51455 105.414 1.51455C105.04 1.51455 104.7 1.57688 104.394 1.70155C104.088 1.82055 103.825 1.98771 103.604 2.20305C103.383 2.41838 103.213 2.67621 103.094 2.97655C102.975 3.27688 102.915 3.60555 102.915 3.96255ZM106.451 7.71105C106.576 7.54671 106.692 7.39088 106.8 7.24355C106.908 7.09621 107.01 6.94888 107.106 6.80155C106.794 7.05088 106.443 7.24072 106.052 7.37105C105.661 7.50138 105.247 7.56655 104.811 7.56655C104.352 7.56655 103.916 7.49005 103.502 7.33705C103.094 7.18405 102.734 6.96021 102.422 6.66555C102.111 6.36521 101.861 5.99971 101.674 5.56905C101.493 5.13271 101.402 4.63405 101.402 4.07305C101.402 3.54038 101.502 3.04171 101.7 2.57705C101.898 2.11238 102.176 1.70721 102.533 1.36155C102.89 1.01588 103.315 0.743881 103.808 0.545548C104.301 0.347214 104.842 0.248047 105.431 0.248047C106.015 0.248047 106.545 0.34438 107.021 0.537047C107.497 0.729714 107.905 0.998881 108.245 1.34455C108.585 1.69021 108.846 2.10388 109.027 2.58555C109.214 3.06721 109.307 3.59988 109.307 4.18355C109.307 4.53488 109.273 4.86921 109.205 5.18655C109.143 5.49821 109.05 5.80705 108.925 6.11305C108.806 6.41338 108.659 6.71371 108.483 7.01405C108.307 7.30871 108.109 7.61188 107.888 7.92355L104.921 12.2075C104.848 12.3152 104.743 12.403 104.607 12.471C104.471 12.5334 104.315 12.5645 104.139 12.5645H102.745L106.451 7.71105Z" fill="#353945"/>
<path d="M95.5801 11.4935C95.9768 11.4935 96.3309 11.4397 96.6426 11.332C96.9599 11.2187 97.2263 11.0629 97.4416 10.8645C97.6626 10.6605 97.8298 10.4197 97.9431 10.142C98.0621 9.85872 98.1216 9.54705 98.1216 9.20705C98.1216 8.78771 98.0508 8.43071 97.9091 8.13605C97.7731 7.83571 97.5861 7.59205 97.3481 7.40505C97.1158 7.21805 96.8466 7.08205 96.5406 6.99705C96.2346 6.90638 95.9144 6.86105 95.5801 6.86105C95.2458 6.86105 94.9256 6.90638 94.6196 6.99705C94.3136 7.08205 94.0416 7.21805 93.8036 7.40505C93.5713 7.59205 93.3843 7.83571 93.2426 8.13605C93.1066 8.43071 93.0386 8.78771 93.0386 9.20705C93.0386 9.54705 93.0953 9.85872 93.2086 10.142C93.3276 10.4197 93.4948 10.6605 93.7101 10.8645C93.9311 11.0629 94.1974 11.2187 94.5091 11.332C94.8264 11.4397 95.1834 11.4935 95.5801 11.4935ZM95.5801 1.42105C95.2174 1.42105 94.8973 1.47488 94.6196 1.58255C94.3476 1.69021 94.1181 1.83755 93.9311 2.02455C93.7498 2.21155 93.6109 2.42971 93.5146 2.67905C93.4239 2.92838 93.3786 3.19471 93.3786 3.47805C93.3786 3.75571 93.4183 4.02488 93.4976 4.28555C93.5769 4.54621 93.7044 4.77855 93.8801 4.98255C94.0558 5.18088 94.2824 5.34238 94.5601 5.46705C94.8434 5.58605 95.1834 5.64555 95.5801 5.64555C95.9768 5.64555 96.3139 5.58605 96.5916 5.46705C96.8749 5.34238 97.1044 5.18088 97.2801 4.98255C97.4558 4.77855 97.5833 4.54621 97.6626 4.28555C97.7419 4.02488 97.7816 3.75571 97.7816 3.47805C97.7816 3.19471 97.7334 2.92838 97.6371 2.67905C97.5464 2.42971 97.4076 2.21155 97.2206 2.02455C97.0393 1.83755 96.8098 1.69021 96.5321 1.58255C96.2601 1.47488 95.9428 1.42105 95.5801 1.42105ZM97.3226 6.21505C98.0819 6.43038 98.6656 6.79021 99.0736 7.29455C99.4816 7.79888 99.6856 8.44488 99.6856 9.23255C99.6856 9.76521 99.5836 10.2469 99.3796 10.6775C99.1813 11.1025 98.9008 11.4652 98.5381 11.7655C98.1811 12.0659 97.7504 12.2982 97.2461 12.4625C96.7418 12.6212 96.1864 12.7005 95.5801 12.7005C94.9738 12.7005 94.4184 12.6212 93.9141 12.4625C93.4098 12.2982 92.9763 12.0659 92.6136 11.7655C92.2509 11.4652 91.9704 11.1025 91.7721 10.6775C91.5738 10.2469 91.4746 9.76521 91.4746 9.23255C91.4746 8.44488 91.6786 7.79888 92.0866 7.29455C92.4946 6.79021 93.0783 6.43038 93.8376 6.21505C93.1973 5.97705 92.7128 5.62288 92.3841 5.15255C92.0611 4.67655 91.8996 4.10988 91.8996 3.45255C91.8996 3.00488 91.9874 2.58555 92.1631 2.19455C92.3388 1.80355 92.5881 1.46355 92.9111 1.17455C93.2341 0.885548 93.6194 0.658881 94.0671 0.494547C94.5204 0.330214 95.0248 0.248047 95.5801 0.248047C96.1298 0.248047 96.6313 0.330214 97.0846 0.494547C97.5379 0.658881 97.9261 0.885548 98.2491 1.17455C98.5721 1.46355 98.8214 1.80355 98.9971 2.19455C99.1728 2.58555 99.2606 3.00488 99.2606 3.45255C99.2606 4.10988 99.0963 4.67655 98.7676 5.15255C98.4446 5.62288 97.9629 5.97705 97.3226 6.21505Z" fill="#353945"/>
<path d="M89.9756 0.384277V1.06428C89.9756 1.25695 89.9529 1.41561 89.9076 1.54028C89.8679 1.66494 89.8282 1.76978 89.7886 1.85478L84.7396 12.0293C84.6659 12.1766 84.5639 12.3041 84.4336 12.4118C84.3032 12.5138 84.1304 12.5648 83.9151 12.5648H82.8271L87.9441 2.51778C88.0177 2.37611 88.0942 2.24578 88.1736 2.12678C88.2529 2.00778 88.3379 1.89444 88.4286 1.78678H82.0706C81.9742 1.78678 81.8892 1.74994 81.8156 1.67628C81.7419 1.59694 81.7051 1.50911 81.7051 1.41278V0.384277H89.9756Z" fill="#353945"/>
<path d="M75.8388 11.4428C76.2468 11.4428 76.6151 11.3776 76.9437 11.2473C77.2781 11.1169 77.5614 10.9356 77.7938 10.7033C78.0318 10.4709 78.2131 10.1961 78.3378 9.87878C78.4681 9.56144 78.5332 9.21578 78.5332 8.84178C78.5332 8.44511 78.4709 8.08811 78.3463 7.77078C78.2216 7.44778 78.0431 7.17578 77.8108 6.95478C77.5841 6.72811 77.3121 6.55528 76.9948 6.43628C76.6774 6.31728 76.3289 6.25778 75.9492 6.25778C75.5412 6.25778 75.1729 6.32861 74.8443 6.47028C74.5156 6.60628 74.2351 6.79328 74.0028 7.03128C73.7761 7.26361 73.6004 7.53561 73.4758 7.84728C73.3568 8.15328 73.2972 8.47344 73.2972 8.80778C73.2972 9.19878 73.3539 9.55578 73.4673 9.87878C73.5806 10.2018 73.7449 10.4794 73.9603 10.7118C74.1813 10.9441 74.4476 11.1254 74.7593 11.2558C75.0766 11.3804 75.4364 11.4428 75.8388 11.4428ZM74.9548 4.94878C74.8471 5.08478 74.7423 5.21794 74.6403 5.34828C74.5439 5.47294 74.4504 5.59761 74.3597 5.72228C74.6487 5.52394 74.9661 5.37094 75.3118 5.26328C75.6574 5.15561 76.0343 5.10178 76.4423 5.10178C76.9353 5.10178 77.3999 5.18394 77.8363 5.34828C78.2726 5.50694 78.6523 5.74211 78.9753 6.05378C79.3039 6.35978 79.5646 6.73944 79.7572 7.19278C79.9499 7.64044 80.0462 8.15328 80.0462 8.73128C80.0462 9.29228 79.9443 9.81361 79.7402 10.2953C79.5362 10.7769 79.2501 11.1963 78.8818 11.5533C78.5191 11.9103 78.0799 12.1908 77.5642 12.3948C77.0542 12.5988 76.4904 12.7008 75.8727 12.7008C75.2607 12.7008 74.7054 12.6044 74.2067 12.4118C73.7081 12.2134 73.2831 11.9358 72.9317 11.5788C72.5861 11.2161 72.3169 10.7798 72.1243 10.2698C71.9373 9.75411 71.8438 9.17894 71.8438 8.54428C71.8438 8.01161 71.9599 7.44494 72.1923 6.84428C72.4303 6.23795 72.8071 5.59194 73.3228 4.90628L76.4167 0.749777C76.4961 0.647777 76.6038 0.562777 76.7398 0.494778C76.8814 0.421111 77.0429 0.384277 77.2243 0.384277H78.5673L74.9548 4.94878Z" fill="#353945"/>
<path d="M65.6797 6.82715H69.8787V8.11065H65.6797V6.82715Z" fill="#353945"/>
<path d="M57.834 4.98278C58.4687 4.84678 59.0523 4.77878 59.585 4.77878C60.2197 4.77878 60.7807 4.87228 61.268 5.05928C61.7553 5.24628 62.1605 5.50411 62.4835 5.83278C62.8122 6.16144 63.0587 6.54961 63.223 6.99728C63.393 7.44494 63.478 7.93228 63.478 8.45928C63.478 9.10528 63.3647 9.68894 63.138 10.2103C62.917 10.7316 62.6082 11.1793 62.2115 11.5533C61.8205 11.9216 61.3587 12.2049 60.826 12.4033C60.2933 12.6016 59.7182 12.7008 59.1005 12.7008C58.7435 12.7008 58.4007 12.6639 58.072 12.5903C57.7433 12.5223 57.4345 12.4288 57.1455 12.3098C56.8622 12.1908 56.5987 12.0548 56.355 11.9018C56.1113 11.7488 55.896 11.5873 55.709 11.4173L56.1765 10.7713C56.2785 10.6239 56.4117 10.5503 56.576 10.5503C56.6893 10.5503 56.8168 10.5956 56.9585 10.6863C57.1002 10.7713 57.273 10.8676 57.477 10.9753C57.681 11.0829 57.919 11.1821 58.191 11.2728C58.4687 11.3578 58.7973 11.4003 59.177 11.4003C59.602 11.4003 59.9845 11.3323 60.3245 11.1963C60.6645 11.0603 60.9563 10.8676 61.2 10.6183C61.4437 10.3633 61.6307 10.0601 61.761 9.70878C61.8913 9.35744 61.9565 8.96361 61.9565 8.52728C61.9565 8.14761 61.8998 7.80478 61.7865 7.49878C61.6788 7.19278 61.5117 6.93211 61.285 6.71678C61.064 6.50144 60.7863 6.33428 60.452 6.21528C60.1177 6.09628 59.7267 6.03678 59.279 6.03678C58.973 6.03678 58.6528 6.06228 58.3185 6.11328C57.9898 6.16428 57.6527 6.24644 57.307 6.35978L56.355 6.07928L57.3325 0.384277H63.104V1.04728C63.104 1.26261 63.036 1.44111 62.9 1.58278C62.7697 1.71878 62.543 1.78678 62.22 1.78678H58.395L57.834 4.98278Z" fill="#353945"/>
<path d="M51.1013 8.17028V3.14678C51.1013 2.99944 51.107 2.83794 51.1183 2.66228C51.1296 2.48661 51.1466 2.30811 51.1693 2.12678L46.7323 8.17028H51.1013ZM54.2718 8.17028V9.03728C54.2718 9.12794 54.2435 9.20444 54.1868 9.26678C54.1358 9.32911 54.0536 9.36028 53.9403 9.36028H52.4273V12.5648H51.1013V9.36028H45.6953C45.582 9.36028 45.4828 9.32911 45.3978 9.26678C45.3185 9.19878 45.2675 9.11661 45.2448 9.02028L45.0918 8.24678L51.0163 0.384277H52.4273V8.17028H54.2718Z" fill="#353945"/>
<path d="M36.1396 3.68205C36.219 3.12671 36.372 2.63655 36.5986 2.21155C36.8253 1.78088 37.1115 1.42105 37.4571 1.13205C37.8085 0.843048 38.208 0.624881 38.6556 0.477548C39.109 0.324547 39.5963 0.248047 40.1176 0.248047C40.6333 0.248047 41.1093 0.321714 41.5456 0.469047C41.982 0.616381 42.356 0.826047 42.6676 1.09805C42.985 1.37005 43.2315 1.69871 43.4071 2.08405C43.5828 2.46938 43.6706 2.89721 43.6706 3.36755C43.6706 3.75288 43.6196 4.09855 43.5176 4.40455C43.4213 4.70488 43.2796 4.96838 43.0926 5.19505C42.9113 5.42171 42.6903 5.61438 42.4296 5.77305C42.169 5.93171 41.8771 6.06205 41.5541 6.16405C42.3475 6.36805 42.9425 6.71938 43.3391 7.21805C43.7415 7.71105 43.9426 8.32872 43.9426 9.07105C43.9426 9.63205 43.835 10.1364 43.6196 10.584C43.41 11.0317 43.121 11.4142 42.7526 11.7315C42.3843 12.0432 41.9536 12.284 41.4606 12.454C40.9733 12.6184 40.4491 12.7005 39.8881 12.7005C39.2421 12.7005 38.6896 12.6212 38.2306 12.4625C37.7716 12.2982 37.3835 12.0744 37.0661 11.791C36.7488 11.5077 36.4881 11.1734 36.2841 10.788C36.0801 10.397 35.9073 9.97488 35.7656 9.52155L36.4201 9.24955C36.5901 9.17588 36.7545 9.15605 36.9131 9.19005C37.0775 9.22405 37.1965 9.31755 37.2701 9.47055C37.3438 9.62922 37.4345 9.81905 37.5421 10.04C37.6555 10.261 37.8085 10.4735 38.0011 10.6775C38.1938 10.8815 38.4375 11.0544 38.7321 11.196C39.0325 11.3377 39.4121 11.4085 39.8711 11.4085C40.2961 11.4085 40.6673 11.3405 40.9846 11.2045C41.3076 11.0629 41.574 10.8815 41.7836 10.6605C41.999 10.4395 42.1605 10.193 42.2681 9.92105C42.3758 9.64905 42.4296 9.37988 42.4296 9.11355C42.4296 8.78488 42.3871 8.48455 42.3021 8.21255C42.2171 7.94055 42.0585 7.70538 41.8261 7.50705C41.5938 7.30871 41.2736 7.15288 40.8656 7.03955C40.4633 6.92621 39.9448 6.86955 39.3101 6.86955V5.77305C39.8315 5.76738 40.2735 5.71071 40.6361 5.60305C41.0045 5.49538 41.302 5.34805 41.5286 5.16105C41.761 4.97405 41.9281 4.75021 42.0301 4.48955C42.1378 4.22888 42.1916 3.93988 42.1916 3.62255C42.1916 3.27121 42.135 2.96521 42.0216 2.70455C41.914 2.44388 41.7638 2.22855 41.5711 2.05855C41.3785 1.88855 41.149 1.76105 40.8826 1.67605C40.622 1.59105 40.3386 1.54855 40.0326 1.54855C39.7266 1.54855 39.4405 1.59388 39.1741 1.68455C38.9135 1.77521 38.6811 1.90271 38.4771 2.06705C38.2788 2.22571 38.1116 2.41555 37.9756 2.63655C37.8396 2.85755 37.7433 3.10121 37.6866 3.36755C37.613 3.56588 37.5195 3.69905 37.4061 3.76705C37.2985 3.82938 37.1398 3.84638 36.9301 3.81805L36.1396 3.68205Z" fill="#353945"/>
<path d="M33.5632 11.128C33.7275 11.128 33.8578 11.1762 33.9542 11.2725C34.0505 11.3689 34.0987 11.4935 34.0987 11.6465V12.5645H25.9727V12.046C25.9727 11.9384 25.9953 11.8279 26.0407 11.7145C26.086 11.6012 26.1568 11.4964 26.2532 11.4L30.1547 7.48155C30.4777 7.15288 30.7723 6.83838 31.0387 6.53805C31.305 6.23205 31.5317 5.92605 31.7187 5.62005C31.9057 5.31405 32.0502 5.00521 32.1522 4.69355C32.2542 4.37621 32.3052 4.03905 32.3052 3.68205C32.3052 3.32505 32.2485 3.01338 32.1352 2.74705C32.0218 2.47505 31.866 2.25121 31.6677 2.07555C31.475 1.89988 31.2455 1.76955 30.9792 1.68455C30.7128 1.59388 30.4267 1.54855 30.1207 1.54855C29.809 1.54855 29.5228 1.59388 29.2622 1.68455C29.0015 1.77521 28.7692 1.90271 28.5652 2.06705C28.3668 2.22571 28.1997 2.41555 28.0637 2.63655C27.9277 2.85755 27.8313 3.10121 27.7747 3.36755C27.7067 3.56588 27.6132 3.69905 27.4942 3.76705C27.3808 3.82938 27.2193 3.84638 27.0097 3.81805L26.2192 3.68205C26.2985 3.12671 26.4515 2.63655 26.6782 2.21155C26.9105 1.78088 27.1995 1.42105 27.5452 1.13205C27.8965 0.843048 28.296 0.624881 28.7437 0.477548C29.1913 0.324547 29.6758 0.248047 30.1972 0.248047C30.7128 0.248047 31.1945 0.324547 31.6422 0.477548C32.0898 0.630547 32.478 0.85438 32.8067 1.14905C33.1353 1.43805 33.3932 1.79221 33.5802 2.21155C33.7672 2.63088 33.8607 3.10688 33.8607 3.63955C33.8607 4.09288 33.7927 4.51505 33.6567 4.90605C33.5207 5.29138 33.3365 5.65971 33.1042 6.01105C32.8718 6.36238 32.6027 6.70521 32.2967 7.03955C31.9963 7.37388 31.6762 7.71105 31.3362 8.05105L28.1232 11.332C28.3498 11.2697 28.5793 11.2215 28.8117 11.1875C29.044 11.1479 29.2678 11.128 29.4832 11.128H33.5632Z" fill="#353945"/>
<path d="M19.9258 6.82715H24.1248V8.11065H19.9258V6.82715Z" fill="#353945"/>
<path d="M17.6555 11.4084V12.5644H11.1275V11.4084H13.737V3.1039C13.737 2.85457 13.7455 2.6024 13.7625 2.3474L11.595 4.2089C11.5213 4.27123 11.4477 4.3109 11.374 4.3279C11.3003 4.33923 11.2323 4.33923 11.17 4.3279C11.1077 4.31657 11.0482 4.2939 10.9915 4.2599C10.9405 4.2259 10.9008 4.18907 10.8725 4.1494L10.3965 3.4949L14.026 0.358398H15.2585V11.4084H17.6555Z" fill="#353945"/>
<path d="M8.1515 7.43032H4.6835V11.0853H3.451V7.43032H0V6.28282H3.451V2.65332H4.6835V6.28282H8.1515V7.43032Z" fill="#353945"/>
</svg>
