<svg width="49" height="13" viewBox="0 0 49 13" fill="none" xmlns="http://www.w3.org/2000/svg">
<path d="M46.7905 5.60134V9.88934C46.7905 10.188 46.8598 10.4067 46.9985 10.5453C47.1478 10.6733 47.3932 10.7373 47.7345 10.7373H48.7745V12.6253H47.3665C45.4785 12.6253 44.5345 11.708 44.5345 9.87334V5.60134H43.4785V3.76134H44.5345V1.56934H46.7905V3.76134H48.7745V5.60134H46.7905Z" fill="#363940"/>
<path d="M41.9714 3.76123V12.6252H39.7154V11.5052C39.4274 11.8892 39.0488 12.1932 38.5794 12.4172C38.1208 12.6306 37.6194 12.7372 37.0754 12.7372C36.3821 12.7372 35.7688 12.5932 35.2354 12.3052C34.7021 12.0066 34.2808 11.5746 33.9714 11.0092C33.6728 10.4332 33.5234 9.75056 33.5234 8.96123V3.76123H35.7634V8.64123C35.7634 9.34523 35.9394 9.88923 36.2914 10.2732C36.6434 10.6466 37.1234 10.8332 37.7314 10.8332C38.3501 10.8332 38.8354 10.6466 39.1874 10.2732C39.5394 9.88923 39.7154 9.34523 39.7154 8.64123V3.76123H41.9714Z" fill="#363940"/>
<path d="M27.3378 12.7692C26.4845 12.7692 25.7165 12.5825 25.0338 12.2092C24.3511 11.8252 23.8125 11.2865 23.4178 10.5932C23.0338 9.89986 22.8418 9.09985 22.8418 8.19319C22.8418 7.28652 23.0391 6.48652 23.4338 5.79319C23.8391 5.09985 24.3885 4.56652 25.0818 4.19319C25.7751 3.80919 26.5485 3.61719 27.4018 3.61719C28.2551 3.61719 29.0285 3.80919 29.7218 4.19319C30.4151 4.56652 30.9591 5.09985 31.3538 5.79319C31.7591 6.48652 31.9618 7.28652 31.9618 8.19319C31.9618 9.09985 31.7538 9.89986 31.3378 10.5932C30.9325 11.2865 30.3778 11.8252 29.6738 12.2092C28.9805 12.5825 28.2018 12.7692 27.3378 12.7692ZM27.3378 10.8172C27.7431 10.8172 28.1218 10.7212 28.4738 10.5292C28.8365 10.3265 29.1245 10.0279 29.3378 9.63319C29.5511 9.23852 29.6578 8.75852 29.6578 8.19319C29.6578 7.35052 29.4338 6.70519 28.9858 6.25719C28.5485 5.79852 28.0098 5.56919 27.3698 5.56919C26.7298 5.56919 26.1911 5.79852 25.7538 6.25719C25.3271 6.70519 25.1138 7.35052 25.1138 8.19319C25.1138 9.03585 25.3218 9.68652 25.7378 10.1452C26.1645 10.5932 26.6978 10.8172 27.3378 10.8172Z" fill="#363940"/>
<path d="M14.7966 5.05716C15.0846 4.63049 15.4793 4.28382 15.9806 4.01716C16.4926 3.75049 17.074 3.61716 17.7246 3.61716C18.482 3.61716 19.1646 3.80382 19.7726 4.17716C20.3913 4.55049 20.8766 5.08382 21.2286 5.77716C21.5913 6.45982 21.7726 7.25449 21.7726 8.16116C21.7726 9.06782 21.5913 9.87316 21.2286 10.5772C20.8766 11.2705 20.3913 11.8092 19.7726 12.1932C19.1646 12.5772 18.482 12.7692 17.7246 12.7692C17.0633 12.7692 16.482 12.6412 15.9806 12.3852C15.49 12.1185 15.0953 11.7772 14.7966 11.3612V12.6252H12.5566V0.785156H14.7966V5.05716ZM19.4846 8.16116C19.4846 7.62782 19.3726 7.16916 19.1486 6.78516C18.9353 6.39049 18.6473 6.09182 18.2846 5.88916C17.9326 5.68649 17.5486 5.58516 17.1326 5.58516C16.7273 5.58516 16.3433 5.69182 15.9806 5.90516C15.6286 6.10782 15.3406 6.40649 15.1166 6.80116C14.9033 7.19582 14.7966 7.65982 14.7966 8.19316C14.7966 8.72649 14.9033 9.19049 15.1166 9.58516C15.3406 9.97982 15.6286 10.2838 15.9806 10.4972C16.3433 10.6998 16.7273 10.8012 17.1326 10.8012C17.5486 10.8012 17.9326 10.6945 18.2846 10.4812C18.6473 10.2678 18.9353 9.96382 19.1486 9.56916C19.3726 9.17449 19.4846 8.70516 19.4846 8.16116Z" fill="#363940"/>
<path d="M7.95202 10.4969H3.50402L2.76802 12.6249H0.416016L4.43202 1.44092H7.04002L11.056 12.6249H8.68802L7.95202 10.4969ZM7.34402 8.70492L5.72802 4.03292L4.11202 8.70492H7.34402Z" fill="#363940"/>
</svg>
