<svg width="49" height="13" viewBox="0 0 49 13" fill="none" xmlns="http://www.w3.org/2000/svg">
<path d="M46.7905 5.10134V9.38934C46.7905 9.688 46.8598 9.90667 46.9985 10.0453C47.1478 10.1733 47.3932 10.2373 47.7345 10.2373H48.7745V12.1253H47.3665C45.4785 12.1253 44.5345 11.208 44.5345 9.37334V5.10134H43.4785V3.26134H44.5345V1.06934H46.7905V3.26134H48.7745V5.10134H46.7905Z" fill="#363940"/>
<path d="M41.9724 3.26074V12.1247H39.7164V11.0047C39.4284 11.3887 39.0498 11.6927 38.5804 11.9167C38.1218 12.1301 37.6204 12.2367 37.0764 12.2367C36.3831 12.2367 35.7697 12.0927 35.2364 11.8047C34.7031 11.5061 34.2817 11.0741 33.9724 10.5087C33.6737 9.93274 33.5244 9.25008 33.5244 8.46074V3.26074H35.7644V8.14074C35.7644 8.84474 35.9404 9.38874 36.2924 9.77274C36.6444 10.1461 37.1244 10.3327 37.7324 10.3327C38.3511 10.3327 38.8364 10.1461 39.1884 9.77274C39.5404 9.38874 39.7164 8.84474 39.7164 8.14074V3.26074H41.9724Z" fill="#363940"/>
<path d="M27.3378 12.2692C26.4845 12.2692 25.7165 12.0825 25.0338 11.7092C24.3511 11.3252 23.8125 10.7865 23.4178 10.0932C23.0338 9.39986 22.8418 8.59985 22.8418 7.69319C22.8418 6.78652 23.0391 5.98652 23.4338 5.29319C23.8391 4.59985 24.3885 4.06652 25.0818 3.69319C25.7751 3.30919 26.5485 3.11719 27.4018 3.11719C28.2551 3.11719 29.0285 3.30919 29.7218 3.69319C30.4151 4.06652 30.9591 4.59985 31.3538 5.29319C31.7591 5.98652 31.9618 6.78652 31.9618 7.69319C31.9618 8.59985 31.7538 9.39986 31.3378 10.0932C30.9325 10.7865 30.3778 11.3252 29.6738 11.7092C28.9805 12.0825 28.2018 12.2692 27.3378 12.2692ZM27.3378 10.3172C27.7431 10.3172 28.1218 10.2212 28.4738 10.0292C28.8365 9.82652 29.1245 9.52785 29.3378 9.13319C29.5511 8.73852 29.6578 8.25852 29.6578 7.69319C29.6578 6.85052 29.4338 6.20519 28.9858 5.75719C28.5485 5.29852 28.0098 5.06919 27.3698 5.06919C26.7298 5.06919 26.1911 5.29852 25.7538 5.75719C25.3271 6.20519 25.1138 6.85052 25.1138 7.69319C25.1138 8.53585 25.3218 9.18652 25.7378 9.64519C26.1645 10.0932 26.6978 10.3172 27.3378 10.3172Z" fill="#363940"/>
<path d="M14.7966 4.55716C15.0846 4.13049 15.4793 3.78382 15.9806 3.51716C16.4926 3.25049 17.074 3.11716 17.7246 3.11716C18.482 3.11716 19.1646 3.30382 19.7726 3.67716C20.3913 4.05049 20.8766 4.58382 21.2286 5.27716C21.5913 5.95982 21.7726 6.75449 21.7726 7.66116C21.7726 8.56782 21.5913 9.37316 21.2286 10.0772C20.8766 10.7705 20.3913 11.3092 19.7726 11.6932C19.1646 12.0772 18.482 12.2692 17.7246 12.2692C17.0633 12.2692 16.482 12.1412 15.9806 11.8852C15.49 11.6185 15.0953 11.2772 14.7966 10.8612V12.1252H12.5566V0.285156H14.7966V4.55716ZM19.4846 7.66116C19.4846 7.12782 19.3726 6.66916 19.1486 6.28516C18.9353 5.89049 18.6473 5.59182 18.2846 5.38916C17.9326 5.18649 17.5486 5.08516 17.1326 5.08516C16.7273 5.08516 16.3433 5.19182 15.9806 5.40516C15.6286 5.60782 15.3406 5.90649 15.1166 6.30116C14.9033 6.69582 14.7966 7.15982 14.7966 7.69316C14.7966 8.22649 14.9033 8.69049 15.1166 9.08516C15.3406 9.47982 15.6286 9.78382 15.9806 9.99716C16.3433 10.1998 16.7273 10.3012 17.1326 10.3012C17.5486 10.3012 17.9326 10.1945 18.2846 9.98116C18.6473 9.76782 18.9353 9.46382 19.1486 9.06916C19.3726 8.67449 19.4846 8.20516 19.4846 7.66116Z" fill="#363940"/>
<path d="M7.95202 9.99741H3.50402L2.76802 12.1254H0.416016L4.43202 0.941406H7.04002L11.056 12.1254H8.68802L7.95202 9.99741ZM7.34402 8.20541L5.72802 3.53341L4.11202 8.20541H7.34402Z" fill="#363940"/>
</svg>
