<svg width="32" height="32" viewBox="0 0 32 32" fill="none" xmlns="http://www.w3.org/2000/svg">
<path fill-rule="evenodd" clip-rule="evenodd" d="M12.6665 16.7383C16.3393 16.7383 19.2833 13.7562 19.2833 10.0358C19.2833 6.31555 16.3393 3.33337 12.6665 3.33337C8.99374 3.33337 6.04966 6.31555 6.04966 10.0358C6.04966 13.7562 8.99374 16.7383 12.6665 16.7383ZM12.6665 20.0203C7.27213 20.0203 2.6665 20.8828 2.6665 24.3286C2.6665 27.7731 7.2441 28.6667 12.6665 28.6667C18.0596 28.6667 22.6665 27.8042 22.6665 24.3583C22.6665 20.9126 18.0889 20.0203 12.6665 20.0203ZM26.5304 12.7839H28.1345C28.7948 12.7839 29.3332 13.3298 29.3332 13.9994C29.3332 14.6688 28.7948 15.2148 28.1345 15.2148H26.5304V16.7846C26.5304 17.4542 25.9934 18 25.3318 18C24.6716 18 24.1332 17.4542 24.1332 16.7846V15.2148H22.5318C21.8701 15.2148 21.3332 14.6688 21.3332 13.9994C21.3332 13.3298 21.8701 12.7839 22.5318 12.7839H24.1332V11.2155C24.1332 10.546 24.6716 10 25.3318 10C25.9934 10 26.5304 10.546 26.5304 11.2155V12.7839Z" fill="white"/>
</svg>
