<svg width="32" height="32" viewBox="0 0 32 32" fill="none" xmlns="http://www.w3.org/2000/svg">
<path fill-rule="evenodd" clip-rule="evenodd" d="M12.667 16.7379C16.3398 16.7379 19.2838 13.7558 19.2838 10.0355C19.2838 6.31518 16.3398 3.33301 12.667 3.33301C8.99423 3.33301 6.05015 6.31518 6.05015 10.0355C6.05015 13.7558 8.99423 16.7379 12.667 16.7379ZM12.667 20.0199C7.27262 20.0199 2.66699 20.8825 2.66699 24.3282C2.66699 27.7727 7.24459 28.6663 12.667 28.6663C18.0601 28.6663 22.667 27.8038 22.667 24.3579C22.667 20.9122 18.0894 20.0199 12.667 20.0199ZM26.5309 12.7835H28.135C28.7953 12.7835 29.3337 13.3294 29.3337 13.999C29.3337 14.6685 28.7953 15.2145 28.135 15.2145H26.5309V16.7842C26.5309 17.4538 25.9939 17.9997 25.3323 17.9997C24.6721 17.9997 24.1337 17.4538 24.1337 16.7842V15.2145H22.5323C21.8706 15.2145 21.3337 14.6685 21.3337 13.999C21.3337 13.3294 21.8706 12.7835 22.5323 12.7835H24.1337V11.2152C24.1337 10.5456 24.6721 9.99967 25.3323 9.99967C25.9939 9.99967 26.5309 10.5456 26.5309 11.2152V12.7835Z" fill="white"/>
</svg>
