<svg width="32" height="32" viewBox="0 0 32 32" fill="none" xmlns="http://www.w3.org/2000/svg">
<path fill-rule="evenodd" clip-rule="evenodd" d="M12.6665 16.7379C16.3393 16.7379 19.2833 13.7558 19.2833 10.0355C19.2833 6.31518 16.3393 3.33301 12.6665 3.33301C8.99374 3.33301 6.04966 6.31518 6.04966 10.0355C6.04966 13.7558 8.99374 16.7379 12.6665 16.7379ZM12.6665 20.0199C7.27213 20.0199 2.6665 20.8825 2.6665 24.3282C2.6665 27.7727 7.2441 28.6663 12.6665 28.6663C18.0596 28.6663 22.6665 27.8038 22.6665 24.3579C22.6665 20.9122 18.0889 20.0199 12.6665 20.0199ZM26.5304 12.7835H28.1345C28.7948 12.7835 29.3332 13.3294 29.3332 13.999C29.3332 14.6685 28.7948 15.2145 28.1345 15.2145H26.5304V16.7842C26.5304 17.4538 25.9934 17.9997 25.3318 17.9997C24.6716 17.9997 24.1332 17.4538 24.1332 16.7842V15.2145H22.5318C21.8701 15.2145 21.3332 14.6685 21.3332 13.999C21.3332 13.3294 21.8701 12.7835 22.5318 12.7835H24.1332V11.2152C24.1332 10.5456 24.6716 9.99967 25.3318 9.99967C25.9934 9.99967 26.5304 10.5456 26.5304 11.2152V12.7835Z" fill="white"/>
</svg>
