<svg width="95" height="9" viewBox="0 0 95 9" fill="none" xmlns="http://www.w3.org/2000/svg">
<path d="M94.6547 0.147461V1.79146H92.4227V8.57146H90.3707V1.79146H88.1387V0.147461H94.6547Z" fill="black"/>
<path d="M87.1083 8.57146H85.0563L81.6243 3.37546V8.57146H79.5723V0.147461H81.6243L85.0563 5.36746V0.147461H87.1083V8.57146Z" fill="black"/>
<path d="M75.1321 1.79146V3.49546H77.8801V5.07946H75.1321V6.92746H78.2401V8.57146H73.0801V0.147461H78.2401V1.79146H75.1321Z" fill="black"/>
<path d="M72.0492 0.147461V1.79146H69.8172V8.57146H67.7652V1.79146H65.5332V0.147461H72.0492Z" fill="black"/>
<path d="M64.5032 0.147461V8.57146H62.4512V0.147461H64.5032Z" fill="black"/>
<path d="M58.8468 7.08346H55.7028L55.1988 8.57146H53.0508L56.0988 0.147461H58.4748L61.5228 8.57146H59.3508L58.8468 7.08346ZM58.3188 5.49946L57.2748 2.41546L56.2428 5.49946H58.3188Z" fill="black"/>
<path d="M52.5352 2.85946C52.5352 3.34746 52.4232 3.79546 52.1992 4.20346C51.9752 4.60346 51.6312 4.92746 51.1672 5.17546C50.7032 5.42346 50.1272 5.54746 49.4392 5.54746H48.1672V8.57146H46.1152V0.147461H49.4392C50.1112 0.147461 50.6792 0.263461 51.1432 0.495461C51.6072 0.727461 51.9552 1.04746 52.1872 1.45546C52.4192 1.86346 52.5352 2.33146 52.5352 2.85946ZM49.2832 3.91546C49.6752 3.91546 49.9672 3.82346 50.1592 3.63946C50.3512 3.45546 50.4472 3.19546 50.4472 2.85946C50.4472 2.52346 50.3512 2.26346 50.1592 2.07946C49.9672 1.89546 49.6752 1.80346 49.2832 1.80346H48.1672V3.91546H49.2832Z" fill="black"/>
<path d="M42.4938 0.147461V1.79146H39.0618V3.56746H41.6298V5.16346H39.0618V8.57146H37.0098V0.147461H42.4938Z" fill="black"/>
<path d="M31.5586 8.65534C30.7666 8.65534 30.0386 8.47134 29.3746 8.10334C28.7186 7.73534 28.1946 7.22334 27.8026 6.56734C27.4186 5.90334 27.2266 5.15934 27.2266 4.33534C27.2266 3.51134 27.4186 2.77134 27.8026 2.11534C28.1946 1.45934 28.7186 0.947344 29.3746 0.579344C30.0386 0.211344 30.7666 0.0273438 31.5586 0.0273438C32.3506 0.0273438 33.0746 0.211344 33.7306 0.579344C34.3946 0.947344 34.9146 1.45934 35.2906 2.11534C35.6746 2.77134 35.8666 3.51134 35.8666 4.33534C35.8666 5.15934 35.6746 5.90334 35.2906 6.56734C34.9066 7.22334 34.3866 7.73534 33.7306 8.10334C33.0746 8.47134 32.3506 8.65534 31.5586 8.65534ZM31.5586 6.78334C32.2306 6.78334 32.7666 6.55934 33.1666 6.11134C33.5746 5.66334 33.7786 5.07134 33.7786 4.33534C33.7786 3.59134 33.5746 2.99934 33.1666 2.55934C32.7666 2.11134 32.2306 1.88734 31.5586 1.88734C30.8786 1.88734 30.3346 2.10734 29.9266 2.54734C29.5266 2.98734 29.3266 3.58334 29.3266 4.33534C29.3266 5.07934 29.5266 5.67534 29.9266 6.12334C30.3346 6.56334 30.8786 6.78334 31.5586 6.78334Z" fill="black"/>
<path d="M20.593 1.79146V3.49546H23.341V5.07946H20.593V6.92746H23.701V8.57146H18.541V0.147461H23.701V1.79146H20.593Z" fill="black"/>
<path d="M14.9908 2.81176C14.8388 2.53176 14.6188 2.31976 14.3308 2.17576C14.0508 2.02376 13.7188 1.94776 13.3348 1.94776C12.6708 1.94776 12.1388 2.16776 11.7388 2.60776C11.3388 3.03976 11.1388 3.61976 11.1388 4.34776C11.1388 5.12376 11.3468 5.73176 11.7628 6.17176C12.1868 6.60376 12.7668 6.81976 13.5028 6.81976C14.0068 6.81976 14.4308 6.69176 14.7748 6.43576C15.1268 6.17976 15.3828 5.81176 15.5428 5.33176H12.9388V3.81976H17.4028V5.72776C17.2508 6.23976 16.9908 6.71576 16.6228 7.15576C16.2628 7.59576 15.8028 7.95176 15.2428 8.22376C14.6828 8.49576 14.0508 8.63176 13.3468 8.63176C12.5148 8.63176 11.7708 8.45176 11.1148 8.09176C10.4668 7.72376 9.95878 7.21576 9.59078 6.56776C9.23078 5.91976 9.05078 5.17976 9.05078 4.34776C9.05078 3.51576 9.23078 2.77576 9.59078 2.12776C9.95878 1.47176 10.4668 0.963758 11.1148 0.603758C11.7628 0.235758 12.5028 0.0517578 13.3348 0.0517578C14.3428 0.0517578 15.1908 0.295758 15.8788 0.783758C16.5748 1.27176 17.0348 1.94776 17.2588 2.81176H14.9908Z" fill="black"/>
<path d="M5.796 7.08346H2.652L2.148 8.57146H0L3.048 0.147461H5.424L8.472 8.57146H6.3L5.796 7.08346ZM5.268 5.49946L4.224 2.41546L3.192 5.49946H5.268Z" fill="black"/>
</svg>
