<svg width="115" height="29" viewBox="0 0 115 29" fill="none" xmlns="http://www.w3.org/2000/svg">
<path fill-rule="evenodd" clip-rule="evenodd" d="M38.918 21.6481H33.5578L32.2706 25.5332H30.0002L35.0773 11.1595H37.4361L42.5132 25.5332H40.2041L38.918 21.6481ZM34.1129 19.8554H38.3618L36.2673 13.5502H36.2086L34.1129 19.8554ZM53.478 20.294C53.478 23.5505 51.7727 25.6428 49.1993 25.6428C47.8692 25.714 46.6162 25.0018 45.9735 23.8094H45.9248V29H43.8203V15.0536H45.8574V16.7966H45.8961C46.5674 15.6116 47.8217 14.8998 49.1606 14.944C51.7627 14.944 53.478 17.0464 53.478 20.294ZM51.3149 20.294C51.3149 18.1723 50.2422 16.7774 48.6055 16.7774C46.9975 16.7774 45.916 18.2017 45.916 20.294C45.916 22.4055 46.9975 23.8196 48.6055 23.8196C50.2422 23.8196 51.3149 22.4349 51.3149 20.294ZM64.7624 20.294C64.7624 23.5505 63.0571 25.6428 60.4837 25.6428C59.1536 25.714 57.9006 25.0018 57.2579 23.8094H57.2092V29H55.1047V15.0536H57.1417V16.7966H57.1804C57.8517 15.6116 59.106 14.8998 60.445 14.944C63.0471 14.944 64.7624 17.0464 64.7624 20.294ZM62.5993 20.294C62.5993 18.1723 61.5266 16.7774 59.8899 16.7774C58.2819 16.7774 57.2004 18.2017 57.2004 20.294C57.2004 22.4055 58.2819 23.8196 59.8899 23.8196C61.5266 23.8196 62.5993 22.4349 62.5993 20.294ZM72.2204 21.5283C72.3763 22.9537 73.731 23.8896 75.5823 23.8896C77.3561 23.8896 78.6323 22.9537 78.6323 21.6684C78.6323 20.5528 77.8626 19.8847 76.0401 19.4269L74.2176 18.9782C71.6354 18.3406 70.4366 17.1063 70.4366 15.1033C70.4366 12.6233 72.5511 10.9198 75.5535 10.9198C78.525 10.9198 80.562 12.6233 80.6306 15.1033H78.5062C78.379 13.6689 77.2189 12.803 75.5236 12.803C73.8283 12.803 72.6683 13.679 72.6683 14.9541C72.6683 15.9703 73.4092 16.5682 75.2217 17.026L76.7711 17.4148C79.6563 18.1123 80.8551 19.2969 80.8551 21.3994C80.8551 24.0885 78.7594 25.7727 75.4263 25.7727C72.3077 25.7727 70.2021 24.1281 70.0661 21.5282L72.2204 21.5283ZM85.3969 12.5736V15.0536H87.3466V16.7571H85.3969V22.5343C85.3969 23.4318 85.7873 23.8501 86.6444 23.8501C86.8758 23.846 87.1069 23.8293 87.3366 23.8003V25.4936C86.9513 25.5672 86.5597 25.6005 86.1677 25.5931C84.092 25.5931 83.2825 24.7962 83.2825 22.7638V16.7571H81.7918V15.0536H83.2825V12.5736H85.3969ZM88.4757 20.294C88.4757 16.9967 90.3756 14.9248 93.3383 14.9248C96.3109 14.9248 98.202 16.9967 98.202 20.294C98.202 23.6003 96.3209 25.6632 93.3383 25.6632C90.3568 25.6632 88.4757 23.6003 88.4757 20.294ZM96.0576 20.294C96.0576 18.0321 95.0436 16.6972 93.3383 16.6972C91.633 16.6972 90.62 18.0423 90.62 20.294C90.62 22.5649 91.633 23.8897 93.3383 23.8897C95.0436 23.8897 96.0576 22.5649 96.0576 20.294ZM99.937 15.0536H101.944V16.8373H101.993C102.273 15.6891 103.302 14.8988 104.459 14.9439C104.702 14.9431 104.943 14.97 105.18 15.0242V17.0362C104.874 16.9406 104.554 16.8967 104.234 16.9063C103.616 16.8806 103.017 17.1326 102.595 17.5962C102.174 18.0597 101.971 18.6885 102.042 19.3173V25.5332H99.937L99.937 15.0536ZM114.883 22.4552C114.6 24.3576 112.787 25.6632 110.468 25.6632C107.486 25.6632 105.635 23.6206 105.635 20.3437C105.635 17.0566 107.496 14.9247 110.38 14.9247C113.216 14.9247 115 16.9164 115 20.0939V20.8309H107.759V20.9609C107.691 21.7411 107.955 22.5133 108.483 23.0813C109.01 23.6492 109.751 23.958 110.517 23.9292C111.538 24.027 112.501 23.4276 112.885 22.4552L114.883 22.4552ZM107.769 19.3275L112.895 19.3275C112.933 18.6264 112.683 17.9409 112.206 17.436C111.728 16.9311 111.067 16.6527 110.38 16.6678C109.688 16.6635 109.022 16.9421 108.532 17.4416C108.042 17.941 107.767 18.62 107.769 19.3275ZM33.8492 0.340302C34.7426 0.27477 35.6177 0.622206 36.2336 1.28698C36.8495 1.95176 37.1412 2.8638 37.0286 3.77208C37.0286 5.97854 35.8619 7.24686 33.8492 7.24686H31.4085V0.340302H33.8492ZM32.458 6.27013H33.732C34.3704 6.30914 34.9921 6.05201 35.4244 5.57014C35.8567 5.08826 36.0536 4.43295 35.9603 3.78615C36.0468 3.14204 35.8471 2.49213 35.4159 2.01419C34.9847 1.53625 34.3671 1.28028 33.732 1.31631H32.458V6.27013ZM38.2141 4.63846C38.1267 3.70423 38.5649 2.8001 39.3451 2.30526C40.1252 1.81041 41.1124 1.81041 41.8926 2.30526C42.6727 2.8001 43.111 3.70423 43.0236 4.63846C43.1127 5.57369 42.6748 6.47957 41.8939 6.97548C41.1131 7.47139 40.1246 7.47139 39.3437 6.97548C38.5629 6.47957 38.125 5.57369 38.2141 4.63846ZM41.9884 4.63846C41.9884 3.50867 41.4919 2.84797 40.6205 2.84797C39.7457 2.84797 39.2537 3.50867 39.2537 4.63847C39.2537 5.77731 39.7458 6.43292 40.6205 6.43292C41.4919 6.4329 41.9884 5.77278 41.9884 4.63846ZM49.4166 7.24676H48.3727L47.3188 3.40805H47.2392L46.1897 7.24676H45.1557L43.7501 2.03466H44.7709L45.6843 6.0118H45.7595L46.8079 2.03466H47.7733L48.8217 6.0118H48.9013L49.8103 2.03466H50.8167L49.4166 7.24676ZM51.9989 2.03466H52.9676V2.86265H53.0428C53.3043 2.25303 53.9154 1.88012 54.5645 1.93405C55.0671 1.89543 55.5596 2.0925 55.9029 2.46962C56.2463 2.84675 56.4033 3.363 56.3295 3.87262V7.2467H55.3231V4.13092C55.3231 3.29333 54.967 2.87678 54.2228 2.87678C53.8819 2.86055 53.5511 2.9973 53.317 3.25118C53.083 3.50506 52.9691 3.85074 53.0052 4.1976V7.24676H51.9989L51.9989 2.03466ZM57.933 0H58.9394V7.24675H57.933V0ZM60.3383 4.63846C60.2509 3.70417 60.6893 2.80002 61.4695 2.30516C62.2497 1.81031 63.2369 1.81031 64.0171 2.30516C64.7973 2.80002 65.2357 3.70417 65.1483 4.63846C65.2373 5.57372 64.7994 6.47958 64.0185 6.97547C63.2376 7.47136 62.249 7.47136 61.4681 6.97547C60.6872 6.47958 60.2493 5.57372 60.3383 4.63846ZM64.1126 4.63846C64.1126 3.50867 63.6161 2.84797 62.7447 2.84797C61.8699 2.84797 61.3779 3.50867 61.3779 4.63847C61.3779 5.77731 61.87 6.43292 62.7447 6.43292C63.6161 6.4329 64.1126 5.77278 64.1126 4.63846ZM66.2077 5.77278C66.2077 4.83457 66.8912 4.2937 68.1043 4.21683L69.4856 4.13545V3.68557C69.4856 3.13507 69.1295 2.82423 68.4416 2.82423C67.8798 2.82423 67.4906 3.03504 67.3789 3.40354H66.4046C66.5074 2.50829 67.3313 1.93407 68.4881 1.93407C69.7665 1.93407 70.4875 2.58458 70.4875 3.68557V7.24677H69.5187V6.5143H69.4391C69.1101 7.04921 68.525 7.36183 67.9075 7.33264C67.4746 7.37867 67.0429 7.23537 66.719 6.93818C66.3952 6.64098 66.2094 6.21763 66.2077 5.77278ZM69.4856 5.32741V4.89166L68.2403 4.97304C67.5381 5.02108 67.2196 5.26524 67.2196 5.72473C67.2196 6.19382 67.6177 6.46681 68.1652 6.46681C68.4893 6.50034 68.8128 6.398 69.0617 6.18322C69.3106 5.96843 69.4636 5.6596 69.4856 5.32741ZM71.8101 4.63846C71.8101 2.99152 72.6384 1.9482 73.9268 1.9482C74.5773 1.91756 75.1866 2.27386 75.4905 2.86261H75.5657V0H76.572V7.24675H75.6077V6.42327H75.5281C75.2013 7.00714 74.5844 7.35742 73.9268 7.33264C72.6296 7.3327 71.8101 6.28935 71.8101 4.63846ZM72.8497 4.63846C72.8497 5.74395 73.3595 6.40918 74.2121 6.40918C75.0603 6.40918 75.5845 5.73436 75.5845 4.64298C75.5845 3.5567 75.0548 2.87227 74.2121 2.87227C73.365 2.87227 72.8497 3.542 72.8497 4.63846ZM80.7357 4.63846C80.6482 3.70423 81.0865 2.8001 81.8667 2.30526C82.6468 1.81041 83.634 1.81041 84.4141 2.30526C85.1943 2.8001 85.6326 3.70423 85.5451 4.63846C85.6342 5.57369 85.1964 6.47957 84.4155 6.97548C83.6347 7.47139 82.6461 7.47139 81.8653 6.97548C81.0844 6.47957 80.6466 5.57369 80.7357 4.63846ZM84.51 4.63846C84.51 3.50867 84.0135 2.84797 83.1421 2.84797C82.2673 2.84797 81.7752 3.50867 81.7752 4.63847C81.7752 5.77731 82.2673 6.43292 83.1421 6.43292C84.0135 6.4329 84.51 5.77278 84.51 4.63846ZM86.8954 2.03466H87.8642V2.86265H87.9394C88.2009 2.25303 88.812 1.88012 89.461 1.93405C89.9636 1.89543 90.4561 2.0925 90.7995 2.46962C91.1428 2.84675 91.2998 3.363 91.226 3.87262V7.2467H90.2197V4.13092C90.2197 3.29333 89.8636 2.87678 89.1193 2.87678C88.7784 2.86055 88.4476 2.9973 88.2136 3.25118C87.9795 3.50506 87.8656 3.85074 87.9017 4.1976V7.24676H86.8954V2.03466ZM96.9125 0.737009V2.0584H98.0172V2.92483H96.9125V5.60492C96.9125 6.15088 97.1325 6.38995 97.6335 6.38995C97.7617 6.38953 97.8899 6.3816 98.0172 6.36621V7.22302C97.8365 7.25607 97.6534 7.27365 97.4698 7.27558C96.3507 7.27558 95.905 6.87317 95.905 5.86828V2.92478H95.0955V2.05835H95.905V0.737009H96.9125ZM99.3918 0H100.389V2.87225H100.469C100.743 2.2573 101.365 1.88392 102.024 1.93858C102.523 1.91078 103.009 2.11219 103.349 2.48795C103.689 2.86371 103.847 3.37467 103.78 3.88167V7.24676H102.773V4.13542C102.773 3.30291 102.393 2.88128 101.682 2.88128C101.332 2.85193 100.987 2.98203 100.74 3.2368C100.492 3.49157 100.367 3.84502 100.398 4.20267V7.24674H99.3919L99.3918 0ZM109.648 5.83946C109.366 6.82261 108.435 7.45783 107.438 7.34736C106.758 7.3657 106.105 7.07763 105.651 6.55956C105.198 6.0415 104.99 5.34582 105.083 4.65711C104.992 3.96648 105.199 3.26968 105.65 2.74724C106.101 2.2248 106.752 1.92812 107.434 1.93406C108.853 1.93406 109.709 2.92487 109.709 4.56157V4.92049H106.108V4.97814C106.076 5.3649 106.205 5.74746 106.464 6.03173C106.722 6.316 107.086 6.47561 107.466 6.4713C107.958 6.53171 108.437 6.28209 108.679 5.83942L109.648 5.83946ZM106.108 4.15974H108.683C108.709 3.80601 108.587 3.45766 108.348 3.20053C108.109 2.9434 107.775 2.8014 107.428 2.80953C107.077 2.80502 106.738 2.94584 106.489 3.20005C106.241 3.45427 106.103 3.80034 106.108 4.15974ZM19.0344 14.651C19.037 17.0793 20.4952 19.2707 22.7377 20.2167C22.3064 21.6139 21.6563 22.9344 20.8114 24.1292C19.6768 25.8218 18.4872 27.4755 16.5991 27.5061C14.7644 27.5483 14.1479 26.4293 12.0436 26.4293C9.91959 26.4293 9.26241 27.4755 7.50281 27.5483C5.70465 27.6147 4.33041 25.7417 3.15456 24.0649C0.80436 20.6406 -1.02569 14.4147 1.42776 10.1785C2.57986 8.11377 4.734 6.80359 7.10205 6.72729C8.90183 6.69036 10.5732 7.93949 11.6797 7.93949C12.7653 7.93949 14.8305 6.44522 16.9608 6.66822C18.9856 6.7314 20.862 7.74306 22.0239 9.39802C20.1904 10.5222 19.0621 12.5047 19.0344 14.651ZM15.5691 4.41618C14.5703 5.6551 13.0569 6.36872 11.4629 6.35235C11.3616 4.79894 11.8835 3.26906 12.9138 2.09967C13.9572 0.914429 15.4101 0.164749 16.9829 0C17.1058 1.59945 16.5986 3.18365 15.5691 4.41618Z" fill="#F5F9FC"/>
</svg>
