<svg width="21" height="25" viewBox="0 0 21 25" fill="none" xmlns="http://www.w3.org/2000/svg">
<g clip-path="url(#clip0_1029_2241)">
<path d="M20.0352 18.983C19.6848 19.7939 19.27 20.5403 18.7894 21.2265C18.1343 22.162 17.5979 22.8096 17.1845 23.1691C16.5437 23.7594 15.8572 24.0617 15.122 24.0789C14.5942 24.0789 13.9577 23.9284 13.2168 23.6233C12.4734 23.3196 11.7903 23.1691 11.1656 23.1691C10.5105 23.1691 9.80795 23.3196 9.05645 23.6233C8.3038 23.9284 7.69748 24.0875 7.2339 24.1032C6.52888 24.1333 5.82615 23.8224 5.12471 23.1691C4.67701 22.778 4.11703 22.1076 3.4462 21.1578C2.72645 20.1435 2.13471 18.9673 1.67114 17.6264C1.17466 16.178 0.925781 14.7754 0.925781 13.4176C0.925781 11.8622 1.26134 10.5207 1.93346 9.39655C2.46169 8.49357 3.16442 7.78127 4.04394 7.25837C4.92346 6.73546 5.87378 6.469 6.8972 6.45195C7.45718 6.45195 8.19152 6.62544 9.10408 6.9664C10.0141 7.30851 10.5984 7.482 10.8545 7.482C11.0461 7.482 11.6952 7.27914 12.7955 6.87471C13.8361 6.49966 14.7143 6.34436 15.4338 6.40553C17.3834 6.56312 18.848 7.33286 19.8221 8.71964C18.0785 9.77777 17.216 11.2598 17.2332 13.161C17.2489 14.6419 17.7853 15.8743 18.8395 16.8527C19.3172 17.3069 19.8507 17.6579 20.4443 17.9071C20.3156 18.2811 20.1797 18.6392 20.0352 18.983ZM15.564 1.36043C15.564 2.52115 15.1406 3.60491 14.2967 4.60803C13.2783 5.80054 12.0464 6.48963 10.7106 6.38089C10.6936 6.24164 10.6838 6.09508 10.6838 5.94108C10.6838 4.82679 11.1681 3.63428 12.0281 2.65924C12.4575 2.16556 13.0036 1.75507 13.6659 1.42762C14.3267 1.10505 14.9518 0.926666 15.5396 0.896118C15.5568 1.05129 15.564 1.20647 15.564 1.36042V1.36043Z" fill="black"/>
</g>
<defs>
<clipPath id="clip0_1029_2241">
<rect width="19.5185" height="23.2091" fill="white" transform="translate(0.925781 0.895569)"/>
</clipPath>
</defs>
</svg>
