<svg width="21" height="25" viewBox="0 0 21 25" fill="none" xmlns="http://www.w3.org/2000/svg">
<g clip-path="url(#clip0_1105_4087)">
<path d="M20.0352 18.9834C19.6848 19.7943 19.27 20.5407 18.7894 21.2269C18.1343 22.1624 17.5979 22.8099 17.1845 23.1695C16.5437 23.7597 15.8572 24.062 15.122 24.0792C14.5942 24.0792 13.9577 23.9288 13.2168 23.6237C12.4734 23.3199 11.7903 23.1695 11.1656 23.1695C10.5105 23.1695 9.80795 23.3199 9.05645 23.6237C8.3038 23.9288 7.69748 24.0878 7.2339 24.1036C6.52888 24.1337 5.82615 23.8228 5.12471 23.1695C4.67701 22.7784 4.11703 22.1079 3.4462 21.1581C2.72645 20.1438 2.13471 18.9676 1.67114 17.6267C1.17466 16.1783 0.925781 14.7758 0.925781 13.418C0.925781 11.8626 1.26134 10.5211 1.93346 9.39691C2.46169 8.49394 3.16442 7.78164 4.04394 7.25873C4.92346 6.73583 5.87378 6.46936 6.8972 6.45232C7.45718 6.45232 8.19152 6.62581 9.10408 6.96677C10.0141 7.30888 10.5984 7.48237 10.8545 7.48237C11.0461 7.48237 11.6952 7.27951 12.7955 6.87508C13.8361 6.50002 14.7143 6.34473 15.4338 6.4059C17.3834 6.56349 18.848 7.33323 19.8221 8.72C18.0785 9.77813 17.216 11.2602 17.2332 13.1614C17.2489 14.6423 17.7853 15.8746 18.8395 16.8531C19.3172 17.3072 19.8507 17.6582 20.4443 17.9075C20.3156 18.2814 20.1797 18.6396 20.0352 18.9834V18.9834ZM15.564 1.3608C15.564 2.52152 15.1406 3.60528 14.2967 4.60839C13.2783 5.8009 12.0464 6.48999 10.7106 6.38126C10.6936 6.24201 10.6838 6.09545 10.6838 5.94144C10.6838 4.82716 11.1681 3.63465 12.0281 2.65961C12.4575 2.16593 13.0036 1.75544 13.6659 1.42799C14.3267 1.10542 14.9518 0.927032 15.5396 0.896484C15.5568 1.05165 15.564 1.20683 15.564 1.36078V1.3608Z" fill="black"/>
</g>
<defs>
<clipPath id="clip0_1105_4087">
<rect width="19.5185" height="23.2091" fill="white" transform="translate(0.925781 0.895508)"/>
</clipPath>
</defs>
</svg>
