<svg width="21" height="25" viewBox="0 0 21 25" fill="none" xmlns="http://www.w3.org/2000/svg">
<g clip-path="url(#clip0_1108_5454)">
<path d="M20.0353 18.9834C19.6849 19.7943 19.2701 20.5407 18.7895 21.2269C18.1344 22.1624 17.598 22.8099 17.1846 23.1695C16.5438 23.7598 15.8572 24.062 15.122 24.0792C14.5942 24.0792 13.9577 23.9288 13.2168 23.6236C12.4735 23.3199 11.7903 23.1695 11.1657 23.1695C10.5106 23.1695 9.80801 23.3199 9.05651 23.6236C8.30386 23.9288 7.69754 24.0878 7.23396 24.1036C6.52894 24.1337 5.82621 23.8228 5.12477 23.1695C4.67707 22.7784 4.11709 22.1079 3.44626 21.1581C2.72651 20.1438 2.13477 18.9676 1.6712 17.6267C1.17472 16.1783 0.925842 14.7758 0.925842 13.418C0.925842 11.8626 1.2614 10.5211 1.93352 9.39691C2.46175 8.49394 3.16448 7.78164 4.044 7.25873C4.92352 6.73583 5.87384 6.46936 6.89726 6.45232C7.45724 6.45232 8.19158 6.62581 9.10414 6.96677C10.0141 7.30888 10.5984 7.48237 10.8546 7.48237C11.0461 7.48237 11.6952 7.27951 12.7956 6.87508C13.8362 6.50002 14.7144 6.34473 15.4339 6.4059C17.3834 6.56349 18.8481 7.33323 19.8222 8.72C18.0786 9.77813 17.2161 11.2602 17.2332 13.1614C17.249 14.6423 17.7854 15.8746 18.8395 16.8531C19.3173 17.3072 19.8508 17.6582 20.4444 17.9075C20.3156 18.2814 20.1798 18.6396 20.0353 18.9834ZM15.564 1.3608C15.564 2.52152 15.1406 3.60528 14.2967 4.60839C13.2783 5.8009 12.0465 6.48999 10.7107 6.38126C10.6937 6.24201 10.6838 6.09545 10.6838 5.94144C10.6838 4.82716 11.1681 3.63465 12.0282 2.65961C12.4576 2.16593 13.0037 1.75544 13.6659 1.42799C14.3268 1.10542 14.9518 0.927032 15.5397 0.896484C15.5569 1.05165 15.564 1.20683 15.564 1.36078V1.3608Z" fill="black"/>
</g>
<defs>
<clipPath id="clip0_1108_5454">
<rect width="19.5185" height="23.2091" fill="white" transform="translate(0.925842 0.895508)"/>
</clipPath>
</defs>
</svg>
