<svg width="21" height="25" viewBox="0 0 21 25" fill="none" xmlns="http://www.w3.org/2000/svg">
<g clip-path="url(#clip0_1029_2241)">
<path d="M20.0353 18.9834C19.6849 19.7943 19.2701 20.5407 18.7895 21.2269C18.1344 22.1624 17.598 22.8099 17.1847 23.1695C16.5439 23.7598 15.8573 24.062 15.1221 24.0792C14.5943 24.0792 13.9578 23.9288 13.2169 23.6236C12.4735 23.3199 11.7904 23.1695 11.1658 23.1695C10.5107 23.1695 9.80808 23.3199 9.05657 23.6236C8.30392 23.9288 7.6976 24.0878 7.23402 24.1036C6.529 24.1337 5.82627 23.8228 5.12483 23.1695C4.67713 22.7784 4.11715 22.1079 3.44632 21.1581C2.72657 20.1438 2.13483 18.9676 1.67126 17.6267C1.17478 16.1783 0.925903 14.7758 0.925903 13.418C0.925903 11.8626 1.26146 10.5211 1.93358 9.39691C2.46181 8.49394 3.16454 7.78164 4.04406 7.25873C4.92358 6.73583 5.87391 6.46936 6.89732 6.45232C7.4573 6.45232 8.19164 6.62581 9.1042 6.96677C10.0142 7.30888 10.5985 7.48237 10.8547 7.48237C11.0462 7.48237 11.6953 7.27951 12.7956 6.87508C13.8362 6.50002 14.7145 6.34473 15.4339 6.4059C17.3835 6.56349 18.8482 7.33323 19.8222 8.72C18.0786 9.77813 17.2161 11.2602 17.2333 13.1614C17.249 14.6423 17.7854 15.8746 18.8396 16.8531C19.3173 17.3072 19.8508 17.6582 20.4444 17.9075C20.3157 18.2814 20.1798 18.6396 20.0353 18.9834ZM15.5641 1.3608C15.5641 2.52152 15.1407 3.60528 14.2968 4.60839C13.2784 5.8009 12.0466 6.48999 10.7108 6.38126C10.6937 6.24201 10.6839 6.09545 10.6839 5.94144C10.6839 4.82716 11.1682 3.63465 12.0283 2.65961C12.4577 2.16593 13.0038 1.75544 13.666 1.42799C14.3268 1.10542 14.9519 0.927032 15.5398 0.896484C15.5569 1.05165 15.5641 1.20683 15.5641 1.36078V1.3608Z" fill="black"/>
</g>
<defs>
<clipPath id="clip0_1029_2241">
<rect width="19.5185" height="23.2091" fill="white" transform="translate(0.925903 0.895508)"/>
</clipPath>
</defs>
</svg>
