<svg width="7" height="8" viewBox="0 0 7 8" fill="none" xmlns="http://www.w3.org/2000/svg">
<g clip-path="url(#clip0_1196_151)">
<path d="M1.87918 4.30032L5.8177 4.29956C5.97781 4.29953 6.10757 4.16523 6.10754 3.9996C6.10751 3.83397 5.97769 3.69973 5.81758 3.69976L1.87906 3.70052L2.81892 2.72787C2.93211 2.61073 2.93207 2.42084 2.81884 2.30374C2.7056 2.18665 2.52205 2.18668 2.40886 2.30382L1.17916 3.57643C0.952779 3.81071 0.952852 4.19048 1.17932 4.42467L2.40951 5.6968C2.52275 5.8139 2.7063 5.81386 2.81949 5.69672C2.93268 5.57958 2.93264 5.3897 2.81941 5.2726L1.87918 4.30032Z" fill="white"/>
</g>
<defs>
<clipPath id="clip0_1196_151">
<rect width="6.9576" height="7.1976" fill="white" transform="matrix(1 -0.000192619 -0.000192619 -1 0.0205078 7.59961)"/>
</clipPath>
</defs>
</svg>
