<svg width="448" height="272" viewBox="0 0 448 272" fill="none" xmlns="http://www.w3.org/2000/svg">
<g clip-path="url(#clip0_832_28)">
<mask id="mask0_832_28" style="mask-type:luminance" maskUnits="userSpaceOnUse" x="92" y="11" width="253" height="253">
<path d="M307.971 226.188C357.157 177.003 357.157 97.2572 307.971 48.0717C258.786 -1.11371 179.04 -1.11373 129.855 48.0717C80.6696 97.2572 80.6696 177.003 129.855 226.188C179.04 275.373 258.786 275.373 307.971 226.188Z" fill="white"/>
</mask>
<g mask="url(#mask0_832_28)">
<path d="M94.1878 216.364L91.9097 218.646L100.646 227.37L102.924 225.089L94.1878 216.364Z" fill="#FACD49"/>
<path d="M91.9043 225.109L94.1855 227.387L102.91 218.65L100.629 216.372L91.9043 225.109Z" fill="#FACD49"/>
<path d="M94.218 239.446L91.9399 241.727L100.676 250.451L102.955 248.17L94.218 239.446Z" fill="#FACD49"/>
<path d="M91.9223 248.177L94.2036 250.456L102.928 241.719L100.647 239.441L91.9223 248.177Z" fill="#FACD49"/>
<path d="M94.2298 260.905L91.9517 263.186L100.688 271.91L102.966 269.629L94.2298 260.905Z" fill="#FACD49"/>
<path d="M91.9477 269.672L94.229 271.95L102.953 263.213L100.672 260.935L91.9477 269.672Z" fill="#FACD49"/>
<path d="M94.1555 148.011L91.8774 150.292L100.614 159.017L102.892 156.736L94.1555 148.011Z" fill="#FACD49"/>
<path d="M91.8554 156.728L94.1367 159.006L102.861 150.27L100.58 147.992L91.8554 156.728Z" fill="#FACD49"/>
<path d="M94.156 171.081L91.8779 173.362L100.614 182.086L102.893 179.805L94.156 171.081Z" fill="#FACD49"/>
<path d="M91.8794 179.827L94.1606 182.105L102.885 173.369L100.604 171.091L91.8794 179.827Z" fill="#FACD49"/>
<path d="M94.179 192.544L91.9009 194.826L100.637 203.55L102.916 201.269L94.179 192.544Z" fill="#FACD49"/>
<path d="M91.8911 201.291L94.1724 203.569L102.897 194.832L100.615 192.554L91.8911 201.291Z" fill="#FACD49"/>
<path d="M94.1072 79.6152L91.8291 81.8965L100.566 90.6208L102.844 88.3396L94.1072 79.6152Z" fill="#FACD49"/>
<path d="M91.8183 88.365L94.0996 90.6431L102.824 81.9065L100.543 79.6284L91.8183 88.365Z" fill="#FACD49"/>
<path d="M94.1072 102.727L91.8291 105.008L100.566 113.733L102.844 111.451L94.1072 102.727Z" fill="#FACD49"/>
<path d="M91.8486 111.447L94.1299 113.725L102.854 104.988L100.573 102.71L91.8486 111.447Z" fill="#FACD49"/>
<path d="M94.1301 124.191L91.8521 126.473L100.589 135.197L102.867 132.916L94.1301 124.191Z" fill="#FACD49"/>
<path d="M91.8613 132.91L94.1426 135.188L102.867 126.452L100.586 124.174L91.8613 132.91Z" fill="#FACD49"/>
<path d="M94.0462 11.2666L91.7681 13.5479L100.505 22.2722L102.783 19.9909L94.0462 11.2666Z" fill="#FACD49"/>
<path d="M91.7763 19.9963L94.0576 22.2744L102.782 13.5379L100.501 11.2598L91.7763 19.9963Z" fill="#FACD49"/>
<path d="M94.0769 34.3305L91.7988 36.6118L100.535 45.3362L102.813 43.0549L94.0769 34.3305Z" fill="#FACD49"/>
<path d="M91.7939 43.0652L94.0752 45.3433L102.8 36.6067L100.518 34.3286L91.7939 43.0652Z" fill="#FACD49"/>
<path d="M94.0823 55.7949L91.8042 58.0762L100.541 66.8005L102.819 64.5192L94.0823 55.7949Z" fill="#FACD49"/>
<path d="M91.8076 64.5471L94.0889 66.8252L102.813 58.0886L100.532 55.8106L91.8076 64.5471Z" fill="#FACD49"/>
<path d="M118.462 216.362L116.184 218.644L124.92 227.368L127.198 225.087L118.462 216.362Z" fill="#FACD49"/>
<path d="M116.17 225.085L118.452 227.363L127.176 218.627L124.895 216.349L116.17 225.085Z" fill="#FACD49"/>
<path d="M141.421 216.339L139.143 218.62L147.88 227.344L150.158 225.063L141.421 216.339Z" fill="#FACD49"/>
<path d="M139.14 225.066L141.421 227.344L150.146 218.608L147.864 216.33L139.14 225.066Z" fill="#FACD49"/>
<path d="M164.349 216.32L162.071 218.602L170.808 227.326L173.086 225.045L164.349 216.32Z" fill="#FACD49"/>
<path d="M162.097 225.06L164.378 227.338L173.102 218.602L170.821 216.324L162.097 225.06Z" fill="#FACD49"/>
<path d="M187.307 216.325L185.029 218.606L193.765 227.33L196.043 225.049L187.307 216.325Z" fill="#FACD49"/>
<path d="M185.004 225.041L187.286 227.319L196.01 218.583L193.729 216.305L185.004 225.041Z" fill="#FACD49"/>
<path d="M210.236 216.288L207.958 218.569L216.695 227.294L218.973 225.012L210.236 216.288Z" fill="#FACD49"/>
<path d="M207.962 225.034L210.243 227.312L218.968 218.576L216.686 216.298L207.962 225.034Z" fill="#FACD49"/>
<path d="M118.493 239.409L116.215 241.69L124.952 250.414L127.23 248.133L118.493 239.409Z" fill="#FACD49"/>
<path d="M116.189 248.172L118.47 250.45L127.195 241.713L124.913 239.435L116.189 248.172Z" fill="#FACD49"/>
<path d="M141.421 239.408L139.143 241.689L147.88 250.413L150.158 248.132L141.421 239.408Z" fill="#FACD49"/>
<path d="M139.127 248.165L141.408 250.443L150.133 241.707L147.851 239.429L139.127 248.165Z" fill="#FACD49"/>
<path d="M164.38 239.419L162.102 241.701L170.838 250.425L173.116 248.144L164.38 239.419Z" fill="#FACD49"/>
<path d="M162.097 248.146L164.378 250.424L173.102 241.688L170.821 239.41L162.097 248.146Z" fill="#FACD49"/>
<path d="M187.321 239.388L185.042 241.669L193.779 250.394L196.057 248.113L187.321 239.388Z" fill="#FACD49"/>
<path d="M185.023 248.11L187.304 250.388L196.029 241.652L193.747 239.374L185.023 248.11Z" fill="#FACD49"/>
<path d="M210.267 239.387L207.989 241.668L216.726 250.393L219.004 248.112L210.267 239.387Z" fill="#FACD49"/>
<path d="M207.962 248.103L210.243 250.381L218.968 241.645L216.686 239.367L207.962 248.103Z" fill="#FACD49"/>
<path d="M118.499 260.891L116.221 263.172L124.957 271.897L127.235 269.615L118.499 260.891Z" fill="#FACD49"/>
<path d="M116.219 269.636L118.5 271.914L127.225 263.178L124.944 260.899L116.219 269.636Z" fill="#FACD49"/>
<path d="M141.445 260.89L139.167 263.171L147.903 271.895L150.181 269.614L141.445 260.89Z" fill="#FACD49"/>
<path d="M139.14 269.629L141.421 271.907L150.146 263.171L147.864 260.893L139.14 269.629Z" fill="#FACD49"/>
<path d="M164.386 260.884L162.107 263.165L170.844 271.889L173.122 269.608L164.386 260.884Z" fill="#FACD49"/>
<path d="M162.11 269.611L164.391 271.889L173.115 263.152L170.834 260.874L162.11 269.611Z" fill="#FACD49"/>
<path d="M187.331 260.865L185.053 263.146L193.79 271.871L196.068 269.59L187.331 260.865Z" fill="#FACD49"/>
<path d="M185.048 269.604L187.329 271.882L196.053 263.146L193.772 260.868L185.048 269.604Z" fill="#FACD49"/>
<path d="M210.273 260.852L207.995 263.133L216.731 271.858L219.009 269.576L210.273 260.852Z" fill="#FACD49"/>
<path d="M207.974 269.568L210.255 271.846L218.98 263.109L216.698 260.831L207.974 269.568Z" fill="#FACD49"/>
<path d="M118.413 147.991L116.135 150.272L124.872 158.997L127.15 156.716L118.413 147.991Z" fill="#FACD49"/>
<path d="M116.141 156.721L118.422 159L127.147 150.263L124.865 147.985L116.141 156.721Z" fill="#FACD49"/>
<path d="M141.372 147.96L139.094 150.241L147.831 158.966L150.109 156.684L141.372 147.96Z" fill="#FACD49"/>
<path d="M139.084 156.702L141.366 158.98L150.09 150.244L147.809 147.966L139.084 156.702Z" fill="#FACD49"/>
<path d="M164.318 147.959L162.04 150.24L170.776 158.965L173.054 156.683L164.318 147.959Z" fill="#FACD49"/>
<path d="M162.022 156.697L164.304 158.975L173.028 150.238L170.747 147.96L162.022 156.697Z" fill="#FACD49"/>
<path d="M187.247 147.923L184.969 150.204L193.705 158.928L195.983 156.647L187.247 147.923Z" fill="#FACD49"/>
<path d="M184.98 156.673L187.262 158.951L195.986 150.214L193.705 147.936L184.98 156.673Z" fill="#FACD49"/>
<path d="M210.193 147.922L207.915 150.203L216.651 158.927L218.929 156.646L210.193 147.922Z" fill="#FACD49"/>
<path d="M207.919 156.666L210.201 158.944L218.925 150.208L216.644 147.93L207.919 156.666Z" fill="#FACD49"/>
<path d="M118.444 171.072L116.166 173.354L124.902 182.078L127.18 179.797L118.444 171.072Z" fill="#FACD49"/>
<path d="M116.158 179.79L118.439 182.068L127.164 173.332L124.883 171.054L116.158 179.79Z" fill="#FACD49"/>
<path d="M141.385 171.041L139.107 173.322L147.843 182.047L150.122 179.765L141.385 171.041Z" fill="#FACD49"/>
<path d="M139.102 179.771L141.383 182.049L150.108 173.313L147.826 171.035L139.102 179.771Z" fill="#FACD49"/>
<path d="M164.331 171.023L162.053 173.304L170.789 182.029L173.067 179.747L164.331 171.023Z" fill="#FACD49"/>
<path d="M162.041 179.765L164.322 182.043L173.047 173.306L170.765 171.028L162.041 179.765Z" fill="#FACD49"/>
<path d="M187.277 171.022L184.999 173.303L193.736 182.028L196.014 179.746L187.277 171.022Z" fill="#FACD49"/>
<path d="M184.98 179.759L187.262 182.037L195.986 173.301L193.705 171.022L184.98 179.759Z" fill="#FACD49"/>
<path d="M210.205 171.003L207.927 173.285L216.663 182.009L218.941 179.728L210.205 171.003Z" fill="#FACD49"/>
<path d="M207.937 179.753L210.218 182.031L218.943 173.294L216.661 171.016L207.937 179.753Z" fill="#FACD49"/>
<path d="M118.449 192.554L116.17 194.835L124.907 203.56L127.185 201.279L118.449 192.554Z" fill="#FACD49"/>
<path d="M116.17 201.254L118.451 203.532L127.176 194.796L124.894 192.518L116.17 201.254Z" fill="#FACD49"/>
<path d="M141.395 192.519L139.117 194.8L147.853 203.524L150.131 201.243L141.395 192.519Z" fill="#FACD49"/>
<path d="M139.127 201.248L141.408 203.526L150.133 194.79L147.851 192.512L139.127 201.248Z" fill="#FACD49"/>
<path d="M164.353 192.505L162.075 194.786L170.811 203.51L173.089 201.229L164.353 192.505Z" fill="#FACD49"/>
<path d="M162.053 201.229L164.334 203.507L173.058 194.771L170.777 192.493L162.053 201.229Z" fill="#FACD49"/>
<path d="M187.282 192.486L185.004 194.768L193.74 203.492L196.019 201.211L187.282 192.486Z" fill="#FACD49"/>
<path d="M184.992 201.223L187.273 203.501L195.998 194.764L193.717 192.486L184.992 201.223Z" fill="#FACD49"/>
<path d="M210.228 192.468L207.95 194.749L216.687 203.473L218.965 201.192L210.228 192.468Z" fill="#FACD49"/>
<path d="M207.949 201.217L210.23 203.495L218.954 194.758L216.673 192.48L207.949 201.217Z" fill="#FACD49"/>
<path d="M118.382 79.6128L116.104 81.894L124.841 90.6184L127.119 88.3371L118.382 79.6128Z" fill="#FACD49"/>
<path d="M116.103 88.3406L118.384 90.6187L127.109 81.8821L124.827 79.604L116.103 88.3406Z" fill="#FACD49"/>
<path d="M141.311 79.6113L139.033 81.8926L147.77 90.6169L150.048 88.3357L141.311 79.6113Z" fill="#FACD49"/>
<path d="M139.024 88.3342L141.305 90.6123L150.03 81.8758L147.748 79.5977L139.024 88.3342Z" fill="#FACD49"/>
<path d="M164.257 79.5932L161.979 81.8745L170.716 90.5989L172.994 88.3176L164.257 79.5932Z" fill="#FACD49"/>
<path d="M161.981 88.3279L164.263 90.606L172.987 81.8694L170.706 79.5913L161.981 88.3279Z" fill="#FACD49"/>
<path d="M187.198 79.562L184.919 81.8433L193.656 90.5676L195.934 88.2863L187.198 79.562Z" fill="#FACD49"/>
<path d="M184.907 88.3093L187.188 90.5874L195.912 81.8509L193.631 79.5728L184.907 88.3093Z" fill="#FACD49"/>
<path d="M210.157 79.5556L207.878 81.8369L216.615 90.5613L218.893 88.28L210.157 79.5556Z" fill="#FACD49"/>
<path d="M207.858 88.2903L210.139 90.5684L218.864 81.8318L216.582 79.5537L207.858 88.2903Z" fill="#FACD49"/>
<path d="M118.395 102.694L116.117 104.975L124.854 113.699L127.132 111.418L118.395 102.694Z" fill="#FACD49"/>
<path d="M116.103 111.427L118.384 113.705L127.109 104.969L124.827 102.69L116.103 111.427Z" fill="#FACD49"/>
<path d="M141.341 102.675L139.062 104.957L147.799 113.681L150.077 111.4L141.341 102.675Z" fill="#FACD49"/>
<path d="M139.06 111.421L141.341 113.699L150.065 104.962L147.784 102.684L139.06 111.421Z" fill="#FACD49"/>
<path d="M164.269 102.674L161.991 104.956L170.728 113.68L173.006 111.399L164.269 102.674Z" fill="#FACD49"/>
<path d="M161.98 111.414L164.262 113.692L172.986 104.956L170.705 102.678L161.98 111.414Z" fill="#FACD49"/>
<path d="M187.228 102.625L184.95 104.907L193.687 113.631L195.965 111.35L187.228 102.625Z" fill="#FACD49"/>
<path d="M184.925 111.378L187.206 113.656L195.93 104.919L193.649 102.641L184.925 111.378Z" fill="#FACD49"/>
<path d="M210.157 102.607L207.878 104.888L216.615 113.613L218.893 111.331L210.157 102.607Z" fill="#FACD49"/>
<path d="M207.882 111.371L210.164 113.649L218.888 104.913L216.607 102.635L207.882 111.371Z" fill="#FACD49"/>
<path d="M118.406 124.17L116.127 126.452L124.864 135.176L127.142 132.895L118.406 124.17Z" fill="#FACD49"/>
<path d="M116.128 132.903L118.409 135.181L127.134 126.445L124.852 124.167L116.128 132.903Z" fill="#FACD49"/>
<path d="M141.346 124.14L139.068 126.421L147.805 135.145L150.083 132.864L141.346 124.14Z" fill="#FACD49"/>
<path d="M139.054 132.885L141.335 135.163L150.06 126.426L147.779 124.148L139.054 132.885Z" fill="#FACD49"/>
<path d="M164.293 124.121L162.015 126.402L170.751 135.127L173.029 132.845L164.293 124.121Z" fill="#FACD49"/>
<path d="M161.994 132.878L164.275 135.156L172.999 126.42L170.718 124.142L161.994 132.878Z" fill="#FACD49"/>
<path d="M187.221 124.103L184.943 126.384L193.68 135.108L195.958 132.827L187.221 124.103Z" fill="#FACD49"/>
<path d="M184.968 132.854L187.25 135.132L195.974 126.396L193.693 124.118L184.968 132.854Z" fill="#FACD49"/>
<path d="M210.179 124.089L207.901 126.371L216.638 135.095L218.916 132.814L210.179 124.089Z" fill="#FACD49"/>
<path d="M207.894 132.835L210.175 135.113L218.9 126.377L216.618 124.099L207.894 132.835Z" fill="#FACD49"/>
<path d="M118.321 11.247L116.042 13.5283L124.779 22.2527L127.057 19.9714L118.321 11.247Z" fill="#FACD49"/>
<path d="M116.042 19.9905L118.324 22.2686L127.048 13.532L124.767 11.2539L116.042 19.9905Z" fill="#FACD49"/>
<path d="M141.262 11.2158L138.984 13.4971L147.72 22.2214L149.999 19.9401L141.262 11.2158Z" fill="#FACD49"/>
<path d="M138.987 19.9714L141.268 22.2495L149.992 13.513L147.711 11.2349L138.987 19.9714Z" fill="#FACD49"/>
<path d="M164.221 11.2094L161.943 13.4907L170.679 22.2151L172.958 19.9338L164.221 11.2094Z" fill="#FACD49"/>
<path d="M161.938 19.9519L164.219 22.23L172.944 13.4934L170.662 11.2153L161.938 19.9519Z" fill="#FACD49"/>
<path d="M187.166 11.209L184.888 13.4902L193.625 22.2146L195.903 19.9333L187.166 11.209Z" fill="#FACD49"/>
<path d="M184.895 19.9284L187.176 22.2065L195.9 13.47L193.619 11.1919L184.895 19.9284Z" fill="#FACD49"/>
<path d="M210.095 11.1904L207.817 13.4717L216.553 22.196L218.832 19.9148L210.095 11.1904Z" fill="#FACD49"/>
<path d="M207.834 19.9221L210.115 22.2002L218.84 13.4636L216.558 11.1856L207.834 19.9221Z" fill="#FACD49"/>
<path d="M118.334 34.3105L116.056 36.5918L124.792 45.3162L127.07 43.0349L118.334 34.3105Z" fill="#FACD49"/>
<path d="M116.061 43.0588L118.342 45.3369L127.066 36.6004L124.785 34.3223L116.061 43.0588Z" fill="#FACD49"/>
<path d="M141.28 34.31L139.002 36.5913L147.738 45.3157L150.017 43.0344L141.28 34.31Z" fill="#FACD49"/>
<path d="M139.018 43.053L141.299 45.3311L150.024 36.5945L147.742 34.3164L139.018 43.053Z" fill="#FACD49"/>
<path d="M164.238 34.2788L161.96 36.5601L170.697 45.2844L172.975 43.0031L164.238 34.2788Z" fill="#FACD49"/>
<path d="M161.943 43.0339L164.224 45.312L172.948 36.5755L170.667 34.2974L161.943 43.0339Z" fill="#FACD49"/>
<path d="M187.179 34.2724L184.901 36.5537L193.637 45.2781L195.916 42.9968L187.179 34.2724Z" fill="#FACD49"/>
<path d="M184.895 43.0149L187.176 45.293L195.9 36.5564L193.619 34.2783L184.895 43.0149Z" fill="#FACD49"/>
<path d="M210.125 34.2719L207.847 36.5532L216.584 45.2776L218.862 42.9963L210.125 34.2719Z" fill="#FACD49"/>
<path d="M207.852 43.009L210.133 45.2871L218.858 36.5506L216.576 34.2725L207.852 43.009Z" fill="#FACD49"/>
<path d="M118.357 55.7934L116.079 58.0747L124.816 66.7991L127.094 64.5178L118.357 55.7934Z" fill="#FACD49"/>
<path d="M116.073 64.5232L118.354 66.8013L127.078 58.0647L124.797 55.7866L116.073 64.5232Z" fill="#FACD49"/>
<path d="M141.303 55.7739L139.025 58.0552L147.762 66.7795L150.04 64.4983L141.303 55.7739Z" fill="#FACD49"/>
<path d="M139.03 64.5163L141.311 66.7944L150.035 58.0579L147.754 55.7798L139.03 64.5163Z" fill="#FACD49"/>
<path d="M164.231 55.7553L161.953 58.0366L170.69 66.761L172.968 64.4797L164.231 55.7553Z" fill="#FACD49"/>
<path d="M161.968 64.51L164.25 66.7881L172.974 58.0515L170.693 55.7734L161.968 64.51Z" fill="#FACD49"/>
<path d="M187.19 55.7417L184.912 58.0229L193.648 66.7473L195.926 64.466L187.19 55.7417Z" fill="#FACD49"/>
<path d="M184.894 64.4909L187.176 66.769L195.9 58.0325L193.619 55.7544L184.894 64.4909Z" fill="#FACD49"/>
<path d="M210.131 55.7363L207.853 58.0176L216.589 66.7419L218.867 64.4607L210.131 55.7363Z" fill="#FACD49"/>
<path d="M207.864 64.4548L210.146 66.7329L218.87 57.9964L216.589 55.7183L207.864 64.4548Z" fill="#FACD49"/>
<path d="M230.907 216.279L228.628 218.561L237.365 227.285L239.643 225.004L230.907 216.279Z" fill="#FACD49"/>
<path d="M228.624 225.018L230.906 227.296L239.63 218.56L237.349 216.282L228.624 225.018Z" fill="#FACD49"/>
<path d="M253.853 216.261L251.575 218.542L260.311 227.266L262.589 224.985L253.853 216.261Z" fill="#FACD49"/>
<path d="M251.582 225.012L253.863 227.29L262.588 218.553L260.306 216.275L251.582 225.012Z" fill="#FACD49"/>
<path d="M276.824 216.26L274.546 218.542L283.282 227.266L285.561 224.985L276.824 216.26Z" fill="#FACD49"/>
<path d="M274.52 224.981L276.802 227.259L285.526 218.523L283.245 216.245L274.52 224.981Z" fill="#FACD49"/>
<path d="M299.752 216.241L297.474 218.522L306.21 227.247L308.488 224.966L299.752 216.241Z" fill="#FACD49"/>
<path d="M297.458 224.974L299.74 227.252L308.464 218.516L306.183 216.238L297.458 224.974Z" fill="#FACD49"/>
<path d="M322.698 216.205L320.42 218.486L329.156 227.211L331.435 224.929L322.698 216.205Z" fill="#FACD49"/>
<path d="M320.434 224.968L322.715 227.246L331.44 218.51L329.158 216.231L320.434 224.968Z" fill="#FACD49"/>
<path d="M230.937 239.361L228.659 241.642L237.396 250.366L239.674 248.085L230.937 239.361Z" fill="#FACD49"/>
<path d="M228.643 248.105L230.924 250.383L239.649 241.646L237.367 239.368L228.643 248.105Z" fill="#FACD49"/>
<path d="M253.865 239.342L251.586 241.624L260.323 250.348L262.601 248.067L253.865 239.342Z" fill="#FACD49"/>
<path d="M251.581 248.099L253.862 250.377L262.587 241.64L260.305 239.362L251.581 248.099Z" fill="#FACD49"/>
<path d="M276.824 239.311L274.546 241.592L283.282 250.317L285.561 248.035L276.824 239.311Z" fill="#FACD49"/>
<path d="M274.525 248.062L276.807 250.34L285.531 241.603L283.25 239.325L274.525 248.062Z" fill="#FACD49"/>
<path d="M299.782 239.305L297.503 241.586L306.24 250.311L308.518 248.029L299.782 239.305Z" fill="#FACD49"/>
<path d="M297.494 248.043L299.775 250.321L308.5 241.585L306.218 239.307L297.494 248.043Z" fill="#FACD49"/>
<path d="M322.71 239.304L320.432 241.585L329.169 250.31L331.447 248.029L322.71 239.304Z" fill="#FACD49"/>
<path d="M320.434 248.037L322.715 250.315L331.439 241.578L329.158 239.3L320.434 248.037Z" fill="#FACD49"/>
<path d="M230.942 260.843L228.664 263.125L237.401 271.849L239.679 269.568L230.942 260.843Z" fill="#FACD49"/>
<path d="M228.655 269.569L230.936 271.847L239.66 263.111L237.379 260.833L228.655 269.569Z" fill="#FACD49"/>
<path d="M253.888 260.807L251.61 263.088L260.347 271.813L262.625 269.531L253.888 260.807Z" fill="#FACD49"/>
<path d="M251.594 269.563L253.875 271.841L262.6 263.104L260.319 260.826L251.594 269.563Z" fill="#FACD49"/>
<path d="M276.834 260.77L274.556 263.052L283.293 271.776L285.571 269.495L276.834 260.77Z" fill="#FACD49"/>
<path d="M274.569 269.539L276.85 271.817L285.574 263.08L283.293 260.802L274.569 269.539Z" fill="#FACD49"/>
<path d="M299.774 260.757L297.496 263.039L306.233 271.763L308.511 269.482L299.774 260.757Z" fill="#FACD49"/>
<path d="M297.494 269.52L299.775 271.798L308.5 263.061L306.218 260.783L297.494 269.52Z" fill="#FACD49"/>
<path d="M322.734 260.769L320.456 263.05L329.192 271.775L331.47 269.493L322.734 260.769Z" fill="#FACD49"/>
<path d="M320.428 269.501L322.709 271.779L331.434 263.043L329.153 260.765L320.428 269.501Z" fill="#FACD49"/>
<path d="M230.875 147.883L228.597 150.165L237.333 158.889L239.611 156.608L230.875 147.883Z" fill="#FACD49"/>
<path d="M228.587 156.655L230.868 158.934L239.593 150.197L237.311 147.919L228.587 156.655Z" fill="#FACD49"/>
<path d="M253.816 147.895L251.538 150.176L260.274 158.901L262.552 156.619L253.816 147.895Z" fill="#FACD49"/>
<path d="M251.539 156.618L253.82 158.896L262.545 150.16L260.263 147.882L251.539 156.618Z" fill="#FACD49"/>
<path d="M276.762 147.876L274.484 150.158L283.221 158.882L285.499 156.601L276.762 147.876Z" fill="#FACD49"/>
<path d="M274.46 156.63L276.741 158.908L285.466 150.172L283.184 147.894L274.46 156.63Z" fill="#FACD49"/>
<path d="M299.69 147.858L297.412 150.139L306.149 158.864L308.427 156.582L299.69 147.858Z" fill="#FACD49"/>
<path d="M297.416 156.606L299.697 158.884L308.422 150.148L306.14 147.87L297.416 156.606Z" fill="#FACD49"/>
<path d="M322.65 147.844L320.372 150.125L329.108 158.85L331.386 156.569L322.65 147.844Z" fill="#FACD49"/>
<path d="M320.361 156.587L322.642 158.865L331.366 150.129L329.085 147.851L320.361 156.587Z" fill="#FACD49"/>
<path d="M230.875 170.978L228.597 173.259L237.333 181.983L239.611 179.702L230.875 170.978Z" fill="#FACD49"/>
<path d="M228.6 179.737L230.881 182.015L239.606 173.278L237.324 171L228.6 179.737Z" fill="#FACD49"/>
<path d="M253.833 170.964L251.555 173.245L260.292 181.969L262.57 179.688L253.833 170.964Z" fill="#FACD49"/>
<path d="M251.543 179.718L253.825 181.996L262.549 173.259L260.268 170.981L251.543 179.718Z" fill="#FACD49"/>
<path d="M276.774 170.958L274.496 173.239L283.233 181.964L285.511 179.682L276.774 170.958Z" fill="#FACD49"/>
<path d="M274.495 179.699L276.776 181.977L285.5 173.241L283.219 170.962L274.495 179.699Z" fill="#FACD49"/>
<path d="M299.72 170.939L297.442 173.221L306.179 181.945L308.457 179.664L299.72 170.939Z" fill="#FACD49"/>
<path d="M297.434 179.693L299.715 181.971L308.44 173.235L306.158 170.957L297.434 179.693Z" fill="#FACD49"/>
<path d="M322.662 170.908L320.384 173.189L329.12 181.914L331.398 179.633L322.662 170.908Z" fill="#FACD49"/>
<path d="M320.378 179.656L322.66 181.934L331.384 173.198L329.103 170.919L320.378 179.656Z" fill="#FACD49"/>
<path d="M230.898 192.459L228.62 194.741L237.357 203.465L239.635 201.184L230.898 192.459Z" fill="#FACD49"/>
<path d="M228.595 201.2L230.876 203.479L239.6 194.742L237.319 192.464L228.595 201.2Z" fill="#FACD49"/>
<path d="M253.839 192.428L251.561 194.709L260.298 203.434L262.576 201.153L253.839 192.428Z" fill="#FACD49"/>
<path d="M251.538 201.182L253.819 203.46L262.544 194.723L260.262 192.445L251.538 201.182Z" fill="#FACD49"/>
<path d="M276.799 192.422L274.521 194.704L283.257 203.428L285.535 201.147L276.799 192.422Z" fill="#FACD49"/>
<path d="M274.508 201.163L276.789 203.441L285.513 194.704L283.232 192.426L274.508 201.163Z" fill="#FACD49"/>
<path d="M299.726 192.404L297.448 194.685L306.184 203.409L308.462 201.128L299.726 192.404Z" fill="#FACD49"/>
<path d="M297.447 201.157L299.728 203.435L308.452 194.699L306.171 192.42L297.447 201.157Z" fill="#FACD49"/>
<path d="M322.673 192.385L320.395 194.667L329.131 203.391L331.409 201.11L322.673 192.385Z" fill="#FACD49"/>
<path d="M320.403 201.133L322.685 203.411L331.409 194.674L329.128 192.396L320.403 201.133Z" fill="#FACD49"/>
<path d="M230.827 79.5483L228.549 81.8296L237.285 90.5539L239.563 88.2727L230.827 79.5483Z" fill="#FACD49"/>
<path d="M228.54 88.2746L230.821 90.5527L239.546 81.8162L237.264 79.5381L228.54 88.2746Z" fill="#FACD49"/>
<path d="M253.755 79.5117L251.477 81.793L260.214 90.5173L262.492 88.236L253.755 79.5117Z" fill="#FACD49"/>
<path d="M251.479 88.2688L253.76 90.5469L262.485 81.8103L260.203 79.5322L251.479 88.2688Z" fill="#FACD49"/>
<path d="M276.714 79.498L274.436 81.7793L283.173 90.5037L285.451 88.2224L276.714 79.498Z" fill="#FACD49"/>
<path d="M274.441 88.2493L276.722 90.5273L285.447 81.7908L283.165 79.5127L274.441 88.2493Z" fill="#FACD49"/>
<path d="M299.659 79.4795L297.381 81.7607L306.118 90.4851L308.396 88.2038L299.659 79.4795Z" fill="#FACD49"/>
<path d="M297.379 88.2429L299.661 90.521L308.385 81.7844L306.104 79.5064L297.379 88.2429Z" fill="#FACD49"/>
<path d="M322.605 79.4785L320.327 81.7598L329.064 90.4841L331.342 88.2028L322.605 79.4785Z" fill="#FACD49"/>
<path d="M320.3 88.2365L322.581 90.5146L331.305 81.7781L329.024 79.5L320.3 88.2365Z" fill="#FACD49"/>
<path d="M230.84 102.612L228.562 104.893L237.298 113.617L239.576 111.336L230.84 102.612Z" fill="#FACD49"/>
<path d="M228.558 111.362L230.839 113.64L239.563 104.903L237.282 102.625L228.558 111.362Z" fill="#FACD49"/>
<path d="M253.785 102.593L251.507 104.874L260.244 113.598L262.522 111.317L253.785 102.593Z" fill="#FACD49"/>
<path d="M251.515 111.337L253.796 113.615L262.52 104.878L260.239 102.6L251.515 111.337Z" fill="#FACD49"/>
<path d="M276.731 102.592L274.453 104.874L283.19 113.598L285.468 111.317L276.731 102.592Z" fill="#FACD49"/>
<path d="M274.436 111.331L276.717 113.609L285.441 104.872L283.16 102.594L274.436 111.331Z" fill="#FACD49"/>
<path d="M299.673 102.561L297.395 104.842L306.131 113.567L308.409 111.285L299.673 102.561Z" fill="#FACD49"/>
<path d="M297.379 111.312L299.661 113.59L308.385 104.853L306.104 102.575L297.379 111.312Z" fill="#FACD49"/>
<path d="M322.619 102.542L320.341 104.824L329.077 113.548L331.355 111.267L322.619 102.542Z" fill="#FACD49"/>
<path d="M320.336 111.305L322.617 113.583L331.342 104.847L329.06 102.569L320.336 111.305Z" fill="#FACD49"/>
<path d="M230.863 124.076L228.584 126.357L237.321 135.082L239.599 132.801L230.863 124.076Z" fill="#FACD49"/>
<path d="M228.588 132.807L230.87 135.085L239.594 126.349L237.313 124.071L228.588 132.807Z" fill="#FACD49"/>
<path d="M253.808 124.075L251.53 126.356L260.267 135.081L262.545 132.8L253.808 124.075Z" fill="#FACD49"/>
<path d="M251.527 132.801L253.808 135.079L262.532 126.343L260.251 124.064L251.527 132.801Z" fill="#FACD49"/>
<path d="M276.737 124.074L274.458 126.355L283.195 135.08L285.473 132.799L276.737 124.074Z" fill="#FACD49"/>
<path d="M274.448 132.813L276.729 135.091L285.453 126.354L283.172 124.076L274.448 132.813Z" fill="#FACD49"/>
<path d="M299.696 124.026L297.417 126.307L306.154 135.031L308.432 132.75L299.696 124.026Z" fill="#FACD49"/>
<path d="M297.392 132.776L299.673 135.054L308.398 126.318L306.116 124.04L297.392 132.776Z" fill="#FACD49"/>
<path d="M322.625 124.024L320.347 126.306L329.083 135.03L331.361 132.749L322.625 124.024Z" fill="#FACD49"/>
<path d="M320.35 132.769L322.631 135.047L331.355 126.311L329.074 124.033L320.35 132.769Z" fill="#FACD49"/>
<path d="M230.783 11.1816L228.505 13.4629L237.242 22.1872L239.52 19.906L230.783 11.1816Z" fill="#FACD49"/>
<path d="M228.497 19.9236L230.778 22.2017L239.503 13.4651L237.221 11.187L228.497 19.9236Z" fill="#FACD49"/>
<path d="M253.724 11.1508L251.446 13.4321L260.183 22.1565L262.461 19.8752L253.724 11.1508Z" fill="#FACD49"/>
<path d="M251.441 19.8874L253.723 22.1655L262.447 13.429L260.166 11.1509L251.441 19.8874Z" fill="#FACD49"/>
<path d="M276.652 11.1323L274.374 13.4136L283.111 22.1379L285.389 19.8567L276.652 11.1323Z" fill="#FACD49"/>
<path d="M274.38 19.8811L276.661 22.1592L285.385 13.4226L283.104 11.1445L274.38 19.8811Z" fill="#FACD49"/>
<path d="M299.598 11.1133L297.32 13.3945L306.057 22.1189L308.335 19.8376L299.598 11.1133Z" fill="#FACD49"/>
<path d="M297.337 19.8743L299.618 22.1523L308.343 13.4158L306.061 11.1377L297.337 19.8743Z" fill="#FACD49"/>
<path d="M322.57 11.1128L320.292 13.394L329.028 22.1184L331.306 19.8371L322.57 11.1128Z" fill="#FACD49"/>
<path d="M320.293 19.8254L322.575 22.1035L331.299 13.367L329.018 11.0889L320.293 19.8254Z" fill="#FACD49"/>
<path d="M230.796 34.2456L228.518 36.5269L237.255 45.2512L239.533 42.9699L230.796 34.2456Z" fill="#FACD49"/>
<path d="M228.515 42.9924L230.796 45.2705L239.521 36.534L237.239 34.2559L228.515 42.9924Z" fill="#FACD49"/>
<path d="M253.755 34.2324L251.477 36.5137L260.213 45.238L262.491 42.9568L253.755 34.2324Z" fill="#FACD49"/>
<path d="M251.441 42.9739L253.723 45.252L262.447 36.5154L260.166 34.2373L251.441 42.9739Z" fill="#FACD49"/>
<path d="M276.665 34.1958L274.387 36.4771L283.124 45.2014L285.402 42.9201L276.665 34.1958Z" fill="#FACD49"/>
<path d="M274.399 42.9675L276.68 45.2456L285.405 36.5091L283.123 34.231L274.399 42.9675Z" fill="#FACD49"/>
<path d="M299.612 34.1948L297.333 36.4761L306.07 45.2004L308.348 42.9191L299.612 34.1948Z" fill="#FACD49"/>
<path d="M297.355 42.9431L299.637 45.2212L308.361 36.4846L306.08 34.2065L297.355 42.9431Z" fill="#FACD49"/>
<path d="M322.557 34.1943L320.279 36.4756L329.015 45.1999L331.293 42.9187L322.557 34.1943Z" fill="#FACD49"/>
<path d="M320.276 42.9553L322.557 45.2334L331.281 36.4969L329 34.2187L320.276 42.9553Z" fill="#FACD49"/>
<path d="M230.802 55.7099L228.523 57.9912L237.26 66.7156L239.538 64.4343L230.802 55.7099Z" fill="#FACD49"/>
<path d="M228.528 64.4563L230.81 66.7344L239.534 57.9978L237.253 55.7197L228.528 64.4563Z" fill="#FACD49"/>
<path d="M253.748 55.709L251.47 57.9902L260.206 66.7146L262.484 64.4333L253.748 55.709Z" fill="#FACD49"/>
<path d="M251.467 64.4499L253.748 66.728L262.472 57.9915L260.191 55.7134L251.467 64.4499Z" fill="#FACD49"/>
<path d="M276.689 55.6601L274.411 57.9414L283.147 66.6658L285.425 64.3845L276.689 55.6601Z" fill="#FACD49"/>
<path d="M274.429 64.4138L276.71 66.6919L285.435 57.9553L283.154 55.6772L274.429 64.4138Z" fill="#FACD49"/>
<path d="M299.635 55.6596L297.357 57.9409L306.093 66.6653L308.372 64.384L299.635 55.6596Z" fill="#FACD49"/>
<path d="M297.35 64.4075L299.631 66.6855L308.355 57.949L306.074 55.6709L297.35 64.4075Z" fill="#FACD49"/>
<path d="M322.581 55.6587L320.303 57.9399L329.039 66.6643L331.317 64.383L322.581 55.6587Z" fill="#FACD49"/>
<path d="M320.289 64.4192L322.57 66.6973L331.294 57.9607L329.013 55.6826L320.289 64.4192Z" fill="#FACD49"/>
<path d="M346.985 216.209L344.707 218.49L353.443 227.215L355.721 224.933L346.985 216.209Z" fill="#FACD49"/>
<path d="M344.687 224.932L346.968 227.21L355.693 218.474L353.411 216.196L344.687 224.932Z" fill="#FACD49"/>
<path d="M346.986 239.285L344.708 241.566L353.444 250.291L355.722 248.009L346.986 239.285Z" fill="#FACD49"/>
<path d="M344.7 248.031L346.981 250.309L355.706 241.573L353.424 239.294L344.7 248.031Z" fill="#FACD49"/>
<path d="M346.99 260.749L344.712 263.031L353.449 271.755L355.727 269.474L346.99 260.749Z" fill="#FACD49"/>
<path d="M344.713 269.495L346.994 271.773L355.718 263.037L353.437 260.759L344.713 269.495Z" fill="#FACD49"/>
<path d="M346.923 147.825L344.645 150.106L353.382 158.83L355.66 156.549L346.923 147.825Z" fill="#FACD49"/>
<path d="M344.626 156.581L346.908 158.859L355.632 150.123L353.351 147.845L344.626 156.581Z" fill="#FACD49"/>
<path d="M346.936 170.906L344.658 173.188L353.395 181.912L355.673 179.631L346.936 170.906Z" fill="#FACD49"/>
<path d="M344.663 179.65L346.944 181.928L355.669 173.192L353.387 170.914L344.663 179.65Z" fill="#FACD49"/>
<path d="M346.959 192.371L344.681 194.652L353.418 203.376L355.696 201.095L346.959 192.371Z" fill="#FACD49"/>
<path d="M344.675 201.114L346.956 203.392L355.68 194.656L353.399 192.377L344.675 201.114Z" fill="#FACD49"/>
<path d="M346.863 79.4585L344.585 81.7397L353.322 90.4641L355.6 88.1828L346.863 79.4585Z" fill="#FACD49"/>
<path d="M344.585 88.2121L346.867 90.4902L355.591 81.7537L353.31 79.4756L344.585 88.2121Z" fill="#FACD49"/>
<path d="M346.875 102.541L344.597 104.822L353.334 113.546L355.612 111.265L346.875 102.541Z" fill="#FACD49"/>
<path d="M344.584 111.3L346.866 113.578L355.59 104.841L353.309 102.563L344.584 111.3Z" fill="#FACD49"/>
<path d="M346.9 124.005L344.622 126.286L353.358 135.01L355.636 132.729L346.9 124.005Z" fill="#FACD49"/>
<path d="M344.598 132.763L346.879 135.042L355.603 126.305L353.322 124.027L344.598 132.763Z" fill="#FACD49"/>
<path d="M346.826 11.0932L344.548 13.3745L353.285 22.0989L355.563 19.8176L346.826 11.0932Z" fill="#FACD49"/>
<path d="M344.542 19.8376L346.823 22.1157L355.548 13.3792L353.266 11.1011L344.542 19.8376Z" fill="#FACD49"/>
<path d="M346.858 34.1748L344.58 36.4561L353.316 45.1804L355.594 42.8991L346.858 34.1748Z" fill="#FACD49"/>
<path d="M344.56 42.906L346.841 45.1841L355.566 36.4475L353.284 34.1694L344.56 42.906Z" fill="#FACD49"/>
<path d="M346.863 55.6391L344.585 57.9204L353.322 66.6448L355.6 64.3635L346.863 55.6391Z" fill="#FACD49"/>
<path d="M344.572 64.3698L346.854 66.6479L355.578 57.9114L353.297 55.6333L344.572 64.3698Z" fill="#FACD49"/>
</g>
<path d="M125.061 0H120.456V11.5142H125.061V0Z" fill="#FF5722"/>
<path d="M125.061 0H120.456V11.5142H125.061V0Z" fill="#FF5722"/>
<path d="M125.061 190.001H120.456V201.516H125.061V190.001Z" fill="#FF5722"/>
<path d="M33.5147 98.4551H22.0005V103.061H33.5147V98.4551Z" fill="#FF5722"/>
<path d="M33.5147 98.4551H22.0005V103.061H33.5147V98.4551Z" fill="#FF5722"/>
<path d="M223.516 98.4551H212.001V103.061H223.516V98.4551Z" fill="#FF5722"/>
<path d="M53.1542 27.8825L49.8975 31.1392L58.0392 39.2809L61.2959 36.0242L53.1542 27.8825Z" fill="#FF5722"/>
<path d="M53.1542 27.8825L49.8975 31.1392L58.0392 39.2809L61.2959 36.0242L53.1542 27.8825Z" fill="#FF5722"/>
<path d="M187.488 162.244L184.231 165.501L192.373 173.643L195.629 170.386L187.488 162.244Z" fill="#FF5722"/>
<path d="M58.0295 162.228L49.8892 170.372L53.1464 173.628L61.2867 165.485L58.0295 162.228Z" fill="#FF5722"/>
<path d="M58.0295 162.228L49.8892 170.372L53.1464 173.628L61.2867 165.485L58.0295 162.228Z" fill="#FF5722"/>
<path d="M192.375 27.8778L184.235 36.021L187.492 39.2771L195.632 31.134L192.375 27.8778Z" fill="#FF5722"/>
<path d="M102.043 2.12837L97.5586 3.17773L100.182 14.3891L104.667 13.3397L102.043 2.12837Z" fill="#FF5722"/>
<path d="M102.043 2.12837L97.5586 3.17773L100.182 14.3891L104.667 13.3397L102.043 2.12837Z" fill="#FF5722"/>
<path d="M145.341 187.139L140.856 188.188L143.48 199.399L147.964 198.35L145.341 187.139Z" fill="#FF5722"/>
<path d="M35.3476 118.848L24.1372 121.476L25.1881 125.96L36.3985 123.332L35.3476 118.848Z" fill="#FF5722"/>
<path d="M35.3476 118.848L24.1372 121.476L25.1881 125.96L36.3985 123.332L35.3476 118.848Z" fill="#FF5722"/>
<path d="M220.345 75.566L209.134 78.1914L210.184 82.6757L221.395 80.0504L220.345 75.566Z" fill="#FF5722"/>
<path d="M38.3727 45.6651L35.9443 49.5786L45.728 55.6495L48.1564 51.736L38.3727 45.6651Z" fill="#FF5722"/>
<path d="M38.3727 45.6651L35.9443 49.5786L45.728 55.6495L48.1564 51.736L38.3727 45.6651Z" fill="#FF5722"/>
<path d="M199.797 145.852L197.369 149.766L207.153 155.836L209.581 151.923L199.797 145.852Z" fill="#FF5722"/>
<path d="M73.7552 175.359L67.6826 185.142L71.5957 187.571L77.6682 177.788L73.7552 175.359Z" fill="#FF5722"/>
<path d="M73.7552 175.359L67.6826 185.142L71.5957 187.571L77.6682 177.788L73.7552 175.359Z" fill="#FF5722"/>
<path d="M173.921 13.9278L167.849 23.7104L171.762 26.1395L177.834 16.3569L173.921 13.9278Z" fill="#FF5722"/>
<path d="M87.7368 6.24221L83.4561 7.94141L87.704 18.6433L91.9848 16.9441L87.7368 6.24221Z" fill="#FF5722"/>
<path d="M87.7368 6.24221L83.4561 7.94141L87.704 18.6433L91.9848 16.9441L87.7368 6.24221Z" fill="#FF5722"/>
<path d="M157.817 182.855L153.537 184.554L157.785 195.256L162.065 193.557L157.817 182.855Z" fill="#FF5722"/>
<path d="M38.9558 131.525L28.2539 135.773L29.9531 140.054L40.655 135.806L38.9558 131.525Z" fill="#FF5722"/>
<path d="M38.9558 131.525L28.2539 135.773L29.9531 140.054L40.655 135.806L38.9558 131.525Z" fill="#FF5722"/>
<path d="M215.569 61.4444L204.867 65.6924L206.566 69.9731L217.268 65.7252L215.569 61.4444Z" fill="#FF5722"/>
<path d="M31.1763 58.6986L29.3501 62.9268L39.9205 67.4922L41.7466 63.2641L31.1763 58.6986Z" fill="#FF5722"/>
<path d="M31.1763 58.6986L29.3501 62.9268L39.9205 67.4922L41.7466 63.2641L31.1763 58.6986Z" fill="#FF5722"/>
<path d="M205.623 134.038L203.797 138.267L214.367 142.832L216.193 138.604L205.623 134.038Z" fill="#FF5722"/>
<path d="M85.2819 181.792L80.7183 192.363L84.9467 194.189L89.5103 183.618L85.2819 181.792Z" fill="#FF5722"/>
<path d="M85.2819 181.792L80.7183 192.363L84.9467 194.189L89.5103 183.618L85.2819 181.792Z" fill="#FF5722"/>
<path d="M160.582 7.34387L156.018 17.915L160.247 19.7405L164.81 9.16932L160.582 7.34387Z" fill="#FF5722"/>
<path d="M67.1243 16.7266L63.3433 19.3564L69.9179 28.809L73.6989 26.1792L67.1243 16.7266Z" fill="#FF5722"/>
<path d="M67.1243 16.7266L63.3433 19.3564L69.9179 28.809L73.6989 26.1792L67.1243 16.7266Z" fill="#FF5722"/>
<path d="M175.615 172.698L171.833 175.328L178.408 184.78L182.189 182.15L175.615 172.698Z" fill="#FF5722"/>
<path d="M48.1855 149.817L38.7329 156.392L41.3628 160.173L50.8153 153.599L48.1855 149.817Z" fill="#FF5722"/>
<path d="M48.1855 149.817L38.7329 156.392L41.3628 160.173L50.8153 153.599L48.1855 149.817Z" fill="#FF5722"/>
<path d="M204.17 41.3512L194.717 47.9258L197.347 51.7068L206.8 45.1322L204.17 41.3512Z" fill="#FF5722"/>
<path d="M23.9927 80.6768L23.1787 85.21L34.5116 87.245L35.3256 82.7118L23.9927 80.6768Z" fill="#FF5722"/>
<path d="M23.9927 80.6768L23.1787 85.21L34.5116 87.245L35.3256 82.7118L23.9927 80.6768Z" fill="#FF5722"/>
<path d="M211.018 114.268L210.204 118.801L221.537 120.836L222.351 116.303L211.018 114.268Z" fill="#FF5722"/>
<path d="M104.731 188.187L102.698 199.52L107.232 200.333L109.265 189L104.731 188.187Z" fill="#FF5722"/>
<path d="M104.731 188.187L102.698 199.52L107.232 200.333L109.265 189L104.731 188.187Z" fill="#FF5722"/>
<path d="M138.294 1.17163L136.261 12.5049L140.794 13.3181L142.827 1.98485L138.294 1.17163Z" fill="#FF5722"/>
</g>
<defs>
<clipPath id="clip0_832_28">
<rect width="447.511" height="272" fill="white"/>
</clipPath>
</defs>
</svg>
