<svg width="448" height="272" viewBox="0 0 448 272" fill="none" xmlns="http://www.w3.org/2000/svg">
<g clip-path="url(#clip0_1116_6990)">
<mask id="mask0_1116_6990" style="mask-type:luminance" maskUnits="userSpaceOnUse" x="92" y="11" width="253" height="253">
<path d="M307.971 226.188C357.157 177.003 357.157 97.2572 307.971 48.0717C258.786 -1.11371 179.04 -1.11373 129.855 48.0717C80.6696 97.2572 80.6696 177.003 129.855 226.188C179.04 275.373 258.786 275.373 307.971 226.188Z" fill="white"/>
</mask>
<g mask="url(#mask0_1116_6990)">
<path d="M94.1892 216.364L91.9111 218.646L100.648 227.37L102.926 225.089L94.1892 216.364Z" fill="#FACD49"/>
<path d="M91.9052 225.109L94.1865 227.387L102.911 218.65L100.63 216.372L91.9052 225.109Z" fill="#FACD49"/>
<path d="M94.2185 239.446L91.9404 241.727L100.677 250.451L102.955 248.17L94.2185 239.446Z" fill="#FACD49"/>
<path d="M91.9228 248.177L94.2041 250.456L102.928 241.719L100.647 239.441L91.9228 248.177Z" fill="#FACD49"/>
<path d="M94.2302 260.905L91.9521 263.186L100.689 271.91L102.967 269.629L94.2302 260.905Z" fill="#FACD49"/>
<path d="M91.9482 269.672L94.2295 271.95L102.954 263.213L100.673 260.935L91.9482 269.672Z" fill="#FACD49"/>
<path d="M94.157 148.011L91.8789 150.292L100.615 159.017L102.894 156.736L94.157 148.011Z" fill="#FACD49"/>
<path d="M91.8564 156.728L94.1377 159.006L102.862 150.27L100.581 147.992L91.8564 156.728Z" fill="#FACD49"/>
<path d="M94.157 171.081L91.8789 173.362L100.615 182.086L102.894 179.805L94.157 171.081Z" fill="#FACD49"/>
<path d="M91.8799 179.827L94.1611 182.105L102.885 173.369L100.604 171.091L91.8799 179.827Z" fill="#FACD49"/>
<path d="M94.1795 192.544L91.9014 194.826L100.638 203.55L102.916 201.269L94.1795 192.544Z" fill="#FACD49"/>
<path d="M91.8916 201.291L94.1729 203.569L102.897 194.832L100.616 192.554L91.8916 201.291Z" fill="#FACD49"/>
<path d="M94.1072 79.6152L91.8291 81.8965L100.566 90.6208L102.844 88.3396L94.1072 79.6152Z" fill="#FACD49"/>
<path d="M91.8183 88.365L94.0996 90.6431L102.824 81.9065L100.543 79.6284L91.8183 88.365Z" fill="#FACD49"/>
<path d="M94.1072 102.727L91.8291 105.008L100.566 113.733L102.844 111.451L94.1072 102.727Z" fill="#FACD49"/>
<path d="M91.8486 111.447L94.1299 113.725L102.854 104.988L100.573 102.71L91.8486 111.447Z" fill="#FACD49"/>
<path d="M94.1306 124.191L91.8525 126.473L100.589 135.197L102.867 132.916L94.1306 124.191Z" fill="#FACD49"/>
<path d="M91.8613 132.91L94.1426 135.188L102.867 126.452L100.586 124.174L91.8613 132.91Z" fill="#FACD49"/>
<path d="M94.0467 11.2666L91.7686 13.5479L100.505 22.2722L102.783 19.9909L94.0467 11.2666Z" fill="#FACD49"/>
<path d="M91.7763 19.9963L94.0576 22.2744L102.782 13.5379L100.501 11.2598L91.7763 19.9963Z" fill="#FACD49"/>
<path d="M94.0779 34.3305L91.7998 36.6118L100.536 45.3362L102.814 43.0549L94.0779 34.3305Z" fill="#FACD49"/>
<path d="M91.7949 43.0652L94.0762 45.3433L102.801 36.6067L100.519 34.3286L91.7949 43.0652Z" fill="#FACD49"/>
<path d="M94.0828 55.7949L91.8047 58.0762L100.541 66.8005L102.819 64.5192L94.0828 55.7949Z" fill="#FACD49"/>
<path d="M91.8076 64.5471L94.0889 66.8252L102.813 58.0886L100.532 55.8106L91.8076 64.5471Z" fill="#FACD49"/>
<path d="M118.463 216.362L116.185 218.644L124.921 227.368L127.199 225.087L118.463 216.362Z" fill="#FACD49"/>
<path d="M116.171 225.085L118.452 227.363L127.176 218.627L124.895 216.349L116.171 225.085Z" fill="#FACD49"/>
<path d="M141.422 216.339L139.144 218.62L147.88 227.344L150.158 225.063L141.422 216.339Z" fill="#FACD49"/>
<path d="M139.141 225.066L141.422 227.344L150.146 218.608L147.865 216.33L139.141 225.066Z" fill="#FACD49"/>
<path d="M164.349 216.32L162.071 218.602L170.808 227.326L173.086 225.045L164.349 216.32Z" fill="#FACD49"/>
<path d="M162.097 225.06L164.378 227.338L173.102 218.602L170.821 216.324L162.097 225.06Z" fill="#FACD49"/>
<path d="M187.307 216.325L185.029 218.606L193.766 227.33L196.044 225.049L187.307 216.325Z" fill="#FACD49"/>
<path d="M185.005 225.041L187.286 227.319L196.011 218.583L193.729 216.305L185.005 225.041Z" fill="#FACD49"/>
<path d="M210.237 216.288L207.959 218.569L216.696 227.294L218.974 225.012L210.237 216.288Z" fill="#FACD49"/>
<path d="M207.963 225.034L210.244 227.312L218.968 218.576L216.687 216.298L207.963 225.034Z" fill="#FACD49"/>
<path d="M118.494 239.409L116.216 241.69L124.952 250.414L127.23 248.133L118.494 239.409Z" fill="#FACD49"/>
<path d="M116.189 248.172L118.471 250.45L127.195 241.713L124.914 239.435L116.189 248.172Z" fill="#FACD49"/>
<path d="M141.421 239.408L139.143 241.689L147.879 250.413L150.157 248.132L141.421 239.408Z" fill="#FACD49"/>
<path d="M139.127 248.165L141.408 250.443L150.133 241.707L147.851 239.429L139.127 248.165Z" fill="#FACD49"/>
<path d="M164.381 239.419L162.103 241.701L170.839 250.425L173.117 248.144L164.381 239.419Z" fill="#FACD49"/>
<path d="M162.098 248.146L164.379 250.424L173.103 241.688L170.822 239.41L162.098 248.146Z" fill="#FACD49"/>
<path d="M187.321 239.388L185.043 241.669L193.78 250.394L196.058 248.113L187.321 239.388Z" fill="#FACD49"/>
<path d="M185.023 248.11L187.305 250.388L196.029 241.652L193.748 239.374L185.023 248.11Z" fill="#FACD49"/>
<path d="M210.268 239.387L207.99 241.668L216.727 250.393L219.005 248.112L210.268 239.387Z" fill="#FACD49"/>
<path d="M207.963 248.103L210.244 250.381L218.968 241.645L216.687 239.367L207.963 248.103Z" fill="#FACD49"/>
<path d="M118.499 260.891L116.221 263.172L124.957 271.897L127.235 269.615L118.499 260.891Z" fill="#FACD49"/>
<path d="M116.22 269.636L118.501 271.914L127.225 263.178L124.944 260.899L116.22 269.636Z" fill="#FACD49"/>
<path d="M141.445 260.89L139.167 263.171L147.904 271.895L150.182 269.614L141.445 260.89Z" fill="#FACD49"/>
<path d="M139.141 269.629L141.422 271.907L150.146 263.171L147.865 260.893L139.141 269.629Z" fill="#FACD49"/>
<path d="M164.386 260.884L162.107 263.165L170.844 271.889L173.122 269.608L164.386 260.884Z" fill="#FACD49"/>
<path d="M162.109 269.611L164.391 271.889L173.115 263.152L170.834 260.874L162.109 269.611Z" fill="#FACD49"/>
<path d="M187.332 260.865L185.054 263.146L193.79 271.871L196.068 269.59L187.332 260.865Z" fill="#FACD49"/>
<path d="M185.048 269.604L187.329 271.882L196.053 263.146L193.772 260.868L185.048 269.604Z" fill="#FACD49"/>
<path d="M210.273 260.852L207.995 263.133L216.732 271.858L219.01 269.576L210.273 260.852Z" fill="#FACD49"/>
<path d="M207.975 269.568L210.256 271.846L218.98 263.109L216.699 260.831L207.975 269.568Z" fill="#FACD49"/>
<path d="M118.414 147.991L116.136 150.272L124.872 158.997L127.15 156.716L118.414 147.991Z" fill="#FACD49"/>
<path d="M116.142 156.721L118.423 159L127.147 150.263L124.866 147.985L116.142 156.721Z" fill="#FACD49"/>
<path d="M141.373 147.96L139.095 150.241L147.831 158.966L150.109 156.684L141.373 147.96Z" fill="#FACD49"/>
<path d="M139.085 156.702L141.366 158.98L150.091 150.244L147.809 147.966L139.085 156.702Z" fill="#FACD49"/>
<path d="M164.318 147.959L162.04 150.24L170.777 158.965L173.055 156.683L164.318 147.959Z" fill="#FACD49"/>
<path d="M162.023 156.697L164.305 158.975L173.029 150.238L170.748 147.96L162.023 156.697Z" fill="#FACD49"/>
<path d="M187.247 147.923L184.969 150.204L193.705 158.928L195.983 156.647L187.247 147.923Z" fill="#FACD49"/>
<path d="M184.98 156.673L187.262 158.951L195.986 150.214L193.705 147.936L184.98 156.673Z" fill="#FACD49"/>
<path d="M210.193 147.922L207.915 150.203L216.652 158.927L218.93 156.646L210.193 147.922Z" fill="#FACD49"/>
<path d="M207.92 156.666L210.201 158.944L218.926 150.208L216.644 147.93L207.92 156.666Z" fill="#FACD49"/>
<path d="M118.444 171.072L116.166 173.354L124.903 182.078L127.181 179.797L118.444 171.072Z" fill="#FACD49"/>
<path d="M116.158 179.79L118.439 182.068L127.164 173.332L124.883 171.054L116.158 179.79Z" fill="#FACD49"/>
<path d="M141.386 171.041L139.107 173.322L147.844 182.047L150.122 179.765L141.386 171.041Z" fill="#FACD49"/>
<path d="M139.103 179.771L141.384 182.049L150.108 173.313L147.827 171.035L139.103 179.771Z" fill="#FACD49"/>
<path d="M164.331 171.023L162.053 173.304L170.789 182.029L173.067 179.747L164.331 171.023Z" fill="#FACD49"/>
<path d="M162.041 179.765L164.322 182.043L173.047 173.306L170.765 171.028L162.041 179.765Z" fill="#FACD49"/>
<path d="M187.278 171.022L185 173.303L193.737 182.028L196.015 179.746L187.278 171.022Z" fill="#FACD49"/>
<path d="M184.981 179.759L187.263 182.037L195.987 173.301L193.706 171.022L184.981 179.759Z" fill="#FACD49"/>
<path d="M210.206 171.003L207.928 173.285L216.664 182.009L218.942 179.728L210.206 171.003Z" fill="#FACD49"/>
<path d="M207.937 179.753L210.219 182.031L218.943 173.294L216.662 171.016L207.937 179.753Z" fill="#FACD49"/>
<path d="M118.449 192.554L116.171 194.835L124.907 203.56L127.186 201.279L118.449 192.554Z" fill="#FACD49"/>
<path d="M116.171 201.254L118.452 203.532L127.177 194.796L124.895 192.518L116.171 201.254Z" fill="#FACD49"/>
<path d="M141.395 192.519L139.117 194.8L147.854 203.524L150.132 201.243L141.395 192.519Z" fill="#FACD49"/>
<path d="M139.127 201.248L141.408 203.526L150.133 194.79L147.851 192.512L139.127 201.248Z" fill="#FACD49"/>
<path d="M164.354 192.505L162.076 194.786L170.813 203.51L173.091 201.229L164.354 192.505Z" fill="#FACD49"/>
<path d="M162.054 201.229L164.335 203.507L173.059 194.771L170.778 192.493L162.054 201.229Z" fill="#FACD49"/>
<path d="M187.283 192.486L185.005 194.768L193.741 203.492L196.02 201.211L187.283 192.486Z" fill="#FACD49"/>
<path d="M184.993 201.223L187.274 203.501L195.999 194.764L193.717 192.486L184.993 201.223Z" fill="#FACD49"/>
<path d="M210.228 192.468L207.95 194.749L216.687 203.473L218.965 201.192L210.228 192.468Z" fill="#FACD49"/>
<path d="M207.949 201.217L210.23 203.495L218.955 194.758L216.674 192.48L207.949 201.217Z" fill="#FACD49"/>
<path d="M118.383 79.6128L116.104 81.894L124.841 90.6184L127.119 88.3371L118.383 79.6128Z" fill="#FACD49"/>
<path d="M116.103 88.3406L118.385 90.6187L127.109 81.8821L124.828 79.604L116.103 88.3406Z" fill="#FACD49"/>
<path d="M141.311 79.6113L139.033 81.8926L147.77 90.6169L150.048 88.3357L141.311 79.6113Z" fill="#FACD49"/>
<path d="M139.024 88.3342L141.306 90.6123L150.03 81.8758L147.749 79.5977L139.024 88.3342Z" fill="#FACD49"/>
<path d="M164.258 79.5932L161.979 81.8745L170.716 90.5989L172.994 88.3176L164.258 79.5932Z" fill="#FACD49"/>
<path d="M161.981 88.3279L164.263 90.606L172.987 81.8694L170.706 79.5913L161.981 88.3279Z" fill="#FACD49"/>
<path d="M187.198 79.562L184.92 81.8433L193.656 90.5676L195.935 88.2863L187.198 79.562Z" fill="#FACD49"/>
<path d="M184.907 88.3093L187.188 90.5874L195.913 81.8509L193.632 79.5728L184.907 88.3093Z" fill="#FACD49"/>
<path d="M210.157 79.5556L207.879 81.8369L216.615 90.5613L218.894 88.28L210.157 79.5556Z" fill="#FACD49"/>
<path d="M207.858 88.2903L210.14 90.5684L218.864 81.8318L216.583 79.5537L207.858 88.2903Z" fill="#FACD49"/>
<path d="M118.395 102.694L116.117 104.975L124.854 113.699L127.132 111.418L118.395 102.694Z" fill="#FACD49"/>
<path d="M116.103 111.427L118.385 113.705L127.109 104.969L124.828 102.69L116.103 111.427Z" fill="#FACD49"/>
<path d="M141.342 102.675L139.063 104.957L147.8 113.681L150.078 111.4L141.342 102.675Z" fill="#FACD49"/>
<path d="M139.061 111.421L141.342 113.699L150.066 104.962L147.785 102.684L139.061 111.421Z" fill="#FACD49"/>
<path d="M164.269 102.674L161.991 104.956L170.728 113.68L173.006 111.399L164.269 102.674Z" fill="#FACD49"/>
<path d="M161.98 111.414L164.262 113.692L172.986 104.956L170.705 102.678L161.98 111.414Z" fill="#FACD49"/>
<path d="M187.229 102.625L184.951 104.907L193.688 113.631L195.966 111.35L187.229 102.625Z" fill="#FACD49"/>
<path d="M184.926 111.378L187.207 113.656L195.931 104.919L193.65 102.641L184.926 111.378Z" fill="#FACD49"/>
<path d="M210.157 102.607L207.879 104.888L216.615 113.613L218.894 111.331L210.157 102.607Z" fill="#FACD49"/>
<path d="M207.883 111.371L210.164 113.649L218.888 104.913L216.607 102.635L207.883 111.371Z" fill="#FACD49"/>
<path d="M118.406 124.17L116.128 126.452L124.864 135.176L127.143 132.895L118.406 124.17Z" fill="#FACD49"/>
<path d="M116.129 132.903L118.41 135.181L127.135 126.445L124.853 124.167L116.129 132.903Z" fill="#FACD49"/>
<path d="M141.347 124.14L139.069 126.421L147.806 135.145L150.084 132.864L141.347 124.14Z" fill="#FACD49"/>
<path d="M139.055 132.885L141.336 135.163L150.06 126.426L147.779 124.148L139.055 132.885Z" fill="#FACD49"/>
<path d="M164.293 124.121L162.015 126.402L170.751 135.127L173.029 132.845L164.293 124.121Z" fill="#FACD49"/>
<path d="M161.994 132.878L164.275 135.156L173 126.42L170.718 124.142L161.994 132.878Z" fill="#FACD49"/>
<path d="M187.222 124.103L184.944 126.384L193.681 135.108L195.959 132.827L187.222 124.103Z" fill="#FACD49"/>
<path d="M184.969 132.854L187.25 135.132L195.974 126.396L193.693 124.118L184.969 132.854Z" fill="#FACD49"/>
<path d="M210.18 124.089L207.902 126.371L216.639 135.095L218.917 132.814L210.18 124.089Z" fill="#FACD49"/>
<path d="M207.895 132.835L210.176 135.113L218.9 126.377L216.619 124.099L207.895 132.835Z" fill="#FACD49"/>
<path d="M118.321 11.247L116.043 13.5283L124.78 22.2527L127.058 19.9714L118.321 11.247Z" fill="#FACD49"/>
<path d="M116.043 19.9905L118.324 22.2686L127.049 13.532L124.767 11.2539L116.043 19.9905Z" fill="#FACD49"/>
<path d="M141.262 11.2158L138.984 13.4971L147.721 22.2214L149.999 19.9401L141.262 11.2158Z" fill="#FACD49"/>
<path d="M138.987 19.9714L141.269 22.2495L149.993 13.513L147.712 11.2349L138.987 19.9714Z" fill="#FACD49"/>
<path d="M164.221 11.2094L161.943 13.4907L170.68 22.2151L172.958 19.9338L164.221 11.2094Z" fill="#FACD49"/>
<path d="M161.938 19.9519L164.22 22.23L172.944 13.4934L170.663 11.2153L161.938 19.9519Z" fill="#FACD49"/>
<path d="M187.167 11.209L184.889 13.4902L193.625 22.2146L195.903 19.9333L187.167 11.209Z" fill="#FACD49"/>
<path d="M184.895 19.9284L187.177 22.2065L195.901 13.47L193.62 11.1919L184.895 19.9284Z" fill="#FACD49"/>
<path d="M210.095 11.1904L207.817 13.4717L216.554 22.196L218.832 19.9148L210.095 11.1904Z" fill="#FACD49"/>
<path d="M207.834 19.9221L210.115 22.2002L218.84 13.4636L216.558 11.1856L207.834 19.9221Z" fill="#FACD49"/>
<path d="M118.335 34.3105L116.057 36.5918L124.793 45.3162L127.071 43.0349L118.335 34.3105Z" fill="#FACD49"/>
<path d="M116.061 43.0588L118.343 45.3369L127.067 36.6004L124.786 34.3223L116.061 43.0588Z" fill="#FACD49"/>
<path d="M141.28 34.31L139.002 36.5913L147.738 45.3157L150.017 43.0344L141.28 34.31Z" fill="#FACD49"/>
<path d="M139.018 43.053L141.299 45.3311L150.023 36.5945L147.742 34.3164L139.018 43.053Z" fill="#FACD49"/>
<path d="M164.238 34.2788L161.96 36.5601L170.697 45.2844L172.975 43.0031L164.238 34.2788Z" fill="#FACD49"/>
<path d="M161.943 43.0339L164.225 45.312L172.949 36.5755L170.668 34.2974L161.943 43.0339Z" fill="#FACD49"/>
<path d="M187.18 34.2724L184.902 36.5537L193.639 45.2781L195.917 42.9968L187.18 34.2724Z" fill="#FACD49"/>
<path d="M184.895 43.0149L187.177 45.293L195.901 36.5564L193.62 34.2783L184.895 43.0149Z" fill="#FACD49"/>
<path d="M210.126 34.2719L207.848 36.5532L216.584 45.2776L218.862 42.9963L210.126 34.2719Z" fill="#FACD49"/>
<path d="M207.853 43.009L210.134 45.2871L218.858 36.5506L216.577 34.2725L207.853 43.009Z" fill="#FACD49"/>
<path d="M118.357 55.7934L116.079 58.0747L124.816 66.7991L127.094 64.5178L118.357 55.7934Z" fill="#FACD49"/>
<path d="M116.073 64.5232L118.354 66.8013L127.079 58.0647L124.798 55.7866L116.073 64.5232Z" fill="#FACD49"/>
<path d="M141.303 55.7739L139.025 58.0552L147.762 66.7795L150.04 64.4983L141.303 55.7739Z" fill="#FACD49"/>
<path d="M139.03 64.5163L141.312 66.7944L150.036 58.0579L147.755 55.7798L139.03 64.5163Z" fill="#FACD49"/>
<path d="M164.232 55.7553L161.954 58.0366L170.691 66.761L172.969 64.4797L164.232 55.7553Z" fill="#FACD49"/>
<path d="M161.97 64.51L164.251 66.7881L172.975 58.0515L170.694 55.7734L161.97 64.51Z" fill="#FACD49"/>
<path d="M187.19 55.7417L184.912 58.0229L193.649 66.7473L195.927 64.466L187.19 55.7417Z" fill="#FACD49"/>
<path d="M184.895 64.4909L187.177 66.769L195.901 58.0325L193.62 55.7544L184.895 64.4909Z" fill="#FACD49"/>
<path d="M210.131 55.7363L207.853 58.0176L216.589 66.7419L218.867 64.4607L210.131 55.7363Z" fill="#FACD49"/>
<path d="M207.864 64.4548L210.146 66.7329L218.87 57.9964L216.589 55.7183L207.864 64.4548Z" fill="#FACD49"/>
<path d="M230.907 216.279L228.629 218.561L237.365 227.285L239.644 225.004L230.907 216.279Z" fill="#FACD49"/>
<path d="M228.625 225.018L230.906 227.296L239.631 218.56L237.349 216.282L228.625 225.018Z" fill="#FACD49"/>
<path d="M253.853 216.261L251.575 218.542L260.312 227.266L262.59 224.985L253.853 216.261Z" fill="#FACD49"/>
<path d="M251.582 225.012L253.863 227.29L262.588 218.553L260.306 216.275L251.582 225.012Z" fill="#FACD49"/>
<path d="M276.825 216.26L274.547 218.542L283.283 227.266L285.562 224.985L276.825 216.26Z" fill="#FACD49"/>
<path d="M274.521 224.981L276.803 227.259L285.527 218.523L283.246 216.245L274.521 224.981Z" fill="#FACD49"/>
<path d="M299.752 216.241L297.474 218.522L306.21 227.247L308.488 224.966L299.752 216.241Z" fill="#FACD49"/>
<path d="M297.459 224.974L299.74 227.252L308.465 218.516L306.183 216.238L297.459 224.974Z" fill="#FACD49"/>
<path d="M322.699 216.205L320.421 218.486L329.157 227.211L331.436 224.929L322.699 216.205Z" fill="#FACD49"/>
<path d="M320.436 224.968L322.717 227.246L331.441 218.51L329.16 216.231L320.436 224.968Z" fill="#FACD49"/>
<path d="M230.937 239.361L228.659 241.642L237.396 250.366L239.674 248.085L230.937 239.361Z" fill="#FACD49"/>
<path d="M228.644 248.105L230.925 250.383L239.649 241.646L237.368 239.368L228.644 248.105Z" fill="#FACD49"/>
<path d="M253.865 239.342L251.587 241.624L260.323 250.348L262.602 248.067L253.865 239.342Z" fill="#FACD49"/>
<path d="M251.581 248.099L253.862 250.377L262.587 241.64L260.305 239.362L251.581 248.099Z" fill="#FACD49"/>
<path d="M276.825 239.311L274.547 241.592L283.283 250.317L285.562 248.035L276.825 239.311Z" fill="#FACD49"/>
<path d="M274.526 248.062L276.808 250.34L285.532 241.603L283.251 239.325L274.526 248.062Z" fill="#FACD49"/>
<path d="M299.782 239.305L297.504 241.586L306.24 250.311L308.519 248.029L299.782 239.305Z" fill="#FACD49"/>
<path d="M297.495 248.043L299.776 250.321L308.501 241.585L306.219 239.307L297.495 248.043Z" fill="#FACD49"/>
<path d="M322.711 239.304L320.433 241.585L329.169 250.31L331.447 248.029L322.711 239.304Z" fill="#FACD49"/>
<path d="M320.434 248.037L322.715 250.315L331.439 241.578L329.158 239.3L320.434 248.037Z" fill="#FACD49"/>
<path d="M230.942 260.843L228.664 263.125L237.401 271.849L239.679 269.568L230.942 260.843Z" fill="#FACD49"/>
<path d="M228.655 269.569L230.937 271.847L239.661 263.111L237.38 260.833L228.655 269.569Z" fill="#FACD49"/>
<path d="M253.888 260.807L251.61 263.088L260.347 271.813L262.625 269.531L253.888 260.807Z" fill="#FACD49"/>
<path d="M251.595 269.563L253.876 271.841L262.6 263.104L260.319 260.826L251.595 269.563Z" fill="#FACD49"/>
<path d="M276.835 260.77L274.557 263.052L283.293 271.776L285.571 269.495L276.835 260.77Z" fill="#FACD49"/>
<path d="M274.569 269.539L276.851 271.817L285.575 263.08L283.294 260.802L274.569 269.539Z" fill="#FACD49"/>
<path d="M299.775 260.757L297.497 263.039L306.234 271.763L308.512 269.482L299.775 260.757Z" fill="#FACD49"/>
<path d="M297.495 269.52L299.776 271.798L308.501 263.061L306.219 260.783L297.495 269.52Z" fill="#FACD49"/>
<path d="M322.734 260.769L320.456 263.05L329.193 271.775L331.471 269.493L322.734 260.769Z" fill="#FACD49"/>
<path d="M320.429 269.501L322.71 271.779L331.434 263.043L329.153 260.765L320.429 269.501Z" fill="#FACD49"/>
<path d="M230.876 147.883L228.598 150.165L237.334 158.889L239.612 156.608L230.876 147.883Z" fill="#FACD49"/>
<path d="M228.588 156.655L230.869 158.934L239.593 150.197L237.312 147.919L228.588 156.655Z" fill="#FACD49"/>
<path d="M253.817 147.895L251.539 150.176L260.276 158.901L262.554 156.619L253.817 147.895Z" fill="#FACD49"/>
<path d="M251.541 156.618L253.822 158.896L262.547 150.16L260.265 147.882L251.541 156.618Z" fill="#FACD49"/>
<path d="M276.763 147.876L274.485 150.158L283.222 158.882L285.5 156.601L276.763 147.876Z" fill="#FACD49"/>
<path d="M274.461 156.63L276.742 158.908L285.467 150.172L283.185 147.894L274.461 156.63Z" fill="#FACD49"/>
<path d="M299.691 147.858L297.413 150.139L306.15 158.864L308.428 156.582L299.691 147.858Z" fill="#FACD49"/>
<path d="M297.417 156.606L299.698 158.884L308.423 150.148L306.141 147.87L297.417 156.606Z" fill="#FACD49"/>
<path d="M322.65 147.844L320.372 150.125L329.109 158.85L331.387 156.569L322.65 147.844Z" fill="#FACD49"/>
<path d="M320.361 156.587L322.643 158.865L331.367 150.129L329.086 147.851L320.361 156.587Z" fill="#FACD49"/>
<path d="M230.876 170.978L228.598 173.259L237.334 181.983L239.612 179.702L230.876 170.978Z" fill="#FACD49"/>
<path d="M228.601 179.737L230.882 182.015L239.606 173.278L237.325 171L228.601 179.737Z" fill="#FACD49"/>
<path d="M253.834 170.964L251.556 173.245L260.292 181.969L262.57 179.688L253.834 170.964Z" fill="#FACD49"/>
<path d="M251.544 179.718L253.825 181.996L262.55 173.259L260.268 170.981L251.544 179.718Z" fill="#FACD49"/>
<path d="M276.774 170.958L274.496 173.239L283.233 181.964L285.511 179.682L276.774 170.958Z" fill="#FACD49"/>
<path d="M274.495 179.699L276.776 181.977L285.501 173.241L283.219 170.962L274.495 179.699Z" fill="#FACD49"/>
<path d="M299.72 170.939L297.442 173.221L306.179 181.945L308.457 179.664L299.72 170.939Z" fill="#FACD49"/>
<path d="M297.435 179.693L299.716 181.971L308.44 173.235L306.159 170.957L297.435 179.693Z" fill="#FACD49"/>
<path d="M322.664 170.908L320.386 173.189L329.122 181.914L331.4 179.633L322.664 170.908Z" fill="#FACD49"/>
<path d="M320.38 179.656L322.661 181.934L331.385 173.198L329.104 170.919L320.38 179.656Z" fill="#FACD49"/>
<path d="M230.899 192.459L228.621 194.741L237.358 203.465L239.636 201.184L230.899 192.459Z" fill="#FACD49"/>
<path d="M228.596 201.2L230.877 203.479L239.601 194.742L237.32 192.464L228.596 201.2Z" fill="#FACD49"/>
<path d="M253.84 192.428L251.562 194.709L260.298 203.434L262.576 201.153L253.84 192.428Z" fill="#FACD49"/>
<path d="M251.539 201.182L253.82 203.46L262.545 194.723L260.263 192.445L251.539 201.182Z" fill="#FACD49"/>
<path d="M276.8 192.422L274.521 194.704L283.258 203.428L285.536 201.147L276.8 192.422Z" fill="#FACD49"/>
<path d="M274.509 201.163L276.79 203.441L285.514 194.704L283.233 192.426L274.509 201.163Z" fill="#FACD49"/>
<path d="M299.726 192.404L297.448 194.685L306.185 203.409L308.463 201.128L299.726 192.404Z" fill="#FACD49"/>
<path d="M297.447 201.157L299.729 203.435L308.453 194.699L306.172 192.42L297.447 201.157Z" fill="#FACD49"/>
<path d="M322.674 192.385L320.396 194.667L329.132 203.391L331.41 201.11L322.674 192.385Z" fill="#FACD49"/>
<path d="M320.404 201.133L322.686 203.411L331.41 194.674L329.129 192.396L320.404 201.133Z" fill="#FACD49"/>
<path d="M230.828 79.5483L228.55 81.8296L237.286 90.5539L239.564 88.2727L230.828 79.5483Z" fill="#FACD49"/>
<path d="M228.541 88.2746L230.822 90.5527L239.547 81.8162L237.265 79.5381L228.541 88.2746Z" fill="#FACD49"/>
<path d="M253.756 79.5117L251.478 81.793L260.214 90.5173L262.492 88.236L253.756 79.5117Z" fill="#FACD49"/>
<path d="M251.479 88.2688L253.761 90.5469L262.485 81.8103L260.204 79.5322L251.479 88.2688Z" fill="#FACD49"/>
<path d="M276.715 79.498L274.437 81.7793L283.173 90.5037L285.451 88.2224L276.715 79.498Z" fill="#FACD49"/>
<path d="M274.441 88.2493L276.723 90.5273L285.447 81.7908L283.166 79.5127L274.441 88.2493Z" fill="#FACD49"/>
<path d="M299.66 79.4795L297.382 81.7607L306.118 90.4851L308.396 88.2038L299.66 79.4795Z" fill="#FACD49"/>
<path d="M297.38 88.2429L299.661 90.521L308.385 81.7844L306.104 79.5064L297.38 88.2429Z" fill="#FACD49"/>
<path d="M322.606 79.4785L320.328 81.7598L329.065 90.4841L331.343 88.2028L322.606 79.4785Z" fill="#FACD49"/>
<path d="M320.301 88.2365L322.582 90.5146L331.306 81.7781L329.025 79.5L320.301 88.2365Z" fill="#FACD49"/>
<path d="M230.841 102.612L228.562 104.893L237.299 113.617L239.577 111.336L230.841 102.612Z" fill="#FACD49"/>
<path d="M228.559 111.362L230.84 113.64L239.564 104.903L237.283 102.625L228.559 111.362Z" fill="#FACD49"/>
<path d="M253.786 102.593L251.508 104.874L260.244 113.598L262.522 111.317L253.786 102.593Z" fill="#FACD49"/>
<path d="M251.515 111.337L253.796 113.615L262.52 104.878L260.239 102.6L251.515 111.337Z" fill="#FACD49"/>
<path d="M276.732 102.592L274.454 104.874L283.191 113.598L285.469 111.317L276.732 102.592Z" fill="#FACD49"/>
<path d="M274.437 111.331L276.718 113.609L285.442 104.872L283.161 102.594L274.437 111.331Z" fill="#FACD49"/>
<path d="M299.673 102.561L297.395 104.842L306.131 113.567L308.409 111.285L299.673 102.561Z" fill="#FACD49"/>
<path d="M297.38 111.312L299.661 113.59L308.385 104.853L306.104 102.575L297.38 111.312Z" fill="#FACD49"/>
<path d="M322.62 102.542L320.342 104.824L329.078 113.548L331.356 111.267L322.62 102.542Z" fill="#FACD49"/>
<path d="M320.337 111.305L322.618 113.583L331.343 104.847L329.061 102.569L320.337 111.305Z" fill="#FACD49"/>
<path d="M230.863 124.076L228.585 126.357L237.322 135.082L239.6 132.801L230.863 124.076Z" fill="#FACD49"/>
<path d="M228.589 132.807L230.87 135.085L239.594 126.349L237.313 124.071L228.589 132.807Z" fill="#FACD49"/>
<path d="M253.81 124.075L251.532 126.356L260.269 135.081L262.547 132.8L253.81 124.075Z" fill="#FACD49"/>
<path d="M251.528 132.801L253.81 135.079L262.534 126.343L260.253 124.064L251.528 132.801Z" fill="#FACD49"/>
<path d="M276.737 124.074L274.459 126.355L283.196 135.08L285.474 132.799L276.737 124.074Z" fill="#FACD49"/>
<path d="M274.448 132.813L276.729 135.091L285.454 126.354L283.173 124.076L274.448 132.813Z" fill="#FACD49"/>
<path d="M299.696 124.026L297.418 126.307L306.155 135.031L308.433 132.75L299.696 124.026Z" fill="#FACD49"/>
<path d="M297.393 132.776L299.674 135.054L308.398 126.318L306.117 124.04L297.393 132.776Z" fill="#FACD49"/>
<path d="M322.626 124.024L320.348 126.306L329.084 135.03L331.362 132.749L322.626 124.024Z" fill="#FACD49"/>
<path d="M320.351 132.769L322.632 135.047L331.356 126.311L329.075 124.033L320.351 132.769Z" fill="#FACD49"/>
<path d="M230.784 11.1816L228.506 13.4629L237.242 22.1872L239.52 19.906L230.784 11.1816Z" fill="#FACD49"/>
<path d="M228.498 19.9236L230.779 22.2017L239.504 13.4651L237.222 11.187L228.498 19.9236Z" fill="#FACD49"/>
<path d="M253.725 11.1508L251.447 13.4321L260.184 22.1565L262.462 19.8752L253.725 11.1508Z" fill="#FACD49"/>
<path d="M251.442 19.8874L253.724 22.1655L262.448 13.429L260.167 11.1509L251.442 19.8874Z" fill="#FACD49"/>
<path d="M276.653 11.1323L274.375 13.4136L283.112 22.1379L285.39 19.8567L276.653 11.1323Z" fill="#FACD49"/>
<path d="M274.381 19.8811L276.662 22.1592L285.386 13.4226L283.105 11.1445L274.381 19.8811Z" fill="#FACD49"/>
<path d="M299.599 11.1133L297.321 13.3945L306.058 22.1189L308.336 19.8376L299.599 11.1133Z" fill="#FACD49"/>
<path d="M297.338 19.8743L299.619 22.1523L308.343 13.4158L306.062 11.1377L297.338 19.8743Z" fill="#FACD49"/>
<path d="M322.571 11.1128L320.293 13.394L329.03 22.1184L331.308 19.8371L322.571 11.1128Z" fill="#FACD49"/>
<path d="M320.295 19.8254L322.576 22.1035L331.301 13.367L329.019 11.0889L320.295 19.8254Z" fill="#FACD49"/>
<path d="M230.797 34.2456L228.519 36.5269L237.255 45.2512L239.533 42.9699L230.797 34.2456Z" fill="#FACD49"/>
<path d="M228.516 42.9924L230.797 45.2705L239.521 36.534L237.24 34.2559L228.516 42.9924Z" fill="#FACD49"/>
<path d="M253.756 34.2324L251.478 36.5137L260.214 45.238L262.492 42.9568L253.756 34.2324Z" fill="#FACD49"/>
<path d="M251.442 42.9739L253.724 45.252L262.448 36.5154L260.167 34.2373L251.442 42.9739Z" fill="#FACD49"/>
<path d="M276.666 34.1958L274.388 36.4771L283.124 45.2014L285.402 42.9201L276.666 34.1958Z" fill="#FACD49"/>
<path d="M274.399 42.9675L276.681 45.2456L285.405 36.5091L283.124 34.231L274.399 42.9675Z" fill="#FACD49"/>
<path d="M299.612 34.1948L297.334 36.4761L306.071 45.2004L308.349 42.9191L299.612 34.1948Z" fill="#FACD49"/>
<path d="M297.356 42.9431L299.638 45.2212L308.362 36.4846L306.081 34.2065L297.356 42.9431Z" fill="#FACD49"/>
<path d="M322.557 34.1943L320.279 36.4756L329.016 45.1999L331.294 42.9187L322.557 34.1943Z" fill="#FACD49"/>
<path d="M320.276 42.9553L322.558 45.2334L331.282 36.4969L329.001 34.2187L320.276 42.9553Z" fill="#FACD49"/>
<path d="M230.803 55.7099L228.524 57.9912L237.261 66.7156L239.539 64.4343L230.803 55.7099Z" fill="#FACD49"/>
<path d="M228.529 64.4563L230.811 66.7344L239.535 57.9978L237.254 55.7197L228.529 64.4563Z" fill="#FACD49"/>
<path d="M253.749 55.709L251.471 57.9902L260.207 66.7146L262.485 64.4333L253.749 55.709Z" fill="#FACD49"/>
<path d="M251.468 64.4499L253.749 66.728L262.473 57.9915L260.192 55.7134L251.468 64.4499Z" fill="#FACD49"/>
<path d="M276.689 55.6601L274.411 57.9414L283.148 66.6658L285.426 64.3845L276.689 55.6601Z" fill="#FACD49"/>
<path d="M274.43 64.4138L276.711 66.6919L285.435 57.9553L283.154 55.6772L274.43 64.4138Z" fill="#FACD49"/>
<path d="M299.636 55.6596L297.358 57.9409L306.095 66.6653L308.373 64.384L299.636 55.6596Z" fill="#FACD49"/>
<path d="M297.351 64.4075L299.632 66.6855L308.356 57.949L306.075 55.6709L297.351 64.4075Z" fill="#FACD49"/>
<path d="M322.582 55.6587L320.304 57.9399L329.04 66.6643L331.318 64.383L322.582 55.6587Z" fill="#FACD49"/>
<path d="M320.289 64.4192L322.57 66.6973L331.295 57.9607L329.013 55.6826L320.289 64.4192Z" fill="#FACD49"/>
<path d="M346.985 216.209L344.707 218.49L353.444 227.215L355.722 224.933L346.985 216.209Z" fill="#FACD49"/>
<path d="M344.687 224.932L346.969 227.21L355.693 218.474L353.412 216.196L344.687 224.932Z" fill="#FACD49"/>
<path d="M346.986 239.285L344.708 241.566L353.445 250.291L355.723 248.009L346.986 239.285Z" fill="#FACD49"/>
<path d="M344.7 248.031L346.981 250.309L355.706 241.573L353.424 239.294L344.7 248.031Z" fill="#FACD49"/>
<path d="M346.991 260.749L344.713 263.031L353.449 271.755L355.728 269.474L346.991 260.749Z" fill="#FACD49"/>
<path d="M344.713 269.495L346.994 271.773L355.718 263.037L353.437 260.759L344.713 269.495Z" fill="#FACD49"/>
<path d="M346.924 147.825L344.646 150.106L353.382 158.83L355.66 156.549L346.924 147.825Z" fill="#FACD49"/>
<path d="M344.627 156.581L346.908 158.859L355.633 150.123L353.351 147.845L344.627 156.581Z" fill="#FACD49"/>
<path d="M346.936 170.906L344.658 173.188L353.395 181.912L355.673 179.631L346.936 170.906Z" fill="#FACD49"/>
<path d="M344.663 179.65L346.944 181.928L355.669 173.192L353.387 170.914L344.663 179.65Z" fill="#FACD49"/>
<path d="M346.961 192.371L344.683 194.652L353.419 203.376L355.697 201.095L346.961 192.371Z" fill="#FACD49"/>
<path d="M344.676 201.114L346.957 203.392L355.681 194.656L353.4 192.377L344.676 201.114Z" fill="#FACD49"/>
<path d="M346.863 79.4585L344.585 81.7397L353.322 90.4641L355.6 88.1828L346.863 79.4585Z" fill="#FACD49"/>
<path d="M344.585 88.2121L346.866 90.4902L355.591 81.7537L353.309 79.4756L344.585 88.2121Z" fill="#FACD49"/>
<path d="M346.876 102.541L344.598 104.822L353.334 113.546L355.612 111.265L346.876 102.541Z" fill="#FACD49"/>
<path d="M344.585 111.3L346.866 113.578L355.591 104.841L353.309 102.563L344.585 111.3Z" fill="#FACD49"/>
<path d="M346.899 124.005L344.621 126.286L353.358 135.01L355.636 132.729L346.899 124.005Z" fill="#FACD49"/>
<path d="M344.598 132.763L346.879 135.042L355.603 126.305L353.322 124.027L344.598 132.763Z" fill="#FACD49"/>
<path d="M346.827 11.0932L344.549 13.3745L353.285 22.0989L355.563 19.8176L346.827 11.0932Z" fill="#FACD49"/>
<path d="M344.542 19.8376L346.823 22.1157L355.548 13.3792L353.266 11.1011L344.542 19.8376Z" fill="#FACD49"/>
<path d="M346.857 34.1748L344.579 36.4561L353.316 45.1804L355.594 42.8991L346.857 34.1748Z" fill="#FACD49"/>
<path d="M344.56 42.906L346.841 45.1841L355.565 36.4475L353.284 34.1694L344.56 42.906Z" fill="#FACD49"/>
<path d="M346.863 55.6391L344.585 57.9204L353.322 66.6448L355.6 64.3635L346.863 55.6391Z" fill="#FACD49"/>
<path d="M344.572 64.3698L346.854 66.6479L355.578 57.9114L353.297 55.6333L344.572 64.3698Z" fill="#FACD49"/>
</g>
<path d="M125.062 0H120.456V11.5142H125.062V0Z" fill="#FF5722"/>
<path d="M125.062 0H120.456V11.5142H125.062V0Z" fill="#FF5722"/>
<path d="M125.062 190.001H120.456V201.516H125.062V190.001Z" fill="#FF5722"/>
<path d="M33.5151 98.4551H22.001V103.061H33.5151V98.4551Z" fill="#FF5722"/>
<path d="M33.5151 98.4551H22.001V103.061H33.5151V98.4551Z" fill="#FF5722"/>
<path d="M223.516 98.4551H212.002V103.061H223.516V98.4551Z" fill="#FF5722"/>
<path d="M53.1551 27.8825L49.8984 31.1392L58.0402 39.2809L61.2969 36.0242L53.1551 27.8825Z" fill="#FF5722"/>
<path d="M53.1551 27.8825L49.8984 31.1392L58.0402 39.2809L61.2969 36.0242L53.1551 27.8825Z" fill="#FF5722"/>
<path d="M187.488 162.244L184.231 165.501L192.373 173.643L195.63 170.386L187.488 162.244Z" fill="#FF5722"/>
<path d="M58.03 162.228L49.8896 170.372L53.1469 173.628L61.2872 165.485L58.03 162.228Z" fill="#FF5722"/>
<path d="M58.03 162.228L49.8896 170.372L53.1469 173.628L61.2872 165.485L58.03 162.228Z" fill="#FF5722"/>
<path d="M192.376 27.8778L184.235 36.021L187.493 39.2771L195.633 31.134L192.376 27.8778Z" fill="#FF5722"/>
<path d="M102.044 2.12837L97.5596 3.17773L100.183 14.3891L104.668 13.3397L102.044 2.12837Z" fill="#FF5722"/>
<path d="M102.044 2.12837L97.5596 3.17773L100.183 14.3891L104.668 13.3397L102.044 2.12837Z" fill="#FF5722"/>
<path d="M145.341 187.139L140.856 188.188L143.48 199.399L147.964 198.35L145.341 187.139Z" fill="#FF5722"/>
<path d="M35.3481 118.848L24.1377 121.476L25.1886 125.96L36.399 123.332L35.3481 118.848Z" fill="#FF5722"/>
<path d="M35.3481 118.848L24.1377 121.476L25.1886 125.96L36.399 123.332L35.3481 118.848Z" fill="#FF5722"/>
<path d="M220.346 75.566L209.135 78.1914L210.185 82.6757L221.396 80.0504L220.346 75.566Z" fill="#FF5722"/>
<path d="M38.3737 45.6651L35.9453 49.5786L45.729 55.6495L48.1573 51.736L38.3737 45.6651Z" fill="#FF5722"/>
<path d="M38.3737 45.6651L35.9453 49.5786L45.729 55.6495L48.1573 51.736L38.3737 45.6651Z" fill="#FF5722"/>
<path d="M199.798 145.852L197.37 149.766L207.154 155.836L209.582 151.923L199.798 145.852Z" fill="#FF5722"/>
<path d="M73.7562 175.359L67.6836 185.142L71.5966 187.571L77.6692 177.788L73.7562 175.359Z" fill="#FF5722"/>
<path d="M73.7562 175.359L67.6836 185.142L71.5966 187.571L77.6692 177.788L73.7562 175.359Z" fill="#FF5722"/>
<path d="M173.922 13.9278L167.85 23.7104L171.763 26.1395L177.835 16.3569L173.922 13.9278Z" fill="#FF5722"/>
<path d="M87.7368 6.24221L83.4561 7.94141L87.704 18.6433L91.9848 16.9441L87.7368 6.24221Z" fill="#FF5722"/>
<path d="M87.7368 6.24221L83.4561 7.94141L87.704 18.6433L91.9848 16.9441L87.7368 6.24221Z" fill="#FF5722"/>
<path d="M157.818 182.855L153.537 184.554L157.785 195.256L162.066 193.557L157.818 182.855Z" fill="#FF5722"/>
<path d="M38.9568 131.525L28.2549 135.773L29.9541 140.054L40.656 135.806L38.9568 131.525Z" fill="#FF5722"/>
<path d="M38.9568 131.525L28.2549 135.773L29.9541 140.054L40.656 135.806L38.9568 131.525Z" fill="#FF5722"/>
<path d="M215.569 61.4444L204.867 65.6924L206.566 69.9731L217.268 65.7252L215.569 61.4444Z" fill="#FF5722"/>
<path d="M31.1768 58.6986L29.3506 62.9268L39.921 67.4922L41.7471 63.2641L31.1768 58.6986Z" fill="#FF5722"/>
<path d="M31.1768 58.6986L29.3506 62.9268L39.921 67.4922L41.7471 63.2641L31.1768 58.6986Z" fill="#FF5722"/>
<path d="M205.623 134.038L203.797 138.267L214.367 142.832L216.193 138.604L205.623 134.038Z" fill="#FF5722"/>
<path d="M85.2824 181.792L80.7188 192.363L84.9472 194.189L89.5108 183.618L85.2824 181.792Z" fill="#FF5722"/>
<path d="M85.2824 181.792L80.7188 192.363L84.9472 194.189L89.5108 183.618L85.2824 181.792Z" fill="#FF5722"/>
<path d="M160.582 7.34387L156.019 17.915L160.247 19.7405L164.811 9.16932L160.582 7.34387Z" fill="#FF5722"/>
<path d="M67.1248 16.7266L63.3438 19.3564L69.9183 28.809L73.6994 26.1792L67.1248 16.7266Z" fill="#FF5722"/>
<path d="M67.1248 16.7266L63.3438 19.3564L69.9183 28.809L73.6994 26.1792L67.1248 16.7266Z" fill="#FF5722"/>
<path d="M175.615 172.698L171.834 175.328L178.409 184.78L182.19 182.15L175.615 172.698Z" fill="#FF5722"/>
<path d="M48.186 149.817L38.7334 156.392L41.3632 160.173L50.8158 153.599L48.186 149.817Z" fill="#FF5722"/>
<path d="M48.186 149.817L38.7334 156.392L41.3632 160.173L50.8158 153.599L48.186 149.817Z" fill="#FF5722"/>
<path d="M204.17 41.3512L194.718 47.9258L197.348 51.7068L206.8 45.1322L204.17 41.3512Z" fill="#FF5722"/>
<path d="M23.9927 80.6768L23.1787 85.21L34.5116 87.245L35.3256 82.7118L23.9927 80.6768Z" fill="#FF5722"/>
<path d="M23.9927 80.6768L23.1787 85.21L34.5116 87.245L35.3256 82.7118L23.9927 80.6768Z" fill="#FF5722"/>
<path d="M211.019 114.268L210.205 118.801L221.538 120.836L222.352 116.303L211.019 114.268Z" fill="#FF5722"/>
<path d="M104.732 188.187L102.699 199.52L107.233 200.333L109.266 189L104.732 188.187Z" fill="#FF5722"/>
<path d="M104.732 188.187L102.699 199.52L107.233 200.333L109.266 189L104.732 188.187Z" fill="#FF5722"/>
<path d="M138.295 1.17163L136.262 12.5049L140.795 13.3181L142.828 1.98485L138.295 1.17163Z" fill="#FF5722"/>
</g>
<defs>
<clipPath id="clip0_1116_6990">
<rect width="447.511" height="272" fill="white"/>
</clipPath>
</defs>
</svg>
