<svg width="32" height="17" viewBox="0 0 32 17" fill="none" xmlns="http://www.w3.org/2000/svg">
<path d="M27.4561 10.0359C27.0721 10.0359 26.7147 9.99321 26.3841 9.90788L25.7921 10.4999C25.9734 10.5959 26.2187 10.6759 26.5281 10.7399C26.8374 10.8039 27.3387 10.8679 28.0321 10.9319C29.0881 11.0279 29.8561 11.2785 30.3361 11.6839C30.8161 12.0892 31.0561 12.6492 31.0561 13.3639C31.0561 13.8332 30.9281 14.2759 30.6721 14.6919C30.4161 15.1185 30.0214 15.4599 29.4881 15.7159C28.9547 15.9825 28.2721 16.1159 27.4401 16.1159C26.3094 16.1159 25.3974 15.9025 24.7041 15.4759C24.0107 15.0599 23.6641 14.4305 23.6641 13.5879C23.6641 12.8732 24.0107 12.2545 24.7041 11.7319C24.4907 11.6359 24.3041 11.5345 24.1441 11.4279C23.9947 11.3212 23.8614 11.2092 23.7441 11.0919V10.7239L25.1361 9.25188C24.5174 8.70788 24.2081 8.00921 24.2081 7.15588C24.2081 6.62255 24.3361 6.13721 24.5921 5.69988C24.8587 5.26255 25.2321 4.91588 25.7121 4.65988C26.1921 4.40388 26.7734 4.27588 27.4561 4.27588C27.9041 4.27588 28.3201 4.33988 28.7041 4.46788H31.7121V5.71588L30.3521 5.81188C30.5654 6.21721 30.6721 6.66521 30.6721 7.15588C30.6721 7.68921 30.5441 8.17455 30.2881 8.61188C30.0321 9.04921 29.6587 9.39588 29.1681 9.65188C28.6881 9.90788 28.1174 10.0359 27.4561 10.0359ZM27.4561 8.46788C27.8721 8.46788 28.2134 8.35588 28.4801 8.13188C28.7574 7.90788 28.8961 7.58788 28.8961 7.17188C28.8961 6.75588 28.7574 6.43588 28.4801 6.21188C28.2134 5.98788 27.8721 5.87588 27.4561 5.87588C27.0187 5.87588 26.6667 5.98788 26.4001 6.21188C26.1334 6.43588 26.0001 6.75588 26.0001 7.17188C26.0001 7.58788 26.1334 7.90788 26.4001 8.13188C26.6667 8.35588 27.0187 8.46788 27.4561 8.46788ZM25.5361 13.3799C25.5361 13.7745 25.7174 14.0679 26.0801 14.2599C26.4534 14.4625 26.9067 14.5639 27.4401 14.5639C27.9521 14.5639 28.3681 14.4572 28.6881 14.2439C29.0081 14.0412 29.1681 13.7639 29.1681 13.4119C29.1681 13.1239 29.0614 12.8839 28.8481 12.6919C28.6454 12.4999 28.2347 12.3825 27.6161 12.3399C27.1787 12.3079 26.7734 12.2599 26.4001 12.1959C26.0907 12.3665 25.8667 12.5532 25.7281 12.7559C25.6001 12.9585 25.5361 13.1665 25.5361 13.3799Z" fill="#777E91"/>
<path d="M18.7017 12.5959C17.9337 12.5959 17.2404 12.4199 16.6217 12.0679C16.0137 11.7159 15.5284 11.2305 15.1657 10.6119C14.8137 9.98255 14.6377 9.25721 14.6377 8.43588C14.6377 7.61455 14.819 6.89455 15.1817 6.27588C15.5444 5.64655 16.0297 5.15588 16.6377 4.80388C17.2564 4.45188 17.9497 4.27588 18.7177 4.27588C19.475 4.27588 20.1577 4.45188 20.7657 4.80388C21.3844 5.15588 21.8697 5.64655 22.2217 6.27588C22.5844 6.89455 22.7657 7.61455 22.7657 8.43588C22.7657 9.25721 22.5844 9.98255 22.2217 10.6119C21.8697 11.2305 21.3844 11.7159 20.7657 12.0679C20.147 12.4199 19.459 12.5959 18.7017 12.5959ZM18.7017 10.8199C19.235 10.8199 19.699 10.6225 20.0937 10.2279C20.4884 9.82255 20.6857 9.22521 20.6857 8.43588C20.6857 7.64655 20.4884 7.05455 20.0937 6.65988C19.699 6.25455 19.2404 6.05188 18.7177 6.05188C18.1737 6.05188 17.7044 6.25455 17.3097 6.65988C16.9257 7.05455 16.7337 7.64655 16.7337 8.43588C16.7337 9.22521 16.9257 9.82255 17.3097 10.2279C17.7044 10.6225 18.1684 10.8199 18.7017 10.8199Z" fill="#777E91"/>
<path d="M10.7529 12.4038V0.883789H12.8009V12.4038H10.7529Z" fill="#777E91"/>
<path d="M0.707031 12.4036V1.20361H5.20303C6.3657 1.20361 7.25103 1.47561 7.85903 2.01961C8.4777 2.55295 8.78703 3.24095 8.78703 4.08361C8.78703 4.78761 8.59503 5.35295 8.21103 5.77961C7.8377 6.19561 7.37903 6.47828 6.83503 6.62761C7.47503 6.75561 8.00303 7.07561 8.41903 7.58761C8.83503 8.08895 9.04303 8.67561 9.04303 9.34761C9.04303 10.2329 8.72303 10.9636 8.08303 11.5396C7.44303 12.1156 6.53636 12.4036 5.36303 12.4036H0.707031ZM2.75503 5.90761H4.89903C5.47503 5.90761 5.9177 5.77428 6.22703 5.50761C6.53637 5.24095 6.69103 4.86228 6.69103 4.37161C6.69103 3.90228 6.53637 3.53428 6.22703 3.26761C5.92837 2.99028 5.47503 2.85161 4.86703 2.85161H2.75503V5.90761ZM2.75503 10.7396H5.04303C5.65103 10.7396 6.12037 10.6009 6.45103 10.3236C6.79237 10.0356 6.96303 9.63561 6.96303 9.12361C6.96303 8.60095 6.78703 8.19028 6.43503 7.89161C6.08303 7.59295 5.60836 7.44361 5.01103 7.44361H2.75503V10.7396Z" fill="#777E91"/>
</svg>
