<svg width="32" height="16" viewBox="0 0 32 16" fill="none" xmlns="http://www.w3.org/2000/svg">
<path d="M27.4502 9.53832C27.0662 9.53832 26.7089 9.49565 26.3782 9.41032L25.7862 10.0023C25.9675 10.0983 26.2129 10.1783 26.5222 10.2423C26.8315 10.3063 27.3329 10.3703 28.0262 10.4343C29.0822 10.5303 29.8502 10.781 30.3302 11.1863C30.8102 11.5917 31.0502 12.1517 31.0502 12.8663C31.0502 13.3357 30.9222 13.7783 30.6662 14.1943C30.4102 14.621 30.0155 14.9623 29.4822 15.2183C28.9489 15.485 28.2662 15.6183 27.4342 15.6183C26.3035 15.6183 25.3915 15.405 24.6982 14.9783C24.0049 14.5623 23.6582 13.933 23.6582 13.0903C23.6582 12.3757 24.0049 11.757 24.6982 11.2343C24.4849 11.1383 24.2982 11.037 24.1382 10.9303C23.9889 10.8237 23.8555 10.7117 23.7382 10.5943V10.2263L25.1302 8.75432C24.5115 8.21032 24.2022 7.51165 24.2022 6.65832C24.2022 6.12499 24.3302 5.63965 24.5862 5.20232C24.8529 4.76499 25.2262 4.41832 25.7062 4.16232C26.1862 3.90632 26.7675 3.77832 27.4502 3.77832C27.8982 3.77832 28.3142 3.84232 28.6982 3.97032H31.7062V5.21832L30.3462 5.31432C30.5595 5.71965 30.6662 6.16765 30.6662 6.65832C30.6662 7.19165 30.5382 7.67699 30.2822 8.11432C30.0262 8.55165 29.6529 8.89832 29.1622 9.15432C28.6822 9.41032 28.1115 9.53832 27.4502 9.53832ZM27.4502 7.97032C27.8662 7.97032 28.2075 7.85832 28.4742 7.63432C28.7515 7.41032 28.8902 7.09032 28.8902 6.67432C28.8902 6.25832 28.7515 5.93832 28.4742 5.71432C28.2075 5.49032 27.8662 5.37832 27.4502 5.37832C27.0129 5.37832 26.6609 5.49032 26.3942 5.71432C26.1275 5.93832 25.9942 6.25832 25.9942 6.67432C25.9942 7.09032 26.1275 7.41032 26.3942 7.63432C26.6609 7.85832 27.0129 7.97032 27.4502 7.97032ZM25.5302 12.8823C25.5302 13.277 25.7115 13.5703 26.0742 13.7623C26.4475 13.965 26.9009 14.0663 27.4342 14.0663C27.9462 14.0663 28.3622 13.9597 28.6822 13.7463C29.0022 13.5437 29.1622 13.2663 29.1622 12.9143C29.1622 12.6263 29.0555 12.3863 28.8422 12.1943C28.6395 12.0023 28.2289 11.885 27.6102 11.8423C27.1729 11.8103 26.7675 11.7623 26.3942 11.6983C26.0849 11.869 25.8609 12.0557 25.7222 12.2583C25.5942 12.461 25.5302 12.669 25.5302 12.8823Z" fill="#777E91"/>
<path d="M18.6949 12.0983C17.9269 12.0983 17.2335 11.9223 16.6149 11.5703C16.0069 11.2183 15.5215 10.733 15.1589 10.1143C14.8069 9.48499 14.6309 8.75965 14.6309 7.93832C14.6309 7.11699 14.8122 6.39699 15.1749 5.77832C15.5375 5.14899 16.0229 4.65832 16.6309 4.30632C17.2495 3.95432 17.9429 3.77832 18.7109 3.77832C19.4682 3.77832 20.1509 3.95432 20.7589 4.30632C21.3775 4.65832 21.8629 5.14899 22.2149 5.77832C22.5775 6.39699 22.7589 7.11699 22.7589 7.93832C22.7589 8.75965 22.5775 9.48499 22.2149 10.1143C21.8629 10.733 21.3775 11.2183 20.7589 11.5703C20.1402 11.9223 19.4522 12.0983 18.6949 12.0983ZM18.6949 10.3223C19.2282 10.3223 19.6922 10.125 20.0869 9.73032C20.4815 9.32499 20.6789 8.72765 20.6789 7.93832C20.6789 7.14899 20.4815 6.55699 20.0869 6.16232C19.6922 5.75699 19.2335 5.55432 18.7109 5.55432C18.1669 5.55432 17.6975 5.75699 17.3029 6.16232C16.9189 6.55699 16.7269 7.14899 16.7269 7.93832C16.7269 8.72765 16.9189 9.32499 17.3029 9.73032C17.6975 10.125 18.1615 10.3223 18.6949 10.3223Z" fill="#777E91"/>
<path d="M10.7461 11.9067V0.386719H12.7941V11.9067H10.7461Z" fill="#777E91"/>
<path d="M0.701172 11.907V0.707031H5.19717C6.35984 0.707031 7.24517 0.979031 7.85317 1.52303C8.47184 2.05636 8.78117 2.74436 8.78117 3.58703C8.78117 4.29103 8.58917 4.85636 8.20517 5.28303C7.83184 5.69903 7.37317 5.9817 6.82917 6.13103C7.46917 6.25903 7.99717 6.57903 8.41317 7.09103C8.82917 7.59237 9.03717 8.17903 9.03717 8.85103C9.03717 9.73637 8.71717 10.467 8.07717 11.043C7.43717 11.619 6.53051 11.907 5.35717 11.907H0.701172ZM2.74917 5.41103H4.89317C5.46917 5.41103 5.91184 5.2777 6.22117 5.01103C6.53051 4.74436 6.68517 4.3657 6.68517 3.87503C6.68517 3.4057 6.53051 3.0377 6.22117 2.77103C5.92251 2.4937 5.46917 2.35503 4.86117 2.35503H2.74917V5.41103ZM2.74917 10.243H5.03717C5.64517 10.243 6.11451 10.1044 6.44517 9.82703C6.78651 9.53903 6.95717 9.13903 6.95717 8.62703C6.95717 8.10436 6.78117 7.6937 6.42917 7.39503C6.07717 7.09637 5.60251 6.94703 5.00517 6.94703H2.74917V10.243Z" fill="#777E91"/>
</svg>
