<svg width="32" height="16" viewBox="0 0 32 16" fill="none" xmlns="http://www.w3.org/2000/svg">
<path d="M27.4561 9.54027C27.0721 9.54027 26.7147 9.49761 26.3841 9.41227L25.7921 10.0043C25.9734 10.1003 26.2187 10.1803 26.5281 10.2443C26.8374 10.3083 27.3387 10.3723 28.0321 10.4363C29.0881 10.5323 29.8561 10.7829 30.3361 11.1883C30.8161 11.5936 31.0561 12.1536 31.0561 12.8683C31.0561 13.3376 30.9281 13.7803 30.6721 14.1963C30.4161 14.6229 30.0214 14.9643 29.4881 15.2203C28.9547 15.4869 28.2721 15.6203 27.4401 15.6203C26.3094 15.6203 25.3974 15.4069 24.7041 14.9803C24.0107 14.5643 23.6641 13.9349 23.6641 13.0923C23.6641 12.3776 24.0107 11.7589 24.7041 11.2363C24.4907 11.1403 24.3041 11.0389 24.1441 10.9323C23.9947 10.8256 23.8614 10.7136 23.7441 10.5963V10.2283L25.1361 8.75627C24.5174 8.21227 24.2081 7.51361 24.2081 6.66027C24.2081 6.12694 24.3361 5.64161 24.5921 5.20427C24.8587 4.76694 25.2321 4.42027 25.7121 4.16427C26.1921 3.90827 26.7734 3.78027 27.4561 3.78027C27.9041 3.78027 28.3201 3.84427 28.7041 3.97227H31.7121V5.22027L30.3521 5.31627C30.5654 5.72161 30.6721 6.16961 30.6721 6.66027C30.6721 7.19361 30.5441 7.67894 30.2881 8.11627C30.0321 8.55361 29.6587 8.90027 29.1681 9.15627C28.6881 9.41227 28.1174 9.54027 27.4561 9.54027ZM27.4561 7.97227C27.8721 7.97227 28.2134 7.86027 28.4801 7.63627C28.7574 7.41227 28.8961 7.09227 28.8961 6.67627C28.8961 6.26027 28.7574 5.94027 28.4801 5.71627C28.2134 5.49227 27.8721 5.38027 27.4561 5.38027C27.0187 5.38027 26.6667 5.49227 26.4001 5.71627C26.1334 5.94027 26.0001 6.26027 26.0001 6.67627C26.0001 7.09227 26.1334 7.41227 26.4001 7.63627C26.6667 7.86027 27.0187 7.97227 27.4561 7.97227ZM25.5361 12.8843C25.5361 13.2789 25.7174 13.5723 26.0801 13.7643C26.4534 13.9669 26.9067 14.0683 27.4401 14.0683C27.9521 14.0683 28.3681 13.9616 28.6881 13.7483C29.0081 13.5456 29.1681 13.2683 29.1681 12.9163C29.1681 12.6283 29.0614 12.3883 28.8481 12.1963C28.6454 12.0043 28.2347 11.8869 27.6161 11.8443C27.1787 11.8123 26.7734 11.7643 26.4001 11.7003C26.0907 11.8709 25.8667 12.0576 25.7281 12.2603C25.6001 12.4629 25.5361 12.6709 25.5361 12.8843Z" fill="#777E91"/>
<path d="M18.7017 12.1003C17.9337 12.1003 17.2404 11.9243 16.6217 11.5723C16.0137 11.2203 15.5284 10.7349 15.1657 10.1163C14.8137 9.48694 14.6377 8.76161 14.6377 7.94027C14.6377 7.11894 14.819 6.39894 15.1817 5.78027C15.5444 5.15094 16.0297 4.66027 16.6377 4.30827C17.2564 3.95627 17.9497 3.78027 18.7177 3.78027C19.475 3.78027 20.1577 3.95627 20.7657 4.30827C21.3844 4.66027 21.8697 5.15094 22.2217 5.78027C22.5844 6.39894 22.7657 7.11894 22.7657 7.94027C22.7657 8.76161 22.5844 9.48694 22.2217 10.1163C21.8697 10.7349 21.3844 11.2203 20.7657 11.5723C20.147 11.9243 19.459 12.1003 18.7017 12.1003ZM18.7017 10.3243C19.235 10.3243 19.699 10.1269 20.0937 9.73227C20.4884 9.32694 20.6857 8.72961 20.6857 7.94027C20.6857 7.15094 20.4884 6.55894 20.0937 6.16427C19.699 5.75894 19.2404 5.55627 18.7177 5.55627C18.1737 5.55627 17.7044 5.75894 17.3097 6.16427C16.9257 6.55894 16.7337 7.15094 16.7337 7.94027C16.7337 8.72961 16.9257 9.32694 17.3097 9.73227C17.7044 10.1269 18.1684 10.3243 18.7017 10.3243Z" fill="#777E91"/>
<path d="M10.7529 11.9087V0.388672H12.8009V11.9087H10.7529Z" fill="#777E91"/>
<path d="M0.707031 11.909V0.708984H5.20303C6.3657 0.708984 7.25103 0.980984 7.85903 1.52498C8.4777 2.05832 8.78703 2.74632 8.78703 3.58898C8.78703 4.29298 8.59503 4.85832 8.21103 5.28498C7.8377 5.70098 7.37903 5.98365 6.83503 6.13298C7.47503 6.26098 8.00303 6.58099 8.41903 7.09299C8.83503 7.59432 9.04303 8.18099 9.04303 8.85299C9.04303 9.73832 8.72303 10.469 8.08303 11.045C7.44303 11.621 6.53636 11.909 5.36303 11.909H0.707031ZM2.75503 5.41298H4.89903C5.47503 5.41298 5.9177 5.27965 6.22703 5.01298C6.53637 4.74632 6.69103 4.36765 6.69103 3.87698C6.69103 3.40765 6.53637 3.03965 6.22703 2.77298C5.92837 2.49565 5.47503 2.35699 4.86703 2.35699H2.75503V5.41298ZM2.75503 10.245H5.04303C5.65103 10.245 6.12037 10.1063 6.45103 9.82899C6.79237 9.54099 6.96303 9.14098 6.96303 8.62898C6.96303 8.10632 6.78703 7.69565 6.43503 7.39699C6.08303 7.09832 5.60836 6.94899 5.01103 6.94899H2.75503V10.245Z" fill="#777E91"/>
</svg>
