<svg width="20" height="21" viewBox="0 0 20 21" fill="none" xmlns="http://www.w3.org/2000/svg">
<path fill-rule="evenodd" clip-rule="evenodd" d="M3.84583 2.5C2.92853 2.5 2.70418 2.54332 2.47793 2.66433C2.33758 2.73939 2.23939 2.83758 2.16433 2.97793C2.04332 3.20418 2 3.42853 2 4.34583V16.6542C2 17.5715 2.04332 17.7958 2.16433 18.0221C2.23939 18.1624 2.33758 18.2606 2.47793 18.3357C2.70418 18.4567 2.92853 18.5 3.84583 18.5H16.1542C17.0715 18.5 17.2958 18.4567 17.5221 18.3357C17.6624 18.2606 17.7606 18.1624 17.8357 18.0221C17.9567 17.7958 18 17.5715 18 16.6542V4.34583C18 3.42853 17.9567 3.20418 17.8357 2.97793C17.7606 2.83758 17.6624 2.73939 17.5221 2.66433C17.2958 2.54332 17.0715 2.5 16.1542 2.5H3.84583ZM3.84583 0.5H16.1542C17.4915 0.5 17.9764 0.639238 18.4653 0.900699C18.9542 1.16216 19.3378 1.54584 19.5993 2.03473C19.8608 2.52362 20 3.00855 20 4.34583V16.6542C20 17.9915 19.8608 18.4764 19.5993 18.9653C19.3378 19.4542 18.9542 19.8378 18.4653 20.0993C17.9764 20.3608 17.4915 20.5 16.1542 20.5H3.84583C2.50855 20.5 2.02362 20.3608 1.53473 20.0993C1.04584 19.8378 0.66216 19.4542 0.400699 18.9653C0.139238 18.4764 0 17.9915 0 16.6542V4.34583C0 3.00855 0.139238 2.52362 0.400699 2.03473C0.66216 1.54584 1.04584 1.16216 1.53473 0.900699C2.02362 0.639238 2.50855 0.5 3.84583 0.5Z" fill="#C9CED6"/>
</svg>
