<svg width="92" height="23" viewBox="0 0 92 23" fill="none" xmlns="http://www.w3.org/2000/svg">
<path d="M84.6607 17.8653C83.8287 17.8653 83.0767 17.7053 82.4047 17.3853C81.7327 17.0493 81.1967 16.6093 80.7967 16.0653C80.4127 15.5053 80.2207 14.8813 80.2207 14.1933C80.2207 13.0733 80.6687 12.1853 81.5647 11.5293C82.4767 10.8573 83.6767 10.4093 85.1647 10.1853L88.4527 9.70527V9.20127C88.4527 8.52927 88.2847 8.00927 87.9487 7.64127C87.6127 7.27327 87.0367 7.08927 86.2207 7.08927C85.6447 7.08927 85.1727 7.20927 84.8047 7.44927C84.4527 7.67327 84.1887 7.97727 84.0127 8.36127C83.8847 8.56927 83.7007 8.67327 83.4607 8.67327H81.5647C81.3887 8.67327 81.2527 8.62527 81.1567 8.52927C81.0767 8.43327 81.0367 8.30527 81.0367 8.14527C81.0527 7.88927 81.1567 7.57727 81.3487 7.20927C81.5407 6.84127 81.8447 6.48927 82.2607 6.15327C82.6767 5.80127 83.2127 5.50527 83.8687 5.26527C84.5247 5.02527 85.3167 4.90527 86.2447 4.90527C87.2527 4.90527 88.1007 5.03327 88.7887 5.28927C89.4927 5.52927 90.0527 5.85727 90.4687 6.27327C90.8847 6.68927 91.1887 7.17727 91.3807 7.73727C91.5727 8.29727 91.6687 8.88927 91.6687 9.51327V17.0493C91.6687 17.2093 91.6127 17.3453 91.5007 17.4573C91.3887 17.5693 91.2527 17.6253 91.0927 17.6253H89.1487C88.9727 17.6253 88.8287 17.5693 88.7167 17.4573C88.6207 17.3453 88.5727 17.2093 88.5727 17.0493V16.1133C88.3647 16.4173 88.0847 16.7053 87.7327 16.9773C87.3807 17.2333 86.9487 17.4493 86.4367 17.6253C85.9407 17.7853 85.3487 17.8653 84.6607 17.8653ZM85.4767 15.5853C86.0367 15.5853 86.5407 15.4653 86.9887 15.2253C87.4527 14.9853 87.8127 14.6173 88.0687 14.1213C88.3407 13.6093 88.4767 12.9693 88.4767 12.2013V11.6973L86.0767 12.0813C85.1327 12.2253 84.4287 12.4573 83.9647 12.7773C83.5007 13.0973 83.2687 13.4893 83.2687 13.9533C83.2687 14.3053 83.3727 14.6093 83.5807 14.8653C83.8047 15.1053 84.0847 15.2893 84.4207 15.4173C84.7567 15.5293 85.1087 15.5853 85.4767 15.5853Z" fill="#141416"/>
<path d="M70.0031 22.1845C69.8751 22.1845 69.7631 22.1365 69.6671 22.0405C69.5711 21.9445 69.5231 21.8325 69.5231 21.7045C69.5231 21.6405 69.5231 21.5765 69.5231 21.5125C69.5391 21.4645 69.5711 21.4005 69.6191 21.3205L71.4911 16.8805L66.8831 6.00853C66.8191 5.84853 66.7871 5.73653 66.7871 5.67253C66.8031 5.52853 66.8591 5.40853 66.9551 5.31253C67.0511 5.20053 67.1711 5.14453 67.3151 5.14453H69.2591C69.4511 5.14453 69.5951 5.19253 69.6911 5.28853C69.7871 5.38453 69.8591 5.48853 69.9071 5.60053L73.0991 13.4485L76.3871 5.60053C76.4351 5.47253 76.5071 5.36853 76.6031 5.28853C76.6991 5.19253 76.8431 5.14453 77.0351 5.14453H78.9551C79.0831 5.14453 79.1951 5.19253 79.2911 5.28853C79.4031 5.38453 79.4591 5.49653 79.4591 5.62453C79.4591 5.72053 79.4271 5.84853 79.3631 6.00853L72.5711 21.7285C72.5071 21.8565 72.4271 21.9605 72.3311 22.0405C72.2351 22.1365 72.0911 22.1845 71.8991 22.1845H70.0031Z" fill="#141416"/>
<path d="M53.6522 17.625C53.4922 17.625 53.3562 17.569 53.2442 17.457C53.1322 17.345 53.0762 17.209 53.0762 17.049V1.16096C53.0762 1.00096 53.1322 0.864961 53.2442 0.752962C53.3562 0.640961 53.4922 0.584961 53.6522 0.584961H55.7882C55.9642 0.584961 56.1002 0.640961 56.1962 0.752962C56.3082 0.864961 56.3642 1.00096 56.3642 1.16096V6.63296C56.7962 6.12096 57.3242 5.70496 57.9482 5.38496C58.5722 5.06496 59.3402 4.90496 60.2522 4.90496C61.2282 4.90496 62.0762 5.12896 62.7962 5.57696C63.5322 6.00896 64.1002 6.62496 64.5002 7.42496C64.9002 8.22496 65.1002 9.18496 65.1002 10.305V17.049C65.1002 17.209 65.0442 17.345 64.9322 17.457C64.8202 17.569 64.6842 17.625 64.5242 17.625H62.3642C62.2042 17.625 62.0682 17.569 61.9562 17.457C61.8442 17.345 61.7882 17.209 61.7882 17.049V10.449C61.7882 9.52096 61.5562 8.79296 61.0922 8.26496C60.6442 7.73696 59.9882 7.47296 59.1242 7.47296C58.2922 7.47296 57.6202 7.73696 57.1082 8.26496C56.6122 8.79296 56.3642 9.52096 56.3642 10.449V17.049C56.3642 17.209 56.3082 17.345 56.1962 17.457C56.1002 17.569 55.9642 17.625 55.7882 17.625H53.6522Z" fill="#141416"/>
<path d="M42.9661 17.865C42.1341 17.865 41.3981 17.729 40.7581 17.457C40.1341 17.169 39.6141 16.769 39.1981 16.257C38.7821 15.745 38.4621 15.145 38.2381 14.457C38.0141 13.753 37.8861 12.985 37.8541 12.153C37.8381 11.865 37.8301 11.609 37.8301 11.385C37.8301 11.145 37.8381 10.881 37.8541 10.593C37.8861 9.79296 38.0061 9.04896 38.2141 8.36096C38.4381 7.67296 38.7581 7.07296 39.1741 6.56096C39.6061 6.03296 40.1341 5.62496 40.7581 5.33696C41.3981 5.04896 42.1341 4.90496 42.9661 4.90496C43.8301 4.90496 44.5581 5.05696 45.1501 5.36096C45.7581 5.64896 46.2621 6.02496 46.6621 6.48896V1.16096C46.6621 1.00096 46.7101 0.864961 46.8061 0.752962C46.9181 0.640961 47.0621 0.584961 47.2381 0.584961H49.2781C49.4381 0.584961 49.5741 0.640961 49.6861 0.752962C49.7981 0.864961 49.8541 1.00096 49.8541 1.16096V17.049C49.8541 17.209 49.7981 17.345 49.6861 17.457C49.5741 17.569 49.4381 17.625 49.2781 17.625H47.3821C47.2061 17.625 47.0621 17.569 46.9501 17.457C46.8541 17.345 46.8061 17.209 46.8061 17.049V16.161C46.4061 16.657 45.8941 17.065 45.2701 17.385C44.6621 17.705 43.8941 17.865 42.9661 17.865ZM43.8541 15.297C44.5261 15.297 45.0621 15.145 45.4621 14.841C45.8621 14.537 46.1581 14.153 46.3501 13.689C46.5421 13.209 46.6461 12.721 46.6621 12.225C46.6781 11.937 46.6861 11.633 46.6861 11.313C46.6861 10.977 46.6781 10.665 46.6621 10.377C46.6461 9.89696 46.5341 9.44096 46.3261 9.00896C46.1181 8.56096 45.8141 8.19296 45.4141 7.90496C45.0141 7.61696 44.4941 7.47296 43.8541 7.47296C43.1821 7.47296 42.6461 7.62496 42.2461 7.92896C41.8621 8.21696 41.5821 8.60096 41.4061 9.08096C41.2301 9.56096 41.1261 10.089 41.0941 10.665C41.0781 11.145 41.0781 11.625 41.0941 12.105C41.1261 12.681 41.2301 13.209 41.4061 13.689C41.5821 14.169 41.8621 14.561 42.2461 14.865C42.6461 15.153 43.1821 15.297 43.8541 15.297Z" fill="#141416"/>
<path d="M32.0252 17.6252C31.8652 17.6252 31.7292 17.5692 31.6172 17.4572C31.5052 17.3452 31.4492 17.2092 31.4492 17.0492V1.4012C31.4492 1.2412 31.5052 1.1052 31.6172 0.993196C31.7292 0.881196 31.8652 0.825195 32.0252 0.825195H34.2812C34.4572 0.825195 34.5932 0.881196 34.6892 0.993196C34.8012 1.1052 34.8572 1.2412 34.8572 1.4012V17.0492C34.8572 17.2092 34.8012 17.3452 34.6892 17.4572C34.5932 17.5692 34.4572 17.6252 34.2812 17.6252H32.0252Z" fill="#141416"/>
<path d="M13.7774 17.6252C13.6494 17.6252 13.5294 17.5772 13.4174 17.4812C13.3214 17.3852 13.2734 17.2652 13.2734 17.1212C13.2734 17.0572 13.2894 16.9852 13.3214 16.9052L19.1054 1.4252C19.1534 1.2652 19.2414 1.1292 19.3694 1.0172C19.5134 0.889195 19.7054 0.825195 19.9454 0.825195H22.5614C22.8014 0.825195 22.9854 0.889195 23.1134 1.0172C23.2414 1.1292 23.3374 1.2652 23.4014 1.4252L29.1854 16.9052C29.2014 16.9852 29.2094 17.0572 29.2094 17.1212C29.2094 17.2652 29.1614 17.3852 29.0654 17.4812C28.9694 17.5772 28.8574 17.6252 28.7294 17.6252H26.6414C26.4174 17.6252 26.2494 17.5772 26.1374 17.4812C26.0414 17.3692 25.9774 17.2652 25.9454 17.1692L24.8174 14.2412H17.6894L16.5614 17.1692C16.5294 17.2652 16.4574 17.3692 16.3454 17.4812C16.2494 17.5772 16.0894 17.6252 15.8654 17.6252H13.7774ZM18.5294 11.4812H23.9774L21.2414 4.0652L18.5294 11.4812Z" fill="#141416"/>
<path d="M5.99961 17.6245C5.74361 17.6245 5.55161 17.5685 5.42361 17.4565C5.31161 17.3285 5.21561 17.1845 5.13561 17.0245L0.647609 5.88853C0.615609 5.80853 0.599609 5.73653 0.599609 5.67253C0.599609 5.52853 0.647609 5.40853 0.743609 5.31253C0.855609 5.20053 0.983609 5.14453 1.12761 5.14453H3.07161C3.26361 5.14453 3.40761 5.20053 3.50361 5.31253C3.59961 5.40853 3.66361 5.50453 3.69561 5.60053L6.88761 14.0245L10.0796 5.60053C10.1116 5.50453 10.1756 5.40853 10.2716 5.31253C10.3676 5.20053 10.5116 5.14453 10.7036 5.14453H12.6716C12.7996 5.14453 12.9116 5.20053 13.0076 5.31253C13.1196 5.40853 13.1756 5.52853 13.1756 5.67253C13.1756 5.73653 13.1676 5.80853 13.1516 5.88853L8.63961 17.0245C8.57561 17.1845 8.47961 17.3285 8.35161 17.4565C8.22361 17.5685 8.03161 17.6245 7.77561 17.6245H5.99961Z" fill="#141416"/>
</svg>
