<svg width="63" height="12" viewBox="0 0 63 12" fill="none" xmlns="http://www.w3.org/2000/svg">
<path d="M61.2565 11.605C60.4245 11.605 59.7579 11.4023 59.2565 10.997C58.7552 10.5917 58.5045 9.87168 58.5045 8.83702V5.38102H57.1445V3.66902H58.5045L58.7445 1.54102H60.5525V3.66902H62.6965V5.38102H60.5525V8.85302C60.5525 9.23702 60.6325 9.50368 60.7925 9.65302C60.9632 9.79168 61.2512 9.86102 61.6565 9.86102H62.6485V11.605H61.2565Z" fill="#777E91"/>
<path d="M52.1245 11.7966C51.3138 11.7966 50.5991 11.6206 49.9805 11.2686C49.3618 10.9166 48.8711 10.4259 48.5085 9.79656C48.1565 9.16723 47.9805 8.44723 47.9805 7.63656C47.9805 6.8259 48.1565 6.1059 48.5085 5.47656C48.8711 4.84723 49.3618 4.35656 49.9805 4.00456C50.5991 3.65256 51.3138 3.47656 52.1245 3.47656C53.1378 3.47656 53.9911 3.74323 54.6845 4.27656C55.3778 4.79923 55.8205 5.52456 56.0125 6.45256H53.8525C53.7458 6.06856 53.5325 5.7699 53.2125 5.55656C52.9031 5.33256 52.5351 5.22056 52.1085 5.22056C51.5431 5.22056 51.0631 5.4339 50.6685 5.86056C50.2738 6.28723 50.0765 6.87923 50.0765 7.63656C50.0765 8.3939 50.2738 8.9859 50.6685 9.41256C51.0631 9.83923 51.5431 10.0526 52.1085 10.0526C52.5351 10.0526 52.9031 9.9459 53.2125 9.73256C53.5325 9.51923 53.7458 9.21523 53.8525 8.82056H56.0125C55.8205 9.71656 55.3778 10.4366 54.6845 10.9806C53.9911 11.5246 53.1378 11.7966 52.1245 11.7966Z" fill="#777E91"/>
<path d="M41.7377 11.7966C41.0551 11.7966 40.4951 11.6899 40.0577 11.4766C39.6204 11.2526 39.2951 10.9592 39.0817 10.5966C38.8684 10.2339 38.7617 9.8339 38.7617 9.39656C38.7617 8.66056 39.0497 8.06323 39.6257 7.60456C40.2017 7.1459 41.0657 6.91656 42.2177 6.91656H44.2337V6.72456C44.2337 6.18056 44.0791 5.78056 43.7697 5.52456C43.4604 5.26856 43.0764 5.14056 42.6177 5.14056C42.2017 5.14056 41.8391 5.2419 41.5297 5.44456C41.2204 5.63656 41.0284 5.92456 40.9537 6.30856H38.9537C39.0071 5.73256 39.1991 5.23123 39.5297 4.80456C39.8711 4.3779 40.3084 4.05256 40.8417 3.82856C41.3751 3.5939 41.9724 3.47656 42.6337 3.47656C43.7644 3.47656 44.6551 3.75923 45.3057 4.32456C45.9564 4.8899 46.2817 5.6899 46.2817 6.72456V11.6046H44.5377L44.3457 10.3246C44.1111 10.7512 43.7804 11.1032 43.3537 11.3806C42.9377 11.6579 42.3991 11.7966 41.7377 11.7966ZM42.2017 10.1966C42.7884 10.1966 43.2417 10.0046 43.5617 9.62056C43.8924 9.23656 44.1004 8.7619 44.1857 8.19656H42.4417C41.8977 8.19656 41.5084 8.2979 41.2737 8.50056C41.0391 8.69256 40.9217 8.93256 40.9217 9.22056C40.9217 9.5299 41.0391 9.7699 41.2737 9.94056C41.5084 10.1112 41.8177 10.1966 42.2017 10.1966Z" fill="#777E91"/>
<path d="M35.8034 11.605C34.9714 11.605 34.3047 11.4023 33.8034 10.997C33.3021 10.5917 33.0514 9.87168 33.0514 8.83702V5.38102H31.6914V3.66902H33.0514L33.2914 1.54102H35.0994V3.66902H37.2434V5.38102H35.0994V8.85302C35.0994 9.23702 35.1794 9.50368 35.3394 9.65302C35.5101 9.79168 35.7981 9.86102 36.2034 9.86102H37.1954V11.605H35.8034Z" fill="#777E91"/>
<path d="M22.5332 11.6046V3.66856H24.3412L24.5012 5.01256C24.7465 4.54323 25.0985 4.1699 25.5572 3.89256C26.0265 3.61523 26.5759 3.47656 27.2052 3.47656C28.1865 3.47656 28.9492 3.7859 29.4932 4.40456C30.0372 5.02323 30.3092 5.9299 30.3092 7.12456V11.6046H28.2612V7.31656C28.2612 6.6339 28.1225 6.11123 27.8452 5.74856C27.5679 5.3859 27.1359 5.20456 26.5492 5.20456C25.9732 5.20456 25.4985 5.40723 25.1252 5.81256C24.7625 6.2179 24.5812 6.78323 24.5812 7.50856V11.6046H22.5332Z" fill="#777E91"/>
<path d="M16.6382 11.7966C15.8702 11.7966 15.1769 11.6206 14.5582 11.2686C13.9502 10.9166 13.4649 10.4312 13.1022 9.81256C12.7502 9.18323 12.5742 8.4579 12.5742 7.63656C12.5742 6.81523 12.7556 6.09523 13.1182 5.47656C13.4809 4.84723 13.9662 4.35656 14.5742 4.00456C15.1929 3.65256 15.8862 3.47656 16.6542 3.47656C17.4116 3.47656 18.0942 3.65256 18.7022 4.00456C19.3209 4.35656 19.8062 4.84723 20.1582 5.47656C20.5209 6.09523 20.7022 6.81523 20.7022 7.63656C20.7022 8.4579 20.5209 9.18323 20.1582 9.81256C19.8062 10.4312 19.3209 10.9166 18.7022 11.2686C18.0836 11.6206 17.3956 11.7966 16.6382 11.7966ZM16.6382 10.0206C17.1716 10.0206 17.6356 9.82323 18.0302 9.42856C18.4249 9.02323 18.6222 8.4259 18.6222 7.63656C18.6222 6.84723 18.4249 6.25523 18.0302 5.86056C17.6356 5.45523 17.1769 5.25256 16.6542 5.25256C16.1102 5.25256 15.6409 5.45523 15.2462 5.86056C14.8622 6.25523 14.6702 6.84723 14.6702 7.63656C14.6702 8.4259 14.8622 9.02323 15.2462 9.42856C15.6409 9.82323 16.1049 10.0206 16.6382 10.0206Z" fill="#777E91"/>
<path d="M6.15289 11.7969C5.02222 11.7969 4.05156 11.5569 3.24089 11.0769C2.43022 10.5862 1.80622 9.90889 1.36889 9.04489C0.931557 8.17022 0.712891 7.16222 0.712891 6.02089C0.712891 4.87956 0.931557 3.87156 1.36889 2.99689C1.80622 2.12222 2.43022 1.43956 3.24089 0.948891C4.05156 0.458224 5.02222 0.212891 6.15289 0.212891C7.49689 0.212891 8.59556 0.54889 9.44889 1.22089C10.3129 1.88222 10.8516 2.81556 11.0649 4.02089H8.80889C8.67022 3.41289 8.37156 2.93822 7.91289 2.59689C7.46489 2.24489 6.86756 2.06889 6.12089 2.06889C5.08622 2.06889 4.27556 2.42089 3.68889 3.12489C3.10222 3.82889 2.80889 4.79422 2.80889 6.02089C2.80889 7.24756 3.10222 8.21289 3.68889 8.91689C4.27556 9.61022 5.08622 9.95689 6.12089 9.95689C6.86756 9.95689 7.46489 9.79689 7.91289 9.47689C8.37156 9.14622 8.67022 8.69289 8.80889 8.11689H11.0649C10.8516 9.26889 10.3129 10.1702 9.44889 10.8209C8.59556 11.4716 7.49689 11.7969 6.15289 11.7969Z" fill="#777E91"/>
</svg>
