<svg width="63" height="13" viewBox="0 0 63 13" fill="none" xmlns="http://www.w3.org/2000/svg">
<path d="M61.2565 12.1001C60.4245 12.1001 59.7579 11.8975 59.2565 11.4921C58.7552 11.0868 58.5045 10.3668 58.5045 9.33213V5.87613H57.1445V4.16413H58.5045L58.7445 2.03613H60.5525V4.16413H62.6965V5.87613H60.5525V9.34813C60.5525 9.73213 60.6325 9.9988 60.7925 10.1481C60.9632 10.2868 61.2512 10.3561 61.6565 10.3561H62.6485V12.1001H61.2565Z" fill="#777E91"/>
<path d="M52.1245 12.2922C51.3138 12.2922 50.5991 12.1162 49.9805 11.7642C49.3618 11.4122 48.8711 10.9215 48.5085 10.2922C48.1565 9.66283 47.9805 8.94283 47.9805 8.13217C47.9805 7.3215 48.1565 6.6015 48.5085 5.97217C48.8711 5.34283 49.3618 4.85217 49.9805 4.50017C50.5991 4.14817 51.3138 3.97217 52.1245 3.97217C53.1378 3.97217 53.9911 4.23883 54.6845 4.77217C55.3778 5.29483 55.8205 6.02017 56.0125 6.94817H53.8525C53.7458 6.56417 53.5325 6.2655 53.2125 6.05217C52.9031 5.82817 52.5351 5.71617 52.1085 5.71617C51.5431 5.71617 51.0631 5.9295 50.6685 6.35617C50.2738 6.78283 50.0765 7.37483 50.0765 8.13217C50.0765 8.8895 50.2738 9.4815 50.6685 9.90817C51.0631 10.3348 51.5431 10.5482 52.1085 10.5482C52.5351 10.5482 52.9031 10.4415 53.2125 10.2282C53.5325 10.0148 53.7458 9.71083 53.8525 9.31617H56.0125C55.8205 10.2122 55.3778 10.9322 54.6845 11.4762C53.9911 12.0202 53.1378 12.2922 52.1245 12.2922Z" fill="#777E91"/>
<path d="M41.7377 12.2922C41.0551 12.2922 40.4951 12.1855 40.0577 11.9722C39.6204 11.7482 39.2951 11.4548 39.0817 11.0922C38.8684 10.7295 38.7617 10.3295 38.7617 9.89217C38.7617 9.15617 39.0497 8.55883 39.6257 8.10017C40.2017 7.6415 41.0657 7.41217 42.2177 7.41217H44.2337V7.22017C44.2337 6.67617 44.0791 6.27617 43.7697 6.02017C43.4604 5.76417 43.0764 5.63617 42.6177 5.63617C42.2017 5.63617 41.8391 5.7375 41.5297 5.94017C41.2204 6.13217 41.0284 6.42017 40.9537 6.80417H38.9537C39.0071 6.22817 39.1991 5.72683 39.5297 5.30017C39.8711 4.8735 40.3084 4.54817 40.8417 4.32417C41.3751 4.0895 41.9724 3.97217 42.6337 3.97217C43.7644 3.97217 44.6551 4.25483 45.3057 4.82017C45.9564 5.3855 46.2817 6.1855 46.2817 7.22017V12.1002H44.5377L44.3457 10.8202C44.1111 11.2468 43.7804 11.5988 43.3537 11.8762C42.9377 12.1535 42.3991 12.2922 41.7377 12.2922ZM42.2017 10.6922C42.7884 10.6922 43.2417 10.5002 43.5617 10.1162C43.8924 9.73217 44.1004 9.2575 44.1857 8.69217H42.4417C41.8977 8.69217 41.5084 8.7935 41.2737 8.99617C41.0391 9.18817 40.9217 9.42817 40.9217 9.71617C40.9217 10.0255 41.0391 10.2655 41.2737 10.4362C41.5084 10.6068 41.8177 10.6922 42.2017 10.6922Z" fill="#777E91"/>
<path d="M35.8034 12.1001C34.9714 12.1001 34.3047 11.8975 33.8034 11.4921C33.3021 11.0868 33.0514 10.3668 33.0514 9.33213V5.87613H31.6914V4.16413H33.0514L33.2914 2.03613H35.0994V4.16413H37.2434V5.87613H35.0994V9.34813C35.0994 9.73213 35.1794 9.9988 35.3394 10.1481C35.5101 10.2868 35.7981 10.3561 36.2034 10.3561H37.1954V12.1001H35.8034Z" fill="#777E91"/>
<path d="M22.5332 12.1002V4.16417H24.3412L24.5012 5.50817C24.7465 5.03883 25.0985 4.6655 25.5572 4.38817C26.0265 4.11083 26.5759 3.97217 27.2052 3.97217C28.1865 3.97217 28.9492 4.2815 29.4932 4.90017C30.0372 5.51883 30.3092 6.4255 30.3092 7.62017V12.1002H28.2612V7.81217C28.2612 7.1295 28.1225 6.60683 27.8452 6.24417C27.5679 5.8815 27.1359 5.70017 26.5492 5.70017C25.9732 5.70017 25.4985 5.90283 25.1252 6.30817C24.7625 6.7135 24.5812 7.27883 24.5812 8.00417V12.1002H22.5332Z" fill="#777E91"/>
<path d="M16.6382 12.2922C15.8702 12.2922 15.1769 12.1162 14.5582 11.7642C13.9502 11.4122 13.4649 10.9268 13.1022 10.3082C12.7502 9.67883 12.5742 8.9535 12.5742 8.13217C12.5742 7.31083 12.7556 6.59083 13.1182 5.97217C13.4809 5.34283 13.9662 4.85217 14.5742 4.50017C15.1929 4.14817 15.8862 3.97217 16.6542 3.97217C17.4116 3.97217 18.0942 4.14817 18.7022 4.50017C19.3209 4.85217 19.8062 5.34283 20.1582 5.97217C20.5209 6.59083 20.7022 7.31083 20.7022 8.13217C20.7022 8.9535 20.5209 9.67883 20.1582 10.3082C19.8062 10.9268 19.3209 11.4122 18.7022 11.7642C18.0836 12.1162 17.3956 12.2922 16.6382 12.2922ZM16.6382 10.5162C17.1716 10.5162 17.6356 10.3188 18.0302 9.92417C18.4249 9.51883 18.6222 8.9215 18.6222 8.13217C18.6222 7.34283 18.4249 6.75083 18.0302 6.35617C17.6356 5.95083 17.1769 5.74817 16.6542 5.74817C16.1102 5.74817 15.6409 5.95083 15.2462 6.35617C14.8622 6.75083 14.6702 7.34283 14.6702 8.13217C14.6702 8.9215 14.8622 9.51883 15.2462 9.92417C15.6409 10.3188 16.1049 10.5162 16.6382 10.5162Z" fill="#777E91"/>
<path d="M6.15289 12.292C5.02222 12.292 4.05156 12.052 3.24089 11.572C2.43022 11.0813 1.80622 10.404 1.36889 9.54001C0.931557 8.66534 0.712891 7.65734 0.712891 6.51601C0.712891 5.37467 0.931557 4.36667 1.36889 3.49201C1.80622 2.61734 2.43022 1.93467 3.24089 1.44401C4.05156 0.953341 5.02222 0.708008 6.15289 0.708008C7.49689 0.708008 8.59556 1.04401 9.44889 1.71601C10.3129 2.37734 10.8516 3.31067 11.0649 4.51601H8.80889C8.67022 3.90801 8.37156 3.43334 7.91289 3.09201C7.46489 2.74001 6.86756 2.56401 6.12089 2.56401C5.08622 2.56401 4.27556 2.91601 3.68889 3.62001C3.10222 4.32401 2.80889 5.28934 2.80889 6.51601C2.80889 7.74267 3.10222 8.70801 3.68889 9.41201C4.27556 10.1053 5.08622 10.452 6.12089 10.452C6.86756 10.452 7.46489 10.292 7.91289 9.97201C8.37156 9.64134 8.67022 9.18801 8.80889 8.61201H11.0649C10.8516 9.76401 10.3129 10.6653 9.44889 11.316C8.59556 11.9667 7.49689 12.292 6.15289 12.292Z" fill="#777E91"/>
</svg>
