<svg width="92" height="22" viewBox="0 0 92 22" fill="none" xmlns="http://www.w3.org/2000/svg">
<path d="M84.6607 17.3653C83.8287 17.3653 83.0767 17.2053 82.4047 16.8853C81.7327 16.5493 81.1967 16.1093 80.7967 15.5653C80.4127 15.0053 80.2207 14.3813 80.2207 13.6933C80.2207 12.5733 80.6687 11.6853 81.5647 11.0293C82.4767 10.3573 83.6767 9.90927 85.1647 9.68527L88.4527 9.20527V8.70127C88.4527 8.02927 88.2847 7.50927 87.9487 7.14127C87.6127 6.77327 87.0367 6.58927 86.2207 6.58927C85.6447 6.58927 85.1727 6.70927 84.8047 6.94927C84.4527 7.17327 84.1887 7.47727 84.0127 7.86127C83.8847 8.06927 83.7007 8.17327 83.4607 8.17327H81.5647C81.3887 8.17327 81.2527 8.12527 81.1567 8.02927C81.0767 7.93327 81.0367 7.80527 81.0367 7.64527C81.0527 7.38927 81.1567 7.07727 81.3487 6.70927C81.5407 6.34127 81.8447 5.98927 82.2607 5.65327C82.6767 5.30127 83.2127 5.00527 83.8687 4.76527C84.5247 4.52527 85.3167 4.40527 86.2447 4.40527C87.2527 4.40527 88.1007 4.53327 88.7887 4.78927C89.4927 5.02927 90.0527 5.35727 90.4687 5.77327C90.8847 6.18927 91.1887 6.67727 91.3807 7.23727C91.5727 7.79727 91.6687 8.38927 91.6687 9.01327V16.5493C91.6687 16.7093 91.6127 16.8453 91.5007 16.9573C91.3887 17.0693 91.2527 17.1253 91.0927 17.1253H89.1487C88.9727 17.1253 88.8287 17.0693 88.7167 16.9573C88.6207 16.8453 88.5727 16.7093 88.5727 16.5493V15.6133C88.3647 15.9173 88.0847 16.2053 87.7327 16.4773C87.3807 16.7333 86.9487 16.9493 86.4367 17.1253C85.9407 17.2853 85.3487 17.3653 84.6607 17.3653ZM85.4767 15.0853C86.0367 15.0853 86.5407 14.9653 86.9887 14.7253C87.4527 14.4853 87.8127 14.1173 88.0687 13.6213C88.3407 13.1093 88.4767 12.4693 88.4767 11.7013V11.1973L86.0767 11.5813C85.1327 11.7253 84.4287 11.9573 83.9647 12.2773C83.5007 12.5973 83.2687 12.9893 83.2687 13.4533C83.2687 13.8053 83.3727 14.1093 83.5807 14.3653C83.8047 14.6053 84.0847 14.7893 84.4207 14.9173C84.7567 15.0293 85.1087 15.0853 85.4767 15.0853Z" fill="#141416"/>
<path d="M70.0031 21.6845C69.8751 21.6845 69.7631 21.6365 69.6671 21.5405C69.5711 21.4445 69.5231 21.3325 69.5231 21.2045C69.5231 21.1405 69.5231 21.0765 69.5231 21.0125C69.5391 20.9645 69.5711 20.9005 69.6191 20.8205L71.4911 16.3805L66.8831 5.50853C66.8191 5.34853 66.7871 5.23653 66.7871 5.17253C66.8031 5.02853 66.8591 4.90853 66.9551 4.81253C67.0511 4.70053 67.1711 4.64453 67.3151 4.64453H69.2591C69.4511 4.64453 69.5951 4.69253 69.6911 4.78853C69.7871 4.88453 69.8591 4.98853 69.9071 5.10053L73.0991 12.9485L76.3871 5.10053C76.4351 4.97253 76.5071 4.86853 76.6031 4.78853C76.6991 4.69253 76.8431 4.64453 77.0351 4.64453H78.9551C79.0831 4.64453 79.1951 4.69253 79.2911 4.78853C79.4031 4.88453 79.4591 4.99653 79.4591 5.12453C79.4591 5.22053 79.4271 5.34853 79.3631 5.50853L72.5711 21.2285C72.5071 21.3565 72.4271 21.4605 72.3311 21.5405C72.2351 21.6365 72.0911 21.6845 71.8991 21.6845H70.0031Z" fill="#141416"/>
<path d="M53.6522 17.125C53.4922 17.125 53.3562 17.069 53.2442 16.957C53.1322 16.845 53.0762 16.709 53.0762 16.549V0.660961C53.0762 0.500961 53.1322 0.364961 53.2442 0.252962C53.3562 0.140961 53.4922 0.0849609 53.6522 0.0849609H55.7882C55.9642 0.0849609 56.1002 0.140961 56.1962 0.252962C56.3082 0.364961 56.3642 0.500961 56.3642 0.660961V6.13296C56.7962 5.62096 57.3242 5.20496 57.9482 4.88496C58.5722 4.56496 59.3402 4.40496 60.2522 4.40496C61.2282 4.40496 62.0762 4.62896 62.7962 5.07696C63.5322 5.50896 64.1002 6.12496 64.5002 6.92496C64.9002 7.72496 65.1002 8.68496 65.1002 9.80496V16.549C65.1002 16.709 65.0442 16.845 64.9322 16.957C64.8202 17.069 64.6842 17.125 64.5242 17.125H62.3642C62.2042 17.125 62.0682 17.069 61.9562 16.957C61.8442 16.845 61.7882 16.709 61.7882 16.549V9.94896C61.7882 9.02096 61.5562 8.29296 61.0922 7.76496C60.6442 7.23696 59.9882 6.97296 59.1242 6.97296C58.2922 6.97296 57.6202 7.23696 57.1082 7.76496C56.6122 8.29296 56.3642 9.02096 56.3642 9.94896V16.549C56.3642 16.709 56.3082 16.845 56.1962 16.957C56.1002 17.069 55.9642 17.125 55.7882 17.125H53.6522Z" fill="#141416"/>
<path d="M42.9661 17.365C42.1341 17.365 41.3981 17.229 40.7581 16.957C40.1341 16.669 39.6141 16.269 39.1981 15.757C38.7821 15.245 38.4621 14.645 38.2381 13.957C38.0141 13.253 37.8861 12.485 37.8541 11.653C37.8381 11.365 37.8301 11.109 37.8301 10.885C37.8301 10.645 37.8381 10.381 37.8541 10.093C37.8861 9.29296 38.0061 8.54896 38.2141 7.86096C38.4381 7.17296 38.7581 6.57296 39.1741 6.06096C39.6061 5.53296 40.1341 5.12496 40.7581 4.83696C41.3981 4.54896 42.1341 4.40496 42.9661 4.40496C43.8301 4.40496 44.5581 4.55696 45.1501 4.86096C45.7581 5.14896 46.2621 5.52496 46.6621 5.98896V0.660961C46.6621 0.500961 46.7101 0.364961 46.8061 0.252962C46.9181 0.140961 47.0621 0.0849609 47.2381 0.0849609H49.2781C49.4381 0.0849609 49.5741 0.140961 49.6861 0.252962C49.7981 0.364961 49.8541 0.500961 49.8541 0.660961V16.549C49.8541 16.709 49.7981 16.845 49.6861 16.957C49.5741 17.069 49.4381 17.125 49.2781 17.125H47.3821C47.2061 17.125 47.0621 17.069 46.9501 16.957C46.8541 16.845 46.8061 16.709 46.8061 16.549V15.661C46.4061 16.157 45.8941 16.565 45.2701 16.885C44.6621 17.205 43.8941 17.365 42.9661 17.365ZM43.8541 14.797C44.5261 14.797 45.0621 14.645 45.4621 14.341C45.8621 14.037 46.1581 13.653 46.3501 13.189C46.5421 12.709 46.6461 12.221 46.6621 11.725C46.6781 11.437 46.6861 11.133 46.6861 10.813C46.6861 10.477 46.6781 10.165 46.6621 9.87696C46.6461 9.39696 46.5341 8.94096 46.3261 8.50896C46.1181 8.06096 45.8141 7.69296 45.4141 7.40496C45.0141 7.11696 44.4941 6.97296 43.8541 6.97296C43.1821 6.97296 42.6461 7.12496 42.2461 7.42896C41.8621 7.71696 41.5821 8.10096 41.4061 8.58096C41.2301 9.06096 41.1261 9.58896 41.0941 10.165C41.0781 10.645 41.0781 11.125 41.0941 11.605C41.1261 12.181 41.2301 12.709 41.4061 13.189C41.5821 13.669 41.8621 14.061 42.2461 14.365C42.6461 14.653 43.1821 14.797 43.8541 14.797Z" fill="#141416"/>
<path d="M32.0252 17.1252C31.8652 17.1252 31.7292 17.0692 31.6172 16.9572C31.5052 16.8452 31.4492 16.7092 31.4492 16.5492V0.901195C31.4492 0.741195 31.5052 0.605196 31.6172 0.493196C31.7292 0.381196 31.8652 0.325195 32.0252 0.325195H34.2812C34.4572 0.325195 34.5932 0.381196 34.6892 0.493196C34.8012 0.605196 34.8572 0.741195 34.8572 0.901195V16.5492C34.8572 16.7092 34.8012 16.8452 34.6892 16.9572C34.5932 17.0692 34.4572 17.1252 34.2812 17.1252H32.0252Z" fill="#141416"/>
<path d="M13.7774 17.1252C13.6494 17.1252 13.5294 17.0772 13.4174 16.9812C13.3214 16.8852 13.2734 16.7652 13.2734 16.6212C13.2734 16.5572 13.2894 16.4852 13.3214 16.4052L19.1054 0.925196C19.1534 0.765195 19.2414 0.629195 19.3694 0.517196C19.5134 0.389195 19.7054 0.325195 19.9454 0.325195H22.5614C22.8014 0.325195 22.9854 0.389195 23.1134 0.517196C23.2414 0.629195 23.3374 0.765195 23.4014 0.925196L29.1854 16.4052C29.2014 16.4852 29.2094 16.5572 29.2094 16.6212C29.2094 16.7652 29.1614 16.8852 29.0654 16.9812C28.9694 17.0772 28.8574 17.1252 28.7294 17.1252H26.6414C26.4174 17.1252 26.2494 17.0772 26.1374 16.9812C26.0414 16.8692 25.9774 16.7652 25.9454 16.6692L24.8174 13.7412H17.6894L16.5614 16.6692C16.5294 16.7652 16.4574 16.8692 16.3454 16.9812C16.2494 17.0772 16.0894 17.1252 15.8654 17.1252H13.7774ZM18.5294 10.9812H23.9774L21.2414 3.5652L18.5294 10.9812Z" fill="#141416"/>
<path d="M5.99961 17.1245C5.74361 17.1245 5.55161 17.0685 5.42361 16.9565C5.31161 16.8285 5.21561 16.6845 5.13561 16.5245L0.647609 5.38853C0.615609 5.30853 0.599609 5.23653 0.599609 5.17253C0.599609 5.02853 0.647609 4.90853 0.743609 4.81253C0.855609 4.70053 0.983609 4.64453 1.12761 4.64453H3.07161C3.26361 4.64453 3.40761 4.70053 3.50361 4.81253C3.59961 4.90853 3.66361 5.00453 3.69561 5.10053L6.88761 13.5245L10.0796 5.10053C10.1116 5.00453 10.1756 4.90853 10.2716 4.81253C10.3676 4.70053 10.5116 4.64453 10.7036 4.64453H12.6716C12.7996 4.64453 12.9116 4.70053 13.0076 4.81253C13.1196 4.90853 13.1756 5.02853 13.1756 5.17253C13.1756 5.23653 13.1676 5.30853 13.1516 5.38853L8.63961 16.5245C8.57561 16.6845 8.47961 16.8285 8.35161 16.9565C8.22361 17.0685 8.03161 17.1245 7.77561 17.1245H5.99961Z" fill="#141416"/>
</svg>
