<svg width="63" height="12" viewBox="0 0 63 12" fill="none" xmlns="http://www.w3.org/2000/svg">
<path d="M61.2507 11.6031C60.4187 11.6031 59.752 11.4004 59.2507 10.9951C58.7493 10.5897 58.4987 9.86973 58.4987 8.83506V5.37906H57.1387V3.66706H58.4987L58.7387 1.53906H60.5467V3.66706H62.6907V5.37906H60.5467V8.85106C60.5467 9.23506 60.6267 9.50173 60.7867 9.65106C60.9573 9.78973 61.2453 9.85906 61.6507 9.85906H62.6427V11.6031H61.2507Z" fill="#777E91"/>
<path d="M52.1186 11.7946C51.3079 11.7946 50.5933 11.6186 49.9746 11.2666C49.3559 10.9146 48.8653 10.4239 48.5026 9.79461C48.1506 9.16528 47.9746 8.44528 47.9746 7.63461C47.9746 6.82394 48.1506 6.10394 48.5026 5.47461C48.8653 4.84528 49.3559 4.35461 49.9746 4.00261C50.5933 3.65061 51.3079 3.47461 52.1186 3.47461C53.1319 3.47461 53.9853 3.74128 54.6786 4.27461C55.3719 4.79728 55.8146 5.52261 56.0066 6.45061H53.8466C53.7399 6.06661 53.5266 5.76794 53.2066 5.55461C52.8973 5.33061 52.5293 5.21861 52.1026 5.21861C51.5373 5.21861 51.0573 5.43194 50.6626 5.85861C50.2679 6.28528 50.0706 6.87728 50.0706 7.63461C50.0706 8.39194 50.2679 8.98394 50.6626 9.41061C51.0573 9.83728 51.5373 10.0506 52.1026 10.0506C52.5293 10.0506 52.8973 9.94394 53.2066 9.73061C53.5266 9.51728 53.7399 9.21328 53.8466 8.81861H56.0066C55.8146 9.71461 55.3719 10.4346 54.6786 10.9786C53.9853 11.5226 53.1319 11.7946 52.1186 11.7946Z" fill="#777E91"/>
<path d="M41.7319 11.7946C41.0492 11.7946 40.4892 11.6879 40.0519 11.4746C39.6145 11.2506 39.2892 10.9573 39.0759 10.5946C38.8625 10.2319 38.7559 9.83194 38.7559 9.39461C38.7559 8.65861 39.0439 8.06128 39.6199 7.60261C40.1959 7.14394 41.0599 6.91461 42.2119 6.91461H44.2279V6.72261C44.2279 6.17861 44.0732 5.77861 43.7639 5.52261C43.4545 5.26661 43.0705 5.13861 42.6119 5.13861C42.1959 5.13861 41.8332 5.23994 41.5239 5.44261C41.2145 5.63461 41.0225 5.92261 40.9479 6.30661H38.9479C39.0012 5.73061 39.1932 5.22928 39.5239 4.80261C39.8652 4.37594 40.3025 4.05061 40.8359 3.82661C41.3692 3.59194 41.9665 3.47461 42.6279 3.47461C43.7585 3.47461 44.6492 3.75728 45.2999 4.32261C45.9505 4.88794 46.2759 5.68794 46.2759 6.72261V11.6026H44.5319L44.3399 10.3226C44.1052 10.7493 43.7745 11.1013 43.3479 11.3786C42.9319 11.6559 42.3932 11.7946 41.7319 11.7946ZM42.1959 10.1946C42.7825 10.1946 43.2359 10.0026 43.5559 9.61861C43.8865 9.23461 44.0945 8.75994 44.1799 8.19461H42.4359C41.8919 8.19461 41.5025 8.29594 41.2679 8.49861C41.0332 8.69061 40.9159 8.93061 40.9159 9.21861C40.9159 9.52794 41.0332 9.76794 41.2679 9.93861C41.5025 10.1093 41.8119 10.1946 42.1959 10.1946Z" fill="#777E91"/>
<path d="M35.7975 11.6031C34.9655 11.6031 34.2989 11.4004 33.7975 10.9951C33.2962 10.5897 33.0455 9.86973 33.0455 8.83506V5.37906H31.6855V3.66706H33.0455L33.2855 1.53906H35.0935V3.66706H37.2375V5.37906H35.0935V8.85106C35.0935 9.23506 35.1735 9.50173 35.3335 9.65106C35.5042 9.78973 35.7922 9.85906 36.1975 9.85906H37.1895V11.6031H35.7975Z" fill="#777E91"/>
<path d="M22.5273 11.6026V3.66661H24.3353L24.4953 5.01061C24.7407 4.54128 25.0927 4.16794 25.5513 3.89061C26.0207 3.61328 26.57 3.47461 27.1993 3.47461C28.1807 3.47461 28.9433 3.78394 29.4873 4.40261C30.0313 5.02128 30.3033 5.92794 30.3033 7.12261V11.6026H28.2553V7.31461C28.2553 6.63194 28.1167 6.10928 27.8393 5.74661C27.562 5.38394 27.13 5.20261 26.5433 5.20261C25.9673 5.20261 25.4927 5.40528 25.1193 5.81061C24.7567 6.21594 24.5753 6.78128 24.5753 7.50661V11.6026H22.5273Z" fill="#777E91"/>
<path d="M16.6324 11.7946C15.8644 11.7946 15.171 11.6186 14.5524 11.2666C13.9444 10.9146 13.459 10.4293 13.0964 9.81061C12.7444 9.18128 12.5684 8.45594 12.5684 7.63461C12.5684 6.81328 12.7497 6.09328 13.1124 5.47461C13.475 4.84528 13.9604 4.35461 14.5684 4.00261C15.187 3.65061 15.8804 3.47461 16.6484 3.47461C17.4057 3.47461 18.0884 3.65061 18.6964 4.00261C19.315 4.35461 19.8004 4.84528 20.1524 5.47461C20.515 6.09328 20.6964 6.81328 20.6964 7.63461C20.6964 8.45594 20.515 9.18128 20.1524 9.81061C19.8004 10.4293 19.315 10.9146 18.6964 11.2666C18.0777 11.6186 17.3897 11.7946 16.6324 11.7946ZM16.6324 10.0186C17.1657 10.0186 17.6297 9.82128 18.0244 9.42661C18.419 9.02128 18.6164 8.42394 18.6164 7.63461C18.6164 6.84528 18.419 6.25328 18.0244 5.85861C17.6297 5.45328 17.171 5.25061 16.6484 5.25061C16.1044 5.25061 15.635 5.45328 15.2404 5.85861C14.8564 6.25328 14.6644 6.84528 14.6644 7.63461C14.6644 8.42394 14.8564 9.02128 15.2404 9.42661C15.635 9.82128 16.099 10.0186 16.6324 10.0186Z" fill="#777E91"/>
<path d="M6.14703 11.7949C5.01637 11.7949 4.0457 11.5549 3.23503 11.0749C2.42436 10.5843 1.80036 9.90694 1.36303 9.04294C0.925698 8.16827 0.707031 7.16027 0.707031 6.01894C0.707031 4.8776 0.925698 3.8696 1.36303 2.99494C1.80036 2.12027 2.42436 1.4376 3.23503 0.946938C4.0457 0.456271 5.01637 0.210938 6.14703 0.210938C7.49103 0.210938 8.5897 0.546937 9.44303 1.21894C10.307 1.88027 10.8457 2.8136 11.059 4.01894H8.80303C8.66436 3.41094 8.3657 2.93627 7.90703 2.59494C7.45903 2.24294 6.8617 2.06694 6.11503 2.06694C5.08036 2.06694 4.2697 2.41894 3.68303 3.12294C3.09636 3.82694 2.80303 4.79227 2.80303 6.01894C2.80303 7.2456 3.09636 8.21094 3.68303 8.91494C4.2697 9.60827 5.08036 9.95494 6.11503 9.95494C6.8617 9.95494 7.45903 9.79494 7.90703 9.47494C8.3657 9.14427 8.66436 8.69094 8.80303 8.11494H11.059C10.8457 9.26694 10.307 10.1683 9.44303 10.8189C8.5897 11.4696 7.49103 11.7949 6.14703 11.7949Z" fill="#777E91"/>
</svg>
