<svg width="67" height="13" viewBox="0 0 67 13" fill="none" xmlns="http://www.w3.org/2000/svg">
<path d="M61.7627 12.1641V4.22813H63.5867L63.7787 5.71613C64.0667 5.20413 64.456 4.7988 64.9467 4.50013C65.448 4.1908 66.0347 4.03613 66.7067 4.03613V6.19613H66.1307C65.6827 6.19613 65.2827 6.26547 64.9307 6.40413C64.5787 6.5428 64.3014 6.7828 64.0987 7.12413C63.9067 7.46547 63.8107 7.94013 63.8107 8.54813V12.1641H61.7627Z" fill="#777E91"/>
<path d="M56.0563 12.3561C55.2563 12.3561 54.547 12.1855 53.9283 11.8441C53.3097 11.5028 52.8243 11.0228 52.4723 10.4041C52.1203 9.78547 51.9443 9.0708 51.9443 8.26013C51.9443 7.4388 52.115 6.70813 52.4563 6.06813C52.8083 5.42813 53.2883 4.93213 53.8963 4.58013C54.515 4.21747 55.2403 4.03613 56.0723 4.03613C56.851 4.03613 57.539 4.2068 58.1363 4.54813C58.7337 4.88947 59.1977 5.3588 59.5283 5.95613C59.8697 6.5428 60.0403 7.1988 60.0403 7.92413C60.0403 8.04147 60.035 8.16413 60.0243 8.29213C60.0243 8.42013 60.019 8.55347 60.0083 8.69213H53.9763C54.019 9.3108 54.2323 9.79613 54.6163 10.1481C55.011 10.5001 55.4857 10.6761 56.0403 10.6761C56.4563 10.6761 56.803 10.5855 57.0803 10.4041C57.3683 10.2121 57.5817 9.9668 57.7203 9.66813H59.8003C59.651 10.1695 59.4003 10.6281 59.0483 11.0441C58.707 11.4495 58.2803 11.7695 57.7683 12.0041C57.267 12.2388 56.6963 12.3561 56.0563 12.3561ZM56.0723 5.70013C55.571 5.70013 55.1283 5.84413 54.7443 6.13213C54.3603 6.40947 54.115 6.83613 54.0083 7.41213H57.9603C57.9283 6.88947 57.7363 6.47347 57.3843 6.16413C57.0323 5.8548 56.595 5.70013 56.0723 5.70013Z" fill="#777E91"/>
<path d="M45.8905 12.164L42.9785 4.22803H45.1225L47.1385 10.228L49.1545 4.22803H51.2985L48.3705 12.164H45.8905Z" fill="#777E91"/>
<path d="M38.2427 12.3561C37.4747 12.3561 36.7814 12.1801 36.1627 11.8281C35.5547 11.4761 35.0694 10.9908 34.7067 10.3721C34.3547 9.7428 34.1787 9.01747 34.1787 8.19613C34.1787 7.3748 34.36 6.6548 34.7227 6.03613C35.0854 5.4068 35.5707 4.91613 36.1787 4.56413C36.7974 4.21213 37.4907 4.03613 38.2587 4.03613C39.016 4.03613 39.6987 4.21213 40.3067 4.56413C40.9254 4.91613 41.4107 5.4068 41.7627 6.03613C42.1254 6.6548 42.3067 7.3748 42.3067 8.19613C42.3067 9.01747 42.1254 9.7428 41.7627 10.3721C41.4107 10.9908 40.9254 11.4761 40.3067 11.8281C39.688 12.1801 39 12.3561 38.2427 12.3561ZM38.2427 10.5801C38.776 10.5801 39.24 10.3828 39.6347 9.98813C40.0294 9.5828 40.2267 8.98547 40.2267 8.19613C40.2267 7.4068 40.0294 6.8148 39.6347 6.42013C39.24 6.0148 38.7814 5.81213 38.2587 5.81213C37.7147 5.81213 37.2454 6.0148 36.8507 6.42013C36.4667 6.8148 36.2747 7.4068 36.2747 8.19613C36.2747 8.98547 36.4667 9.5828 36.8507 9.98813C37.2454 10.3828 37.7094 10.5801 38.2427 10.5801Z" fill="#777E91"/>
<path d="M28.729 12.3561C27.9183 12.3561 27.2036 12.1801 26.585 11.8281C25.9663 11.4761 25.4756 10.9855 25.113 10.3561C24.761 9.7268 24.585 9.0068 24.585 8.19613C24.585 7.38547 24.761 6.66547 25.113 6.03613C25.4756 5.4068 25.9663 4.91613 26.585 4.56413C27.2036 4.21213 27.9183 4.03613 28.729 4.03613C29.7423 4.03613 30.5956 4.3028 31.289 4.83613C31.9823 5.3588 32.425 6.08413 32.617 7.01213H30.457C30.3503 6.62813 30.137 6.32947 29.817 6.11613C29.5076 5.89213 29.1396 5.78013 28.713 5.78013C28.1476 5.78013 27.6676 5.99347 27.273 6.42013C26.8783 6.8468 26.681 7.4388 26.681 8.19613C26.681 8.95347 26.8783 9.54547 27.273 9.97213C27.6676 10.3988 28.1476 10.6121 28.713 10.6121C29.1396 10.6121 29.5076 10.5055 29.817 10.2921C30.137 10.0788 30.3503 9.7748 30.457 9.38013H32.617C32.425 10.2761 31.9823 10.9961 31.289 11.5401C30.5956 12.0841 29.7423 12.3561 28.729 12.3561Z" fill="#777E91"/>
<path d="M19.714 12.3561C19.01 12.3561 18.3913 12.2441 17.858 12.0201C17.3246 11.7855 16.898 11.4655 16.578 11.0601C16.258 10.6548 16.066 10.1855 16.002 9.65213H18.066C18.13 9.96147 18.3006 10.2281 18.578 10.4521C18.866 10.6655 19.234 10.7721 19.682 10.7721C20.13 10.7721 20.4553 10.6815 20.658 10.5001C20.8713 10.3188 20.978 10.1108 20.978 9.87613C20.978 9.5348 20.8286 9.30547 20.53 9.18813C20.2313 9.06013 19.8153 8.93747 19.282 8.82013C18.9406 8.74547 18.594 8.6548 18.242 8.54813C17.89 8.44147 17.5646 8.30813 17.266 8.14813C16.978 7.97747 16.7433 7.76413 16.562 7.50813C16.3806 7.24147 16.29 6.91613 16.29 6.53213C16.29 5.82813 16.5673 5.23613 17.122 4.75613C17.6873 4.27613 18.4766 4.03613 19.49 4.03613C20.4286 4.03613 21.1753 4.2548 21.73 4.69213C22.2953 5.12947 22.6313 5.73213 22.738 6.50013H20.802C20.6846 5.91347 20.242 5.62013 19.474 5.62013C19.09 5.62013 18.7913 5.6948 18.578 5.84413C18.3753 5.99347 18.274 6.18013 18.274 6.40413C18.274 6.6388 18.4286 6.82547 18.738 6.96413C19.0473 7.1028 19.458 7.2308 19.97 7.34813C20.5246 7.47613 21.0313 7.62013 21.49 7.78013C21.9593 7.92947 22.3326 8.1588 22.61 8.46813C22.8873 8.7668 23.026 9.1988 23.026 9.76413C23.0366 10.2548 22.9086 10.6975 22.642 11.0921C22.3753 11.4868 21.9913 11.7961 21.49 12.0201C20.9886 12.2441 20.3966 12.3561 19.714 12.3561Z" fill="#777E91"/>
<path d="M13.2732 2.99604C12.8998 2.99604 12.5905 2.88404 12.3452 2.66004C12.1105 2.43604 11.9932 2.15338 11.9932 1.81204C11.9932 1.47071 12.1105 1.19338 12.3452 0.980042C12.5905 0.756043 12.8998 0.644043 13.2732 0.644043C13.6465 0.644043 13.9505 0.756043 14.1852 0.980042C14.4305 1.19338 14.5532 1.47071 14.5532 1.81204C14.5532 2.15338 14.4305 2.43604 14.1852 2.66004C13.9505 2.88404 13.6465 2.99604 13.2732 2.99604ZM12.2492 12.164V4.22804H14.2972V12.164H12.2492Z" fill="#777E91"/>
<path d="M0.841797 12.1639V0.963867H4.6658C5.9778 0.963867 7.05513 1.19853 7.8978 1.66787C8.75113 2.12653 9.38046 2.7772 9.7858 3.61987C10.2018 4.45187 10.4098 5.4332 10.4098 6.56387C10.4098 7.69453 10.2018 8.6812 9.7858 9.52387C9.38046 10.3559 8.75113 11.0065 7.8978 11.4759C7.05513 11.9345 5.9778 12.1639 4.6658 12.1639H0.841797ZM2.8898 10.4039H4.5698C5.50846 10.4039 6.2498 10.2545 6.7938 9.95587C7.3378 9.64653 7.72713 9.2092 7.9618 8.64387C8.19646 8.06787 8.3138 7.37453 8.3138 6.56387C8.3138 5.76387 8.19646 5.07587 7.9618 4.49987C7.72713 3.92387 7.3378 3.4812 6.7938 3.17187C6.2498 2.86253 5.50846 2.70787 4.5698 2.70787H2.8898V10.4039Z" fill="#777E91"/>
</svg>
