<svg width="67" height="12" viewBox="0 0 67 12" fill="none" xmlns="http://www.w3.org/2000/svg">
<path d="M61.7559 11.6661V3.73009H63.5799L63.7719 5.21809C64.0599 4.70609 64.4492 4.30075 64.9399 4.00209C65.4412 3.69275 66.0279 3.53809 66.6999 3.53809V5.69809H66.1239C65.6759 5.69809 65.2759 5.76742 64.9239 5.90609C64.5719 6.04475 64.2945 6.28475 64.0919 6.62609C63.8999 6.96742 63.8039 7.44209 63.8039 8.05009V11.6661H61.7559Z" fill="#777E91"/>
<path d="M56.0495 11.8581C55.2495 11.8581 54.5402 11.6874 53.9215 11.3461C53.3028 11.0048 52.8175 10.5248 52.4655 9.90609C52.1135 9.28742 51.9375 8.57275 51.9375 7.76209C51.9375 6.94075 52.1082 6.21009 52.4495 5.57009C52.8015 4.93009 53.2815 4.43409 53.8895 4.08209C54.5082 3.71942 55.2335 3.53809 56.0655 3.53809C56.8442 3.53809 57.5322 3.70875 58.1295 4.05009C58.7268 4.39142 59.1908 4.86075 59.5215 5.45809C59.8628 6.04475 60.0335 6.70075 60.0335 7.42609C60.0335 7.54342 60.0282 7.66609 60.0175 7.79409C60.0175 7.92209 60.0122 8.05542 60.0015 8.19409H53.9695C54.0122 8.81275 54.2255 9.29809 54.6095 9.65009C55.0042 10.0021 55.4788 10.1781 56.0335 10.1781C56.4495 10.1781 56.7962 10.0874 57.0735 9.90609C57.3615 9.71409 57.5748 9.46875 57.7135 9.17009H59.7935C59.6442 9.67142 59.3935 10.1301 59.0415 10.5461C58.7002 10.9514 58.2735 11.2714 57.7615 11.5061C57.2602 11.7408 56.6895 11.8581 56.0495 11.8581ZM56.0655 5.20209C55.5642 5.20209 55.1215 5.34609 54.7375 5.63409C54.3535 5.91142 54.1082 6.33809 54.0015 6.91409H57.9535C57.9215 6.39142 57.7295 5.97542 57.3775 5.66609C57.0255 5.35675 56.5882 5.20209 56.0655 5.20209Z" fill="#777E91"/>
<path d="M45.8847 11.6665L42.9727 3.73047H45.1167L47.1327 9.73047L49.1487 3.73047H51.2927L48.3647 11.6665H45.8847Z" fill="#777E91"/>
<path d="M38.2359 11.8581C37.4679 11.8581 36.7745 11.6821 36.1559 11.3301C35.5479 10.9781 35.0625 10.4928 34.6999 9.87409C34.3479 9.24475 34.1719 8.51942 34.1719 7.69809C34.1719 6.87675 34.3532 6.15675 34.7159 5.53809C35.0785 4.90875 35.5639 4.41809 36.1719 4.06609C36.7905 3.71409 37.4839 3.53809 38.2519 3.53809C39.0092 3.53809 39.6919 3.71409 40.2999 4.06609C40.9185 4.41809 41.4039 4.90875 41.7559 5.53809C42.1185 6.15675 42.2999 6.87675 42.2999 7.69809C42.2999 8.51942 42.1185 9.24475 41.7559 9.87409C41.4039 10.4928 40.9185 10.9781 40.2999 11.3301C39.6812 11.6821 38.9932 11.8581 38.2359 11.8581ZM38.2359 10.0821C38.7692 10.0821 39.2332 9.88475 39.6279 9.49009C40.0225 9.08475 40.2199 8.48742 40.2199 7.69809C40.2199 6.90875 40.0225 6.31675 39.6279 5.92209C39.2332 5.51675 38.7745 5.31409 38.2519 5.31409C37.7079 5.31409 37.2385 5.51675 36.8439 5.92209C36.4599 6.31675 36.2679 6.90875 36.2679 7.69809C36.2679 8.48742 36.4599 9.08475 36.8439 9.49009C37.2385 9.88475 37.7025 10.0821 38.2359 10.0821Z" fill="#777E91"/>
<path d="M28.7221 11.8581C27.9115 11.8581 27.1968 11.6821 26.5781 11.3301C25.9595 10.9781 25.4688 10.4874 25.1061 9.85809C24.7541 9.22875 24.5781 8.50875 24.5781 7.69809C24.5781 6.88742 24.7541 6.16742 25.1061 5.53809C25.4688 4.90875 25.9595 4.41809 26.5781 4.06609C27.1968 3.71409 27.9115 3.53809 28.7221 3.53809C29.7355 3.53809 30.5888 3.80475 31.2821 4.33809C31.9755 4.86075 32.4181 5.58609 32.6101 6.51409H30.4501C30.3435 6.13009 30.1301 5.83142 29.8101 5.61809C29.5008 5.39409 29.1328 5.28209 28.7061 5.28209C28.1408 5.28209 27.6608 5.49542 27.2661 5.92209C26.8715 6.34875 26.6741 6.94075 26.6741 7.69809C26.6741 8.45542 26.8715 9.04742 27.2661 9.47409C27.6608 9.90075 28.1408 10.1141 28.7061 10.1141C29.1328 10.1141 29.5008 10.0074 29.8101 9.79409C30.1301 9.58075 30.3435 9.27675 30.4501 8.88209H32.6101C32.4181 9.77809 31.9755 10.4981 31.2821 11.0421C30.5888 11.5861 29.7355 11.8581 28.7221 11.8581Z" fill="#777E91"/>
<path d="M19.7081 11.8581C19.0041 11.8581 18.3854 11.7461 17.8521 11.5221C17.3188 11.2874 16.8921 10.9674 16.5721 10.5621C16.2521 10.1568 16.0601 9.68742 15.9961 9.15409H18.0601C18.1241 9.46342 18.2948 9.73009 18.5721 9.95409C18.8601 10.1674 19.2281 10.2741 19.6761 10.2741C20.1241 10.2741 20.4494 10.1834 20.6521 10.0021C20.8654 9.82075 20.9721 9.61275 20.9721 9.37809C20.9721 9.03675 20.8228 8.80742 20.5241 8.69009C20.2254 8.56209 19.8094 8.43942 19.2761 8.32209C18.9348 8.24742 18.5881 8.15675 18.2361 8.05009C17.8841 7.94342 17.5588 7.81009 17.2601 7.65009C16.9721 7.47942 16.7374 7.26609 16.5561 7.01009C16.3748 6.74342 16.2841 6.41809 16.2841 6.03409C16.2841 5.33009 16.5614 4.73809 17.1161 4.25809C17.6814 3.77809 18.4708 3.53809 19.4841 3.53809C20.4228 3.53809 21.1694 3.75675 21.7241 4.19409C22.2894 4.63142 22.6254 5.23409 22.7321 6.00209H20.7961C20.6788 5.41542 20.2361 5.12209 19.4681 5.12209C19.0841 5.12209 18.7854 5.19675 18.5721 5.34609C18.3694 5.49542 18.2681 5.68209 18.2681 5.90609C18.2681 6.14075 18.4228 6.32742 18.7321 6.46609C19.0414 6.60475 19.4521 6.73275 19.9641 6.85009C20.5188 6.97809 21.0254 7.12209 21.4841 7.28209C21.9534 7.43142 22.3268 7.66075 22.6041 7.97009C22.8814 8.26875 23.0201 8.70075 23.0201 9.26609C23.0308 9.75675 22.9028 10.1994 22.6361 10.5941C22.3694 10.9888 21.9854 11.2981 21.4841 11.5221C20.9828 11.7461 20.3908 11.8581 19.7081 11.8581Z" fill="#777E91"/>
<path d="M13.2663 2.49848C12.893 2.49848 12.5837 2.38648 12.3383 2.16248C12.1037 1.93848 11.9863 1.65582 11.9863 1.31448C11.9863 0.973151 12.1037 0.695818 12.3383 0.482484C12.5837 0.258484 12.893 0.146484 13.2663 0.146484C13.6397 0.146484 13.9437 0.258484 14.1783 0.482484C14.4237 0.695818 14.5463 0.973151 14.5463 1.31448C14.5463 1.65582 14.4237 1.93848 14.1783 2.16248C13.9437 2.38648 13.6397 2.49848 13.2663 2.49848ZM12.2423 11.6665V3.73048H14.2903V11.6665H12.2423Z" fill="#777E91"/>
<path d="M0.835938 11.6668V0.466797H4.65994C5.97194 0.466797 7.04927 0.701464 7.89194 1.1708C8.74527 1.62946 9.3746 2.28013 9.77994 3.1228C10.1959 3.9548 10.4039 4.93613 10.4039 6.0668C10.4039 7.19746 10.1959 8.18413 9.77994 9.0268C9.3746 9.8588 8.74527 10.5095 7.89194 10.9788C7.04927 11.4375 5.97194 11.6668 4.65994 11.6668H0.835938ZM2.88394 9.9068H4.56394C5.5026 9.9068 6.24394 9.75746 6.78794 9.4588C7.33194 9.14946 7.72127 8.71213 7.95594 8.1468C8.1906 7.5708 8.30794 6.87746 8.30794 6.0668C8.30794 5.2668 8.1906 4.5788 7.95594 4.0028C7.72127 3.4268 7.33194 2.98413 6.78794 2.6748C6.24394 2.36546 5.5026 2.2108 4.56394 2.2108H2.88394V9.9068Z" fill="#777E91"/>
</svg>
