<svg width="67" height="12" viewBox="0 0 67 12" fill="none" xmlns="http://www.w3.org/2000/svg">
<path d="M61.7637 11.668V3.73204H63.5877L63.7797 5.22004C64.0677 4.70804 64.457 4.30271 64.9477 4.00404C65.449 3.69471 66.0357 3.54004 66.7077 3.54004V5.70004H66.1317C65.6837 5.70004 65.2837 5.76937 64.9317 5.90804C64.5797 6.04671 64.3023 6.28671 64.0997 6.62804C63.9077 6.96937 63.8117 7.44404 63.8117 8.05204V11.668H61.7637Z" fill="#777E91"/>
<path d="M56.0573 11.86C55.2573 11.86 54.548 11.6894 53.9293 11.348C53.3106 11.0067 52.8253 10.5267 52.4733 9.90804C52.1213 9.28937 51.9453 8.57471 51.9453 7.76404C51.9453 6.94271 52.116 6.21204 52.4573 5.57204C52.8093 4.93204 53.2893 4.43604 53.8973 4.08404C54.516 3.72137 55.2413 3.54004 56.0733 3.54004C56.852 3.54004 57.54 3.71071 58.1373 4.05204C58.7346 4.39337 59.1986 4.86271 59.5293 5.46004C59.8706 6.04671 60.0413 6.70271 60.0413 7.42804C60.0413 7.54537 60.036 7.66804 60.0253 7.79604C60.0253 7.92404 60.02 8.05737 60.0093 8.19604H53.9773C54.02 8.81471 54.2333 9.30004 54.6173 9.65204C55.012 10.004 55.4866 10.18 56.0413 10.18C56.4573 10.18 56.804 10.0894 57.0813 9.90804C57.3693 9.71604 57.5826 9.47071 57.7213 9.17204H59.8013C59.652 9.67337 59.4013 10.132 59.0493 10.548C58.708 10.9534 58.2813 11.2734 57.7693 11.508C57.268 11.7427 56.6973 11.86 56.0573 11.86ZM56.0733 5.20404C55.572 5.20404 55.1293 5.34804 54.7453 5.63604C54.3613 5.91337 54.116 6.34004 54.0093 6.91604H57.9613C57.9293 6.39337 57.7373 5.97737 57.3853 5.66804C57.0333 5.35871 56.596 5.20404 56.0733 5.20404Z" fill="#777E91"/>
<path d="M45.8915 11.6684L42.9795 3.73242H45.1235L47.1395 9.73242L49.1555 3.73242H51.2995L48.3715 11.6684H45.8915Z" fill="#777E91"/>
<path d="M38.2437 11.86C37.4757 11.86 36.7824 11.684 36.1637 11.332C35.5557 10.98 35.0704 10.4947 34.7077 9.87604C34.3557 9.24671 34.1797 8.52137 34.1797 7.70004C34.1797 6.87871 34.361 6.15871 34.7237 5.54004C35.0864 4.91071 35.5717 4.42004 36.1797 4.06804C36.7984 3.71604 37.4917 3.54004 38.2597 3.54004C39.017 3.54004 39.6997 3.71604 40.3077 4.06804C40.9264 4.42004 41.4117 4.91071 41.7637 5.54004C42.1264 6.15871 42.3077 6.87871 42.3077 7.70004C42.3077 8.52137 42.1264 9.24671 41.7637 9.87604C41.4117 10.4947 40.9264 10.98 40.3077 11.332C39.689 11.684 39.001 11.86 38.2437 11.86ZM38.2437 10.084C38.777 10.084 39.241 9.88671 39.6357 9.49204C40.0304 9.08671 40.2277 8.48937 40.2277 7.70004C40.2277 6.91071 40.0304 6.31871 39.6357 5.92404C39.241 5.51871 38.7824 5.31604 38.2597 5.31604C37.7157 5.31604 37.2464 5.51871 36.8517 5.92404C36.4677 6.31871 36.2757 6.91071 36.2757 7.70004C36.2757 8.48937 36.4677 9.08671 36.8517 9.49204C37.2464 9.88671 37.7104 10.084 38.2437 10.084Z" fill="#777E91"/>
<path d="M28.7299 11.86C27.9193 11.86 27.2046 11.684 26.5859 11.332C25.9673 10.98 25.4766 10.4894 25.1139 9.86004C24.7619 9.23071 24.5859 8.51071 24.5859 7.70004C24.5859 6.88937 24.7619 6.16937 25.1139 5.54004C25.4766 4.91071 25.9673 4.42004 26.5859 4.06804C27.2046 3.71604 27.9193 3.54004 28.7299 3.54004C29.7433 3.54004 30.5966 3.80671 31.2899 4.34004C31.9833 4.86271 32.4259 5.58804 32.6179 6.51604H30.4579C30.3513 6.13204 30.1379 5.83337 29.8179 5.62004C29.5086 5.39604 29.1406 5.28404 28.7139 5.28404C28.1486 5.28404 27.6686 5.49737 27.2739 5.92404C26.8793 6.35071 26.6819 6.94271 26.6819 7.70004C26.6819 8.45737 26.8793 9.04937 27.2739 9.47604C27.6686 9.90271 28.1486 10.116 28.7139 10.116C29.1406 10.116 29.5086 10.0094 29.8179 9.79604C30.1379 9.58271 30.3513 9.27871 30.4579 8.88404H32.6179C32.4259 9.78004 31.9833 10.5 31.2899 11.044C30.5966 11.588 29.7433 11.86 28.7299 11.86Z" fill="#777E91"/>
<path d="M19.7149 11.86C19.0109 11.86 18.3923 11.748 17.8589 11.524C17.3256 11.2894 16.8989 10.9694 16.5789 10.564C16.2589 10.1587 16.0669 9.68937 16.0029 9.15604H18.0669C18.1309 9.46537 18.3016 9.73204 18.5789 9.95604C18.8669 10.1694 19.2349 10.276 19.6829 10.276C20.1309 10.276 20.4563 10.1854 20.6589 10.004C20.8723 9.82271 20.9789 9.61471 20.9789 9.38004C20.9789 9.03871 20.8296 8.80937 20.5309 8.69204C20.2323 8.56404 19.8163 8.44137 19.2829 8.32404C18.9416 8.24937 18.5949 8.15871 18.2429 8.05204C17.8909 7.94537 17.5656 7.81204 17.2669 7.65204C16.9789 7.48137 16.7443 7.26804 16.5629 7.01204C16.3816 6.74537 16.2909 6.42004 16.2909 6.03604C16.2909 5.33204 16.5683 4.74004 17.1229 4.26004C17.6883 3.78004 18.4776 3.54004 19.4909 3.54004C20.4296 3.54004 21.1763 3.75871 21.7309 4.19604C22.2963 4.63337 22.6323 5.23604 22.7389 6.00404H20.8029C20.6856 5.41737 20.2429 5.12404 19.4749 5.12404C19.0909 5.12404 18.7923 5.19871 18.5789 5.34804C18.3763 5.49737 18.2749 5.68404 18.2749 5.90804C18.2749 6.14271 18.4296 6.32937 18.7389 6.46804C19.0483 6.60671 19.4589 6.73471 19.9709 6.85204C20.5256 6.98004 21.0323 7.12404 21.4909 7.28404C21.9603 7.43337 22.3336 7.66271 22.6109 7.97204C22.8883 8.27071 23.0269 8.70271 23.0269 9.26804C23.0376 9.75871 22.9096 10.2014 22.6429 10.596C22.3763 10.9907 21.9923 11.3 21.4909 11.524C20.9896 11.748 20.3976 11.86 19.7149 11.86Z" fill="#777E91"/>
<path d="M13.2741 2.50044C12.9008 2.50044 12.5915 2.38844 12.3461 2.16444C12.1115 1.94044 11.9941 1.65777 11.9941 1.31644C11.9941 0.975104 12.1115 0.697771 12.3461 0.484437C12.5915 0.260437 12.9008 0.148438 13.2741 0.148438C13.6475 0.148438 13.9515 0.260437 14.1861 0.484437C14.4315 0.697771 14.5541 0.975104 14.5541 1.31644C14.5541 1.65777 14.4315 1.94044 14.1861 2.16444C13.9515 2.38844 13.6475 2.50044 13.2741 2.50044ZM12.2501 11.6684V3.73244H14.2981V11.6684H12.2501Z" fill="#777E91"/>
<path d="M0.842773 11.6688V0.46875H4.66677C5.97877 0.46875 7.05611 0.703417 7.89877 1.17275C8.75211 1.63142 9.38144 2.28208 9.78677 3.12475C10.2028 3.95675 10.4108 4.93808 10.4108 6.06875C10.4108 7.19942 10.2028 8.18608 9.78677 9.02875C9.38144 9.86075 8.75211 10.5114 7.89877 10.9808C7.05611 11.4394 5.97877 11.6688 4.66677 11.6688H0.842773ZM2.89077 9.90875H4.57077C5.50944 9.90875 6.25077 9.75942 6.79477 9.46075C7.33877 9.15142 7.72811 8.71408 7.96277 8.14875C8.19744 7.57275 8.31477 6.87942 8.31477 6.06875C8.31477 5.26875 8.19744 4.58075 7.96277 4.00475C7.72811 3.42875 7.33877 2.98608 6.79477 2.67675C6.25077 2.36742 5.50944 2.21275 4.57077 2.21275H2.89077V9.90875Z" fill="#777E91"/>
</svg>
