<svg width="307" height="17" viewBox="0 0 307 17" fill="none" xmlns="http://www.w3.org/2000/svg">
<path d="M303.196 1.03516C304.284 1.03516 305.153 1.33382 305.804 1.93116C306.465 2.52849 306.796 3.34449 306.796 4.37916C306.796 5.45649 306.454 6.26716 305.772 6.81116C305.089 7.35516 304.182 7.62716 303.052 7.62716L302.988 8.89116H301.404L301.324 6.37916H301.852C302.886 6.37916 303.676 6.24049 304.22 5.96316C304.774 5.68582 305.052 5.15782 305.052 4.37916C305.052 3.81382 304.886 3.37116 304.556 3.05116C304.236 2.73116 303.788 2.57116 303.212 2.57116C302.636 2.57116 302.182 2.72582 301.852 3.03516C301.521 3.34449 301.356 3.77649 301.356 4.33116H299.644C299.644 3.69116 299.788 3.12049 300.076 2.61916C300.364 2.11782 300.774 1.72849 301.308 1.45116C301.852 1.17382 302.481 1.03516 303.196 1.03516ZM302.172 12.4272C301.841 12.4272 301.564 12.3152 301.34 12.0912C301.116 11.8672 301.004 11.5898 301.004 11.2592C301.004 10.9285 301.116 10.6512 301.34 10.4272C301.564 10.2032 301.841 10.0912 302.172 10.0912C302.492 10.0912 302.764 10.2032 302.988 10.4272C303.212 10.6512 303.324 10.9285 303.324 11.2592C303.324 11.5898 303.212 11.8672 302.988 12.0912C302.764 12.3152 302.492 12.4272 302.172 12.4272Z" fill="#23262F"/>
<path d="M294.251 7.69147C294.251 8.02213 294.23 8.3208 294.187 8.58747H287.451C287.505 9.29147 287.766 9.8568 288.235 10.2835C288.705 10.7101 289.281 10.9235 289.963 10.9235C290.945 10.9235 291.638 10.5128 292.043 9.69147H294.011C293.745 10.5021 293.259 11.1688 292.555 11.6915C291.862 12.2035 290.998 12.4595 289.963 12.4595C289.121 12.4595 288.363 12.2728 287.691 11.8995C287.03 11.5155 286.507 10.9821 286.123 10.2995C285.75 9.60614 285.563 8.80614 285.563 7.89947C285.563 6.9928 285.745 6.19814 286.107 5.51547C286.481 4.82214 286.998 4.2888 287.659 3.91547C288.331 3.54214 289.099 3.35547 289.963 3.35547C290.795 3.35547 291.537 3.5368 292.187 3.89947C292.838 4.26214 293.345 4.77414 293.707 5.43547C294.07 6.08614 294.251 6.83813 294.251 7.69147ZM292.347 7.11547C292.337 6.44347 292.097 5.9048 291.627 5.49947C291.158 5.09414 290.577 4.89147 289.883 4.89147C289.254 4.89147 288.715 5.09414 288.267 5.49947C287.819 5.89414 287.553 6.4328 287.467 7.11547H292.347Z" fill="#23262F"/>
<path d="M275.97 7.89947C275.97 6.9928 276.151 6.19814 276.514 5.51547C276.887 4.82214 277.399 4.2888 278.05 3.91547C278.7 3.54214 279.447 3.35547 280.29 3.35547C281.356 3.35547 282.236 3.61147 282.93 4.12347C283.634 4.6248 284.108 5.3448 284.354 6.28347H282.386C282.226 5.84614 281.97 5.5048 281.618 5.25947C281.266 5.01414 280.823 4.89147 280.29 4.89147C279.543 4.89147 278.946 5.15814 278.498 5.69147C278.06 6.21414 277.842 6.95014 277.842 7.89947C277.842 8.8488 278.06 9.59014 278.498 10.1235C278.946 10.6568 279.543 10.9235 280.29 10.9235C281.346 10.9235 282.044 10.4595 282.386 9.53147H284.354C284.098 10.4275 283.618 11.1421 282.914 11.6755C282.21 12.1981 281.335 12.4595 280.29 12.4595C279.447 12.4595 278.7 12.2728 278.05 11.8995C277.399 11.5155 276.887 10.9821 276.514 10.2995C276.151 9.60614 275.97 8.80614 275.97 7.89947Z" fill="#23262F"/>
<path d="M270.635 3.35547C271.329 3.35547 271.947 3.49947 272.491 3.78747C273.046 4.07547 273.478 4.50214 273.787 5.06747C274.097 5.6328 274.251 6.31547 274.251 7.11547V12.3155H272.443V7.38747C272.443 6.59813 272.246 5.99547 271.852 5.57947C271.457 5.1528 270.918 4.93947 270.235 4.93947C269.553 4.93947 269.009 5.1528 268.603 5.57947C268.209 5.99547 268.011 6.59813 268.011 7.38747V12.3155H266.188V3.49947H268.011V4.50747C268.31 4.1448 268.689 3.86214 269.147 3.65947C269.617 3.4568 270.113 3.35547 270.635 3.35547Z" fill="#23262F"/>
<path d="M254.735 7.86747C254.735 6.98214 254.917 6.19814 255.279 5.51547C255.653 4.8328 256.154 4.3048 256.783 3.93147C257.423 3.54747 258.127 3.35547 258.895 3.35547C259.589 3.35547 260.191 3.49414 260.703 3.77147C261.226 4.03814 261.642 4.37414 261.951 4.77947V3.49947H263.791V12.3155H261.951V11.0035C261.642 11.4195 261.221 11.7661 260.687 12.0435C260.154 12.3208 259.546 12.4595 258.863 12.4595C258.106 12.4595 257.413 12.2675 256.783 11.8835C256.154 11.4888 255.653 10.9448 255.279 10.2515C254.917 9.54747 254.735 8.7528 254.735 7.86747ZM261.951 7.89947C261.951 7.29147 261.823 6.76347 261.567 6.31547C261.322 5.86747 260.997 5.52614 260.591 5.29147C260.186 5.0568 259.749 4.93947 259.279 4.93947C258.81 4.93947 258.373 5.0568 257.967 5.29147C257.562 5.51547 257.231 5.85147 256.975 6.29947C256.73 6.7368 256.607 7.25947 256.607 7.86747C256.607 8.47547 256.73 9.0088 256.975 9.46747C257.231 9.92614 257.562 10.2781 257.967 10.5235C258.383 10.7581 258.821 10.8755 259.279 10.8755C259.749 10.8755 260.186 10.7581 260.591 10.5235C260.997 10.2888 261.322 9.94747 261.567 9.49947C261.823 9.0408 261.951 8.50747 261.951 7.89947Z" fill="#23262F"/>
<path d="M251.519 4.98664V9.86664C251.519 10.1973 251.593 10.4373 251.743 10.5866C251.903 10.7253 252.169 10.7946 252.543 10.7946H253.663V12.3146H252.223C251.401 12.3146 250.772 12.1226 250.335 11.7386C249.897 11.3546 249.679 10.7306 249.679 9.86664V4.98664H248.639V3.49864H249.679V1.30664H251.519V3.49864H253.663V4.98664H251.519Z" fill="#23262F"/>
<path d="M244.043 12.4595C243.35 12.4595 242.726 12.3368 242.171 12.0915C241.627 11.8355 241.195 11.4941 240.875 11.0675C240.555 10.6301 240.385 10.1448 240.363 9.61147H242.251C242.283 9.9848 242.459 10.2995 242.779 10.5555C243.11 10.8008 243.521 10.9235 244.011 10.9235C244.523 10.9235 244.918 10.8275 245.195 10.6355C245.483 10.4328 245.627 10.1768 245.627 9.86747C245.627 9.5368 245.467 9.29147 245.147 9.13147C244.838 8.97147 244.342 8.79547 243.659 8.60347C242.998 8.42214 242.459 8.24614 242.043 8.07547C241.627 7.9048 241.265 7.64347 240.955 7.29147C240.657 6.93947 240.507 6.47547 240.507 5.89947C240.507 5.43014 240.646 5.00347 240.923 4.61947C241.201 4.2248 241.595 3.91547 242.107 3.69147C242.63 3.46747 243.227 3.35547 243.899 3.35547C244.902 3.35547 245.707 3.61147 246.315 4.12347C246.934 4.6248 247.265 5.3128 247.307 6.18747H245.483C245.451 5.7928 245.291 5.47814 245.003 5.24347C244.715 5.0088 244.326 4.89147 243.835 4.89147C243.355 4.89147 242.987 4.98214 242.731 5.16347C242.475 5.3448 242.347 5.5848 242.347 5.88347C242.347 6.11814 242.433 6.31547 242.603 6.47547C242.774 6.63547 242.982 6.76347 243.227 6.85947C243.473 6.9448 243.835 7.0568 244.315 7.19547C244.955 7.36613 245.478 7.54214 245.883 7.72347C246.299 7.89413 246.657 8.15014 246.955 8.49147C247.254 8.8328 247.409 9.28613 247.419 9.85147C247.419 10.3528 247.281 10.8008 247.003 11.1955C246.726 11.5901 246.331 11.8995 245.819 12.1235C245.318 12.3475 244.726 12.4595 244.043 12.4595Z" fill="#23262F"/>
<path d="M237.553 2.33112C237.222 2.33112 236.945 2.21912 236.721 1.99512C236.497 1.77112 236.385 1.49378 236.385 1.16312C236.385 0.832451 236.497 0.555117 236.721 0.331118C236.945 0.107117 237.222 -0.00488281 237.553 -0.00488281C237.873 -0.00488281 238.145 0.107117 238.369 0.331118C238.593 0.555117 238.705 0.832451 238.705 1.16312C238.705 1.49378 238.593 1.77112 238.369 1.99512C238.145 2.21912 237.873 2.33112 237.553 2.33112ZM238.449 3.49912V12.3151H236.625V3.49912H238.449Z" fill="#23262F"/>
<path d="M231.278 12.4595C230.584 12.4595 229.96 12.3368 229.406 12.0915C228.862 11.8355 228.43 11.4941 228.11 11.0675C227.79 10.6301 227.619 10.1448 227.598 9.61147H229.486C229.518 9.9848 229.694 10.2995 230.014 10.5555C230.344 10.8008 230.755 10.9235 231.246 10.9235C231.758 10.9235 232.152 10.8275 232.43 10.6355C232.718 10.4328 232.862 10.1768 232.862 9.86747C232.862 9.5368 232.702 9.29147 232.382 9.13147C232.072 8.97147 231.576 8.79547 230.894 8.60347C230.232 8.42214 229.694 8.24614 229.278 8.07547C228.862 7.9048 228.499 7.64347 228.19 7.29147C227.891 6.93947 227.742 6.47547 227.742 5.89947C227.742 5.43014 227.88 5.00347 228.158 4.61947C228.435 4.2248 228.83 3.91547 229.342 3.69147C229.864 3.46747 230.462 3.35547 231.134 3.35547C232.136 3.35547 232.942 3.61147 233.55 4.12347C234.168 4.6248 234.499 5.3128 234.542 6.18747H232.718C232.686 5.7928 232.526 5.47814 232.238 5.24347C231.95 5.0088 231.56 4.89147 231.07 4.89147C230.59 4.89147 230.222 4.98214 229.966 5.16347C229.71 5.3448 229.582 5.5848 229.582 5.88347C229.582 6.11814 229.667 6.31547 229.838 6.47547C230.008 6.63547 230.216 6.76347 230.462 6.85947C230.707 6.9448 231.07 7.0568 231.55 7.19547C232.19 7.36613 232.712 7.54214 233.118 7.72347C233.534 7.89413 233.891 8.15014 234.19 8.49147C234.488 8.8328 234.643 9.28613 234.654 9.85147C234.654 10.3528 234.515 10.8008 234.238 11.1955C233.96 11.5901 233.566 11.8995 233.054 12.1235C232.552 12.3475 231.96 12.4595 231.278 12.4595Z" fill="#23262F"/>
<path d="M222.731 12.4595C222.037 12.4595 221.413 12.3368 220.859 12.0915C220.315 11.8355 219.883 11.4941 219.563 11.0675C219.243 10.6301 219.072 10.1448 219.051 9.61147H220.939C220.971 9.9848 221.147 10.2995 221.467 10.5555C221.797 10.8008 222.208 10.9235 222.699 10.9235C223.211 10.9235 223.605 10.8275 223.883 10.6355C224.171 10.4328 224.315 10.1768 224.315 9.86747C224.315 9.5368 224.155 9.29147 223.835 9.13147C223.525 8.97147 223.029 8.79547 222.347 8.60347C221.685 8.42214 221.147 8.24614 220.731 8.07547C220.315 7.9048 219.952 7.64347 219.643 7.29147C219.344 6.93947 219.195 6.47547 219.195 5.89947C219.195 5.43014 219.333 5.00347 219.611 4.61947C219.888 4.2248 220.283 3.91547 220.795 3.69147C221.317 3.46747 221.915 3.35547 222.587 3.35547C223.589 3.35547 224.395 3.61147 225.003 4.12347C225.621 4.6248 225.952 5.3128 225.995 6.18747H224.171C224.139 5.7928 223.979 5.47814 223.691 5.24347C223.403 5.0088 223.013 4.89147 222.523 4.89147C222.043 4.89147 221.675 4.98214 221.419 5.16347C221.163 5.3448 221.035 5.5848 221.035 5.88347C221.035 6.11814 221.12 6.31547 221.291 6.47547C221.461 6.63547 221.669 6.76347 221.915 6.85947C222.16 6.9448 222.523 7.0568 223.003 7.19547C223.643 7.36613 224.165 7.54214 224.571 7.72347C224.987 7.89413 225.344 8.15014 225.643 8.49147C225.941 8.8328 226.096 9.28613 226.107 9.85147C226.107 10.3528 225.968 10.8008 225.691 11.1955C225.413 11.5901 225.019 11.8995 224.507 12.1235C224.005 12.3475 223.413 12.4595 222.731 12.4595Z" fill="#23262F"/>
<path d="M208.08 7.86747C208.08 6.98214 208.261 6.19814 208.624 5.51547C208.997 4.8328 209.499 4.3048 210.128 3.93147C210.768 3.54747 211.472 3.35547 212.24 3.35547C212.933 3.35547 213.536 3.49414 214.048 3.77147C214.571 4.03814 214.987 4.37414 215.296 4.77947V3.49947H217.136V12.3155H215.296V11.0035C214.987 11.4195 214.565 11.7661 214.032 12.0435C213.499 12.3208 212.891 12.4595 212.208 12.4595C211.451 12.4595 210.757 12.2675 210.128 11.8835C209.499 11.4888 208.997 10.9448 208.624 10.2515C208.261 9.54747 208.08 8.7528 208.08 7.86747ZM215.296 7.89947C215.296 7.29147 215.168 6.76347 214.912 6.31547C214.667 5.86747 214.341 5.52614 213.936 5.29147C213.531 5.0568 213.093 4.93947 212.624 4.93947C212.155 4.93947 211.717 5.0568 211.312 5.29147C210.907 5.51547 210.576 5.85147 210.32 6.29947C210.075 6.7368 209.952 7.25947 209.952 7.86747C209.952 8.47547 210.075 9.0088 210.32 9.46747C210.576 9.92614 210.907 10.2781 211.312 10.5235C211.728 10.7581 212.165 10.8755 212.624 10.8755C213.093 10.8755 213.531 10.7581 213.936 10.5235C214.341 10.2888 214.667 9.94747 214.912 9.49947C215.168 9.0408 215.296 8.50747 215.296 7.89947Z" fill="#23262F"/>
<path d="M202.737 7.69147C202.737 8.02213 202.716 8.3208 202.673 8.58747H195.937C195.99 9.29147 196.252 9.8568 196.721 10.2835C197.19 10.7101 197.766 10.9235 198.449 10.9235C199.43 10.9235 200.124 10.5128 200.529 9.69147H202.497C202.23 10.5021 201.745 11.1688 201.041 11.6915C200.347 12.2035 199.484 12.4595 198.449 12.4595C197.606 12.4595 196.849 12.2728 196.177 11.8995C195.516 11.5155 194.993 10.9821 194.609 10.2995C194.235 9.60614 194.049 8.80614 194.049 7.89947C194.049 6.9928 194.23 6.19814 194.593 5.51547C194.966 4.82214 195.484 4.2888 196.145 3.91547C196.817 3.54214 197.585 3.35547 198.449 3.35547C199.281 3.35547 200.022 3.5368 200.673 3.89947C201.324 4.26214 201.83 4.77414 202.193 5.43547C202.555 6.08614 202.737 6.83813 202.737 7.69147ZM200.833 7.11547C200.822 6.44347 200.582 5.9048 200.113 5.49947C199.644 5.09414 199.062 4.89147 198.369 4.89147C197.74 4.89147 197.201 5.09414 196.753 5.49947C196.305 5.89414 196.038 6.4328 195.953 7.11547H200.833Z" fill="#23262F"/>
<path d="M188.703 3.35547C189.397 3.35547 190.015 3.49947 190.559 3.78747C191.114 4.07547 191.546 4.50214 191.855 5.06747C192.175 5.6328 192.335 6.31547 192.335 7.11547V12.3155H190.527V7.38747C190.527 6.59813 190.33 5.99547 189.935 5.57947C189.541 5.1528 189.002 4.93947 188.319 4.93947C187.637 4.93947 187.093 5.1528 186.687 5.57947C186.293 5.99547 186.095 6.59813 186.095 7.38747V12.3155H184.287V7.38747C184.287 6.59813 184.09 5.99547 183.695 5.57947C183.301 5.1528 182.762 4.93947 182.079 4.93947C181.397 4.93947 180.853 5.1528 180.447 5.57947C180.053 5.99547 179.855 6.59813 179.855 7.38747V12.3155H178.031V3.49947H179.855V4.50747C180.154 4.1448 180.533 3.86214 180.991 3.65947C181.45 3.4568 181.941 3.35547 182.463 3.35547C183.167 3.35547 183.797 3.5048 184.351 3.80347C184.906 4.10214 185.333 4.53414 185.631 5.09947C185.898 4.56613 186.314 4.1448 186.879 3.83547C187.445 3.51547 188.053 3.35547 188.703 3.35547Z" fill="#23262F"/>
<path d="M174.74 2.33112C174.41 2.33112 174.132 2.21912 173.908 1.99512C173.684 1.77112 173.572 1.49378 173.572 1.16312C173.572 0.832451 173.684 0.555117 173.908 0.331118C174.132 0.107117 174.41 -0.00488281 174.74 -0.00488281C175.06 -0.00488281 175.332 0.107117 175.556 0.331118C175.78 0.555117 175.892 0.832451 175.892 1.16312C175.892 1.49378 175.78 1.77112 175.556 1.99512C175.332 2.21912 175.06 2.33112 174.74 2.33112ZM175.636 3.49912V12.3151H173.812V3.49912H175.636Z" fill="#23262F"/>
<path d="M169.987 4.98664V9.86664C169.987 10.1973 170.062 10.4373 170.211 10.5866C170.371 10.7253 170.638 10.7946 171.011 10.7946H172.131V12.3146H170.691C169.87 12.3146 169.241 12.1226 168.803 11.7386C168.366 11.3546 168.147 10.7306 168.147 9.86664V4.98664H167.107V3.49864H168.147V1.30664H169.987V3.49864H172.131V4.98664H169.987Z" fill="#23262F"/>
<path d="M159.878 4.98664V9.86664C159.878 10.1973 159.953 10.4373 160.102 10.5866C160.262 10.7253 160.529 10.7946 160.902 10.7946H162.022V12.3146H160.582C159.761 12.3146 159.131 12.1226 158.694 11.7386C158.257 11.3546 158.038 10.7306 158.038 9.86664V4.98664H156.998V3.49864H158.038V1.30664H159.878V3.49864H162.022V4.98664H159.878Z" fill="#23262F"/>
<path d="M151.919 3.35559C152.591 3.35559 153.189 3.49959 153.711 3.78759C154.245 4.07559 154.661 4.50225 154.959 5.06759C155.269 5.63292 155.423 6.31559 155.423 7.11559V12.3156H153.615V7.38759C153.615 6.59825 153.418 5.99559 153.023 5.57959C152.629 5.15292 152.09 4.93959 151.407 4.93959C150.725 4.93959 150.181 5.15292 149.775 5.57959C149.381 5.99559 149.183 6.59825 149.183 7.38759V12.3156H147.359V0.475586H149.183V4.52359C149.493 4.15025 149.882 3.86225 150.351 3.65959C150.831 3.45692 151.354 3.35559 151.919 3.35559Z" fill="#23262F"/>
<path d="M140.068 3.35547C140.751 3.35547 141.354 3.49414 141.876 3.77147C142.41 4.03814 142.826 4.37414 143.124 4.77947V3.49947H144.964V12.4595C144.964 13.2701 144.794 13.9901 144.452 14.6195C144.111 15.2595 143.615 15.7608 142.964 16.1235C142.324 16.4861 141.556 16.6675 140.66 16.6675C139.466 16.6675 138.474 16.3848 137.684 15.8195C136.895 15.2648 136.447 14.5075 136.34 13.5475H138.148C138.287 14.0061 138.58 14.3741 139.028 14.6515C139.487 14.9395 140.031 15.0835 140.66 15.0835C141.396 15.0835 141.988 14.8595 142.436 14.4115C142.895 13.9635 143.124 13.3128 143.124 12.4595V10.9875C142.815 11.4035 142.394 11.7555 141.86 12.0435C141.338 12.3208 140.74 12.4595 140.068 12.4595C139.3 12.4595 138.596 12.2675 137.956 11.8835C137.327 11.4888 136.826 10.9448 136.452 10.2515C136.09 9.54747 135.908 8.7528 135.908 7.86747C135.908 6.98214 136.09 6.19814 136.452 5.51547C136.826 4.8328 137.327 4.3048 137.956 3.93147C138.596 3.54747 139.3 3.35547 140.068 3.35547ZM143.124 7.89947C143.124 7.29147 142.996 6.76347 142.74 6.31547C142.495 5.86747 142.17 5.52614 141.764 5.29147C141.359 5.0568 140.922 4.93947 140.452 4.93947C139.983 4.93947 139.546 5.0568 139.14 5.29147C138.735 5.51547 138.404 5.85147 138.148 6.29947C137.903 6.7368 137.78 7.25947 137.78 7.86747C137.78 8.47547 137.903 9.0088 138.148 9.46747C138.404 9.92614 138.735 10.2781 139.14 10.5235C139.556 10.7581 139.994 10.8755 140.452 10.8755C140.922 10.8755 141.359 10.7581 141.764 10.5235C142.17 10.2888 142.495 9.94747 142.74 9.49947C142.996 9.0408 143.124 8.50747 143.124 7.89947Z" fill="#23262F"/>
<path d="M133.225 2.33112C132.894 2.33112 132.617 2.21912 132.393 1.99512C132.169 1.77112 132.057 1.49378 132.057 1.16312C132.057 0.832451 132.169 0.555117 132.393 0.331118C132.617 0.107117 132.894 -0.00488281 133.225 -0.00488281C133.545 -0.00488281 133.817 0.107117 134.041 0.331118C134.265 0.555117 134.377 0.832451 134.377 1.16312C134.377 1.49378 134.265 1.77112 134.041 1.99512C133.817 2.21912 133.545 2.33112 133.225 2.33112ZM134.121 3.49912V12.3151H132.297V3.49912H134.121Z" fill="#23262F"/>
<path d="M126.354 3.35547C127.048 3.35547 127.666 3.49947 128.21 3.78747C128.765 4.07547 129.197 4.50214 129.506 5.06747C129.816 5.6328 129.97 6.31547 129.97 7.11547V12.3155H128.162V7.38747C128.162 6.59813 127.965 5.99547 127.57 5.57947C127.176 5.1528 126.637 4.93947 125.954 4.93947C125.272 4.93947 124.728 5.1528 124.322 5.57947C123.928 5.99547 123.73 6.59813 123.73 7.38747V12.3155H121.906V3.49947H123.73V4.50747C124.029 4.1448 124.408 3.86214 124.866 3.65947C125.336 3.4568 125.832 3.35547 126.354 3.35547Z" fill="#23262F"/>
<path d="M115.956 7.69147C115.956 8.02213 115.934 8.3208 115.892 8.58747H109.156C109.209 9.29147 109.47 9.8568 109.94 10.2835C110.409 10.7101 110.985 10.9235 111.668 10.9235C112.649 10.9235 113.342 10.5128 113.748 9.69147H115.716C115.449 10.5021 114.964 11.1688 114.26 11.6915C113.566 12.2035 112.702 12.4595 111.668 12.4595C110.825 12.4595 110.068 12.2728 109.396 11.8995C108.734 11.5155 108.212 10.9821 107.828 10.2995C107.454 9.60614 107.268 8.80614 107.268 7.89947C107.268 6.9928 107.449 6.19814 107.812 5.51547C108.185 4.82214 108.702 4.2888 109.364 3.91547C110.036 3.54214 110.804 3.35547 111.668 3.35547C112.5 3.35547 113.241 3.5368 113.892 3.89947C114.542 4.26214 115.049 4.77414 115.412 5.43547C115.774 6.08614 115.956 6.83813 115.956 7.69147ZM114.052 7.11547C114.041 6.44347 113.801 5.9048 113.332 5.49947C112.862 5.09414 112.281 4.89147 111.588 4.89147C110.958 4.89147 110.42 5.09414 109.972 5.49947C109.524 5.89414 109.257 6.4328 109.172 7.11547H114.052Z" fill="#23262F"/>
<path d="M103.558 4.77947C103.825 4.33147 104.177 3.9848 104.614 3.73947C105.062 3.48347 105.59 3.35547 106.198 3.35547V5.24347H105.734C105.02 5.24347 104.476 5.4248 104.102 5.78747C103.74 6.15014 103.558 6.77947 103.558 7.67547V12.3155H101.734V3.49947H103.558V4.77947Z" fill="#23262F"/>
<path d="M98.4434 2.33112C98.1127 2.33112 97.8354 2.21912 97.6114 1.99512C97.3874 1.77112 97.2754 1.49378 97.2754 1.16312C97.2754 0.832451 97.3874 0.555117 97.6114 0.331118C97.8354 0.107117 98.1127 -0.00488281 98.4434 -0.00488281C98.7634 -0.00488281 99.0354 0.107117 99.2594 0.331118C99.4834 0.555117 99.5954 0.832451 99.5954 1.16312C99.5954 1.49378 99.4834 1.77112 99.2594 1.99512C99.0354 2.21912 98.7634 2.33112 98.4434 2.33112ZM99.3394 3.49912V12.3151H97.5154V3.49912H99.3394Z" fill="#23262F"/>
<path d="M95.1089 3.49902V12.315H93.2849V11.275C92.9969 11.6377 92.6183 11.9257 92.1489 12.139C91.6903 12.3417 91.1996 12.443 90.6769 12.443C89.9836 12.443 89.3596 12.299 88.8049 12.011C88.2609 11.723 87.8289 11.2964 87.5089 10.731C87.1996 10.1657 87.0449 9.48302 87.0449 8.68302V3.49902H88.8529V8.41102C88.8529 9.20036 89.0502 9.80836 89.4449 10.235C89.8396 10.651 90.3783 10.859 91.0609 10.859C91.7436 10.859 92.2823 10.651 92.6769 10.235C93.0823 9.80836 93.2849 9.20036 93.2849 8.41102V3.49902H95.1089Z" fill="#23262F"/>
<path d="M75.6738 7.86747C75.6738 6.98214 75.8552 6.19814 76.2178 5.51547C76.5912 4.8328 77.0925 4.3048 77.7218 3.93147C78.3618 3.54747 79.0712 3.35547 79.8498 3.35547C80.5325 3.35547 81.1352 3.49414 81.6578 3.77147C82.1912 4.0488 82.6018 4.3848 82.8898 4.77947V3.49947H84.7298V16.5075H82.8898V11.0355C82.6018 11.4301 82.1858 11.7661 81.6418 12.0435C81.0978 12.3208 80.4792 12.4595 79.7858 12.4595C79.0285 12.4595 78.3352 12.2675 77.7058 11.8835C77.0872 11.4888 76.5912 10.9448 76.2178 10.2515C75.8552 9.54747 75.6738 8.7528 75.6738 7.86747ZM82.8898 7.89947C82.8898 7.29147 82.7618 6.76347 82.5058 6.31547C82.2605 5.86747 81.9352 5.52614 81.5298 5.29147C81.1245 5.0568 80.6872 4.93947 80.2178 4.93947C79.7485 4.93947 79.3112 5.0568 78.9058 5.29147C78.5005 5.51547 78.1698 5.85147 77.9138 6.29947C77.6685 6.7368 77.5458 7.25947 77.5458 7.86747C77.5458 8.47547 77.6685 9.0088 77.9138 9.46747C78.1698 9.92614 78.5005 10.2781 78.9058 10.5235C79.3218 10.7581 79.7592 10.8755 80.2178 10.8755C80.6872 10.8755 81.1245 10.7581 81.5298 10.5235C81.9352 10.2888 82.2605 9.94747 82.5058 9.49947C82.7618 9.0408 82.8898 8.50747 82.8898 7.89947Z" fill="#23262F"/>
<path d="M74.4868 7.69147C74.4868 8.02213 74.4655 8.3208 74.4228 8.58747H67.6868C67.7402 9.29147 68.0015 9.8568 68.4708 10.2835C68.9402 10.7101 69.5162 10.9235 70.1988 10.9235C71.1802 10.9235 71.8735 10.5128 72.2788 9.69147H74.2468C73.9802 10.5021 73.4948 11.1688 72.7908 11.6915C72.0975 12.2035 71.2335 12.4595 70.1988 12.4595C69.3562 12.4595 68.5988 12.2728 67.9268 11.8995C67.2655 11.5155 66.7428 10.9821 66.3588 10.2995C65.9855 9.60614 65.7988 8.80614 65.7988 7.89947C65.7988 6.9928 65.9802 6.19814 66.3428 5.51547C66.7162 4.82214 67.2335 4.2888 67.8948 3.91547C68.5668 3.54214 69.3348 3.35547 70.1988 3.35547C71.0308 3.35547 71.7722 3.5368 72.4228 3.89947C73.0735 4.26214 73.5802 4.77414 73.9428 5.43547C74.3055 6.08614 74.4868 6.83813 74.4868 7.69147ZM72.5828 7.11547C72.5722 6.44347 72.3322 5.9048 71.8628 5.49947C71.3935 5.09414 70.8122 4.89147 70.1188 4.89147C69.4895 4.89147 68.9508 5.09414 68.5028 5.49947C68.0548 5.89414 67.7882 6.4328 67.7028 7.11547H72.5828Z" fill="#23262F"/>
<path d="M62.0896 4.77947C62.3563 4.33147 62.7083 3.9848 63.1456 3.73947C63.5936 3.48347 64.1216 3.35547 64.7296 3.35547V5.24347H64.2656C63.551 5.24347 63.007 5.4248 62.6336 5.78747C62.271 6.15014 62.0896 6.77947 62.0896 7.67547V12.3155H60.2656V3.49947H62.0896V4.77947Z" fill="#23262F"/>
<path d="M53.7027 3.49902V12.315H51.8787V11.275C51.5907 11.6377 51.212 11.9257 50.7427 12.139C50.284 12.3417 49.7933 12.443 49.2707 12.443C48.5773 12.443 47.9533 12.299 47.3987 12.011C46.8547 11.723 46.4227 11.2964 46.1027 10.731C45.7933 10.1657 45.6387 9.48302 45.6387 8.68302V3.49902H47.4467V8.41102C47.4467 9.20036 47.644 9.80836 48.0387 10.235C48.4333 10.651 48.972 10.859 49.6547 10.859C50.3373 10.859 50.876 10.651 51.2707 10.235C51.676 9.80836 51.8787 9.20036 51.8787 8.41102V3.49902H53.7027Z" fill="#23262F"/>
<path d="M39.3398 12.4595C38.5078 12.4595 37.7558 12.2728 37.0838 11.8995C36.4118 11.5155 35.8838 10.9821 35.4998 10.2995C35.1158 9.60614 34.9238 8.80614 34.9238 7.89947C34.9238 7.00347 35.1212 6.2088 35.5158 5.51547C35.9105 4.82214 36.4492 4.2888 37.1318 3.91547C37.8145 3.54214 38.5772 3.35547 39.4198 3.35547C40.2625 3.35547 41.0252 3.54214 41.7078 3.91547C42.3905 4.2888 42.9292 4.82214 43.3238 5.51547C43.7185 6.2088 43.9158 7.00347 43.9158 7.89947C43.9158 8.79547 43.7132 9.59014 43.3078 10.2835C42.9025 10.9768 42.3478 11.5155 41.6438 11.8995C40.9505 12.2728 40.1825 12.4595 39.3398 12.4595ZM39.3398 10.8755C39.8092 10.8755 40.2465 10.7635 40.6518 10.5395C41.0678 10.3155 41.4038 9.97947 41.6598 9.53147C41.9158 9.08347 42.0438 8.53947 42.0438 7.89947C42.0438 7.25947 41.9212 6.7208 41.6758 6.28347C41.4305 5.83547 41.1052 5.49947 40.6998 5.27547C40.2945 5.05147 39.8572 4.93947 39.3878 4.93947C38.9185 4.93947 38.4812 5.05147 38.0758 5.27547C37.6812 5.49947 37.3665 5.83547 37.1318 6.28347C36.8972 6.7208 36.7798 7.25947 36.7798 7.89947C36.7798 8.8488 37.0198 9.5848 37.4998 10.1075C37.9905 10.6195 38.6038 10.8755 39.3398 10.8755Z" fill="#23262F"/>
<path d="M34.1401 3.49902L28.7321 16.459H26.8441L28.6361 12.171L25.1641 3.49902H27.1961L29.6761 10.219L32.2521 3.49902H34.1401Z" fill="#23262F"/>
<path d="M15.668 12.4595C14.836 12.4595 14.084 12.2728 13.412 11.8995C12.74 11.5155 12.212 10.9821 11.828 10.2995C11.444 9.60614 11.252 8.80614 11.252 7.89947C11.252 7.00347 11.4493 6.2088 11.844 5.51547C12.2386 4.82214 12.7773 4.2888 13.46 3.91547C14.1426 3.54214 14.9053 3.35547 15.748 3.35547C16.5906 3.35547 17.3533 3.54214 18.036 3.91547C18.7186 4.2888 19.2573 4.82214 19.652 5.51547C20.0466 6.2088 20.244 7.00347 20.244 7.89947C20.244 8.79547 20.0413 9.59014 19.636 10.2835C19.2306 10.9768 18.676 11.5155 17.972 11.8995C17.2786 12.2728 16.5106 12.4595 15.668 12.4595ZM15.668 10.8755C16.1373 10.8755 16.5746 10.7635 16.98 10.5395C17.396 10.3155 17.732 9.97947 17.988 9.53147C18.244 9.08347 18.372 8.53947 18.372 7.89947C18.372 7.25947 18.2493 6.7208 18.004 6.28347C17.7586 5.83547 17.4333 5.49947 17.028 5.27547C16.6226 5.05147 16.1853 4.93947 15.716 4.93947C15.2466 4.93947 14.8093 5.05147 14.404 5.27547C14.0093 5.49947 13.6946 5.83547 13.46 6.28347C13.2253 6.7208 13.108 7.25947 13.108 7.89947C13.108 8.8488 13.348 9.5848 13.828 10.1075C14.3186 10.6195 14.932 10.8755 15.668 10.8755Z" fill="#23262F"/>
<path d="M4.132 1.19531C5.316 1.19531 6.35067 1.42465 7.236 1.88331C8.132 2.33131 8.82 2.98198 9.3 3.83531C9.79067 4.67798 10.036 5.66465 10.036 6.79531C10.036 7.92598 9.79067 8.90731 9.3 9.73931C8.82 10.5713 8.132 11.2113 7.236 11.6593C6.35067 12.0966 5.316 12.3153 4.132 12.3153H0.5V1.19531H4.132ZM4.132 10.8273C5.43333 10.8273 6.43067 10.4753 7.124 9.77131C7.81733 9.06731 8.164 8.07531 8.164 6.79531C8.164 5.50465 7.81733 4.49665 7.124 3.77131C6.43067 3.04598 5.43333 2.68331 4.132 2.68331H2.324V10.8273H4.132Z" fill="#23262F"/>
</svg>
