<svg width="87" height="7" viewBox="0 0 87 7" fill="none" xmlns="http://www.w3.org/2000/svg">
<path d="M4.37505 6.60175C6.77596 6.60175 8.72228 5.29075 8.72228 3.67355C8.72228 2.05636 6.77596 0.745361 4.37505 0.745361C1.97415 0.745361 0.027832 2.05636 0.027832 3.67355C0.027832 5.29075 1.97415 6.60175 4.37505 6.60175Z" fill="#141416"/>
<path d="M23.9376 6.60175C26.3385 6.60175 28.2848 5.29075 28.2848 3.67355C28.2848 2.05636 26.3385 0.745361 23.9376 0.745361C21.5366 0.745361 19.5903 2.05636 19.5903 3.67355C19.5903 5.29075 21.5366 6.60175 23.9376 6.60175Z" fill="#E1E5EE"/>
<path d="M43.5001 6.60175C45.901 6.60175 47.8473 5.29075 47.8473 3.67355C47.8473 2.05636 45.901 0.745361 43.5001 0.745361C41.0991 0.745361 39.1528 2.05636 39.1528 3.67355C39.1528 5.29075 41.0991 6.60175 43.5001 6.60175Z" fill="#E1E5EE"/>
<path d="M63.0626 6.60175C65.4635 6.60175 67.4098 5.29075 67.4098 3.67355C67.4098 2.05636 65.4635 0.745361 63.0626 0.745361C60.6616 0.745361 58.7153 2.05636 58.7153 3.67355C58.7153 5.29075 60.6616 6.60175 63.0626 6.60175Z" fill="#E1E5EE"/>
<path d="M82.6251 6.60175C85.026 6.60175 86.9723 5.29075 86.9723 3.67355C86.9723 2.05636 85.026 0.745361 82.6251 0.745361C80.2241 0.745361 78.2778 2.05636 78.2778 3.67355C78.2778 5.29075 80.2241 6.60175 82.6251 6.60175Z" fill="#E1E5EE"/>
</svg>
