<svg width="87" height="7" viewBox="0 0 87 7" fill="none" xmlns="http://www.w3.org/2000/svg">
<path d="M4.37457 6.60175C6.77547 6.60175 8.72179 5.29075 8.72179 3.67355C8.72179 2.05636 6.77547 0.745361 4.37457 0.745361C1.97366 0.745361 0.0273438 2.05636 0.0273438 3.67355C0.0273438 5.29075 1.97366 6.60175 4.37457 6.60175Z" fill="#141416"/>
<path d="M23.9371 6.60175C26.338 6.60175 28.2843 5.29075 28.2843 3.67355C28.2843 2.05636 26.338 0.745361 23.9371 0.745361C21.5362 0.745361 19.5898 2.05636 19.5898 3.67355C19.5898 5.29075 21.5362 6.60175 23.9371 6.60175Z" fill="#E1E5EE"/>
<path d="M43.4996 6.60175C45.9005 6.60175 47.8468 5.29075 47.8468 3.67355C47.8468 2.05636 45.9005 0.745361 43.4996 0.745361C41.0987 0.745361 39.1523 2.05636 39.1523 3.67355C39.1523 5.29075 41.0987 6.60175 43.4996 6.60175Z" fill="#E1E5EE"/>
<path d="M63.0621 6.60175C65.463 6.60175 67.4093 5.29075 67.4093 3.67355C67.4093 2.05636 65.463 0.745361 63.0621 0.745361C60.6612 0.745361 58.7148 2.05636 58.7148 3.67355C58.7148 5.29075 60.6612 6.60175 63.0621 6.60175Z" fill="#E1E5EE"/>
<path d="M82.6246 6.60175C85.0255 6.60175 86.9718 5.29075 86.9718 3.67355C86.9718 2.05636 85.0255 0.745361 82.6246 0.745361C80.2237 0.745361 78.2773 2.05636 78.2773 3.67355C78.2773 5.29075 80.2237 6.60175 82.6246 6.60175Z" fill="#E1E5EE"/>
</svg>
