<svg width="169" height="17" viewBox="0 0 169 17" fill="none" xmlns="http://www.w3.org/2000/svg">
<path d="M165.325 12.4917C164.631 12.4917 164.007 12.369 163.453 12.1237C162.909 11.8677 162.477 11.5264 162.157 11.0997C161.837 10.6624 161.666 10.177 161.645 9.64369H163.533C163.565 10.017 163.741 10.3317 164.061 10.5877C164.391 10.833 164.802 10.9557 165.293 10.9557C165.805 10.9557 166.199 10.8597 166.477 10.6677C166.765 10.465 166.909 10.209 166.909 9.8997C166.909 9.56903 166.749 9.3237 166.429 9.1637C166.119 9.0037 165.623 8.8277 164.941 8.6357C164.279 8.45436 163.741 8.27836 163.325 8.1077C162.909 7.93703 162.546 7.67569 162.237 7.3237C161.938 6.9717 161.789 6.5077 161.789 5.93169C161.789 5.46236 161.927 5.03569 162.205 4.65169C162.482 4.25703 162.877 3.9477 163.389 3.72369C163.911 3.4997 164.509 3.3877 165.181 3.3877C166.183 3.3877 166.989 3.6437 167.597 4.15569C168.215 4.65703 168.546 5.34503 168.589 6.2197H166.765C166.733 5.82503 166.573 5.51036 166.285 5.27569C165.997 5.04103 165.607 4.9237 165.117 4.9237C164.637 4.9237 164.269 5.01436 164.013 5.19569C163.757 5.37703 163.629 5.61703 163.629 5.9157C163.629 6.15036 163.714 6.3477 163.885 6.5077C164.055 6.6677 164.263 6.7957 164.509 6.8917C164.754 6.97703 165.117 7.08903 165.597 7.22769C166.237 7.39836 166.759 7.57436 167.165 7.7557C167.581 7.92636 167.938 8.18236 168.237 8.52369C168.535 8.86503 168.69 9.31836 168.701 9.88369C168.701 10.385 168.562 10.833 168.285 11.2277C168.007 11.6224 167.613 11.9317 167.101 12.1557C166.599 12.3797 166.007 12.4917 165.325 12.4917Z" fill="#23262F"/>
<path d="M159.73 0.507812V12.3478H157.906V0.507812H159.73Z" fill="#23262F"/>
<path d="M154.615 2.36334C154.285 2.36334 154.007 2.25134 153.783 2.02734C153.559 1.80334 153.447 1.52601 153.447 1.19534C153.447 0.864677 153.559 0.587344 153.783 0.363344C154.007 0.139344 154.285 0.0273438 154.615 0.0273438C154.935 0.0273438 155.207 0.139344 155.431 0.363344C155.655 0.587344 155.767 0.864677 155.767 1.19534C155.767 1.52601 155.655 1.80334 155.431 2.02734C155.207 2.25134 154.935 2.36334 154.615 2.36334ZM155.511 3.53134V12.3473H153.687V3.53134H155.511Z" fill="#23262F"/>
<path d="M142.236 7.8997C142.236 7.01436 142.418 6.23036 142.78 5.5477C143.154 4.86503 143.655 4.33703 144.284 3.96369C144.924 3.5797 145.628 3.3877 146.396 3.3877C147.09 3.3877 147.692 3.52636 148.204 3.80369C148.727 4.07036 149.143 4.40636 149.452 4.8117V3.5317H151.292V12.3477H149.452V11.0357C149.143 11.4517 148.722 11.7984 148.188 12.0757C147.655 12.353 147.047 12.4917 146.364 12.4917C145.607 12.4917 144.914 12.2997 144.284 11.9157C143.655 11.521 143.154 10.977 142.78 10.2837C142.418 9.5797 142.236 8.78503 142.236 7.8997ZM149.452 7.93169C149.452 7.3237 149.324 6.7957 149.068 6.3477C148.823 5.8997 148.498 5.55836 148.092 5.3237C147.687 5.08903 147.25 4.97169 146.78 4.97169C146.311 4.97169 145.874 5.08903 145.468 5.3237C145.063 5.5477 144.732 5.88369 144.476 6.33169C144.231 6.76903 144.108 7.2917 144.108 7.8997C144.108 8.5077 144.231 9.04103 144.476 9.4997C144.732 9.95836 145.063 10.3104 145.468 10.5557C145.884 10.7904 146.322 10.9077 146.78 10.9077C147.25 10.9077 147.687 10.7904 148.092 10.5557C148.498 10.321 148.823 9.9797 149.068 9.5317C149.324 9.07303 149.452 8.5397 149.452 7.93169Z" fill="#23262F"/>
<path d="M139.019 5.01887V9.89887C139.019 10.2295 139.093 10.4695 139.243 10.6189C139.403 10.7575 139.669 10.8269 140.043 10.8269H141.163V12.3469H139.723C138.901 12.3469 138.272 12.1549 137.835 11.7709C137.397 11.3869 137.179 10.7629 137.179 9.89887V5.01887H136.139V3.53087H137.179V1.33887H139.019V3.53087H141.163V5.01887H139.019Z" fill="#23262F"/>
<path d="M135.096 7.72369C135.096 8.05436 135.075 8.35303 135.032 8.61969H128.296C128.35 9.32369 128.611 9.88903 129.08 10.3157C129.55 10.7424 130.126 10.9557 130.808 10.9557C131.79 10.9557 132.483 10.545 132.888 9.72369H134.856C134.59 10.5344 134.104 11.201 133.4 11.7237C132.707 12.2357 131.843 12.4917 130.808 12.4917C129.966 12.4917 129.208 12.305 128.536 11.9317C127.875 11.5477 127.352 11.0144 126.968 10.3317C126.595 9.63836 126.408 8.83836 126.408 7.93169C126.408 7.02503 126.59 6.23036 126.952 5.5477C127.326 4.85436 127.843 4.32103 128.504 3.94769C129.176 3.57436 129.944 3.3877 130.808 3.3877C131.64 3.3877 132.382 3.56903 133.032 3.93169C133.683 4.29436 134.19 4.80636 134.552 5.4677C134.915 6.11836 135.096 6.87036 135.096 7.72369ZM133.192 7.14769C133.182 6.47569 132.942 5.93703 132.472 5.5317C132.003 5.12636 131.422 4.9237 130.728 4.9237C130.099 4.9237 129.56 5.12636 129.112 5.5317C128.664 5.92636 128.398 6.46503 128.312 7.14769H133.192Z" fill="#23262F"/>
<path d="M119.304 1.22754C120.488 1.22754 121.523 1.45687 122.408 1.91554C123.304 2.36354 123.992 3.01421 124.472 3.86754C124.963 4.71021 125.208 5.69687 125.208 6.82754C125.208 7.95821 124.963 8.93954 124.472 9.77154C123.992 10.6035 123.304 11.2435 122.408 11.6915C121.523 12.1289 120.488 12.3475 119.304 12.3475H115.672V1.22754H119.304ZM119.304 10.8595C120.605 10.8595 121.603 10.5075 122.296 9.80354C122.989 9.09954 123.336 8.10754 123.336 6.82754C123.336 5.53687 122.989 4.52887 122.296 3.80354C121.603 3.07821 120.605 2.71554 119.304 2.71554H117.496V10.8595H119.304Z" fill="#23262F"/>
<path d="M109.121 0.507812V12.3478H107.297V0.507812H109.121Z" fill="#23262F"/>
<path d="M95.8457 7.8997C95.8457 7.01436 96.027 6.23036 96.3897 5.5477C96.763 4.86503 97.2644 4.33703 97.8937 3.96369C98.5337 3.5797 99.2377 3.3877 100.006 3.3877C100.699 3.3877 101.302 3.52636 101.814 3.80369C102.336 4.07036 102.752 4.40636 103.062 4.8117V3.5317H104.902V12.3477H103.062V11.0357C102.752 11.4517 102.331 11.7984 101.798 12.0757C101.264 12.353 100.656 12.4917 99.9737 12.4917C99.2164 12.4917 98.523 12.2997 97.8937 11.9157C97.2644 11.521 96.763 10.977 96.3897 10.2837C96.027 9.5797 95.8457 8.78503 95.8457 7.8997ZM103.062 7.93169C103.062 7.3237 102.934 6.7957 102.678 6.3477C102.432 5.8997 102.107 5.55836 101.702 5.3237C101.296 5.08903 100.859 4.97169 100.39 4.97169C99.9204 4.97169 99.483 5.08903 99.0777 5.3237C98.6724 5.5477 98.3417 5.88369 98.0857 6.33169C97.8404 6.76903 97.7177 7.2917 97.7177 7.8997C97.7177 8.5077 97.8404 9.04103 98.0857 9.4997C98.3417 9.95836 98.6724 10.3104 99.0777 10.5557C99.4937 10.7904 99.931 10.9077 100.39 10.9077C100.859 10.9077 101.296 10.7904 101.702 10.5557C102.107 10.321 102.432 9.9797 102.678 9.5317C102.934 9.07303 103.062 8.5397 103.062 7.93169Z" fill="#23262F"/>
<path d="M92.6281 5.01887V9.89887C92.6281 10.2295 92.7027 10.4695 92.8521 10.6189C93.0121 10.7575 93.2787 10.8269 93.652 10.8269H94.772V12.3469H93.332C92.5107 12.3469 91.8814 12.1549 91.444 11.7709C91.0067 11.3869 90.788 10.7629 90.788 9.89887V5.01887H89.748V3.53087H90.788V1.33887H92.6281V3.53087H94.772V5.01887H92.6281Z" fill="#23262F"/>
<path d="M87.209 2.36334C86.8783 2.36334 86.601 2.25134 86.377 2.02734C86.153 1.80334 86.041 1.52601 86.041 1.19534C86.041 0.864677 86.153 0.587344 86.377 0.363344C86.601 0.139344 86.8783 0.0273438 87.209 0.0273438C87.529 0.0273438 87.801 0.139344 88.025 0.363344C88.249 0.587344 88.361 0.864677 88.361 1.19534C88.361 1.52601 88.249 1.80334 88.025 2.02734C87.801 2.25134 87.529 2.36334 87.209 2.36334ZM88.105 3.53134V12.3473H86.281V3.53134H88.105Z" fill="#23262F"/>
<path d="M77.2615 4.82769C77.5708 4.42236 77.9922 4.08103 78.5255 3.80369C79.0588 3.52636 79.6615 3.3877 80.3335 3.3877C81.1015 3.3877 81.8002 3.5797 82.4295 3.96369C83.0695 4.33703 83.5708 4.86503 83.9335 5.5477C84.2962 6.23036 84.4775 7.01436 84.4775 7.8997C84.4775 8.78503 84.2962 9.5797 83.9335 10.2837C83.5708 10.977 83.0695 11.521 82.4295 11.9157C81.8002 12.2997 81.1015 12.4917 80.3335 12.4917C79.6615 12.4917 79.0642 12.3584 78.5415 12.0917C78.0188 11.8144 77.5922 11.473 77.2615 11.0677V16.5397H75.4375V3.5317H77.2615V4.82769ZM82.6215 7.8997C82.6215 7.2917 82.4935 6.76903 82.2375 6.33169C81.9922 5.88369 81.6615 5.5477 81.2455 5.3237C80.8402 5.08903 80.4028 4.97169 79.9335 4.97169C79.4748 4.97169 79.0375 5.08903 78.6215 5.3237C78.2162 5.55836 77.8855 5.8997 77.6295 6.3477C77.3842 6.7957 77.2615 7.3237 77.2615 7.93169C77.2615 8.5397 77.3842 9.07303 77.6295 9.5317C77.8855 9.9797 78.2162 10.321 78.6215 10.5557C79.0375 10.7904 79.4748 10.9077 79.9335 10.9077C80.4028 10.9077 80.8402 10.7904 81.2455 10.5557C81.6615 10.3104 81.9922 9.95836 82.2375 9.4997C82.4935 9.04103 82.6215 8.5077 82.6215 7.8997Z" fill="#23262F"/>
<path d="M70.0902 12.4917C69.3968 12.4917 68.7728 12.369 68.2182 12.1237C67.6742 11.8677 67.2422 11.5264 66.9222 11.0997C66.6022 10.6624 66.4315 10.177 66.4102 9.64369H68.2982C68.3302 10.017 68.5062 10.3317 68.8262 10.5877C69.1568 10.833 69.5675 10.9557 70.0582 10.9557C70.5702 10.9557 70.9648 10.8597 71.2422 10.6677C71.5302 10.465 71.6742 10.209 71.6742 9.8997C71.6742 9.56903 71.5142 9.3237 71.1942 9.1637C70.8848 9.0037 70.3888 8.8277 69.7062 8.6357C69.0448 8.45436 68.5062 8.27836 68.0902 8.1077C67.6742 7.93703 67.3115 7.67569 67.0022 7.3237C66.7035 6.9717 66.5542 6.5077 66.5542 5.93169C66.5542 5.46236 66.6928 5.03569 66.9702 4.65169C67.2475 4.25703 67.6422 3.9477 68.1542 3.72369C68.6768 3.4997 69.2742 3.3877 69.9462 3.3877C70.9488 3.3877 71.7542 3.6437 72.3622 4.15569C72.9808 4.65703 73.3115 5.34503 73.3542 6.2197H71.5302C71.4982 5.82503 71.3382 5.51036 71.0502 5.27569C70.7622 5.04103 70.3728 4.9237 69.8822 4.9237C69.4022 4.9237 69.0342 5.01436 68.7782 5.19569C68.5222 5.37703 68.3942 5.61703 68.3942 5.9157C68.3942 6.15036 68.4795 6.3477 68.6502 6.5077C68.8208 6.6677 69.0288 6.7957 69.2742 6.8917C69.5195 6.97703 69.8822 7.08903 70.3622 7.22769C71.0022 7.39836 71.5248 7.57436 71.9302 7.7557C72.3462 7.92636 72.7035 8.18236 73.0022 8.52369C73.3008 8.86503 73.4555 9.31836 73.4662 9.88369C73.4662 10.385 73.3275 10.833 73.0502 11.2277C72.7728 11.6224 72.3782 11.9317 71.8662 12.1557C71.3648 12.3797 70.7728 12.4917 70.0902 12.4917Z" fill="#23262F"/>
<path d="M60.5117 12.4917C59.6797 12.4917 58.9277 12.305 58.2557 11.9317C57.5837 11.5477 57.0557 11.0144 56.6717 10.3317C56.2877 9.63836 56.0957 8.83836 56.0957 7.93169C56.0957 7.0357 56.293 6.24103 56.6877 5.5477C57.0824 4.85436 57.621 4.32103 58.3037 3.94769C58.9864 3.57436 59.749 3.3877 60.5917 3.3877C61.4344 3.3877 62.197 3.57436 62.8797 3.94769C63.5624 4.32103 64.101 4.85436 64.4957 5.5477C64.8904 6.24103 65.0877 7.0357 65.0877 7.93169C65.0877 8.8277 64.885 9.62236 64.4797 10.3157C64.0744 11.009 63.5197 11.5477 62.8157 11.9317C62.1224 12.305 61.3544 12.4917 60.5117 12.4917ZM60.5117 10.9077C60.981 10.9077 61.4184 10.7957 61.8237 10.5717C62.2397 10.3477 62.5757 10.0117 62.8317 9.56369C63.0877 9.11569 63.2157 8.5717 63.2157 7.93169C63.2157 7.29169 63.093 6.75303 62.8477 6.3157C62.6024 5.8677 62.277 5.53169 61.8717 5.30769C61.4664 5.08369 61.029 4.97169 60.5597 4.97169C60.0904 4.97169 59.653 5.08369 59.2477 5.30769C58.853 5.53169 58.5384 5.8677 58.3037 6.3157C58.069 6.75303 57.9517 7.29169 57.9517 7.93169C57.9517 8.88103 58.1917 9.61703 58.6717 10.1397C59.1624 10.6517 59.7757 10.9077 60.5117 10.9077Z" fill="#23262F"/>
<path d="M54.2863 1.22754V12.3475H52.4622V7.48354H47.2303V12.3475H45.4062V1.22754H47.2303V5.99554H52.4622V1.22754H54.2863Z" fill="#23262F"/>
<path d="M36.9334 4.8117C37.2 4.3637 37.552 4.01703 37.9894 3.7717C38.4374 3.5157 38.9654 3.3877 39.5734 3.3877V5.27569H39.1094C38.3947 5.27569 37.8507 5.45703 37.4774 5.8197C37.1147 6.18236 36.9334 6.8117 36.9334 7.7077V12.3477H35.1094V3.5317H36.9334V4.8117Z" fill="#23262F"/>
<path d="M33.315 7.72369C33.315 8.05436 33.2936 8.35303 33.251 8.61969H26.515C26.5683 9.32369 26.8296 9.88903 27.299 10.3157C27.7683 10.7424 28.3443 10.9557 29.027 10.9557C30.0083 10.9557 30.7016 10.545 31.107 9.72369H33.075C32.8083 10.5344 32.323 11.201 31.619 11.7237C30.9256 12.2357 30.0616 12.4917 29.027 12.4917C28.1843 12.4917 27.427 12.305 26.755 11.9317C26.0936 11.5477 25.571 11.0144 25.187 10.3317C24.8136 9.63836 24.627 8.83836 24.627 7.93169C24.627 7.02503 24.8083 6.23036 25.171 5.5477C25.5443 4.85436 26.0616 4.32103 26.723 3.94769C27.395 3.57436 28.163 3.3877 29.027 3.3877C29.859 3.3877 30.6003 3.56903 31.251 3.93169C31.9016 4.29436 32.4083 4.80636 32.771 5.4677C33.1336 6.11836 33.315 6.87036 33.315 7.72369ZM31.411 7.14769C31.4003 6.47569 31.1603 5.93703 30.691 5.5317C30.2216 5.12636 29.6403 4.9237 28.947 4.9237C28.3176 4.9237 27.779 5.12636 27.331 5.5317C26.883 5.92636 26.6163 6.46503 26.531 7.14769H31.411Z" fill="#23262F"/>
<path d="M21.4093 5.01887V9.89887C21.4093 10.2295 21.484 10.4695 21.6333 10.6189C21.7933 10.7575 22.06 10.8269 22.4333 10.8269H23.5533V12.3469H22.1133C21.292 12.3469 20.6626 12.1549 20.2253 11.7709C19.788 11.3869 19.5693 10.7629 19.5693 9.89887V5.01887H18.5293V3.53087H19.5693V1.33887H21.4093V3.53087H23.5533V5.01887H21.4093Z" fill="#23262F"/>
<path d="M13.3386 3.3877C14.032 3.3877 14.6506 3.5317 15.1946 3.81969C15.7493 4.10769 16.1813 4.53436 16.4906 5.0997C16.8 5.66503 16.9546 6.34769 16.9546 7.14769V12.3477H15.1466V7.41969C15.1466 6.63036 14.9493 6.0277 14.5546 5.6117C14.16 5.18503 13.6213 4.97169 12.9386 4.97169C12.256 4.97169 11.712 5.18503 11.3066 5.6117C10.912 6.0277 10.7146 6.63036 10.7146 7.41969V12.3477H8.89062V3.5317H10.7146V4.53969C11.0133 4.17703 11.392 3.89436 11.8506 3.6917C12.32 3.48903 12.816 3.3877 13.3386 3.3877Z" fill="#23262F"/>
<path d="M2.324 2.69894V5.96294H6.164V7.45094H2.324V10.8589H6.644V12.3469H0.5V1.21094H6.644V2.69894H2.324Z" fill="#23262F"/>
</svg>
