<svg width="104" height="9" viewBox="0 0 104 9" fill="none" xmlns="http://www.w3.org/2000/svg">
<path d="M100.579 8.65534C99.963 8.65534 99.411 8.55534 98.923 8.35534C98.435 8.15534 98.043 7.85934 97.747 7.46734C97.459 7.07534 97.307 6.60334 97.291 6.05134H99.475C99.507 6.36334 99.615 6.60334 99.799 6.77134C99.983 6.93134 100.223 7.01134 100.519 7.01134C100.823 7.01134 101.063 6.94334 101.239 6.80734C101.415 6.66334 101.503 6.46734 101.503 6.21934C101.503 6.01134 101.431 5.83934 101.287 5.70334C101.151 5.56734 100.979 5.45534 100.771 5.36734C100.571 5.27934 100.283 5.17934 99.907 5.06734C99.363 4.89934 98.919 4.73134 98.575 4.56334C98.231 4.39534 97.935 4.14734 97.687 3.81934C97.439 3.49134 97.315 3.06334 97.315 2.53534C97.315 1.75134 97.599 1.13934 98.167 0.699344C98.735 0.251344 99.475 0.0273438 100.387 0.0273438C101.315 0.0273438 102.063 0.251344 102.631 0.699344C103.199 1.13934 103.503 1.75534 103.543 2.54734H101.323C101.307 2.27534 101.207 2.06334 101.023 1.91134C100.839 1.75134 100.603 1.67134 100.315 1.67134C100.067 1.67134 99.867 1.73934 99.715 1.87534C99.563 2.00334 99.487 2.19134 99.487 2.43934C99.487 2.71134 99.615 2.92334 99.871 3.07534C100.127 3.22734 100.527 3.39134 101.071 3.56734C101.615 3.75134 102.055 3.92734 102.391 4.09534C102.735 4.26334 103.031 4.50734 103.279 4.82734C103.527 5.14734 103.651 5.55934 103.651 6.06334C103.651 6.54334 103.527 6.97934 103.279 7.37134C103.039 7.76334 102.687 8.07534 102.223 8.30734C101.759 8.53934 101.211 8.65534 100.579 8.65534Z" fill="black"/>
<path d="M93.9991 8.57146L92.2471 5.39146H91.7551V8.57146H89.7031V0.147461H93.1471C93.8111 0.147461 94.3751 0.263461 94.8391 0.495461C95.3111 0.727461 95.6631 1.04746 95.8951 1.45546C96.1271 1.85546 96.2431 2.30346 96.2431 2.79946C96.2431 3.35946 96.0831 3.85946 95.7631 4.29946C95.4511 4.73946 94.9871 5.05146 94.3711 5.23546L96.3151 8.57146H93.9991ZM91.7551 3.93946H93.0271C93.4031 3.93946 93.6831 3.84746 93.8671 3.66346C94.0591 3.47946 94.1551 3.21946 94.1551 2.88346C94.1551 2.56346 94.0591 2.31146 93.8671 2.12746C93.6831 1.94346 93.4031 1.85146 93.0271 1.85146H91.7551V3.93946Z" fill="black"/>
<path d="M85.2629 1.79146V3.49546H88.0109V5.07946H85.2629V6.92746H88.3709V8.57146H83.2109V0.147461H88.3709V1.79146H85.2629Z" fill="black"/>
<path d="M80.4008 4.25146C80.8888 4.35546 81.2808 4.59946 81.5768 4.98346C81.8728 5.35946 82.0208 5.79146 82.0208 6.27946C82.0208 6.98346 81.7728 7.54346 81.2768 7.95946C80.7888 8.36746 80.1048 8.57146 79.2248 8.57146H75.3008V0.147461H79.0928C79.9488 0.147461 80.6168 0.343461 81.0968 0.735461C81.5848 1.12746 81.8288 1.65946 81.8288 2.33146C81.8288 2.82746 81.6968 3.23946 81.4328 3.56746C81.1768 3.89546 80.8328 4.12346 80.4008 4.25146ZM77.3528 3.55546H78.6968C79.0328 3.55546 79.2888 3.48346 79.4648 3.33946C79.6488 3.18746 79.7408 2.96746 79.7408 2.67946C79.7408 2.39146 79.6488 2.17146 79.4648 2.01946C79.2888 1.86746 79.0328 1.79146 78.6968 1.79146H77.3528V3.55546ZM78.8648 6.91546C79.2088 6.91546 79.4728 6.83946 79.6568 6.68746C79.8488 6.52746 79.9448 6.29946 79.9448 6.00346C79.9448 5.70746 79.8448 5.47546 79.6448 5.30746C79.4528 5.13946 79.1848 5.05546 78.8408 5.05546H77.3528V6.91546H78.8648Z" fill="black"/>
<path d="M73.8252 0.147461V8.57146H71.7732V3.51946L69.8892 8.57146H68.2332L66.3372 3.50746V8.57146H64.2852V0.147461H66.7092L69.0732 5.97946L71.4132 0.147461H73.8252Z" fill="black"/>
<path d="M59.845 1.79146V3.49546H62.593V5.07946H59.845V6.92746H62.953V8.57146H57.793V0.147461H62.953V1.79146H59.845Z" fill="black"/>
<path d="M56.3173 0.147461V8.57146H54.2653V3.51946L52.3813 8.57146H50.7253L48.8293 3.50746V8.57146H46.7773V0.147461H49.2013L51.5653 5.97946L53.9053 0.147461H56.3173Z" fill="black"/>
<path d="M43.4074 0.147461L40.4914 5.78746V8.57146H38.4394V5.78746L35.5234 0.147461H37.8514L39.4834 3.67546L41.1034 0.147461H43.4074Z" fill="black"/>
<path d="M32.5168 6.98746H35.2048V8.57146H30.4648V0.147461H32.5168V6.98746Z" fill="black"/>
<path d="M28.9778 0.147461V8.57146H26.9258V0.147461H28.9778Z" fill="black"/>
<path d="M25.4502 0.147461V8.57146H23.3982V3.51946L21.5142 8.57146H19.8582L17.9622 3.50746V8.57146H15.9102V0.147461H18.3342L20.6982 5.97946L23.0382 0.147461H25.4502Z" fill="black"/>
<path d="M12.3058 7.08346H9.16177L8.65777 8.57146H6.50977L9.55777 0.147461H11.9338L14.9818 8.57146H12.8098L12.3058 7.08346ZM11.7778 5.49946L10.7338 2.41546L9.70177 5.49946H11.7778Z" fill="black"/>
<path d="M5.984 0.147461V1.79146H2.552V3.56746H5.12V5.16346H2.552V8.57146H0.5V0.147461H5.984Z" fill="black"/>
</svg>
