<svg width="1681" height="1120" viewBox="0 0 1681 1120" fill="none" xmlns="http://www.w3.org/2000/svg">
<path d="M32.3245 51.4909L14.2414 62.552L1.83117 42.9475L22.4223 29.335L32.3245 51.4909ZM42.8543 75.0534L27.2793 83.1421L15.6893 64.8346L33.4362 53.9773L42.8543 75.0534ZM89.5928 37.007L111.849 81.0656L57.0576 100.213L35.9062 52.8797L89.5928 37.007ZM121.142 136.978C99.2686 132.097 79.8273 127.752 68.1993 125.14L58.1648 102.688L113.004 83.5251C113.864 89.2394 116.989 109.964 121.142 136.978ZM132.835 211.776L117.466 214.066L112.217 180.589H112.215L105.708 139.07C110.942 140.237 116.408 141.46 122.025 142.713C125.268 163.762 129.049 188.032 132.835 211.776ZM135.226 75.759L142.363 141.716C140.003 141.189 137.651 140.665 135.314 140.143C130.091 106.275 126.281 80.9245 126.174 80.2032C126.113 79.8 126.008 79.4102 125.878 79.0272L135.226 75.759ZM170.734 63.3517L193.983 121.02L190.099 152.363C175.945 149.206 160.435 145.748 145.149 142.336L137.849 74.8429L170.734 63.3517ZM196.906 54.2058L241.69 163.86C233.191 161.968 214.787 157.866 192.748 152.954L196.708 121.007C196.735 120.779 196.706 120.548 196.621 120.335L173.289 62.4579L196.906 54.2058ZM193.113 30.6208L220.018 19.1789L229.669 39.8944L200.994 49.9162L193.113 30.6208ZM254.037 92.1984L223.075 103.985L202.016 52.4205L230.817 42.3562L254.037 92.1984ZM275.016 26.9114L285.537 52.6086L245.67 67.5158C245.625 67.5315 245.596 67.5674 245.554 67.5875L233.381 41.4602L275.016 26.9114ZM254.519 13.0301L284.894 2.61632L291.035 18.4509L261.582 28.7414L254.519 13.0301ZM312.159 13.9306L322.375 38.8326L288.07 51.6611L277.571 26.0176L312.159 13.9306ZM337.749 4.98848L358.609 52.3824L334.606 61.5216L314.717 13.0368L337.749 4.98848ZM381.513 18.3859L393.074 41.281L363.728 50.5926L355.24 31.3107L381.513 18.3859ZM417.545 73.9402L382.176 92.5098L364.822 53.079L394.475 43.671L417.545 73.9402ZM422.686 16.4416L449.421 49.8557L452.906 55.3728L419.95 72.6768L396.75 42.2352L422.686 16.4416ZM471.455 84.7414L440.043 99.0416L421.599 74.8406L454.341 57.6464L471.455 84.7414ZM493.49 27.0144L557.89 90.897L569.83 144.599L554.19 152.338L547.659 141.122C547.656 141.12 547.656 141.116 547.656 141.116C547.654 141.113 547.652 141.111 547.65 141.109L530.071 110.927C530.071 110.927 530.071 110.927 530.071 110.923C530.069 110.923 530.069 110.923 530.069 110.923L523.094 98.9475C523.094 98.9475 523.094 98.9453 523.091 98.943C523.091 98.9408 523.089 98.9408 523.089 98.9386L514.765 84.6496C514.393 84.009 513.57 83.7917 512.929 84.1546L484.487 100.325L456.616 56.1994L493.49 27.0144ZM606.545 129.47C603.093 153.545 598.131 187.501 598.057 188.014C598.035 188.162 598.037 188.31 598.064 188.458L602.782 213.895L570.397 232.411L560.219 220.226L549.611 203.432L572.634 145.84C572.647 145.806 572.643 145.77 572.654 145.734C572.688 145.622 572.712 145.508 572.717 145.389C572.719 145.327 572.712 145.266 572.708 145.204C572.701 145.15 572.71 145.098 572.699 145.047L569.637 131.277L606.545 129.47ZM612.303 107.896L641.981 115.586L644.022 127.483C644.099 127.926 644.392 128.303 644.805 128.486L681.634 144.854C667.326 177.52 656.339 203.562 655.144 209.129C655.023 209.693 654.873 210.379 654.702 211.131L616.185 206.537C616.156 206.535 616.127 206.541 616.095 206.541C616.033 206.537 615.97 206.541 615.905 206.548C615.795 206.559 615.69 206.584 615.584 206.62C615.553 206.633 615.519 206.629 615.486 206.642C615.468 206.649 615.454 206.667 615.436 206.676C615.41 206.689 615.38 206.692 615.356 206.707L605.268 212.473L600.765 188.185C601.511 183.073 610.822 119.323 612.303 107.896ZM612.303 68.1699C614.195 65.0474 622.961 46.3053 625.265 41.3683C636.31 46.088 648.041 51.1011 659.987 56.2038L642.261 112.867L612.532 105.164C612.545 103.165 612.391 99.5613 612.195 95.1843C611.81 86.4394 611.093 70.1635 612.303 68.1699ZM711.278 78.1088C701.557 99.7808 691.552 122.246 682.719 142.381L646.564 126.311L644.554 114.589L662.487 57.2723C678.835 64.2544 695.501 71.3731 711.278 78.1088ZM716.245 80.2278C755.441 96.9651 788.091 110.898 794.685 113.714C785.827 135.269 775.768 160.01 767.847 180.215L744.779 169.962L758.622 142.408C758.958 141.74 758.689 140.93 758.021 140.596C757.36 140.26 756.542 140.531 756.206 141.196L742.307 168.865L687.654 144.574C696.268 124.945 706.175 102.684 716.245 80.2278ZM738.107 31.7094L793.694 55.1802L785.083 74.1843H785.081L772.744 101.409C758.398 95.2874 738.867 86.9501 717.35 77.7638C724.338 62.1869 731.383 46.5674 738.107 31.7094ZM751.313 2.60288L879.515 45.7789L892.62 118.884L810.112 83.4602C814.911 71.895 818.057 64.3754 818.192 64.0528C818.481 63.3674 818.158 62.5766 817.472 62.2877L739.221 29.2499C743.419 19.9763 747.478 11.0342 751.313 2.60288ZM1046.64 121.701L1040.58 131.808C1040.56 131.837 1040.56 131.873 1040.54 131.902C1040.53 131.932 1040.5 131.947 1040.48 131.979L1031.69 149.336L952.706 118.017C952.047 117.752 951.3 118.046 950.989 118.68L938.899 143.481L898.447 121.623C898.49 121.339 898.501 121.054 898.45 120.77L885.45 48.2339L1046.64 121.701ZM1051.05 124.855C1059.43 133.414 1069.74 144.122 1078.22 153.187L1046.55 132.366L1051.05 124.855ZM1072.55 89.049L1188 157.031L1170.86 214.07L1087.58 159.338C1076.67 147.255 1059.4 129.519 1052.49 122.461L1072.55 89.049ZM1100.44 90.2787L1099.65 98.7347L1082.52 88.6502L1100.44 90.2787ZM1025.96 55.3414L1033.27 30.399L1105.52 35.8266L1100.69 87.5885L1077.07 85.4426L1025.96 55.3414ZM1106.42 55.3325L1133.37 58.175L1132.54 74.648C1132.5 75.3939 1133.07 76.0278 1133.82 76.0659C1133.84 76.0659 1133.87 76.0659 1133.89 76.0659C1134.61 76.0659 1135.2 75.5059 1135.24 74.7846L1136.06 58.4595L1158.25 60.8003L1155.74 92.5904L1103.38 87.8326L1106.42 55.3325ZM1108.21 36.0304L1159.87 40.2954L1159.05 50.727V50.7293C1159.05 50.7315 1159.05 50.7315 1159.05 50.7338L1158.46 58.1056L1135.75 55.711C1135.52 55.4826 1135.22 55.3258 1134.87 55.3078C1134.57 55.2832 1134.31 55.3818 1134.07 55.5341L1106.66 52.6422L1108.21 36.0304ZM1110.81 8.18272C1128.33 11.3187 1145.85 14.336 1161.72 16.8627L1160.08 37.6006L1108.47 33.3402L1110.81 8.18272ZM1162.67 39.1709C1162.67 39.1709 1162.67 39.1709 1162.67 39.1686L1164.4 17.2861C1178.48 19.5059 1191.15 21.3114 1201.18 22.4291L1198.33 52.3018L1161.85 49.5846L1162.67 39.1709ZM1204.51 44.455L1227.91 45.5683L1226.9 99.0573L1199.55 96.5731L1204.51 44.455ZM1206.56 22.9846C1209.22 23.2355 1211.64 23.4259 1213.77 23.5402C1217.79 23.7574 1222.99 24.0643 1229.13 24.4429L1228.02 42.8691L1204.77 41.7648L1206.56 22.9846ZM1269.07 105.603L1266.94 163.719L1228.49 158.303L1229.55 102.012L1269.07 105.603ZM1230.64 44.3274L1231.83 24.6109C1254 25.993 1286.97 28.2061 1320.35 30.4909L1309.2 106.537L1229.6 99.3037L1230.64 44.3274ZM1325.76 30.8605C1340.56 31.8752 1355.32 32.8966 1369.15 33.8554L1357.71 110.945L1314.6 107.027L1325.76 30.8605ZM1371.85 34.0435C1401.11 36.0774 1425.81 37.8157 1437.11 38.6109C1437.07 64.7584 1436.85 93.6029 1436.21 118.082L1402.78 115.042C1402.57 114.867 1402.31 114.737 1402.02 114.719C1401.74 114.688 1401.49 114.775 1401.27 114.905L1360.39 111.189L1371.85 34.0435ZM1375.41 10.0442L1437.09 16.2938C1437.11 21.7101 1437.11 27.3683 1437.11 33.1946C1425.71 32.3904 1401.41 30.6813 1372.65 28.6832L1375.41 10.0442ZM1456.46 296.932L1434.08 295.929C1435.8 279.111 1437.46 262.797 1439.01 247.574L1456.46 296.932ZM1485.62 237.341L1490.9 256.337L1451.23 265.906L1441.1 237.268L1485.62 237.341ZM1520.44 238.849L1534.77 300.44L1505.61 299.134L1488.44 237.424L1520.44 238.849ZM1549.87 240.162C1549.88 240.168 1549.87 240.175 1549.87 240.182L1565.11 301.8L1537.57 300.568L1523.24 238.974L1549.87 240.162ZM1572.4 241.165L1590.01 302.915L1567.92 301.927L1552.69 240.287L1572.4 241.165ZM1589.46 241.924L1608.29 303.735L1592.86 303.045L1575.24 241.291L1589.46 241.924ZM1634.15 318.416C1598.27 330.797 1560.39 343.831 1521.73 357.101L1509.41 312.825L1634.15 318.416ZM1673.68 398.973L1660.73 410.254L1647.99 394.372L1624.68 335.975C1634.4 332.622 1643.25 329.569 1651.08 326.868C1656.75 345.408 1670.36 388.481 1673.68 398.973ZM1641.4 427.105C1635.94 419.471 1632.41 414.03 1631.79 411.916C1628.66 401.292 1611.77 356.993 1606.16 342.355C1611.7 340.449 1617.03 338.612 1622.12 336.858L1645.55 395.559C1645.6 395.685 1645.67 395.801 1645.75 395.904L1658.69 412.032L1641.4 427.105ZM1655.56 450.601L1643.88 460.024L1630.97 443.368L1642.56 433.263C1646.36 438.458 1650.77 444.329 1655.56 450.601ZM1666.15 464.318L1654.94 474.307L1645.54 462.161L1657.2 452.747C1660.08 456.496 1663.08 460.372 1666.15 464.318ZM1611.47 513.065L1601.17 497.952L1643.43 463.859L1652.92 476.108L1611.47 513.065ZM1632.31 546.641L1568.11 579.488L1553.61 559.724L1549.09 546.69L1610.79 516.811L1632.31 546.641ZM1647.6 567.833L1617.17 589.436L1600.79 565.795L1633.9 548.847L1647.6 567.833ZM1665.73 592.959C1656.13 600.145 1645.8 607.737 1635.19 615.422L1618.71 591.656L1649.18 570.026L1665.73 592.959ZM1655.13 648.937L1631.26 668.73L1611.52 638.94C1619.7 633.125 1627.94 627.225 1636.02 621.374L1655.13 648.937ZM1672.32 673.747L1648 693.995L1632.76 670.994L1656.67 651.166L1672.32 673.747ZM1661.83 724.658L1569.42 782.123L1562.99 764.81L1645.28 699.677L1661.83 724.658ZM1573.85 801.826C1573.89 801.94 1573.99 802.003 1574.06 802.097L1539.05 815.819L1526.76 780.512L1560.2 766.949C1560.32 766.9 1560.43 766.835 1560.53 766.757L1560.76 766.573L1573.85 801.826ZM1632.53 782.087L1650.7 836.716L1557.35 868.383L1539.94 818.373L1632.53 782.087ZM1654.62 773.43L1675.34 828.361L1653.26 835.847L1635.05 781.099L1654.62 773.43ZM1628.48 908.622L1606.66 916.955L1589.1 863.316L1610.08 856.197L1628.48 908.622ZM1631.65 917.65L1609.64 926.034L1607.51 919.527L1629.38 911.172L1631.65 917.65ZM1642.64 950.6L1620.29 958.588L1610.48 928.608L1632.52 920.21L1642.64 950.6ZM1666.9 1023.55L1644.85 1033.59L1621.13 961.157L1643.49 953.165L1666.9 1023.55ZM1614.76 1043.69L1613.12 1042.44C1612.78 1042.18 1612.41 1041.96 1612.03 1041.77L1590.14 972.243L1618.59 962.069L1642.33 1034.59L1614.76 1043.69ZM1608.89 1041.05L1592.76 1041.36L1571.63 978.862L1587.59 973.152L1608.97 1041.06C1608.95 1041.06 1608.92 1041.05 1608.89 1041.05ZM1581.73 1041.58L1562.11 982.267L1569.08 979.772L1589.92 1041.42L1581.73 1041.58ZM1569.18 1041.82L1550.66 986.359L1559.56 983.176L1578.9 1041.63L1569.18 1041.82ZM1519.2 1042.79L1518.21 1027.69L1557 1013.86L1566.35 1041.87L1519.2 1042.79ZM1516.31 998.644L1548.11 987.271L1556.14 1011.3L1518.02 1024.89L1516.31 998.644ZM1514.13 965.306L1537.77 956.301L1547.26 984.708L1516.12 995.841L1514.13 965.306ZM1513.48 955.447L1555.44 939.42L1557.61 945.851L1513.94 962.486L1513.48 955.447ZM1511.6 926.701L1546.99 914.42L1554.57 936.858L1513.3 952.625L1511.6 926.701ZM1509.23 890.411L1535.82 881.391L1546.12 911.859L1511.42 923.904L1509.23 890.411ZM1440.12 1097.5C1425.63 1101.12 1407.12 1102.18 1386.84 1101.37C1386.77 1097.8 1386.65 1093.01 1386.5 1087.57L1507.8 1075.68L1508.42 1085.13C1485.88 1088.07 1461.86 1092.07 1440.12 1097.5ZM1385.81 1067.92L1387.82 1068.35C1388.01 1068.4 1388.2 1068.42 1388.39 1068.42C1388.51 1068.42 1388.62 1068.41 1388.73 1068.39L1506.35 1053.45L1507.45 1070.29L1386.33 1082.16C1386.19 1077.6 1386.01 1072.77 1385.81 1067.92ZM1384.55 1045.76L1418.38 1033.66L1426.63 1058.13L1388.51 1062.98L1385.55 1062.33C1385.27 1056.49 1384.94 1050.8 1384.55 1045.76ZM1382.85 1030.97C1382.58 1029.61 1381.06 1024.74 1378.52 1016.96L1408.85 1005.41L1417.52 1031.1L1384.33 1042.98C1383.9 1037.97 1383.41 1033.77 1382.85 1030.97ZM1206.13 1053.59C1201.11 1048.38 1195.76 1038.24 1189.61 1025.03L1198.56 1026.99C1204.08 1041.43 1207.29 1049.93 1207.37 1050.14C1207.69 1050.98 1208.41 1051.62 1209.3 1051.82L1372.35 1088.82C1372.55 1088.87 1372.75 1088.89 1372.95 1088.89C1373.04 1088.89 1373.13 1088.89 1373.21 1088.88L1381.09 1088.11C1381.24 1093.18 1381.35 1097.68 1381.42 1101.11C1311.9 1097.26 1224.49 1072.68 1206.13 1053.59ZM1180.98 1005.99C1164.56 969.25 1142.22 919.345 1104.8 873.589C1110.56 868.367 1117.11 863.296 1124.28 858.549C1139.15 883.4 1152.44 908.531 1160.83 929.831C1175.41 966.811 1187.89 999.136 1196.25 1020.95L1186.78 1018.88C1184.92 1014.8 1183 1010.5 1180.98 1005.99ZM1149.88 1010.82L1065.19 955.696L1080.86 906.515C1083.24 899.062 1088.23 891.108 1095.2 883.239C1131.04 927.445 1152.7 975.834 1168.64 1011.5C1169.22 1012.78 1169.78 1014.04 1170.33 1015.29L1149.88 1010.82ZM1109.11 1113.23L1023.54 1090L1063.51 961.052L1146.68 1015.18L1109.11 1113.23ZM1018.32 1088.58L1005.03 1084.97L1045.8 957.067L1058.48 959.029L1018.32 1088.58ZM925.281 1063.32L936.418 940.128L1043.1 956.646L1002.42 1084.27L925.281 1063.32ZM881.429 1051.42L895.814 994.092L928.506 997.613L922.631 1062.6L881.429 1051.42ZM876.213 1050L812.936 1032.82L814.987 993.55L827.554 989.921C828.027 989.782 828.388 989.401 828.498 988.92L834.903 960.68L896.845 967.774L876.213 1050ZM859.323 1117.3L796.774 1101.05L810.863 1046.26L872.923 1063.11L859.323 1117.3ZM747.998 1015.19L761.645 952.289L832.2 960.371L826.037 987.544L813.31 991.222C812.757 991.381 812.367 991.874 812.335 992.45L810.267 1032.1L747.998 1015.19ZM733.564 1017.97L689.091 1004.27L706.334 938.865L748.354 949.796L733.564 1017.97ZM718.753 1086.23L665.858 1072.67L668.921 1000.89L732.988 1020.62L718.753 1086.23ZM635.676 987.824L649.184 923.996L703.716 938.181L686.505 1003.48L635.676 987.824ZM757.842 906.06L748.926 947.166L705.715 935.919C705.713 935.917 705.713 935.917 705.711 935.917H705.706L649.745 921.35L657.19 886.171L757.842 906.06ZM634.185 801.456L777.382 815.996L758.987 900.78L657.215 880.667L634.185 801.456ZM614.605 734.099C614.282 732.988 613.677 731.976 612.85 731.165L610.945 729.297L612.893 626.203C625.744 629.989 637.637 638.915 650.188 648.404C662.652 657.828 675.542 667.569 690.772 673.344C696.916 675.671 702.916 677.575 708.719 679.421C732.232 686.885 752.543 693.332 776.31 724.217C780.782 730.023 786.827 734.729 794.142 738.739L788.279 765.764L677.409 749.58C677.057 749.529 676.692 749.618 676.403 749.838C676.114 750.055 675.923 750.378 675.876 750.734L668.883 802.261L633.372 798.656L614.605 734.099ZM546.509 548.979L545.899 524.937L612.359 521.201L610.436 547.803L546.509 548.979ZM608.565 573.675L547.177 575.207L546.578 551.676L610.241 550.489L608.565 573.675ZM607.769 611.159C583.417 606.762 532.545 603.702 501.202 602.146C500.478 596.559 499.333 587.72 497.921 576.865L545.83 577.942H545.859C545.863 577.942 545.87 577.94 545.874 577.94C545.881 577.94 545.888 577.942 545.892 577.942L608.426 576.381L607.769 611.159ZM605.635 724.087L558.108 677.452C557.455 676.809 556.678 676.31 555.826 675.976C555.36 675.795 532.299 666.931 496.722 657.436L501.306 615.689C533.581 617.308 585.887 620.473 607.509 624.844L605.635 724.087ZM491.435 656.047C460.067 647.911 419.945 639.619 377.232 636.122L350.128 579.092L356.757 493.804C405.303 544.746 468.62 611.309 469.629 612.371C470.844 613.648 472.511 614.401 474.273 614.466C474.575 614.479 483.124 614.808 495.895 615.422L491.435 656.047ZM342.823 441.41L408.171 434.5C408.292 434.535 408.411 434.569 408.541 434.569C408.584 434.569 408.631 434.567 408.676 434.562C408.871 434.544 409.048 434.482 409.207 434.39L472.565 427.692C474.349 440.035 477.196 461.001 480.425 485.231L354.379 471.722C351.983 469.208 349.648 466.76 347.38 464.381C346.299 458.844 344.726 450.863 342.823 441.41ZM338.477 554.573L309.909 494.462C309.279 493.136 308.235 492.054 306.935 491.373C212.127 441.829 107.349 383.598 99.9836 373.377C96.9309 368.193 89.3642 341.02 81.5195 312.252C104.486 307.478 127.247 302.897 147.504 299.076C149.152 307.89 150.521 314.534 151.487 318.125C159.419 347.563 183.097 379.055 207.787 393.004C219.368 399.547 239.504 408.164 258.979 416.499C275.789 423.694 298.812 433.545 302.121 436.643C304.366 438.888 321.602 456.924 344.222 480.652L338.477 554.573ZM65.7249 254.74L88.5349 250.775L96.5051 295.344C90.3616 296.596 84.1643 297.873 77.9558 299.165C74.0761 284.901 69.9475 269.759 65.7249 254.74ZM57.3647 225.754L83.3686 221.879L88.062 248.116L64.9897 252.125C62.466 243.195 59.9131 234.331 57.3647 225.754ZM47.3885 193.885L77.3775 188.368L82.8935 219.218L56.5825 223.138C53.4894 212.809 50.4053 202.924 47.3885 193.885ZM39.5573 172.099L56.0557 168.925L60.7738 188.677L46.5144 191.298C44.1408 184.287 41.8143 177.827 39.5573 172.099ZM76.9024 185.709L63.4365 188.187L58.714 168.414L73.3073 165.608L76.9024 185.709ZM77.1781 171.889L75.7257 163.773C75.7257 163.771 75.7257 163.769 75.7257 163.766C75.7257 163.764 75.7234 163.762 75.7234 163.762L69.8758 131.053C78.2449 132.931 89.734 135.502 102.87 138.436L107.275 166.524L77.1781 171.889ZM79.5606 185.221L77.651 174.545L107.694 169.194L109.348 179.742L79.5606 185.221ZM85.5674 218.819L80.0358 187.88L109.767 182.412L114.792 214.464L85.5674 218.819ZM119.219 242.697L90.7225 247.652L86.0448 221.48L115.211 217.134L119.219 242.697ZM126.53 289.336C117.65 291.075 108.474 292.909 99.1543 294.804L91.1976 250.311L119.636 245.367L126.53 289.336ZM145.097 285.77C139.935 286.74 134.619 287.759 129.186 288.819L117.883 216.736L133.261 214.444C137.472 240.804 141.661 266.305 145.097 285.77ZM139.832 169.299C138.577 161.242 137.358 153.384 136.199 145.878C145.274 147.903 154.531 149.968 163.626 151.995L165.823 170.596L139.832 169.299ZM166.455 173.333L175.774 194.419L145.823 207.341C143.943 195.523 142.067 183.597 140.258 172.025L166.455 173.333ZM196.157 185.624L190.619 170.124L192.08 158.341C210.833 162.523 226.904 166.103 236.461 168.233L196.157 185.624ZM275.301 244.162L252.258 245.717L225.207 176.028L240.95 169.234C242.29 169.532 243.386 169.776 244.184 169.956C247.224 177.274 261.147 210.784 275.301 244.162ZM279.337 146.507L247.309 163.325L224.097 106.49L255.18 94.6534L279.337 146.507ZM295.314 76.4826L256.57 91.233L246.688 70.0202L286.563 55.1107L295.314 76.4826ZM297.84 75.5194L289.094 54.1632L323.402 41.3347L332.078 62.4826L297.84 75.5194ZM341.156 84.6115L307.468 99.0371L298.864 78.0214L333.105 64.9824L341.156 84.6115ZM359.422 104.458L353.496 107.569L335.631 64.0214L340.857 62.0301L359.422 104.458ZM361.821 103.199L343.386 61.0691L359.696 54.8576L377.38 95.0298L361.821 103.199ZM388.54 120.389L372.393 127.36L362.901 105.668L378.463 97.4938L388.54 120.389ZM388.069 105.9L383.261 94.9738L419.194 76.104L428.657 88.5226L388.069 105.9ZM393.522 118.285L389.158 108.371L430.345 90.7357L437.504 100.128L393.522 118.285ZM441.906 108.255L397.301 126.874L394.609 120.758L438.979 102.442L441.906 108.255ZM449.34 117.06L441.44 101.373L472.91 87.0464L482.106 101.609L449.34 117.06ZM501.081 131.649L464.965 148.073L450.555 119.47L483.559 103.907L501.081 131.649ZM493.266 114.224L485.928 102.61L513.102 87.1651L520.057 99.1066L493.266 114.224ZM500.777 126.116L494.709 116.511L521.417 101.441L527.043 111.1L500.777 126.116ZM508.225 137.908L502.22 128.401L528.401 113.434L534.56 124.004L508.225 137.908ZM519.689 156.059L509.672 140.199L535.921 126.343L544.646 141.322L519.689 156.059ZM526.115 166.23L521.132 158.346L546.007 143.658L551.762 153.539L526.115 166.23ZM546.776 159.022L568.815 148.116L557.182 177.213L546.776 159.022ZM527.565 168.526L544.348 160.223L555.902 180.416L547.829 200.612L527.565 168.526ZM542.122 224.049L529.143 200.196L540.93 194.746L556.994 220.179L542.122 224.049ZM592.864 263.525C588.942 263.623 561.024 264.338 521.771 265.393L508.892 235.493L558.634 222.544L592.864 263.525ZM605.422 254.567L594.845 261.681L572.156 234.517L587.124 225.96L605.422 254.567ZM620.766 244.245L607.666 253.06L589.473 224.616L603.815 216.418L620.766 244.245ZM629.135 241.282L623.205 243.051L606.162 215.076L615.389 209.801L629.135 241.282ZM648.956 235.368L631.744 240.504L618.209 209.501L654.097 213.781C652.918 218.895 651.107 226.48 648.956 235.368ZM706.993 238.119L676.002 271.264L651.287 248.676C654.615 235.016 657.538 222.9 659.25 215.499L706.993 238.119ZM708.629 235.901L659.869 212.8C660.088 211.835 660.286 210.952 660.433 210.262C661.53 205.144 672.106 180.056 686.57 147.049L741.092 171.282L708.629 235.901ZM753.89 219.056C752.052 230.449 752.043 249.946 752.099 256.496L711.072 237.059L743.565 172.379L766.861 182.732C759.722 201.011 754.522 215.148 753.89 219.056ZM857.799 223.149L844.402 262.006L754.812 257.36C754.76 252.031 754.688 231.083 756.56 219.486C757.163 215.75 762.282 201.869 769.333 183.832L857.799 223.149ZM875.052 173.103L858.682 220.586L770.319 181.315C775.84 167.25 782.418 150.922 788.904 134.998L875.052 173.103ZM916.878 188.648L880.896 172.733L897.616 124.237L937.713 145.911L916.878 188.648ZM994.388 222.932L919.355 189.744L952.871 120.989L1030.46 151.756L994.388 222.932ZM1069.89 182.403L1056.82 207.682L1018.75 186.816L1031.68 161.311L1069.89 182.403ZM1071.13 180.002L1032.9 158.899L1043.94 137.119L1080.79 161.338L1071.13 180.002ZM1106.39 212.3L1082.36 223.754L1067.19 193.518L1083.06 162.83L1092.48 169.024C1093.62 170.421 1094.34 171.414 1094.5 171.868C1094.97 173.309 1099.93 190.216 1106.39 212.3ZM1118.02 242.467C1108.58 210.141 1099.49 179.057 1097.46 172.294L1168.22 218.803L1118.02 242.467ZM1150.09 283.201L1129.64 282.285C1126.27 270.74 1122.52 257.876 1118.79 245.092L1168.59 221.612L1150.09 283.201ZM1183.61 247.527C1183.63 247.565 1183.67 247.583 1183.68 247.616C1183.73 247.699 1183.75 247.787 1183.82 247.858C1183.99 248.069 1195.82 262.367 1204.99 285.66L1155.66 283.45L1173.47 224.17L1183.61 247.527ZM1300.14 168.396L1269.63 164.1L1271.76 105.847L1308.81 109.216L1300.14 168.396ZM1341.15 169.66L1305.36 170.063L1314.21 109.706L1357.1 113.604L1341.15 169.66ZM1397.51 169.024L1343.97 169.626L1359.83 113.852L1400.5 117.548L1397.51 169.024ZM1433.42 168.616L1400.22 168.992L1403.19 117.793L1436.14 120.788C1435.67 138.15 1434.97 153.12 1433.98 163.054C1433.81 164.739 1433.62 166.609 1433.42 168.616ZM1478.07 358.069L1482.4 370.588C1463.1 377.198 1443.72 383.833 1424.38 390.441C1427.1 364.072 1429.95 336.293 1432.71 309.389L1461.31 310.67L1478.07 358.069ZM1462.28 297.192L1452.13 268.466L1491.62 258.942L1502.77 299.006L1462.28 297.192ZM1487.52 368.834L1483.17 356.285L1467.14 310.932L1506.57 312.7L1519.17 357.981C1508.67 361.583 1498.1 365.205 1487.52 368.834ZM1530.3 398.01L1503.33 414.496L1491.94 381.618C1502.47 378.007 1512.77 374.474 1522.8 371.029L1530.3 398.01ZM1561.29 387.372L1532.8 396.899L1525.36 370.151C1534.53 366.999 1543.47 363.931 1552.13 360.951L1561.29 387.372ZM1598.14 395.651L1602.96 405.554L1574.25 416.062L1564.3 387.78C1564.3 387.78 1564.3 387.78 1564.3 387.778L1554.69 360.073C1564.51 356.698 1573.96 353.445 1583 350.334L1598.14 395.651ZM1605.51 404.625L1600.64 394.632L1585.55 349.453C1591.78 347.31 1597.81 345.236 1603.61 343.237C1607.63 353.756 1617.71 380.175 1624.09 397.824L1605.51 404.625ZM1613.24 420.47L1606.7 407.066L1625.01 400.366C1626.72 405.14 1628.08 409.089 1628.88 411.652L1613.24 420.47ZM1627.65 439.087L1614.9 422.634L1629.84 414.219C1631.27 417.131 1634.66 422.267 1639.38 428.866L1627.65 439.087ZM1588.94 479.998L1628.93 445.146L1641.77 461.722L1599.64 495.712L1588.94 479.998ZM1554.6 498.575L1583.45 484.649C1583.67 484.546 1583.88 484.411 1584.06 484.254L1586.89 481.786L1609.22 514.566L1570.31 533.409L1554.6 498.575ZM1548.21 544.118L1535.61 507.734L1552.16 499.749L1567.88 534.589L1548.21 544.118ZM1501.11 583.292L1497.14 571.852L1544.2 549.062L1548.28 560.878L1501.11 583.292ZM1508.65 604.988L1502 585.861L1549.51 563.286L1563.1 581.804L1508.65 604.988ZM1604.1 637.672C1578.15 656.033 1553.28 673.136 1536.23 684.448L1518.6 633.662L1518.83 633.566C1519.52 633.279 1519.85 632.486 1519.56 631.799C1519.28 631.109 1518.48 630.782 1517.8 631.071L1517.71 631.104L1509.53 607.546L1564.74 584.04L1604.1 637.672ZM1589.71 608.933L1569.73 581.694L1598.36 567.036L1614.97 591.002L1589.71 608.933ZM1591.31 611.11L1616.51 593.221L1633 617.008C1624.9 622.861 1616.67 628.75 1608.51 634.545L1591.31 611.11ZM1551.88 734.554L1537.98 689.734C1555.35 678.256 1580.74 660.762 1607.11 642.069L1627.08 672.197L1551.88 734.554ZM1552.78 737.312L1628.58 674.464L1643.78 697.42L1562 762.144L1552.78 737.312ZM1516.95 752.313L1550.4 738.66L1559.78 763.907L1559.01 764.519L1525.88 777.959L1516.95 752.313ZM1490.63 834.794L1478.68 800.021L1524.26 781.529L1536.53 816.807L1490.63 834.794ZM1491.51 837.35L1517.49 827.172L1534.09 876.27L1507.94 885.141L1491.51 837.35ZM1467.7 1016.03L1503.07 1003.38L1505.99 1048.05L1478.95 1051.49L1467.7 1016.03ZM1465.15 1016.94L1476.23 1051.83L1429.37 1057.79L1420.93 1032.75L1465.15 1016.94ZM1455.82 987.515L1464.34 1014.36L1420.06 1030.19L1411.38 1004.44L1455.82 987.515ZM1452.98 978.562L1455 984.937L1410.51 1001.88L1408.39 995.593L1452.98 978.562ZM1407.53 993.03L1398.41 965.996L1412.64 961.056L1421.33 987.757L1407.53 993.03ZM1375.61 1008.12L1405.87 996.56L1407.99 1002.84L1377.68 1014.39C1377.04 1012.44 1376.35 1010.36 1375.61 1008.12ZM1351.2 1054.82L1305.4 1044.81L1373.48 1018.88C1375.87 1026.19 1377.29 1030.77 1377.54 1032.03C1378.12 1034.91 1378.62 1039.43 1379.06 1044.86L1351.2 1054.82ZM1356.18 1055.91L1379.27 1047.65C1379.57 1051.82 1379.84 1056.4 1380.07 1061.13L1356.18 1055.91ZM1380.33 1066.72C1380.57 1072.14 1380.77 1077.59 1380.93 1082.69L1373.12 1083.46L1211.91 1046.87C1210.91 1044.22 1208.47 1037.78 1204.87 1028.37L1380.33 1066.72ZM1274.51 978.804L1295.84 1042.72L1202.57 1022.33C1200.83 1017.8 1198.9 1012.76 1196.78 1007.25L1274.51 978.804ZM1235.96 863.155L1245.85 892.931C1245.85 892.933 1245.85 892.933 1245.85 892.933L1273.66 976.239L1195.81 1004.72C1187.86 984.075 1177.53 957.454 1165.86 927.851C1162.06 918.198 1157.19 907.637 1151.57 896.594L1235.96 863.155ZM1141.76 848.284C1146.13 846.026 1156.5 841.599 1171.11 835.65L1184.49 880.295C1184.52 880.41 1184.62 880.47 1184.68 880.569L1150.33 894.181C1143.91 881.709 1136.59 868.67 1128.82 855.653C1132.97 853.077 1137.28 850.6 1141.76 848.284ZM1107.77 822.1L1114.27 801.685L1203.23 764.72L1218.6 810.963C1200.54 818.039 1184.46 824.419 1171.43 829.705C1171.21 829.651 1170.97 829.633 1170.74 829.703C1170.41 829.801 1170.16 830.021 1169.99 830.287C1154.67 836.515 1143.78 841.156 1139.28 843.485C1134.68 845.86 1130.27 848.384 1126.02 851.007C1120.1 841.228 1113.94 831.51 1107.77 822.1ZM1105.65 828.753C1111 836.96 1116.31 845.389 1121.47 853.886C1114.03 858.771 1107.27 863.981 1101.3 869.362C1099.25 866.934 1097.15 864.521 1095.01 862.122L1105.65 828.753ZM1076.2 861.701C1079.6 865.227 1082.87 868.802 1086.06 872.415L1075.71 904.864C1075.71 904.87 1075.71 904.875 1075.71 904.882C1075.71 904.884 1075.71 904.884 1075.71 904.886L1060.11 953.814L1047.46 951.857L1076.2 861.701ZM911.687 930.834L912.83 926.276L943.016 780.295C975.191 790.895 1008.52 805.889 1039.98 829.548C1052.42 838.907 1063.72 848.994 1074.06 859.526L1044.76 951.436L911.687 930.834ZM902.926 965.756L910.367 936.094L933.742 939.714L931.095 968.979L902.926 965.756ZM902.262 968.395L930.853 971.669L928.75 994.923L896.477 991.446L902.262 968.395ZM905.032 935.146L897.508 965.133L762.217 949.648L771.106 908.681L905.032 935.146ZM781.712 859.797L916.665 881.032L907.561 925.073L906.348 929.9L772.251 903.401L781.712 859.797ZM777.958 813.34L671.573 802.534L678.371 752.45L787.705 768.412L777.958 813.34ZM613.744 581.094L690.752 644.614C691.021 644.836 691.328 645.004 691.66 645.107L744.102 661.635C747.464 663.237 780.885 679.11 806.869 689.954C804.051 706.339 801.837 719.219 800.521 726.864C794.851 723.735 790.263 720.185 787.026 715.978C760.673 681.74 736.341 674.014 712.809 666.543C707.181 664.758 701.36 662.908 695.566 660.713C682.15 655.626 670.047 646.477 658.345 637.629C644.791 627.386 630.778 616.793 614.697 612.624C614.219 612.501 613.675 612.382 613.155 612.259L613.744 581.094ZM614.242 495.177L612.556 518.484L545.83 522.236L545.218 498.198L614.242 495.177ZM543.299 422.726L596.316 423.405L591.21 482.662L544.875 484.689L543.299 422.726ZM487.788 499.607L494.595 500.335C494.933 500.373 495.274 500.382 495.61 500.369L520.516 499.28L528.123 550.841C528.222 551.506 528.793 551.994 529.461 551.994H529.486L543.875 551.728L544.471 575.21L497.569 574.152C494.859 553.347 491.271 525.887 487.788 499.607ZM495.716 601.879C487.459 601.487 481.015 601.216 477.534 601.077C466.291 589.259 412.242 532.441 368.8 486.853L482.259 499.014C486.853 533.691 491.93 572.618 495.716 601.879ZM509.159 422.289L518.535 485.845L495.527 486.851L485.957 485.825C482.277 458.205 478.933 433.612 477.164 421.879L509.159 422.289ZM629.891 312.973C627.844 321.229 626.518 326.561 626.462 326.789C626.426 326.939 626.401 327.092 626.388 327.246L624.87 348.226L541.376 347.153L539.63 278.428C565.419 277.742 584.172 277.26 590.934 277.088L629.891 312.973ZM633.594 298.012L598.082 265.299C597.9 265.131 597.694 265.001 597.499 264.858L596.587 263.767L623.178 245.88L648.218 238.408C643.738 256.885 638.036 280.034 633.594 298.012ZM642.942 306.622L638.128 302.189C641.772 287.452 646.414 268.632 650.556 251.669L674.157 273.235L642.942 306.622ZM721.151 316.185L689.43 349.444L644.93 308.455L676.152 275.061L721.151 316.185ZM731.652 325.781L699.289 358.53L691.415 351.277L723.148 318.008L731.652 325.781ZM757.252 345.516L724.428 315.517L724.235 295.411V295.409L723.762 246.062L752.174 259.522L757.252 345.516ZM757.344 301.249L754.91 260.071L770.595 260.884L771.998 300.733L757.344 301.249ZM773.596 346.127L760.065 347.294L757.503 303.948L772.092 303.435L773.596 346.127ZM774.699 300.639L773.305 261.025L788.952 261.838L790.308 300.091L774.699 300.639ZM791.883 344.548L776.292 345.894L774.793 303.339L790.404 302.792L791.883 344.548ZM811.562 299.345L793.008 299.996L791.661 261.977L808.249 262.837L811.562 299.345ZM814.267 299.251L810.977 262.978L844.162 264.701L847.672 298.077L814.267 299.251ZM852.016 339.36L818.172 342.279L814.512 301.945L847.957 300.769L852.016 339.36ZM890.513 274.906L872.728 312.193L853.26 299.501L849.506 263.796L852.401 255.396L890.513 274.906ZM898.378 230.115L909.206 235.715L891.676 272.467L853.289 252.815L862.987 224.685L898.378 230.115ZM898.022 227.329L863.884 222.087L880.015 175.296L915.694 191.079L898.022 227.329ZM922.728 215.569C922.551 215.896 922.519 216.279 922.636 216.63C922.748 216.984 923.006 217.273 923.34 217.43L935.66 223.238L927.062 241.904L900.597 228.22L918.169 192.174L932.018 198.298L922.728 215.569ZM936.79 220.786L925.783 215.596L934.497 199.396L944.585 203.858L936.79 220.786ZM962.099 232.718L939.237 221.937L947.06 204.951L970.598 215.363L962.099 232.718ZM989.558 245.665L964.547 233.872L973.073 216.458L993.453 225.472L989.558 245.665ZM1011.8 259.141L990.192 270.908L994.076 250.784L1011.8 259.141ZM1035.51 246.23L1014.74 257.542L994.605 248.044L998.498 227.857L1035.51 246.23ZM1037.85 244.375L999.283 225.232L1017.53 189.228L1055.58 210.083L1037.85 244.375ZM1065.81 231.634L1041.48 243.228L1057.3 212.643L1065.81 231.634ZM1068.26 230.471L1058.89 209.574L1065.65 196.486L1079.91 224.916L1068.26 230.471ZM1094.33 253.637L1081.38 259.741L1069.36 232.938L1081.13 227.333L1094.33 253.637ZM1096.77 252.486L1083.57 226.168L1107.16 214.93C1109.8 223.951 1112.66 233.74 1115.55 243.634L1096.77 252.486ZM1047.69 278.611L1049.94 277.552C1050.19 277.773 1050.48 277.932 1050.81 277.932C1050.98 277.932 1051.15 277.901 1051.32 277.832C1051.87 277.61 1052.17 277.07 1052.15 276.512L1116.31 246.259C1119.91 258.583 1123.52 270.971 1126.79 282.155L1047.69 278.611ZM1136.33 314.877L1115.93 321.72L1107.05 294.793L1130.78 295.857C1132.99 303.413 1134.89 309.94 1136.33 314.877ZM1139.85 317.287C1138.39 312.283 1136.23 304.868 1133.64 295.985L1146.08 296.542L1139.85 317.287ZM1183.86 338.141L1151.2 348.421L1143.35 324.399L1151.65 296.793L1171.52 297.683L1183.86 338.141ZM1209.68 299.394C1211.94 307.142 1213.76 315.571 1214.75 324.578C1214.88 325.837 1215.02 327.069 1215.15 328.292L1186.43 337.328L1174.39 297.812L1209.68 299.394ZM1209.11 250.145L1221.3 286.393L1207.94 285.793C1200.7 266.99 1191.64 253.756 1187.78 248.562L1209.11 250.145ZM1208.18 247.368L1185.77 245.703L1176.01 223.227L1201.19 226.601L1208.18 247.368ZM1283.42 252.954L1211.1 247.585L1204.18 226.999L1288.11 238.242L1283.42 252.954ZM1393.62 263.847L1391.51 294.02L1277.64 288.915L1288.12 256.012L1393.62 263.847ZM1395.48 237.194L1393.81 261.153L1288.96 253.366L1294.17 237.026L1395.48 237.194ZM1420.56 295.322L1394.21 294.141L1398.19 237.198L1426.47 237.245C1424.65 255.174 1422.65 274.877 1420.56 295.322ZM1455.89 430.741L1418.93 442.853C1420.17 431.005 1421.48 418.38 1422.84 405.277C1432.41 402.004 1441.9 398.76 1451.27 395.553L1455.89 430.741ZM1458.5 429.887L1453.88 394.661C1465.05 390.835 1476.05 387.065 1486.83 383.372L1498.41 416.812L1458.5 429.887ZM1506.7 440.778L1462.07 457.11L1458.86 432.613L1499.29 419.366L1506.7 440.778ZM1548.53 425.475L1511.78 438.919L1504.23 417.11L1531.48 400.454L1548.53 425.475ZM1551.14 424.518L1534 399.345L1562.18 389.924L1571.71 416.992L1551.14 424.518ZM1566.38 446.878L1552.71 426.821L1604.15 407.998L1610.88 421.801L1566.38 446.878ZM1567.9 449.113L1612.52 423.974L1625.61 440.866L1585.88 475.498L1567.9 449.113ZM1539.5 465.116L1565.54 450.446L1583.82 477.288L1580.78 479.94L1552.37 493.645L1539.5 465.116ZM1523.9 473.908L1537.14 466.446L1549.94 494.82L1533.83 502.593L1523.9 473.908ZM1483.59 532.831L1530.71 510.1L1543.3 546.491L1496.25 569.283L1483.59 532.831ZM1417.79 622.886L1414.52 613.361C1414.46 613.07 1414.38 612.606 1414.28 611.986L1494.69 573.037L1498.66 584.459L1417.79 622.886ZM1424.02 641.012L1418.68 625.457L1499.55 587.026L1506.15 606.05L1424.02 641.012ZM1480.19 646.695L1472.35 624.163C1472.26 623.909 1472.09 623.719 1471.9 623.567L1507.04 608.604L1515.21 632.141L1480.19 646.695ZM1514.2 698.15C1513.88 698.253 1508.74 700.173 1499.95 703.477L1481.08 649.253L1516.1 634.702L1533.91 685.987C1523.16 693.078 1515.95 697.567 1514.2 698.15ZM1501.73 708.579C1510.47 705.291 1515.59 703.38 1515.9 703.277C1517.94 702.601 1525.12 698.186 1535.63 691.28L1549.53 736.1L1516.06 749.757L1501.73 708.579ZM1469.01 771.873L1514.44 753.334L1523.37 778.976L1477.8 797.465L1469.01 771.873ZM1422.62 876.284L1406.77 829.197L1466.14 805.112L1482.43 852.497L1422.62 876.284ZM1466.32 902.684C1466.31 902.63 1466.32 902.574 1466.3 902.518L1453.39 866.954L1483.31 855.057L1495.71 891.137L1466.32 902.684ZM1445.71 946.718L1436.39 917.352L1495.91 893.962L1498.17 928.502L1445.71 946.718ZM1426.23 956.339L1443.97 950.181L1452.16 975.982L1434.55 982.71L1426.23 956.339ZM1423.68 957.224L1432.02 983.676L1423.86 986.792L1415.2 960.169L1423.68 957.224ZM1402.68 930.597L1422.14 922.949L1430.78 951.899L1412.32 958.306L1402.68 930.597ZM1388.37 936.221L1400.16 931.589L1409.77 959.193L1397.55 963.435L1388.37 936.221ZM1355.66 949.072L1385.85 937.209L1395.42 965.597C1395.43 965.599 1395.42 965.601 1395.43 965.601C1395.43 965.604 1395.43 965.604 1395.43 965.604L1405 993.998L1374.76 1005.55C1370.04 991.366 1363.47 971.981 1355.66 949.072ZM1350.6 950.963C1360.26 979.261 1367.97 1002.1 1372.64 1016.31L1300.58 1043.76L1298.92 1043.39L1277.05 977.874L1350.6 950.963ZM1320.8 864.078C1331.38 894.824 1341.27 923.619 1349.73 948.407L1276.2 975.31L1248.82 893.281L1320.8 864.078ZM1222.82 815.093C1244.56 806.581 1269.03 797.113 1294.34 787.38C1303.05 812.585 1311.69 837.619 1319.92 861.52L1247.97 890.714L1222.82 815.093ZM1235.1 860.586L1187.08 879.617C1187.08 879.585 1187.09 879.554 1187.08 879.523L1173.62 834.629C1186.52 829.396 1202.43 823.084 1220.3 816.077L1235.1 860.586ZM1276.04 734.462C1281.51 750.281 1287.05 766.304 1292.58 782.284C1267.31 792.004 1242.87 801.463 1221.12 809.977L1205.73 763.679L1276.04 734.462ZM1197.16 737.912L1267.46 709.681C1270 717.024 1272.57 724.438 1275.15 731.902L1204.87 761.107L1197.16 737.912ZM1125.42 766.721L1194.65 738.92L1202.37 762.147L1115.35 798.311L1125.42 766.721ZM1103.7 775.443L1118.91 769.335L1103.94 816.312C1100.92 811.783 1097.9 807.343 1094.91 803.02L1103.7 775.443ZM1081.59 784.323L1100.45 776.749L1092.96 800.222C1089.11 794.692 1085.3 789.372 1081.59 784.323ZM949.272 723.032C992.882 732.247 1033.21 740.909 1037.21 741.767C1045.04 745.528 1067 772.26 1090.88 806.763L1078.68 845.029C1069.28 835.863 1059.13 827.044 1048.11 818.754C1013.97 793.081 978.035 777.276 943.666 766.27L949.272 723.032ZM811.992 692.064C822.885 696.49 831.869 699.702 835.744 700.054C842.425 700.663 896.242 711.834 946.62 722.472L941.048 765.446C915.573 757.447 891.006 752.022 868.732 747.107C843.129 741.46 821.117 736.581 805.571 729.402C806.808 722.201 809.068 709.07 811.992 692.064ZM784.251 645.626L813.523 651.26C811.463 663.246 809.54 674.43 807.81 684.492C798.923 680.752 789.046 676.393 779.578 672.116L784.251 645.626ZM748.646 638.772L781.595 645.116L777.037 670.965C764.821 665.423 753.536 660.144 746.326 656.71L748.646 638.772ZM686.675 607.087L748.807 616.426L743.712 655.847L693.787 640.114L682.502 630.802L686.675 607.087ZM665.459 603.9L684.001 606.686L680.106 628.828L651.591 605.309L665.459 603.9ZM636.994 575.669L687.948 584.244L684.467 604.025L665.692 601.205C665.582 601.187 665.47 601.187 665.353 601.196L648.66 602.887L616.286 576.186L636.994 575.669ZM615.634 550.881L691.707 562.876L688.417 581.585L637.314 572.985C637.229 572.97 637.151 572.97 637.056 572.965L613.995 573.541L615.634 550.881ZM619.41 423.701L615.224 481.611L593.933 482.541L599.025 423.441L619.41 423.701ZM650.415 424.097L648.947 446.564L623.487 442.288L624.828 423.77L650.415 424.097ZM653.113 382.803L650.592 421.402L625.023 421.075L627.954 380.547L653.113 382.803ZM651.293 353.983L663.724 366.408L653.898 380.159L628.149 377.852L630.07 351.301L651.293 353.983ZM665.373 364.233L652.878 351.745C652.665 351.532 652.389 351.398 652.091 351.36L630.265 348.609L631.765 327.867C632.004 326.903 632.979 322.981 634.425 317.148L673.893 353.506L665.373 364.233ZM684.963 392.072L656.655 380.95L666.577 367.064L675.885 355.342L689.99 368.337L684.963 392.072ZM722.223 381.568L717.043 404.676L687.516 393.073L692.303 370.467L696.456 374.293C697.142 374.924 697.951 375.406 698.834 375.711C699.702 376.009 708.125 378.844 722.223 381.568ZM735.984 355.369C734.285 360.947 733.335 366.079 732.817 369.622C717.957 367.253 707.921 364.392 704.521 363.346L701.277 360.362L733.647 327.602L754.899 347.023C748.948 346.721 738.425 347.364 735.984 355.369ZM735.496 370.032C736.002 366.576 736.932 361.543 738.573 356.156C740.868 348.611 753.742 349.518 757.515 349.953L758.848 372.537C750.224 371.963 742.39 371.063 735.496 370.032ZM778.484 386.752L773.06 428.738L717.045 422.408L719.349 406.748L724.879 382.068C738.501 384.554 756.853 386.803 778.484 386.752ZM823.564 383.289C824.367 389.216 825.414 396.72 825.853 398.899C826.337 401.289 822.291 421.187 819.461 433.982L809.713 432.88C809.706 432.88 809.704 432.876 809.697 432.873C809.691 432.873 809.682 432.876 809.675 432.876L775.746 429.041L781.214 386.727C794.288 386.581 808.503 385.578 823.564 383.289ZM854.428 362.284C844.187 365.382 834.63 367.777 826.151 369.208C823.757 369.611 821.388 369.97 819.033 370.306L818.331 344.978L852.298 342.046L854.428 362.284ZM885.362 323.658L857.283 337.738L853.623 302.962L885.362 323.658ZM910.152 307.301L907.693 312.458L888.157 322.255L875.012 313.685L883.07 296.793L910.152 307.301ZM916.47 294.043L911.317 304.855L884.237 294.347L889.513 283.282L916.47 294.043ZM925.536 275.014L917.633 291.599L890.681 280.838L898.651 264.127L925.536 275.014ZM937.335 250.257L926.702 272.572L899.817 261.686L911.613 236.958L927.132 244.982H927.134L937.335 250.257ZM951.432 254.504L929.467 243.148L938.106 224.392L960.911 235.146L951.432 254.504ZM984.55 271.625L953.833 255.745L963.356 236.3L989.031 248.405L984.55 271.625ZM1026.09 285.808L983.439 305.917L989.528 274.346L1014.18 260.922L1026.09 285.808ZM1052.05 321.001L1025.53 333.713L1011.91 309.629C1025.94 302.546 1036.8 296.834 1042.7 293.695L1052.05 321.001ZM1089.71 330.516L1063.98 339.149L1047.88 292.141L1077.94 293.489L1089.71 330.516ZM1092.28 329.656L1080.82 293.619L1104.16 294.663L1113.37 322.578L1092.28 329.656ZM1122.13 349.14L1100.47 355.425L1093.09 332.221L1114.21 325.138L1122.13 349.14ZM1159.37 390.871L1140.88 397.311L1128.08 358.53L1146.88 352.612L1159.37 390.871ZM1188.33 352.802C1188.33 352.802 1188.33 352.802 1188.33 352.804L1196.04 378.099L1164.48 389.092L1152.03 350.988L1184.65 340.724L1188.33 352.802ZM1216.53 342.565L1190.51 350.706L1187.22 339.913L1215.43 331.034C1215.85 335.068 1216.21 338.903 1216.53 342.565ZM1225.92 300.122L1246.27 360.602L1220.7 369.506C1220.55 356.798 1219.44 342.521 1217.43 324.285C1216.46 315.457 1214.72 307.167 1212.54 299.522L1225.92 300.122ZM1272.05 288.667L1224.2 286.523L1212.04 250.363L1282.58 255.6L1272.05 288.667ZM1292.83 344.387L1275.34 302.335L1397.8 307.823L1292.83 344.387ZM1414.92 350.37L1346.21 372.998L1333.37 333.126L1405.08 308.15L1419.18 308.782C1417.78 322.524 1416.34 336.486 1414.92 350.37ZM1415.65 474.096C1416.57 465.391 1417.57 455.894 1418.62 445.798L1456.25 433.467L1459.49 458.058L1415.65 474.096ZM1469.53 494.178L1411.74 518.504C1412.39 507.618 1413.34 495.82 1414.7 483.121C1414.9 481.165 1415.12 479.143 1415.33 477.091L1460.05 460.73L1469.53 494.178ZM1518.11 473.729L1472.04 493.125L1462.58 459.803L1507.59 443.334L1518.11 473.729ZM1512.67 441.475L1550.1 427.78L1564.02 448.208L1537.21 463.313C1537.21 463.313 1537.21 463.313 1537.21 463.313C1537.2 463.315 1537.2 463.317 1537.2 463.319L1523 471.321L1512.67 441.475ZM1472.78 495.739L1519 476.28L1528.92 504.959L1481.84 527.675L1472.78 495.739ZM1411.89 591.163C1411.39 584.77 1410.96 577.035 1410.75 567.977L1481.14 534.009L1489.55 558.217L1411.89 591.163ZM1412.12 594.001L1490.44 560.775L1493.8 570.47L1413.84 609.199C1413.36 605.907 1412.71 600.837 1412.12 594.001ZM1361.91 695.847L1354.42 673.579L1412.44 648.881L1420.25 671.606L1361.91 695.847ZM1439.09 726.439C1421.11 733.244 1400.94 740.893 1379.77 748.948L1362.78 698.416L1421.13 674.168L1439.09 726.439ZM1432.75 666.411L1424.9 643.574L1469.73 624.49C1469.71 624.673 1469.73 624.864 1469.8 625.05L1477.69 647.734L1432.75 666.411ZM1451.74 721.656L1433.64 668.969L1478.58 650.292L1497.42 704.429C1486.45 708.552 1470.68 714.5 1451.74 721.656ZM1453.5 726.759C1472.45 719.6 1488.23 713.653 1499.2 709.529L1513.55 750.779L1468.12 769.315L1453.5 726.759ZM1397.15 800.603L1456.45 776.94L1465.26 802.552L1405.91 826.629L1397.15 800.603ZM1366.57 871.562L1358.84 848.644L1404.26 830.216L1412.39 854.354L1366.57 871.562ZM1374.6 895.382L1367.43 874.12L1413.25 856.917L1420.1 877.285L1374.6 895.382ZM1372.95 898.943L1384.99 934.647L1354.79 946.514C1351 935.411 1346.93 923.505 1342.64 910.997L1372.95 898.943ZM1356.33 849.663L1372.08 896.381L1341.76 908.439C1336.71 893.697 1331.36 878.129 1325.82 862.042L1356.33 849.663ZM1346.59 820.783L1355.46 847.099L1324.94 859.484C1321.95 850.806 1318.91 841.982 1315.83 833.056L1346.59 820.783ZM1330.63 773.463L1345.72 818.218L1314.95 830.5C1309.84 815.676 1304.63 800.587 1299.4 785.438C1309.73 781.462 1320.19 777.457 1330.63 773.463ZM1312.38 719.358L1328.91 768.351C1318.45 772.352 1307.99 776.364 1297.63 780.342C1292.09 764.313 1286.54 748.243 1281.05 732.379L1312.38 719.358ZM1304.15 694.947L1311.52 716.789L1280.16 729.821C1277.58 722.378 1275.02 714.983 1272.49 707.663L1304.15 694.947ZM1265.33 686.997L1345.36 655.122L1351.06 672.074L1304.47 691.907C1304.47 691.907 1304.47 691.907 1304.47 691.907L1271.6 705.105C1269.49 699.012 1267.4 692.971 1265.33 686.997ZM1190.19 716.93L1260.29 689.004C1262.36 694.982 1264.46 701.026 1266.57 707.128L1196.31 735.341L1190.19 716.93ZM1134.18 739.238L1187.67 717.931L1193.79 736.353L1126.48 763.381L1134.18 739.238ZM1112.49 747.876L1127.68 741.828L1119.97 765.995L1104.76 772.101L1112.49 747.876ZM1109.24 749.17L1101.51 773.407L1079.93 782.074C1075.61 776.227 1071.43 770.766 1067.48 765.802L1109.24 749.17ZM1113.43 736.006L1110.3 745.839L1065.72 763.598C1064.03 761.508 1062.39 759.515 1060.81 757.626L1113.43 736.006ZM1060.24 723.583C1060.8 723.522 1061.24 723.133 1061.39 722.595L1120.82 671.057L1136.32 665.585C1125.08 700.186 1117.09 724.553 1116.83 725.357L1114.51 732.646L1058.97 755.458C1052.36 747.728 1046.74 741.975 1042.62 738.866L1060.24 723.583ZM1005.91 691.705L1060 702.442L1059.05 717.465L1037.36 736.275C1032.69 735.271 1018.01 732.119 998.563 727.971L1005.91 691.705ZM954.653 681.529L1003.26 691.179L995.921 727.406C982.197 724.483 966.308 721.105 949.969 717.651L954.653 681.529ZM911.613 684.302L950.287 694.172L947.317 717.091C934.035 714.287 920.527 711.449 907.7 708.776L911.613 684.302ZM892.485 638.017L915.712 641.509L905.05 708.225C896.935 706.536 889.128 704.921 881.857 703.432L892.485 638.017ZM871.576 634.876L889.814 637.616L879.21 702.89C872.699 701.559 866.663 700.336 861.286 699.268L871.576 634.876ZM858.709 632.941L868.902 634.473L858.632 698.741C854.862 697.993 851.471 697.334 848.508 696.772L858.709 632.941ZM843.606 630.672L856.035 632.54L845.85 696.27C840.995 695.368 837.647 694.803 836.235 694.673C835.432 694.602 834.314 694.357 832.98 693.995L843.606 630.672ZM823.08 627.588L840.933 630.271L830.369 693.224C825.958 691.813 819.875 689.477 812.929 686.62C815.841 669.686 819.324 649.434 823.08 627.588ZM788.355 622.368L817.732 626.783C816.446 634.263 815.191 641.558 813.98 648.596L784.72 642.965L788.355 622.368ZM751.481 616.827L785.681 621.967L782.066 642.454L748.991 636.088L751.481 616.827ZM751.582 594.955L749.154 613.747L687.143 604.428L690.613 584.694L751.582 594.955ZM694.378 563.297L754.448 572.768L751.927 592.274L691.081 582.035L694.378 563.297ZM696.676 534.625L692.173 560.229L615.829 548.197L617.761 521.49L696.676 534.625ZM672.023 453.179L664.844 487.084C659.499 486.324 654.256 485.581 649.153 484.855L651.448 449.725L672.023 453.179ZM678.106 424.453L672.584 450.533L651.625 447.014L653.12 424.133L678.106 424.453ZM678.676 421.765L653.297 421.438L655.776 383.508L684.396 394.753L678.676 421.765ZM714.34 422.222L681.432 421.799L686.948 395.754L716.525 407.375L714.34 422.222ZM763.721 501.007C744.389 498.306 725.179 495.607 706.659 492.995L716.653 425.076L772.713 431.413L763.721 501.007ZM802.586 469.567C786.668 466.93 774.932 464.986 771.182 464.363L775.4 431.715L807.936 435.393L802.586 469.567ZM849.817 440.126C847.97 450.876 845.868 463.12 843.593 476.361C829.759 474.069 816.56 471.883 805.253 470.008L810.623 435.696L849.817 440.126ZM979.947 355.564L978.703 326.594C979.057 326.334 979.333 325.983 979.528 325.573C990.423 320.349 1000.55 315.347 1009.5 310.847L1023.09 334.882L979.947 355.564ZM1034.11 354.372L981.097 382.325L980.07 358.485L1024.42 337.236L1034.11 354.372ZM1036.5 353.111L1026.86 336.065L1052.93 323.575L1058.99 341.253L1036.5 353.111ZM1073.72 384.274L1041.8 394.861L1037.41 355.669L1059.87 343.824L1073.72 384.274ZM1068.88 353.456L1064.85 341.692L1090.53 333.081L1094.8 346.512L1068.88 353.456ZM1103.65 374.349L1078.85 382.574L1069.76 356.019L1095.62 349.088L1103.65 374.349ZM1106.21 373.498L1101.29 358.004L1122.98 351.709L1127.81 366.336L1106.21 373.498ZM1116.49 405.807L1107.03 376.071L1128.65 368.901L1138.32 398.2L1116.49 405.807ZM1164.78 478.368C1156.98 480.973 1149.38 483.511 1141.98 485.975L1117.31 408.381L1139.17 400.767L1164.78 478.368ZM1185.65 471.377C1179.45 473.458 1173.34 475.505 1167.34 477.51L1141.72 399.878L1160.21 393.438L1185.65 471.377ZM1206.63 412.843L1176.68 426.458L1165.31 391.662L1196.82 380.686L1206.63 412.843ZM1198.59 377.207L1191.3 353.291L1216.76 345.325C1217.52 354.61 1217.94 362.813 1218.01 370.447L1198.59 377.207ZM1212.31 422.224L1199.38 379.794L1218.01 373.305C1217.96 390.083 1216.12 404.403 1212.31 422.224ZM1247.74 364.979L1217.24 460.764C1212.42 462.385 1207.63 463.998 1202.91 465.584C1208.79 446.282 1212.97 431.865 1214.35 425.605C1218.69 405.89 1220.74 390.613 1220.72 372.362L1247.13 363.162L1247.74 364.979ZM1249.5 359.477L1248.83 359.713L1228.82 300.252L1267.8 301.997L1249.5 359.477ZM1255.88 357.255L1272.95 303.641L1290.27 345.276L1255.88 357.255ZM1307.15 385.862L1284.4 393.357L1271.17 354.791L1291.31 347.776L1307.15 385.862ZM1309.73 385.016L1293.87 346.884L1330.81 334.015L1343.65 373.843L1309.73 385.016ZM1350.89 396.332L1318.93 407.129L1310.77 387.518L1344.47 376.414L1350.89 396.332ZM1410.29 395.253C1393.1 401.124 1375.97 406.961 1359.02 412.733L1353.87 396.758C1353.87 396.756 1353.87 396.756 1353.87 396.756C1353.87 396.753 1353.87 396.753 1353.87 396.753L1347.04 375.57L1414.61 353.313C1413.15 367.51 1411.7 381.597 1410.29 395.253ZM1411.58 521.503L1470.28 496.792L1479.37 528.866L1410.65 562.023C1410.51 550.424 1410.73 536.906 1411.58 521.503ZM1343.61 641.453L1401.68 617.599L1405.37 628.313L1347.01 651.556L1343.61 641.453ZM1341.11 642.484L1344.5 652.557L1264.44 684.443C1263.38 681.37 1262.32 678.315 1261.26 675.282L1341.11 642.484ZM1251.74 647.799C1251.83 647.788 1251.93 647.783 1252.02 647.752L1333.5 619.877L1340.24 639.919L1260.38 672.724C1257.44 664.232 1254.55 655.908 1251.74 647.799ZM1186.54 705.976L1256.25 677.34C1257.3 680.355 1258.35 683.393 1259.41 686.448L1189.33 714.361L1186.54 705.976ZM1138.49 725.715L1184.04 707.005L1186.82 715.362L1135.24 735.905L1138.49 725.715ZM1095.63 663.121L1097.76 631.593L1129.8 635.282L1137.69 659.369L1118.57 666.118L1095.63 663.121ZM1065.28 661.875L1115.58 668.45L1061.91 714.981L1065.28 661.875ZM1010.07 671.187L1013.34 655.088L1062.59 661.526L1061.43 679.878L1010.07 671.187ZM1009.54 673.835L1061.26 682.591L1060.18 699.72L1006.45 689.055L1009.54 673.835ZM956.807 664.913L1006.87 673.384L1003.8 688.529L955.001 678.843L956.807 664.913ZM941.501 645.384L956.323 647.613L950.639 691.472L935.454 687.599L941.501 645.384ZM918.384 641.91L938.829 644.983L932.818 686.925L912.039 681.623L918.384 641.91ZM900.985 585.695L924.113 588.932L916.136 638.841L892.92 635.354L900.985 585.695ZM879.907 582.74L898.311 585.319L890.246 634.95L872.004 632.209L879.907 582.74ZM867.017 580.937L877.229 582.366L869.328 631.808L859.132 630.276L867.017 580.937ZM852.298 578.874L864.341 580.561L856.461 629.872L844.052 628.009L852.298 578.874ZM831.947 576.023L849.62 578.498L841.381 627.608L823.54 624.924C826.245 609.181 829.085 592.675 831.947 576.023ZM785.235 597.881L788.331 578.11L825.104 583.91C823.943 590.666 822.789 597.379 821.648 604.009L785.235 597.881ZM784.816 600.551L821.191 606.673C820.178 612.575 819.176 618.392 818.19 624.122L781.979 618.679L784.816 600.551ZM782.151 600.101L779.307 618.278L751.826 614.148L754.249 595.405L782.151 600.101ZM757.118 573.191L785.661 577.689L782.57 597.433L754.594 592.722L757.118 573.191ZM728.411 539.907L758.057 544.842L754.794 570.096L724.565 565.331L728.411 539.907ZM725.744 539.464L721.895 564.91L694.845 560.647L699.343 535.069L725.744 539.464ZM758.404 542.161L735.186 538.297L740.877 511.441C747.789 512.409 754.834 513.397 761.991 514.396L758.404 542.161ZM794.851 518.974L790.388 547.485L761.072 542.604L764.669 514.77C774.591 516.156 784.689 517.563 794.851 518.974ZM796.94 505.635C786.791 504.226 776.584 502.802 766.397 501.381L770.835 467.044C774.679 467.683 786.361 469.618 802.169 472.237L796.94 505.635ZM840.186 496.176L801.864 491.655L804.834 472.68C816.132 474.551 829.316 476.735 843.136 479.024C842.181 484.584 841.195 490.318 840.186 496.176ZM877.872 484.781L876.195 499.417C876.195 499.419 876.195 499.419 876.195 499.419C876.195 499.421 876.195 499.421 876.195 499.424L874.263 516.273C864.13 514.895 853.663 513.464 842.956 511.992C844.864 500.882 846.715 490.112 848.47 479.909C858.184 481.517 868.122 483.166 877.872 484.781ZM914.581 465.326L912.07 487.708C892.936 484.537 870.379 480.8 848.927 477.245C850.23 469.656 851.476 462.405 852.653 455.564L914.581 465.326ZM916.562 447.671L914.883 462.641L853.11 452.901C853.836 448.663 854.533 444.606 855.199 440.733L916.562 447.671ZM893.102 411.116L889.504 441.894L855.656 438.07C856.723 431.854 857.698 426.178 858.561 421.149L893.102 411.116ZM861.828 402.078L895.227 392.986L899.884 406.332L894.299 407.956C894.292 407.958 894.287 407.96 894.281 407.96L859.067 418.19C860.244 411.34 861.181 405.866 861.828 402.078ZM894.335 390.428L862.331 399.141C862.57 397.739 862.738 396.751 862.808 396.316C863.987 389.269 862.842 380.204 861.763 374.174C869.505 371.762 877.563 368.997 885.799 365.973L894.335 390.428ZM916.795 384.315L896.95 389.717L888.334 365.037C895.045 362.544 901.861 359.885 908.708 357.117L916.795 384.315ZM917.077 375.78L911.225 356.093C933.464 347.016 955.922 336.824 976.024 327.246L977.289 356.677L917.077 375.78ZM924.073 399.307L917.848 378.372L977.407 359.462L978.441 383.513L924.073 399.307ZM956.419 403.218L958.04 392.78C958.069 392.6 958.058 392.423 958.02 392.26L978.562 386.293L979.321 404.018L956.419 403.218ZM953.427 422.471L956 405.908L979.438 406.726L980.216 424.838L953.427 422.471ZM981.392 452.278L949.359 448.656L953.013 425.148L980.332 427.56L981.392 452.278ZM1010.15 405.357L982.479 414.537L981.224 385.311L999.87 375.476L1010.15 405.357ZM1008.4 391.94L1002.29 374.199L1034.84 357.025L1037.52 380.993L1008.4 391.94ZM1012.72 404.506L1009.27 394.495L1037.84 383.761L1039.18 395.732L1012.72 404.506ZM1043.16 431.346L1024.22 437.942L1013.6 407.06L1039.48 398.476L1043.16 431.346ZM1084.87 416.821L1045.78 430.434L1042.1 397.604L1074.6 386.83L1084.87 416.821ZM1089.97 415.043L1079.73 385.128L1104.47 376.925L1113.93 406.697L1089.97 415.043ZM1117.1 494.236L1090.85 417.599L1114.75 409.27L1139.41 486.828C1131.73 489.384 1124.3 491.85 1117.1 494.236ZM1157.77 546.078L1134.88 552.89L1119.49 507.651C1127.22 505.1 1135.22 502.452 1143.45 499.722L1157.77 546.078ZM1180.87 527.126C1176.59 540.622 1172.11 554.655 1167.6 568.745L1146.02 498.87C1153.5 496.384 1161.18 493.828 1169.02 491.214L1180.87 527.126ZM1192.15 491.27C1189.06 501.175 1185.73 511.753 1182.26 522.724L1171.58 490.358C1177.58 488.354 1183.68 486.313 1189.86 484.245L1192.15 491.27ZM1190.78 469.656L1177.52 429.043L1207.42 415.451L1211.11 427.54C1209.28 434.916 1205.22 448.771 1199.76 466.641C1196.75 467.654 1193.75 468.662 1190.78 469.656ZM1202.74 506.292L1196.37 486.79C1196.93 485.007 1197.47 483.249 1198.01 481.515C1202.68 479.949 1207.39 478.368 1212.14 476.771L1202.74 506.292ZM1234.29 503.35L1206.45 512.474L1218.5 474.636C1220.11 474.092 1221.73 473.547 1223.35 473.003L1234.29 503.35ZM1273.57 441.746C1256.48 447.532 1239.78 453.168 1223.6 458.622L1250.66 373.641L1273.57 441.746ZM1270.3 423.555L1252.04 369.286L1254.85 360.472L1268.62 355.681L1282.27 395.499C1282.46 396.057 1282.99 396.411 1283.55 396.411C1283.69 396.411 1283.83 396.388 1283.97 396.341L1308.2 388.364L1316.36 407.996L1270.3 423.555ZM1323.38 424.856C1307.37 430.293 1291.6 435.642 1276.13 440.879L1271.17 426.115L1317.4 410.498L1323.38 424.856ZM1325.94 423.985L1319.97 409.633L1351.72 398.906L1356.46 413.607C1346.21 417.092 1336.03 420.558 1325.94 423.985ZM1364.67 438.7L1334.56 448.645L1330.74 436.67C1340.71 433.281 1350.69 429.887 1360.66 426.492L1364.67 438.7ZM1367.24 437.853L1363.21 425.62C1378.48 420.421 1393.7 415.229 1408.75 410.088C1408.24 415.02 1407.74 419.884 1407.24 424.646L1367.24 437.853ZM1373.76 457.654L1368.09 440.42L1406.94 427.594C1406.22 434.437 1405.53 441.076 1404.86 447.462L1373.76 457.654ZM1383.1 486.011L1374.61 460.221L1404.55 450.408C1403.46 460.824 1402.44 470.512 1401.51 479.273L1383.1 486.011ZM1398.39 515.355L1393.33 517.097L1383.94 488.58L1401.19 482.265C1399.95 494.081 1399.03 505.095 1398.39 515.355ZM1399.01 599.561C1399.8 607.405 1400.63 612.528 1401.06 614.936L1342.75 638.891L1338.2 625.361L1399.01 599.561ZM1328.87 597.621L1397.32 573.458C1397.63 582.707 1398.16 590.471 1398.74 596.74L1337.33 622.792L1335.63 617.725L1335.63 617.723L1328.87 597.621ZM1250.89 645.349C1248.76 639.213 1246.67 633.214 1244.64 627.35L1326.32 598.521L1332.64 617.317L1251.15 645.196C1251.05 645.23 1250.97 645.295 1250.89 645.349ZM1178.67 682.302L1249.47 657.785C1251.41 663.367 1253.37 669.036 1255.36 674.784L1185.69 703.407L1178.67 682.302ZM1160.35 657.104L1166.7 654.864L1183.18 704.435L1139.56 722.355L1160.35 657.104ZM1154.39 618.621L1160.87 637.674L1156.02 652.902L1141.64 657.975C1145.61 645.736 1149.92 632.453 1154.39 618.621ZM1126.58 616.739L1151.15 609.108L1152.93 614.338C1148.2 628.976 1143.64 643.068 1139.44 656.011L1126.58 616.739ZM1098.99 613.429L1123.79 616.901L1128.88 632.457L1097.94 628.896L1098.99 613.429ZM1068.79 606.469L1071.58 562.397L1099.64 563.521L1096.48 610.351L1068.79 606.469ZM1067.59 625.401L1068.62 609.175L1096.3 613.052L1095.25 628.584L1067.59 625.401ZM1067.42 628.1L1095.07 631.284L1092.95 662.769L1065.45 659.174L1067.42 628.1ZM1020.45 619.974L1023.91 602.912L1065.93 608.798L1064.9 625.092L1020.45 619.974ZM1019.92 622.633L1064.73 627.791L1062.76 658.824L1013.88 652.436L1019.92 622.633ZM989.764 649.284L998.839 599.399L1021.23 602.535L1011.19 652.082L989.764 649.284ZM958.999 647.987L1010.65 654.739L1007.41 670.737L957.155 662.231L958.999 647.987ZM949.086 592.433L963.22 594.411L956.671 644.934L941.884 642.71L949.086 592.433ZM926.791 589.308L946.412 592.057L939.213 642.309L918.81 639.242L926.791 589.308ZM909.284 534.612C917.324 535.683 925.034 536.702 932.307 537.652L924.539 586.266L901.422 583.025L909.284 534.612ZM888.054 531.763C894.391 532.616 900.595 533.449 906.606 534.253L898.743 582.651L880.333 580.073L888.054 531.763ZM910.037 505.805L908.347 520.872C898.387 519.541 887.877 518.123 876.944 516.638L878.717 501.16L910.037 505.805ZM910.34 503.115L879.024 498.472L880.541 485.224C891.443 487.03 902.049 488.786 911.768 490.399L910.34 503.115ZM919.247 447.973L946.257 451.026L939.843 492.309C932.796 491.142 924.229 489.722 914.737 488.15L919.247 447.973ZM959.909 452.617V495.631C959.829 495.618 959.737 495.609 959.66 495.596C958.71 495.437 952.351 494.384 942.51 492.753L948.945 451.329L959.918 452.57C959.918 452.585 959.909 452.601 959.909 452.617ZM937.541 524.733L942.093 495.423C951.921 497.052 958.269 498.104 959.217 498.261C959.425 498.297 959.683 498.322 959.909 498.355V527.607C953.161 526.758 945.661 525.793 937.541 524.733ZM953.808 540.422L946.795 589.382L927.217 586.64L934.99 538.001C941.674 538.872 947.963 539.683 953.808 540.422ZM969.959 542.427L963.567 591.732L949.471 589.756L956.489 540.763C961.339 541.374 965.829 541.928 969.959 542.427ZM975.578 499.09L971.69 529.068C968.861 528.725 965.822 528.349 962.61 527.948V498.651C967.126 499.027 972.864 499.088 975.578 499.09ZM975.928 496.386C973.371 496.384 967.18 496.337 962.61 495.943V452.874L981.294 454.987L975.928 496.386ZM984.044 454.798L1009.88 445.798L1034.98 520.941C1013.87 527.587 1000.61 531.445 997.465 531.724C994.923 531.724 986.76 530.88 974.375 529.393L984.044 454.798ZM1010.31 442.79H1010.31C1010.3 442.79 1010.3 442.792 1010.3 442.792L984.084 451.922L982.598 417.341L1011.03 407.913L1021.67 438.832L1010.31 442.79ZM1051.99 457.737L1069.94 509.723C1057.8 513.668 1046.96 517.151 1037.55 520.126L1012.44 444.909L1043.79 433.989L1051.99 457.737ZM1069.37 450.708L1054.12 455.632L1046.34 433.1L1061.84 427.701L1069.37 450.708ZM1075.3 460.134L1064.39 426.812L1085.74 419.375L1097.37 453.318L1075.3 460.134ZM1081.34 478.574L1076.14 462.703L1098.24 455.874L1103.55 471.356L1081.34 478.574ZM1089.45 503.346L1082.18 481.141L1104.42 473.912L1111.96 495.932C1104.13 498.521 1096.63 500.992 1089.45 503.346ZM1098.5 531.001L1093.64 516.134C1101.08 513.704 1108.85 511.155 1116.92 508.498L1121.96 523.327L1098.5 531.001ZM1108.27 560.811L1099.34 533.568L1122.83 525.887L1132.29 553.661L1108.27 560.811ZM1106.4 563.79L1122.85 614.042L1099.17 610.727L1102.35 563.629L1106.4 563.79ZM1072.86 542.232L1096.78 534.41L1105.5 561.053L1071.75 559.7L1072.86 542.232ZM1091.07 516.974L1095.94 531.841L1073.04 539.329L1074.11 522.48C1079.54 520.724 1085.19 518.889 1091.07 516.974ZM1072.51 508.885L1055 458.185L1070.21 453.275L1086.88 504.19C1081.92 505.817 1077.13 507.38 1072.51 508.885ZM1034.23 552.026L1037.88 534.009C1047.6 530.981 1058.83 527.408 1071.35 523.374L1070.28 540.234L1034.23 552.026ZM1029.74 574.164L1033.61 555.072L1070.1 543.137L1067.83 578.847L1029.74 574.164ZM1029.2 576.82L1067.66 581.549L1066.1 606.092L1024.45 600.26L1029.2 576.82ZM1003.52 573.662L1026.51 576.486L1021.77 599.885L999.321 596.738L1003.52 573.662ZM1030.65 556.037L1027.05 573.832L1003.79 570.972V564.823L1030.65 556.037ZM1002.02 562.563C1001.46 562.744 1001.09 563.261 1001.09 563.846L1001.11 570.642L969.529 566.76L972.642 542.752C985.779 544.322 994.618 545.234 997.465 545.234C1000.39 545.234 1013.78 541.477 1034.94 534.925L1031.27 552.993L1002.02 562.563ZM996.172 599.028L987.079 648.932L959.347 645.31L965.896 594.785L996.172 599.028ZM966.245 592.106L969.184 569.437L1000.85 573.333L996.658 596.366L966.245 592.106ZM1150.28 606.547L1125.74 614.172L1109.11 563.378L1133.16 556.221L1150.28 606.547ZM1154.32 610.03L1153.3 607.027C1153.3 607.027 1153.3 607.027 1153.3 607.024L1135.75 555.448L1158.57 548.659L1166.16 573.238C1162.19 585.614 1158.21 597.981 1154.32 610.03ZM1164.98 649.741L1162.41 650.644L1163.8 646.287L1164.98 649.741ZM1173.67 597.536L1162.25 633.34L1155.78 614.313C1159.63 602.372 1163.59 590.074 1167.55 577.745L1173.67 597.536ZM1188.62 550.614L1175.1 593.029L1168.99 573.252C1173.51 559.16 1178 545.091 1182.31 531.505L1188.62 550.614ZM1190.02 546.226L1183.71 527.106C1187.17 516.188 1190.49 505.64 1193.6 495.699L1199.93 515.108L1190.02 546.226ZM1237.77 624.046L1218 631.024L1192.9 554.973L1202.89 523.649C1208.24 539.047 1221.2 576.303 1237.77 624.046ZM1246.12 536.133L1216.7 546.901C1211.12 530.855 1207.28 519.821 1205.79 515.534L1235.21 505.893L1246.12 536.133ZM1282.19 467.356C1282.19 467.356 1282.19 467.356 1282.19 467.358L1288.34 485.641L1236.86 502.508L1225.91 472.141C1242.87 466.431 1260.27 460.56 1277.89 454.595L1282.19 467.356ZM1284.32 465.228L1280.46 453.728C1296.23 448.388 1312.19 442.976 1328.19 437.539L1331.99 449.492L1284.32 465.228ZM1338.29 469.273L1290.91 484.801L1285.18 467.79L1332.81 452.066L1338.29 469.273ZM1340.86 468.433L1335.38 451.219L1365.52 441.267L1371.19 458.494L1340.86 468.433ZM1350.28 498.019L1341.68 471.009L1372.04 461.064L1380.56 486.94L1350.28 498.019ZM1360.01 528.577L1351.1 500.595L1381.4 489.509L1390.77 517.978L1360.01 528.577ZM1321.71 576.341C1321.71 576.339 1321.71 576.339 1321.71 576.339L1318.7 567.39C1318.71 567.385 1318.72 567.388 1318.74 567.383L1364.83 552.601L1372.44 576.509L1327.14 592.498L1321.71 576.341ZM1270.52 595.845L1319.59 578.523L1324.59 593.398L1275.85 610.604L1270.52 595.845ZM1256.28 564.317L1226.34 574.632C1223.11 565.347 1220.17 556.904 1217.58 549.454L1247.04 538.675L1256.28 564.317ZM1298.84 516.842L1248.66 535.206L1237.78 505.053L1289.2 488.204L1298.84 516.842ZM1301.38 515.912L1291.77 487.361L1339.11 471.849L1347.74 498.947L1301.38 515.912ZM1307.15 532.013C1307.04 532.058 1306.95 532.134 1306.86 532.204L1302.24 518.475L1348.56 501.525L1352.63 514.302L1307.15 532.013ZM1311.29 545.364L1307.67 534.619C1307.82 534.616 1307.98 534.592 1308.13 534.531L1353.45 516.88L1357.45 529.458L1311.29 545.364ZM1317.84 564.847L1312.15 547.924L1358.28 532.031L1364.01 550.025L1317.91 564.809C1317.88 564.818 1317.86 564.838 1317.84 564.847ZM1258.84 563.434L1249.57 537.748L1299.7 519.404L1308.73 546.244L1258.84 563.434ZM1309.59 548.805L1318.72 575.96L1269.61 593.3L1259.75 565.976L1309.59 548.805ZM1227.22 577.185L1257.2 566.857L1273.3 611.502L1242.87 622.245C1237.17 605.842 1231.91 590.67 1227.22 577.185ZM1167.52 648.838L1165.18 641.953L1191.5 559.362L1215.45 631.922L1167.52 648.838ZM1239.54 629.151C1242.46 637.562 1245.48 646.276 1248.58 655.234L1177.82 679.735L1169.25 653.961L1239.54 629.151ZM1397.16 567.784L1374.99 575.608L1366.99 550.489C1366.99 550.489 1366.99 550.489 1366.99 550.487C1366.99 550.484 1366.99 550.484 1366.99 550.484L1360.83 531.151L1398.2 518.276C1397.06 537.627 1396.86 554.142 1397.16 567.784ZM922.416 419.731L924.404 402.024L955.263 393.06L950.731 422.233L922.416 419.731ZM950.314 424.908L946.672 448.354L919.549 445.29L922.114 422.417L950.314 424.908ZM902.484 405.579L897.842 392.273L917.566 386.906L921.477 400.062L902.484 405.579ZM921.591 402.842L916.862 444.987L892.192 442.198L895.919 410.296L921.591 402.842ZM912.864 504.851L914.435 490.84C923.884 492.406 932.413 493.819 939.428 494.982L934.86 524.384C927.385 523.405 919.417 522.35 911.026 521.23L912.861 504.86C912.864 504.86 912.864 504.858 912.864 504.858C912.864 504.856 912.864 504.853 912.864 504.851ZM875.156 530.015C878.598 530.484 882 530.943 885.374 531.4L877.655 579.699L867.443 578.267L875.156 530.015ZM860.824 528.064C864.744 528.6 868.626 529.128 872.477 529.653L864.767 577.891L852.747 576.206L860.824 528.064ZM840.666 525.305C846.54 526.113 852.375 526.911 858.146 527.699L850.068 575.832L832.404 573.359C835.177 557.234 837.965 541.027 840.666 525.305ZM799.618 506.007L801.447 494.328L839.729 498.841C839.027 502.92 838.315 507.069 837.595 511.255C825.158 509.546 812.445 507.788 799.618 506.007ZM793.055 547.929L797.529 519.346C810.123 521.093 822.789 522.847 835.307 524.57C833.637 534.28 831.938 544.17 830.228 554.118L793.055 547.929ZM792.636 550.599L829.768 556.781C828.368 564.937 826.96 573.113 825.561 581.246L788.748 575.447L792.636 550.599ZM772.312 572.855L757.465 570.515L760.724 545.288L776.308 547.882L772.312 572.855ZM778.975 548.325L789.971 550.155L786.078 575.024L774.981 573.276L778.975 548.325ZM704.402 506.314C715.075 507.817 726.4 509.412 738.192 511.065L732.517 537.851L699.811 532.408L704.402 506.314ZM691.173 473.413L706.542 475.218L703.983 492.619C698.814 491.891 693.699 491.167 688.659 490.455L691.173 473.413ZM708.875 459.366L706.937 472.544L691.57 470.738L693.628 456.805L708.875 459.366ZM692.693 453.909C692.691 453.909 692.691 453.909 692.689 453.909H692.686L675.253 450.981L680.863 424.487L713.945 424.91L709.268 456.693L692.693 453.909ZM688.488 473.099L685.98 490.076C679.711 489.191 673.548 488.318 667.527 487.464L671.004 471.045L688.488 473.099ZM671.566 468.391L674.693 453.627L690.96 456.357L688.883 470.425L671.566 468.391ZM1131.96 728.399L1128.74 738.497L1113.55 744.545L1116.7 734.666L1131.96 728.399ZM1117.77 731.308L1119.4 726.186C1119.67 725.372 1127.96 700.092 1139.54 664.451L1153.96 659.357L1133.03 725.039L1117.77 731.308ZM1347.87 654.12L1406.24 630.869L1411.55 646.321L1353.55 671.012L1347.87 654.12ZM1314.02 715.75L1306.65 693.912L1351.93 674.641L1359.41 696.886L1314.02 715.75ZM1331.43 767.386L1314.88 718.319L1360.27 699.456L1377.25 749.909C1362.3 755.595 1346.9 761.47 1331.43 767.386ZM1393.78 799.042L1348.24 817.215L1333.16 772.495C1348.62 766.584 1364.02 760.711 1378.97 755.023L1393.78 799.042ZM1403.4 827.649L1357.97 846.082L1349.1 819.78L1394.64 801.606L1403.4 827.649ZM1381.49 754.062C1402.67 746.005 1422.86 738.351 1440.85 731.544L1455.58 774.379L1396.29 798.038L1381.49 754.062ZM911.629 310.484L939.737 251.501L951.439 257.548C951.441 257.551 951.441 257.553 951.444 257.553C951.446 257.553 951.448 257.553 951.448 257.553L983.809 274.284L911.629 310.484ZM983.416 277.505L976.8 311.808C941.062 329.013 896.506 348.943 859.693 360.653L857.586 340.61L983.416 277.505ZM828.502 398.362C828.078 396.267 827.036 388.774 826.236 382.868C826.96 382.753 827.675 382.65 828.401 382.527C836.938 381.087 846.43 378.757 856.543 375.762C857.516 381.387 858.482 389.397 857.476 395.429C857.099 397.681 854.367 413.636 850.274 437.463L822.161 434.285C823.901 426.427 829.21 401.865 828.502 398.362ZM620.661 481.372L623.292 444.996L648.77 449.272L646.468 484.474C638.78 483.381 631.386 482.326 624.379 481.327C623.965 481.266 623.546 481.248 623.129 481.264L620.661 481.372ZM623.091 494.789C629.178 495.658 660.073 500.062 701.723 505.935L697.144 531.964L617.956 518.782L619.682 494.939L623.091 494.789ZM1433.05 915.761L1387.51 933.659L1375.46 897.944L1420.96 879.85L1433.05 915.761ZM1443.15 947.603L1433.33 951.012L1424.67 921.959L1433.87 918.344L1443.15 947.603ZM1423.48 878.848L1450.87 867.953L1463.76 903.441C1463.79 903.522 1463.86 903.565 1463.91 903.636L1435.56 914.773L1423.48 878.848ZM1137.95 325.27L1146.04 350.045L1127.23 355.963L1116.78 324.28L1137.08 317.471C1137.62 319.319 1138.07 320.862 1138.42 322.043L1137.93 323.655C1137.77 324.184 1137.78 324.746 1137.95 325.27ZM1040.17 246.848L1066.92 234.1L1078.94 260.893L1051.21 273.968L1040.17 246.848ZM1048.76 275.121L1028.54 284.655L1016.56 259.627L1037.76 248.084L1048.76 275.121ZM793.105 302.698L811.806 302.039L815.48 342.512L794.577 344.315L793.105 302.698ZM815.635 345.209L816.338 370.673C796.166 373.352 777.586 373.621 761.567 372.707L760.224 349.991L815.635 345.209ZM541.446 349.85L624.677 350.918L619.608 421.006L543.23 420.027L541.446 349.85ZM543.196 525.09L543.806 549.031L530.624 549.273L527.191 525.99L543.196 525.09ZM521.251 485.724L511.898 422.325L540.594 422.693L542.172 484.81L521.251 485.724ZM542.517 498.315L543.129 522.388L526.796 523.307L523.233 499.159L542.517 498.315ZM1454.69 975.016L1446.53 949.294L1498.36 931.302L1500.08 957.674L1454.69 975.016ZM1500.91 970.341L1502.89 1000.58L1466.88 1013.45L1458.35 986.554L1500.91 970.341ZM1457.53 983.972L1455.51 977.597L1500.27 960.496L1500.72 967.521L1457.53 983.972ZM1399.41 182.833L1400.06 171.694L1433.15 171.32C1432.79 174.915 1432.38 178.924 1431.94 183.333L1399.41 182.833ZM1340.47 181.928L1343.2 172.337L1397.35 171.725L1396.7 182.791L1340.47 181.928ZM1303.51 181.362L1304.94 172.769L1340.38 172.368L1337.67 181.886L1303.51 181.362ZM1397.96 185.512C1397.97 185.512 1397.98 185.512 1397.98 185.512H1397.98L1431.67 186.03C1430.32 199.396 1428.64 215.963 1426.75 234.544L1294.68 234.326L1303.06 184.059L1397.96 185.512ZM690.293 259.934L709.557 239.333L721.046 244.776L721.499 292.031L690.293 259.934ZM721.537 295.944L721.703 313.027L677.999 273.087L688.446 261.912L721.537 295.944ZM463.864 348.853L538.74 349.814L540.524 419.991L476.747 419.173C476.4 416.976 476.142 415.493 475.994 414.897C475.196 411.712 469.954 382.841 463.864 348.853ZM401.681 351.08L458.371 348.855C464.552 383.358 469.911 412.866 470.747 416.21C470.969 417.095 471.467 420.188 472.175 425.018L409.74 431.619L401.681 351.08ZM323.873 354.137L398.975 351.187L407.051 431.901L342.287 438.749C337.309 414.111 330.301 380.619 323.873 354.137ZM318.37 354.352C326.45 387.607 335.671 433.061 340.432 457.099C324.666 440.579 313.509 428.922 311.68 427.092C307.347 422.762 293.917 416.754 264.3 404.08C257.106 401.003 249.821 397.882 242.949 394.863L241.244 357.381L318.37 354.352ZM240.054 331.202C240.045 331.027 240.004 330.857 239.928 330.698L220.473 288.552C236.187 287.715 262.052 286.713 293.099 285.654C299.348 299.979 304.467 311.335 307.042 316.228C309.721 321.312 313.542 334.712 317.716 351.676L241.12 354.684L240.054 331.202ZM214.812 358.42L238.543 357.488L240.188 393.642C229.889 389.079 220.706 384.785 214.437 381.244C206.94 377.008 199.555 370.892 192.786 363.66L214.812 358.42ZM210.6 289.15C212.521 289.009 214.883 288.864 217.571 288.711L237.364 331.589L238.42 354.789L214.574 355.725C214.487 355.728 214.399 355.741 214.314 355.761L190.679 361.386C178.69 347.899 168.934 330.92 164.541 314.61C163.637 311.257 162.346 304.989 160.784 296.616C182.51 292.678 200.272 289.901 210.6 289.15ZM201.166 251.868L211.629 275.538C210.93 275.585 210.237 275.63 209.618 275.677C198.838 276.461 180.573 279.303 158.379 283.317C156.905 274.935 155.277 265.371 153.567 255.078L201.166 251.868ZM200.005 249.238L153.121 252.399C150.925 239.129 148.596 224.73 146.263 210.092L176.866 196.887L200.005 249.238ZM202.874 249.045L179.347 195.816L222.724 177.101L249.433 245.907L202.874 249.045ZM287.328 272.337C254.954 273.459 228.681 274.508 214.505 275.359L204.035 251.675L276.417 246.796C280.122 255.528 283.82 264.19 287.328 272.337ZM299.855 190.548L313.733 220.338L277.737 236.033C273.449 225.902 269.245 215.907 265.421 206.788L299.855 190.548ZM286.888 162.716L298.714 188.1L264.376 204.295C259.788 193.352 255.815 183.826 253.006 177.085L286.888 162.716ZM285.745 160.263L251.968 174.59C249.936 169.702 248.721 166.777 248.642 166.589L248.335 165.834L280.478 148.953L285.745 160.263ZM316.084 127.214L281.736 145.248L257.713 93.6902L296.336 78.9824L316.084 127.214ZM318.489 125.951L308.493 101.537L342.182 87.1114L351.094 108.833L318.489 125.951ZM360.756 132.386L327.078 146.928L319.513 128.453L352.118 111.33L360.756 132.386ZM363.237 131.316L354.523 110.067L360.503 106.926L369.914 128.43L363.237 131.316ZM379.375 150.058L372.297 153.395L364.264 133.813L370.994 130.908L379.375 150.058ZM381.82 148.904L373.478 129.835L389.629 122.862L397.778 141.378L381.82 148.904ZM398.865 143.851L409.442 167.879L393.123 174.733L382.905 151.379L398.865 143.851ZM402.669 139.07L398.39 129.347L443.123 110.674L446.915 118.205L402.669 139.07ZM408.593 152.528L403.758 141.543L448.13 120.615L454.047 132.364L408.593 152.528ZM416.359 170.173L409.682 155.001L455.264 134.781L462.517 149.186L416.359 170.173ZM469.389 162.832L422.113 183.245L417.448 172.646L463.732 151.601L469.389 162.832ZM471.861 161.764L466.182 150.488L502.538 133.959L509.764 145.398L471.861 161.764ZM476.859 171.683L473.078 164.181L511.223 147.71L515.155 153.935L476.859 171.683ZM500.366 178.974C500.165 178.967 499.963 178.994 499.768 179.084C499.548 179.182 499.387 179.341 499.255 179.523L484.489 186.829L478.074 174.097L516.609 156.238L518.084 158.574C518.086 158.574 518.084 158.574 518.086 158.574L523.681 167.436L500.366 178.974ZM515.233 174.628L525.131 169.732L539.475 192.443L527.85 197.817L515.233 174.628ZM514.059 207.169L526.684 201.333L539.426 224.753L523.918 228.791L514.059 207.169ZM498.385 214.415L511.607 208.302L521.262 229.481L507.747 233.003L498.385 214.415ZM492.47 266.186L491.327 236.273L506.151 235.953L518.862 265.469C510.508 265.695 501.675 265.935 492.47 266.186ZM451.743 280.829C483.379 279.94 513.012 279.135 536.927 278.499L538.671 347.117L463.38 346.147C459.498 324.466 455.318 300.96 451.743 280.829ZM394.815 282.464C412.107 281.956 429.444 281.456 446.276 280.981C449.831 301.007 454.002 324.455 457.891 346.172L401.412 348.389L394.815 282.464ZM392.106 282.542L398.706 348.497L323.218 351.46C318.818 333.552 314.735 319.231 311.828 313.712C309.441 309.174 304.732 298.76 298.915 285.457C327.306 284.5 359.577 283.501 392.106 282.542ZM363.762 240.908L385.937 269.212C353.319 270.18 321.176 271.181 293.137 272.138C289.623 263.986 285.891 255.248 282.137 246.409L363.762 240.908ZM323.324 240.925L281.018 243.777C280.274 242.025 279.532 240.271 278.79 238.52L314.874 222.786L323.324 240.925ZM335.191 173.88L352.992 217.356L321.145 229.846L302.3 189.394L335.191 173.88ZM329.386 159.701L334.167 171.38L301.159 186.946L295.648 175.114L329.386 159.701ZM328.362 157.199L294.507 172.664L282.874 147.694L317.108 129.716L328.362 157.199ZM336.615 170.224L328.102 149.428L361.78 134.886L369.849 154.551L336.615 170.224ZM376.887 171.709L343.303 186.561L337.641 172.726L370.876 157.053L376.887 171.709ZM382.826 179.059L373.323 155.897L380.46 152.533L390.631 175.782L382.826 179.059ZM398.381 193.493L390.196 197.026L383.851 181.559L391.716 178.257L398.381 193.493ZM400.865 192.42L394.208 177.209L410.532 170.354L417.148 185.389L400.865 192.42ZM429.594 213.669L401.472 224.511L391.222 199.528L400.701 195.436C400.703 195.433 400.706 195.436 400.708 195.433C400.71 195.433 400.71 195.431 400.712 195.429L418.237 187.862L429.594 213.669ZM447.352 205.209L434.565 211.537L423.2 185.718L436.421 180.011L447.352 205.209ZM462.634 197.646L458.781 199.553C458.779 199.553 458.774 199.553 458.772 199.555C458.765 199.557 458.763 199.562 458.756 199.564L449.777 204.008L438.902 178.94L452.505 173.067L462.634 197.646ZM465.061 196.444L454.986 171.994L470.606 165.249L475.024 174.021C475.024 174.026 475.024 174.026 475.026 174.026L482.075 188.026L465.061 196.444ZM488.797 201.367L465.771 212.558C465.765 212.563 465.76 212.567 465.754 212.572L461.04 201.445L483.29 190.436L488.797 201.367ZM474.732 233.925C474.714 233.822 474.712 233.719 474.67 233.619L471.26 225.572L495.908 215.495L504.865 233.28L474.732 233.925ZM489.317 254.43L489.767 266.26C476.882 266.614 463.308 266.988 449.358 267.382C448.536 262.736 447.765 258.393 447.063 254.43H489.317ZM488.624 236.329L489.214 251.729H446.586C445.539 245.822 444.667 240.899 444.028 237.285L488.624 236.329ZM466.794 215.024C466.845 215.006 466.901 215.013 466.953 214.988L490.011 203.782L494.691 213.076L470.207 223.086L466.794 215.024ZM443.553 234.593C443.114 232.111 442.858 230.66 442.831 230.509C442.793 230.297 442.731 230.088 442.643 229.889L435.652 214.007L458.613 202.646L471.888 233.986L443.553 234.593ZM405.105 238.121L438.557 237.404C439.673 243.705 441.563 254.395 443.892 267.537C426.019 268.041 407.604 268.572 389.295 269.114L367.023 240.688L405.105 238.121ZM402.499 227.011L430.683 216.14L437.562 231.768C437.663 232.335 437.842 233.345 438.082 234.712L405.939 235.399L402.499 227.011ZM361.287 230.48L395.862 217.963L403.077 235.549L365.01 238.117L363.762 236.524L361.287 230.48ZM344.327 189.06L377.913 174.209L380.845 181.355V181.357L394.838 215.461L360.261 227.976L344.327 189.06ZM361.33 237.72C361.377 237.834 361.44 237.944 361.516 238.04L361.747 238.336L326.217 240.731L322.288 232.301L354.016 219.858L361.33 237.72ZM502.168 181.093L512.808 175.829L525.391 198.955L512.938 204.711L502.168 181.093ZM510.486 205.845L497.168 212.003L491.838 201.421C491.836 201.414 491.836 201.405 491.834 201.394C491.829 201.385 491.818 201.38 491.814 201.369L485.704 189.24L499.746 182.291L510.486 205.845ZM834.076 829.468L789.888 822.102L806.719 744.531C822.798 750.794 842.974 755.261 865.818 760.299C887.998 765.193 912.51 770.605 937.843 778.622L917.214 878.387L782.284 857.152L789.315 824.746L833.63 832.133C833.706 832.144 833.78 832.151 833.854 832.151C834.502 832.151 835.076 831.685 835.186 831.024C835.309 830.287 834.811 829.593 834.076 829.468ZM1091.7 878.972C1090.55 880.248 1089.46 881.527 1088.42 882.811L1090.2 877.218C1090.7 877.802 1091.21 878.385 1091.7 878.972ZM1090.81 857.486C1087.59 853.996 1084.27 850.548 1080.84 847.143L1092.82 809.579C1095.8 813.926 1098.81 818.386 1101.83 822.936L1090.81 857.486ZM1536.65 875.403L1520.01 826.184L1537.42 819.358L1554.79 869.252L1536.65 875.403ZM1573.84 929.495L1557.1 935.892L1538.38 880.522L1556.48 874.382L1573.84 929.495ZM1566.33 896.634L1559.05 873.513L1586.54 864.185L1593.92 886.72L1566.33 896.634ZM1576.37 928.529L1567.14 899.214L1594.76 889.289L1604.14 917.923L1576.37 928.529ZM1579.23 937.615L1577.18 931.112L1604.98 920.494L1607.11 926.999L1579.23 937.615ZM1580.05 940.197L1607.95 929.569L1617.75 959.5L1589.32 969.665L1580.05 940.197ZM1561.01 947.451L1577.52 941.163L1586.78 970.574L1570.76 976.302L1561.01 947.451ZM1557.96 938.453L1574.66 932.077L1576.7 938.58L1560.14 944.888L1557.96 938.453ZM1558.48 948.412L1568.22 977.214L1559.99 980.155H1559.99L1549.8 983.797L1540.3 955.338L1558.48 948.412ZM1193.12 158.776L1299.3 173.737L1289.42 232.967L1176.62 217.858L1175.57 217.17L1193.12 158.776ZM1199.29 99.2611L1226.85 101.768L1225.8 157.922L1194.13 153.462L1199.29 99.2611ZM1194.16 96.0826L1158.44 92.8368L1161.64 52.2771L1198.08 54.9898L1194.16 96.0826ZM1152.79 130.025L1102.22 100.251L1103.13 90.5229L1155.53 95.2851L1152.79 130.025ZM1158.22 95.5293L1193.91 98.7728L1188.91 151.292L1155.38 131.551L1158.22 95.5293ZM809.076 85.9555L892.719 121.86L875.938 170.54L789.927 132.496C796.991 115.172 803.872 98.5085 809.076 85.9555ZM788.125 74.0186L796.184 56.233L815.18 64.2522C814.034 66.9917 811.311 73.5101 807.624 82.3917L788.125 74.0186ZM806.589 84.887C803.457 92.4336 799.726 101.454 795.711 111.214C792.928 110.027 785.643 106.915 775.23 102.473L787.008 76.4803L806.589 84.887ZM187.965 170.728L193.669 186.697L178.255 193.346L168.672 171.665L166.423 152.62C174.315 154.381 182.061 156.108 189.431 157.75L187.898 170.108C187.871 170.318 187.895 170.529 187.965 170.728ZM33.8352 158.885C29.4153 149.867 20.5844 137.124 9.20516 122.423C29.6506 124.602 53.2003 127.228 55.6164 127.83C56.2059 127.978 60.3524 128.916 67.0136 130.413L72.8321 162.947L38.5352 169.543C36.926 165.576 35.3525 161.986 33.8352 158.885ZM41.5207 105.641L28.7294 85.4358L43.9593 77.5242L54.498 101.107L41.5207 105.641ZM48.2694 121.354C39.6111 120.29 26.2415 118.819 15.3576 117.647L40.3866 108.902L48.2694 121.354ZM43.0045 107.984L55.6052 103.582L64.9068 124.401C60.2515 123.355 57.3938 122.705 56.9276 122.588C56.2485 122.418 54.3927 122.143 51.7479 121.798L43.0045 107.984ZM5.0699 97.7223L26.3222 86.6858L38.9006 106.557L14.6964 115.015L5.0699 97.7223ZM1446.75 171.167L1582.78 169.628L1582.46 185.642L1445.5 183.541C1445.96 178.967 1446.38 174.823 1446.75 171.167ZM1447.43 164.398C1448.44 154.289 1449.15 139.357 1449.64 122.116L1477.02 124.963L1475.31 167.807C1475.31 167.926 1475.34 168.034 1475.37 168.146L1447.02 168.464C1447.16 167.026 1447.3 165.655 1447.43 164.398ZM1511.09 128.504L1510.36 167.749L1477.96 168.114C1477.98 168.047 1478.01 167.987 1478.01 167.915L1479.71 125.243L1511.09 128.504ZM1546.81 132.218V167.337L1513.06 167.718L1513.79 128.784L1546.81 132.218ZM1450.15 99.0685L1584.13 103.389L1583.52 133.32L1449.71 119.408C1449.89 112.887 1450.03 106.066 1450.15 99.0685ZM1450.45 76.2362L1531.83 79.679C1531.83 79.679 1531.83 79.679 1531.83 79.679H1531.84L1579.64 81.7018L1671.19 88.657C1671.17 88.7488 1671.13 88.8339 1671.13 88.9302V103.49L1586.67 100.766C1586.44 100.372 1586.04 100.09 1585.55 100.079C1585.02 100.097 1584.64 100.339 1584.41 100.695L1450.19 96.3671C1450.3 89.7568 1450.38 83.0144 1450.45 76.2362ZM1450.63 17.6669L1481.11 20.7558V74.8294L1450.47 73.5325C1450.65 54.2192 1450.67 34.7715 1450.63 17.6669ZM1483.81 21.0314L1501.17 22.7898L1500.42 75.647L1483.81 74.9437V21.0314ZM1503.87 23.063L1532.23 25.937L1530.57 76.9216L1503.13 75.7613L1503.87 23.063ZM1534.93 26.2102L1581.62 30.9411L1578.46 78.9488L1533.27 77.0381L1534.93 26.2102ZM1671.13 142.428L1635.44 138.716L1636.46 105.076L1671.13 106.194V142.428ZM1632.74 138.436L1586.22 133.6L1586.83 103.477L1633.76 104.989L1632.74 138.436ZM1631.89 166.378L1585.54 166.9L1586.16 136.308L1632.66 141.145L1631.89 166.378ZM1631.21 188.698L1585.16 185.75L1585.49 169.597L1631.81 169.073L1631.21 188.698ZM1582.84 166.932L1549.51 167.308V132.498L1583.47 136.028L1582.84 166.932ZM11.3972 4.66592L21.3061 26.833L0.385509 40.6627L0 40.0534V45.1091L11.9351 63.9632L0 71.2656V74.433L13.3808 66.2458L24.8698 84.3942L3.75423 95.3613L0 88.6144V94.1651L1.35601 96.6045L0 97.3101V100.354L2.67167 98.9677L12.1054 115.92L9.08636 116.975C7.45019 116.803 5.93505 116.641 4.56784 116.496C3.08407 114.621 1.551 112.71 0 110.784V132.554C0.0649987 132.637 0.13448 132.727 0.199479 132.81L0 132.971V136.445L1.84013 134.958C11.0094 147.025 18.045 157.378 21.6961 164.828C24.6905 170.939 27.9248 179.088 31.3002 188.61H22.5545L13.3516 161.529C13.3046 161.39 13.2328 161.26 13.1454 161.146L0 143.924V148.378L10.8615 162.606L20.3087 190.396C20.4948 190.944 21.008 191.312 21.5863 191.312H32.2505C33.3466 194.468 34.4583 197.77 35.5812 201.183L0 205.065V207.785L36.4374 203.809C38.6249 210.551 40.8483 217.715 43.0852 225.149L0 231.569V234.302L43.8651 227.765C50.9858 251.624 58.1917 278.002 64.7028 301.934C42.1102 306.687 19.8268 311.501 0 315.847V329.701C20.7368 325.154 44.356 320.049 68.2643 315.022C78.3929 352.157 84.5162 373.744 88.3309 380.227C97.7871 396.292 249.064 476.347 298.669 502.295L361.774 635.083C359.375 634.957 356.979 634.829 354.572 634.738C353.375 634.695 352.196 634.964 351.143 635.524C281.33 672.603 174.427 728.777 166.076 731.562C160.885 733 135.966 723.014 112.744 710.181C109.478 708.378 105.367 709.56 103.559 712.822C102.902 714.011 102.649 715.31 102.74 716.572L0 770.511V776.612L105.264 721.352C105.558 721.587 105.86 721.813 106.201 722.001C121.048 730.209 157.026 748.83 170.332 744.381C182.155 740.445 331.776 661.102 355.87 648.31C450.811 652.279 538.16 683.796 549.651 688.085L602.118 739.567L643.948 883.458L622.519 984.708C612.863 1009.42 597.947 1047.18 595.872 1051.33C594.305 1054.46 590.009 1070.01 579.844 1107.43C578.719 1111.57 577.571 1115.78 576.426 1120H590.434C591.25 1116.99 592.071 1113.98 592.889 1110.97C599.31 1087.33 606.59 1060.53 607.962 1057.37C610.853 1051.59 630.763 1000.74 634.811 990.387L666.252 1000.07L663.11 1073.65C663.081 1074.28 663.504 1074.85 664.125 1075.01L718.181 1088.87L711.428 1120H725.26L745.131 1028.41L808.254 1045.55L789.108 1120H791.899L796.099 1103.66L858.666 1119.92L858.646 1120H864.22L878.141 1064.52L985.091 1093.56L975.854 1120H978.716L987.704 1094.27L1014.32 1101.49L1008.58 1120H1014.25L1019.54 1102.91L1082.48 1120H1134.04L1111.73 1113.94L1149.18 1016.19L1173.09 1021.42C1181.85 1040.83 1188.77 1055.04 1196.39 1062.95C1212.86 1080.07 1265.14 1095.86 1304.9 1104.17C1330.9 1109.6 1355.95 1113 1378.43 1114.35L1375.89 1120H1381.82L1384.21 1114.67C1407.75 1115.73 1428.18 1114.42 1443.4 1110.61C1464.34 1105.38 1487.49 1101.5 1509.3 1098.63L1510.7 1120H1524.25L1522.74 1096.97C1557.33 1092.94 1586.34 1091.46 1594.08 1091.12C1599.39 1094.42 1616.43 1105.37 1633.83 1120H1654.22C1629.38 1096.55 1601.03 1079.51 1599.32 1078.49C1598.2 1077.82 1596.91 1077.47 1595.61 1077.54C1595.08 1077.56 1562.36 1078.79 1521.86 1083.48L1520.08 1056.28L1606.79 1054.6L1681 1111.28V1094.28L1617.36 1045.68L1644.45 1036.73C1644.48 1036.72 1644.5 1036.7 1644.52 1036.69C1644.55 1036.68 1644.57 1036.69 1644.59 1036.68L1667.76 1026.13L1681 1065.92V1057.36L1670.23 1025.01L1681 1020.1V1017.14L1669.38 1022.43L1646.03 952.253L1661.15 946.848L1681 1002.03V994.047L1663.7 945.977L1681 940.348V937.505L1661.54 943.837C1661.53 943.84 1661.53 943.844 1661.52 943.846C1661.52 943.849 1661.51 943.846 1661.5 943.851L1645.18 949.688L1634.64 918.017C1634.64 918.015 1634.64 918.013 1634.64 918.01C1634.64 918.006 1634.64 917.999 1634.64 917.995L1612.65 855.331L1652.41 841.844L1681 927.79V919.229L1678.6 912.027C1678.7 912.009 1678.8 912.007 1678.9 911.969L1681 911.111V908.195L1677.88 909.469C1677.84 909.485 1677.81 909.516 1677.78 909.536L1671.25 889.927L1681 884.144V881.012L1670.38 887.304L1654.97 840.977L1677.24 833.419L1681 843.378V835.719L1679.81 832.55L1681 832.144V826.439L1677.9 827.492L1657.14 772.444L1681 763.09V760.189L1576.43 801.17C1576.42 801.073 1576.42 800.979 1576.38 800.885L1570.38 784.708L1663.32 726.896L1681 753.585V740.764L1679.71 741.857L1667.68 723.688L1681 711.919V708.34L1666.18 721.428L1649.5 696.261L1673.87 675.976L1681 686.267V681.525L1675.95 674.242L1681 670.04V666.525L1674.41 672.013L1658.76 649.437L1681 630.992V627.484L1657.21 647.208L1638.21 619.79C1648.89 612.053 1659.25 604.442 1668.84 597.276L1681 614.125V609.506L1671.01 595.656C1674.47 593.065 1677.78 590.554 1681 588.103V581.376C1676.84 584.58 1672.47 587.899 1667.89 591.338L1651.38 568.458L1681 547.434V544.118L1649.8 566.27L1636.33 547.599L1636.48 547.525L1681 515.296V511.974L1635.07 545.227L1634.74 545.395L1613.03 515.296L1667.81 466.455C1672.13 471.988 1676.57 477.633 1681 483.233V478.887C1677.2 474.071 1673.44 469.296 1669.83 464.659L1681 454.698V451.078L1668.16 462.522C1664.8 458.21 1661.57 454.026 1658.5 450.023C1658.49 450.007 1658.49 449.991 1658.48 449.98C1658.47 449.969 1658.46 449.965 1658.45 449.958C1653.26 443.173 1648.55 436.921 1644.58 431.5L1662.08 416.25L1681 439.829V435.51L1664.12 414.474L1681 399.762V392.591L1675.9 397.038C1670.37 379.55 1658.66 342.393 1653.63 325.987C1660.03 323.776 1665.68 321.823 1670.55 320.143C1672.43 320.365 1676.02 320.786 1681 321.373V307.769C1675.34 307.104 1671.67 306.672 1670.59 306.546C1670.52 306.537 1670.45 306.548 1670.37 306.542C1670.28 306.533 1670.2 306.508 1670.11 306.506L1611.16 303.865L1600.64 269.322L1681 278.118V275.399L1599.78 266.511L1592.33 242.052L1681 246.001V243.298L1486.71 234.642C1486.7 234.642 1486.69 234.647 1486.68 234.647C1486.67 234.647 1486.66 234.64 1486.65 234.64L1440.33 234.564C1442.22 215.992 1443.89 199.481 1445.23 186.238L1583.69 188.362L1632.46 191.48C1632.46 191.48 1632.47 191.484 1632.48 191.484H1632.52C1632.52 191.484 1632.52 191.484 1632.52 191.484L1681 194.584V191.885L1633.91 188.87L1634.51 169.042L1681 168.517V165.823L1634.6 166.347L1635.36 141.425L1681 146.171V143.454L1673.84 142.708V88.9302C1673.84 88.9056 1673.82 88.8832 1673.82 88.8563L1681 89.4029V86.6947L1581.16 79.1078L1584.4 29.8166C1584.4 29.801 1584.4 29.7875 1584.4 29.7718C1584.4 29.7562 1584.41 29.745 1584.41 29.7293V0H1581.7V28.2352L1535.02 23.5043L1535.79 0H1533.08L1532.32 23.231L1503.91 20.3504L1504.2 0H1501.49L1501.21 20.0771L1450.62 14.9498C1450.61 9.6992 1450.59 4.69504 1450.56 0H1437.03C1437.05 4.2896 1437.07 8.81664 1437.09 13.5789L1375.81 7.3696L1376.91 0H1374.17L1372.92 8.42464C1372.92 8.42688 1372.92 8.43136 1372.92 8.4336C1372.92 8.43584 1372.92 8.43808 1372.92 8.44032L1369.95 28.495C1356.13 27.5341 1341.36 26.5149 1326.55 25.5002L1330.29 0H1324.82L1321.14 25.1283C1276.59 22.0797 1232.65 19.1498 1214.07 18.1462C1212.01 18.0342 1209.66 17.8506 1207.07 17.6064L1208.75 0H1203.32L1201.69 17.0464C1176.86 14.2598 1135.21 7.14336 1096.1 0H1066.34C1079.6 2.4976 1093.84 5.13408 1108.14 7.70336L1105.77 33.1363L1034.05 27.7491L1042.18 0H1039.37L1031.49 26.8554L989.842 0H984.855L1030.7 29.559L1023.55 53.928L959.353 16.1235C959.255 16.0675 959.156 16.016 959.057 15.9734L922.176 0H908.583L956.751 20.8634L1067.89 86.3072L1048.04 119.37L884.872 45.0106L876.803 0H871.309L878.972 42.7526L752.436 0.13216C752.458 0.08736 752.478 0.0448 752.496 0H743.585L746.169 0.87136C737.959 18.928 725.493 46.4307 712.383 75.6426C644.816 46.7914 560.739 10.873 556.61 9.016C554.172 7.92064 550.303 4.24704 546.368 0H542.701C547.264 5.0736 552.251 10.0173 555.503 11.48C557.866 12.544 586.27 24.7005 622.777 40.3043C620.441 45.3085 611.779 63.8198 609.99 66.7699C608.6 69.0592 608.724 77.7952 609.495 95.303C609.721 100.399 609.914 104.803 609.8 106.08C609.685 107.348 608.506 115.759 606.935 126.744L569.043 128.601L560.443 89.9248C560.385 89.6717 560.259 89.441 560.073 89.2595L470.093 0H466.256L491.558 25.0992L455.177 53.9213L451.622 48.2922L412.99 0H409.532L420.99 14.3203L395.34 39.825L383.32 15.9958C383.32 15.9936 383.32 15.9936 383.32 15.9914C383.317 15.9914 383.317 15.9891 383.315 15.9891L375.253 0H372.229L380.294 15.9734L354.151 28.8355L341.458 0H335.552L336.657 2.5088L293.588 17.5571L286.776 0H283.878L283.914 0.09632L253.407 10.5549L248.66 0H245.697L259.017 29.6374L232.233 38.9984L214.067 0H211.084L218.877 16.7283L192.093 28.121L180.609 0H174.768L195.884 51.7014L126.496 75.9472L157.714 0H154.789L131.351 57.0214L103.364 0H100.353L129.979 60.359L123.948 75.0378L86.0425 0H70.9001L88.3556 34.5542L34.7945 50.391L13.2933 2.28256C13.2933 2.28032 13.2933 2.27808 13.2933 2.27584C13.2911 2.27584 13.2911 2.2736 13.2889 2.2736L12.2735 0H9.31274L10.2944 2.19744L0 7.0672V10.0576L11.3972 4.66592Z" fill="#CAD1E1"/>
</svg>
