<svg width="89" height="12" viewBox="0 0 89 12" fill="none" xmlns="http://www.w3.org/2000/svg">
<path d="M84.8251 11.7692C84.0998 11.7692 83.4491 11.6412 82.8731 11.3852C82.2971 11.1185 81.8385 10.7612 81.4971 10.3132C81.1665 9.86519 80.9851 9.36919 80.9531 8.82519H83.2091C83.2518 9.16652 83.4171 9.44919 83.7051 9.67319C84.0038 9.89719 84.3718 10.0092 84.8091 10.0092C85.2358 10.0092 85.5665 9.92385 85.8011 9.75319C86.0465 9.58252 86.1691 9.36385 86.1691 9.09719C86.1691 8.80919 86.0198 8.59585 85.7211 8.45719C85.4331 8.30785 84.9691 8.14785 84.3291 7.97719C83.6678 7.81719 83.1238 7.65185 82.6971 7.48119C82.2811 7.31052 81.9185 7.04919 81.6091 6.69719C81.3105 6.34519 81.1611 5.87052 81.1611 5.27319C81.1611 4.78252 81.2998 4.33452 81.5771 3.92919C81.8651 3.52385 82.2705 3.20385 82.7931 2.96919C83.3265 2.73452 83.9505 2.61719 84.6651 2.61719C85.7211 2.61719 86.5638 2.88385 87.1931 3.41719C87.8225 3.93985 88.1691 4.64919 88.2331 5.54519H86.0891C86.0571 5.19319 85.9078 4.91585 85.6411 4.71319C85.3851 4.49985 85.0385 4.39319 84.6011 4.39319C84.1958 4.39319 83.8811 4.46785 83.6571 4.61719C83.4438 4.76652 83.3371 4.97452 83.3371 5.24119C83.3371 5.53985 83.4865 5.76919 83.7851 5.92919C84.0838 6.07852 84.5478 6.23319 85.1771 6.39319C85.8171 6.55319 86.3451 6.71852 86.7611 6.88919C87.1771 7.05985 87.5345 7.32652 87.8331 7.68919C88.1425 8.04119 88.3025 8.51052 88.3131 9.09719C88.3131 9.60919 88.1691 10.0679 87.8811 10.4732C87.6038 10.8785 87.1985 11.1985 86.6651 11.4332C86.1425 11.6572 85.5291 11.7692 84.8251 11.7692Z" fill="#3B5266"/>
<path d="M79.2234 2.76123V11.6252H76.9674V10.5052C76.6794 10.8892 76.3007 11.1932 75.8314 11.4172C75.3727 11.6306 74.8714 11.7372 74.3274 11.7372C73.6341 11.7372 73.0207 11.5932 72.4874 11.3052C71.9541 11.0066 71.5327 10.5746 71.2234 10.0092C70.9247 9.43323 70.7754 8.75056 70.7754 7.96123V2.76123H73.0154V7.64123C73.0154 8.34523 73.1914 8.88923 73.5434 9.27323C73.8954 9.64656 74.3754 9.83323 74.9834 9.83323C75.6021 9.83323 76.0874 9.64656 76.4394 9.27323C76.7914 8.88923 76.9674 8.34523 76.9674 7.64123V2.76123H79.2234Z" fill="#3B5266"/>
<path d="M63.4468 4.60085V8.88885C63.4468 9.18752 63.5161 9.40618 63.6548 9.54485C63.8041 9.67285 64.0494 9.73685 64.3908 9.73685H65.4308V11.6248H64.0228C62.1348 11.6248 61.1908 10.7075 61.1908 8.87285V4.60085H60.1348V2.76085H61.1908V0.568848H63.4468V2.76085H65.4308V4.60085H63.4468Z" fill="#3B5266"/>
<path d="M50.6387 7.19319C50.6387 6.27585 50.8253 5.47585 51.1987 4.79319C51.572 4.09985 52.0893 3.56652 52.7507 3.19319C53.412 2.80919 54.1693 2.61719 55.0227 2.61719C56.1213 2.61719 57.028 2.89452 57.7427 3.44919C58.468 3.99319 58.9533 4.76119 59.1987 5.75319H56.7827C56.6547 5.36919 56.436 5.07052 56.1267 4.85719C55.828 4.63319 55.4547 4.52119 55.0067 4.52119C54.3667 4.52119 53.86 4.75585 53.4867 5.22519C53.1133 5.68385 52.9267 6.33985 52.9267 7.19319C52.9267 8.03585 53.1133 8.69185 53.4867 9.16119C53.86 9.61985 54.3667 9.84919 55.0067 9.84919C55.9133 9.84919 56.5053 9.44385 56.7827 8.63319H59.1987C58.9533 9.59319 58.468 10.3559 57.7427 10.9212C57.0173 11.4865 56.1107 11.7692 55.0227 11.7692C54.1693 11.7692 53.412 11.5825 52.7507 11.2092C52.0893 10.8252 51.572 10.2919 51.1987 9.60919C50.8253 8.91585 50.6387 8.11052 50.6387 7.19319Z" fill="#3B5266"/>
<path d="M39.7949 7.16119C39.7949 6.26519 39.9709 5.47052 40.3229 4.77719C40.6856 4.08385 41.1709 3.55052 41.7789 3.17719C42.3976 2.80385 43.0856 2.61719 43.8429 2.61719C44.5043 2.61719 45.0803 2.75052 45.5709 3.01719C46.0723 3.28385 46.4723 3.61985 46.7709 4.02519V2.76119H49.0269V11.6252H46.7709V10.3292C46.4829 10.7452 46.0829 11.0919 45.5709 11.3692C45.0696 11.6359 44.4883 11.7692 43.8269 11.7692C43.0803 11.7692 42.3976 11.5772 41.7789 11.1932C41.1709 10.8092 40.6856 10.2705 40.3229 9.57719C39.9709 8.87319 39.7949 8.06785 39.7949 7.16119ZM46.7709 7.19319C46.7709 6.64919 46.6643 6.18519 46.4509 5.80119C46.2376 5.40652 45.9496 5.10785 45.5869 4.90519C45.2243 4.69185 44.8349 4.58519 44.4189 4.58519C44.0029 4.58519 43.6189 4.68652 43.2669 4.88919C42.9149 5.09185 42.6269 5.39052 42.4029 5.78519C42.1896 6.16919 42.0829 6.62785 42.0829 7.16119C42.0829 7.69452 42.1896 8.16385 42.4029 8.56919C42.6269 8.96385 42.9149 9.26785 43.2669 9.48119C43.6296 9.69452 44.0136 9.80119 44.4189 9.80119C44.8349 9.80119 45.2243 9.69985 45.5869 9.49719C45.9496 9.28385 46.2376 8.98519 46.4509 8.60119C46.6643 8.20652 46.7709 7.73719 46.7709 7.19319Z" fill="#3B5266"/>
<path d="M36.7749 4.60085V8.88885C36.7749 9.18752 36.8442 9.40618 36.9829 9.54485C37.1322 9.67285 37.3776 9.73685 37.7189 9.73685H38.7589V11.6248H37.3509C35.4629 11.6248 34.5189 10.7075 34.5189 8.87285V4.60085H33.4629V2.76085H34.5189V0.568848H36.7749V2.76085H38.7589V4.60085H36.7749Z" fill="#3B5266"/>
<path d="M28.5018 2.63281C29.5578 2.63281 30.4112 2.96881 31.0618 3.64081C31.7125 4.30215 32.0378 5.23015 32.0378 6.42481V11.6248H29.7978V6.72881C29.7978 6.02481 29.6218 5.48615 29.2698 5.11281C28.9178 4.72881 28.4378 4.53681 27.8298 4.53681C27.2112 4.53681 26.7205 4.72881 26.3578 5.11281C26.0058 5.48615 25.8298 6.02481 25.8298 6.72881V11.6248H23.5898V2.76081H25.8298V3.86481C26.1285 3.48081 26.5072 3.18215 26.9658 2.96881C27.4352 2.74481 27.9472 2.63281 28.5018 2.63281Z" fill="#3B5266"/>
<path d="M17.3222 11.7692C16.4688 11.7692 15.7008 11.5825 15.0182 11.2092C14.3355 10.8252 13.7968 10.2865 13.4022 9.59319C13.0182 8.89986 12.8262 8.09985 12.8262 7.19319C12.8262 6.28652 13.0235 5.48652 13.4182 4.79319C13.8235 4.09985 14.3728 3.56652 15.0662 3.19319C15.7595 2.80919 16.5328 2.61719 17.3862 2.61719C18.2395 2.61719 19.0128 2.80919 19.7062 3.19319C20.3995 3.56652 20.9435 4.09985 21.3382 4.79319C21.7435 5.48652 21.9462 6.28652 21.9462 7.19319C21.9462 8.09985 21.7382 8.89986 21.3222 9.59319C20.9168 10.2865 20.3622 10.8252 19.6582 11.2092C18.9648 11.5825 18.1862 11.7692 17.3222 11.7692ZM17.3222 9.81719C17.7275 9.81719 18.1062 9.72119 18.4582 9.52919C18.8208 9.32652 19.1088 9.02785 19.3222 8.63319C19.5355 8.23852 19.6422 7.75852 19.6422 7.19319C19.6422 6.35052 19.4182 5.70519 18.9702 5.25719C18.5328 4.79852 17.9942 4.56919 17.3542 4.56919C16.7142 4.56919 16.1755 4.79852 15.7382 5.25719C15.3115 5.70519 15.0982 6.35052 15.0982 7.19319C15.0982 8.03585 15.3062 8.68652 15.7222 9.14519C16.1488 9.59319 16.6822 9.81719 17.3222 9.81719Z" fill="#3B5266"/>
<path d="M0.560547 6.02499C0.560547 4.92632 0.80588 3.94499 1.29655 3.08099C1.79788 2.20632 2.47521 1.52899 3.32855 1.04899C4.19255 0.558322 5.15788 0.312988 6.22455 0.312988C7.47255 0.312988 8.56588 0.632988 9.50455 1.27299C10.4432 1.91299 11.0992 2.79832 11.4725 3.92899H8.89655C8.64055 3.39565 8.27788 2.99565 7.80855 2.72899C7.34988 2.46232 6.81655 2.32899 6.20855 2.32899C5.55788 2.32899 4.97655 2.48365 4.46455 2.79299C3.96321 3.09165 3.56855 3.51832 3.28055 4.07299C3.00321 4.62766 2.86455 5.27832 2.86455 6.02499C2.86455 6.76099 3.00321 7.41165 3.28055 7.97699C3.56855 8.53165 3.96321 8.96365 4.46455 9.27299C4.97655 9.57166 5.55788 9.72099 6.20855 9.72099C6.81655 9.72099 7.34988 9.58766 7.80855 9.32099C8.27788 9.04366 8.64055 8.63832 8.89655 8.10499H11.4725C11.0992 9.24632 10.4432 10.137 9.50455 10.777C8.57655 11.4063 7.48321 11.721 6.22455 11.721C5.15788 11.721 4.19255 11.481 3.32855 11.001C2.47521 10.5103 1.79788 9.83299 1.29655 8.96899C0.80588 8.10499 0.560547 7.12365 0.560547 6.02499Z" fill="#3B5266"/>
</svg>
