<svg width="89" height="13" viewBox="0 0 89 13" fill="none" xmlns="http://www.w3.org/2000/svg">
<path d="M84.8251 12.2692C84.0998 12.2692 83.4491 12.1412 82.8731 11.8852C82.2971 11.6185 81.8385 11.2612 81.4971 10.8132C81.1665 10.3652 80.9851 9.86919 80.9531 9.32519H83.2091C83.2518 9.66652 83.4171 9.94919 83.7051 10.1732C84.0038 10.3972 84.3718 10.5092 84.8091 10.5092C85.2358 10.5092 85.5665 10.4239 85.8011 10.2532C86.0465 10.0825 86.1691 9.86385 86.1691 9.59719C86.1691 9.30919 86.0198 9.09585 85.7211 8.95719C85.4331 8.80785 84.9691 8.64785 84.3291 8.47719C83.6678 8.31719 83.1238 8.15185 82.6971 7.98119C82.2811 7.81052 81.9185 7.54919 81.6091 7.19719C81.3105 6.84519 81.1611 6.37052 81.1611 5.77319C81.1611 5.28252 81.2998 4.83452 81.5771 4.42919C81.8651 4.02385 82.2705 3.70385 82.7931 3.46919C83.3265 3.23452 83.9505 3.11719 84.6651 3.11719C85.7211 3.11719 86.5638 3.38385 87.1931 3.91719C87.8225 4.43985 88.1691 5.14919 88.2331 6.04519H86.0891C86.0571 5.69319 85.9078 5.41585 85.6411 5.21319C85.3851 4.99985 85.0385 4.89319 84.6011 4.89319C84.1958 4.89319 83.8811 4.96785 83.6571 5.11719C83.4438 5.26652 83.3371 5.47452 83.3371 5.74119C83.3371 6.03985 83.4865 6.26919 83.7851 6.42919C84.0838 6.57852 84.5478 6.73319 85.1771 6.89319C85.8171 7.05319 86.3451 7.21852 86.7611 7.38919C87.1771 7.55985 87.5345 7.82652 87.8331 8.18919C88.1425 8.54119 88.3025 9.01052 88.3131 9.59719C88.3131 10.1092 88.1691 10.5679 87.8811 10.9732C87.6038 11.3785 87.1985 11.6985 86.6651 11.9332C86.1425 12.1572 85.5291 12.2692 84.8251 12.2692Z" fill="#3B5266"/>
<path d="M79.2234 3.26172V12.1257H76.9674V11.0057C76.6794 11.3897 76.3007 11.6937 75.8314 11.9177C75.3727 12.1311 74.8714 12.2377 74.3274 12.2377C73.6341 12.2377 73.0207 12.0937 72.4874 11.8057C71.9541 11.5071 71.5327 11.0751 71.2234 10.5097C70.9247 9.93372 70.7754 9.25105 70.7754 8.46172V3.26172H73.0154V8.14172C73.0154 8.84572 73.1914 9.38972 73.5434 9.77372C73.8954 10.1471 74.3754 10.3337 74.9834 10.3337C75.6021 10.3337 76.0874 10.1471 76.4394 9.77372C76.7914 9.38972 76.9674 8.84572 76.9674 8.14172V3.26172H79.2234Z" fill="#3B5266"/>
<path d="M63.4468 5.10134V9.38934C63.4468 9.688 63.5161 9.90667 63.6548 10.0453C63.8041 10.1733 64.0494 10.2373 64.3908 10.2373H65.4308V12.1253H64.0228C62.1348 12.1253 61.1908 11.208 61.1908 9.37334V5.10134H60.1348V3.26134H61.1908V1.06934H63.4468V3.26134H65.4308V5.10134H63.4468Z" fill="#3B5266"/>
<path d="M50.6387 7.69319C50.6387 6.77585 50.8253 5.97585 51.1987 5.29319C51.572 4.59985 52.0893 4.06652 52.7507 3.69319C53.412 3.30919 54.1693 3.11719 55.0227 3.11719C56.1213 3.11719 57.028 3.39452 57.7427 3.94919C58.468 4.49319 58.9533 5.26119 59.1987 6.25319H56.7827C56.6547 5.86919 56.436 5.57052 56.1267 5.35719C55.828 5.13319 55.4547 5.02119 55.0067 5.02119C54.3667 5.02119 53.86 5.25585 53.4867 5.72519C53.1133 6.18385 52.9267 6.83985 52.9267 7.69319C52.9267 8.53585 53.1133 9.19185 53.4867 9.66119C53.86 10.1199 54.3667 10.3492 55.0067 10.3492C55.9133 10.3492 56.5053 9.94385 56.7827 9.13319H59.1987C58.9533 10.0932 58.468 10.8559 57.7427 11.4212C57.0173 11.9865 56.1107 12.2692 55.0227 12.2692C54.1693 12.2692 53.412 12.0825 52.7507 11.7092C52.0893 11.3252 51.572 10.7919 51.1987 10.1092C50.8253 9.41585 50.6387 8.61052 50.6387 7.69319Z" fill="#3B5266"/>
<path d="M39.7949 7.66119C39.7949 6.76519 39.9709 5.97052 40.3229 5.27719C40.6856 4.58385 41.1709 4.05052 41.7789 3.67719C42.3976 3.30385 43.0856 3.11719 43.8429 3.11719C44.5043 3.11719 45.0803 3.25052 45.5709 3.51719C46.0723 3.78385 46.4723 4.11985 46.7709 4.52519V3.26119H49.0269V12.1252H46.7709V10.8292C46.4829 11.2452 46.0829 11.5919 45.5709 11.8692C45.0696 12.1359 44.4883 12.2692 43.8269 12.2692C43.0803 12.2692 42.3976 12.0772 41.7789 11.6932C41.1709 11.3092 40.6856 10.7705 40.3229 10.0772C39.9709 9.37319 39.7949 8.56785 39.7949 7.66119ZM46.7709 7.69319C46.7709 7.14919 46.6643 6.68519 46.4509 6.30119C46.2376 5.90652 45.9496 5.60785 45.5869 5.40519C45.2243 5.19185 44.8349 5.08519 44.4189 5.08519C44.0029 5.08519 43.6189 5.18652 43.2669 5.38919C42.9149 5.59185 42.6269 5.89052 42.4029 6.28519C42.1896 6.66919 42.0829 7.12785 42.0829 7.66119C42.0829 8.19452 42.1896 8.66385 42.4029 9.06919C42.6269 9.46385 42.9149 9.76785 43.2669 9.98119C43.6296 10.1945 44.0136 10.3012 44.4189 10.3012C44.8349 10.3012 45.2243 10.1999 45.5869 9.99719C45.9496 9.78385 46.2376 9.48519 46.4509 9.10119C46.6643 8.70652 46.7709 8.23719 46.7709 7.69319Z" fill="#3B5266"/>
<path d="M36.7749 5.10134V9.38934C36.7749 9.688 36.8442 9.90667 36.9829 10.0453C37.1322 10.1733 37.3776 10.2373 37.7189 10.2373H38.7589V12.1253H37.3509C35.4629 12.1253 34.5189 11.208 34.5189 9.37334V5.10134H33.4629V3.26134H34.5189V1.06934H36.7749V3.26134H38.7589V5.10134H36.7749Z" fill="#3B5266"/>
<path d="M28.5018 3.13379C29.5578 3.13379 30.4112 3.46979 31.0618 4.14179C31.7125 4.80312 32.0378 5.73112 32.0378 6.92579V12.1258H29.7978V7.22979C29.7978 6.52579 29.6218 5.98712 29.2698 5.61379C28.9178 5.22979 28.4378 5.03779 27.8298 5.03779C27.2112 5.03779 26.7205 5.22979 26.3578 5.61379C26.0058 5.98712 25.8298 6.52579 25.8298 7.22979V12.1258H23.5898V3.26179H25.8298V4.36579C26.1285 3.98179 26.5072 3.68312 26.9658 3.46979C27.4352 3.24579 27.9472 3.13379 28.5018 3.13379Z" fill="#3B5266"/>
<path d="M17.3222 12.2692C16.4688 12.2692 15.7008 12.0825 15.0182 11.7092C14.3355 11.3252 13.7968 10.7865 13.4022 10.0932C13.0182 9.39985 12.8262 8.59985 12.8262 7.69319C12.8262 6.78652 13.0235 5.98652 13.4182 5.29319C13.8235 4.59985 14.3728 4.06652 15.0662 3.69319C15.7595 3.30919 16.5328 3.11719 17.3862 3.11719C18.2395 3.11719 19.0128 3.30919 19.7062 3.69319C20.3995 4.06652 20.9435 4.59985 21.3382 5.29319C21.7435 5.98652 21.9462 6.78652 21.9462 7.69319C21.9462 8.59985 21.7382 9.39985 21.3222 10.0932C20.9168 10.7865 20.3622 11.3252 19.6582 11.7092C18.9648 12.0825 18.1862 12.2692 17.3222 12.2692ZM17.3222 10.3172C17.7275 10.3172 18.1062 10.2212 18.4582 10.0292C18.8208 9.82652 19.1088 9.52785 19.3222 9.13319C19.5355 8.73852 19.6422 8.25852 19.6422 7.69319C19.6422 6.85052 19.4182 6.20519 18.9702 5.75719C18.5328 5.29852 17.9942 5.06919 17.3542 5.06919C16.7142 5.06919 16.1755 5.29852 15.7382 5.75719C15.3115 6.20519 15.0982 6.85052 15.0982 7.69319C15.0982 8.53585 15.3062 9.18652 15.7222 9.64519C16.1488 10.0932 16.6822 10.3172 17.3222 10.3172Z" fill="#3B5266"/>
<path d="M0.560547 6.52548C0.560547 5.42681 0.80588 4.44548 1.29655 3.58148C1.79788 2.70681 2.47521 2.02948 3.32855 1.54948C4.19255 1.05881 5.15788 0.813477 6.22455 0.813477C7.47255 0.813477 8.56588 1.13348 9.50455 1.77348C10.4432 2.41348 11.0992 3.29881 11.4725 4.42948H8.89655C8.64055 3.89614 8.27788 3.49614 7.80855 3.22948C7.34988 2.96281 6.81655 2.82948 6.20855 2.82948C5.55788 2.82948 4.97655 2.98414 4.46455 3.29348C3.96321 3.59214 3.56855 4.01881 3.28055 4.57348C3.00321 5.12814 2.86455 5.77881 2.86455 6.52548C2.86455 7.26148 3.00321 7.91214 3.28055 8.47748C3.56855 9.03214 3.96321 9.46414 4.46455 9.77348C4.97655 10.0721 5.55788 10.2215 6.20855 10.2215C6.81655 10.2215 7.34988 10.0881 7.80855 9.82148C8.27788 9.54414 8.64055 9.13881 8.89655 8.60548H11.4725C11.0992 9.74681 10.4432 10.6375 9.50455 11.2775C8.57655 11.9068 7.48321 12.2215 6.22455 12.2215C5.15788 12.2215 4.19255 11.9815 3.32855 11.5015C2.47521 11.0108 1.79788 10.3335 1.29655 9.46948C0.80588 8.60548 0.560547 7.62414 0.560547 6.52548Z" fill="#3B5266"/>
</svg>
