<svg width="95" height="17" viewBox="0 0 95 17" fill="none" xmlns="http://www.w3.org/2000/svg">
<path d="M87.6736 4.54119C87.9616 4.13585 88.3563 3.79985 88.8576 3.53319C89.3696 3.25585 89.9509 3.11719 90.6016 3.11719C91.3589 3.11719 92.0416 3.30385 92.6496 3.67719C93.2683 4.05052 93.7536 4.58385 94.1056 5.27719C94.4683 5.95985 94.6496 6.75452 94.6496 7.66119C94.6496 8.56785 94.4683 9.37319 94.1056 10.0772C93.7536 10.7705 93.2683 11.3092 92.6496 11.6932C92.0416 12.0772 91.3589 12.2692 90.6016 12.2692C89.9509 12.2692 89.3749 12.1359 88.8736 11.8692C88.3829 11.6025 87.9829 11.2665 87.6736 10.8612V16.3492H85.4336V3.26119H87.6736V4.54119ZM92.3616 7.66119C92.3616 7.12785 92.2496 6.66919 92.0256 6.28519C91.8123 5.89052 91.5243 5.59185 91.1616 5.38919C90.8096 5.18652 90.4256 5.08519 90.0096 5.08519C89.6043 5.08519 89.2203 5.19185 88.8576 5.40519C88.5056 5.60785 88.2176 5.90652 87.9936 6.30119C87.7803 6.69585 87.6736 7.15985 87.6736 7.69319C87.6736 8.22652 87.7803 8.69052 87.9936 9.08519C88.2176 9.47985 88.5056 9.78385 88.8576 9.99719C89.2203 10.1999 89.6043 10.3012 90.0096 10.3012C90.4256 10.3012 90.8096 10.1945 91.1616 9.98119C91.5243 9.76785 91.8123 9.46385 92.0256 9.06919C92.2496 8.67452 92.3616 8.20519 92.3616 7.66119Z" fill="#3B5266"/>
<path d="M76.8298 4.54119C77.1178 4.13585 77.5125 3.79985 78.0138 3.53319C78.5258 3.25585 79.1072 3.11719 79.7578 3.11719C80.5152 3.11719 81.1978 3.30385 81.8058 3.67719C82.4245 4.05052 82.9098 4.58385 83.2618 5.27719C83.6245 5.95985 83.8058 6.75452 83.8058 7.66119C83.8058 8.56785 83.6245 9.37319 83.2618 10.0772C82.9098 10.7705 82.4245 11.3092 81.8058 11.6932C81.1978 12.0772 80.5152 12.2692 79.7578 12.2692C79.1072 12.2692 78.5312 12.1359 78.0298 11.8692C77.5392 11.6025 77.1392 11.2665 76.8298 10.8612V16.3492H74.5898V3.26119H76.8298V4.54119ZM81.5178 7.66119C81.5178 7.12785 81.4058 6.66919 81.1818 6.28519C80.9685 5.89052 80.6805 5.59185 80.3178 5.38919C79.9658 5.18652 79.5818 5.08519 79.1658 5.08519C78.7605 5.08519 78.3765 5.19185 78.0138 5.40519C77.6618 5.60785 77.3738 5.90652 77.1498 6.30119C76.9365 6.69585 76.8298 7.15985 76.8298 7.69319C76.8298 8.22652 76.9365 8.69052 77.1498 9.08519C77.3738 9.47985 77.6618 9.78385 78.0138 9.99719C78.3765 10.1999 78.7605 10.3012 79.1658 10.3012C79.5818 10.3012 79.9658 10.1945 80.3178 9.98119C80.6805 9.76785 80.9685 9.46385 81.1818 9.06919C81.4058 8.67452 81.5178 8.20519 81.5178 7.66119Z" fill="#3B5266"/>
<path d="M63.1699 7.66119C63.1699 6.76519 63.3459 5.97052 63.6979 5.27719C64.0606 4.58385 64.5459 4.05052 65.1539 3.67719C65.7726 3.30385 66.4606 3.11719 67.2179 3.11719C67.8793 3.11719 68.4553 3.25052 68.9459 3.51719C69.4473 3.78385 69.8473 4.11985 70.1459 4.52519V3.26119H72.4019V12.1252H70.1459V10.8292C69.8579 11.2452 69.4579 11.5919 68.9459 11.8692C68.4446 12.1359 67.8633 12.2692 67.2019 12.2692C66.4553 12.2692 65.7726 12.0772 65.1539 11.6932C64.5459 11.3092 64.0606 10.7705 63.6979 10.0772C63.3459 9.37319 63.1699 8.56785 63.1699 7.66119ZM70.1459 7.69319C70.1459 7.14919 70.0393 6.68519 69.8259 6.30119C69.6126 5.90652 69.3246 5.60785 68.9619 5.40519C68.5993 5.19185 68.2099 5.08519 67.7939 5.08519C67.3779 5.08519 66.9939 5.18652 66.6419 5.38919C66.2899 5.59185 66.0019 5.89052 65.7779 6.28519C65.5646 6.66919 65.4579 7.12785 65.4579 7.66119C65.4579 8.19452 65.5646 8.66385 65.7779 9.06919C66.0019 9.46385 66.2899 9.76785 66.6419 9.98119C67.0046 10.1945 67.3886 10.3012 67.7939 10.3012C68.2099 10.3012 68.5993 10.1999 68.9619 9.99719C69.3246 9.78385 69.6126 9.48519 69.8259 9.10119C70.0393 8.70652 70.1459 8.23719 70.1459 7.69319Z" fill="#3B5266"/>
<path d="M58.2984 7.50119C58.2984 7.82119 58.2771 8.10919 58.2344 8.36519H51.7544C51.8078 9.00519 52.0318 9.50652 52.4264 9.86919C52.8211 10.2319 53.3064 10.4132 53.8824 10.4132C54.7144 10.4132 55.3064 10.0559 55.6584 9.34119H58.0744C57.8184 10.1945 57.3278 10.8985 56.6024 11.4532C55.8771 11.9972 54.9864 12.2692 53.9304 12.2692C53.0771 12.2692 52.3091 12.0825 51.6264 11.7092C50.9544 11.3252 50.4264 10.7865 50.0424 10.0932C49.6691 9.39985 49.4824 8.59985 49.4824 7.69319C49.4824 6.77585 49.6691 5.97052 50.0424 5.27719C50.4158 4.58385 50.9384 4.05052 51.6104 3.67719C52.2824 3.30385 53.0558 3.11719 53.9304 3.11719C54.7731 3.11719 55.5251 3.29852 56.1864 3.66119C56.8584 4.02385 57.3758 4.54119 57.7384 5.21319C58.1118 5.87452 58.2984 6.63719 58.2984 7.50119ZM55.9784 6.86119C55.9678 6.28519 55.7598 5.82652 55.3544 5.48519C54.9491 5.13319 54.4531 4.95719 53.8664 4.95719C53.3118 4.95719 52.8424 5.12785 52.4584 5.46919C52.0851 5.79985 51.8558 6.26385 51.7704 6.86119H55.9784Z" fill="#3B5266"/>
<path d="M44.4725 3.13316C45.1445 3.13316 45.7418 3.28249 46.2645 3.58116C46.7871 3.86916 47.1925 4.30116 47.4805 4.87716C47.7791 5.44249 47.9285 6.12516 47.9285 6.92516V12.1252H45.6885V7.22916C45.6885 6.52516 45.5125 5.98649 45.1605 5.61316C44.8085 5.22916 44.3285 5.03716 43.7205 5.03716C43.1018 5.03716 42.6111 5.22916 42.2485 5.61316C41.8965 5.98649 41.7205 6.52516 41.7205 7.22916V12.1252H39.4805V0.285156H41.7205V4.36516C42.0085 3.98116 42.3925 3.68249 42.8725 3.46916C43.3525 3.24516 43.8858 3.13316 44.4725 3.13316Z" fill="#3B5266"/>
<path d="M35.8843 5.10134V9.38934C35.8843 9.688 35.9536 9.90667 36.0923 10.0453C36.2416 10.1733 36.4869 10.2373 36.8283 10.2373H37.8683V12.1253H36.4603C34.5723 12.1253 33.6283 11.208 33.6283 9.37334V5.10134H32.5723V3.26134H33.6283V1.06934H35.8843V3.26134H37.8683V5.10134H35.8843Z" fill="#3B5266"/>
<path d="M25.8686 5.10134V9.38934C25.8686 9.688 25.938 9.90667 26.0766 10.0453C26.226 10.1733 26.4713 10.2373 26.8126 10.2373H27.8526V12.1253H26.4446C24.5566 12.1253 23.6126 11.208 23.6126 9.37334V5.10134H22.5566V3.26134H23.6126V1.06934H25.8686V3.26134H27.8526V5.10134H25.8686Z" fill="#3B5266"/>
<path d="M21.6265 7.50119C21.6265 7.82119 21.6052 8.10919 21.5625 8.36519H15.0825C15.1359 9.00519 15.3599 9.50652 15.7545 9.86919C16.1492 10.2319 16.6345 10.4132 17.2105 10.4132C18.0425 10.4132 18.6345 10.0559 18.9865 9.34119H21.4025C21.1465 10.1945 20.6559 10.8985 19.9305 11.4532C19.2052 11.9972 18.3145 12.2692 17.2585 12.2692C16.4052 12.2692 15.6372 12.0825 14.9545 11.7092C14.2825 11.3252 13.7545 10.7865 13.3705 10.0932C12.9972 9.39985 12.8105 8.59985 12.8105 7.69319C12.8105 6.77585 12.9972 5.97052 13.3705 5.27719C13.7439 4.58385 14.2665 4.05052 14.9385 3.67719C15.6105 3.30385 16.3839 3.11719 17.2585 3.11719C18.1012 3.11719 18.8532 3.29852 19.5145 3.66119C20.1865 4.02385 20.7039 4.54119 21.0665 5.21319C21.4399 5.87452 21.6265 6.63719 21.6265 7.50119ZM19.3065 6.86119C19.2959 6.28519 19.0879 5.82652 18.6825 5.48519C18.2772 5.13319 17.7812 4.95719 17.1945 4.95719C16.6399 4.95719 16.1705 5.12785 15.7865 5.46919C15.4132 5.79985 15.1839 6.26385 15.0985 6.86119H19.3065Z" fill="#3B5266"/>
<path d="M8.88055 4.31748C8.62455 3.84814 8.27255 3.49081 7.82455 3.24548C7.37655 3.00014 6.85388 2.87748 6.25655 2.87748C5.59521 2.87748 5.00855 3.02681 4.49655 3.32548C3.98455 3.62414 3.58455 4.05081 3.29655 4.60548C3.00855 5.16014 2.86455 5.80014 2.86455 6.52548C2.86455 7.27214 3.00855 7.92281 3.29655 8.47748C3.59521 9.03214 4.00588 9.45881 4.52855 9.75748C5.05121 10.0561 5.65921 10.2055 6.35255 10.2055C7.20588 10.2055 7.90455 9.98148 8.44855 9.53348C8.99255 9.07481 9.34988 8.44014 9.52055 7.62948H5.68055V5.91748H11.7285V7.86948C11.5792 8.64814 11.2592 9.36814 10.7685 10.0295C10.2779 10.6908 9.64321 11.2241 8.86455 11.6295C8.09655 12.0241 7.23255 12.2215 6.27255 12.2215C5.19521 12.2215 4.21921 11.9815 3.34455 11.5015C2.48055 11.0108 1.79788 10.3335 1.29655 9.46948C0.80588 8.60548 0.560547 7.62414 0.560547 6.52548C0.560547 5.42681 0.80588 4.44548 1.29655 3.58148C1.79788 2.70681 2.48055 2.02948 3.34455 1.54948C4.21921 1.05881 5.18988 0.813477 6.25655 0.813477C7.51521 0.813477 8.60855 1.12281 9.53655 1.74148C10.4645 2.34948 11.1045 3.20814 11.4565 4.31748H8.88055Z" fill="#3B5266"/>
</svg>
