<svg width="95" height="17" viewBox="0 0 95 17" fill="none" xmlns="http://www.w3.org/2000/svg">
<path d="M87.6736 5.04119C87.9616 4.63585 88.3563 4.29985 88.8576 4.03319C89.3696 3.75585 89.9509 3.61719 90.6016 3.61719C91.3589 3.61719 92.0416 3.80385 92.6496 4.17719C93.2683 4.55052 93.7536 5.08385 94.1056 5.77719C94.4683 6.45985 94.6496 7.25452 94.6496 8.16119C94.6496 9.06785 94.4683 9.87319 94.1056 10.5772C93.7536 11.2705 93.2683 11.8092 92.6496 12.1932C92.0416 12.5772 91.3589 12.7692 90.6016 12.7692C89.9509 12.7692 89.3749 12.6359 88.8736 12.3692C88.3829 12.1025 87.9829 11.7665 87.6736 11.3612V16.8492H85.4336V3.76119H87.6736V5.04119ZM92.3616 8.16119C92.3616 7.62785 92.2496 7.16919 92.0256 6.78519C91.8123 6.39052 91.5243 6.09185 91.1616 5.88919C90.8096 5.68652 90.4256 5.58519 90.0096 5.58519C89.6043 5.58519 89.2203 5.69185 88.8576 5.90519C88.5056 6.10785 88.2176 6.40652 87.9936 6.80119C87.7803 7.19585 87.6736 7.65985 87.6736 8.19319C87.6736 8.72652 87.7803 9.19052 87.9936 9.58519C88.2176 9.97985 88.5056 10.2839 88.8576 10.4972C89.2203 10.6999 89.6043 10.8012 90.0096 10.8012C90.4256 10.8012 90.8096 10.6945 91.1616 10.4812C91.5243 10.2679 91.8123 9.96385 92.0256 9.56919C92.2496 9.17452 92.3616 8.70519 92.3616 8.16119Z" fill="#3B5266"/>
<path d="M76.8298 5.04119C77.1178 4.63585 77.5125 4.29985 78.0138 4.03319C78.5258 3.75585 79.1072 3.61719 79.7578 3.61719C80.5152 3.61719 81.1978 3.80385 81.8058 4.17719C82.4245 4.55052 82.9098 5.08385 83.2618 5.77719C83.6245 6.45985 83.8058 7.25452 83.8058 8.16119C83.8058 9.06785 83.6245 9.87319 83.2618 10.5772C82.9098 11.2705 82.4245 11.8092 81.8058 12.1932C81.1978 12.5772 80.5152 12.7692 79.7578 12.7692C79.1072 12.7692 78.5312 12.6359 78.0298 12.3692C77.5392 12.1025 77.1392 11.7665 76.8298 11.3612V16.8492H74.5898V3.76119H76.8298V5.04119ZM81.5178 8.16119C81.5178 7.62785 81.4058 7.16919 81.1818 6.78519C80.9685 6.39052 80.6805 6.09185 80.3178 5.88919C79.9658 5.68652 79.5818 5.58519 79.1658 5.58519C78.7605 5.58519 78.3765 5.69185 78.0138 5.90519C77.6618 6.10785 77.3738 6.40652 77.1498 6.80119C76.9365 7.19585 76.8298 7.65985 76.8298 8.19319C76.8298 8.72652 76.9365 9.19052 77.1498 9.58519C77.3738 9.97985 77.6618 10.2839 78.0138 10.4972C78.3765 10.6999 78.7605 10.8012 79.1658 10.8012C79.5818 10.8012 79.9658 10.6945 80.3178 10.4812C80.6805 10.2679 80.9685 9.96385 81.1818 9.56919C81.4058 9.17452 81.5178 8.70519 81.5178 8.16119Z" fill="#3B5266"/>
<path d="M63.1699 8.16119C63.1699 7.26519 63.3459 6.47052 63.6979 5.77719C64.0606 5.08385 64.5459 4.55052 65.1539 4.17719C65.7726 3.80385 66.4606 3.61719 67.2179 3.61719C67.8793 3.61719 68.4553 3.75052 68.9459 4.01719C69.4473 4.28385 69.8473 4.61985 70.1459 5.02519V3.76119H72.4019V12.6252H70.1459V11.3292C69.8579 11.7452 69.4579 12.0919 68.9459 12.3692C68.4446 12.6359 67.8633 12.7692 67.2019 12.7692C66.4553 12.7692 65.7726 12.5772 65.1539 12.1932C64.5459 11.8092 64.0606 11.2705 63.6979 10.5772C63.3459 9.87319 63.1699 9.06785 63.1699 8.16119ZM70.1459 8.19319C70.1459 7.64919 70.0393 7.18519 69.8259 6.80119C69.6126 6.40652 69.3246 6.10785 68.9619 5.90519C68.5993 5.69185 68.2099 5.58519 67.7939 5.58519C67.3779 5.58519 66.9939 5.68652 66.6419 5.88919C66.2899 6.09185 66.0019 6.39052 65.7779 6.78519C65.5646 7.16919 65.4579 7.62785 65.4579 8.16119C65.4579 8.69452 65.5646 9.16385 65.7779 9.56919C66.0019 9.96385 66.2899 10.2679 66.6419 10.4812C67.0046 10.6945 67.3886 10.8012 67.7939 10.8012C68.2099 10.8012 68.5993 10.6999 68.9619 10.4972C69.3246 10.2839 69.6126 9.98519 69.8259 9.60119C70.0393 9.20652 70.1459 8.73719 70.1459 8.19319Z" fill="#3B5266"/>
<path d="M58.2984 8.00119C58.2984 8.32119 58.2771 8.60919 58.2344 8.86519H51.7544C51.8078 9.50519 52.0318 10.0065 52.4264 10.3692C52.8211 10.7319 53.3064 10.9132 53.8824 10.9132C54.7144 10.9132 55.3064 10.5559 55.6584 9.84119H58.0744C57.8184 10.6945 57.3278 11.3985 56.6024 11.9532C55.8771 12.4972 54.9864 12.7692 53.9304 12.7692C53.0771 12.7692 52.3091 12.5825 51.6264 12.2092C50.9544 11.8252 50.4264 11.2865 50.0424 10.5932C49.6691 9.89986 49.4824 9.09985 49.4824 8.19319C49.4824 7.27585 49.6691 6.47052 50.0424 5.77719C50.4158 5.08385 50.9384 4.55052 51.6104 4.17719C52.2824 3.80385 53.0558 3.61719 53.9304 3.61719C54.7731 3.61719 55.5251 3.79852 56.1864 4.16119C56.8584 4.52385 57.3758 5.04119 57.7384 5.71319C58.1118 6.37452 58.2984 7.13719 58.2984 8.00119ZM55.9784 7.36119C55.9678 6.78519 55.7598 6.32652 55.3544 5.98519C54.9491 5.63319 54.4531 5.45719 53.8664 5.45719C53.3118 5.45719 52.8424 5.62785 52.4584 5.96919C52.0851 6.29985 51.8558 6.76385 51.7704 7.36119H55.9784Z" fill="#3B5266"/>
<path d="M44.4725 3.63316C45.1445 3.63316 45.7418 3.78249 46.2645 4.08116C46.7871 4.36916 47.1925 4.80116 47.4805 5.37716C47.7791 5.94249 47.9285 6.62516 47.9285 7.42516V12.6252H45.6885V7.72916C45.6885 7.02516 45.5125 6.48649 45.1605 6.11316C44.8085 5.72916 44.3285 5.53716 43.7205 5.53716C43.1018 5.53716 42.6111 5.72916 42.2485 6.11316C41.8965 6.48649 41.7205 7.02516 41.7205 7.72916V12.6252H39.4805V0.785156H41.7205V4.86516C42.0085 4.48116 42.3925 4.18249 42.8725 3.96916C43.3525 3.74516 43.8858 3.63316 44.4725 3.63316Z" fill="#3B5266"/>
<path d="M35.8843 5.60134V9.88934C35.8843 10.188 35.9536 10.4067 36.0923 10.5453C36.2416 10.6733 36.4869 10.7373 36.8283 10.7373H37.8683V12.6253H36.4603C34.5723 12.6253 33.6283 11.708 33.6283 9.87334V5.60134H32.5723V3.76134H33.6283V1.56934H35.8843V3.76134H37.8683V5.60134H35.8843Z" fill="#3B5266"/>
<path d="M25.8686 5.60134V9.88934C25.8686 10.188 25.938 10.4067 26.0766 10.5453C26.226 10.6733 26.4713 10.7373 26.8126 10.7373H27.8526V12.6253H26.4446C24.5566 12.6253 23.6126 11.708 23.6126 9.87334V5.60134H22.5566V3.76134H23.6126V1.56934H25.8686V3.76134H27.8526V5.60134H25.8686Z" fill="#3B5266"/>
<path d="M21.6265 8.00119C21.6265 8.32119 21.6052 8.60919 21.5625 8.86519H15.0825C15.1359 9.50519 15.3599 10.0065 15.7545 10.3692C16.1492 10.7319 16.6345 10.9132 17.2105 10.9132C18.0425 10.9132 18.6345 10.5559 18.9865 9.84119H21.4025C21.1465 10.6945 20.6559 11.3985 19.9305 11.9532C19.2052 12.4972 18.3145 12.7692 17.2585 12.7692C16.4052 12.7692 15.6372 12.5825 14.9545 12.2092C14.2825 11.8252 13.7545 11.2865 13.3705 10.5932C12.9972 9.89986 12.8105 9.09985 12.8105 8.19319C12.8105 7.27585 12.9972 6.47052 13.3705 5.77719C13.7439 5.08385 14.2665 4.55052 14.9385 4.17719C15.6105 3.80385 16.3839 3.61719 17.2585 3.61719C18.1012 3.61719 18.8532 3.79852 19.5145 4.16119C20.1865 4.52385 20.7039 5.04119 21.0665 5.71319C21.4399 6.37452 21.6265 7.13719 21.6265 8.00119ZM19.3065 7.36119C19.2959 6.78519 19.0879 6.32652 18.6825 5.98519C18.2772 5.63319 17.7812 5.45719 17.1945 5.45719C16.6399 5.45719 16.1705 5.62785 15.7865 5.96919C15.4132 6.29985 15.1839 6.76385 15.0985 7.36119H19.3065Z" fill="#3B5266"/>
<path d="M8.88055 4.81748C8.62455 4.34814 8.27255 3.99081 7.82455 3.74548C7.37655 3.50014 6.85388 3.37748 6.25655 3.37748C5.59521 3.37748 5.00855 3.52681 4.49655 3.82548C3.98455 4.12414 3.58455 4.55081 3.29655 5.10548C3.00855 5.66014 2.86455 6.30014 2.86455 7.02548C2.86455 7.77214 3.00855 8.42281 3.29655 8.97748C3.59521 9.53214 4.00588 9.95881 4.52855 10.2575C5.05121 10.5561 5.65921 10.7055 6.35255 10.7055C7.20588 10.7055 7.90455 10.4815 8.44855 10.0335C8.99255 9.57481 9.34988 8.94014 9.52055 8.12948H5.68055V6.41748H11.7285V8.36948C11.5792 9.14814 11.2592 9.86814 10.7685 10.5295C10.2779 11.1908 9.64321 11.7241 8.86455 12.1295C8.09655 12.5241 7.23255 12.7215 6.27255 12.7215C5.19521 12.7215 4.21921 12.4815 3.34455 12.0015C2.48055 11.5108 1.79788 10.8335 1.29655 9.96948C0.80588 9.10548 0.560547 8.12414 0.560547 7.02548C0.560547 5.92681 0.80588 4.94548 1.29655 4.08148C1.79788 3.20681 2.48055 2.52948 3.34455 2.04948C4.21921 1.55881 5.18988 1.31348 6.25655 1.31348C7.51521 1.31348 8.60855 1.62281 9.53655 2.24148C10.4645 2.84948 11.1045 3.70814 11.4565 4.81748H8.88055Z" fill="#3B5266"/>
</svg>
