<svg width="95" height="17" viewBox="0 0 95 17" fill="none" xmlns="http://www.w3.org/2000/svg">
<path d="M87.6726 4.54119C87.9606 4.13585 88.3553 3.79985 88.8566 3.53319C89.3686 3.25585 89.9499 3.11719 90.6006 3.11719C91.3579 3.11719 92.0406 3.30385 92.6486 3.67719C93.2673 4.05052 93.7526 4.58385 94.1046 5.27719C94.4673 5.95985 94.6486 6.75452 94.6486 7.66119C94.6486 8.56785 94.4673 9.37319 94.1046 10.0772C93.7526 10.7705 93.2673 11.3092 92.6486 11.6932C92.0406 12.0772 91.3579 12.2692 90.6006 12.2692C89.9499 12.2692 89.3739 12.1359 88.8726 11.8692C88.3819 11.6025 87.9819 11.2665 87.6726 10.8612V16.3492H85.4326V3.26119H87.6726V4.54119ZM92.3606 7.66119C92.3606 7.12785 92.2486 6.66919 92.0246 6.28519C91.8113 5.89052 91.5233 5.59185 91.1606 5.38919C90.8086 5.18652 90.4246 5.08519 90.0086 5.08519C89.6033 5.08519 89.2193 5.19185 88.8566 5.40519C88.5046 5.60785 88.2166 5.90652 87.9926 6.30119C87.7793 6.69585 87.6726 7.15985 87.6726 7.69319C87.6726 8.22652 87.7793 8.69052 87.9926 9.08519C88.2166 9.47985 88.5046 9.78385 88.8566 9.99719C89.2193 10.1999 89.6033 10.3012 90.0086 10.3012C90.4246 10.3012 90.8086 10.1945 91.1606 9.98119C91.5233 9.76785 91.8113 9.46385 92.0246 9.06919C92.2486 8.67452 92.3606 8.20519 92.3606 7.66119Z" fill="#3B5266"/>
<path d="M76.8289 4.54119C77.1169 4.13585 77.5115 3.79985 78.0129 3.53319C78.5249 3.25585 79.1062 3.11719 79.7569 3.11719C80.5142 3.11719 81.1969 3.30385 81.8049 3.67719C82.4235 4.05052 82.9089 4.58385 83.2609 5.27719C83.6235 5.95985 83.8049 6.75452 83.8049 7.66119C83.8049 8.56785 83.6235 9.37319 83.2609 10.0772C82.9089 10.7705 82.4235 11.3092 81.8049 11.6932C81.1969 12.0772 80.5142 12.2692 79.7569 12.2692C79.1062 12.2692 78.5302 12.1359 78.0289 11.8692C77.5382 11.6025 77.1382 11.2665 76.8289 10.8612V16.3492H74.5889V3.26119H76.8289V4.54119ZM81.5169 7.66119C81.5169 7.12785 81.4049 6.66919 81.1809 6.28519C80.9675 5.89052 80.6795 5.59185 80.3169 5.38919C79.9649 5.18652 79.5809 5.08519 79.1649 5.08519C78.7595 5.08519 78.3755 5.19185 78.0129 5.40519C77.6609 5.60785 77.3729 5.90652 77.1489 6.30119C76.9355 6.69585 76.8289 7.15985 76.8289 7.69319C76.8289 8.22652 76.9355 8.69052 77.1489 9.08519C77.3729 9.47985 77.6609 9.78385 78.0129 9.99719C78.3755 10.1999 78.7595 10.3012 79.1649 10.3012C79.5809 10.3012 79.9649 10.1945 80.3169 9.98119C80.6795 9.76785 80.9675 9.46385 81.1809 9.06919C81.4049 8.67452 81.5169 8.20519 81.5169 7.66119Z" fill="#3B5266"/>
<path d="M63.1689 7.66119C63.1689 6.76519 63.3449 5.97052 63.6969 5.27719C64.0596 4.58385 64.5449 4.05052 65.1529 3.67719C65.7716 3.30385 66.4596 3.11719 67.2169 3.11719C67.8783 3.11719 68.4543 3.25052 68.9449 3.51719C69.4463 3.78385 69.8463 4.11985 70.1449 4.52519V3.26119H72.4009V12.1252H70.1449V10.8292C69.8569 11.2452 69.4569 11.5919 68.9449 11.8692C68.4436 12.1359 67.8623 12.2692 67.2009 12.2692C66.4543 12.2692 65.7716 12.0772 65.1529 11.6932C64.5449 11.3092 64.0596 10.7705 63.6969 10.0772C63.3449 9.37319 63.1689 8.56785 63.1689 7.66119ZM70.1449 7.69319C70.1449 7.14919 70.0383 6.68519 69.8249 6.30119C69.6116 5.90652 69.3236 5.60785 68.9609 5.40519C68.5983 5.19185 68.2089 5.08519 67.7929 5.08519C67.3769 5.08519 66.9929 5.18652 66.6409 5.38919C66.2889 5.59185 66.0009 5.89052 65.7769 6.28519C65.5636 6.66919 65.4569 7.12785 65.4569 7.66119C65.4569 8.19452 65.5636 8.66385 65.7769 9.06919C66.0009 9.46385 66.2889 9.76785 66.6409 9.98119C67.0036 10.1945 67.3876 10.3012 67.7929 10.3012C68.2089 10.3012 68.5983 10.1999 68.9609 9.99719C69.3236 9.78385 69.6116 9.48519 69.8249 9.10119C70.0383 8.70652 70.1449 8.23719 70.1449 7.69319Z" fill="#3B5266"/>
<path d="M58.2974 7.50119C58.2974 7.82119 58.2761 8.10919 58.2334 8.36519H51.7534C51.8068 9.00519 52.0308 9.50652 52.4254 9.86919C52.8201 10.2319 53.3054 10.4132 53.8814 10.4132C54.7134 10.4132 55.3054 10.0559 55.6574 9.34119H58.0734C57.8174 10.1945 57.3268 10.8985 56.6014 11.4532C55.8761 11.9972 54.9854 12.2692 53.9294 12.2692C53.0761 12.2692 52.3081 12.0825 51.6254 11.7092C50.9534 11.3252 50.4254 10.7865 50.0414 10.0932C49.6681 9.39986 49.4814 8.59985 49.4814 7.69319C49.4814 6.77585 49.6681 5.97052 50.0414 5.27719C50.4148 4.58385 50.9374 4.05052 51.6094 3.67719C52.2814 3.30385 53.0548 3.11719 53.9294 3.11719C54.7721 3.11719 55.5241 3.29852 56.1854 3.66119C56.8574 4.02385 57.3748 4.54119 57.7374 5.21319C58.1108 5.87452 58.2974 6.63719 58.2974 7.50119ZM55.9774 6.86119C55.9668 6.28519 55.7588 5.82652 55.3534 5.48519C54.9481 5.13319 54.4521 4.95719 53.8654 4.95719C53.3108 4.95719 52.8414 5.12785 52.4574 5.46919C52.0841 5.79985 51.8548 6.26385 51.7694 6.86119H55.9774Z" fill="#3B5266"/>
<path d="M44.4715 3.13316C45.1435 3.13316 45.7408 3.28249 46.2635 3.58116C46.7862 3.86916 47.1915 4.30116 47.4795 4.87716C47.7782 5.44249 47.9275 6.12516 47.9275 6.92516V12.1252H45.6875V7.22916C45.6875 6.52516 45.5115 5.98649 45.1595 5.61316C44.8075 5.22916 44.3275 5.03716 43.7195 5.03716C43.1008 5.03716 42.6102 5.22916 42.2475 5.61316C41.8955 5.98649 41.7195 6.52516 41.7195 7.22916V12.1252H39.4795V0.285156H41.7195V4.36516C42.0075 3.98116 42.3915 3.68249 42.8715 3.46916C43.3515 3.24516 43.8848 3.13316 44.4715 3.13316Z" fill="#3B5266"/>
<path d="M35.8843 5.10134V9.38934C35.8843 9.688 35.9536 9.90667 36.0923 10.0453C36.2416 10.1733 36.4869 10.2373 36.8283 10.2373H37.8683V12.1253H36.4603C34.5723 12.1253 33.6283 11.208 33.6283 9.37334V5.10134H32.5723V3.26134H33.6283V1.06934H35.8843V3.26134H37.8683V5.10134H35.8843Z" fill="#3B5266"/>
<path d="M25.8686 5.10134V9.38934C25.8686 9.688 25.938 9.90667 26.0766 10.0453C26.226 10.1733 26.4713 10.2373 26.8126 10.2373H27.8526V12.1253H26.4446C24.5566 12.1253 23.6126 11.208 23.6126 9.37334V5.10134H22.5566V3.26134H23.6126V1.06934H25.8686V3.26134H27.8526V5.10134H25.8686Z" fill="#3B5266"/>
<path d="M21.6265 7.50119C21.6265 7.82119 21.6052 8.10919 21.5625 8.36519H15.0825C15.1359 9.00519 15.3599 9.50652 15.7545 9.86919C16.1492 10.2319 16.6345 10.4132 17.2105 10.4132C18.0425 10.4132 18.6345 10.0559 18.9865 9.34119H21.4025C21.1465 10.1945 20.6559 10.8985 19.9305 11.4532C19.2052 11.9972 18.3145 12.2692 17.2585 12.2692C16.4052 12.2692 15.6372 12.0825 14.9545 11.7092C14.2825 11.3252 13.7545 10.7865 13.3705 10.0932C12.9972 9.39986 12.8105 8.59985 12.8105 7.69319C12.8105 6.77585 12.9972 5.97052 13.3705 5.27719C13.7439 4.58385 14.2665 4.05052 14.9385 3.67719C15.6105 3.30385 16.3839 3.11719 17.2585 3.11719C18.1012 3.11719 18.8532 3.29852 19.5145 3.66119C20.1865 4.02385 20.7039 4.54119 21.0665 5.21319C21.4399 5.87452 21.6265 6.63719 21.6265 7.50119ZM19.3065 6.86119C19.2959 6.28519 19.0879 5.82652 18.6825 5.48519C18.2772 5.13319 17.7812 4.95719 17.1945 4.95719C16.6399 4.95719 16.1705 5.12785 15.7865 5.46919C15.4132 5.79985 15.1839 6.26385 15.0985 6.86119H19.3065Z" fill="#3B5266"/>
<path d="M8.88055 4.31748C8.62455 3.84814 8.27255 3.49081 7.82455 3.24548C7.37655 3.00014 6.85388 2.87748 6.25655 2.87748C5.59521 2.87748 5.00855 3.02681 4.49655 3.32548C3.98455 3.62414 3.58455 4.05081 3.29655 4.60548C3.00855 5.16014 2.86455 5.80014 2.86455 6.52548C2.86455 7.27214 3.00855 7.92281 3.29655 8.47748C3.59521 9.03214 4.00588 9.45881 4.52855 9.75748C5.05121 10.0561 5.65921 10.2055 6.35255 10.2055C7.20588 10.2055 7.90455 9.98148 8.44855 9.53348C8.99255 9.07481 9.34988 8.44014 9.52055 7.62948H5.68055V5.91748H11.7285V7.86948C11.5792 8.64814 11.2592 9.36814 10.7685 10.0295C10.2779 10.6908 9.64321 11.2241 8.86455 11.6295C8.09655 12.0241 7.23255 12.2215 6.27255 12.2215C5.19521 12.2215 4.21921 11.9815 3.34455 11.5015C2.48055 11.0108 1.79788 10.3335 1.29655 9.46948C0.80588 8.60548 0.560547 7.62414 0.560547 6.52548C0.560547 5.42681 0.80588 4.44548 1.29655 3.58148C1.79788 2.70681 2.48055 2.02948 3.34455 1.54948C4.21921 1.05881 5.18988 0.813477 6.25655 0.813477C7.51521 0.813477 8.60855 1.12281 9.53655 1.74148C10.4645 2.34948 11.1045 3.20814 11.4565 4.31748H8.88055Z" fill="#3B5266"/>
</svg>
