<svg width="59" height="58" viewBox="0 0 59 58" fill="none" xmlns="http://www.w3.org/2000/svg">
<g filter="url(#filter0_dd_1029_2080)">
<rect x="3.97168" y="2" width="52" height="52" rx="26" fill="white"/>
</g>
<g clip-path="url(#clip0_1029_2080)">
<path d="M23.1093 30.0094L22.3023 33.0218L19.353 33.0842C18.4716 31.4494 17.9717 29.579 17.9717 27.5913C17.9717 25.6692 18.4391 23.8567 19.2677 22.2607H19.2683L21.894 22.7421L23.0442 25.3521C22.8035 26.0539 22.6723 26.8073 22.6723 27.5913C22.6724 28.4421 22.8265 29.2574 23.1093 30.0094Z" fill="#555555"/>
<path d="M40.9509 25.4258C41.0841 26.1269 41.1535 26.8511 41.1535 27.5911C41.1535 28.4209 41.0662 29.2304 40.9 30.0112C40.3358 32.6682 38.8614 34.9883 36.819 36.6301L36.8184 36.6295L33.5112 36.4607L33.0431 33.5388C34.3983 32.744 35.4574 31.5002 36.0153 30.0112H29.8174V25.4258H36.1058H40.9509Z" fill="#555555"/>
<path d="M36.8182 36.629L36.8189 36.6296C34.8325 38.2262 32.3092 39.1815 29.5625 39.1815C25.1484 39.1815 21.3106 36.7143 19.3529 33.0836L23.1091 30.0088C24.088 32.6212 26.608 34.4808 29.5625 34.4808C30.8323 34.4808 32.022 34.1376 33.0429 33.5383L36.8182 36.629Z" fill="#555555"/>
<path d="M36.961 18.6684L33.2061 21.7426C32.1495 21.0822 30.9006 20.7007 29.5626 20.7007C26.5413 20.7007 23.9741 22.6456 23.0443 25.3517L19.2683 22.2604H19.2677C21.1968 18.5411 25.0829 16 29.5626 16C32.375 16 34.9536 17.0018 36.961 18.6684Z" fill="#555555"/>
</g>
<defs>
<filter id="filter0_dd_1029_2080" x="0.97168" y="0" width="58" height="58" filterUnits="userSpaceOnUse" color-interpolation-filters="sRGB">
<feFlood flood-opacity="0" result="BackgroundImageFix"/>
<feColorMatrix in="SourceAlpha" type="matrix" values="0 0 0 0 0 0 0 0 0 0 0 0 0 0 0 0 0 0 127 0" result="hardAlpha"/>
<feOffset dy="1"/>
<feGaussianBlur stdDeviation="1.5"/>
<feColorMatrix type="matrix" values="0 0 0 0 0.196078 0 0 0 0 0.196078 0 0 0 0 0.278431 0 0 0 0.1 0"/>
<feBlend mode="normal" in2="BackgroundImageFix" result="effect1_dropShadow_1029_2080"/>
<feColorMatrix in="SourceAlpha" type="matrix" values="0 0 0 0 0 0 0 0 0 0 0 0 0 0 0 0 0 0 127 0" result="hardAlpha"/>
<feOffset/>
<feGaussianBlur stdDeviation="0.5"/>
<feColorMatrix type="matrix" values="0 0 0 0 0.0470588 0 0 0 0 0.101961 0 0 0 0 0.294118 0 0 0 0.2 0"/>
<feBlend mode="normal" in2="effect1_dropShadow_1029_2080" result="effect2_dropShadow_1029_2080"/>
<feBlend mode="normal" in="SourceGraphic" in2="effect2_dropShadow_1029_2080" result="shape"/>
</filter>
<clipPath id="clip0_1029_2080">
<rect width="23.1818" height="23.1818" fill="white" transform="translate(17.9717 16)"/>
</clipPath>
</defs>
</svg>
