<svg width="58" height="59" viewBox="0 0 58 59" fill="none" xmlns="http://www.w3.org/2000/svg">
<g filter="url(#filter0_dd_1029_2255)">
<rect x="3" y="2.5" width="52" height="52" rx="26" fill="white"/>
</g>
<g clip-path="url(#clip0_1029_2255)">
<path d="M22.1376 30.5091L21.3307 33.5215L18.3814 33.5839C17.4999 31.9491 17 30.0786 17 28.091C17 26.1689 17.4674 24.3564 18.296 22.7604H18.2966L20.9223 23.2418L22.0726 25.8518C21.8318 26.5536 21.7006 27.307 21.7006 28.091C21.7007 28.9418 21.8548 29.757 22.1376 30.5091Z" fill="#555555"/>
<path d="M39.9793 25.9254C40.1124 26.6265 40.1818 27.3506 40.1818 28.0907C40.1818 28.9205 40.0945 29.73 39.9283 30.5108C39.3641 33.1678 37.8897 35.4879 35.8473 37.1297L35.8467 37.1291L32.5395 36.9603L32.0714 34.0384C33.4266 33.2436 34.4858 31.9998 35.0437 30.5108H28.8457V25.9254H35.1341H39.9793Z" fill="#555555"/>
<path d="M35.8467 37.1294L35.8473 37.13C33.861 38.7266 31.3377 39.6819 28.5909 39.6819C24.1768 39.6819 20.3391 37.2147 18.3813 33.584L22.1376 30.5092C23.1164 33.1216 25.6365 34.9813 28.5909 34.9813C29.8608 34.9813 31.0505 34.638 32.0713 34.0387L35.8467 37.1294Z" fill="#555555"/>
<path d="M35.9892 19.1684L32.2343 22.2426C31.1777 21.5822 29.9288 21.2007 28.5908 21.2007C25.5695 21.2007 23.0023 23.1456 22.0725 25.8517L18.2965 22.7604H18.2959C20.225 19.0411 24.1111 16.5 28.5908 16.5C31.4032 16.5 33.9818 17.5018 35.9892 19.1684Z" fill="#555555"/>
</g>
<defs>
<filter id="filter0_dd_1029_2255" x="0" y="0.5" width="58" height="58" filterUnits="userSpaceOnUse" color-interpolation-filters="sRGB">
<feFlood flood-opacity="0" result="BackgroundImageFix"/>
<feColorMatrix in="SourceAlpha" type="matrix" values="0 0 0 0 0 0 0 0 0 0 0 0 0 0 0 0 0 0 127 0" result="hardAlpha"/>
<feOffset dy="1"/>
<feGaussianBlur stdDeviation="1.5"/>
<feColorMatrix type="matrix" values="0 0 0 0 0.196078 0 0 0 0 0.196078 0 0 0 0 0.278431 0 0 0 0.1 0"/>
<feBlend mode="normal" in2="BackgroundImageFix" result="effect1_dropShadow_1029_2255"/>
<feColorMatrix in="SourceAlpha" type="matrix" values="0 0 0 0 0 0 0 0 0 0 0 0 0 0 0 0 0 0 127 0" result="hardAlpha"/>
<feOffset/>
<feGaussianBlur stdDeviation="0.5"/>
<feColorMatrix type="matrix" values="0 0 0 0 0.0470588 0 0 0 0 0.101961 0 0 0 0 0.294118 0 0 0 0.2 0"/>
<feBlend mode="normal" in2="effect1_dropShadow_1029_2255" result="effect2_dropShadow_1029_2255"/>
<feBlend mode="normal" in="SourceGraphic" in2="effect2_dropShadow_1029_2255" result="shape"/>
</filter>
<clipPath id="clip0_1029_2255">
<rect width="23.1818" height="23.1818" fill="white" transform="translate(17 16.5)"/>
</clipPath>
</defs>
</svg>
