<svg width="127" height="31" viewBox="0 0 127 31" fill="none" xmlns="http://www.w3.org/2000/svg">
<path fill-rule="evenodd" clip-rule="evenodd" d="M39.3219 3.86668C39.3604 4.71314 39.0572 5.53867 38.4832 6.15062C37.8418 6.83101 36.9471 7.20058 36.0228 7.16697C34.6052 7.15564 33.3323 6.27763 32.7927 4.93889C32.2532 3.60015 32.5521 2.06159 33.5513 1.03459C34.2005 0.357772 35.0953 -0.0142947 36.0228 0.00681418C36.4956 0.00520564 36.9637 0.102361 37.3984 0.292307C37.8031 0.458982 38.1633 0.721182 38.4496 1.05743L37.8569 1.66267C37.4044 1.11301 36.725 0.812692 36.0228 0.851873C35.317 0.848337 34.6402 1.13861 34.1485 1.65575C33.6569 2.17289 33.3927 2.87227 33.4171 3.5926C33.4021 4.68112 34.0299 5.67195 35.0084 6.10409C35.9869 6.53624 37.1239 6.32482 37.8905 5.56821C38.2346 5.18741 38.4331 4.6929 38.4496 4.17501H36.0228V3.35279H39.2772C39.307 3.52239 39.322 3.69437 39.3219 3.86668ZM44.444 1.01175H41.4244V3.18149H44.1756V4.00371H41.4244V6.17346H44.444V7.01852H40.5298V0.16669H44.444V1.01175ZM48.1121 7.01852H47.251V1.01175H45.3722V0.16669H50.0357V1.01175H48.1121V7.01852ZM53.3236 7.01852V0.16669H54.1847V7.01852H53.3236ZM58.0095 7.01852H57.1483V1.01175H55.2695V0.16669H59.8771V1.01175H58.0095V7.01852ZM68.6114 6.12778C67.2503 7.50983 65.0517 7.50983 63.6907 6.12778C62.3713 4.70173 62.3713 2.47206 63.6907 1.04601C64.3415 0.376524 65.2272 0 66.151 0C67.0749 0 67.9605 0.376524 68.6114 1.04601C69.9363 2.46977 69.9363 4.70402 68.6114 6.12778ZM64.3281 5.5568C65.3361 6.58179 66.9659 6.58179 67.9739 5.5568C68.9639 4.44243 68.9639 2.74278 67.9739 1.62841C66.9659 0.60342 65.3361 0.60342 64.3281 1.62841C63.3382 2.74278 63.3382 4.44243 64.3281 5.5568ZM70.8145 7.01852V0.16669H71.8658L75.1313 5.4997V0.16669H75.9924V7.01852H75.0978L71.6868 1.43428V7.01852H70.8145ZM62.494 17.0108C63.764 16.9859 64.9894 17.4885 65.8896 18.4034C66.7898 19.3184 67.2878 20.5673 67.2694 21.8641C67.2693 24.5416 65.1459 26.7133 62.5238 26.7175C59.9018 26.7216 57.7717 24.5568 57.7635 21.8793C57.7552 19.2018 59.872 17.0234 62.494 17.0108ZM62.494 24.8104C63.2358 24.7929 63.9392 24.4701 64.4446 23.9153C64.95 23.3606 65.2144 22.6209 65.1781 21.8641C65.1752 20.6544 64.4484 19.5694 63.3453 19.1281C62.2422 18.6868 60.9871 18.9788 60.1801 19.8646C59.3732 20.7504 59.1786 22.0498 59.6893 23.1414C60.1999 24.233 61.3122 24.8948 62.494 24.8104ZM52.0823 17.0108H52.0711C53.341 16.9859 54.5664 17.4885 55.4666 18.4034C56.3669 19.3184 56.8648 20.5673 56.8464 21.8641C56.8464 24.5431 54.7207 26.7154 52.0972 26.7175C49.4736 26.7196 47.3446 24.5507 47.3405 21.8717C47.3364 19.1928 49.4587 17.0171 52.0823 17.0108ZM52.0823 24.8104H52.0711C52.8129 24.7929 53.5162 24.4701 54.0216 23.9153C54.527 23.3606 54.7915 22.6209 54.7551 21.8641C54.7519 20.6534 54.0236 19.568 52.9192 19.1276C51.8147 18.6873 50.5588 18.9817 49.7531 19.8699C48.9473 20.7581 48.7557 22.0592 49.27 23.1501C49.7843 24.241 50.8998 24.8996 52.0823 24.8104ZM39.6798 18.5068L46.4682 18.4497C46.5462 18.8751 46.5836 19.3073 46.58 19.7401C46.6326 21.5167 46.007 23.2447 44.8354 24.5592C43.4964 25.9909 41.6165 26.7612 39.6798 26.6718C36.9723 26.7794 34.424 25.3658 33.0389 22.9878C31.6538 20.6098 31.6538 17.6485 33.0389 15.2705C34.424 12.8924 36.9723 11.4788 39.6798 11.5864C41.5818 11.5696 43.4094 12.3399 44.7459 13.7219L43.3256 15.1722C42.3457 14.2061 41.0306 13.6764 39.6686 13.6991C36.7039 13.6991 34.3006 16.1532 34.3006 19.1805C34.3006 22.2078 36.7039 24.662 39.6686 24.662C41.0627 24.7187 42.4153 24.1712 43.3927 23.1546C44.0412 22.444 44.4353 21.5305 44.5111 20.5623H39.6798V18.5068ZM90.352 20.1055L90.5868 20.6194L84.2234 23.303C84.6223 24.2305 85.5359 24.8148 86.5272 24.7762C87.4844 24.7786 88.3722 24.2668 88.8646 23.4286L90.4862 24.5706C89.6034 25.9198 88.1162 26.7263 86.5272 26.7175C85.2641 26.7364 84.0478 26.23 83.1577 25.3147C82.2677 24.3994 81.7804 23.1538 81.8078 21.8641C81.7305 20.604 82.1675 19.3674 83.0149 18.448C83.8624 17.5285 85.0447 17.0083 86.2812 17.0108C88.1353 17.0805 89.7549 18.3117 90.352 20.1055ZM83.8656 21.7271L88.1153 19.9228C87.781 19.2498 87.0857 18.8454 86.3483 18.895C85.6487 18.9272 84.9913 19.2456 84.5243 19.7784C84.0572 20.3112 83.8198 21.0136 83.8656 21.7271ZM78.6988 26.432V12.1574H80.7901V26.432H78.6988ZM75.2767 18.0956V17.2963H77.2002V25.941C77.2002 29.5268 75.176 30.9999 72.7269 30.9999C70.8807 31.0112 69.2127 29.8771 68.5107 28.1336L70.3336 27.357C70.7147 28.3746 71.6603 29.0559 72.7269 29.0814C74.2926 29.0814 75.2655 28.0879 75.2655 26.2265V25.5299H75.1984C74.5699 26.2702 73.6527 26.6883 72.6933 26.6718C70.1548 26.5461 68.1599 24.4079 68.1599 21.8128C68.1599 19.2176 70.1548 17.0794 72.6933 16.9537C73.6496 16.9524 74.5609 17.3678 75.1984 18.0956H75.2767ZM72.8834 24.8104H72.8723C73.5991 24.7819 74.2828 24.4509 74.7645 23.8943C75.2461 23.3378 75.4837 22.6042 75.4221 21.8641C75.4773 21.1275 75.2389 20.3993 74.761 19.8446C74.283 19.2899 73.606 18.9557 72.8834 18.9179C71.3881 19.0524 70.2412 20.3313 70.2412 21.8641C70.2412 23.397 71.3881 24.6759 72.8834 24.8104ZM95.1497 12.1574H100.16C101.784 12.0382 103.338 12.8557 104.186 14.2758C105.034 15.6959 105.034 17.4806 104.186 18.9007C103.338 20.3208 101.784 21.1383 100.16 21.0191H97.241V26.432H95.1497V12.1574ZM100.149 19.0092L100.193 19.0435C101.518 19.0435 102.592 17.9468 102.592 16.5939C102.592 15.2411 101.518 14.1444 100.193 14.1444H97.2298V19.0092H100.149ZM113.043 16.9537L113.099 16.9879C115.481 16.9879 117.338 18.4382 117.338 20.9391V26.432H115.325V25.2901H115.257C114.675 26.2136 113.646 26.7391 112.573 26.6604C111.703 26.7261 110.843 26.4295 110.19 25.838C109.537 25.2465 109.147 24.4104 109.107 23.52C109.107 21.453 111.131 20.3111 113.133 20.3111C113.893 20.3078 114.642 20.4961 115.313 20.8592V20.7108C115.26 20.1621 114.993 19.6584 114.573 19.3127C114.152 18.9669 113.613 18.8082 113.077 18.8722C112.295 18.8069 111.55 19.219 111.176 19.9228L109.319 19.1348C110.024 17.7155 111.487 16.8587 113.043 16.9537ZM112.786 24.7762L112.842 24.8104C114.102 24.7791 115.146 23.8048 115.291 22.5265C114.711 22.1958 114.054 22.0301 113.39 22.0469C112.339 22.0469 111.153 22.4237 111.153 23.5657C111.153 24.4222 112.104 24.7762 112.786 24.7762ZM124.674 17.2963H127L121.274 30.7601H119.093L121.218 25.9524L117.494 17.2963H119.731L122.214 23.4857H122.281L124.674 17.2963ZM105.875 26.432V12.1574H107.966V26.432H105.875ZM23.387 14.556C23.6674 14.7182 23.835 15.0085 23.835 15.3325C23.835 15.6564 23.6674 15.9467 23.3869 16.1085L18.296 19.0469L14.7223 15.5923L18.6326 11.8125L23.387 14.556ZM17.8256 11.3463L14.078 14.9693L1.12721 2.45L12.5936 8.32589L17.8256 11.3463ZM1.31763 28.55L14.078 16.2153L17.4891 19.513L12.6132 22.3278L1.31763 28.55ZM0.362231 2.95677L13.4335 15.5921L0.350098 28.2395L0.362231 2.95677Z" fill="#F5F9FC"/>
</svg>
