<svg width="127" height="31" viewBox="0 0 127 31" fill="none" xmlns="http://www.w3.org/2000/svg">
<path fill-rule="evenodd" clip-rule="evenodd" d="M39.3215 3.86668C39.3599 4.71314 39.0567 5.53867 38.4827 6.15062C37.8413 6.83101 36.9466 7.20058 36.0223 7.16697C34.6047 7.15564 33.3318 6.27763 32.7922 4.93889C32.2527 3.60015 32.5516 2.06159 33.5508 1.03459C34.2 0.357772 35.0948 -0.0142947 36.0223 0.00681418C36.4951 0.00520564 36.9632 0.102361 37.3979 0.292307C37.8026 0.458982 38.1628 0.721182 38.4492 1.05743L37.8564 1.66267C37.4039 1.11301 36.7245 0.812692 36.0223 0.851873C35.3165 0.848337 34.6397 1.13861 34.148 1.65575C33.6564 2.17289 33.3923 2.87227 33.4166 3.5926C33.4016 4.68112 34.0294 5.67195 35.0079 6.10409C35.9864 6.53624 37.1235 6.32482 37.89 5.56821C38.2341 5.18741 38.4326 4.6929 38.4492 4.17501H36.0223V3.35279H39.2767C39.3066 3.52239 39.3215 3.69437 39.3215 3.86668ZM44.4435 1.01175H41.424V3.18149H44.1751V4.00371H41.424V6.17346H44.4435V7.01852H40.5293V0.16669H44.4435V1.01175ZM48.1116 7.01852H47.2505V1.01175H45.3717V0.16669H50.0352V1.01175H48.1116V7.01852ZM53.3231 7.01852V0.16669H54.1842V7.01852H53.3231ZM58.009 7.01852H57.1479V1.01175H55.269V0.16669H59.8766V1.01175H58.009V7.01852ZM68.6109 6.12778C67.2498 7.50983 65.0512 7.50983 63.6902 6.12778C62.3708 4.70173 62.3708 2.47206 63.6902 1.04601C64.341 0.376524 65.2267 0 66.1505 0C67.0744 0 67.96 0.376524 68.6109 1.04601C69.9359 2.46977 69.9359 4.70402 68.6109 6.12778ZM64.3276 5.5568C65.3356 6.58179 66.9654 6.58179 67.9734 5.5568C68.9634 4.44243 68.9634 2.74278 67.9734 1.62841C66.9654 0.60342 65.3356 0.60342 64.3276 1.62841C63.3377 2.74278 63.3377 4.44243 64.3276 5.5568ZM70.814 7.01852V0.16669H71.8653L75.1308 5.4997V0.16669H75.992V7.01852H75.0973L71.6863 1.43428V7.01852H70.814ZM62.4935 17.0108C63.7635 16.9859 64.9889 17.4885 65.8891 18.4034C66.7894 19.3184 67.2873 20.5673 67.2689 21.8641C67.2688 24.5416 65.1454 26.7133 62.5233 26.7175C59.9013 26.7216 57.7712 24.5568 57.763 21.8793C57.7548 19.2018 59.8715 17.0234 62.4935 17.0108ZM62.4935 24.8104C63.2353 24.7929 63.9387 24.4701 64.4441 23.9153C64.9495 23.3606 65.214 22.6209 65.1776 21.8641C65.1747 20.6544 64.4479 19.5694 63.3448 19.1281C62.2417 18.6868 60.9866 18.9788 60.1797 19.8646C59.3727 20.7504 59.1781 22.0498 59.6888 23.1414C60.1995 24.233 61.3117 24.8948 62.4935 24.8104ZM52.0818 17.0108H52.0706C53.3405 16.9859 54.5659 17.4885 55.4662 18.4034C56.3664 19.3184 56.8643 20.5673 56.8459 21.8641C56.8459 24.5431 54.7202 26.7154 52.0967 26.7175C49.4731 26.7196 47.3441 24.5507 47.34 21.8717C47.3359 19.1928 49.4582 17.0171 52.0818 17.0108ZM52.0818 24.8104H52.0706C52.8124 24.7929 53.5158 24.4701 54.0211 23.9153C54.5265 23.3606 54.791 22.6209 54.7546 21.8641C54.7514 20.6534 54.0232 19.568 52.9187 19.1276C51.8142 18.6873 50.5584 18.9817 49.7526 19.8699C48.9468 20.7581 48.7552 22.0592 49.2695 23.1501C49.7838 24.241 50.8993 24.8996 52.0818 24.8104ZM39.6793 18.5068L46.4677 18.4497C46.5457 18.8751 46.5831 19.3073 46.5795 19.7401C46.6321 21.5167 46.0066 23.2447 44.8349 24.5592C43.4959 25.9909 41.616 26.7612 39.6793 26.6718C36.9718 26.7794 34.4236 25.3658 33.0384 22.9878C31.6533 20.6098 31.6533 17.6485 33.0384 15.2705C34.4236 12.8924 36.9718 11.4788 39.6793 11.5864C41.5813 11.5696 43.4089 12.3399 44.7454 13.7219L43.3251 15.1722C42.3452 14.2061 41.0301 13.6764 39.6681 13.6991C36.7035 13.6991 34.3001 16.1532 34.3001 19.1805C34.3001 22.2078 36.7035 24.662 39.6681 24.662C41.0622 24.7187 42.4148 24.1712 43.3922 23.1546C44.0407 22.444 44.4348 21.5305 44.5106 20.5623H39.6793V18.5068ZM90.3515 20.1055L90.5863 20.6194L84.223 23.303C84.6218 24.2305 85.5354 24.8148 86.5267 24.7762C87.4839 24.7786 88.3717 24.2668 88.8641 23.4286L90.4857 24.5706C89.6029 25.9198 88.1158 26.7263 86.5267 26.7175C85.2636 26.7364 84.0473 26.23 83.1572 25.3147C82.2672 24.3994 81.7799 23.1538 81.8073 21.8641C81.7301 20.604 82.167 19.3674 83.0145 18.448C83.8619 17.5285 85.0442 17.0083 86.2807 17.0108C88.1348 17.0805 89.7544 18.3117 90.3515 20.1055ZM83.8651 21.7271L88.1148 19.9228C87.7805 19.2498 87.0852 18.8454 86.3478 18.895C85.6482 18.9272 84.9908 19.2456 84.5238 19.7784C84.0567 20.3112 83.8193 21.0136 83.8651 21.7271ZM78.6983 26.432V12.1574H80.7896V26.432H78.6983ZM75.2762 18.0956V17.2963H77.1998V25.941C77.1998 29.5268 75.1756 30.9999 72.7264 30.9999C70.8803 31.0112 69.2122 29.8771 68.5102 28.1336L70.3331 27.357C70.7142 28.3746 71.6598 29.0559 72.7264 29.0814C74.2921 29.0814 75.265 28.0879 75.265 26.2265V25.5299H75.1979C74.5694 26.2702 73.6522 26.6883 72.6928 26.6718C70.1544 26.5461 68.1594 24.4079 68.1594 21.8128C68.1594 19.2176 70.1544 17.0794 72.6928 16.9537C73.6491 16.9524 74.5604 17.3678 75.1979 18.0956H75.2762ZM72.883 24.8104H72.8718C73.5986 24.7819 74.2823 24.4509 74.764 23.8943C75.2456 23.3378 75.4833 22.6042 75.4216 21.8641C75.4768 21.1275 75.2384 20.3993 74.7605 19.8446C74.2825 19.2899 73.6055 18.9557 72.883 18.9179C71.3876 19.0524 70.2407 20.3313 70.2407 21.8641C70.2407 23.397 71.3876 24.6759 72.883 24.8104ZM95.1492 12.1574H100.159C101.784 12.0382 103.338 12.8557 104.186 14.2758C105.033 15.6959 105.033 17.4806 104.186 18.9007C103.338 20.3208 101.784 21.1383 100.159 21.0191H97.2405V26.432H95.1492V12.1574ZM100.148 19.0092L100.193 19.0435C101.518 19.0435 102.592 17.9468 102.592 16.5939C102.592 15.2411 101.518 14.1444 100.193 14.1444H97.2293V19.0092H100.148ZM113.043 16.9537L113.099 16.9879C115.481 16.9879 117.337 18.4382 117.337 20.9391V26.432H115.324V25.2901H115.257C114.675 26.2136 113.646 26.7391 112.573 26.6604C111.702 26.7261 110.843 26.4295 110.19 25.838C109.537 25.2465 109.146 24.4104 109.106 23.52C109.106 21.453 111.13 20.3111 113.132 20.3111C113.892 20.3078 114.641 20.4961 115.313 20.8592V20.7108C115.26 20.1621 114.993 19.6584 114.572 19.3127C114.151 18.9669 113.613 18.8082 113.076 18.8722C112.295 18.8069 111.549 19.219 111.175 19.9228L109.319 19.1348C110.024 17.7155 111.487 16.8587 113.043 16.9537ZM112.785 24.7762L112.841 24.8104C114.101 24.7791 115.146 23.8048 115.291 22.5265C114.71 22.1958 114.054 22.0301 113.389 22.0469C112.338 22.0469 111.153 22.4237 111.153 23.5657C111.153 24.4222 112.103 24.7762 112.785 24.7762ZM124.673 17.2963H127L121.274 30.7601H119.093L121.218 25.9524L117.494 17.2963H119.73L122.213 23.4857H122.28L124.673 17.2963ZM105.874 26.432V12.1574H107.965V26.432H105.874ZM23.3865 14.556C23.6669 14.7182 23.8345 15.0085 23.8345 15.3325C23.8345 15.6564 23.6669 15.9467 23.3864 16.1085L18.2956 19.0469L14.7218 15.5923L18.6321 11.8125L23.3865 14.556ZM17.8251 11.3463L14.0775 14.9693L1.12672 2.45L12.5931 8.32589L17.8251 11.3463ZM1.31714 28.55L14.0775 16.2153L17.4886 19.513L12.6128 22.3278L1.31714 28.55ZM0.361743 2.95677L13.433 15.5921L0.349609 28.2395L0.361743 2.95677Z" fill="#F5F9FC"/>
</svg>
