<svg width="350" height="176" viewBox="0 0 350 176" fill="none" xmlns="http://www.w3.org/2000/svg">
<g clip-path="url(#clip0_832_1248)">
<path d="M340.786 128.065C343.528 128.065 345.755 129.243 345.755 130.69C345.755 132.137 343.528 133.315 340.786 133.315C338.045 133.315 335.818 132.137 335.818 130.69C335.818 129.243 338.045 128.065 340.786 128.065Z" fill="#FF5722"/>
<path d="M320.913 133.315C318.169 133.315 315.944 132.14 315.944 130.69C315.944 129.241 318.169 128.065 320.913 128.065C323.657 128.065 325.881 129.241 325.881 130.69C325.881 132.14 323.657 133.315 320.913 133.315Z" fill="#FF5722"/>
<path d="M330.85 128.065C333.591 128.065 335.818 129.243 335.818 130.69C335.818 132.137 333.591 133.315 330.85 133.315C328.108 133.315 325.881 132.137 325.881 130.69C325.881 129.243 328.108 128.065 330.85 128.065Z" fill="#FF5722"/>
<path d="M331.554 106.728C334.295 106.728 336.522 107.905 336.522 109.353C336.522 110.8 334.295 111.977 331.554 111.977C328.813 111.977 326.586 110.8 326.586 109.353C326.586 107.905 328.813 106.728 331.554 106.728Z" fill="#FF5722"/>
<path d="M341.491 106.728C344.232 106.728 346.459 107.905 346.459 109.353C346.459 110.8 344.232 111.977 341.491 111.977C338.75 111.977 336.522 110.8 336.522 109.353C336.522 107.905 338.75 106.728 341.491 106.728Z" fill="#FF5722"/>
<path d="M311.68 106.728C314.421 106.728 316.649 107.905 316.649 109.353C316.649 110.8 314.421 111.977 311.68 111.977C308.939 111.977 306.712 110.8 306.712 109.353C306.712 107.905 308.939 106.728 311.68 106.728Z" fill="#FF5722"/>
<path d="M321.617 106.728C324.358 106.728 326.586 107.905 326.586 109.353C326.586 110.8 324.358 111.977 321.617 111.977C318.876 111.977 316.649 110.8 316.649 109.353C316.649 107.905 318.876 106.728 321.617 106.728Z" fill="#FF5722"/>
<path d="M340.786 170.76C343.528 170.76 345.755 171.938 345.755 173.385C345.755 174.832 343.528 176.01 340.786 176.01C338.045 176.01 335.818 174.832 335.818 173.385C335.818 171.938 338.045 170.76 340.786 170.76Z" fill="#FF5722"/>
<path d="M331.554 149.413C334.295 149.413 336.522 150.59 336.522 152.038C336.522 153.485 334.295 154.662 331.554 154.662C328.813 154.662 326.586 153.485 326.586 152.038C326.586 150.59 328.813 149.413 331.554 149.413Z" fill="#FF5722"/>
<path d="M341.491 149.413C344.232 149.413 346.459 150.59 346.459 152.038C346.459 153.485 344.232 154.662 341.491 154.662C338.75 154.662 336.522 153.485 336.522 152.038C336.522 150.59 338.75 149.413 341.491 149.413Z" fill="#FF5722"/>
<path d="M302.467 85.3804C305.208 85.3804 307.435 86.558 307.435 88.0051C307.435 89.4523 305.208 90.6299 302.467 90.6299C299.726 90.6299 297.498 89.4523 297.498 88.0051C297.498 86.558 299.726 85.3804 302.467 85.3804Z" fill="#FF5722"/>
<path d="M322.341 85.3804C325.082 85.3804 327.309 86.558 327.309 88.0051C327.309 89.4523 325.082 90.6299 322.341 90.6299C319.599 90.6299 317.372 89.4523 317.372 88.0051C317.372 86.558 319.599 85.3804 322.341 85.3804Z" fill="#FF5722"/>
<path d="M312.404 90.6299C309.66 90.6299 307.435 89.4548 307.435 88.0051C307.435 86.5555 309.66 85.3804 312.404 85.3804C315.148 85.3804 317.372 86.5555 317.372 88.0051C317.372 89.4548 315.148 90.6299 312.404 90.6299Z" fill="#FF5722"/>
<path d="M332.277 85.3804C335.019 85.3804 337.246 86.558 337.246 88.0051C337.246 89.4523 335.019 90.6299 332.277 90.6299C329.536 90.6299 327.309 89.4523 327.309 88.0051C327.309 86.558 329.517 85.3804 332.277 85.3804Z" fill="#FF5722"/>
<path d="M342.214 85.3801C344.955 85.3801 347.183 86.5578 347.183 88.0049C347.183 89.452 344.955 90.6297 342.214 90.6297C339.473 90.6297 337.246 89.452 337.246 88.0049C337.246 86.5578 339.473 85.3801 342.214 85.3801Z" fill="#FF5722"/>
<path d="M303.171 64.0325C305.912 64.0325 308.14 65.2101 308.14 66.6572C308.14 68.1044 305.912 69.282 303.171 69.282C300.43 69.282 298.203 68.1044 298.203 66.6572C298.203 65.2101 300.43 64.0325 303.171 64.0325Z" fill="#FF5722"/>
<path d="M313.108 64.0325C315.849 64.0325 318.076 65.2101 318.076 66.6572C318.076 68.1044 315.849 69.282 313.108 69.282C310.367 69.282 308.14 68.1044 308.14 66.6572C308.14 65.2101 310.367 64.0325 313.108 64.0325Z" fill="#FF5722"/>
<path d="M323.045 64.0325C325.786 64.0325 328.013 65.2101 328.013 66.6572C328.013 68.1044 325.786 69.282 323.045 69.282C320.304 69.282 318.076 68.1044 318.076 66.6572C318.076 65.2101 320.304 64.0325 323.045 64.0325Z" fill="#FF5722"/>
<path d="M293.234 64.0325C295.976 64.0325 298.203 65.2101 298.203 66.6572C298.203 68.1044 295.976 69.282 293.234 69.282C290.493 69.282 288.266 68.1044 288.266 66.6572C288.266 65.2101 290.493 64.0325 293.234 64.0325Z" fill="#FF5722"/>
<path d="M342.919 64.0327C345.66 64.0327 347.887 65.2104 347.887 66.6575C347.887 68.1046 345.66 69.2823 342.919 69.2823C340.177 69.2823 337.95 68.1046 337.95 66.6575C337.95 65.2104 340.177 64.0327 342.919 64.0327Z" fill="#FF5722"/>
<path d="M332.982 64.0325C335.723 64.0325 337.95 65.2101 337.95 66.6572C337.95 68.1044 335.723 69.282 332.982 69.282C330.241 69.282 328.013 68.1044 328.013 66.6572C328.013 65.2101 330.241 64.0325 332.982 64.0325Z" fill="#FF5722"/>
<path d="M343.623 42.6851C346.364 42.6851 348.591 43.8627 348.591 45.3098C348.591 46.757 346.364 47.9346 343.623 47.9346C340.882 47.9346 338.654 46.757 338.654 45.3098C338.654 43.8627 340.882 42.6851 343.623 42.6851Z" fill="#FF5722"/>
<path d="M303.875 47.9346C301.131 47.9346 298.907 46.7595 298.907 45.3098C298.907 43.8602 301.131 42.6851 303.875 42.6851C306.619 42.6851 308.844 43.8602 308.844 45.3098C308.844 46.7595 306.619 47.9346 303.875 47.9346Z" fill="#FF5722"/>
<path d="M284.002 47.9346C281.258 47.9346 279.033 46.7595 279.033 45.3098C279.033 43.8602 281.258 42.6851 284.002 42.6851C286.746 42.6851 288.97 43.8602 288.97 45.3098C288.97 46.7595 286.746 47.9346 284.002 47.9346Z" fill="#FF5722"/>
<path d="M313.812 42.6851C316.554 42.6851 318.781 43.8627 318.781 45.3098C318.781 46.757 316.554 47.9346 313.812 47.9346C311.071 47.9346 308.844 46.757 308.844 45.3098C308.844 43.8627 311.071 42.6851 313.812 42.6851Z" fill="#FF5722"/>
<path d="M323.749 42.6851C326.49 42.6851 328.718 43.8627 328.718 45.3098C328.718 46.757 326.49 47.9346 323.749 47.9346C321.008 47.9346 318.781 46.757 318.781 45.3098C318.781 43.8627 321.008 42.6851 323.749 42.6851Z" fill="#FF5722"/>
<path d="M333.686 42.6851C336.427 42.6851 338.655 43.8627 338.655 45.3098C338.655 46.757 336.427 47.9346 333.686 47.9346C330.945 47.9346 328.718 46.757 328.718 45.3098C328.718 43.8627 330.945 42.6851 333.686 42.6851Z" fill="#FF5722"/>
<path d="M293.939 42.6851C296.68 42.6851 298.907 43.8627 298.907 45.3098C298.907 46.757 296.68 47.9346 293.939 47.9346C291.197 47.9346 288.97 46.757 288.97 45.3098C288.97 43.8627 291.197 42.6851 293.939 42.6851Z" fill="#FF5722"/>
<path d="M344.327 26.5872C341.583 26.5872 339.359 25.4121 339.359 23.9624C339.359 22.5128 341.583 21.3376 344.327 21.3376C347.071 21.3376 349.296 22.5128 349.296 23.9624C349.296 25.4121 347.071 26.5872 344.327 26.5872Z" fill="#FF5722"/>
<path d="M294.643 21.3474C297.384 21.3474 299.611 22.5251 299.611 23.9722C299.611 25.4193 297.384 26.597 294.643 26.597C291.902 26.597 289.675 25.4193 289.675 23.9722C289.675 22.5251 291.902 21.3474 294.643 21.3474Z" fill="#FF5722"/>
<path d="M334.39 21.3474C337.132 21.3474 339.359 22.5251 339.359 23.9722C339.359 25.4193 337.132 26.597 334.39 26.597C331.649 26.597 329.422 25.4193 329.422 23.9722C329.422 22.5251 331.649 21.3474 334.39 21.3474Z" fill="#FF5722"/>
<path d="M314.517 21.3474C317.258 21.3474 319.485 22.5251 319.485 23.9722C319.485 25.4193 317.258 26.597 314.517 26.597C311.775 26.597 309.548 25.4193 309.548 23.9722C309.548 22.5251 311.775 21.3474 314.517 21.3474Z" fill="#FF5722"/>
<path d="M324.454 21.3474C327.195 21.3474 329.422 22.5251 329.422 23.9722C329.422 25.4193 327.195 26.597 324.454 26.597C321.712 26.597 319.485 25.4193 319.485 23.9722C319.485 22.5251 321.712 21.3474 324.454 21.3474Z" fill="#FF5722"/>
<path d="M304.58 21.3474C307.321 21.3474 309.548 22.5251 309.548 23.9722C309.548 25.4193 307.321 26.597 304.58 26.597C301.839 26.597 299.611 25.4193 299.611 23.9722C299.611 22.5251 301.839 21.3474 304.58 21.3474Z" fill="#FF5722"/>
<path d="M274.769 21.3474C277.51 21.3474 279.738 22.5251 279.738 23.9722C279.738 25.4193 277.51 26.597 274.769 26.597C272.028 26.597 269.801 25.4193 269.801 23.9722C269.801 22.5251 272.009 21.3474 274.769 21.3474Z" fill="#FF5722"/>
<path d="M284.706 21.3474C287.447 21.3474 289.675 22.5251 289.675 23.9722C289.675 25.4193 287.447 26.597 284.706 26.597C281.965 26.597 279.738 25.4193 279.738 23.9722C279.738 22.5251 281.946 21.3474 284.706 21.3474Z" fill="#FF5722"/>
<path d="M335.095 5.23955C332.353 5.23955 330.126 4.06189 330.126 2.61477C330.126 1.16765 332.353 -0.0100098 335.095 -0.0100098C337.836 -0.0100098 340.063 1.16765 340.063 2.61477C340.063 4.06189 337.836 5.23955 335.095 5.23955Z" fill="#FF5722"/>
<path d="M345.032 5.23958C342.29 5.23958 340.063 4.06192 340.063 2.6148C340.063 1.16768 342.309 0 345.032 0C347.754 0 350 1.17766 350 2.62478C350 4.0719 347.773 5.24956 345.032 5.24956V5.23958Z" fill="#FF5722"/>
<path d="M275.474 5.24956C272.73 5.24956 270.505 4.07441 270.505 2.62478C270.505 1.17515 272.73 0 275.474 0C278.218 0 280.442 1.17515 280.442 2.62478C280.442 4.07441 278.218 5.24956 275.474 5.24956Z" fill="#FF5722"/>
<path d="M305.284 5.23955C302.543 5.23955 300.316 4.06189 300.316 2.61477C300.316 1.16765 302.543 -0.0100098 305.284 -0.0100098C308.025 -0.0100098 310.253 1.16765 310.253 2.61477C310.253 4.06189 308.025 5.23955 305.284 5.23955Z" fill="#FF5722"/>
<path d="M295.347 5.23955C292.606 5.23955 290.379 4.06189 290.379 2.61477C290.379 1.16765 292.606 -0.0100098 295.347 -0.0100098C298.088 -0.0100098 300.316 1.16765 300.316 2.61477C300.316 4.06189 298.088 5.23955 295.347 5.23955Z" fill="#FF5722"/>
<path d="M285.41 5.23955C282.669 5.23955 280.442 4.06189 280.442 2.61477C280.442 1.16765 282.669 -0.0100098 285.41 -0.0100098C288.152 -0.0100098 290.379 1.16765 290.379 2.61477C290.379 4.06189 288.152 5.23955 285.41 5.23955Z" fill="#FF5722"/>
<path d="M325.158 5.23955C322.417 5.23955 320.189 4.06189 320.189 2.61477C320.189 1.16765 322.417 -0.0100098 325.158 -0.0100098C327.899 -0.0100098 330.126 1.16765 330.126 2.61477C330.126 4.06189 327.899 5.23955 325.158 5.23955Z" fill="#FF5722"/>
<path d="M265.537 5.23955C262.795 5.23955 260.568 4.06189 260.568 2.61477C260.568 1.16765 262.776 -0.0100098 265.537 -0.0100098C268.297 -0.0100098 270.505 1.16765 270.505 2.61477C270.505 4.06189 268.278 5.23955 265.537 5.23955Z" fill="#FF5722"/>
<path d="M315.221 5.23955C312.48 5.23955 310.253 4.06189 310.253 2.61477C310.253 1.16765 312.48 -0.0100098 315.221 -0.0100098C317.962 -0.0100098 320.189 1.16765 320.189 2.61477C320.189 4.06189 317.962 5.23955 315.221 5.23955Z" fill="#FF5722"/>
</g>
<defs>
<clipPath id="clip0_832_1248">
<rect width="350" height="176" fill="white" transform="matrix(-1 0 0 1 350 0)"/>
</clipPath>
</defs>
</svg>
