<svg width="74" height="61" viewBox="0 0 74 61" fill="none" xmlns="http://www.w3.org/2000/svg">
<g filter="url(#filter0_dd_1029_2232)">
<rect x="3" y="2.84082" width="68" height="53.3182" rx="8" fill="white"/>
</g>
<g clip-path="url(#clip0_1029_2232)">
<path d="M30.5466 32.3044L29.7397 35.3167L26.7904 35.3791C25.909 33.7443 25.4091 31.8739 25.4091 29.8862C25.4091 27.9642 25.8765 26.1516 26.7051 24.5557H26.7057L29.3314 25.037L30.4816 27.647C30.2409 28.3488 30.1097 29.1022 30.1097 29.8862C30.1098 30.7371 30.2639 31.5523 30.5466 32.3044Z" fill="#FBBB00"/>
<path d="M48.3883 27.7207C48.5214 28.4219 48.5908 29.146 48.5908 29.886C48.5908 30.7159 48.5036 31.5253 48.3374 32.3061C47.7731 34.9631 46.2988 37.2832 44.2564 38.925L44.2558 38.9244L40.9485 38.7557L40.4805 35.8337C41.8357 35.0389 42.8948 33.7951 43.4527 32.3061H37.2548V27.7207H43.5431H48.3883Z" fill="#518EF8"/>
<path d="M44.2556 38.9239L44.2563 38.9245C42.2699 40.5211 39.7466 41.4764 36.9998 41.4764C32.5857 41.4764 28.748 39.0092 26.7903 35.3785L30.5465 32.3037C31.5254 34.9161 34.0454 36.7758 36.9998 36.7758C38.2697 36.7758 39.4594 36.4325 40.4803 35.8332L44.2556 38.9239Z" fill="#28B446"/>
<path d="M44.3984 20.9634L40.6435 24.0375C39.5869 23.3771 38.338 22.9956 37 22.9956C33.9787 22.9956 31.4115 24.9405 30.4817 27.6466L26.7057 24.5553H26.7051C28.6341 20.836 32.5203 18.2949 37 18.2949C39.8124 18.2949 42.391 19.2967 44.3984 20.9634Z" fill="#F14336"/>
</g>
<defs>
<filter id="filter0_dd_1029_2232" x="0" y="0.84082" width="74" height="59.3184" filterUnits="userSpaceOnUse" color-interpolation-filters="sRGB">
<feFlood flood-opacity="0" result="BackgroundImageFix"/>
<feColorMatrix in="SourceAlpha" type="matrix" values="0 0 0 0 0 0 0 0 0 0 0 0 0 0 0 0 0 0 127 0" result="hardAlpha"/>
<feOffset dy="1"/>
<feGaussianBlur stdDeviation="1.5"/>
<feColorMatrix type="matrix" values="0 0 0 0 0.196078 0 0 0 0 0.196078 0 0 0 0 0.278431 0 0 0 0.1 0"/>
<feBlend mode="normal" in2="BackgroundImageFix" result="effect1_dropShadow_1029_2232"/>
<feColorMatrix in="SourceAlpha" type="matrix" values="0 0 0 0 0 0 0 0 0 0 0 0 0 0 0 0 0 0 127 0" result="hardAlpha"/>
<feOffset/>
<feGaussianBlur stdDeviation="0.5"/>
<feColorMatrix type="matrix" values="0 0 0 0 0.0470588 0 0 0 0 0.101961 0 0 0 0 0.294118 0 0 0 0.2 0"/>
<feBlend mode="normal" in2="effect1_dropShadow_1029_2232" result="effect2_dropShadow_1029_2232"/>
<feBlend mode="normal" in="SourceGraphic" in2="effect2_dropShadow_1029_2232" result="shape"/>
</filter>
<clipPath id="clip0_1029_2232">
<rect width="23.1818" height="23.1818" fill="white" transform="translate(25.4091 18.2949)"/>
</clipPath>
</defs>
</svg>
