<svg width="142" height="221" viewBox="0 0 142 221" fill="none" xmlns="http://www.w3.org/2000/svg">
<g filter="url(#filter0_ddddd_1151_9057)">
<path d="M46.005 34.0098C46.0076 47.8169 56.3423 59.0078 69.0882 59.0053L72.9313 59.0046C85.6772 59.0021 96.0076 47.8073 96.005 34.0001C96.0023 20.193 85.6676 9.00212 72.9217 9.00458L69.0786 9.00532C56.3327 9.00778 46.0023 20.2026 46.005 34.0098Z" fill="#5D50C6"/>
<path d="M68.2124 34.5046L75.0053 34.5033C75.2814 34.5032 75.5053 34.2794 75.5052 34.0033C75.5052 33.7271 75.2813 33.5034 75.0051 33.5034L68.2122 33.5047L69.8332 31.8833C70.0285 31.688 70.0284 31.3714 69.8331 31.1762C69.6378 30.981 69.3212 30.9811 69.126 31.1764L67.0051 33.2979C66.6146 33.6884 66.6147 34.3215 67.0053 34.7119L69.1271 36.8326C69.3224 37.0278 69.639 37.0277 69.8342 36.8325C70.0294 36.6372 70.0293 36.3206 69.834 36.1254L68.2124 34.5046Z" fill="white"/>
</g>
<defs>
<filter id="filter0_ddddd_1151_9057" x="0.00585938" y="0.00488281" width="142" height="221" filterUnits="userSpaceOnUse" color-interpolation-filters="sRGB">
<feFlood flood-opacity="0" result="BackgroundImageFix"/>
<feColorMatrix in="SourceAlpha" type="matrix" values="0 0 0 0 0 0 0 0 0 0 0 0 0 0 0 0 0 0 127 0" result="hardAlpha"/>
<feOffset/>
<feColorMatrix type="matrix" values="0 0 0 0 0 0 0 0 0 0 0 0 0 0 0 0 0 0 0.08 0"/>
<feBlend mode="normal" in2="BackgroundImageFix" result="effect1_dropShadow_1151_9057"/>
<feColorMatrix in="SourceAlpha" type="matrix" values="0 0 0 0 0 0 0 0 0 0 0 0 0 0 0 0 0 0 127 0" result="hardAlpha"/>
<feOffset dy="7"/>
<feGaussianBlur stdDeviation="8"/>
<feColorMatrix type="matrix" values="0 0 0 0 0 0 0 0 0 0 0 0 0 0 0 0 0 0 0.07 0"/>
<feBlend mode="normal" in2="effect1_dropShadow_1151_9057" result="effect2_dropShadow_1151_9057"/>
<feColorMatrix in="SourceAlpha" type="matrix" values="0 0 0 0 0 0 0 0 0 0 0 0 0 0 0 0 0 0 127 0" result="hardAlpha"/>
<feOffset dy="29"/>
<feGaussianBlur stdDeviation="14.5"/>
<feColorMatrix type="matrix" values="0 0 0 0 0 0 0 0 0 0 0 0 0 0 0 0 0 0 0.06 0"/>
<feBlend mode="normal" in2="effect2_dropShadow_1151_9057" result="effect3_dropShadow_1151_9057"/>
<feColorMatrix in="SourceAlpha" type="matrix" values="0 0 0 0 0 0 0 0 0 0 0 0 0 0 0 0 0 0 127 0" result="hardAlpha"/>
<feOffset dy="65"/>
<feGaussianBlur stdDeviation="19.5"/>
<feColorMatrix type="matrix" values="0 0 0 0 0 0 0 0 0 0 0 0 0 0 0 0 0 0 0.04 0"/>
<feBlend mode="normal" in2="effect3_dropShadow_1151_9057" result="effect4_dropShadow_1151_9057"/>
<feColorMatrix in="SourceAlpha" type="matrix" values="0 0 0 0 0 0 0 0 0 0 0 0 0 0 0 0 0 0 127 0" result="hardAlpha"/>
<feOffset dy="116"/>
<feGaussianBlur stdDeviation="23"/>
<feColorMatrix type="matrix" values="0 0 0 0 0 0 0 0 0 0 0 0 0 0 0 0 0 0 0.01 0"/>
<feBlend mode="normal" in2="effect4_dropShadow_1151_9057" result="effect5_dropShadow_1151_9057"/>
<feBlend mode="normal" in="SourceGraphic" in2="effect5_dropShadow_1151_9057" result="shape"/>
</filter>
</defs>
</svg>
