<svg width="32" height="32" viewBox="0 0 32 32" fill="none" xmlns="http://www.w3.org/2000/svg">
<path d="M16 32C24.8366 32 32 24.8366 32 16C32 7.16344 24.8366 0 16 0C7.16344 0 0 7.16344 0 16C0 24.8366 7.16344 32 16 32Z" fill="#5D50C6"/>
<path d="M25.8008 11.4988C25.1151 11.8028 24.3775 12.0084 23.604 12.1003C24.3938 11.6271 24.9999 10.8784 25.2859 9.98483C24.547 10.4232 23.7281 10.7412 22.8573 10.9126C22.1597 10.1697 21.1657 9.70532 20.0651 9.70532C17.9533 9.70532 16.2406 11.418 16.2406 13.5298C16.2406 13.8295 16.2746 14.1213 16.3402 14.4014C13.1617 14.242 10.3435 12.7195 8.45711 10.405C8.12797 10.9697 7.93916 11.6271 7.93916 12.3279C7.93916 13.6544 8.61484 14.8255 9.64047 15.5112C9.01385 15.4915 8.42374 15.3195 7.90836 15.0323C7.90807 15.0485 7.90807 15.0648 7.90807 15.0808C7.90807 16.9338 9.22691 18.4794 10.9761 18.8305C10.6556 18.9183 10.317 18.9648 9.96875 18.9648C9.72176 18.9648 9.48246 18.9412 9.24915 18.8967C9.73573 20.4157 11.1478 21.5215 12.8218 21.5526C11.5126 22.5785 9.86379 23.1897 8.0715 23.1897C7.76347 23.1897 7.45829 23.1718 7.15967 23.1361C8.85128 24.2216 10.862 24.8545 13.0217 24.8545C20.0562 24.8545 23.9032 19.027 23.9032 13.9727C23.9032 13.807 23.8995 13.6419 23.8921 13.4781C24.6399 12.9391 25.2882 12.2657 25.8008 11.4988Z" fill="#F1F2F2"/>
</svg>
