<svg width="74" height="61" viewBox="0 0 74 61" fill="none" xmlns="http://www.w3.org/2000/svg">
<g filter="url(#filter0_dd_1029_2232)">
<rect x="3" y="2.84094" width="68" height="53.3182" rx="8" fill="white"/>
</g>
<g clip-path="url(#clip0_1029_2232)">
<path d="M30.5468 32.3046L29.7398 35.317L26.7905 35.3794C25.9091 33.7446 25.4092 31.8741 25.4092 29.8865C25.4092 27.9644 25.8766 26.1519 26.7052 24.5559H26.7058L29.3315 25.0373L30.4817 27.6472C30.241 28.3491 30.1098 29.1025 30.1098 29.8865C30.1099 30.7373 30.264 31.5525 30.5468 32.3046Z" fill="#FBBB00"/>
<path d="M48.3884 27.7208C48.5216 28.422 48.591 29.1461 48.591 29.8862C48.591 30.716 48.5037 31.5255 48.3375 32.3063C47.7733 34.9632 46.2989 37.2833 44.2565 38.9252L44.2559 38.9245L40.9487 38.7558L40.4806 35.8338C41.8358 35.039 42.8949 33.7952 43.4528 32.3063H37.2549V27.7208H43.5433H48.3884Z" fill="#518EF8"/>
<path d="M44.2559 38.9249L44.2565 38.9255C42.2701 40.5221 39.7469 41.4774 37.0001 41.4774C32.586 41.4774 28.7483 39.0102 26.7905 35.3794L30.5468 32.3047C31.5256 34.9171 34.0457 36.7767 37.0001 36.7767C38.27 36.7767 39.4597 36.4335 40.4805 35.8342L44.2559 38.9249Z" fill="#28B446"/>
<path d="M44.3984 20.9639L40.6435 24.038C39.5869 23.3776 38.338 22.9961 37 22.9961C33.9787 22.9961 31.4115 24.9411 30.4817 27.6472L26.7057 24.5558H26.7051C28.6341 20.8366 32.5203 18.2955 37 18.2955C39.8124 18.2955 42.391 19.2973 44.3984 20.9639Z" fill="#F14336"/>
</g>
<defs>
<filter id="filter0_dd_1029_2232" x="0" y="0.840942" width="74" height="59.3182" filterUnits="userSpaceOnUse" color-interpolation-filters="sRGB">
<feFlood flood-opacity="0" result="BackgroundImageFix"/>
<feColorMatrix in="SourceAlpha" type="matrix" values="0 0 0 0 0 0 0 0 0 0 0 0 0 0 0 0 0 0 127 0" result="hardAlpha"/>
<feOffset dy="1"/>
<feGaussianBlur stdDeviation="1.5"/>
<feColorMatrix type="matrix" values="0 0 0 0 0.196078 0 0 0 0 0.196078 0 0 0 0 0.278431 0 0 0 0.1 0"/>
<feBlend mode="normal" in2="BackgroundImageFix" result="effect1_dropShadow_1029_2232"/>
<feColorMatrix in="SourceAlpha" type="matrix" values="0 0 0 0 0 0 0 0 0 0 0 0 0 0 0 0 0 0 127 0" result="hardAlpha"/>
<feOffset/>
<feGaussianBlur stdDeviation="0.5"/>
<feColorMatrix type="matrix" values="0 0 0 0 0.0470588 0 0 0 0 0.101961 0 0 0 0 0.294118 0 0 0 0.2 0"/>
<feBlend mode="normal" in2="effect1_dropShadow_1029_2232" result="effect2_dropShadow_1029_2232"/>
<feBlend mode="normal" in="SourceGraphic" in2="effect2_dropShadow_1029_2232" result="shape"/>
</filter>
<clipPath id="clip0_1029_2232">
<rect width="23.1818" height="23.1818" fill="white" transform="translate(25.4092 18.2955)"/>
</clipPath>
</defs>
</svg>
