<svg width="74" height="61" viewBox="0 0 74 61" fill="none" xmlns="http://www.w3.org/2000/svg">
<g filter="url(#filter0_dd_1105_4078)">
<rect x="3" y="2.84082" width="68" height="53.3182" rx="8" fill="white"/>
</g>
<g clip-path="url(#clip0_1105_4078)">
<path d="M30.5468 32.3044L29.7398 35.3167L26.7905 35.3791C25.9091 33.7443 25.4092 31.8739 25.4092 29.8862C25.4092 27.9642 25.8766 26.1516 26.7052 24.5557H26.7058L29.3315 25.037L30.4817 27.647C30.241 28.3488 30.1098 29.1022 30.1098 29.8862C30.1099 30.7371 30.264 31.5523 30.5468 32.3044Z" fill="#FBBB00"/>
<path d="M48.3884 27.7207C48.5216 28.4219 48.591 29.146 48.591 29.886C48.591 30.7159 48.5037 31.5253 48.3375 32.3061C47.7733 34.9631 46.2989 37.2832 44.2565 38.925L44.2559 38.9244L40.9487 38.7557L40.4806 35.8337C41.8358 35.0389 42.8949 33.7951 43.4528 32.3061H37.2549V27.7207H43.5433H48.3884Z" fill="#518EF8"/>
<path d="M44.2559 38.9239L44.2565 38.9245C42.2701 40.5211 39.7469 41.4764 37.0001 41.4764C32.586 41.4764 28.7483 39.0092 26.7905 35.3785L30.5468 32.3037C31.5256 34.9161 34.0457 36.7758 37.0001 36.7758C38.27 36.7758 39.4597 36.4325 40.4805 35.8332L44.2559 38.9239Z" fill="#28B446"/>
<path d="M44.3984 20.9634L40.6435 24.0375C39.5869 23.3771 38.338 22.9956 37 22.9956C33.9787 22.9956 31.4115 24.9405 30.4817 27.6466L26.7057 24.5553H26.7051C28.6341 20.836 32.5203 18.2949 37 18.2949C39.8124 18.2949 42.391 19.2967 44.3984 20.9634Z" fill="#F14336"/>
</g>
<defs>
<filter id="filter0_dd_1105_4078" x="0" y="0.84082" width="74" height="59.3184" filterUnits="userSpaceOnUse" color-interpolation-filters="sRGB">
<feFlood flood-opacity="0" result="BackgroundImageFix"/>
<feColorMatrix in="SourceAlpha" type="matrix" values="0 0 0 0 0 0 0 0 0 0 0 0 0 0 0 0 0 0 127 0" result="hardAlpha"/>
<feOffset dy="1"/>
<feGaussianBlur stdDeviation="1.5"/>
<feColorMatrix type="matrix" values="0 0 0 0 0.196078 0 0 0 0 0.196078 0 0 0 0 0.278431 0 0 0 0.1 0"/>
<feBlend mode="normal" in2="BackgroundImageFix" result="effect1_dropShadow_1105_4078"/>
<feColorMatrix in="SourceAlpha" type="matrix" values="0 0 0 0 0 0 0 0 0 0 0 0 0 0 0 0 0 0 127 0" result="hardAlpha"/>
<feOffset/>
<feGaussianBlur stdDeviation="0.5"/>
<feColorMatrix type="matrix" values="0 0 0 0 0.0470588 0 0 0 0 0.101961 0 0 0 0 0.294118 0 0 0 0.2 0"/>
<feBlend mode="normal" in2="effect1_dropShadow_1105_4078" result="effect2_dropShadow_1105_4078"/>
<feBlend mode="normal" in="SourceGraphic" in2="effect2_dropShadow_1105_4078" result="shape"/>
</filter>
<clipPath id="clip0_1105_4078">
<rect width="23.1818" height="23.1818" fill="white" transform="translate(25.4092 18.2949)"/>
</clipPath>
</defs>
</svg>
