<svg width="178" height="17" viewBox="0 0 178 17" fill="none" xmlns="http://www.w3.org/2000/svg">
<path d="M165.74 13.1459V4.53541H166.65C166.865 4.53541 166.998 4.64025 167.049 4.84991L167.16 5.73391C167.477 5.34291 167.834 5.02275 168.231 4.77341C168.627 4.52408 169.086 4.39941 169.608 4.39941C170.186 4.39941 170.653 4.56091 171.01 4.88391C171.373 5.20691 171.634 5.64325 171.792 6.19291C171.917 5.88125 172.076 5.61208 172.268 5.38541C172.467 5.15875 172.688 4.97175 172.931 4.82441C173.175 4.67708 173.433 4.56941 173.705 4.50141C173.982 4.43341 174.263 4.39941 174.546 4.39941C175 4.39941 175.402 4.47308 175.753 4.62041C176.11 4.76208 176.411 4.97175 176.654 5.24941C176.904 5.52708 177.093 5.86991 177.224 6.27791C177.354 6.68025 177.419 7.14208 177.419 7.66341V13.1459H175.898V7.66341C175.898 6.98908 175.75 6.47908 175.456 6.13341C175.161 5.78208 174.736 5.60641 174.181 5.60641C173.931 5.60641 173.693 5.65175 173.467 5.74241C173.246 5.82741 173.05 5.95491 172.88 6.12491C172.71 6.29491 172.574 6.51025 172.472 6.77091C172.376 7.02591 172.328 7.32341 172.328 7.66341V13.1459H170.806V7.66341C170.806 6.97208 170.667 6.45641 170.39 6.11641C170.112 5.77641 169.707 5.60641 169.174 5.60641C168.8 5.60641 168.455 5.70841 168.137 5.91241C167.82 6.11075 167.528 6.38275 167.262 6.72841V13.1459H165.74Z" fill="#353945"/>
<path d="M159.723 4.39941C160.352 4.39941 160.919 4.50425 161.423 4.71391C161.928 4.92358 162.358 5.22108 162.715 5.60641C163.072 5.99175 163.344 6.45925 163.531 7.00891C163.724 7.55291 163.82 8.16208 163.82 8.83641C163.82 9.51641 163.724 10.1284 163.531 10.6724C163.344 11.2164 163.072 11.6811 162.715 12.0664C162.358 12.4517 161.928 12.7492 161.423 12.9589C160.919 13.1629 160.352 13.2649 159.723 13.2649C159.089 13.2649 158.516 13.1629 158.006 12.9589C157.502 12.7492 157.071 12.4517 156.714 12.0664C156.357 11.6811 156.083 11.2164 155.89 10.6724C155.703 10.1284 155.609 9.51641 155.609 8.83641C155.609 8.16208 155.703 7.55291 155.89 7.00891C156.083 6.45925 156.357 5.99175 156.714 5.60641C157.071 5.22108 157.502 4.92358 158.006 4.71391C158.516 4.50425 159.089 4.39941 159.723 4.39941ZM159.723 12.0834C160.573 12.0834 161.208 11.8001 161.627 11.2334C162.047 10.6611 162.256 9.86491 162.256 8.84491C162.256 7.81925 162.047 7.02025 161.627 6.44791C161.208 5.87558 160.573 5.58941 159.723 5.58941C159.293 5.58941 158.916 5.66308 158.593 5.81041C158.276 5.95775 158.009 6.17025 157.794 6.44791C157.584 6.72558 157.426 7.06841 157.318 7.47641C157.216 7.87875 157.165 8.33491 157.165 8.84491C157.165 9.86491 157.375 10.6611 157.794 11.2334C158.219 11.8001 158.862 12.0834 159.723 12.0834Z" fill="#353945"/>
<path d="M154.118 6.06541C154.072 6.12775 154.027 6.17591 153.982 6.20991C153.936 6.24391 153.874 6.26091 153.795 6.26091C153.71 6.26091 153.616 6.22691 153.514 6.15891C153.412 6.08525 153.285 6.00591 153.132 5.92091C152.984 5.83591 152.8 5.75941 152.579 5.69141C152.364 5.61775 152.097 5.58091 151.78 5.58091C151.355 5.58091 150.981 5.65741 150.658 5.81041C150.335 5.95775 150.063 6.17308 149.842 6.45641C149.627 6.73975 149.462 7.08258 149.349 7.48491C149.241 7.88725 149.188 8.33775 149.188 8.83641C149.188 9.35775 149.247 9.82241 149.366 10.2304C149.485 10.6327 149.652 10.9727 149.868 11.2504C150.089 11.5224 150.352 11.7321 150.658 11.8794C150.97 12.0211 151.318 12.0919 151.704 12.0919C152.072 12.0919 152.375 12.0494 152.613 11.9644C152.851 11.8737 153.047 11.7746 153.2 11.6669C153.358 11.5592 153.489 11.4629 153.591 11.3779C153.698 11.2872 153.803 11.2419 153.905 11.2419C154.03 11.2419 154.126 11.2901 154.194 11.3864L154.619 11.9389C154.432 12.1712 154.22 12.3696 153.982 12.5339C153.744 12.6982 153.486 12.8371 153.208 12.9504C152.936 13.0581 152.65 13.1374 152.35 13.1884C152.049 13.2394 151.743 13.2649 151.432 13.2649C150.893 13.2649 150.392 13.1657 149.927 12.9674C149.468 12.7691 149.069 12.4829 148.729 12.1089C148.389 11.7292 148.122 11.2646 147.93 10.7149C147.737 10.1652 147.641 9.53908 147.641 8.83641C147.641 8.19608 147.728 7.60391 147.904 7.05991C148.085 6.51591 148.346 6.04841 148.686 5.65741C149.032 5.26075 149.454 4.95191 149.953 4.73091C150.457 4.50991 151.035 4.39941 151.687 4.39941C152.293 4.39941 152.826 4.49858 153.285 4.69691C153.749 4.88958 154.16 5.16441 154.517 5.52141L154.118 6.06541Z" fill="#353945"/>
<path d="M143.854 12.2106C143.854 12.0633 143.879 11.9245 143.93 11.7941C143.987 11.6638 144.06 11.5505 144.151 11.4541C144.247 11.3578 144.361 11.2813 144.491 11.2246C144.621 11.168 144.76 11.1396 144.908 11.1396C145.055 11.1396 145.194 11.168 145.324 11.2246C145.454 11.2813 145.568 11.3578 145.664 11.4541C145.76 11.5505 145.837 11.6638 145.894 11.7941C145.95 11.9245 145.979 12.0633 145.979 12.2106C145.979 12.3636 145.95 12.5053 145.894 12.6356C145.837 12.7603 145.76 12.8708 145.664 12.9671C145.568 13.0635 145.454 13.1371 145.324 13.1881C145.194 13.2448 145.055 13.2731 144.908 13.2731C144.76 13.2731 144.621 13.2448 144.491 13.1881C144.361 13.1371 144.247 13.0635 144.151 12.9671C144.06 12.8708 143.987 12.7603 143.93 12.6356C143.879 12.5053 143.854 12.3636 143.854 12.2106Z" fill="#353945"/>
<path d="M141.656 0.625V13.1455H140.143V0.625H141.656Z" fill="#353945"/>
<path d="M137.606 4.53514V13.1456H136.093V4.53514H137.606ZM137.929 1.83214C137.929 1.97947 137.897 2.11831 137.835 2.24864C137.778 2.37331 137.699 2.48664 137.597 2.58864C137.501 2.68497 137.385 2.76147 137.249 2.81814C137.118 2.87481 136.979 2.90314 136.832 2.90314C136.685 2.90314 136.546 2.87481 136.416 2.81814C136.291 2.76147 136.18 2.68497 136.084 2.58864C135.988 2.48664 135.911 2.37331 135.855 2.24864C135.798 2.11831 135.77 1.97947 135.77 1.83214C135.77 1.68481 135.798 1.54597 135.855 1.41564C135.911 1.27964 135.988 1.16347 136.084 1.06714C136.18 0.965141 136.291 0.885807 136.416 0.82914C136.546 0.772474 136.685 0.744141 136.832 0.744141C136.979 0.744141 137.118 0.772474 137.249 0.82914C137.385 0.885807 137.501 0.965141 137.597 1.06714C137.699 1.16347 137.778 1.27964 137.835 1.41564C137.897 1.54597 137.929 1.68481 137.929 1.83214Z" fill="#353945"/>
<path d="M132.223 9.26934C131.526 9.292 130.931 9.34867 130.438 9.43934C129.95 9.52434 129.551 9.63767 129.239 9.77934C128.933 9.921 128.709 10.0882 128.568 10.2808C128.432 10.4735 128.364 10.6888 128.364 10.9268C128.364 11.1535 128.4 11.349 128.474 11.5133C128.548 11.6777 128.647 11.8137 128.772 11.9213C128.902 12.0233 129.052 12.0998 129.222 12.1508C129.398 12.1962 129.585 12.2188 129.783 12.2188C130.049 12.2188 130.293 12.1933 130.514 12.1423C130.735 12.0857 130.942 12.0063 131.135 11.9043C131.333 11.8023 131.52 11.6805 131.696 11.5388C131.877 11.3972 132.053 11.2357 132.223 11.0543V9.26934ZM127.335 5.75034C127.811 5.29134 128.324 4.9485 128.874 4.72184C129.423 4.49517 130.032 4.38184 130.701 4.38184C131.183 4.38184 131.611 4.46117 131.985 4.61984C132.359 4.7785 132.673 4.9995 132.928 5.28284C133.183 5.56617 133.376 5.909 133.506 6.31134C133.636 6.71367 133.702 7.15567 133.702 7.63734V13.1453H133.03C132.883 13.1453 132.769 13.1227 132.69 13.0773C132.611 13.0263 132.548 12.93 132.503 12.7883L132.333 11.9723C132.106 12.182 131.885 12.369 131.67 12.5333C131.455 12.692 131.228 12.828 130.99 12.9413C130.752 13.049 130.497 13.1312 130.225 13.1878C129.959 13.2502 129.661 13.2813 129.333 13.2813C128.998 13.2813 128.684 13.236 128.389 13.1453C128.094 13.049 127.837 12.9073 127.616 12.7203C127.4 12.5333 127.227 12.2982 127.097 12.0148C126.972 11.7258 126.91 11.3858 126.91 10.9948C126.91 10.6548 127.004 10.329 127.191 10.0173C127.378 9.7 127.681 9.4195 128.1 9.17584C128.519 8.93217 129.066 8.73384 129.741 8.58084C130.415 8.42217 131.242 8.3315 132.223 8.30884V7.63734C132.223 6.96867 132.078 6.46434 131.789 6.12434C131.5 5.77867 131.078 5.60584 130.523 5.60584C130.149 5.60584 129.834 5.654 129.579 5.75034C129.33 5.841 129.112 5.94584 128.925 6.06484C128.743 6.17817 128.585 6.283 128.449 6.37934C128.318 6.47 128.188 6.51534 128.058 6.51534C127.956 6.51534 127.868 6.48984 127.794 6.43884C127.72 6.38217 127.658 6.31417 127.607 6.23484L127.335 5.75034Z" fill="#353945"/>
<path d="M113.578 13.1459V4.53541H114.488C114.703 4.53541 114.836 4.64025 114.887 4.84991L114.998 5.73391C115.315 5.34291 115.672 5.02275 116.069 4.77341C116.465 4.52408 116.924 4.39941 117.446 4.39941C118.024 4.39941 118.491 4.56091 118.848 4.88391C119.211 5.20691 119.471 5.64325 119.63 6.19291C119.755 5.88125 119.913 5.61208 120.106 5.38541C120.304 5.15875 120.525 4.97175 120.769 4.82441C121.013 4.67708 121.271 4.56941 121.543 4.50141C121.82 4.43341 122.101 4.39941 122.384 4.39941C122.837 4.39941 123.24 4.47308 123.591 4.62041C123.948 4.76208 124.248 4.97175 124.492 5.24941C124.741 5.52708 124.931 5.86991 125.062 6.27791C125.192 6.68025 125.257 7.14208 125.257 7.66341V13.1459H123.736V7.66341C123.736 6.98908 123.588 6.47908 123.294 6.13341C122.999 5.78208 122.574 5.60641 122.019 5.60641C121.769 5.60641 121.531 5.65175 121.305 5.74241C121.084 5.82741 120.888 5.95491 120.718 6.12491C120.548 6.29491 120.412 6.51025 120.31 6.77091C120.214 7.02591 120.166 7.32341 120.166 7.66341V13.1459H118.644V7.66341C118.644 6.97208 118.505 6.45641 118.228 6.11641C117.95 5.77641 117.545 5.60641 117.012 5.60641C116.638 5.60641 116.292 5.70841 115.975 5.91241C115.658 6.11075 115.366 6.38275 115.1 6.72841V13.1459H113.578Z" fill="#353945"/>
<path d="M107.746 8.93813C108.052 8.93813 108.321 8.89563 108.554 8.81063C108.786 8.72563 108.982 8.60663 109.14 8.45363C109.299 8.30063 109.418 8.11929 109.497 7.90963C109.577 7.69429 109.616 7.45913 109.616 7.20413C109.616 6.67713 109.455 6.25779 109.132 5.94613C108.814 5.63446 108.353 5.47863 107.746 5.47863C107.134 5.47863 106.667 5.63446 106.344 5.94613C106.026 6.25779 105.868 6.67713 105.868 7.20413C105.868 7.45913 105.907 7.69429 105.987 7.90963C106.072 8.11929 106.194 8.30063 106.352 8.45363C106.511 8.60663 106.706 8.72563 106.939 8.81063C107.171 8.89563 107.44 8.93813 107.746 8.93813ZM110.475 13.6131C110.475 13.4035 110.415 13.2335 110.296 13.1031C110.177 12.9728 110.016 12.8708 109.812 12.7971C109.613 12.7235 109.381 12.6725 109.115 12.6441C108.848 12.6101 108.565 12.5846 108.265 12.5676C107.97 12.5506 107.67 12.5336 107.364 12.5166C107.058 12.4996 106.763 12.4713 106.48 12.4316C106.162 12.579 105.902 12.766 105.698 12.9926C105.499 13.2136 105.4 13.4743 105.4 13.7746C105.4 13.9673 105.448 14.1458 105.545 14.3101C105.647 14.4801 105.8 14.6246 106.004 14.7436C106.208 14.8683 106.463 14.9646 106.769 15.0326C107.08 15.1063 107.446 15.1431 107.865 15.1431C108.273 15.1431 108.639 15.1063 108.962 15.0326C109.285 14.959 109.557 14.8541 109.778 14.7181C110.004 14.5821 110.177 14.4206 110.296 14.2336C110.415 14.0466 110.475 13.8398 110.475 13.6131ZM112.013 4.87513V5.43613C112.013 5.62313 111.894 5.74213 111.656 5.79313L110.679 5.92063C110.871 6.29463 110.968 6.70829 110.968 7.16163C110.968 7.58096 110.886 7.96346 110.721 8.30913C110.563 8.64913 110.342 8.94096 110.058 9.18463C109.775 9.42829 109.435 9.61529 109.038 9.74563C108.642 9.87596 108.211 9.94113 107.746 9.94113C107.344 9.94113 106.964 9.89296 106.607 9.79663C106.426 9.90996 106.287 10.0318 106.191 10.1621C106.094 10.2868 106.046 10.4143 106.046 10.5446C106.046 10.7486 106.128 10.9045 106.293 11.0121C106.463 11.1141 106.684 11.1878 106.956 11.2331C107.228 11.2785 107.537 11.3068 107.882 11.3181C108.234 11.3295 108.591 11.3493 108.953 11.3776C109.322 11.4003 109.679 11.4428 110.024 11.5051C110.376 11.5675 110.687 11.6695 110.959 11.8111C111.231 11.9528 111.449 12.1483 111.614 12.3976C111.784 12.647 111.869 12.97 111.869 13.3666C111.869 13.735 111.775 14.092 111.588 14.4376C111.407 14.7833 111.143 15.0893 110.798 15.3556C110.452 15.6276 110.027 15.843 109.523 16.0016C109.024 16.166 108.46 16.2481 107.831 16.2481C107.202 16.2481 106.653 16.1858 106.182 16.0611C105.712 15.9365 105.321 15.7693 105.009 15.5596C104.698 15.35 104.462 15.1063 104.304 14.8286C104.151 14.5566 104.074 14.2705 104.074 13.9701C104.074 13.5451 104.207 13.1853 104.474 12.8906C104.74 12.596 105.106 12.3608 105.57 12.1851C105.315 12.0718 105.111 11.9216 104.958 11.7346C104.811 11.542 104.737 11.2841 104.737 10.9611C104.737 10.8365 104.76 10.709 104.805 10.5786C104.851 10.4426 104.919 10.3095 105.009 10.1791C105.106 10.0431 105.222 9.91563 105.358 9.79663C105.494 9.67763 105.652 9.57279 105.834 9.48213C105.409 9.24413 105.077 8.92963 104.839 8.53863C104.601 8.14196 104.482 7.68296 104.482 7.16163C104.482 6.74229 104.562 6.36263 104.72 6.02263C104.885 5.67696 105.111 5.38513 105.4 5.14713C105.689 4.90346 106.032 4.71646 106.429 4.58613C106.831 4.45579 107.27 4.39062 107.746 4.39062C108.12 4.39062 108.469 4.43313 108.792 4.51813C109.115 4.59746 109.409 4.71646 109.676 4.87513H112.013Z" fill="#353945"/>
<path d="M98.2886 6.15825C98.0676 6.10725 97.8239 6.08175 97.5576 6.08175C97.1326 6.08175 96.7416 6.17242 96.3846 6.35375C96.0332 6.52942 95.7301 6.76175 95.4751 7.05075C95.2201 7.33975 95.0189 7.67125 94.8716 8.04525C94.7299 8.41925 94.6591 8.80175 94.6591 9.19275C94.6591 9.60075 94.7526 9.92942 94.9396 10.1788C95.1266 10.4224 95.4042 10.5443 95.7726 10.5443C95.9482 10.5443 96.1239 10.5159 96.2996 10.4592C96.4809 10.4026 96.6537 10.3034 96.8181 10.1618C96.9881 10.0201 97.1439 9.82742 97.2856 9.58375C97.4272 9.34008 97.5462 9.03408 97.6426 8.66575L98.2886 6.15825ZM98.8156 8.52975C98.7022 8.96042 98.6484 9.31175 98.6541 9.58375C98.6597 9.85008 98.7022 10.0597 98.7816 10.2127C98.8666 10.3657 98.9827 10.4706 99.1301 10.5273C99.2774 10.5782 99.4389 10.6038 99.6146 10.6038C99.8922 10.6038 100.156 10.5244 100.405 10.3657C100.654 10.2071 100.873 9.98325 101.06 9.69425C101.252 9.40525 101.402 9.05958 101.51 8.65725C101.623 8.24925 101.68 7.79875 101.68 7.30575C101.68 6.52375 101.555 5.83808 101.306 5.24875C101.057 4.65942 100.711 4.16925 100.269 3.77825C99.8327 3.38158 99.3142 3.08692 98.7136 2.89425C98.1186 2.69592 97.4754 2.59675 96.7841 2.59675C96.0247 2.59675 95.3136 2.74125 94.6506 3.03025C93.9876 3.31925 93.4096 3.71875 92.9166 4.22875C92.4236 4.73875 92.0326 5.34225 91.7436 6.03925C91.4602 6.73625 91.3186 7.49558 91.3186 8.31725C91.3186 9.28058 91.4687 10.1277 91.7691 10.8587C92.0751 11.5841 92.4887 12.1933 93.0101 12.6863C93.5371 13.1793 94.1547 13.5504 94.8631 13.7998C95.5714 14.0491 96.3307 14.1737 97.1411 14.1737C98.0024 14.1737 98.7617 14.0802 99.4191 13.8932C100.082 13.7062 100.654 13.4683 101.136 13.1793C101.249 13.1113 101.349 13.0914 101.434 13.1198C101.519 13.1424 101.581 13.2048 101.621 13.3068L101.842 13.8678C101.23 14.2758 100.535 14.5959 99.7591 14.8283C98.9884 15.0606 98.1157 15.1768 97.1411 15.1768C96.1551 15.1768 95.2399 15.0209 94.3956 14.7092C93.5512 14.3976 92.8174 13.9471 92.1941 13.3577C91.5764 12.7741 91.0891 12.0573 90.7321 11.2073C90.3807 10.3573 90.2051 9.39392 90.2051 8.31725C90.2051 7.69958 90.2816 7.10458 90.4346 6.53225C90.5932 5.95992 90.8142 5.42725 91.0976 4.93425C91.3809 4.43558 91.7209 3.98225 92.1176 3.57425C92.5142 3.16058 92.9562 2.80925 93.4436 2.52025C93.9309 2.22558 94.4551 1.99892 95.0161 1.84025C95.5827 1.67592 96.1721 1.59375 96.7841 1.59375C97.3054 1.59375 97.8154 1.65042 98.3141 1.76375C98.8127 1.87708 99.2831 2.04425 99.7251 2.26525C100.173 2.48625 100.581 2.76108 100.949 3.08975C101.323 3.41275 101.646 3.78675 101.918 4.21175C102.19 4.63108 102.4 5.10142 102.547 5.62275C102.7 6.13842 102.777 6.69942 102.777 7.30575C102.777 7.91775 102.689 8.48442 102.513 9.00575C102.343 9.52142 102.105 9.96908 101.799 10.3487C101.499 10.7284 101.142 11.0259 100.728 11.2413C100.314 11.4566 99.8696 11.5643 99.3936 11.5643C98.9629 11.5643 98.6059 11.4594 98.3226 11.2498C98.0449 11.0344 97.8664 10.7086 97.7871 10.2722C97.4641 10.7256 97.1099 11.0514 96.7246 11.2498C96.3392 11.4481 95.9227 11.5473 95.4751 11.5473C95.1407 11.5473 94.8461 11.4906 94.5911 11.3773C94.3417 11.2583 94.1349 11.0968 93.9706 10.8927C93.8062 10.6831 93.6816 10.4366 93.5966 10.1532C93.5172 9.86992 93.4776 9.56392 93.4776 9.23525C93.4776 8.75358 93.5682 8.26908 93.7496 7.78175C93.9366 7.28875 94.2114 6.84675 94.5741 6.45575C94.9367 6.05908 95.3872 5.73608 95.9256 5.48675C96.4639 5.23742 97.0872 5.11275 97.7956 5.11275C98.1752 5.11275 98.5096 5.14392 98.7986 5.20625C99.0876 5.26292 99.3596 5.34792 99.6146 5.46125L98.8156 8.52975Z" fill="#353945"/>
<path d="M88.1125 11.9895V13.1455H81.5845V11.9895H84.194V3.68495C84.194 3.43562 84.2025 3.18345 84.2195 2.92845L82.052 4.78995C81.9784 4.85229 81.9047 4.89195 81.831 4.90895C81.7573 4.92029 81.6894 4.92029 81.627 4.90895C81.5647 4.89762 81.5052 4.87495 81.4485 4.84095C81.3975 4.80695 81.3579 4.77012 81.3295 4.73045L80.8535 4.07595L84.483 0.939453H85.7155V11.9895H88.1125Z" fill="#353945"/>
<path d="M77.987 11.7091C78.1513 11.7091 78.2817 11.7573 78.378 11.8536C78.4743 11.9499 78.5225 12.0746 78.5225 12.2276V13.1456H70.3965V12.6271C70.3965 12.5194 70.4191 12.4089 70.4645 12.2956C70.5098 12.1823 70.5806 12.0774 70.677 11.9811L74.5785 8.0626C74.9015 7.73394 75.1961 7.41944 75.4625 7.1191C75.7288 6.8131 75.9555 6.5071 76.1425 6.2011C76.3295 5.8951 76.474 5.58627 76.576 5.2746C76.678 4.95727 76.729 4.6201 76.729 4.2631C76.729 3.9061 76.6723 3.59444 76.559 3.3281C76.4456 3.0561 76.2898 2.83227 76.0915 2.6566C75.8988 2.48094 75.6693 2.3506 75.403 2.2656C75.1367 2.17494 74.8505 2.1296 74.5445 2.1296C74.2328 2.1296 73.9466 2.17494 73.686 2.2656C73.4253 2.35627 73.193 2.48377 72.989 2.6481C72.7906 2.80677 72.6235 2.9966 72.4875 3.2176C72.3515 3.4386 72.2551 3.68227 72.1985 3.9486C72.1305 4.14694 72.037 4.2801 71.918 4.3481C71.8047 4.41044 71.6431 4.42744 71.4335 4.3991L70.643 4.2631C70.7223 3.70777 70.8753 3.2176 71.102 2.7926C71.3343 2.36194 71.6233 2.0021 71.969 1.7131C72.3203 1.4241 72.7198 1.20594 73.1675 1.0586C73.6151 0.905602 74.0996 0.829102 74.621 0.829102C75.1366 0.829102 75.6183 0.905602 76.066 1.0586C76.5136 1.2116 76.9018 1.43544 77.2305 1.7301C77.5592 2.0191 77.817 2.37327 78.004 2.7926C78.191 3.21194 78.2845 3.68794 78.2845 4.2206C78.2845 4.67394 78.2165 5.0961 78.0805 5.4871C77.9445 5.87244 77.7603 6.24077 77.528 6.5921C77.2957 6.94344 77.0265 7.28627 76.7205 7.6206C76.4201 7.95494 76.1 8.2921 75.76 8.6321L72.547 11.9131C72.7736 11.8508 73.0031 11.8026 73.2355 11.7686C73.4678 11.7289 73.6916 11.7091 73.907 11.7091H77.987Z" fill="#353945"/>
<path d="M68.3899 11.9895V13.1455H61.8619V11.9895H64.4714V3.68495C64.4714 3.43562 64.4799 3.18345 64.4969 2.92845L62.3294 4.78995C62.2557 4.85229 62.182 4.89195 62.1084 4.90895C62.0347 4.92029 61.9667 4.92029 61.9044 4.90895C61.842 4.89762 61.7825 4.87495 61.7259 4.84095C61.6749 4.80695 61.6352 4.77012 61.6069 4.73045L61.1309 4.07595L64.7604 0.939453H65.9929V11.9895H68.3899Z" fill="#353945"/>
<path d="M57.1504 9.26934C56.4534 9.292 55.8584 9.34867 55.3654 9.43934C54.8781 9.52434 54.4786 9.63767 54.1669 9.77934C53.8609 9.921 53.6371 10.0882 53.4954 10.2808C53.3594 10.4735 53.2914 10.6888 53.2914 10.9268C53.2914 11.1535 53.3282 11.349 53.4019 11.5133C53.4756 11.6777 53.5747 11.8137 53.6994 11.9213C53.8297 12.0233 53.9799 12.0998 54.1499 12.1508C54.3256 12.1962 54.5126 12.2188 54.7109 12.2188C54.9772 12.2188 55.2209 12.1933 55.4419 12.1423C55.6629 12.0857 55.8697 12.0063 56.0624 11.9043C56.2607 11.8023 56.4477 11.6805 56.6234 11.5388C56.8047 11.3972 56.9804 11.2357 57.1504 11.0543V9.26934ZM52.2629 5.75034C52.7389 5.29134 53.2517 4.9485 53.8014 4.72184C54.3511 4.49517 54.9602 4.38184 55.6289 4.38184C56.1106 4.38184 56.5384 4.46117 56.9124 4.61984C57.2864 4.7785 57.6009 4.9995 57.8559 5.28284C58.1109 5.56617 58.3036 5.909 58.4339 6.31134C58.5642 6.71367 58.6294 7.15567 58.6294 7.63734V13.1453H57.9579C57.8106 13.1453 57.6972 13.1227 57.6179 13.0773C57.5386 13.0263 57.4762 12.93 57.4309 12.7883L57.2609 11.9723C57.0342 12.182 56.8132 12.369 56.5979 12.5333C56.3826 12.692 56.1559 12.828 55.9179 12.9413C55.6799 13.049 55.4249 13.1312 55.1529 13.1878C54.8866 13.2502 54.5891 13.2813 54.2604 13.2813C53.9261 13.2813 53.6116 13.236 53.3169 13.1453C53.0222 13.049 52.7644 12.9073 52.5434 12.7203C52.3281 12.5333 52.1552 12.2982 52.0249 12.0148C51.9002 11.7258 51.8379 11.3858 51.8379 10.9948C51.8379 10.6548 51.9314 10.329 52.1184 10.0173C52.3054 9.7 52.6086 9.4195 53.0279 9.17584C53.4472 8.93217 53.9941 8.73384 54.6684 8.58084C55.3427 8.42217 56.1701 8.3315 57.1504 8.30884V7.63734C57.1504 6.96867 57.0059 6.46434 56.7169 6.12434C56.4279 5.77867 56.0057 5.60584 55.4504 5.60584C55.0764 5.60584 54.7619 5.654 54.5069 5.75034C54.2576 5.841 54.0394 5.94584 53.8524 6.06484C53.6711 6.17817 53.5124 6.283 53.3764 6.37934C53.2461 6.47 53.1157 6.51534 52.9854 6.51534C52.8834 6.51534 52.7956 6.48984 52.7219 6.43884C52.6482 6.38217 52.5859 6.31417 52.5349 6.23484L52.2629 5.75034Z" fill="#353945"/>
<path d="M51.3142 4.53516L46.5117 15.6872C46.4607 15.8005 46.3956 15.8912 46.3162 15.9592C46.2426 16.0272 46.1264 16.0612 45.9677 16.0612H44.8457L46.4182 12.6442L42.8652 4.53516H44.1742C44.3046 4.53516 44.4066 4.56916 44.4802 4.63716C44.5596 4.69949 44.6134 4.77032 44.6417 4.84966L46.9452 10.2727C47.0359 10.5107 47.1124 10.76 47.1747 11.0207C47.2541 10.7543 47.3391 10.5022 47.4297 10.2642L49.6652 4.84966C49.6992 4.75899 49.7559 4.68532 49.8352 4.62866C49.9202 4.56632 50.0137 4.53516 50.1157 4.53516H51.3142Z" fill="#353945"/>
<path d="M36.1426 5.6825C36.5109 5.2915 36.9189 4.97983 37.3666 4.7475C37.8143 4.51517 38.3299 4.399 38.9136 4.399C39.3839 4.399 39.7976 4.47833 40.1546 4.637C40.5173 4.79 40.8176 5.011 41.0556 5.3C41.2993 5.58333 41.4834 5.92617 41.6081 6.3285C41.7328 6.73083 41.7951 7.17567 41.7951 7.663V13.1455H40.2736V7.663C40.2736 7.01133 40.1234 6.507 39.8231 6.15C39.5284 5.78733 39.0779 5.606 38.4716 5.606C38.0239 5.606 37.6046 5.71367 37.2136 5.929C36.8283 6.14433 36.4713 6.43617 36.1426 6.8045V13.1455H34.6211V0.625H36.1426V5.6825Z" fill="#353945"/>
<path d="M30.7181 6.5835C30.4348 6.20383 30.1288 5.94033 29.8001 5.793C29.4715 5.64 29.1031 5.5635 28.6951 5.5635C27.8961 5.5635 27.2813 5.84967 26.8506 6.422C26.42 6.99433 26.2046 7.81033 26.2046 8.87C26.2046 9.431 26.2528 9.91267 26.3491 10.315C26.4455 10.7117 26.5871 11.0403 26.7741 11.301C26.9611 11.556 27.1906 11.743 27.4626 11.862C27.7346 11.981 28.0435 12.0405 28.3891 12.0405C28.8878 12.0405 29.3213 11.9272 29.6896 11.7005C30.0636 11.4738 30.4065 11.1537 30.7181 10.74V6.5835ZM32.2311 0.625V13.1455H31.3301C31.1148 13.1455 30.9788 13.0407 30.9221 12.831L30.7861 11.7855C30.4178 12.2275 29.9985 12.5845 29.5281 12.8565C29.0578 13.1285 28.5138 13.2645 27.8961 13.2645C27.4031 13.2645 26.9555 13.171 26.5531 12.984C26.1508 12.7913 25.808 12.5108 25.5246 12.1425C25.2413 11.7742 25.0231 11.3152 24.8701 10.7655C24.7171 10.2158 24.6406 9.584 24.6406 8.87C24.6406 8.23533 24.7256 7.646 24.8956 7.102C25.0656 6.55233 25.3093 6.07633 25.6266 5.674C25.944 5.27167 26.3321 4.95717 26.7911 4.7305C27.2558 4.49817 27.7771 4.382 28.3551 4.382C28.8821 4.382 29.3326 4.47267 29.7066 4.654C30.0863 4.82967 30.4235 5.07617 30.7181 5.3935V0.625H32.2311Z" fill="#353945"/>
<path d="M22.5982 13.1453H20.9492V0.964844H22.5982V13.1453Z" fill="#353945"/>
<path d="M15.9144 8.62334L14.0019 3.66784C13.9452 3.52051 13.8857 3.35051 13.8234 3.15784C13.7611 2.95951 13.7016 2.74984 13.6449 2.52884C13.5259 2.98784 13.4041 3.37034 13.2794 3.67634L11.3669 8.62334H15.9144ZM19.3484 13.1453H18.0734C17.9261 13.1453 17.8071 13.1085 17.7164 13.0348C17.6257 12.9612 17.5577 12.8677 17.5124 12.7543L16.3734 9.81334H10.9079L9.76891 12.7543C9.73491 12.8563 9.66974 12.947 9.57341 13.0263C9.47707 13.1057 9.35807 13.1453 9.21641 13.1453H7.94141L12.8119 0.964844H14.4779L19.3484 13.1453Z" fill="#353945"/>
<path d="M8.381 4.53516L4.8705 13.1457H3.5105L0 4.53516H1.2325C1.35717 4.53516 1.45917 4.56632 1.5385 4.62866C1.61783 4.69099 1.67167 4.76466 1.7 4.84966L3.8845 10.3917C3.9525 10.6013 4.012 10.8053 4.063 11.0037C4.114 11.202 4.16217 11.4003 4.2075 11.5987C4.25283 11.4003 4.301 11.202 4.352 11.0037C4.403 10.8053 4.46533 10.6013 4.539 10.3917L6.749 4.84966C6.783 4.75899 6.83967 4.68532 6.919 4.62866C6.99833 4.56632 7.09183 4.53516 7.1995 4.53516H8.381Z" fill="#353945"/>
</svg>
