<svg width="178" height="16" viewBox="0 0 178 16" fill="none" xmlns="http://www.w3.org/2000/svg">
<path d="M165.74 12.6459V4.03541H166.65C166.865 4.03541 166.998 4.14025 167.049 4.34991L167.16 5.23391C167.477 4.84291 167.834 4.52275 168.231 4.27341C168.627 4.02408 169.086 3.89941 169.608 3.89941C170.186 3.89941 170.653 4.06091 171.01 4.38391C171.373 4.70691 171.634 5.14325 171.792 5.69291C171.917 5.38125 172.076 5.11208 172.268 4.88541C172.467 4.65875 172.688 4.47175 172.931 4.32441C173.175 4.17708 173.433 4.06941 173.705 4.00141C173.982 3.93341 174.263 3.89941 174.546 3.89941C175 3.89941 175.402 3.97308 175.753 4.12041C176.11 4.26208 176.411 4.47175 176.654 4.74941C176.904 5.02708 177.093 5.36991 177.224 5.77791C177.354 6.18025 177.419 6.64208 177.419 7.16341V12.6459H175.898V7.16341C175.898 6.48908 175.75 5.97908 175.456 5.63341C175.161 5.28208 174.736 5.10641 174.181 5.10641C173.931 5.10641 173.693 5.15175 173.467 5.24241C173.246 5.32741 173.05 5.45491 172.88 5.62491C172.71 5.79491 172.574 6.01025 172.472 6.27091C172.376 6.52591 172.328 6.82341 172.328 7.16341V12.6459H170.806V7.16341C170.806 6.47208 170.667 5.95641 170.39 5.61641C170.112 5.27641 169.707 5.10641 169.174 5.10641C168.8 5.10641 168.455 5.20841 168.137 5.41241C167.82 5.61075 167.528 5.88275 167.262 6.22841V12.6459H165.74Z" fill="#353945"/>
<path d="M159.723 3.89941C160.352 3.89941 160.919 4.00425 161.423 4.21391C161.928 4.42358 162.358 4.72108 162.715 5.10641C163.072 5.49175 163.344 5.95925 163.531 6.50891C163.724 7.05291 163.82 7.66208 163.82 8.33641C163.82 9.01641 163.724 9.62841 163.531 10.1724C163.344 10.7164 163.072 11.1811 162.715 11.5664C162.358 11.9517 161.928 12.2492 161.423 12.4589C160.919 12.6629 160.352 12.7649 159.723 12.7649C159.089 12.7649 158.516 12.6629 158.006 12.4589C157.502 12.2492 157.071 11.9517 156.714 11.5664C156.357 11.1811 156.083 10.7164 155.89 10.1724C155.703 9.62841 155.609 9.01641 155.609 8.33641C155.609 7.66208 155.703 7.05291 155.89 6.50891C156.083 5.95925 156.357 5.49175 156.714 5.10641C157.071 4.72108 157.502 4.42358 158.006 4.21391C158.516 4.00425 159.089 3.89941 159.723 3.89941ZM159.723 11.5834C160.573 11.5834 161.208 11.3001 161.627 10.7334C162.047 10.1611 162.256 9.36491 162.256 8.34491C162.256 7.31925 162.047 6.52025 161.627 5.94791C161.208 5.37558 160.573 5.08941 159.723 5.08941C159.293 5.08941 158.916 5.16308 158.593 5.31041C158.276 5.45775 158.009 5.67025 157.794 5.94791C157.584 6.22558 157.426 6.56841 157.318 6.97641C157.216 7.37875 157.165 7.83491 157.165 8.34491C157.165 9.36491 157.375 10.1611 157.794 10.7334C158.219 11.3001 158.862 11.5834 159.723 11.5834Z" fill="#353945"/>
<path d="M154.118 5.56541C154.072 5.62775 154.027 5.67591 153.982 5.70991C153.936 5.74391 153.874 5.76091 153.795 5.76091C153.71 5.76091 153.616 5.72691 153.514 5.65891C153.412 5.58525 153.285 5.50591 153.132 5.42091C152.984 5.33591 152.8 5.25941 152.579 5.19141C152.364 5.11775 152.097 5.08091 151.78 5.08091C151.355 5.08091 150.981 5.15741 150.658 5.31041C150.335 5.45775 150.063 5.67308 149.842 5.95641C149.627 6.23975 149.462 6.58258 149.349 6.98491C149.241 7.38725 149.188 7.83775 149.188 8.33641C149.188 8.85775 149.247 9.32241 149.366 9.73041C149.485 10.1327 149.652 10.4727 149.868 10.7504C150.089 11.0224 150.352 11.2321 150.658 11.3794C150.97 11.5211 151.318 11.5919 151.704 11.5919C152.072 11.5919 152.375 11.5494 152.613 11.4644C152.851 11.3737 153.047 11.2746 153.2 11.1669C153.358 11.0592 153.489 10.9629 153.591 10.8779C153.698 10.7872 153.803 10.7419 153.905 10.7419C154.03 10.7419 154.126 10.7901 154.194 10.8864L154.619 11.4389C154.432 11.6712 154.22 11.8696 153.982 12.0339C153.744 12.1982 153.486 12.3371 153.208 12.4504C152.936 12.5581 152.65 12.6374 152.35 12.6884C152.049 12.7394 151.743 12.7649 151.432 12.7649C150.893 12.7649 150.392 12.6657 149.927 12.4674C149.468 12.2691 149.069 11.9829 148.729 11.6089C148.389 11.2292 148.122 10.7646 147.93 10.2149C147.737 9.66525 147.641 9.03908 147.641 8.33641C147.641 7.69608 147.728 7.10391 147.904 6.55991C148.085 6.01591 148.346 5.54841 148.686 5.15741C149.032 4.76075 149.454 4.45191 149.953 4.23091C150.457 4.00991 151.035 3.89941 151.687 3.89941C152.293 3.89941 152.826 3.99858 153.285 4.19691C153.749 4.38958 154.16 4.66441 154.517 5.02141L154.118 5.56541Z" fill="#353945"/>
<path d="M143.854 11.7106C143.854 11.5633 143.879 11.4245 143.93 11.2941C143.987 11.1638 144.06 11.0505 144.151 10.9541C144.247 10.8578 144.361 10.7813 144.491 10.7246C144.621 10.668 144.76 10.6396 144.908 10.6396C145.055 10.6396 145.194 10.668 145.324 10.7246C145.454 10.7813 145.568 10.8578 145.664 10.9541C145.76 11.0505 145.837 11.1638 145.894 11.2941C145.95 11.4245 145.979 11.5633 145.979 11.7106C145.979 11.8636 145.95 12.0053 145.894 12.1356C145.837 12.2603 145.76 12.3708 145.664 12.4671C145.568 12.5635 145.454 12.6371 145.324 12.6881C145.194 12.7448 145.055 12.7731 144.908 12.7731C144.76 12.7731 144.621 12.7448 144.491 12.6881C144.361 12.6371 144.247 12.5635 144.151 12.4671C144.06 12.3708 143.987 12.2603 143.93 12.1356C143.879 12.0053 143.854 11.8636 143.854 11.7106Z" fill="#353945"/>
<path d="M141.656 0.125V12.6455H140.143V0.125H141.656Z" fill="#353945"/>
<path d="M137.606 4.03514V12.6456H136.093V4.03514H137.606ZM137.929 1.33214C137.929 1.47947 137.897 1.61831 137.835 1.74864C137.778 1.87331 137.699 1.98664 137.597 2.08864C137.501 2.18497 137.385 2.26147 137.249 2.31814C137.118 2.37481 136.979 2.40314 136.832 2.40314C136.685 2.40314 136.546 2.37481 136.416 2.31814C136.291 2.26147 136.18 2.18497 136.084 2.08864C135.988 1.98664 135.911 1.87331 135.855 1.74864C135.798 1.61831 135.77 1.47947 135.77 1.33214C135.77 1.18481 135.798 1.04597 135.855 0.91564C135.911 0.779641 135.988 0.663474 136.084 0.56714C136.18 0.465141 136.291 0.385807 136.416 0.32914C136.546 0.272474 136.685 0.244141 136.832 0.244141C136.979 0.244141 137.118 0.272474 137.249 0.32914C137.385 0.385807 137.501 0.465141 137.597 0.56714C137.699 0.663474 137.778 0.779641 137.835 0.91564C137.897 1.04597 137.929 1.18481 137.929 1.33214Z" fill="#353945"/>
<path d="M132.223 8.76934C131.526 8.792 130.931 8.84867 130.438 8.93934C129.95 9.02434 129.551 9.13767 129.239 9.27934C128.933 9.421 128.709 9.58817 128.568 9.78084C128.432 9.9735 128.364 10.1888 128.364 10.4268C128.364 10.6535 128.4 10.849 128.474 11.0133C128.548 11.1777 128.647 11.3137 128.772 11.4213C128.902 11.5233 129.052 11.5998 129.222 11.6508C129.398 11.6962 129.585 11.7188 129.783 11.7188C130.049 11.7188 130.293 11.6933 130.514 11.6423C130.735 11.5857 130.942 11.5063 131.135 11.4043C131.333 11.3023 131.52 11.1805 131.696 11.0388C131.877 10.8972 132.053 10.7357 132.223 10.5543V8.76934ZM127.335 5.25034C127.811 4.79134 128.324 4.4485 128.874 4.22184C129.423 3.99517 130.032 3.88184 130.701 3.88184C131.183 3.88184 131.611 3.96117 131.985 4.11984C132.359 4.2785 132.673 4.4995 132.928 4.78284C133.183 5.06617 133.376 5.409 133.506 5.81134C133.636 6.21367 133.702 6.65567 133.702 7.13734V12.6453H133.03C132.883 12.6453 132.769 12.6227 132.69 12.5773C132.611 12.5263 132.548 12.43 132.503 12.2883L132.333 11.4723C132.106 11.682 131.885 11.869 131.67 12.0333C131.455 12.192 131.228 12.328 130.99 12.4413C130.752 12.549 130.497 12.6312 130.225 12.6878C129.959 12.7502 129.661 12.7813 129.333 12.7813C128.998 12.7813 128.684 12.736 128.389 12.6453C128.094 12.549 127.837 12.4073 127.616 12.2203C127.4 12.0333 127.227 11.7982 127.097 11.5148C126.972 11.2258 126.91 10.8858 126.91 10.4948C126.91 10.1548 127.004 9.829 127.191 9.51734C127.378 9.2 127.681 8.9195 128.1 8.67584C128.519 8.43217 129.066 8.23384 129.741 8.08084C130.415 7.92217 131.242 7.8315 132.223 7.80884V7.13734C132.223 6.46867 132.078 5.96434 131.789 5.62434C131.5 5.27867 131.078 5.10584 130.523 5.10584C130.149 5.10584 129.834 5.154 129.579 5.25034C129.33 5.341 129.112 5.44584 128.925 5.56484C128.743 5.67817 128.585 5.783 128.449 5.87934C128.318 5.97 128.188 6.01534 128.058 6.01534C127.956 6.01534 127.868 5.98984 127.794 5.93884C127.72 5.88217 127.658 5.81417 127.607 5.73484L127.335 5.25034Z" fill="#353945"/>
<path d="M113.578 12.6459V4.03541H114.488C114.703 4.03541 114.836 4.14025 114.887 4.34991L114.998 5.23391C115.315 4.84291 115.672 4.52275 116.069 4.27341C116.465 4.02408 116.924 3.89941 117.446 3.89941C118.024 3.89941 118.491 4.06091 118.848 4.38391C119.211 4.70691 119.471 5.14325 119.63 5.69291C119.755 5.38125 119.913 5.11208 120.106 4.88541C120.304 4.65875 120.525 4.47175 120.769 4.32441C121.013 4.17708 121.271 4.06941 121.543 4.00141C121.82 3.93341 122.101 3.89941 122.384 3.89941C122.837 3.89941 123.24 3.97308 123.591 4.12041C123.948 4.26208 124.248 4.47175 124.492 4.74941C124.741 5.02708 124.931 5.36991 125.062 5.77791C125.192 6.18025 125.257 6.64208 125.257 7.16341V12.6459H123.736V7.16341C123.736 6.48908 123.588 5.97908 123.294 5.63341C122.999 5.28208 122.574 5.10641 122.019 5.10641C121.769 5.10641 121.531 5.15175 121.305 5.24241C121.084 5.32741 120.888 5.45491 120.718 5.62491C120.548 5.79491 120.412 6.01025 120.31 6.27091C120.214 6.52591 120.166 6.82341 120.166 7.16341V12.6459H118.644V7.16341C118.644 6.47208 118.505 5.95641 118.228 5.61641C117.95 5.27641 117.545 5.10641 117.012 5.10641C116.638 5.10641 116.292 5.20841 115.975 5.41241C115.658 5.61075 115.366 5.88275 115.1 6.22841V12.6459H113.578Z" fill="#353945"/>
<path d="M107.746 8.43813C108.052 8.43813 108.321 8.39563 108.554 8.31063C108.786 8.22563 108.982 8.10663 109.14 7.95363C109.299 7.80063 109.418 7.61929 109.497 7.40963C109.577 7.19429 109.616 6.95913 109.616 6.70413C109.616 6.17713 109.455 5.75779 109.132 5.44613C108.814 5.13446 108.353 4.97863 107.746 4.97863C107.134 4.97863 106.667 5.13446 106.344 5.44613C106.026 5.75779 105.868 6.17713 105.868 6.70413C105.868 6.95913 105.907 7.19429 105.987 7.40963C106.072 7.61929 106.194 7.80063 106.352 7.95363C106.511 8.10663 106.706 8.22563 106.939 8.31063C107.171 8.39563 107.44 8.43813 107.746 8.43813ZM110.475 13.1131C110.475 12.9035 110.415 12.7335 110.296 12.6031C110.177 12.4728 110.016 12.3708 109.812 12.2971C109.613 12.2235 109.381 12.1725 109.115 12.1441C108.848 12.1101 108.565 12.0846 108.265 12.0676C107.97 12.0506 107.67 12.0336 107.364 12.0166C107.058 11.9996 106.763 11.9713 106.48 11.9316C106.162 12.079 105.902 12.266 105.698 12.4926C105.499 12.7136 105.4 12.9743 105.4 13.2746C105.4 13.4673 105.448 13.6458 105.545 13.8101C105.647 13.9801 105.8 14.1246 106.004 14.2436C106.208 14.3683 106.463 14.4646 106.769 14.5326C107.08 14.6063 107.446 14.6431 107.865 14.6431C108.273 14.6431 108.639 14.6063 108.962 14.5326C109.285 14.459 109.557 14.3541 109.778 14.2181C110.004 14.0821 110.177 13.9206 110.296 13.7336C110.415 13.5466 110.475 13.3398 110.475 13.1131ZM112.013 4.37513V4.93613C112.013 5.12313 111.894 5.24213 111.656 5.29313L110.679 5.42063C110.871 5.79463 110.968 6.20829 110.968 6.66163C110.968 7.08096 110.886 7.46346 110.721 7.80913C110.563 8.14913 110.342 8.44096 110.058 8.68463C109.775 8.92829 109.435 9.11529 109.038 9.24563C108.642 9.37596 108.211 9.44113 107.746 9.44113C107.344 9.44113 106.964 9.39296 106.607 9.29663C106.426 9.40996 106.287 9.53179 106.191 9.66213C106.094 9.78679 106.046 9.91429 106.046 10.0446C106.046 10.2486 106.128 10.4045 106.293 10.5121C106.463 10.6141 106.684 10.6878 106.956 10.7331C107.228 10.7785 107.537 10.8068 107.882 10.8181C108.234 10.8295 108.591 10.8493 108.953 10.8776C109.322 10.9003 109.679 10.9428 110.024 11.0051C110.376 11.0675 110.687 11.1695 110.959 11.3111C111.231 11.4528 111.449 11.6483 111.614 11.8976C111.784 12.147 111.869 12.47 111.869 12.8666C111.869 13.235 111.775 13.592 111.588 13.9376C111.407 14.2833 111.143 14.5893 110.798 14.8556C110.452 15.1276 110.027 15.343 109.523 15.5016C109.024 15.666 108.46 15.7481 107.831 15.7481C107.202 15.7481 106.653 15.6858 106.182 15.5611C105.712 15.4365 105.321 15.2693 105.009 15.0596C104.698 14.85 104.462 14.6063 104.304 14.3286C104.151 14.0566 104.074 13.7705 104.074 13.4701C104.074 13.0451 104.207 12.6853 104.474 12.3906C104.74 12.096 105.106 11.8608 105.57 11.6851C105.315 11.5718 105.111 11.4216 104.958 11.2346C104.811 11.042 104.737 10.7841 104.737 10.4611C104.737 10.3365 104.76 10.209 104.805 10.0786C104.851 9.94263 104.919 9.80946 105.009 9.67913C105.106 9.54313 105.222 9.41563 105.358 9.29663C105.494 9.17763 105.652 9.07279 105.834 8.98213C105.409 8.74413 105.077 8.42963 104.839 8.03863C104.601 7.64196 104.482 7.18296 104.482 6.66163C104.482 6.24229 104.562 5.86263 104.72 5.52263C104.885 5.17696 105.111 4.88513 105.4 4.64713C105.689 4.40346 106.032 4.21646 106.429 4.08613C106.831 3.95579 107.27 3.89062 107.746 3.89062C108.12 3.89062 108.469 3.93313 108.792 4.01813C109.115 4.09746 109.409 4.21646 109.676 4.37513H112.013Z" fill="#353945"/>
<path d="M98.2886 5.65825C98.0676 5.60725 97.8239 5.58175 97.5576 5.58175C97.1326 5.58175 96.7416 5.67242 96.3846 5.85375C96.0332 6.02942 95.7301 6.26175 95.4751 6.55075C95.2201 6.83975 95.0189 7.17125 94.8716 7.54525C94.7299 7.91925 94.6591 8.30175 94.6591 8.69275C94.6591 9.10075 94.7526 9.42942 94.9396 9.67875C95.1266 9.92242 95.4042 10.0443 95.7726 10.0443C95.9482 10.0443 96.1239 10.0159 96.2996 9.95925C96.4809 9.90258 96.6537 9.80342 96.8181 9.66175C96.9881 9.52008 97.1439 9.32742 97.2856 9.08375C97.4272 8.84008 97.5462 8.53408 97.6426 8.16575L98.2886 5.65825ZM98.8156 8.02975C98.7022 8.46042 98.6484 8.81175 98.6541 9.08375C98.6597 9.35008 98.7022 9.55975 98.7816 9.71275C98.8666 9.86575 98.9827 9.97058 99.1301 10.0273C99.2774 10.0783 99.4389 10.1038 99.6146 10.1038C99.8922 10.1038 100.156 10.0244 100.405 9.86575C100.654 9.70708 100.873 9.48325 101.06 9.19425C101.252 8.90525 101.402 8.55958 101.51 8.15725C101.623 7.74925 101.68 7.29875 101.68 6.80575C101.68 6.02375 101.555 5.33808 101.306 4.74875C101.057 4.15942 100.711 3.66925 100.269 3.27825C99.8327 2.88158 99.3142 2.58692 98.7136 2.39425C98.1186 2.19592 97.4754 2.09675 96.7841 2.09675C96.0247 2.09675 95.3136 2.24125 94.6506 2.53025C93.9876 2.81925 93.4096 3.21875 92.9166 3.72875C92.4236 4.23875 92.0326 4.84225 91.7436 5.53925C91.4602 6.23625 91.3186 6.99558 91.3186 7.81725C91.3186 8.78058 91.4687 9.62775 91.7691 10.3587C92.0751 11.0841 92.4887 11.6933 93.0101 12.1863C93.5371 12.6793 94.1547 13.0504 94.8631 13.2998C95.5714 13.5491 96.3307 13.6737 97.1411 13.6737C98.0024 13.6737 98.7617 13.5802 99.4191 13.3932C100.082 13.2062 100.654 12.9683 101.136 12.6793C101.249 12.6113 101.349 12.5914 101.434 12.6198C101.519 12.6424 101.581 12.7048 101.621 12.8068L101.842 13.3678C101.23 13.7758 100.535 14.0959 99.7591 14.3283C98.9884 14.5606 98.1157 14.6768 97.1411 14.6768C96.1551 14.6768 95.2399 14.5209 94.3956 14.2092C93.5512 13.8976 92.8174 13.4471 92.1941 12.8577C91.5764 12.2741 91.0891 11.5573 90.7321 10.7073C90.3807 9.85725 90.2051 8.89392 90.2051 7.81725C90.2051 7.19958 90.2816 6.60458 90.4346 6.03225C90.5932 5.45992 90.8142 4.92725 91.0976 4.43425C91.3809 3.93558 91.7209 3.48225 92.1176 3.07425C92.5142 2.66058 92.9562 2.30925 93.4436 2.02025C93.9309 1.72558 94.4551 1.49892 95.0161 1.34025C95.5827 1.17592 96.1721 1.09375 96.7841 1.09375C97.3054 1.09375 97.8154 1.15042 98.3141 1.26375C98.8127 1.37708 99.2831 1.54425 99.7251 1.76525C100.173 1.98625 100.581 2.26108 100.949 2.58975C101.323 2.91275 101.646 3.28675 101.918 3.71175C102.19 4.13108 102.4 4.60142 102.547 5.12275C102.7 5.63842 102.777 6.19942 102.777 6.80575C102.777 7.41775 102.689 7.98442 102.513 8.50575C102.343 9.02142 102.105 9.46908 101.799 9.84875C101.499 10.2284 101.142 10.5259 100.728 10.7413C100.314 10.9566 99.8696 11.0643 99.3936 11.0643C98.9629 11.0643 98.6059 10.9594 98.3226 10.7498C98.0449 10.5344 97.8664 10.2086 97.7871 9.77225C97.4641 10.2256 97.1099 10.5514 96.7246 10.7498C96.3392 10.9481 95.9227 11.0473 95.4751 11.0473C95.1407 11.0473 94.8461 10.9906 94.5911 10.8773C94.3417 10.7583 94.1349 10.5967 93.9706 10.3927C93.8062 10.1831 93.6816 9.93658 93.5966 9.65325C93.5172 9.36992 93.4776 9.06392 93.4776 8.73525C93.4776 8.25358 93.5682 7.76908 93.7496 7.28175C93.9366 6.78875 94.2114 6.34675 94.5741 5.95575C94.9367 5.55908 95.3872 5.23608 95.9256 4.98675C96.4639 4.73742 97.0872 4.61275 97.7956 4.61275C98.1752 4.61275 98.5096 4.64392 98.7986 4.70625C99.0876 4.76292 99.3596 4.84792 99.6146 4.96125L98.8156 8.02975Z" fill="#353945"/>
<path d="M88.1125 11.4895V12.6455H81.5845V11.4895H84.194V3.18495C84.194 2.93562 84.2025 2.68345 84.2195 2.42845L82.052 4.28995C81.9784 4.35229 81.9047 4.39195 81.831 4.40895C81.7573 4.42029 81.6894 4.42029 81.627 4.40895C81.5647 4.39762 81.5052 4.37495 81.4485 4.34095C81.3975 4.30695 81.3579 4.27012 81.3295 4.23045L80.8535 3.57595L84.483 0.439453H85.7155V11.4895H88.1125Z" fill="#353945"/>
<path d="M77.987 11.2091C78.1513 11.2091 78.2816 11.2573 78.378 11.3536C78.4743 11.4499 78.5225 11.5746 78.5225 11.7276V12.6456H70.3965V12.1271C70.3965 12.0194 70.4191 11.9089 70.4645 11.7956C70.5098 11.6823 70.5806 11.5774 70.677 11.4811L74.5785 7.5626C74.9015 7.23394 75.1961 6.91944 75.4625 6.6191C75.7288 6.3131 75.9555 6.0071 76.1425 5.7011C76.3295 5.3951 76.474 5.08627 76.576 4.7746C76.678 4.45727 76.729 4.1201 76.729 3.7631C76.729 3.4061 76.6723 3.09444 76.559 2.8281C76.4456 2.5561 76.2898 2.33227 76.0915 2.1566C75.8988 1.98094 75.6693 1.8506 75.403 1.7656C75.1367 1.67494 74.8505 1.6296 74.5445 1.6296C74.2328 1.6296 73.9466 1.67494 73.686 1.7656C73.4253 1.85627 73.193 1.98377 72.989 2.1481C72.7906 2.30677 72.6235 2.4966 72.4875 2.7176C72.3515 2.9386 72.2551 3.18227 72.1985 3.4486C72.1305 3.64694 72.037 3.7801 71.918 3.8481C71.8047 3.91044 71.6431 3.92744 71.4335 3.8991L70.643 3.7631C70.7223 3.20777 70.8753 2.7176 71.102 2.2926C71.3343 1.86194 71.6233 1.5021 71.969 1.2131C72.3203 0.924102 72.7198 0.705936 73.1675 0.558602C73.6151 0.405602 74.0996 0.329102 74.621 0.329102C75.1366 0.329102 75.6183 0.405602 76.066 0.558602C76.5136 0.711602 76.9018 0.935435 77.2305 1.2301C77.5592 1.5191 77.817 1.87327 78.004 2.2926C78.191 2.71194 78.2845 3.18794 78.2845 3.7206C78.2845 4.17394 78.2165 4.5961 78.0805 4.9871C77.9445 5.37244 77.7603 5.74077 77.528 6.0921C77.2957 6.44344 77.0265 6.78627 76.7205 7.1206C76.4201 7.45494 76.1 7.7921 75.76 8.1321L72.547 11.4131C72.7736 11.3508 73.0031 11.3026 73.2355 11.2686C73.4678 11.2289 73.6916 11.2091 73.907 11.2091H77.987Z" fill="#353945"/>
<path d="M68.3899 11.4895V12.6455H61.8619V11.4895H64.4714V3.18495C64.4714 2.93562 64.4799 2.68345 64.4969 2.42845L62.3294 4.28995C62.2557 4.35229 62.182 4.39195 62.1084 4.40895C62.0347 4.42029 61.9667 4.42029 61.9044 4.40895C61.842 4.39762 61.7825 4.37495 61.7259 4.34095C61.6749 4.30695 61.6352 4.27012 61.6069 4.23045L61.1309 3.57595L64.7604 0.439453H65.9929V11.4895H68.3899Z" fill="#353945"/>
<path d="M57.1504 8.76934C56.4534 8.792 55.8584 8.84867 55.3654 8.93934C54.8781 9.02434 54.4786 9.13767 54.1669 9.27934C53.8609 9.421 53.6371 9.58817 53.4954 9.78084C53.3594 9.9735 53.2914 10.1888 53.2914 10.4268C53.2914 10.6535 53.3282 10.849 53.4019 11.0133C53.4756 11.1777 53.5747 11.3137 53.6994 11.4213C53.8297 11.5233 53.9799 11.5998 54.1499 11.6508C54.3256 11.6962 54.5126 11.7188 54.7109 11.7188C54.9772 11.7188 55.2209 11.6933 55.4419 11.6423C55.6629 11.5857 55.8697 11.5063 56.0624 11.4043C56.2607 11.3023 56.4477 11.1805 56.6234 11.0388C56.8047 10.8972 56.9804 10.7357 57.1504 10.5543V8.76934ZM52.2629 5.25034C52.7389 4.79134 53.2517 4.4485 53.8014 4.22184C54.3511 3.99517 54.9602 3.88184 55.6289 3.88184C56.1106 3.88184 56.5384 3.96117 56.9124 4.11984C57.2864 4.2785 57.6009 4.4995 57.8559 4.78284C58.1109 5.06617 58.3036 5.409 58.4339 5.81134C58.5642 6.21367 58.6294 6.65567 58.6294 7.13734V12.6453H57.9579C57.8106 12.6453 57.6972 12.6227 57.6179 12.5773C57.5386 12.5263 57.4762 12.43 57.4309 12.2883L57.2609 11.4723C57.0342 11.682 56.8132 11.869 56.5979 12.0333C56.3826 12.192 56.1559 12.328 55.9179 12.4413C55.6799 12.549 55.4249 12.6312 55.1529 12.6878C54.8866 12.7502 54.5891 12.7813 54.2604 12.7813C53.9261 12.7813 53.6116 12.736 53.3169 12.6453C53.0222 12.549 52.7644 12.4073 52.5434 12.2203C52.3281 12.0333 52.1552 11.7982 52.0249 11.5148C51.9002 11.2258 51.8379 10.8858 51.8379 10.4948C51.8379 10.1548 51.9314 9.829 52.1184 9.51734C52.3054 9.2 52.6086 8.9195 53.0279 8.67584C53.4472 8.43217 53.9941 8.23384 54.6684 8.08084C55.3427 7.92217 56.1701 7.8315 57.1504 7.80884V7.13734C57.1504 6.46867 57.0059 5.96434 56.7169 5.62434C56.4279 5.27867 56.0057 5.10584 55.4504 5.10584C55.0764 5.10584 54.7619 5.154 54.5069 5.25034C54.2576 5.341 54.0394 5.44584 53.8524 5.56484C53.6711 5.67817 53.5124 5.783 53.3764 5.87934C53.2461 5.97 53.1157 6.01534 52.9854 6.01534C52.8834 6.01534 52.7956 5.98984 52.7219 5.93884C52.6482 5.88217 52.5859 5.81417 52.5349 5.73484L52.2629 5.25034Z" fill="#353945"/>
<path d="M51.3142 4.03516L46.5117 15.1872C46.4607 15.3005 46.3956 15.3912 46.3162 15.4592C46.2426 15.5272 46.1264 15.5612 45.9677 15.5612H44.8457L46.4182 12.1442L42.8652 4.03516H44.1742C44.3046 4.03516 44.4066 4.06916 44.4802 4.13716C44.5596 4.19949 44.6134 4.27032 44.6417 4.34966L46.9452 9.77266C47.0359 10.0107 47.1124 10.26 47.1747 10.5207C47.2541 10.2543 47.3391 10.0022 47.4297 9.76416L49.6652 4.34966C49.6992 4.25899 49.7559 4.18532 49.8352 4.12866C49.9202 4.06632 50.0137 4.03516 50.1157 4.03516H51.3142Z" fill="#353945"/>
<path d="M36.1426 5.1825C36.5109 4.7915 36.9189 4.47983 37.3666 4.2475C37.8143 4.01517 38.3299 3.899 38.9136 3.899C39.3839 3.899 39.7976 3.97833 40.1546 4.137C40.5173 4.29 40.8176 4.511 41.0556 4.8C41.2993 5.08333 41.4834 5.42617 41.6081 5.8285C41.7328 6.23083 41.7951 6.67567 41.7951 7.163V12.6455H40.2736V7.163C40.2736 6.51133 40.1234 6.007 39.8231 5.65C39.5284 5.28733 39.0779 5.106 38.4716 5.106C38.0239 5.106 37.6046 5.21367 37.2136 5.429C36.8283 5.64433 36.4713 5.93617 36.1426 6.3045V12.6455H34.6211V0.125H36.1426V5.1825Z" fill="#353945"/>
<path d="M30.7181 6.0835C30.4348 5.70383 30.1288 5.44033 29.8001 5.293C29.4715 5.14 29.1031 5.0635 28.6951 5.0635C27.8961 5.0635 27.2813 5.34967 26.8506 5.922C26.42 6.49433 26.2046 7.31033 26.2046 8.37C26.2046 8.931 26.2528 9.41267 26.3491 9.815C26.4455 10.2117 26.5871 10.5403 26.7741 10.801C26.9611 11.056 27.1906 11.243 27.4626 11.362C27.7346 11.481 28.0435 11.5405 28.3891 11.5405C28.8878 11.5405 29.3213 11.4272 29.6896 11.2005C30.0636 10.9738 30.4065 10.6537 30.7181 10.24V6.0835ZM32.2311 0.125V12.6455H31.3301C31.1148 12.6455 30.9788 12.5407 30.9221 12.331L30.7861 11.2855C30.4178 11.7275 29.9985 12.0845 29.5281 12.3565C29.0578 12.6285 28.5138 12.7645 27.8961 12.7645C27.4031 12.7645 26.9555 12.671 26.5531 12.484C26.1508 12.2913 25.808 12.0108 25.5246 11.6425C25.2413 11.2742 25.0231 10.8152 24.8701 10.2655C24.7171 9.71583 24.6406 9.084 24.6406 8.37C24.6406 7.73533 24.7256 7.146 24.8956 6.602C25.0656 6.05233 25.3093 5.57633 25.6266 5.174C25.944 4.77167 26.3321 4.45717 26.7911 4.2305C27.2558 3.99817 27.7771 3.882 28.3551 3.882C28.8821 3.882 29.3326 3.97267 29.7066 4.154C30.0863 4.32967 30.4235 4.57617 30.7181 4.8935V0.125H32.2311Z" fill="#353945"/>
<path d="M22.5982 12.6453H20.9492V0.464844H22.5982V12.6453Z" fill="#353945"/>
<path d="M15.9144 8.12334L14.0019 3.16784C13.9452 3.02051 13.8857 2.85051 13.8234 2.65784C13.7611 2.45951 13.7016 2.24984 13.6449 2.02884C13.5259 2.48784 13.4041 2.87034 13.2794 3.17634L11.3669 8.12334H15.9144ZM19.3484 12.6453H18.0734C17.9261 12.6453 17.8071 12.6085 17.7164 12.5348C17.6257 12.4612 17.5577 12.3677 17.5124 12.2543L16.3734 9.31334H10.9079L9.76891 12.2543C9.73491 12.3563 9.66974 12.447 9.57341 12.5263C9.47707 12.6057 9.35807 12.6453 9.21641 12.6453H7.94141L12.8119 0.464844H14.4779L19.3484 12.6453Z" fill="#353945"/>
<path d="M8.381 4.03516L4.8705 12.6457H3.5105L0 4.03516H1.2325C1.35717 4.03516 1.45917 4.06632 1.5385 4.12866C1.61783 4.19099 1.67167 4.26466 1.7 4.34966L3.8845 9.89166C3.9525 10.1013 4.012 10.3053 4.063 10.5037C4.114 10.702 4.16217 10.9003 4.2075 11.0987C4.25283 10.9003 4.301 10.702 4.352 10.5037C4.403 10.3053 4.46533 10.1013 4.539 9.89166L6.749 4.34966C6.783 4.25899 6.83967 4.18532 6.919 4.12866C6.99833 4.06632 7.09183 4.03516 7.1995 4.03516H8.381Z" fill="#353945"/>
</svg>
