<svg width="270" height="46" viewBox="0 0 270 46" fill="none" xmlns="http://www.w3.org/2000/svg">
<path d="M229.959 35.4348V11.6268H235.383L235.911 14.8428C236.679 13.6908 237.687 12.7788 238.935 12.1068C240.215 11.4028 241.687 11.0508 243.351 11.0508C247.031 11.0508 249.639 12.4748 251.175 15.3228C252.039 14.0108 253.191 12.9708 254.631 12.2028C256.103 11.4348 257.703 11.0508 259.431 11.0508C262.535 11.0508 264.919 11.9788 266.583 13.8348C268.247 15.6908 269.079 18.4108 269.079 21.9948V35.4348H262.935V22.5708C262.935 20.5228 262.535 18.9548 261.735 17.8668C260.967 16.7788 259.767 16.2348 258.135 16.2348C256.471 16.2348 255.127 16.8428 254.103 18.0588C253.111 19.2748 252.615 20.9708 252.615 23.1468V35.4348H246.471V22.5708C246.471 20.5228 246.071 18.9548 245.271 17.8668C244.471 16.7788 243.239 16.2348 241.575 16.2348C239.943 16.2348 238.615 16.8428 237.591 18.0588C236.599 19.2748 236.103 20.9708 236.103 23.1468V35.4348H229.959Z" fill="#23262F"/>
<path d="M211.889 35.4348V11.6268H217.361L217.937 16.0908C218.801 14.5548 219.969 13.3388 221.441 12.4428C222.945 11.5148 224.705 11.0508 226.721 11.0508V17.5308H224.993C223.649 17.5308 222.449 17.7388 221.393 18.1548C220.337 18.5708 219.505 19.2908 218.897 20.3148C218.321 21.3388 218.033 22.7628 218.033 24.5868V35.4348H211.889Z" fill="#23262F"/>
<path d="M195.163 36.0108C192.859 36.0108 190.779 35.4828 188.923 34.4268C187.099 33.3708 185.643 31.9148 184.555 30.0588C183.499 28.1708 182.971 25.9948 182.971 23.5308C182.971 21.0668 183.515 18.9068 184.603 17.0508C185.691 15.1628 187.147 13.6908 188.971 12.6348C190.827 11.5788 192.907 11.0508 195.211 11.0508C197.483 11.0508 199.531 11.5788 201.355 12.6348C203.211 13.6908 204.667 15.1628 205.723 17.0508C206.811 18.9068 207.355 21.0668 207.355 23.5308C207.355 25.9948 206.811 28.1708 205.723 30.0588C204.667 31.9148 203.211 33.3708 201.355 34.4268C199.499 35.4828 197.435 36.0108 195.163 36.0108ZM195.163 30.6828C196.763 30.6828 198.155 30.0908 199.339 28.9068C200.523 27.6908 201.115 25.8988 201.115 23.5308C201.115 21.1628 200.523 19.3868 199.339 18.2028C198.155 16.9868 196.779 16.3788 195.211 16.3788C193.579 16.3788 192.171 16.9868 190.987 18.2028C189.835 19.3868 189.259 21.1628 189.259 23.5308C189.259 25.8988 189.835 27.6908 190.987 28.9068C192.171 30.0908 193.563 30.6828 195.163 30.6828Z" fill="#23262F"/>
<path d="M159.67 35.435V1.83496H181.366V6.77896H165.814V16.187H178.39V21.035H165.814V35.435H159.67Z" fill="#23262F"/>
<path d="M130.979 35.4348V11.6268H136.451L137.027 16.0908C137.891 14.5548 139.059 13.3388 140.531 12.4428C142.035 11.5148 143.795 11.0508 145.811 11.0508V17.5308H144.083C142.739 17.5308 141.539 17.7388 140.483 18.1548C139.427 18.5708 138.595 19.2908 137.987 20.3148C137.411 21.3388 137.123 22.7628 137.123 24.5868V35.4348H130.979Z" fill="#23262F"/>
<path d="M114.818 36.0108C112.418 36.0108 110.29 35.4988 108.434 34.4748C106.578 33.4508 105.122 32.0108 104.066 30.1548C103.01 28.2988 102.482 26.1548 102.482 23.7228C102.482 21.2588 102.994 19.0668 104.018 17.1468C105.074 15.2268 106.514 13.7388 108.338 12.6828C110.194 11.5948 112.37 11.0508 114.866 11.0508C117.202 11.0508 119.266 11.5628 121.058 12.5868C122.85 13.6108 124.242 15.0188 125.234 16.8108C126.258 18.5708 126.77 20.5388 126.77 22.7148C126.77 23.0668 126.754 23.4348 126.722 23.8188C126.722 24.2028 126.706 24.6028 126.674 25.0188H108.578C108.706 26.8748 109.346 28.3308 110.498 29.3868C111.682 30.4428 113.106 30.9708 114.77 30.9708C116.018 30.9708 117.058 30.6988 117.89 30.1548C118.754 29.5788 119.394 28.8428 119.81 27.9468H126.05C125.602 29.4508 124.85 30.8268 123.794 32.0748C122.77 33.2908 121.49 34.2508 119.954 34.9548C118.45 35.6588 116.738 36.0108 114.818 36.0108ZM114.866 16.0428C113.362 16.0428 112.034 16.4748 110.882 17.3388C109.73 18.1708 108.994 19.4508 108.674 21.1788H120.53C120.434 19.6108 119.858 18.3628 118.802 17.4348C117.746 16.5068 116.434 16.0428 114.866 16.0428Z" fill="#23262F"/>
<path d="M72.8984 45.9948V11.6268H78.3704L79.0424 15.0348C79.8104 13.9788 80.8184 13.0508 82.0664 12.2508C83.3464 11.4508 84.9944 11.0508 87.0104 11.0508C89.2504 11.0508 91.2504 11.5948 93.0104 12.6828C94.7704 13.7708 96.1624 15.2588 97.1864 17.1468C98.2104 19.0348 98.7224 21.1788 98.7224 23.5788C98.7224 25.9788 98.2104 28.1228 97.1864 30.0108C96.1624 31.8668 94.7704 33.3388 93.0104 34.4268C91.2504 35.4828 89.2504 36.0108 87.0104 36.0108C85.2184 36.0108 83.6504 35.6748 82.3064 35.0028C80.9624 34.3308 79.8744 33.3868 79.0424 32.1708V45.9948H72.8984ZM85.7144 30.6348C87.6664 30.6348 89.2824 29.9788 90.5624 28.6668C91.8424 27.3548 92.4824 25.6588 92.4824 23.5788C92.4824 21.4988 91.8424 19.7868 90.5624 18.4428C89.2824 17.0988 87.6664 16.4268 85.7144 16.4268C83.7304 16.4268 82.0984 17.0988 80.8184 18.4428C79.5704 19.7548 78.9464 21.4508 78.9464 23.5308C78.9464 25.6108 79.5704 27.3228 80.8184 28.6668C82.0984 29.9788 83.7304 30.6348 85.7144 30.6348Z" fill="#23262F"/>
<path d="M61.4355 35.435V0.875H67.5795V35.435H61.4355Z" fill="#23262F"/>
<path d="M45.2774 36.0108C42.8774 36.0108 40.7494 35.4988 38.8934 34.4748C37.0374 33.4508 35.5814 32.0108 34.5254 30.1548C33.4694 28.2988 32.9414 26.1548 32.9414 23.7228C32.9414 21.2588 33.4534 19.0668 34.4774 17.1468C35.5334 15.2268 36.9734 13.7388 38.7974 12.6828C40.6534 11.5948 42.8294 11.0508 45.3254 11.0508C47.6614 11.0508 49.7254 11.5628 51.5174 12.5868C53.3094 13.6108 54.7014 15.0188 55.6934 16.8108C56.7174 18.5708 57.2294 20.5388 57.2294 22.7148C57.2294 23.0668 57.2134 23.4348 57.1814 23.8188C57.1814 24.2028 57.1654 24.6028 57.1334 25.0188H39.0374C39.1654 26.8748 39.8054 28.3308 40.9574 29.3868C42.1414 30.4428 43.5654 30.9708 45.2294 30.9708C46.4774 30.9708 47.5174 30.6988 48.3494 30.1548C49.2134 29.5788 49.8534 28.8428 50.2694 27.9468H56.5094C56.0614 29.4508 55.3094 30.8268 54.2534 32.0748C53.2294 33.2908 51.9494 34.2508 50.4134 34.9548C48.9094 35.6588 47.1974 36.0108 45.2774 36.0108ZM45.3254 16.0428C43.8214 16.0428 42.4934 16.4748 41.3414 17.3388C40.1894 18.1708 39.4534 19.4508 39.1334 21.1788H50.9894C50.8934 19.6108 50.3174 18.3628 49.2614 17.4348C48.2054 16.5068 46.8934 16.0428 45.3254 16.0428Z" fill="#23262F"/>
<path d="M0.921875 35.435V1.83496H7.06588V15.803H22.1379V1.83496H28.2819V35.435H22.1379V20.795H7.06588V35.435H0.921875Z" fill="#23262F"/>
</svg>
