<svg width="270" height="46" viewBox="0 0 270 46" fill="none" xmlns="http://www.w3.org/2000/svg">
<path d="M229.959 35.4348V11.6268H235.383L235.911 14.8428C236.679 13.6908 237.687 12.7788 238.935 12.1068C240.215 11.4028 241.687 11.0508 243.351 11.0508C247.031 11.0508 249.639 12.4748 251.175 15.3228C252.039 14.0108 253.191 12.9708 254.631 12.2028C256.103 11.4348 257.703 11.0508 259.431 11.0508C262.535 11.0508 264.919 11.9788 266.583 13.8348C268.247 15.6908 269.079 18.4108 269.079 21.9948V35.4348H262.935V22.5708C262.935 20.5228 262.535 18.9548 261.735 17.8668C260.967 16.7788 259.767 16.2348 258.135 16.2348C256.471 16.2348 255.127 16.8428 254.103 18.0588C253.111 19.2748 252.615 20.9708 252.615 23.1468V35.4348H246.471V22.5708C246.471 20.5228 246.071 18.9548 245.271 17.8668C244.471 16.7788 243.239 16.2348 241.575 16.2348C239.943 16.2348 238.615 16.8428 237.591 18.0588C236.599 19.2748 236.103 20.9708 236.103 23.1468V35.4348H229.959Z" fill="#23262F"/>
<path d="M211.888 35.4348V11.6268H217.36L217.936 16.0908C218.8 14.5548 219.968 13.3388 221.44 12.4428C222.944 11.5148 224.704 11.0508 226.72 11.0508V17.5308H224.992C223.648 17.5308 222.448 17.7388 221.392 18.1548C220.336 18.5708 219.504 19.2908 218.896 20.3148C218.32 21.3388 218.032 22.7628 218.032 24.5868V35.4348H211.888Z" fill="#23262F"/>
<path d="M195.163 36.0108C192.859 36.0108 190.779 35.4828 188.923 34.4268C187.099 33.3708 185.643 31.9148 184.555 30.0588C183.499 28.1708 182.971 25.9948 182.971 23.5308C182.971 21.0668 183.515 18.9068 184.603 17.0508C185.691 15.1628 187.147 13.6908 188.971 12.6348C190.827 11.5788 192.907 11.0508 195.211 11.0508C197.483 11.0508 199.531 11.5788 201.355 12.6348C203.211 13.6908 204.667 15.1628 205.723 17.0508C206.811 18.9068 207.355 21.0668 207.355 23.5308C207.355 25.9948 206.811 28.1708 205.723 30.0588C204.667 31.9148 203.211 33.3708 201.355 34.4268C199.499 35.4828 197.435 36.0108 195.163 36.0108ZM195.163 30.6828C196.763 30.6828 198.155 30.0908 199.339 28.9068C200.523 27.6908 201.115 25.8988 201.115 23.5308C201.115 21.1628 200.523 19.3868 199.339 18.2028C198.155 16.9868 196.779 16.3788 195.211 16.3788C193.579 16.3788 192.171 16.9868 190.987 18.2028C189.835 19.3868 189.259 21.1628 189.259 23.5308C189.259 25.8988 189.835 27.6908 190.987 28.9068C192.171 30.0908 193.563 30.6828 195.163 30.6828Z" fill="#23262F"/>
<path d="M159.671 35.435V1.83496H181.367V6.77896H165.815V16.187H178.391V21.035H165.815V35.435H159.671Z" fill="#23262F"/>
<path d="M130.978 35.4348V11.6268H136.45L137.026 16.0908C137.89 14.5548 139.058 13.3388 140.53 12.4428C142.034 11.5148 143.794 11.0508 145.81 11.0508V17.5308H144.082C142.738 17.5308 141.538 17.7388 140.482 18.1548C139.426 18.5708 138.594 19.2908 137.986 20.3148C137.41 21.3388 137.122 22.7628 137.122 24.5868V35.4348H130.978Z" fill="#23262F"/>
<path d="M114.818 36.0108C112.418 36.0108 110.29 35.4988 108.434 34.4748C106.578 33.4508 105.122 32.0108 104.066 30.1548C103.01 28.2988 102.482 26.1548 102.482 23.7228C102.482 21.2588 102.994 19.0668 104.018 17.1468C105.074 15.2268 106.514 13.7388 108.338 12.6828C110.194 11.5948 112.37 11.0508 114.866 11.0508C117.202 11.0508 119.266 11.5628 121.058 12.5868C122.85 13.6108 124.242 15.0188 125.234 16.8108C126.258 18.5708 126.77 20.5388 126.77 22.7148C126.77 23.0668 126.754 23.4348 126.722 23.8188C126.722 24.2028 126.706 24.6028 126.674 25.0188H108.578C108.706 26.8748 109.346 28.3308 110.498 29.3868C111.682 30.4428 113.106 30.9708 114.77 30.9708C116.018 30.9708 117.058 30.6988 117.89 30.1548C118.754 29.5788 119.394 28.8428 119.81 27.9468H126.05C125.602 29.4508 124.85 30.8268 123.794 32.0748C122.77 33.2908 121.49 34.2508 119.954 34.9548C118.45 35.6588 116.738 36.0108 114.818 36.0108ZM114.866 16.0428C113.362 16.0428 112.034 16.4748 110.882 17.3388C109.73 18.1708 108.994 19.4508 108.674 21.1788H120.53C120.434 19.6108 119.858 18.3628 118.802 17.4348C117.746 16.5068 116.434 16.0428 114.866 16.0428Z" fill="#23262F"/>
<path d="M72.8975 45.9948V11.6268H78.3695L79.0415 15.0348C79.8095 13.9788 80.8175 13.0508 82.0655 12.2508C83.3455 11.4508 84.9935 11.0508 87.0095 11.0508C89.2495 11.0508 91.2495 11.5948 93.0095 12.6828C94.7695 13.7708 96.1615 15.2588 97.1855 17.1468C98.2095 19.0348 98.7215 21.1788 98.7215 23.5788C98.7215 25.9788 98.2095 28.1228 97.1855 30.0108C96.1615 31.8668 94.7695 33.3388 93.0095 34.4268C91.2495 35.4828 89.2495 36.0108 87.0095 36.0108C85.2175 36.0108 83.6495 35.6748 82.3055 35.0028C80.9615 34.3308 79.8735 33.3868 79.0415 32.1708V45.9948H72.8975ZM85.7135 30.6348C87.6655 30.6348 89.2815 29.9788 90.5615 28.6668C91.8415 27.3548 92.4815 25.6588 92.4815 23.5788C92.4815 21.4988 91.8415 19.7868 90.5615 18.4428C89.2815 17.0988 87.6655 16.4268 85.7135 16.4268C83.7295 16.4268 82.0975 17.0988 80.8175 18.4428C79.5695 19.7548 78.9455 21.4508 78.9455 23.5308C78.9455 25.6108 79.5695 27.3228 80.8175 28.6668C82.0975 29.9788 83.7295 30.6348 85.7135 30.6348Z" fill="#23262F"/>
<path d="M61.4355 35.435V0.875H67.5795V35.435H61.4355Z" fill="#23262F"/>
<path d="M45.2764 36.0108C42.8764 36.0108 40.7484 35.4988 38.8924 34.4748C37.0364 33.4508 35.5804 32.0108 34.5244 30.1548C33.4684 28.2988 32.9404 26.1548 32.9404 23.7228C32.9404 21.2588 33.4524 19.0668 34.4764 17.1468C35.5324 15.2268 36.9724 13.7388 38.7964 12.6828C40.6524 11.5948 42.8284 11.0508 45.3244 11.0508C47.6604 11.0508 49.7244 11.5628 51.5164 12.5868C53.3084 13.6108 54.7004 15.0188 55.6924 16.8108C56.7164 18.5708 57.2284 20.5388 57.2284 22.7148C57.2284 23.0668 57.2124 23.4348 57.1804 23.8188C57.1804 24.2028 57.1644 24.6028 57.1324 25.0188H39.0364C39.1644 26.8748 39.8044 28.3308 40.9564 29.3868C42.1404 30.4428 43.5644 30.9708 45.2284 30.9708C46.4764 30.9708 47.5164 30.6988 48.3484 30.1548C49.2124 29.5788 49.8524 28.8428 50.2684 27.9468H56.5084C56.0604 29.4508 55.3084 30.8268 54.2524 32.0748C53.2284 33.2908 51.9484 34.2508 50.4124 34.9548C48.9084 35.6588 47.1964 36.0108 45.2764 36.0108ZM45.3244 16.0428C43.8204 16.0428 42.4924 16.4748 41.3404 17.3388C40.1884 18.1708 39.4524 19.4508 39.1324 21.1788H50.9884C50.8924 19.6108 50.3164 18.3628 49.2604 17.4348C48.2044 16.5068 46.8924 16.0428 45.3244 16.0428Z" fill="#23262F"/>
<path d="M0.921875 35.435V1.83496H7.06588V15.803H22.1379V1.83496H28.2819V35.435H22.1379V20.795H7.06588V35.435H0.921875Z" fill="#23262F"/>
</svg>
