<svg width="44" height="12" viewBox="0 0 44 12" fill="none" xmlns="http://www.w3.org/2000/svg">
<path d="M39.8591 11.7009C39.0591 11.7009 38.3497 11.5302 37.7311 11.1889C37.1124 10.8475 36.6271 10.3675 36.2751 9.74886C35.9231 9.13019 35.7471 8.41553 35.7471 7.60486C35.7471 6.78353 35.9177 6.05286 36.2591 5.41286C36.6111 4.77286 37.0911 4.27686 37.6991 3.92486C38.3177 3.56219 39.0431 3.38086 39.8751 3.38086C40.6537 3.38086 41.3417 3.55153 41.9391 3.89286C42.5364 4.23419 43.0004 4.70353 43.3311 5.30086C43.6724 5.88753 43.8431 6.54353 43.8431 7.26886C43.8431 7.38619 43.8377 7.50886 43.8271 7.63686C43.8271 7.76486 43.8217 7.89819 43.8111 8.03686H37.7791C37.8217 8.65553 38.0351 9.14086 38.4191 9.49286C38.8137 9.84486 39.2884 10.0209 39.8431 10.0209C40.2591 10.0209 40.6057 9.93019 40.8831 9.74886C41.1711 9.55686 41.3844 9.31153 41.5231 9.01286H43.6031C43.4537 9.51419 43.2031 9.97286 42.8511 10.3889C42.5097 10.7942 42.0831 11.1142 41.5711 11.3489C41.0697 11.5835 40.4991 11.7009 39.8591 11.7009ZM39.8751 5.04486C39.3737 5.04486 38.9311 5.18886 38.5471 5.47686C38.1631 5.75419 37.9177 6.18086 37.8111 6.75686H41.7631C41.7311 6.23419 41.5391 5.81819 41.1871 5.50886C40.8351 5.19953 40.3977 5.04486 39.8751 5.04486Z" fill="#777E91"/>
<path d="M21.0186 11.5089V3.57286H22.8266L23.0026 4.64486C23.2586 4.26086 23.5946 3.95686 24.0106 3.73286C24.4372 3.49819 24.9279 3.38086 25.4826 3.38086C26.7092 3.38086 27.5786 3.85553 28.0906 4.80486C28.3786 4.36753 28.7626 4.02086 29.2426 3.76486C29.7332 3.50886 30.2666 3.38086 30.8426 3.38086C31.8772 3.38086 32.6719 3.69019 33.2266 4.30886C33.7812 4.92753 34.0586 5.83419 34.0586 7.02886V11.5089H32.0106V7.22086C32.0106 6.53819 31.8772 6.01553 31.6106 5.65286C31.3546 5.29019 30.9546 5.10886 30.4106 5.10886C29.8559 5.10886 29.4079 5.31153 29.0666 5.71686C28.7359 6.12219 28.5706 6.68753 28.5706 7.41286V11.5089H26.5226V7.22086C26.5226 6.53819 26.3892 6.01553 26.1226 5.65286C25.8559 5.29019 25.4452 5.10886 24.8906 5.10886C24.3466 5.10886 23.9039 5.31153 23.5626 5.71686C23.2319 6.12219 23.0666 6.68753 23.0666 7.41286V11.5089H21.0186Z" fill="#777E91"/>
<path d="M15.1236 11.7009C14.3556 11.7009 13.6622 11.5249 13.0436 11.1729C12.4356 10.8209 11.9502 10.3355 11.5876 9.71686C11.2356 9.08753 11.0596 8.36219 11.0596 7.54086C11.0596 6.71953 11.2409 5.99953 11.6036 5.38086C11.9662 4.75153 12.4516 4.26086 13.0596 3.90886C13.6782 3.55686 14.3716 3.38086 15.1396 3.38086C15.8969 3.38086 16.5796 3.55686 17.1876 3.90886C17.8062 4.26086 18.2916 4.75153 18.6436 5.38086C19.0062 5.99953 19.1876 6.71953 19.1876 7.54086C19.1876 8.36219 19.0062 9.08753 18.6436 9.71686C18.2916 10.3355 17.8062 10.8209 17.1876 11.1729C16.5689 11.5249 15.8809 11.7009 15.1236 11.7009ZM15.1236 9.92486C15.6569 9.92486 16.1209 9.72753 16.5156 9.33286C16.9102 8.92753 17.1076 8.33019 17.1076 7.54086C17.1076 6.75153 16.9102 6.15953 16.5156 5.76486C16.1209 5.35953 15.6622 5.15686 15.1396 5.15686C14.5956 5.15686 14.1262 5.35953 13.7316 5.76486C13.3476 6.15953 13.1556 6.75153 13.1556 7.54086C13.1556 8.33019 13.3476 8.92753 13.7316 9.33286C14.1262 9.72753 14.5902 9.92486 15.1236 9.92486Z" fill="#777E91"/>
<path d="M0.0664062 11.5086V0.308594H2.11441V4.96459H7.13841V0.308594H9.18641V11.5086H7.13841V6.62859H2.11441V11.5086H0.0664062Z" fill="#777E91"/>
</svg>
