<svg width="44" height="12" viewBox="0 0 44 12" fill="none" xmlns="http://www.w3.org/2000/svg">
<path d="M39.8522 11.6989C39.0522 11.6989 38.3429 11.5282 37.7242 11.1869C37.1056 10.8456 36.6202 10.3656 36.2682 9.74691C35.9162 9.12824 35.7402 8.41357 35.7402 7.60291C35.7402 6.78157 35.9109 6.05091 36.2522 5.41091C36.6042 4.77091 37.0842 4.27491 37.6922 3.92291C38.3109 3.56024 39.0362 3.37891 39.8682 3.37891C40.6469 3.37891 41.3349 3.54957 41.9322 3.89091C42.5296 4.23224 42.9936 4.70157 43.3242 5.29891C43.6656 5.88557 43.8362 6.54157 43.8362 7.26691C43.8362 7.38424 43.8309 7.50691 43.8202 7.63491C43.8202 7.76291 43.8149 7.89624 43.8042 8.03491H37.7722C37.8149 8.65357 38.0282 9.13891 38.4122 9.49091C38.8069 9.84291 39.2816 10.0189 39.8362 10.0189C40.2522 10.0189 40.5989 9.92824 40.8762 9.74691C41.1642 9.55491 41.3776 9.30957 41.5162 9.01091H43.5962C43.4469 9.51224 43.1962 9.97091 42.8442 10.3869C42.5029 10.7922 42.0762 11.1122 41.5642 11.3469C41.0629 11.5816 40.4922 11.6989 39.8522 11.6989ZM39.8682 5.04291C39.3669 5.04291 38.9242 5.18691 38.5402 5.47491C38.1562 5.75224 37.9109 6.17891 37.8042 6.75491H41.7562C41.7242 6.23224 41.5322 5.81624 41.1802 5.50691C40.8282 5.19757 40.3909 5.04291 39.8682 5.04291Z" fill="#777E91"/>
<path d="M21.0117 11.5069V3.57091H22.8197L22.9957 4.64291C23.2517 4.25891 23.5877 3.95491 24.0037 3.73091C24.4304 3.49624 24.9211 3.37891 25.4757 3.37891C26.7024 3.37891 27.5717 3.85357 28.0837 4.80291C28.3717 4.36557 28.7557 4.01891 29.2357 3.76291C29.7264 3.50691 30.2597 3.37891 30.8357 3.37891C31.8704 3.37891 32.6651 3.68824 33.2197 4.30691C33.7744 4.92557 34.0517 5.83224 34.0517 7.02691V11.5069H32.0037V7.21891C32.0037 6.53624 31.8704 6.01357 31.6037 5.65091C31.3477 5.28824 30.9477 5.10691 30.4037 5.10691C29.8491 5.10691 29.4011 5.30957 29.0597 5.71491C28.7291 6.12024 28.5637 6.68557 28.5637 7.41091V11.5069H26.5157V7.21891C26.5157 6.53624 26.3824 6.01357 26.1157 5.65091C25.8491 5.28824 25.4384 5.10691 24.8837 5.10691C24.3397 5.10691 23.8971 5.30957 23.5557 5.71491C23.2251 6.12024 23.0597 6.68557 23.0597 7.41091V11.5069H21.0117Z" fill="#777E91"/>
<path d="M15.1167 11.6989C14.3487 11.6989 13.6554 11.5229 13.0367 11.1709C12.4287 10.8189 11.9434 10.3336 11.5807 9.71491C11.2287 9.08557 11.0527 8.36024 11.0527 7.53891C11.0527 6.71757 11.2341 5.99757 11.5967 5.37891C11.9594 4.74957 12.4447 4.25891 13.0527 3.90691C13.6714 3.55491 14.3647 3.37891 15.1327 3.37891C15.8901 3.37891 16.5727 3.55491 17.1807 3.90691C17.7994 4.25891 18.2847 4.74957 18.6367 5.37891C18.9994 5.99757 19.1807 6.71757 19.1807 7.53891C19.1807 8.36024 18.9994 9.08557 18.6367 9.71491C18.2847 10.3336 17.7994 10.8189 17.1807 11.1709C16.5621 11.5229 15.8741 11.6989 15.1167 11.6989ZM15.1167 9.92291C15.6501 9.92291 16.1141 9.72557 16.5087 9.33091C16.9034 8.92557 17.1007 8.32824 17.1007 7.53891C17.1007 6.74957 16.9034 6.15757 16.5087 5.76291C16.1141 5.35757 15.6554 5.15491 15.1327 5.15491C14.5887 5.15491 14.1194 5.35757 13.7247 5.76291C13.3407 6.15757 13.1487 6.74957 13.1487 7.53891C13.1487 8.32824 13.3407 8.92557 13.7247 9.33091C14.1194 9.72557 14.5834 9.92291 15.1167 9.92291Z" fill="#777E91"/>
<path d="M0.0605469 11.5066V0.306641H2.10855V4.96264H7.13255V0.306641H9.18055V11.5066H7.13255V6.62664H2.10855V11.5066H0.0605469Z" fill="#777E91"/>
</svg>
