<svg width="44" height="13" viewBox="0 0 44 13" fill="none" xmlns="http://www.w3.org/2000/svg">
<path d="M39.8581 12.196C39.0581 12.196 38.3488 12.0253 37.7301 11.684C37.1114 11.3426 36.6261 10.8626 36.2741 10.244C35.9221 9.62531 35.7461 8.91064 35.7461 8.09998C35.7461 7.27864 35.9168 6.54798 36.2581 5.90798C36.6101 5.26798 37.0901 4.77198 37.6981 4.41998C38.3168 4.05731 39.0421 3.87598 39.8741 3.87598C40.6528 3.87598 41.3408 4.04664 41.9381 4.38798C42.5354 4.72931 42.9994 5.19864 43.3301 5.79598C43.6714 6.38264 43.8421 7.03864 43.8421 7.76398C43.8421 7.88131 43.8368 8.00398 43.8261 8.13198C43.8261 8.25998 43.8208 8.39331 43.8101 8.53198H37.7781C37.8208 9.15064 38.0341 9.63598 38.4181 9.98798C38.8128 10.34 39.2874 10.516 39.8421 10.516C40.2581 10.516 40.6048 10.4253 40.8821 10.244C41.1701 10.052 41.3834 9.80664 41.5221 9.50798H43.6021C43.4528 10.0093 43.2021 10.468 42.8501 10.884C42.5088 11.2893 42.0821 11.6093 41.5701 11.844C41.0688 12.0786 40.4981 12.196 39.8581 12.196ZM39.8741 5.53998C39.3728 5.53998 38.9301 5.68398 38.5461 5.97198C38.1621 6.24931 37.9168 6.67598 37.8101 7.25198H41.7621C41.7301 6.72931 41.5381 6.31331 41.1861 6.00398C40.8341 5.69464 40.3968 5.53998 39.8741 5.53998Z" fill="#777E91"/>
<path d="M21.0176 12.004V4.06798H22.8256L23.0016 5.13998C23.2576 4.75598 23.5936 4.45198 24.0096 4.22798C24.4362 3.99331 24.9269 3.87598 25.4816 3.87598C26.7082 3.87598 27.5776 4.35064 28.0896 5.29998C28.3776 4.86264 28.7616 4.51598 29.2416 4.25998C29.7322 4.00398 30.2656 3.87598 30.8416 3.87598C31.8762 3.87598 32.6709 4.18531 33.2256 4.80398C33.7802 5.42264 34.0576 6.32931 34.0576 7.52398V12.004H32.0096V7.71598C32.0096 7.03331 31.8762 6.51064 31.6096 6.14798C31.3536 5.78531 30.9536 5.60398 30.4096 5.60398C29.8549 5.60398 29.4069 5.80664 29.0656 6.21198C28.7349 6.61731 28.5696 7.18264 28.5696 7.90798V12.004H26.5216V7.71598C26.5216 7.03331 26.3882 6.51064 26.1216 6.14798C25.8549 5.78531 25.4442 5.60398 24.8896 5.60398C24.3456 5.60398 23.9029 5.80664 23.5616 6.21198C23.2309 6.61731 23.0656 7.18264 23.0656 7.90798V12.004H21.0176Z" fill="#777E91"/>
<path d="M15.1226 12.196C14.3546 12.196 13.6613 12.02 13.0426 11.668C12.4346 11.316 11.9493 10.8306 11.5866 10.212C11.2346 9.58264 11.0586 8.85731 11.0586 8.03598C11.0586 7.21464 11.2399 6.49464 11.6026 5.87598C11.9653 5.24664 12.4506 4.75598 13.0586 4.40398C13.6773 4.05198 14.3706 3.87598 15.1386 3.87598C15.8959 3.87598 16.5786 4.05198 17.1866 4.40398C17.8053 4.75598 18.2906 5.24664 18.6426 5.87598C19.0053 6.49464 19.1866 7.21464 19.1866 8.03598C19.1866 8.85731 19.0053 9.58264 18.6426 10.212C18.2906 10.8306 17.8053 11.316 17.1866 11.668C16.5679 12.02 15.8799 12.196 15.1226 12.196ZM15.1226 10.42C15.6559 10.42 16.1199 10.2226 16.5146 9.82798C16.9093 9.42264 17.1066 8.82531 17.1066 8.03598C17.1066 7.24664 16.9093 6.65464 16.5146 6.25998C16.1199 5.85464 15.6613 5.65198 15.1386 5.65198C14.5946 5.65198 14.1253 5.85464 13.7306 6.25998C13.3466 6.65464 13.1546 7.24664 13.1546 8.03598C13.1546 8.82531 13.3466 9.42264 13.7306 9.82798C14.1253 10.2226 14.5893 10.42 15.1226 10.42Z" fill="#777E91"/>
<path d="M0.0664062 12.0042V0.804199H2.11441V5.4602H7.13841V0.804199H9.18641V12.0042H7.13841V7.1242H2.11441V12.0042H0.0664062Z" fill="#777E91"/>
</svg>
