<svg width="16" height="16" viewBox="0 0 16 16" fill="none" xmlns="http://www.w3.org/2000/svg">
<path fill-rule="evenodd" clip-rule="evenodd" d="M13.3334 3.33333H2.66675C2.29856 3.33333 2.00008 3.63181 2.00008 4V12C2.00008 12.3682 2.29856 12.6667 2.66675 12.6667H13.3334C13.7016 12.6667 14.0001 12.3682 14.0001 12V4C14.0001 3.63181 13.7016 3.33333 13.3334 3.33333ZM2.66675 2C1.56218 2 0.666748 2.89543 0.666748 4V12C0.666748 13.1046 1.56218 14 2.66675 14H13.3334C14.438 14 15.3334 13.1046 15.3334 12V4C15.3334 2.89543 14.438 2 13.3334 2H2.66675Z" fill="#777E91"/>
<path d="M5.33325 10.333C5.33325 10.8853 4.88554 11.333 4.33325 11.333C3.78097 11.333 3.33325 10.8853 3.33325 10.333C3.33325 9.78072 3.78097 9.33301 4.33325 9.33301C4.88554 9.33301 5.33325 9.78072 5.33325 10.333Z" fill="#777E91"/>
<path d="M8.66675 10.333C8.66675 10.8853 8.21903 11.333 7.66675 11.333C7.11446 11.333 6.66675 10.8853 6.66675 10.333C6.66675 9.78072 7.11446 9.33301 7.66675 9.33301C8.21903 9.33301 8.66675 9.78072 8.66675 10.333Z" fill="#777E91"/>
<path d="M0.666748 5.33301H15.3334V6.66634H0.666748V5.33301Z" fill="#777E91"/>
</svg>
