<svg width="24" height="24" viewBox="0 0 24 24" fill="none" xmlns="http://www.w3.org/2000/svg">
<path fill-rule="evenodd" clip-rule="evenodd" d="M12 13.0049C8.13401 13.0049 5 16.1389 5 20.0049V22.0049C5 22.5572 4.55228 23.0049 4 23.0049C3.44772 23.0049 3 22.5572 3 22.0049V20.0049C3 15.0343 7.02944 11.0049 12 11.0049C16.9706 11.0049 21 15.0343 21 20.0049V22.0049C21 22.5572 20.5523 23.0049 20 23.0049C19.4477 23.0049 19 22.5572 19 22.0049V20.0049C19 16.1389 15.866 13.0049 12 13.0049Z" fill="#777E91"/>
<path fill-rule="evenodd" clip-rule="evenodd" d="M12 11.0049C14.2091 11.0049 16 9.21402 16 7.00488C16 4.79574 14.2091 3.00488 12 3.00488C9.79086 3.00488 8 4.79574 8 7.00488C8 9.21402 9.79086 11.0049 12 11.0049ZM12 13.0049C15.3137 13.0049 18 10.3186 18 7.00488C18 3.69117 15.3137 1.00488 12 1.00488C8.68629 1.00488 6 3.69117 6 7.00488C6 10.3186 8.68629 13.0049 12 13.0049Z" fill="#777E91"/>
</svg>
