<svg width="27" height="9" viewBox="0 0 27 9" fill="none" xmlns="http://www.w3.org/2000/svg">
<path fill-rule="evenodd" clip-rule="evenodd" d="M19.6533 2.64591H22.1098C23.4608 2.64591 24.5662 2.98551 24.5662 3.40906V7.98795C24.5662 8.40943 23.4664 8.7511 22.1098 8.7511H4.91448C3.55781 8.7511 2.45801 8.40943 2.45801 7.98795V3.40906C2.45801 2.98551 3.55114 2.64591 4.91448 2.64591H7.37095C7.37095 1.59222 10.1204 0.738037 13.5121 0.738037C15.1409 0.738037 16.7029 0.939045 17.8546 1.29684C19.0063 1.65464 19.6533 2.13991 19.6533 2.64591ZM13.5121 1.50119C15.5471 1.50119 17.1968 2.0137 17.1968 2.64591H9.82742C9.82742 2.0137 11.4771 1.50119 13.5121 1.50119ZM13.5121 5.31693C10.1204 5.31693 7.37095 4.46275 7.37095 3.40906H9.82742C9.82742 4.04127 11.4771 4.55378 13.5121 4.55378C15.5471 4.55378 17.1968 4.04127 17.1968 3.40906H19.6533C19.6533 4.46275 16.9038 5.31693 13.5121 5.31693Z" fill="#FB6D3A"/>
</svg>
