<svg width="12" height="13" viewBox="0 0 12 13" fill="none" xmlns="http://www.w3.org/2000/svg">
<path fill-rule="evenodd" clip-rule="evenodd" d="M2.14952 11.6381C2.09117 11.9707 2.41935 12.231 2.70918 12.082L6.0011 10.3901L9.29302 12.082C9.58285 12.231 9.91102 11.9707 9.85267 11.6381L9.23038 8.09095L11.8721 5.57347C12.119 5.33819 11.9912 4.90802 11.6605 4.86104L7.98661 4.33914L6.34852 1.09423C6.20096 0.801924 5.80124 0.801924 5.65367 1.09423L4.01558 4.33914L0.341728 4.86104C0.0109857 4.90802 -0.116814 5.33819 0.130071 5.57347L2.77182 8.09095L2.14952 11.6381ZM5.82798 9.56196L3.06366 10.9827L3.58435 8.01478C3.6089 7.87487 3.56275 7.7316 3.46229 7.63588L1.28216 5.5583L4.32139 5.12655C4.44703 5.1087 4.55673 5.02846 4.616 4.91106L6.0011 2.16731L7.3862 4.91106C7.44546 5.02846 7.55516 5.1087 7.6808 5.12655L10.72 5.5583L8.5399 7.63588C8.43945 7.7316 8.3933 7.87487 8.41784 8.01478L8.93853 10.9827L6.17422 9.56196C6.06502 9.50584 5.93717 9.50584 5.82798 9.56196Z" fill="white"/>
</svg>
