<svg width="12" height="13" viewBox="0 0 12 13" fill="none" xmlns="http://www.w3.org/2000/svg">
<path fill-rule="evenodd" clip-rule="evenodd" d="M2.14957 11.6381C2.09122 11.9707 2.41939 12.231 2.70923 12.082L6.00114 10.3901L9.29306 12.082C9.58289 12.231 9.91107 11.9707 9.85272 11.6381L9.23042 8.09095L11.8722 5.57347C12.1191 5.33819 11.9913 4.90802 11.6605 4.86104L7.98666 4.33914L6.34857 1.09423C6.20101 0.801924 5.80128 0.801924 5.65372 1.09423L4.01563 4.33914L0.341773 4.86104C0.0110314 4.90802 -0.116769 5.33819 0.130117 5.57347L2.77187 8.09095L2.14957 11.6381ZM5.82802 9.56196L3.06371 10.9827L3.5844 8.01478C3.60895 7.87487 3.56279 7.7316 3.46234 7.63588L1.28221 5.5583L4.32144 5.12655C4.44708 5.1087 4.55678 5.02846 4.61605 4.91106L6.00114 2.16731L7.38624 4.91106C7.44551 5.02846 7.55521 5.1087 7.68085 5.12655L10.7201 5.5583L8.53995 7.63588C8.4395 7.7316 8.39334 7.87487 8.41789 8.01478L8.93858 10.9827L6.17427 9.56196C6.06507 9.50584 5.93722 9.50584 5.82802 9.56196Z" fill="white"/>
</svg>
