<svg width="27" height="8" viewBox="0 0 27 8" fill="none" xmlns="http://www.w3.org/2000/svg">
<path fill-rule="evenodd" clip-rule="evenodd" d="M19.6533 2.42098H22.1098C23.4608 2.42098 24.5662 2.69195 24.5662 3.0299V6.68341C24.5662 7.0197 23.4664 7.29233 22.1098 7.29233H4.91448C3.55781 7.29233 2.45801 7.0197 2.45801 6.68341V3.0299C2.45801 2.69195 3.55114 2.42098 4.91448 2.42098H7.37095C7.37095 1.58024 10.1204 0.898682 13.5121 0.898682C15.1409 0.898682 16.7029 1.05907 17.8546 1.34455C19.0063 1.63004 19.6533 2.01724 19.6533 2.42098ZM13.5121 1.5076C15.5471 1.5076 17.1968 1.91653 17.1968 2.42098H9.82742C9.82742 1.91653 11.4771 1.5076 13.5121 1.5076ZM13.5121 4.55219C10.1204 4.55219 7.37095 3.87064 7.37095 3.0299H9.82742C9.82742 3.53434 11.4771 3.94327 13.5121 3.94327C15.5471 3.94327 17.1968 3.53434 17.1968 3.0299H19.6533C19.6533 3.87064 16.9038 4.55219 13.5121 4.55219Z" fill="#FB6D3A"/>
</svg>
