<svg width="28" height="24" viewBox="0 0 28 24" fill="none" xmlns="http://www.w3.org/2000/svg">
<path fill-rule="evenodd" clip-rule="evenodd" d="M0.717285 5.375C0.717285 4.06332 1.90507 3 3.37027 3H24.5941C26.0533 3 27.2471 4.05687 27.2471 5.375V10.125C25.788 10.125 24.5941 11.1819 24.5941 12.5C24.5941 13.8117 25.7819 14.875 27.2471 14.875V19.625C27.2471 20.9367 26.0593 22 24.5941 22H3.37027C1.90507 22 0.717285 20.9367 0.717285 19.625V14.875C2.18249 14.875 3.37027 13.8117 3.37027 12.5C3.37027 11.1938 2.18969 10.125 0.717285 10.125V5.375ZM20.6147 8.34375L18.6249 6.5625L7.34975 16.6562L9.33949 18.4375L20.6147 8.34375ZM9.7507 6.61C11.0507 6.61 12.0986 7.54812 12.0986 8.71187C12.0986 9.87271 11.0474 10.8138 9.7507 10.8138C8.45074 10.8138 7.40281 9.87563 7.40281 8.71187C7.40281 7.55104 8.45399 6.61 9.7507 6.61ZM20.5616 16.2881C20.5616 15.1244 19.5137 14.1862 18.2137 14.1862C16.917 14.1862 15.8658 15.1273 15.8658 16.2881C15.8658 17.4519 16.9138 18.39 18.2137 18.39C19.5104 18.39 20.5616 17.449 20.5616 16.2881Z" fill="#141416"/>
</svg>
