<svg width="17" height="16" viewBox="0 0 17 16" fill="none" xmlns="http://www.w3.org/2000/svg">
<mask id="mask0_1029_2026" style="mask-type:alpha" maskUnits="userSpaceOnUse" x="0" y="0" width="17" height="16">
<path fill-rule="evenodd" clip-rule="evenodd" d="M17 8C17 12.4183 13.1944 16 8.5 16C3.80558 16 0 12.4183 0 8C0 3.58172 3.80558 0 8.5 0C13.1944 0 17 3.58172 17 8ZM4.78125 7.5C4.48785 7.5 4.25 7.72386 4.25 8C4.25 8.27614 4.48785 8.5 4.78125 8.5H12.2188C12.5122 8.5 12.75 8.27614 12.75 8C12.75 7.72386 12.5122 7.5 12.2188 7.5H4.78125Z" fill="black"/>
</mask>
<g mask="url(#mask0_1029_2026)">
<rect width="17" height="16" fill="#B5B5BD"/>
</g>
</svg>
