<svg width="18" height="16" viewBox="0 0 18 16" fill="none" xmlns="http://www.w3.org/2000/svg">
<mask id="mask0_1029_2026" style="mask-type:alpha" maskUnits="userSpaceOnUse" x="0" y="0" width="18" height="16">
<path fill-rule="evenodd" clip-rule="evenodd" d="M17.9717 8C17.9717 12.4183 14.1661 16 9.47168 16C4.77726 16 0.97168 12.4183 0.97168 8C0.97168 3.58172 4.77726 0 9.47168 0C14.1661 0 17.9717 3.58172 17.9717 8ZM5.75293 7.5C5.45953 7.5 5.22168 7.72386 5.22168 8C5.22168 8.27614 5.45953 8.5 5.75293 8.5H13.1904C13.4838 8.5 13.7217 8.27614 13.7217 8C13.7217 7.72386 13.4838 7.5 13.1904 7.5H5.75293Z" fill="black"/>
</mask>
<g mask="url(#mask0_1029_2026)">
<rect x="0.97168" width="17" height="16" fill="#B5B5BD"/>
</g>
</svg>
