<svg width="16" height="16" viewBox="0 0 16 16" fill="none" xmlns="http://www.w3.org/2000/svg">
<g clip-path="url(#clip0_1134_8337)">
<path fill-rule="evenodd" clip-rule="evenodd" d="M8 7.33919C6.81828 7.33919 5.76562 7.38223 4.90558 7.4369C4.08981 7.48876 3.46253 8.11118 3.40398 8.92119C3.36233 9.49741 3.33333 10.1046 3.33333 10.6725C3.33333 11.2405 3.36233 11.8476 3.40398 12.4239C3.46253 13.2339 4.08981 13.8563 4.90559 13.9082C5.76563 13.9628 6.81828 14.0059 8 14.0059C9.18172 14.0059 10.2344 13.9628 11.0944 13.9082C11.9102 13.8563 12.5375 13.2339 12.596 12.4239C12.6377 11.8476 12.6667 11.2405 12.6667 10.6725C12.6667 10.1046 12.6377 9.49741 12.596 8.92119C12.5375 8.11118 11.9102 7.48876 11.0944 7.4369C10.2344 7.38223 9.18172 7.33919 8 7.33919ZM4.821 6.10625C3.34251 6.20023 2.18092 7.34744 2.07412 8.82507C2.03101 9.42145 2 10.0625 2 10.6725C2 11.2826 2.03101 11.9236 2.07412 12.52C2.18092 13.9976 3.34251 15.1448 4.821 15.2388C5.70519 15.295 6.78631 15.3392 8 15.3392C9.2137 15.3392 10.2948 15.295 11.179 15.2388C12.6575 15.1448 13.8191 13.9976 13.9259 12.52C13.969 11.9236 14 11.2826 14 10.6725C14 10.0625 13.969 9.42145 13.9259 8.82507C13.8191 7.34744 12.6575 6.20023 11.179 6.10625C10.2948 6.05005 9.21369 6.00586 8 6.00586C6.78631 6.00586 5.70519 6.05005 4.821 6.10625Z" fill="#777E91"/>
<path fill-rule="evenodd" clip-rule="evenodd" d="M8.66663 11.1609C9.06516 10.9304 9.33329 10.4995 9.33329 10.0059C9.33329 9.26956 8.73634 8.67261 7.99996 8.67261C7.26358 8.67261 6.66663 9.26956 6.66663 10.0059C6.66663 10.4995 6.93476 10.9304 7.33329 11.1609V12.0059C7.33329 12.3741 7.63177 12.6726 7.99996 12.6726C8.36815 12.6726 8.66663 12.3741 8.66663 12.0059V11.1609Z" fill="#777E91"/>
<path fill-rule="evenodd" clip-rule="evenodd" d="M4.66663 4.00594C4.66663 2.16499 6.15901 0.672607 7.99996 0.672607C9.84091 0.672607 11.3333 2.16499 11.3333 4.00594V6.67261C11.3333 7.0408 11.0348 7.33927 10.6666 7.33927C10.2984 7.33927 9.99996 7.0408 9.99996 6.67261V4.00594C9.99996 2.90137 9.10453 2.00594 7.99996 2.00594C6.89539 2.00594 5.99996 2.90137 5.99996 4.00594V6.67261C5.99996 7.0408 5.70148 7.33927 5.33329 7.33927C4.9651 7.33927 4.66663 7.0408 4.66663 6.67261V4.00594Z" fill="#777E91"/>
</g>
<defs>
<clipPath id="clip0_1134_8337">
<rect width="16" height="16" fill="white" transform="translate(0 0.00585938)"/>
</clipPath>
</defs>
</svg>
