<svg width="16" height="16" viewBox="0 0 16 16" fill="none" xmlns="http://www.w3.org/2000/svg">
<g clip-path="url(#clip0_1134_8486)">
<path fill-rule="evenodd" clip-rule="evenodd" d="M8 7.33919C6.81828 7.33919 5.76562 7.38223 4.90558 7.4369C4.08981 7.48876 3.46253 8.11118 3.40398 8.92119C3.36233 9.49741 3.33333 10.1046 3.33333 10.6725C3.33333 11.2405 3.36233 11.8476 3.40398 12.4239C3.46253 13.2339 4.08981 13.8563 4.90559 13.9082C5.76562 13.9628 6.81828 14.0059 8 14.0059C9.18172 14.0059 10.2344 13.9628 11.0944 13.9082C11.9102 13.8563 12.5375 13.2339 12.596 12.4239C12.6377 11.8476 12.6667 11.2405 12.6667 10.6725C12.6667 10.1046 12.6377 9.49741 12.596 8.92119C12.5375 8.11118 11.9102 7.48876 11.0944 7.4369C10.2344 7.38223 9.18172 7.33919 8 7.33919ZM4.821 6.10625C3.34251 6.20023 2.18092 7.34744 2.07412 8.82507C2.03101 9.42145 2 10.0625 2 10.6725C2 11.2826 2.03101 11.9236 2.07412 12.52C2.18092 13.9976 3.34251 15.1448 4.821 15.2388C5.70519 15.295 6.78631 15.3392 8 15.3392C9.2137 15.3392 10.2948 15.295 11.179 15.2388C12.6575 15.1448 13.8191 13.9976 13.9259 12.52C13.969 11.9236 14 11.2826 14 10.6725C14 10.0625 13.969 9.42145 13.9259 8.82507C13.8191 7.34744 12.6575 6.20023 11.179 6.10625C10.2948 6.05005 9.21369 6.00586 8 6.00586C6.78631 6.00586 5.70519 6.05005 4.821 6.10625Z" fill="#23262F"/>
<path fill-rule="evenodd" clip-rule="evenodd" d="M8.66675 11.1608C9.06528 10.9302 9.33341 10.4993 9.33341 10.0058C9.33341 9.26944 8.73646 8.67249 8.00008 8.67249C7.2637 8.67249 6.66675 9.26944 6.66675 10.0058C6.66675 10.4993 6.93488 10.9302 7.33341 11.1608V12.0058C7.33341 12.374 7.63189 12.6725 8.00008 12.6725C8.36827 12.6725 8.66675 12.374 8.66675 12.0058V11.1608Z" fill="#23262F"/>
<path fill-rule="evenodd" clip-rule="evenodd" d="M4.66675 4.00582C4.66675 2.16487 6.15913 0.672485 8.00008 0.672485C9.84103 0.672485 11.3334 2.16487 11.3334 4.00582V6.67249C11.3334 7.04068 11.0349 7.33915 10.6667 7.33915C10.2986 7.33915 10.0001 7.04068 10.0001 6.67249V4.00582C10.0001 2.90125 9.10465 2.00582 8.00008 2.00582C6.89551 2.00582 6.00008 2.90125 6.00008 4.00582V6.67249C6.00008 7.04068 5.7016 7.33915 5.33341 7.33915C4.96522 7.33915 4.66675 7.04068 4.66675 6.67249V4.00582Z" fill="#23262F"/>
</g>
<defs>
<clipPath id="clip0_1134_8486">
<rect width="16" height="16" fill="white" transform="translate(0 0.00585938)"/>
</clipPath>
</defs>
</svg>
