<svg width="16" height="16" viewBox="0 0 16 16" fill="none" xmlns="http://www.w3.org/2000/svg">
<g clip-path="url(#clip0_1092_213)">
<path fill-rule="evenodd" clip-rule="evenodd" d="M8 8.67244C5.42267 8.67244 3.33333 10.7618 3.33333 13.3391V14.6724C3.33333 15.0406 3.03486 15.3391 2.66667 15.3391C2.29848 15.3391 2 15.0406 2 14.6724V13.3391C2 10.0254 4.68629 7.33911 8 7.33911C11.3137 7.33911 14 10.0254 14 13.3391V14.6724C14 15.0406 13.7015 15.3391 13.3333 15.3391C12.9651 15.3391 12.6667 15.0406 12.6667 14.6724V13.3391C12.6667 10.7618 10.5773 8.67244 8 8.67244Z" fill="#23262F"/>
<path fill-rule="evenodd" clip-rule="evenodd" d="M8 7.33927C9.47276 7.33927 10.6667 6.14537 10.6667 4.67261C10.6667 3.19985 9.47276 2.00594 8 2.00594C6.52724 2.00594 5.33333 3.19985 5.33333 4.67261C5.33333 6.14537 6.52724 7.33927 8 7.33927ZM8 8.67261C10.2091 8.67261 12 6.88175 12 4.67261C12 2.46347 10.2091 0.672607 8 0.672607C5.79086 0.672607 4 2.46347 4 4.67261C4 6.88175 5.79086 8.67261 8 8.67261Z" fill="#23262F"/>
</g>
<defs>
<clipPath id="clip0_1092_213">
<rect width="16" height="16" fill="white" transform="translate(0 0.00585938)"/>
</clipPath>
</defs>
</svg>
