<svg width="27" height="17" viewBox="0 0 27 17" fill="none" xmlns="http://www.w3.org/2000/svg">
<path fill-rule="evenodd" clip-rule="evenodd" d="M19.6533 4.44093H22.1098C23.4608 4.44093 24.5662 5.12868 24.5662 5.98644V15.2595C24.5662 16.1131 23.4664 16.805 22.1098 16.805H4.91448C3.55781 16.805 2.45801 16.1131 2.45801 15.2595V5.98644C2.45801 5.12868 3.55114 4.44093 4.91448 4.44093H7.37095C7.37095 2.30702 10.1204 0.577148 13.5121 0.577148C15.1409 0.577148 16.7029 0.984224 17.8546 1.70882C19.0063 2.43342 19.6533 3.41619 19.6533 4.44093ZM13.5121 2.12266C15.5471 2.12266 17.1968 3.16058 17.1968 4.44093H9.82742C9.82742 3.16058 11.4771 2.12266 13.5121 2.12266ZM13.5121 9.85022C10.1204 9.85022 7.37095 8.12034 7.37095 5.98644H9.82742C9.82742 7.26678 11.4771 8.3047 13.5121 8.3047C15.5471 8.3047 17.1968 7.26678 17.1968 5.98644H19.6533C19.6533 8.12034 16.9038 9.85022 13.5121 9.85022Z" fill="#FB6D3A"/>
</svg>
