<svg width="30" height="17" viewBox="0 0 30 17" fill="none" xmlns="http://www.w3.org/2000/svg">
<path fill-rule="evenodd" clip-rule="evenodd" d="M21.342 4.69582H24.0117C25.48 4.69582 26.6814 5.36315 26.6814 6.19543V15.1931C26.6814 16.0213 25.4861 16.6927 24.0117 16.6927H5.32376C3.84932 16.6927 2.65405 16.0213 2.65405 15.1931V6.19543C2.65405 5.36315 3.84207 4.69582 5.32376 4.69582H7.99346C7.99346 2.62528 10.9816 0.946777 14.6677 0.946777C16.4379 0.946777 18.1355 1.34176 19.3871 2.04485C20.6388 2.74793 21.342 3.70151 21.342 4.69582ZM14.6677 2.44639C16.8794 2.44639 18.6723 3.4535 18.6723 4.69582H10.6632C10.6632 3.4535 12.4561 2.44639 14.6677 2.44639ZM14.6677 9.94447C10.9816 9.94447 7.99346 8.26597 7.99346 6.19543H10.6632C10.6632 7.43776 12.4561 8.44486 14.6677 8.44486C16.8794 8.44486 18.6723 7.43776 18.6723 6.19543H21.342C21.342 8.26597 18.3538 9.94447 14.6677 9.94447Z" fill="#FB6D3A"/>
</svg>
