<svg width="27" height="17" viewBox="0 0 27 17" fill="none" xmlns="http://www.w3.org/2000/svg">
<path fill-rule="evenodd" clip-rule="evenodd" d="M19.6533 4.69582H22.1098C23.4608 4.69582 24.5662 5.36314 24.5662 6.19543V15.1931C24.5662 16.0213 23.4664 16.6927 22.1098 16.6927H4.91448C3.55781 16.6927 2.45801 16.0213 2.45801 15.1931V6.19543C2.45801 5.36314 3.55114 4.69582 4.91448 4.69582H7.37095C7.37095 2.62528 10.1204 0.946777 13.5121 0.946777C15.1409 0.946777 16.7029 1.34176 17.8546 2.04485C19.0063 2.74793 19.6533 3.70151 19.6533 4.69582ZM13.5121 2.44639C15.5471 2.44639 17.1968 3.45349 17.1968 4.69582H9.82742C9.82742 3.45349 11.4771 2.44639 13.5121 2.44639ZM13.5121 9.94447C10.1204 9.94447 7.37095 8.26597 7.37095 6.19543H9.82742C9.82742 7.43775 11.4771 8.44485 13.5121 8.44485C15.5471 8.44485 17.1968 7.43775 17.1968 6.19543H19.6533C19.6533 8.26597 16.9038 9.94447 13.5121 9.94447Z" fill="#FB6D3A"/>
</svg>
