<svg width="12" height="13" viewBox="0 0 12 13" fill="none" xmlns="http://www.w3.org/2000/svg">
<path fill-rule="evenodd" clip-rule="evenodd" d="M2.1494 11.6381C2.09105 11.9707 2.41923 12.231 2.70906 12.082L6.00098 10.3901L9.2929 12.082C9.58273 12.231 9.9109 11.9707 9.85255 11.6381L9.23026 8.09095L11.872 5.57347C12.1189 5.33819 11.9911 4.90802 11.6603 4.86104L7.98649 4.33914L6.3484 1.09423C6.20084 0.801924 5.80111 0.801924 5.65355 1.09423L4.01546 4.33914L0.341606 4.86104C0.0108636 4.90802 -0.116937 5.33819 0.129949 5.57347L2.7717 8.09095L2.1494 11.6381ZM5.82785 9.56196L3.06354 10.9827L3.58423 8.01478C3.60878 7.87487 3.56263 7.7316 3.46217 7.63588L1.28204 5.5583L4.32127 5.12655C4.44691 5.1087 4.55661 5.02846 4.61588 4.91106L6.00098 2.16731L7.38607 4.91106C7.44534 5.02846 7.55504 5.1087 7.68068 5.12655L10.7199 5.5583L8.53978 7.63588C8.43933 7.7316 8.39318 7.87487 8.41772 8.01478L8.93841 10.9827L6.1741 9.56196C6.0649 9.50584 5.93705 9.50584 5.82785 9.56196Z" fill="white"/>
</svg>
