<svg width="20" height="12" viewBox="0 0 20 12" fill="none" xmlns="http://www.w3.org/2000/svg">
<path d="M5.5 11.9812C2.46243 11.9812 0 9.37935 0 6.16984C0 2.96034 2.46243 0.358521 5.5 0.358521H16C18.2091 0.358521 20 2.25075 20 4.58494C20 6.91912 18.2091 8.81135 16 8.81135H7.5C6.11929 8.81135 5 7.62871 5 6.16984C5 4.71098 6.11929 3.52833 7.5 3.52833H15V5.11324H7.5C6.94772 5.11324 6.5 5.5863 6.5 6.16984C6.5 6.75339 6.94772 7.22645 7.5 7.22645H16C16.663 7.22645 17.2989 6.94814 17.7678 6.45276C18.2366 5.95739 18.5 5.28551 18.5 4.58494C18.5 3.88436 18.2366 3.21249 17.7678 2.71711C17.2989 2.22173 16.663 1.94343 16 1.94343H5.5C3.29086 1.94343 1.5 3.83566 1.5 6.16984C1.5 8.50403 3.29086 10.3963 5.5 10.3963H15V11.9812H5.5Z" fill="black"/>
</svg>
