<svg width="16" height="16" viewBox="0 0 16 16" fill="none" xmlns="http://www.w3.org/2000/svg">
<path fill-rule="evenodd" clip-rule="evenodd" d="M13.3332 3.33919H2.6665C2.29831 3.33919 1.99984 3.63767 1.99984 4.00586V12.0059C1.99984 12.3741 2.29831 12.6725 2.6665 12.6725H13.3332C13.7014 12.6725 13.9998 12.374 13.9998 12.0059V4.00586C13.9998 3.63767 13.7014 3.33919 13.3332 3.33919ZM2.6665 2.00586C1.56193 2.00586 0.666504 2.90129 0.666504 4.00586V12.0059C0.666504 13.1104 1.56193 14.0059 2.6665 14.0059H13.3332C14.4377 14.0059 15.3332 13.1104 15.3332 12.0059V4.00586C15.3332 2.90129 14.4377 2.00586 13.3332 2.00586H2.6665Z" fill="#777E91"/>
<path d="M5.3335 10.3394C5.3335 10.8916 4.88578 11.3394 4.3335 11.3394C3.78121 11.3394 3.3335 10.8916 3.3335 10.3394C3.3335 9.78707 3.78121 9.33936 4.3335 9.33936C4.88578 9.33936 5.3335 9.78707 5.3335 10.3394Z" fill="#777E91"/>
<path d="M8.6665 10.3394C8.6665 10.8916 8.21879 11.3394 7.6665 11.3394C7.11422 11.3394 6.6665 10.8916 6.6665 10.3394C6.6665 9.78707 7.11422 9.33936 7.6665 9.33936C8.21879 9.33936 8.6665 9.78707 8.6665 10.3394Z" fill="#777E91"/>
<path d="M0.666504 5.33936H15.3332V6.67269H0.666504V5.33936Z" fill="#777E91"/>
</svg>
