<svg width="12" height="13" viewBox="0 0 12 13" fill="none" xmlns="http://www.w3.org/2000/svg">
<path fill-rule="evenodd" clip-rule="evenodd" d="M2.14965 11.6381C2.0913 11.9707 2.41947 12.231 2.7093 12.082L6.00122 10.3901L9.29314 12.082C9.58297 12.231 9.91114 11.9707 9.85279 11.6381L9.2305 8.09095L11.8722 5.57347C12.1191 5.33819 11.9913 4.90802 11.6606 4.86104L7.98673 4.33914L6.34864 1.09423C6.20108 0.801924 5.80136 0.801924 5.6538 1.09423L4.01571 4.33914L0.34185 4.86104C0.0111077 4.90802 -0.116692 5.33819 0.130193 5.57347L2.77194 8.09095L2.14965 11.6381ZM5.8281 9.56196L3.06379 10.9827L3.58448 8.01478C3.60902 7.87487 3.56287 7.7316 3.46242 7.63588L1.28229 5.5583L4.32152 5.12655C4.44715 5.1087 4.55686 5.02846 4.61612 4.91106L6.00122 2.16731L7.38632 4.91106C7.44559 5.02846 7.55529 5.1087 7.68093 5.12655L10.7202 5.5583L8.54003 7.63588C8.43957 7.7316 8.39342 7.87487 8.41796 8.01478L8.93866 10.9827L6.17434 9.56196C6.06515 9.50584 5.93729 9.50584 5.8281 9.56196Z" fill="white"/>
</svg>
