<svg width="12" height="13" viewBox="0 0 12 13" fill="none" xmlns="http://www.w3.org/2000/svg">
<path fill-rule="evenodd" clip-rule="evenodd" d="M2.14959 11.6381C2.09124 11.9707 2.41941 12.231 2.70924 12.082L6.00116 10.3901L9.29308 12.082C9.58291 12.231 9.91108 11.9707 9.85273 11.6381L9.23044 8.09095L11.8722 5.57347C12.1191 5.33819 11.9913 4.90802 11.6605 4.86104L7.98667 4.33914L6.34858 1.09423C6.20102 0.801924 5.8013 0.801924 5.65374 1.09423L4.01565 4.33914L0.341789 4.86104C0.0110467 4.90802 -0.116753 5.33819 0.130132 5.57347L2.77188 8.09095L2.14959 11.6381ZM5.82804 9.56196L3.06372 10.9827L3.58442 8.01478C3.60896 7.87487 3.56281 7.7316 3.46236 7.63588L1.28223 5.5583L4.32146 5.12655C4.44709 5.1087 4.5568 5.02846 4.61606 4.91106L6.00116 2.16731L7.38626 4.91106C7.44552 5.02846 7.55523 5.1087 7.68086 5.12655L10.7201 5.5583L8.53996 7.63588C8.43951 7.7316 8.39336 7.87487 8.4179 8.01478L8.93859 10.9827L6.17428 9.56196C6.06509 9.50584 5.93723 9.50584 5.82804 9.56196Z" fill="white"/>
</svg>
