<svg width="16" height="17" viewBox="0 0 16 17" fill="none" xmlns="http://www.w3.org/2000/svg">
<mask id="mask0_1105_3958" style="mask-type:alpha" maskUnits="userSpaceOnUse" x="0" y="0" width="16" height="17">
<path fill-rule="evenodd" clip-rule="evenodd" d="M8 15.5C11.866 15.5 15 12.366 15 8.5C15 4.63401 11.866 1.5 8 1.5C4.13401 1.5 1 4.63401 1 8.5C1 12.366 4.13401 15.5 8 15.5ZM8 16.5C12.4183 16.5 16 12.9183 16 8.5C16 4.08172 12.4183 0.5 8 0.5C3.58172 0.5 0 4.08172 0 8.5C0 12.9183 3.58172 16.5 8 16.5Z" fill="black"/>
<path fill-rule="evenodd" clip-rule="evenodd" d="M4.28479 10.0672C4.52382 9.92893 4.82969 10.0106 4.96796 10.2496C5.57388 11.2971 6.70516 12 8.00003 12C9.29489 12 10.4262 11.2971 11.0321 10.2496C11.1704 10.0106 11.4762 9.92893 11.7153 10.0672C11.9543 10.2055 12.036 10.5113 11.8977 10.7504C11.1204 12.0941 9.66629 13 8.00003 13C6.33376 13 4.87967 12.0941 4.10235 10.7504C3.96408 10.5113 4.04576 10.2055 4.28479 10.0672Z" fill="black"/>
<path d="M7 7C7 7.82843 6.55228 8.5 6 8.5C5.44772 8.5 5 7.82843 5 7C5 6.17157 5.44772 5.5 6 5.5C6.55228 5.5 7 6.17157 7 7Z" fill="black"/>
<path d="M11 7C11 7.82843 10.5523 8.5 10 8.5C9.44772 8.5 9 7.82843 9 7C9 6.17157 9.44772 5.5 10 5.5C10.5523 5.5 11 6.17157 11 7Z" fill="black"/>
</mask>
<g mask="url(#mask0_1105_3958)">
<rect y="0.5" width="16" height="16" fill="#B5B5BD"/>
</g>
</svg>
