<svg width="21" height="20" viewBox="0 0 21 20" fill="none" xmlns="http://www.w3.org/2000/svg">
<path fill-rule="evenodd" clip-rule="evenodd" d="M1.71423 9.99984C1.71423 5.39984 5.54566 1.6665 10.2771 1.6665C15.0171 1.6665 18.8571 5.39984 18.8571 9.99984C18.8571 14.5998 15.0171 18.3332 10.2771 18.3332C5.54566 18.3332 1.71423 14.5998 1.71423 9.99984ZM13.6885 6.6665H16.2171C15.3942 5.2915 14.0828 4.22484 12.5057 3.69984C13.0199 4.62484 13.4142 5.62484 13.6885 6.6665ZM10.2857 3.3665C10.9971 4.3665 11.5542 5.47484 11.9228 6.6665H8.64852C9.01709 5.47484 9.57423 4.3665 10.2857 3.3665ZM3.42852 9.99984C3.42852 10.5748 3.51423 11.1332 3.65138 11.6665H6.54852C6.47995 11.1165 6.42852 10.5665 6.42852 9.99984C6.42852 9.43317 6.47995 8.88317 6.54852 8.33317H3.65138C3.51423 8.8665 3.42852 9.42484 3.42852 9.99984ZM4.35423 13.3332H6.8828C7.15709 14.3748 7.55138 15.3748 8.06566 16.2998C6.48852 15.7748 5.17709 14.7165 4.35423 13.3332ZM4.35423 6.6665H6.8828C7.15709 5.62484 7.55138 4.62484 8.06566 3.69984C6.48852 4.22484 5.17709 5.28317 4.35423 6.6665ZM10.2857 16.6332C9.57423 15.6332 9.01709 14.5248 8.64852 13.3332H11.9228C11.5542 14.5248 10.9971 15.6332 10.2857 16.6332ZM8.1428 9.99984C8.1428 10.5665 8.2028 11.1165 8.27995 11.6665H12.2914C12.3685 11.1165 12.4285 10.5665 12.4285 9.99984C12.4285 9.43317 12.3685 8.87484 12.2914 8.33317H8.27995C8.2028 8.87484 8.1428 9.43317 8.1428 9.99984ZM12.5057 16.2998C13.0199 15.3748 13.4142 14.3748 13.6885 13.3332H16.2171C15.3942 14.7082 14.0828 15.7748 12.5057 16.2998ZM14.1428 9.99984C14.1428 10.5665 14.0914 11.1165 14.0228 11.6665H16.9199C17.0571 11.1332 17.1428 10.5748 17.1428 9.99984C17.1428 9.42484 17.0571 8.8665 16.9199 8.33317H14.0228C14.0914 8.88317 14.1428 9.43317 14.1428 9.99984Z" fill="#141416"/>
</svg>
