<svg width="16" height="16" viewBox="0 0 16 16" fill="none" xmlns="http://www.w3.org/2000/svg">
<path fill-rule="evenodd" clip-rule="evenodd" d="M13.3334 3.33333H2.66669C2.2985 3.33333 2.00002 3.63181 2.00002 4V12C2.00002 12.3682 2.2985 12.6667 2.66669 12.6667H13.3334C13.7015 12.6667 14 12.3682 14 12V4C14 3.63181 13.7015 3.33333 13.3334 3.33333ZM2.66669 2C1.56212 2 0.666687 2.89543 0.666687 4V12C0.666687 13.1046 1.56212 14 2.66669 14H13.3334C14.4379 14 15.3334 13.1046 15.3334 12V4C15.3334 2.89543 14.4379 2 13.3334 2H2.66669Z" fill="black"/>
<path d="M5.33331 10.3335C5.33331 10.8858 4.8856 11.3335 4.33331 11.3335C3.78103 11.3335 3.33331 10.8858 3.33331 10.3335C3.33331 9.78121 3.78103 9.3335 4.33331 9.3335C4.8856 9.3335 5.33331 9.78121 5.33331 10.3335Z" fill="black"/>
<path d="M8.66669 10.3335C8.66669 10.8858 8.21897 11.3335 7.66669 11.3335C7.1144 11.3335 6.66669 10.8858 6.66669 10.3335C6.66669 9.78121 7.1144 9.3335 7.66669 9.3335C8.21897 9.3335 8.66669 9.78121 8.66669 10.3335Z" fill="black"/>
<path d="M0.666687 5.3335H15.3334V6.66683H0.666687V5.3335Z" fill="black"/>
</svg>
