<svg width="17" height="16" viewBox="0 0 17 16" fill="none" xmlns="http://www.w3.org/2000/svg">
<mask id="mask0_1029_2010" style="mask-type:alpha" maskUnits="userSpaceOnUse" x="0" y="0" width="17" height="16">
<path fill-rule="evenodd" clip-rule="evenodd" d="M8.97168 15C12.8377 15 15.9717 11.866 15.9717 8C15.9717 4.13401 12.8377 1 8.97168 1C5.10569 1 1.97168 4.13401 1.97168 8C1.97168 11.866 5.10569 15 8.97168 15ZM8.97168 16C13.39 16 16.9717 12.4183 16.9717 8C16.9717 3.58172 13.39 0 8.97168 0C4.5534 0 0.97168 3.58172 0.97168 8C0.97168 12.4183 4.5534 16 8.97168 16Z" fill="black"/>
<path fill-rule="evenodd" clip-rule="evenodd" d="M5.25647 9.5672C5.4955 9.42893 5.80137 9.51061 5.93964 9.74964C6.54556 10.7971 7.67684 11.5 8.97171 11.5C10.2666 11.5 11.3979 10.7971 12.0038 9.74964C12.142 9.51061 12.4479 9.42893 12.6869 9.5672C12.926 9.70547 13.0077 10.0113 12.8694 10.2504C12.0921 11.5941 10.638 12.5 8.97171 12.5C7.30544 12.5 5.85135 11.5941 5.07403 10.2504C4.93576 10.0113 5.01744 9.70547 5.25647 9.5672Z" fill="black"/>
<path d="M7.97168 6.5C7.97168 7.32843 7.52396 8 6.97168 8C6.41939 8 5.97168 7.32843 5.97168 6.5C5.97168 5.67157 6.41939 5 6.97168 5C7.52396 5 7.97168 5.67157 7.97168 6.5Z" fill="black"/>
<path d="M11.9717 6.5C11.9717 7.32843 11.524 8 10.9717 8C10.4194 8 9.97168 7.32843 9.97168 6.5C9.97168 5.67157 10.4194 5 10.9717 5C11.524 5 11.9717 5.67157 11.9717 6.5Z" fill="black"/>
</mask>
<g mask="url(#mask0_1029_2010)">
<rect x="0.97168" width="16" height="16" fill="#B5B5BD"/>
</g>
</svg>
