<svg width="27" height="8" viewBox="0 0 27 8" fill="none" xmlns="http://www.w3.org/2000/svg">
<path fill-rule="evenodd" clip-rule="evenodd" d="M19.6533 2.12335H22.1098C23.4608 2.12335 24.5662 2.42187 24.5662 2.79417V6.81912C24.5662 7.18961 23.4664 7.48994 22.1098 7.48994H4.91448C3.55781 7.48994 2.45801 7.18961 2.45801 6.81912V2.79417C2.45801 2.42187 3.55114 2.12335 4.91448 2.12335H7.37095C7.37095 1.19713 10.1204 0.446289 13.5121 0.446289C15.1409 0.446289 16.7029 0.622979 17.8546 0.937489C19.0063 1.252 19.6533 1.67857 19.6533 2.12335ZM13.5121 1.11711C15.5471 1.11711 17.1968 1.56762 17.1968 2.12335H9.82742C9.82742 1.56762 11.4771 1.11711 13.5121 1.11711ZM13.5121 4.47124C10.1204 4.47124 7.37095 3.72039 7.37095 2.79417H9.82742C9.82742 3.3499 11.4771 3.80041 13.5121 3.80041C15.5471 3.80041 17.1968 3.3499 17.1968 2.79417H19.6533C19.6533 3.72039 16.9038 4.47124 13.5121 4.47124Z" fill="#FB6D3A"/>
</svg>
