<svg width="24" height="25" viewBox="0 0 24 25" fill="none" xmlns="http://www.w3.org/2000/svg">
<path fill-rule="evenodd" clip-rule="evenodd" d="M12 13.5C8.13401 13.5 5 16.634 5 20.5V22.5C5 23.0523 4.55228 23.5 4 23.5C3.44772 23.5 3 23.0523 3 22.5V20.5C3 15.5294 7.02944 11.5 12 11.5C16.9706 11.5 21 15.5294 21 20.5V22.5C21 23.0523 20.5523 23.5 20 23.5C19.4477 23.5 19 23.0523 19 22.5V20.5C19 16.634 15.866 13.5 12 13.5Z" fill="#777E91"/>
<path fill-rule="evenodd" clip-rule="evenodd" d="M12 11.5C14.2091 11.5 16 9.70914 16 7.5C16 5.29086 14.2091 3.5 12 3.5C9.79086 3.5 8 5.29086 8 7.5C8 9.70914 9.79086 11.5 12 11.5ZM12 13.5C15.3137 13.5 18 10.8137 18 7.5C18 4.18629 15.3137 1.5 12 1.5C8.68629 1.5 6 4.18629 6 7.5C6 10.8137 8.68629 13.5 12 13.5Z" fill="#777E91"/>
</svg>
