<svg width="27" height="16" viewBox="0 0 27 16" fill="none" xmlns="http://www.w3.org/2000/svg">
<path fill-rule="evenodd" clip-rule="evenodd" d="M19.6543 4.291H22.1107C23.4618 4.291 24.5672 4.92555 24.5672 5.71697V14.2728C24.5672 15.0603 23.4674 15.6988 22.1107 15.6988H4.91545C3.55878 15.6988 2.45898 15.0603 2.45898 14.2728V5.71697C2.45898 4.92555 3.55211 4.291 4.91545 4.291H7.37192C7.37192 2.32214 10.1214 0.726074 13.5131 0.726074C15.1418 0.726074 16.7039 1.10166 17.8556 1.77022C19.0073 2.43877 19.6543 3.34552 19.6543 4.291ZM13.5131 2.15204C15.5481 2.15204 17.1978 3.10969 17.1978 4.291H9.82839C9.82839 3.10969 11.4781 2.15204 13.5131 2.15204ZM13.5131 9.28189C10.1214 9.28189 7.37192 7.68582 7.37192 5.71697H9.82839C9.82839 6.89828 11.4781 7.85592 13.5131 7.85592C15.5481 7.85592 17.1978 6.89828 17.1978 5.71697H19.6543C19.6543 7.68582 16.9048 9.28189 13.5131 9.28189Z" fill="#FB6D3A"/>
</svg>
