<svg width="30" height="17" viewBox="0 0 30 17" fill="none" xmlns="http://www.w3.org/2000/svg">
<path fill-rule="evenodd" clip-rule="evenodd" d="M21.3422 4.69582H24.0119C25.4803 4.69582 26.6816 5.36315 26.6816 6.19543V15.1931C26.6816 16.0213 25.4864 16.6927 24.0119 16.6927H5.324C3.84956 16.6927 2.6543 16.0213 2.6543 15.1931V6.19543C2.6543 5.36315 3.84232 4.69582 5.324 4.69582H7.99371C7.99371 2.62528 10.9819 0.946777 14.668 0.946777C16.4381 0.946777 18.1357 1.34176 19.3874 2.04485C20.6391 2.74793 21.3422 3.70151 21.3422 4.69582ZM14.668 2.44639C16.8796 2.44639 18.6725 3.4535 18.6725 4.69582H10.6634C10.6634 3.4535 12.4563 2.44639 14.668 2.44639ZM14.668 9.94447C10.9819 9.94447 7.99371 8.26597 7.99371 6.19543H10.6634C10.6634 7.43776 12.4563 8.44486 14.668 8.44486C16.8796 8.44486 18.6725 7.43776 18.6725 6.19543H21.3422C21.3422 8.26597 18.3541 9.94447 14.668 9.94447Z" fill="#FB6D3A"/>
</svg>
