<svg width="17" height="17" viewBox="0 0 17 17" fill="none" xmlns="http://www.w3.org/2000/svg">
<mask id="mask0_1029_2217" style="mask-type:alpha" maskUnits="userSpaceOnUse" x="0" y="0" width="17" height="17">
<path fill-rule="evenodd" clip-rule="evenodd" d="M3.17789 12.394C3.38828 12.6049 3.49363 12.8988 3.46523 13.1954C3.40159 13.8601 3.25502 14.5519 3.06677 15.1945C4.46166 14.8721 5.31358 14.4981 5.70082 14.3019C5.92062 14.1905 6.17381 14.1642 6.41182 14.228C7.06966 14.4044 7.77076 14.5 8.5 14.5C12.4956 14.5 15.5 11.6925 15.5 8.5C15.5 5.30754 12.4956 2.5 8.5 2.5C4.5044 2.5 1.5 5.30754 1.5 8.5C1.5 9.96809 2.1173 11.3304 3.17789 12.394ZM2.68489 16.2989C2.67816 16.3003 2.67142 16.3016 2.66466 16.3029C2.57283 16.321 2.47922 16.3388 2.38382 16.3563C2.25 16.3808 2.11264 16.4047 1.97172 16.4277C1.77271 16.4603 1.62037 16.2521 1.69898 16.0664C1.75034 15.9451 1.80097 15.8179 1.8503 15.6861C1.88164 15.6023 1.91245 15.5167 1.94259 15.4294C1.94389 15.4256 1.94518 15.4219 1.94648 15.4181C2.19422 14.6984 2.39596 13.8711 2.46979 13.1001C1.24306 11.8699 0.5 10.2609 0.5 8.5C0.5 4.63401 4.08172 1.5 8.5 1.5C12.9183 1.5 16.5 4.63401 16.5 8.5C16.5 12.366 12.9183 15.5 8.5 15.5C7.68324 15.5 6.89508 15.3929 6.15284 15.1939C5.63337 15.4571 4.51434 15.9363 2.68489 16.2989Z" fill="black"/>
</mask>
<g mask="url(#mask0_1029_2217)">
<rect x="0.5" y="0.5" width="16" height="16" fill="white"/>
</g>
</svg>
