<svg width="16" height="16" viewBox="0 0 16 16" fill="none" xmlns="http://www.w3.org/2000/svg">
<path fill-rule="evenodd" clip-rule="evenodd" d="M13.3334 3.33919H2.66675C2.29856 3.33919 2.00008 3.63767 2.00008 4.00586V12.0059C2.00008 12.374 2.29856 12.6725 2.66675 12.6725H13.3334C13.7016 12.6725 14.0001 12.374 14.0001 12.0059V4.00586C14.0001 3.63767 13.7016 3.33919 13.3334 3.33919ZM2.66675 2.00586C1.56218 2.00586 0.666748 2.90129 0.666748 4.00586V12.0059C0.666748 13.1104 1.56218 14.0059 2.66675 14.0059H13.3334C14.438 14.0059 15.3334 13.1104 15.3334 12.0059V4.00586C15.3334 2.90129 14.438 2.00586 13.3334 2.00586H2.66675Z" fill="#777E91"/>
<path d="M5.33325 10.3394C5.33325 10.8916 4.88554 11.3394 4.33325 11.3394C3.78097 11.3394 3.33325 10.8916 3.33325 10.3394C3.33325 9.78707 3.78097 9.33936 4.33325 9.33936C4.88554 9.33936 5.33325 9.78707 5.33325 10.3394Z" fill="#777E91"/>
<path d="M8.66675 10.3394C8.66675 10.8916 8.21903 11.3394 7.66675 11.3394C7.11446 11.3394 6.66675 10.8916 6.66675 10.3394C6.66675 9.78707 7.11446 9.33936 7.66675 9.33936C8.21903 9.33936 8.66675 9.78707 8.66675 10.3394Z" fill="#777E91"/>
<path d="M0.666748 5.33936H15.3334V6.67269H0.666748V5.33936Z" fill="#777E91"/>
</svg>
