<svg width="16" height="16" viewBox="0 0 16 16" fill="none" xmlns="http://www.w3.org/2000/svg">
<g clip-path="url(#clip0_1103_2858)">
<path fill-rule="evenodd" clip-rule="evenodd" d="M8 8.67269C5.42267 8.67269 3.33333 10.762 3.33333 13.3394V14.6727C3.33333 15.0409 3.03486 15.3394 2.66667 15.3394C2.29848 15.3394 2 15.0409 2 14.6727V13.3394C2 10.0256 4.68629 7.33936 8 7.33936C11.3137 7.33936 14 10.0256 14 13.3394V14.6727C14 15.0409 13.7015 15.3394 13.3333 15.3394C12.9651 15.3394 12.6667 15.0409 12.6667 14.6727V13.3394C12.6667 10.762 10.5773 8.67269 8 8.67269Z" fill="#777E91"/>
<path fill-rule="evenodd" clip-rule="evenodd" d="M8 7.33903C9.47276 7.33903 10.6667 6.14512 10.6667 4.67236C10.6667 3.1996 9.47276 2.0057 8 2.0057C6.52724 2.0057 5.33333 3.1996 5.33333 4.67236C5.33333 6.14512 6.52724 7.33903 8 7.33903ZM8 8.67236C10.2091 8.67236 12 6.8815 12 4.67236C12 2.46322 10.2091 0.672363 8 0.672363C5.79086 0.672363 4 2.46322 4 4.67236C4 6.8815 5.79086 8.67236 8 8.67236Z" fill="#777E91"/>
</g>
<defs>
<clipPath id="clip0_1103_2858">
<rect width="16" height="16" fill="white" transform="translate(0 0.00585938)"/>
</clipPath>
</defs>
</svg>
