<svg width="16" height="16" viewBox="0 0 16 16" fill="none" xmlns="http://www.w3.org/2000/svg">
<g clip-path="url(#clip0_1103_2576)">
<path d="M14 12.0214C14 12.3467 13.7362 12.6105 13.4109 12.6105H2.58915C2.26377 12.6105 2 12.3467 2 12.0214C2 11.696 2.26377 11.4322 2.58915 11.4322H2.6V7.32645C2.6 4.38778 5.018 2.00586 8 2.00586C10.982 2.00586 13.4 4.38778 13.4 7.32645V11.4322H13.4109C13.7362 11.4322 14 11.696 14 12.0214ZM3.8 11.4322H12.2V7.32645C12.2 5.03879 10.3196 3.18415 8 3.18415C5.6804 3.18415 3.8 5.03879 3.8 7.32645V11.4322ZM6.83101 14.1226C6.48109 13.6953 6.94772 13.1997 7.5 13.1997H8.5C9.05229 13.1997 9.51891 13.6953 9.16899 14.1226C9.13524 14.1638 9.0991 14.2034 9.06066 14.2411C8.77936 14.5174 8.39782 14.6725 8 14.6725C7.60218 14.6725 7.22064 14.5174 6.93934 14.2411C6.9009 14.2034 6.86476 14.1638 6.83101 14.1226Z" fill="#777E91"/>
</g>
<defs>
<clipPath id="clip0_1103_2576">
<rect width="16" height="16" fill="white" transform="translate(0 0.00585938)"/>
</clipPath>
</defs>
</svg>
