<svg width="30" height="17" viewBox="0 0 30 17" fill="none" xmlns="http://www.w3.org/2000/svg">
<path fill-rule="evenodd" clip-rule="evenodd" d="M21.3413 4.69582H24.011C25.4793 4.69582 26.6807 5.36315 26.6807 6.19543V15.1931C26.6807 16.0213 25.4854 16.6927 24.011 16.6927H5.32303C3.84859 16.6927 2.65332 16.0213 2.65332 15.1931V6.19543C2.65332 5.36315 3.84134 4.69582 5.32303 4.69582H7.99273C7.99273 2.62528 10.9809 0.946777 14.667 0.946777C16.4371 0.946777 18.1347 1.34176 19.3864 2.04485C20.6381 2.74793 21.3413 3.70151 21.3413 4.69582ZM14.667 2.44639C16.8786 2.44639 18.6716 3.4535 18.6716 4.69582H10.6624C10.6624 3.4535 12.4553 2.44639 14.667 2.44639ZM14.667 9.94447C10.9809 9.94447 7.99273 8.26597 7.99273 6.19543H10.6624C10.6624 7.43776 12.4553 8.44486 14.667 8.44486C16.8786 8.44486 18.6716 7.43776 18.6716 6.19543H21.3413C21.3413 8.26597 18.3531 9.94447 14.667 9.94447Z" fill="#FB6D3A"/>
</svg>
