<svg width="16" height="16" viewBox="0 0 16 16" fill="none" xmlns="http://www.w3.org/2000/svg">
<path fill-rule="evenodd" clip-rule="evenodd" d="M8 8.66683C5.42267 8.66683 3.33333 10.7562 3.33333 13.3335V14.6668C3.33333 15.035 3.03486 15.3335 2.66667 15.3335C2.29848 15.3335 2 15.035 2 14.6668V13.3335C2 10.0198 4.68629 7.3335 8 7.3335C11.3137 7.3335 14 10.0198 14 13.3335V14.6668C14 15.035 13.7015 15.3335 13.3333 15.3335C12.9651 15.3335 12.6667 15.035 12.6667 14.6668V13.3335C12.6667 10.7562 10.5773 8.66683 8 8.66683Z" fill="#777E91"/>
<path fill-rule="evenodd" clip-rule="evenodd" d="M8 7.33317C9.47276 7.33317 10.6667 6.13926 10.6667 4.6665C10.6667 3.19374 9.47276 1.99984 8 1.99984C6.52724 1.99984 5.33333 3.19374 5.33333 4.6665C5.33333 6.13926 6.52724 7.33317 8 7.33317ZM8 8.6665C10.2091 8.6665 12 6.87564 12 4.6665C12 2.45736 10.2091 0.666504 8 0.666504C5.79086 0.666504 4 2.45736 4 4.6665C4 6.87564 5.79086 8.6665 8 8.6665Z" fill="#777E91"/>
</svg>
