<svg width="16" height="16" viewBox="0 0 16 16" fill="none" xmlns="http://www.w3.org/2000/svg">
<path fill-rule="evenodd" clip-rule="evenodd" d="M13.3334 3.33333H2.66669C2.2985 3.33333 2.00002 3.63181 2.00002 4V12C2.00002 12.3682 2.2985 12.6667 2.66669 12.6667H13.3334C13.7015 12.6667 14 12.3682 14 12V4C14 3.63181 13.7015 3.33333 13.3334 3.33333ZM2.66669 2C1.56212 2 0.666687 2.89543 0.666687 4V12C0.666687 13.1046 1.56212 14 2.66669 14H13.3334C14.4379 14 15.3334 13.1046 15.3334 12V4C15.3334 2.89543 14.4379 2 13.3334 2H2.66669Z" fill="#777E91"/>
<path d="M5.33331 10.333C5.33331 10.8853 4.8856 11.333 4.33331 11.333C3.78103 11.333 3.33331 10.8853 3.33331 10.333C3.33331 9.78072 3.78103 9.33301 4.33331 9.33301C4.8856 9.33301 5.33331 9.78072 5.33331 10.333Z" fill="#777E91"/>
<path d="M8.66669 10.333C8.66669 10.8853 8.21897 11.333 7.66669 11.333C7.1144 11.333 6.66669 10.8853 6.66669 10.333C6.66669 9.78072 7.1144 9.33301 7.66669 9.33301C8.21897 9.33301 8.66669 9.78072 8.66669 10.333Z" fill="#777E91"/>
<path d="M0.666687 5.33301H15.3334V6.66634H0.666687V5.33301Z" fill="#777E91"/>
</svg>
