<svg width="99" height="10" viewBox="0 0 99 10" fill="none" xmlns="http://www.w3.org/2000/svg">
<path d="M95.1106 2.44966V4.15366H97.8586V5.73766H95.1106V7.58566H98.2186V9.22966H93.0586V0.805664H98.2186V2.44966H95.1106Z" fill="black"/>
<path d="M89.3918 7.64566H92.0798V9.22966H87.3398V0.805664H89.3918V7.64566Z" fill="black"/>
<path d="M83.7355 7.74166H80.5915L80.0874 9.22966H77.9395L80.9874 0.805664H83.3634L86.4115 9.22966H84.2394L83.7355 7.74166ZM83.2075 6.15766L82.1635 3.07366L81.1315 6.15766H83.2075Z" fill="black"/>
<path d="M77.0166 0.805664V9.22966H74.9646V4.17766L73.0806 9.22966H71.4246L69.5286 4.16566V9.22966H67.4766V0.805664H69.9006L72.2646 6.63766L74.6046 0.805664H77.0166Z" fill="black"/>
<path d="M63.0364 2.44966V4.15366H65.7844V5.73766H63.0364V7.58566H66.1444V9.22966H60.9844V0.805664H66.1444V2.44966H63.0364Z" fill="black"/>
<path d="M59.9059 0.805664V2.44966H56.4739V4.22566H59.0419V5.82166H56.4739V9.22966H54.4219V0.805664H59.9059Z" fill="black"/>
<path d="M48.3468 9.22966L46.5948 6.04966H46.1028V9.22966H44.0508V0.805664H47.4948C48.1588 0.805664 48.7228 0.921664 49.1868 1.15366C49.6588 1.38566 50.0108 1.70566 50.2428 2.11366C50.4748 2.51366 50.5908 2.96166 50.5908 3.45766C50.5908 4.01766 50.4308 4.51766 50.1108 4.95766C49.7988 5.39766 49.3348 5.70966 48.7188 5.89366L50.6628 9.22966H48.3468ZM46.1028 4.59766H47.3748C47.7508 4.59766 48.0308 4.50566 48.2148 4.32166C48.4068 4.13766 48.5028 3.87766 48.5028 3.54166C48.5028 3.22166 48.4068 2.96966 48.2148 2.78566C48.0308 2.60166 47.7508 2.50966 47.3748 2.50966H46.1028V4.59766Z" fill="black"/>
<path d="M38.6015 9.31355C37.8095 9.31355 37.0815 9.12955 36.4175 8.76155C35.7615 8.39355 35.2375 7.88155 34.8455 7.22555C34.4615 6.56155 34.2695 5.81755 34.2695 4.99355C34.2695 4.16955 34.4615 3.42955 34.8455 2.77355C35.2375 2.11755 35.7615 1.60555 36.4175 1.23755C37.0815 0.869547 37.8095 0.685547 38.6015 0.685547C39.3935 0.685547 40.1175 0.869547 40.7735 1.23755C41.4375 1.60555 41.9575 2.11755 42.3335 2.77355C42.7175 3.42955 42.9095 4.16955 42.9095 4.99355C42.9095 5.81755 42.7175 6.56155 42.3335 7.22555C41.9495 7.88155 41.4295 8.39355 40.7735 8.76155C40.1175 9.12955 39.3935 9.31355 38.6015 9.31355ZM38.6015 7.44155C39.2735 7.44155 39.8095 7.21755 40.2095 6.76955C40.6175 6.32155 40.8215 5.72955 40.8215 4.99355C40.8215 4.24955 40.6175 3.65755 40.2095 3.21755C39.8095 2.76955 39.2735 2.54555 38.6015 2.54555C37.9215 2.54555 37.3775 2.76555 36.9695 3.20555C36.5695 3.64555 36.3695 4.24155 36.3695 4.99355C36.3695 5.73755 36.5695 6.33355 36.9695 6.78155C37.3775 7.22155 37.9215 7.44155 38.6015 7.44155Z" fill="black"/>
<path d="M27.634 2.44966V4.15366H30.382V5.73766H27.634V7.58566H30.742V9.22966H25.582V0.805664H30.742V2.44966H27.634Z" fill="black"/>
<path d="M21.9153 7.64566H24.6033V9.22966H19.8633V0.805664H21.9153V7.64566Z" fill="black"/>
<path d="M16.2589 7.74166H13.1149L12.6109 9.22966H10.4629L13.5109 0.805664H15.8869L18.9349 9.22966H16.7629L16.2589 7.74166ZM15.7309 6.15766L14.6869 3.07366L13.6549 6.15766H15.7309Z" fill="black"/>
<path d="M9.54 0.805664V9.22966H7.488V4.17766L5.604 9.22966H3.948L2.052 4.16566V9.22966H0V0.805664H2.424L4.788 6.63766L7.128 0.805664H9.54Z" fill="black"/>
</svg>
