<svg width="99" height="10" viewBox="0 0 99 10" fill="none" xmlns="http://www.w3.org/2000/svg">
<path d="M95.6106 2.43111V4.13511H98.3586V5.71911H95.6106V7.56711H98.7186V9.21111H93.5586V0.787109H98.7186V2.43111H95.6106Z" fill="black"/>
<path d="M89.8918 7.62711H92.5798V9.21111H87.8398V0.787109H89.8918V7.62711Z" fill="black"/>
<path d="M84.2355 7.72311H81.0915L80.5874 9.21111H78.4395L81.4874 0.787109H83.8634L86.9115 9.21111H84.7394L84.2355 7.72311ZM83.7075 6.13911L82.6635 3.05511L81.6315 6.13911H83.7075Z" fill="black"/>
<path d="M77.5166 0.787109V9.21111H75.4646V4.15911L73.5806 9.21111H71.9246L70.0286 4.14711V9.21111H67.9766V0.787109H70.4006L72.7646 6.61911L75.1046 0.787109H77.5166Z" fill="black"/>
<path d="M63.5364 2.43111V4.13511H66.2844V5.71911H63.5364V7.56711H66.6444V9.21111H61.4844V0.787109H66.6444V2.43111H63.5364Z" fill="black"/>
<path d="M60.4059 0.787109V2.43111H56.9739V4.20711H59.5419V5.80311H56.9739V9.21111H54.9219V0.787109H60.4059Z" fill="black"/>
<path d="M48.8468 9.21111L47.0948 6.03111H46.6028V9.21111H44.5508V0.787109H47.9948C48.6588 0.787109 49.2228 0.903109 49.6868 1.13511C50.1588 1.36711 50.5108 1.68711 50.7428 2.09511C50.9748 2.49511 51.0908 2.94311 51.0908 3.43911C51.0908 3.99911 50.9308 4.49911 50.6108 4.93911C50.2988 5.37911 49.8348 5.69111 49.2188 5.87511L51.1628 9.21111H48.8468ZM46.6028 4.57911H47.8748C48.2508 4.57911 48.5308 4.48711 48.7148 4.30311C48.9068 4.11911 49.0028 3.85911 49.0028 3.52311C49.0028 3.20311 48.9068 2.95111 48.7148 2.76711C48.5308 2.58311 48.2508 2.49111 47.8748 2.49111H46.6028V4.57911Z" fill="black"/>
<path d="M39.1015 9.29499C38.3095 9.29499 37.5815 9.11099 36.9175 8.74299C36.2615 8.37499 35.7375 7.86299 35.3455 7.20699C34.9615 6.54299 34.7695 5.79899 34.7695 4.97499C34.7695 4.15099 34.9615 3.41099 35.3455 2.75499C35.7375 2.09899 36.2615 1.58699 36.9175 1.21899C37.5815 0.850992 38.3095 0.666992 39.1015 0.666992C39.8935 0.666992 40.6175 0.850992 41.2735 1.21899C41.9375 1.58699 42.4575 2.09899 42.8335 2.75499C43.2175 3.41099 43.4095 4.15099 43.4095 4.97499C43.4095 5.79899 43.2175 6.54299 42.8335 7.20699C42.4495 7.86299 41.9295 8.37499 41.2735 8.74299C40.6175 9.11099 39.8935 9.29499 39.1015 9.29499ZM39.1015 7.42299C39.7735 7.42299 40.3095 7.19899 40.7095 6.75099C41.1175 6.30299 41.3215 5.71099 41.3215 4.97499C41.3215 4.23099 41.1175 3.63899 40.7095 3.19899C40.3095 2.75099 39.7735 2.52699 39.1015 2.52699C38.4215 2.52699 37.8775 2.74699 37.4695 3.18699C37.0695 3.62699 36.8695 4.22299 36.8695 4.97499C36.8695 5.71899 37.0695 6.31499 37.4695 6.76299C37.8775 7.20299 38.4215 7.42299 39.1015 7.42299Z" fill="black"/>
<path d="M28.134 2.43111V4.13511H30.882V5.71911H28.134V7.56711H31.242V9.21111H26.082V0.787109H31.242V2.43111H28.134Z" fill="black"/>
<path d="M22.4153 7.62711H25.1033V9.21111H20.3633V0.787109H22.4153V7.62711Z" fill="black"/>
<path d="M16.7589 7.72311H13.6149L13.1109 9.21111H10.9629L14.0109 0.787109H16.3869L19.4349 9.21111H17.2629L16.7589 7.72311ZM16.2309 6.13911L15.1869 3.05511L14.1549 6.13911H16.2309Z" fill="black"/>
<path d="M10.04 0.787109V9.21111H7.988V4.15911L6.104 9.21111H4.448L2.552 4.14711V9.21111H0.5V0.787109H2.924L5.288 6.61911L7.628 0.787109H10.04Z" fill="black"/>
</svg>
