<svg width="191" height="16" viewBox="0 0 191 16" fill="none" xmlns="http://www.w3.org/2000/svg">
<path d="M188.699 8.84453C188.002 8.8672 187.407 8.92386 186.914 9.01453C186.427 9.09953 186.027 9.21286 185.716 9.35453C185.41 9.4962 185.186 9.66336 185.044 9.85603C184.908 10.0487 184.84 10.264 184.84 10.502C184.84 10.7287 184.877 10.9242 184.951 11.0885C185.024 11.2529 185.124 11.3889 185.248 11.4965C185.379 11.5985 185.529 11.675 185.699 11.726C185.874 11.7714 186.061 11.794 186.26 11.794C186.526 11.794 186.77 11.7685 186.991 11.7175C187.212 11.6609 187.419 11.5815 187.611 11.4795C187.81 11.3775 187.997 11.2557 188.172 11.114C188.354 10.9724 188.529 10.8109 188.699 10.6295V8.84453ZM183.812 5.32553C184.288 4.86653 184.801 4.5237 185.35 4.29703C185.9 4.07036 186.509 3.95703 187.178 3.95703C187.659 3.95703 188.087 4.03636 188.461 4.19503C188.835 4.3537 189.15 4.5747 189.405 4.85803C189.66 5.14136 189.852 5.4842 189.983 5.88653C190.113 6.28886 190.178 6.73086 190.178 7.21253V12.7205H189.507C189.359 12.7205 189.246 12.6979 189.167 12.6525C189.087 12.6015 189.025 12.5052 188.98 12.3635L188.81 11.5475C188.583 11.7572 188.362 11.9442 188.147 12.1085C187.931 12.2672 187.705 12.4032 187.467 12.5165C187.229 12.6242 186.974 12.7064 186.702 12.763C186.435 12.8254 186.138 12.8565 185.809 12.8565C185.475 12.8565 185.16 12.8112 184.866 12.7205C184.571 12.6242 184.313 12.4825 184.092 12.2955C183.877 12.1085 183.704 11.8734 183.574 11.59C183.449 11.301 183.387 10.961 183.387 10.57C183.387 10.23 183.48 9.9042 183.667 9.59253C183.854 9.2752 184.157 8.9947 184.577 8.75103C184.996 8.50736 185.543 8.30903 186.217 8.15603C186.892 7.99736 187.719 7.9067 188.699 7.88403V7.21253C188.699 6.54386 188.555 6.03953 188.266 5.69953C187.977 5.35386 187.555 5.18103 186.999 5.18103C186.625 5.18103 186.311 5.2292 186.056 5.32553C185.806 5.4162 185.588 5.52103 185.401 5.64003C185.22 5.75336 185.061 5.8582 184.925 5.95453C184.795 6.0452 184.665 6.09053 184.534 6.09053C184.432 6.09053 184.344 6.06503 184.271 6.01403C184.197 5.95736 184.135 5.88936 184.084 5.81003L183.812 5.32553Z" fill="#353945"/>
<path d="M179.409 5.83553C179.681 5.2462 180.015 4.7872 180.412 4.45853C180.809 4.1242 181.293 3.95703 181.866 3.95703C182.047 3.95703 182.22 3.97686 182.384 4.01653C182.554 4.0562 182.704 4.11853 182.835 4.20353L182.724 5.33403C182.69 5.4757 182.605 5.54653 182.469 5.54653C182.39 5.54653 182.274 5.52953 182.121 5.49553C181.968 5.46153 181.795 5.44453 181.602 5.44453C181.33 5.44453 181.086 5.4842 180.871 5.56353C180.661 5.64286 180.472 5.76186 180.302 5.92053C180.137 6.07353 179.987 6.2662 179.851 6.49853C179.721 6.7252 179.602 6.98586 179.494 7.28053V12.7205H177.973V4.11003H178.84C179.004 4.11003 179.117 4.1412 179.18 4.20353C179.242 4.26586 179.284 4.37353 179.307 4.52653L179.409 5.83553Z" fill="#353945"/>
<path d="M174.523 12.8565C173.843 12.8565 173.319 12.6666 172.951 12.287C172.588 11.9073 172.407 11.3605 172.407 10.6465V5.37648H171.37C171.279 5.37648 171.203 5.35098 171.14 5.29998C171.078 5.24331 171.047 5.15831 171.047 5.04498V4.44148L172.458 4.26298L172.806 1.60248C172.823 1.51748 172.86 1.44948 172.917 1.39848C172.979 1.34181 173.059 1.31348 173.155 1.31348H173.92V4.27998H176.41V5.37648H173.92V10.5445C173.92 10.9071 174.008 11.1763 174.183 11.352C174.359 11.5276 174.586 11.6155 174.863 11.6155C175.022 11.6155 175.158 11.5956 175.271 11.556C175.39 11.5106 175.492 11.4625 175.577 11.4115C175.662 11.3605 175.733 11.3151 175.79 11.2755C175.852 11.2301 175.906 11.2075 175.951 11.2075C176.031 11.2075 176.102 11.2556 176.164 11.352L176.606 12.0745C176.345 12.3181 176.031 12.5108 175.662 12.6525C175.294 12.7885 174.914 12.8565 174.523 12.8565Z" fill="#353945"/>
<path d="M164.037 5.2577C164.405 4.8667 164.813 4.55503 165.261 4.32269C165.709 4.09036 166.224 3.9742 166.808 3.9742C167.278 3.9742 167.692 4.05353 168.049 4.2122C168.412 4.3652 168.712 4.5862 168.95 4.8752C169.194 5.15853 169.378 5.50136 169.503 5.9037C169.627 6.30603 169.69 6.75086 169.69 7.2382V12.7207H168.168V7.2382C168.168 6.58653 168.018 6.08219 167.718 5.72519C167.423 5.36253 166.972 5.1812 166.366 5.1812C165.918 5.1812 165.499 5.28886 165.108 5.5042C164.723 5.71953 164.366 6.01136 164.037 6.37969V12.7207H162.516V0.200195H164.037V5.2577Z" fill="#353945"/>
<path d="M160.177 5.53011C160.109 5.65478 160.004 5.71711 159.863 5.71711C159.778 5.71711 159.681 5.68594 159.574 5.62361C159.466 5.56128 159.333 5.49328 159.174 5.41961C159.021 5.34028 158.837 5.26944 158.622 5.20711C158.406 5.13911 158.151 5.10511 157.857 5.10511C157.602 5.10511 157.372 5.13911 157.168 5.20711C156.964 5.26944 156.789 5.35728 156.641 5.47061C156.5 5.58394 156.389 5.71711 156.31 5.87011C156.236 6.01744 156.199 6.17894 156.199 6.35461C156.199 6.57561 156.262 6.75978 156.386 6.90711C156.517 7.05444 156.687 7.18194 156.896 7.28961C157.106 7.39728 157.344 7.49361 157.61 7.57861C157.877 7.65794 158.149 7.74578 158.426 7.84211C158.71 7.93278 158.984 8.03478 159.251 8.14811C159.517 8.26144 159.755 8.40311 159.965 8.57311C160.174 8.74311 160.342 8.95278 160.466 9.20211C160.597 9.44578 160.662 9.74044 160.662 10.0861C160.662 10.4828 160.591 10.8511 160.449 11.1911C160.308 11.5254 160.098 11.8173 159.82 12.0666C159.543 12.3103 159.203 12.5029 158.8 12.6446C158.398 12.7863 157.933 12.8571 157.406 12.8571C156.806 12.8571 156.262 12.7608 155.774 12.5681C155.287 12.3698 154.873 12.1176 154.533 11.8116L154.89 11.2336C154.936 11.1599 154.989 11.1033 155.052 11.0636C155.114 11.0239 155.193 11.0041 155.29 11.0041C155.392 11.0041 155.499 11.0438 155.613 11.1231C155.726 11.2024 155.862 11.2903 156.021 11.3866C156.185 11.4829 156.383 11.5708 156.616 11.6501C156.848 11.7294 157.137 11.7691 157.483 11.7691C157.777 11.7691 158.035 11.7323 158.256 11.6586C158.477 11.5793 158.661 11.4744 158.809 11.3441C158.956 11.2138 159.064 11.0636 159.132 10.8936C159.205 10.7236 159.242 10.5423 159.242 10.3496C159.242 10.1116 159.177 9.91611 159.047 9.76311C158.922 9.60444 158.755 9.47128 158.545 9.36361C158.336 9.25028 158.095 9.15394 157.823 9.07461C157.556 8.98961 157.282 8.90178 156.998 8.81111C156.721 8.72044 156.446 8.61844 156.174 8.50511C155.907 8.38611 155.669 8.23878 155.46 8.06311C155.25 7.88744 155.08 7.67211 154.95 7.41711C154.825 7.15644 154.763 6.84194 154.763 6.47361C154.763 6.14494 154.831 5.83044 154.967 5.53011C155.103 5.22411 155.301 4.95778 155.562 4.73111C155.822 4.49878 156.143 4.31461 156.522 4.17861C156.902 4.04261 157.335 3.97461 157.823 3.97461C158.389 3.97461 158.897 4.06528 159.344 4.24661C159.798 4.42228 160.189 4.66594 160.517 4.97761L160.177 5.53011Z" fill="#353945"/>
<path d="M151.379 8.84453C150.682 8.8672 150.087 8.92386 149.594 9.01453C149.107 9.09953 148.707 9.21286 148.395 9.35453C148.089 9.4962 147.866 9.66336 147.724 9.85603C147.588 10.0487 147.52 10.264 147.52 10.502C147.52 10.7287 147.557 10.9242 147.63 11.0885C147.704 11.2529 147.803 11.3889 147.928 11.4965C148.058 11.5985 148.208 11.675 148.378 11.726C148.554 11.7714 148.741 11.794 148.939 11.794C149.206 11.794 149.449 11.7685 149.67 11.7175C149.891 11.6609 150.098 11.5815 150.291 11.4795C150.489 11.3775 150.676 11.2557 150.852 11.114C151.033 10.9724 151.209 10.8109 151.379 10.6295V8.84453ZM146.491 5.32553C146.967 4.86653 147.48 4.5237 148.03 4.29703C148.58 4.07036 149.189 3.95703 149.857 3.95703C150.339 3.95703 150.767 4.03636 151.141 4.19503C151.515 4.3537 151.829 4.5747 152.084 4.85803C152.339 5.14136 152.532 5.4842 152.662 5.88653C152.793 6.28886 152.858 6.73086 152.858 7.21253V12.7205H152.186C152.039 12.7205 151.926 12.6979 151.846 12.6525C151.767 12.6015 151.705 12.5052 151.659 12.3635L151.489 11.5475C151.263 11.7572 151.042 11.9442 150.826 12.1085C150.611 12.2672 150.384 12.4032 150.146 12.5165C149.908 12.6242 149.653 12.7064 149.381 12.763C149.115 12.8254 148.818 12.8565 148.489 12.8565C148.155 12.8565 147.84 12.8112 147.545 12.7205C147.251 12.6242 146.993 12.4825 146.772 12.2955C146.557 12.1085 146.384 11.8734 146.253 11.59C146.129 11.301 146.066 10.961 146.066 10.57C146.066 10.23 146.16 9.9042 146.347 9.59253C146.534 9.2752 146.837 8.9947 147.256 8.75103C147.676 8.50736 148.223 8.30903 148.897 8.15603C149.571 7.99736 150.399 7.9067 151.379 7.88403V7.21253C151.379 6.54386 151.234 6.03953 150.945 5.69953C150.656 5.35386 150.234 5.18103 149.679 5.18103C149.305 5.18103 148.99 5.2292 148.735 5.32553C148.486 5.4162 148.268 5.52103 148.081 5.64003C147.9 5.75336 147.741 5.8582 147.605 5.95453C147.475 6.0452 147.344 6.09053 147.214 6.09053C147.112 6.09053 147.024 6.06503 146.95 6.01403C146.877 5.95736 146.814 5.88936 146.763 5.81003L146.491 5.32553Z" fill="#353945"/>
<path d="M142.089 5.83553C142.361 5.2462 142.695 4.7872 143.092 4.45853C143.489 4.1242 143.973 3.95703 144.545 3.95703C144.727 3.95703 144.9 3.97686 145.064 4.01653C145.234 4.0562 145.384 4.11853 145.514 4.20353L145.404 5.33403C145.37 5.4757 145.285 5.54653 145.149 5.54653C145.07 5.54653 144.953 5.52953 144.8 5.49553C144.647 5.46153 144.475 5.44453 144.282 5.44453C144.01 5.44453 143.766 5.4842 143.551 5.56353C143.341 5.64286 143.151 5.76186 142.981 5.92053C142.817 6.07353 142.667 6.2662 142.531 6.49853C142.401 6.7252 142.282 6.98586 142.174 7.28053V12.7205H140.652V4.11003H141.519C141.684 4.11003 141.797 4.1412 141.859 4.20353C141.922 4.26586 141.964 4.37353 141.987 4.52653L142.089 5.83553Z" fill="#353945"/>
<path d="M136.869 8.84453C136.172 8.8672 135.577 8.92386 135.084 9.01453C134.597 9.09953 134.197 9.21286 133.886 9.35453C133.58 9.4962 133.356 9.66336 133.214 9.85603C133.078 10.0487 133.01 10.264 133.01 10.502C133.01 10.7287 133.047 10.9242 133.121 11.0885C133.194 11.2529 133.293 11.3889 133.418 11.4965C133.548 11.5985 133.699 11.675 133.869 11.726C134.044 11.7714 134.231 11.794 134.43 11.794C134.696 11.794 134.94 11.7685 135.161 11.7175C135.382 11.6609 135.588 11.5815 135.781 11.4795C135.979 11.3775 136.166 11.2557 136.342 11.114C136.523 10.9724 136.699 10.8109 136.869 10.6295V8.84453ZM131.982 5.32553C132.458 4.86653 132.97 4.5237 133.52 4.29703C134.07 4.07036 134.679 3.95703 135.348 3.95703C135.829 3.95703 136.257 4.03636 136.631 4.19503C137.005 4.3537 137.32 4.5747 137.575 4.85803C137.83 5.14136 138.022 5.4842 138.153 5.88653C138.283 6.28886 138.348 6.73086 138.348 7.21253V12.7205H137.677C137.529 12.7205 137.416 12.6979 137.337 12.6525C137.257 12.6015 137.195 12.5052 137.15 12.3635L136.98 11.5475C136.753 11.7572 136.532 11.9442 136.317 12.1085C136.101 12.2672 135.875 12.4032 135.637 12.5165C135.399 12.6242 135.144 12.7064 134.872 12.763C134.605 12.8254 134.308 12.8565 133.979 12.8565C133.645 12.8565 133.33 12.8112 133.036 12.7205C132.741 12.6242 132.483 12.4825 132.262 12.2955C132.047 12.1085 131.874 11.8734 131.744 11.59C131.619 11.301 131.557 10.961 131.557 10.57C131.557 10.23 131.65 9.9042 131.837 9.59253C132.024 9.2752 132.327 8.9947 132.747 8.75103C133.166 8.50736 133.713 8.30903 134.387 8.15603C135.061 7.99736 135.889 7.9067 136.869 7.88403V7.21253C136.869 6.54386 136.725 6.03953 136.436 5.69953C136.147 5.35386 135.724 5.18103 135.169 5.18103C134.795 5.18103 134.481 5.2292 134.226 5.32553C133.976 5.4162 133.758 5.52103 133.571 5.64003C133.39 5.75336 133.231 5.8582 133.095 5.95453C132.965 6.0452 132.834 6.09053 132.704 6.09053C132.602 6.09053 132.514 6.06503 132.441 6.01403C132.367 5.95736 132.305 5.88936 132.254 5.81003L131.982 5.32553Z" fill="#353945"/>
<path d="M124.244 5.2577C124.612 4.8667 125.02 4.55503 125.468 4.32269C125.916 4.09036 126.431 3.9742 127.015 3.9742C127.485 3.9742 127.899 4.05353 128.256 4.2122C128.619 4.3652 128.919 4.5862 129.157 4.8752C129.401 5.15853 129.585 5.50136 129.71 5.9037C129.834 6.30603 129.897 6.75086 129.897 7.2382V12.7207H128.375V7.2382C128.375 6.58653 128.225 6.08219 127.925 5.72519C127.63 5.36253 127.179 5.1812 126.573 5.1812C126.125 5.1812 125.706 5.28886 125.315 5.5042C124.93 5.71953 124.573 6.01136 124.244 6.37969V12.7207H122.723V0.200195H124.244V5.2577Z" fill="#353945"/>
<path d="M118.939 8.84453C118.242 8.8672 117.647 8.92386 117.154 9.01453C116.667 9.09953 116.268 9.21286 115.956 9.35453C115.65 9.4962 115.426 9.66336 115.284 9.85603C115.148 10.0487 115.08 10.264 115.08 10.502C115.08 10.7287 115.117 10.9242 115.191 11.0885C115.265 11.2529 115.364 11.3889 115.488 11.4965C115.619 11.5985 115.769 11.675 115.939 11.726C116.115 11.7714 116.302 11.794 116.5 11.794C116.766 11.794 117.01 11.7685 117.231 11.7175C117.452 11.6609 117.659 11.5815 117.851 11.4795C118.05 11.3775 118.237 11.2557 118.412 11.114C118.594 10.9724 118.769 10.8109 118.939 10.6295V8.84453ZM114.052 5.32553C114.528 4.86653 115.041 4.5237 115.59 4.29703C116.14 4.07036 116.749 3.95703 117.418 3.95703C117.9 3.95703 118.327 4.03636 118.701 4.19503C119.075 4.3537 119.39 4.5747 119.645 4.85803C119.9 5.14136 120.093 5.4842 120.223 5.88653C120.353 6.28886 120.418 6.73086 120.418 7.21253V12.7205H119.747C119.6 12.7205 119.486 12.6979 119.407 12.6525C119.328 12.6015 119.265 12.5052 119.22 12.3635L119.05 11.5475C118.823 11.7572 118.602 11.9442 118.387 12.1085C118.172 12.2672 117.945 12.4032 117.707 12.5165C117.469 12.6242 117.214 12.7064 116.942 12.763C116.676 12.8254 116.378 12.8565 116.049 12.8565C115.715 12.8565 115.401 12.8112 115.106 12.7205C114.811 12.6242 114.553 12.4825 114.332 12.2955C114.117 12.1085 113.944 11.8734 113.814 11.59C113.689 11.301 113.627 10.961 113.627 10.57C113.627 10.23 113.72 9.9042 113.907 9.59253C114.094 9.2752 114.398 8.9947 114.817 8.75103C115.236 8.50736 115.783 8.30903 116.457 8.15603C117.132 7.99736 117.959 7.9067 118.939 7.88403V7.21253C118.939 6.54386 118.795 6.03953 118.506 5.69953C118.217 5.35386 117.795 5.18103 117.239 5.18103C116.865 5.18103 116.551 5.2292 116.296 5.32553C116.047 5.4162 115.828 5.52103 115.641 5.64003C115.46 5.75336 115.301 5.8582 115.165 5.95453C115.035 6.0452 114.905 6.09053 114.774 6.09053C114.672 6.09053 114.585 6.06503 114.511 6.01403C114.437 5.95736 114.375 5.88936 114.324 5.81003L114.052 5.32553Z" fill="#353945"/>
<path d="M111.763 0.540039V12.7205H110.318V3.77004C110.318 3.65104 110.321 3.52354 110.327 3.38754C110.338 3.25154 110.35 3.11271 110.361 2.97104L106.179 10.587C106.049 10.842 105.85 10.9695 105.584 10.9695H105.346C105.08 10.9695 104.881 10.842 104.751 10.587L100.484 2.93704C100.518 3.23737 100.535 3.51504 100.535 3.77004V12.7205H99.0898V0.540039H100.305C100.453 0.540039 100.566 0.554206 100.645 0.582539C100.725 0.610872 100.801 0.690206 100.875 0.820539L105.082 8.31754C105.15 8.45354 105.216 8.59521 105.278 8.74254C105.346 8.88987 105.408 9.04004 105.465 9.19304C105.522 9.04004 105.581 8.88987 105.643 8.74254C105.706 8.58954 105.774 8.44504 105.847 8.30904L109.978 0.820539C110.046 0.690206 110.12 0.610872 110.199 0.582539C110.284 0.554206 110.401 0.540039 110.548 0.540039H111.763Z" fill="#353945"/>
<path d="M94.7873 14.7778C94.742 14.7382 94.7108 14.7013 94.6938 14.6673C94.6768 14.6333 94.6683 14.5908 94.6683 14.5398C94.6683 14.5002 94.6796 14.4605 94.7023 14.4208C94.7306 14.3812 94.7618 14.3443 94.7958 14.3103C94.8525 14.248 94.9233 14.1658 95.0083 14.0638C95.099 13.9618 95.1896 13.84 95.2803 13.6983C95.371 13.5623 95.4531 13.4093 95.5268 13.2393C95.6061 13.075 95.6628 12.8993 95.6968 12.7123C95.6798 12.718 95.66 12.7208 95.6373 12.7208C95.6203 12.7208 95.6033 12.7208 95.5863 12.7208C95.2916 12.7208 95.0508 12.6245 94.8638 12.4318C94.6825 12.2335 94.5918 11.9813 94.5918 11.6753C94.5918 11.409 94.6825 11.1823 94.8638 10.9953C95.0508 10.8083 95.2973 10.7148 95.6033 10.7148C95.7733 10.7148 95.9235 10.746 96.0538 10.8083C96.1841 10.8707 96.2918 10.9585 96.3768 11.0718C96.4675 11.1795 96.5355 11.307 96.5808 11.4543C96.6261 11.596 96.6488 11.7518 96.6488 11.9218C96.6488 12.1768 96.612 12.4432 96.5383 12.7208C96.4703 12.9928 96.3655 13.262 96.2238 13.5283C96.0878 13.8003 95.9206 14.0638 95.7223 14.3188C95.524 14.5738 95.2973 14.809 95.0423 15.0243L94.7873 14.7778Z" fill="#353945"/>
<path d="M92.3965 4.11034V12.7208H90.8835V4.11034H92.3965ZM92.7195 1.40734C92.7195 1.55467 92.6884 1.6935 92.626 1.82384C92.5694 1.9485 92.49 2.06184 92.388 2.16384C92.2917 2.26017 92.1755 2.33667 92.0395 2.39334C91.9092 2.45 91.7704 2.47834 91.623 2.47834C91.4757 2.47834 91.3369 2.45 91.2065 2.39334C91.0819 2.33667 90.9714 2.26017 90.875 2.16384C90.7787 2.06184 90.7022 1.9485 90.6455 1.82384C90.5889 1.6935 90.5605 1.55467 90.5605 1.40734C90.5605 1.26 90.5889 1.12117 90.6455 0.990836C90.7022 0.854836 90.7787 0.738669 90.875 0.642335C90.9714 0.540336 91.0819 0.461003 91.2065 0.404335C91.3369 0.347669 91.4757 0.319336 91.623 0.319336C91.7704 0.319336 91.9092 0.347669 92.0395 0.404335C92.1755 0.461003 92.2917 0.540336 92.388 0.642335C92.49 0.738669 92.5694 0.854836 92.626 0.990836C92.6884 1.12117 92.7195 1.26 92.7195 1.40734Z" fill="#353945"/>
<path d="M87.0137 8.84453C86.3167 8.8672 85.7217 8.92386 85.2287 9.01453C84.7413 9.09953 84.3418 9.21286 84.0302 9.35453C83.7242 9.4962 83.5003 9.66336 83.3587 9.85603C83.2227 10.0487 83.1547 10.264 83.1547 10.502C83.1547 10.7287 83.1915 10.9242 83.2652 11.0885C83.3388 11.2529 83.438 11.3889 83.5627 11.4965C83.693 11.5985 83.8432 11.675 84.0132 11.726C84.1888 11.7714 84.3758 11.794 84.5742 11.794C84.8405 11.794 85.0842 11.7685 85.3052 11.7175C85.5262 11.6609 85.733 11.5815 85.9257 11.4795C86.124 11.3775 86.311 11.2557 86.4867 11.114C86.668 10.9724 86.8437 10.8109 87.0137 10.6295V8.84453ZM82.1262 5.32553C82.6022 4.86653 83.115 4.5237 83.6647 4.29703C84.2143 4.07036 84.8235 3.95703 85.4922 3.95703C85.9738 3.95703 86.4017 4.03636 86.7757 4.19503C87.1497 4.3537 87.4642 4.5747 87.7192 4.85803C87.9742 5.14136 88.1668 5.4842 88.2972 5.88653C88.4275 6.28886 88.4927 6.73086 88.4927 7.21253V12.7205H87.8212C87.6738 12.7205 87.5605 12.6979 87.4812 12.6525C87.4018 12.6015 87.3395 12.5052 87.2942 12.3635L87.1242 11.5475C86.8975 11.7572 86.6765 11.9442 86.4612 12.1085C86.2458 12.2672 86.0192 12.4032 85.7812 12.5165C85.5432 12.6242 85.2882 12.7064 85.0162 12.763C84.7498 12.8254 84.4523 12.8565 84.1237 12.8565C83.7893 12.8565 83.4748 12.8112 83.1802 12.7205C82.8855 12.6242 82.6277 12.4825 82.4067 12.2955C82.1913 12.1085 82.0185 11.8734 81.8882 11.59C81.7635 11.301 81.7012 10.961 81.7012 10.57C81.7012 10.23 81.7947 9.9042 81.9817 9.59253C82.1687 9.2752 82.4718 8.9947 82.8912 8.75103C83.3105 8.50736 83.8573 8.30903 84.5317 8.15603C85.206 7.99736 86.0333 7.9067 87.0137 7.88403V7.21253C87.0137 6.54386 86.8692 6.03953 86.5802 5.69953C86.2912 5.35386 85.869 5.18103 85.3137 5.18103C84.9397 5.18103 84.6252 5.2292 84.3702 5.32553C84.1208 5.4162 83.9027 5.52103 83.7157 5.64003C83.5343 5.75336 83.3757 5.8582 83.2397 5.95453C83.1093 6.0452 82.979 6.09053 82.8487 6.09053C82.7467 6.09053 82.6588 6.06503 82.5852 6.01403C82.5115 5.95736 82.4492 5.88936 82.3982 5.81003L82.1262 5.32553Z" fill="#353945"/>
<path d="M74.3555 10.6467C74.6332 11.0207 74.9363 11.2842 75.265 11.4372C75.5993 11.5902 75.9648 11.6667 76.3615 11.6667C77.1718 11.6667 77.7923 11.3805 78.223 10.8082C78.6537 10.2359 78.869 9.38303 78.869 8.24969C78.869 7.19569 78.6763 6.4222 78.291 5.9292C77.9113 5.43053 77.3673 5.1812 76.659 5.1812C76.166 5.1812 75.7353 5.29453 75.367 5.5212C75.0043 5.74786 74.6672 6.06803 74.3555 6.4817V10.6467ZM74.3555 5.3512C74.7182 4.93186 75.1261 4.59753 75.5795 4.3482C76.0385 4.09886 76.5655 3.9742 77.1605 3.9742C77.6648 3.9742 78.1182 4.07053 78.5205 4.2632C78.9285 4.45586 79.2741 4.73636 79.5575 5.1047C79.8408 5.46736 80.0562 5.90936 80.2035 6.4307C80.3565 6.95203 80.433 7.53853 80.433 8.1902C80.433 8.8872 80.348 9.52186 80.178 10.0942C80.008 10.6665 79.7615 11.1567 79.4385 11.5647C79.1212 11.967 78.733 12.2815 78.274 12.5082C77.815 12.7292 77.2993 12.8397 76.727 12.8397C76.1603 12.8397 75.6815 12.7349 75.2905 12.5252C74.9051 12.3099 74.568 12.0067 74.279 11.6157L74.2025 12.3977C74.1572 12.613 74.0268 12.7207 73.8115 12.7207H72.834V0.200195H74.3555V5.3512Z" fill="#353945"/>
<path d="M58.8555 12.7211V4.11061H59.765C59.9803 4.11061 60.1135 4.21544 60.1645 4.42511L60.275 5.30911C60.5923 4.91811 60.9493 4.59794 61.346 4.34861C61.7426 4.09928 62.2016 3.97461 62.723 3.97461C63.301 3.97461 63.7685 4.13611 64.1255 4.45911C64.4881 4.78211 64.7488 5.21844 64.9075 5.76811C65.0321 5.45644 65.1908 5.18728 65.3835 4.96061C65.5818 4.73394 65.8028 4.54694 66.0465 4.39961C66.2901 4.25228 66.548 4.14461 66.82 4.07661C67.0976 4.00861 67.3781 3.97461 67.6615 3.97461C68.1148 3.97461 68.5171 4.04828 68.8685 4.19561C69.2255 4.33728 69.5258 4.54694 69.7695 4.82461C70.0188 5.10228 70.2086 5.44511 70.339 5.85311C70.4693 6.25544 70.5345 6.71728 70.5345 7.23861V12.7211H69.013V7.23861C69.013 6.56428 68.8656 6.05428 68.571 5.70861C68.2763 5.35728 67.8513 5.18161 67.296 5.18161C67.0466 5.18161 66.8086 5.22694 66.582 5.31761C66.361 5.40261 66.1655 5.53011 65.9955 5.70011C65.8255 5.87011 65.6895 6.08544 65.5875 6.34611C65.4911 6.60111 65.443 6.89861 65.443 7.23861V12.7211H63.9215V7.23861C63.9215 6.54728 63.7826 6.03161 63.505 5.69161C63.2273 5.35161 62.8221 5.18161 62.2895 5.18161C61.9155 5.18161 61.5698 5.28361 61.2525 5.48761C60.9351 5.68594 60.6433 5.95794 60.377 6.30361V12.7211H58.8555Z" fill="#353945"/>
<path d="M56.4565 4.11035V12.7209H55.5555C55.3402 12.7209 55.2042 12.616 55.1475 12.4064L55.0285 11.4799C54.6545 11.8935 54.2352 12.2279 53.7705 12.4829C53.3059 12.7322 52.7732 12.8569 52.1725 12.8569C51.7022 12.8569 51.2857 12.7804 50.923 12.6274C50.566 12.4687 50.2657 12.2477 50.022 11.9644C49.7784 11.681 49.5942 11.3382 49.4695 10.9359C49.3505 10.5335 49.291 10.0887 49.291 9.60135V4.11035H50.804V9.60135C50.804 10.253 50.9514 10.7574 51.246 11.1144C51.5464 11.4714 52.0025 11.6499 52.6145 11.6499C53.0622 11.6499 53.4787 11.545 53.864 11.3354C54.255 11.12 54.6148 10.8254 54.9435 10.4514V4.11035H56.4565Z" fill="#353945"/>
<path d="M46.7692 0.540039V12.7205H45.3242V3.77004C45.3242 3.65104 45.327 3.52354 45.3327 3.38754C45.344 3.25154 45.3554 3.11271 45.3667 2.97104L41.1847 10.587C41.0544 10.842 40.856 10.9695 40.5897 10.9695H40.3517C40.0854 10.9695 39.887 10.842 39.7567 10.587L35.4897 2.93704C35.5237 3.23737 35.5407 3.51504 35.5407 3.77004V12.7205H34.0957V0.540039H35.3112C35.4585 0.540039 35.5719 0.554206 35.6512 0.582539C35.7305 0.610872 35.807 0.690206 35.8807 0.820539L40.0882 8.31754C40.1562 8.45354 40.2214 8.59521 40.2837 8.74254C40.3517 8.88987 40.414 9.04004 40.4707 9.19304C40.5274 9.04004 40.5869 8.88987 40.6492 8.74254C40.7115 8.58954 40.7795 8.44504 40.8532 8.30904L44.9842 0.820539C45.0522 0.690206 45.1259 0.610872 45.2052 0.582539C45.2902 0.554206 45.4064 0.540039 45.5537 0.540039H46.7692Z" fill="#353945"/>
<path d="M19.4345 3.8383C19.5139 3.28296 19.6669 2.7928 19.8935 2.3678C20.1202 1.93713 20.4064 1.5773 20.752 1.2883C21.1034 0.999298 21.5029 0.781131 21.9505 0.633798C22.4039 0.480797 22.8912 0.404297 23.4125 0.404297C23.9282 0.404297 24.4042 0.477964 24.8405 0.625297C25.2769 0.772631 25.6509 0.982297 25.9625 1.2543C26.2799 1.5263 26.5264 1.85496 26.702 2.2403C26.8777 2.62563 26.9655 3.05346 26.9655 3.5238C26.9655 3.90913 26.9145 4.2548 26.8125 4.5608C26.7162 4.86113 26.5745 5.12463 26.3875 5.3513C26.2062 5.57796 25.9852 5.77063 25.7245 5.9293C25.4639 6.08796 25.172 6.2183 24.849 6.3203C25.6424 6.5243 26.2374 6.87563 26.634 7.3743C27.0364 7.8673 27.2375 8.48497 27.2375 9.2273C27.2375 9.7883 27.1299 10.2926 26.9145 10.7403C26.7049 11.188 26.4159 11.5705 26.0475 11.8878C25.6792 12.1995 25.2485 12.4403 24.7555 12.6103C24.2682 12.7746 23.744 12.8568 23.183 12.8568C22.537 12.8568 21.9845 12.7775 21.5255 12.6188C21.0665 12.4545 20.6784 12.2306 20.361 11.9473C20.0437 11.664 19.783 11.3296 19.579 10.9443C19.375 10.5533 19.2022 10.1311 19.0605 9.6778L19.715 9.4058C19.885 9.33213 20.0494 9.3123 20.208 9.3463C20.3724 9.3803 20.4914 9.4738 20.565 9.6268C20.6387 9.78547 20.7294 9.9753 20.837 10.1963C20.9504 10.4173 21.1034 10.6298 21.296 10.8338C21.4887 11.0378 21.7324 11.2106 22.027 11.3523C22.3274 11.494 22.707 11.5648 23.166 11.5648C23.591 11.5648 23.9622 11.4968 24.2795 11.3608C24.6025 11.2191 24.8689 11.0378 25.0785 10.8168C25.2939 10.5958 25.4554 10.3493 25.563 10.0773C25.6707 9.8053 25.7245 9.53613 25.7245 9.2698C25.7245 8.94113 25.682 8.6408 25.597 8.3688C25.512 8.0968 25.3534 7.86163 25.121 7.6633C24.8887 7.46496 24.5685 7.30913 24.1605 7.1958C23.7582 7.08246 23.2397 7.0258 22.605 7.0258V5.9293C23.1264 5.92363 23.5684 5.86696 23.931 5.7593C24.2994 5.65163 24.5969 5.5043 24.8235 5.3173C25.0559 5.1303 25.223 4.90646 25.325 4.6458C25.4327 4.38513 25.4865 4.09613 25.4865 3.7788C25.4865 3.42746 25.4299 3.12146 25.3165 2.8608C25.2089 2.60013 25.0587 2.3848 24.866 2.2148C24.6734 2.0448 24.4439 1.9173 24.1775 1.8323C23.9169 1.7473 23.6335 1.7048 23.3275 1.7048C23.0215 1.7048 22.7354 1.75013 22.469 1.8408C22.2084 1.93146 21.976 2.05896 21.772 2.2233C21.5737 2.38196 21.4065 2.5718 21.2705 2.7928C21.1345 3.0138 21.0382 3.25746 20.9815 3.5238C20.9079 3.72213 20.8144 3.8553 20.701 3.9233C20.5934 3.98563 20.4347 4.00263 20.225 3.9743L19.4345 3.8383Z" fill="#353945"/>
<path d="M16.8561 11.2843C17.0205 11.2843 17.1508 11.3325 17.2471 11.4288C17.3435 11.5251 17.3916 11.6498 17.3916 11.8028V12.7208H9.26562V12.2023C9.26562 12.0946 9.28829 11.9841 9.33362 11.8708C9.37896 11.7575 9.44979 11.6526 9.54613 11.5563L13.4476 7.6378C13.7706 7.30913 14.0653 6.99463 14.3316 6.6943C14.598 6.3883 14.8246 6.0823 15.0116 5.7763C15.1986 5.4703 15.3431 5.16146 15.4451 4.8498C15.5471 4.53246 15.5981 4.1953 15.5981 3.8383C15.5981 3.4813 15.5415 3.16963 15.4281 2.9033C15.3148 2.6313 15.159 2.40746 14.9606 2.2318C14.768 2.05613 14.5385 1.9258 14.2721 1.8408C14.0058 1.75013 13.7196 1.7048 13.4136 1.7048C13.102 1.7048 12.8158 1.75013 12.5551 1.8408C12.2945 1.93146 12.0621 2.05896 11.8581 2.2233C11.6598 2.38196 11.4926 2.5718 11.3566 2.7928C11.2206 3.0138 11.1243 3.25746 11.0676 3.5238C10.9996 3.72213 10.9061 3.8553 10.7871 3.9233C10.6738 3.98563 10.5123 4.00263 10.3026 3.9743L9.51213 3.8383C9.59146 3.28296 9.74446 2.7928 9.97113 2.3678C10.2035 1.93713 10.4925 1.5773 10.8381 1.2883C11.1895 0.999298 11.589 0.781131 12.0366 0.633798C12.4843 0.480797 12.9688 0.404297 13.4901 0.404297C14.0058 0.404297 14.4875 0.480797 14.9351 0.633798C15.3828 0.786797 15.771 1.01063 16.0996 1.3053C16.4283 1.5943 16.6861 1.94846 16.8731 2.3678C17.0601 2.78713 17.1536 3.26313 17.1536 3.7958C17.1536 4.24913 17.0856 4.6713 16.9496 5.0623C16.8136 5.44763 16.6295 5.81596 16.3971 6.1673C16.1648 6.51863 15.8956 6.86146 15.5896 7.1958C15.2893 7.53013 14.9691 7.8673 14.6291 8.2073L11.4161 11.4883C11.6428 11.426 11.8723 11.3778 12.1046 11.3438C12.337 11.3041 12.5608 11.2843 12.7761 11.2843H16.8561Z" fill="#353945"/>
<path d="M7.259 11.5646V12.7206H0.731V11.5646H3.3405V3.26015C3.3405 3.01082 3.349 2.75865 3.366 2.50365L1.1985 4.36515C1.12483 4.42748 1.05117 4.46715 0.9775 4.48415C0.903833 4.49548 0.835833 4.49548 0.7735 4.48415C0.711167 4.47281 0.651667 4.45015 0.595 4.41615C0.544 4.38215 0.504333 4.34532 0.476 4.30565L0 3.65115L3.6295 0.514648H4.862V11.5646H7.259Z" fill="#353945"/>
</svg>
