<svg width="191" height="16" viewBox="0 0 191 16" fill="none" xmlns="http://www.w3.org/2000/svg">
<path d="M188.699 9.34502C188.002 9.36769 187.407 9.42435 186.914 9.51502C186.427 9.60002 186.027 9.71335 185.716 9.85502C185.41 9.99669 185.186 10.1639 185.044 10.3565C184.908 10.5492 184.84 10.7645 184.84 11.0025C184.84 11.2292 184.877 11.4247 184.951 11.589C185.024 11.7534 185.124 11.8894 185.248 11.997C185.379 12.099 185.529 12.1755 185.699 12.2265C185.874 12.2719 186.061 12.2945 186.26 12.2945C186.526 12.2945 186.77 12.269 186.991 12.218C187.212 12.1614 187.419 12.082 187.611 11.98C187.81 11.878 187.997 11.7562 188.172 11.6145C188.354 11.4729 188.529 11.3114 188.699 11.13V9.34502ZM183.812 5.82602C184.288 5.36702 184.801 5.02419 185.35 4.79752C185.9 4.57085 186.509 4.45752 187.178 4.45752C187.659 4.45752 188.087 4.53685 188.461 4.69552C188.835 4.85419 189.15 5.07519 189.405 5.35852C189.66 5.64185 189.852 5.98469 189.983 6.38702C190.113 6.78935 190.178 7.23135 190.178 7.71302V13.221H189.507C189.359 13.221 189.246 13.1984 189.167 13.153C189.087 13.102 189.025 13.0057 188.98 12.864L188.81 12.048C188.583 12.2577 188.362 12.4447 188.147 12.609C187.931 12.7677 187.705 12.9037 187.467 13.017C187.229 13.1247 186.974 13.2069 186.702 13.2635C186.435 13.3259 186.138 13.357 185.809 13.357C185.475 13.357 185.16 13.3117 184.866 13.221C184.571 13.1247 184.313 12.983 184.092 12.796C183.877 12.609 183.704 12.3739 183.574 12.0905C183.449 11.8015 183.387 11.4615 183.387 11.0705C183.387 10.7305 183.48 10.4047 183.667 10.093C183.854 9.77569 184.157 9.49519 184.577 9.25152C184.996 9.00785 185.543 8.80952 186.217 8.65652C186.892 8.49785 187.719 8.40719 188.699 8.38452V7.71302C188.699 7.04435 188.555 6.54002 188.266 6.20002C187.977 5.85435 187.555 5.68152 186.999 5.68152C186.625 5.68152 186.311 5.72969 186.056 5.82602C185.806 5.91669 185.588 6.02152 185.401 6.14052C185.22 6.25385 185.061 6.35869 184.925 6.45502C184.795 6.54569 184.665 6.59102 184.534 6.59102C184.432 6.59102 184.344 6.56552 184.271 6.51452C184.197 6.45785 184.135 6.38985 184.084 6.31052L183.812 5.82602Z" fill="#353945"/>
<path d="M179.409 6.33602C179.681 5.74669 180.015 5.28769 180.412 4.95902C180.809 4.62469 181.293 4.45752 181.866 4.45752C182.047 4.45752 182.22 4.47735 182.384 4.51702C182.554 4.55669 182.704 4.61902 182.835 4.70402L182.724 5.83452C182.69 5.97619 182.605 6.04702 182.469 6.04702C182.39 6.04702 182.274 6.03002 182.121 5.99602C181.968 5.96202 181.795 5.94502 181.602 5.94502C181.33 5.94502 181.086 5.98469 180.871 6.06402C180.661 6.14335 180.472 6.26235 180.302 6.42102C180.137 6.57402 179.987 6.76669 179.851 6.99902C179.721 7.22569 179.602 7.48635 179.494 7.78102V13.221H177.973V4.61052H178.84C179.004 4.61052 179.117 4.64169 179.18 4.70402C179.242 4.76635 179.284 4.87402 179.307 5.02702L179.409 6.33602Z" fill="#353945"/>
<path d="M174.523 13.357C173.843 13.357 173.319 13.1671 172.951 12.7875C172.588 12.4078 172.407 11.861 172.407 11.147V5.87697H171.37C171.279 5.87697 171.203 5.85147 171.14 5.80047C171.078 5.7438 171.047 5.6588 171.047 5.54546V4.94196L172.458 4.76346L172.806 2.10296C172.823 2.01796 172.86 1.94996 172.917 1.89896C172.979 1.8423 173.059 1.81396 173.155 1.81396H173.92V4.78046H176.41V5.87697H173.92V11.045C173.92 11.4076 174.008 11.6768 174.183 11.8525C174.359 12.0281 174.586 12.116 174.863 12.116C175.022 12.116 175.158 12.0961 175.271 12.0565C175.39 12.0111 175.492 11.963 175.577 11.912C175.662 11.861 175.733 11.8156 175.79 11.776C175.852 11.7306 175.906 11.708 175.951 11.708C176.031 11.708 176.102 11.7561 176.164 11.8525L176.606 12.575C176.345 12.8186 176.031 13.0113 175.662 13.153C175.294 13.289 174.914 13.357 174.523 13.357Z" fill="#353945"/>
<path d="M164.037 5.75818C164.405 5.36718 164.813 5.05552 165.261 4.82318C165.709 4.59085 166.224 4.47468 166.808 4.47468C167.278 4.47468 167.692 4.55402 168.049 4.71268C168.412 4.86568 168.712 5.08668 168.95 5.37568C169.194 5.65902 169.378 6.00185 169.503 6.40418C169.627 6.80652 169.69 7.25135 169.69 7.73868V13.2212H168.168V7.73868C168.168 7.08702 168.018 6.58268 167.718 6.22568C167.423 5.86302 166.972 5.68168 166.366 5.68168C165.918 5.68168 165.499 5.78935 165.108 6.00468C164.723 6.22002 164.366 6.51185 164.037 6.88018V13.2212H162.516V0.700684H164.037V5.75818Z" fill="#353945"/>
<path d="M160.177 6.03011C160.109 6.15478 160.004 6.21711 159.863 6.21711C159.778 6.21711 159.681 6.18594 159.574 6.12361C159.466 6.06128 159.333 5.99328 159.174 5.91961C159.021 5.84028 158.837 5.76944 158.622 5.70711C158.406 5.63911 158.151 5.60511 157.857 5.60511C157.602 5.60511 157.372 5.63911 157.168 5.70711C156.964 5.76944 156.789 5.85728 156.641 5.97061C156.5 6.08394 156.389 6.21711 156.31 6.37011C156.236 6.51744 156.199 6.67894 156.199 6.85461C156.199 7.07561 156.262 7.25978 156.386 7.40711C156.517 7.55444 156.687 7.68194 156.896 7.78961C157.106 7.89728 157.344 7.99361 157.61 8.07861C157.877 8.15794 158.149 8.24578 158.426 8.34211C158.71 8.43278 158.984 8.53478 159.251 8.64811C159.517 8.76144 159.755 8.90311 159.965 9.07311C160.174 9.24311 160.342 9.45278 160.466 9.70211C160.597 9.94578 160.662 10.2404 160.662 10.5861C160.662 10.9828 160.591 11.3511 160.449 11.6911C160.308 12.0254 160.098 12.3173 159.82 12.5666C159.543 12.8103 159.203 13.0029 158.8 13.1446C158.398 13.2863 157.933 13.3571 157.406 13.3571C156.806 13.3571 156.262 13.2608 155.774 13.0681C155.287 12.8698 154.873 12.6176 154.533 12.3116L154.89 11.7336C154.936 11.6599 154.989 11.6033 155.052 11.5636C155.114 11.5239 155.193 11.5041 155.29 11.5041C155.392 11.5041 155.499 11.5438 155.613 11.6231C155.726 11.7024 155.862 11.7903 156.021 11.8866C156.185 11.9829 156.383 12.0708 156.616 12.1501C156.848 12.2294 157.137 12.2691 157.483 12.2691C157.777 12.2691 158.035 12.2323 158.256 12.1586C158.477 12.0793 158.661 11.9744 158.809 11.8441C158.956 11.7138 159.064 11.5636 159.132 11.3936C159.205 11.2236 159.242 11.0423 159.242 10.8496C159.242 10.6116 159.177 10.4161 159.047 10.2631C158.922 10.1044 158.755 9.97128 158.545 9.86361C158.336 9.75028 158.095 9.65394 157.823 9.57461C157.556 9.48961 157.282 9.40178 156.998 9.31111C156.721 9.22044 156.446 9.11844 156.174 9.00511C155.907 8.88611 155.669 8.73878 155.46 8.56311C155.25 8.38744 155.08 8.17211 154.95 7.91711C154.825 7.65644 154.763 7.34194 154.763 6.97361C154.763 6.64494 154.831 6.33044 154.967 6.03011C155.103 5.72411 155.301 5.45778 155.562 5.23111C155.822 4.99878 156.143 4.81461 156.522 4.67861C156.902 4.54261 157.335 4.47461 157.823 4.47461C158.389 4.47461 158.897 4.56528 159.344 4.74661C159.798 4.92228 160.189 5.16594 160.517 5.47761L160.177 6.03011Z" fill="#353945"/>
<path d="M151.379 9.34502C150.682 9.36769 150.087 9.42435 149.594 9.51502C149.107 9.60002 148.707 9.71335 148.395 9.85502C148.089 9.99669 147.866 10.1639 147.724 10.3565C147.588 10.5492 147.52 10.7645 147.52 11.0025C147.52 11.2292 147.557 11.4247 147.63 11.589C147.704 11.7534 147.803 11.8894 147.928 11.997C148.058 12.099 148.208 12.1755 148.378 12.2265C148.554 12.2719 148.741 12.2945 148.939 12.2945C149.206 12.2945 149.449 12.269 149.67 12.218C149.891 12.1614 150.098 12.082 150.291 11.98C150.489 11.878 150.676 11.7562 150.852 11.6145C151.033 11.4729 151.209 11.3114 151.379 11.13V9.34502ZM146.491 5.82602C146.967 5.36702 147.48 5.02419 148.03 4.79752C148.58 4.57085 149.189 4.45752 149.857 4.45752C150.339 4.45752 150.767 4.53685 151.141 4.69552C151.515 4.85419 151.829 5.07519 152.084 5.35852C152.339 5.64185 152.532 5.98469 152.662 6.38702C152.793 6.78935 152.858 7.23135 152.858 7.71302V13.221H152.186C152.039 13.221 151.926 13.1984 151.846 13.153C151.767 13.102 151.705 13.0057 151.659 12.864L151.489 12.048C151.263 12.2577 151.042 12.4447 150.826 12.609C150.611 12.7677 150.384 12.9037 150.146 13.017C149.908 13.1247 149.653 13.2069 149.381 13.2635C149.115 13.3259 148.818 13.357 148.489 13.357C148.155 13.357 147.84 13.3117 147.545 13.221C147.251 13.1247 146.993 12.983 146.772 12.796C146.557 12.609 146.384 12.3739 146.253 12.0905C146.129 11.8015 146.066 11.4615 146.066 11.0705C146.066 10.7305 146.16 10.4047 146.347 10.093C146.534 9.77569 146.837 9.49519 147.256 9.25152C147.676 9.00785 148.223 8.80952 148.897 8.65652C149.571 8.49785 150.399 8.40719 151.379 8.38452V7.71302C151.379 7.04435 151.234 6.54002 150.945 6.20002C150.656 5.85435 150.234 5.68152 149.679 5.68152C149.305 5.68152 148.99 5.72969 148.735 5.82602C148.486 5.91669 148.268 6.02152 148.081 6.14052C147.9 6.25385 147.741 6.35869 147.605 6.45502C147.475 6.54569 147.344 6.59102 147.214 6.59102C147.112 6.59102 147.024 6.56552 146.95 6.51452C146.877 6.45785 146.814 6.38985 146.763 6.31052L146.491 5.82602Z" fill="#353945"/>
<path d="M142.089 6.33602C142.361 5.74669 142.695 5.28769 143.092 4.95902C143.489 4.62469 143.973 4.45752 144.545 4.45752C144.727 4.45752 144.9 4.47735 145.064 4.51702C145.234 4.55669 145.384 4.61902 145.514 4.70402L145.404 5.83452C145.37 5.97619 145.285 6.04702 145.149 6.04702C145.07 6.04702 144.953 6.03002 144.8 5.99602C144.647 5.96202 144.475 5.94502 144.282 5.94502C144.01 5.94502 143.766 5.98469 143.551 6.06402C143.341 6.14335 143.151 6.26235 142.981 6.42102C142.817 6.57402 142.667 6.76669 142.531 6.99902C142.401 7.22569 142.282 7.48635 142.174 7.78102V13.221H140.652V4.61052H141.519C141.684 4.61052 141.797 4.64169 141.859 4.70402C141.922 4.76635 141.964 4.87402 141.987 5.02702L142.089 6.33602Z" fill="#353945"/>
<path d="M136.869 9.34502C136.172 9.36769 135.577 9.42435 135.084 9.51502C134.597 9.60002 134.197 9.71335 133.886 9.85502C133.58 9.99669 133.356 10.1639 133.214 10.3565C133.078 10.5492 133.01 10.7645 133.01 11.0025C133.01 11.2292 133.047 11.4247 133.121 11.589C133.194 11.7534 133.293 11.8894 133.418 11.997C133.548 12.099 133.699 12.1755 133.869 12.2265C134.044 12.2719 134.231 12.2945 134.43 12.2945C134.696 12.2945 134.94 12.269 135.161 12.218C135.382 12.1614 135.588 12.082 135.781 11.98C135.979 11.878 136.166 11.7562 136.342 11.6145C136.523 11.4729 136.699 11.3114 136.869 11.13V9.34502ZM131.982 5.82602C132.458 5.36702 132.97 5.02419 133.52 4.79752C134.07 4.57085 134.679 4.45752 135.348 4.45752C135.829 4.45752 136.257 4.53685 136.631 4.69552C137.005 4.85419 137.32 5.07519 137.575 5.35852C137.83 5.64185 138.022 5.98469 138.153 6.38702C138.283 6.78935 138.348 7.23135 138.348 7.71302V13.221H137.677C137.529 13.221 137.416 13.1984 137.337 13.153C137.257 13.102 137.195 13.0057 137.15 12.864L136.98 12.048C136.753 12.2577 136.532 12.4447 136.317 12.609C136.101 12.7677 135.875 12.9037 135.637 13.017C135.399 13.1247 135.144 13.2069 134.872 13.2635C134.605 13.3259 134.308 13.357 133.979 13.357C133.645 13.357 133.33 13.3117 133.036 13.221C132.741 13.1247 132.483 12.983 132.262 12.796C132.047 12.609 131.874 12.3739 131.744 12.0905C131.619 11.8015 131.557 11.4615 131.557 11.0705C131.557 10.7305 131.65 10.4047 131.837 10.093C132.024 9.77569 132.327 9.49519 132.747 9.25152C133.166 9.00785 133.713 8.80952 134.387 8.65652C135.061 8.49785 135.889 8.40719 136.869 8.38452V7.71302C136.869 7.04435 136.725 6.54002 136.436 6.20002C136.147 5.85435 135.724 5.68152 135.169 5.68152C134.795 5.68152 134.481 5.72969 134.226 5.82602C133.976 5.91669 133.758 6.02152 133.571 6.14052C133.39 6.25385 133.231 6.35869 133.095 6.45502C132.965 6.54569 132.834 6.59102 132.704 6.59102C132.602 6.59102 132.514 6.56552 132.441 6.51452C132.367 6.45785 132.305 6.38985 132.254 6.31052L131.982 5.82602Z" fill="#353945"/>
<path d="M124.244 5.75818C124.612 5.36718 125.02 5.05552 125.468 4.82318C125.916 4.59085 126.431 4.47468 127.015 4.47468C127.485 4.47468 127.899 4.55402 128.256 4.71268C128.619 4.86568 128.919 5.08668 129.157 5.37568C129.401 5.65902 129.585 6.00185 129.71 6.40418C129.834 6.80652 129.897 7.25135 129.897 7.73868V13.2212H128.375V7.73868C128.375 7.08702 128.225 6.58268 127.925 6.22568C127.63 5.86302 127.179 5.68168 126.573 5.68168C126.125 5.68168 125.706 5.78935 125.315 6.00468C124.93 6.22002 124.573 6.51185 124.244 6.88018V13.2212H122.723V0.700684H124.244V5.75818Z" fill="#353945"/>
<path d="M118.939 9.34502C118.242 9.36769 117.647 9.42435 117.154 9.51502C116.667 9.60002 116.268 9.71335 115.956 9.85502C115.65 9.99669 115.426 10.1639 115.284 10.3565C115.148 10.5492 115.08 10.7645 115.08 11.0025C115.08 11.2292 115.117 11.4247 115.191 11.589C115.265 11.7534 115.364 11.8894 115.488 11.997C115.619 12.099 115.769 12.1755 115.939 12.2265C116.115 12.2719 116.302 12.2945 116.5 12.2945C116.766 12.2945 117.01 12.269 117.231 12.218C117.452 12.1614 117.659 12.082 117.851 11.98C118.05 11.878 118.237 11.7562 118.412 11.6145C118.594 11.4729 118.769 11.3114 118.939 11.13V9.34502ZM114.052 5.82602C114.528 5.36702 115.041 5.02419 115.59 4.79752C116.14 4.57085 116.749 4.45752 117.418 4.45752C117.9 4.45752 118.327 4.53685 118.701 4.69552C119.075 4.85419 119.39 5.07519 119.645 5.35852C119.9 5.64185 120.093 5.98469 120.223 6.38702C120.353 6.78935 120.418 7.23135 120.418 7.71302V13.221H119.747C119.6 13.221 119.486 13.1984 119.407 13.153C119.328 13.102 119.265 13.0057 119.22 12.864L119.05 12.048C118.823 12.2577 118.602 12.4447 118.387 12.609C118.172 12.7677 117.945 12.9037 117.707 13.017C117.469 13.1247 117.214 13.2069 116.942 13.2635C116.676 13.3259 116.378 13.357 116.049 13.357C115.715 13.357 115.401 13.3117 115.106 13.221C114.811 13.1247 114.553 12.983 114.332 12.796C114.117 12.609 113.944 12.3739 113.814 12.0905C113.689 11.8015 113.627 11.4615 113.627 11.0705C113.627 10.7305 113.72 10.4047 113.907 10.093C114.094 9.77569 114.398 9.49519 114.817 9.25152C115.236 9.00785 115.783 8.80952 116.457 8.65652C117.132 8.49785 117.959 8.40719 118.939 8.38452V7.71302C118.939 7.04435 118.795 6.54002 118.506 6.20002C118.217 5.85435 117.795 5.68152 117.239 5.68152C116.865 5.68152 116.551 5.72969 116.296 5.82602C116.047 5.91669 115.828 6.02152 115.641 6.14052C115.46 6.25385 115.301 6.35869 115.165 6.45502C115.035 6.54569 114.905 6.59102 114.774 6.59102C114.672 6.59102 114.585 6.56552 114.511 6.51452C114.437 6.45785 114.375 6.38985 114.324 6.31052L114.052 5.82602Z" fill="#353945"/>
<path d="M111.763 1.04053V13.221H110.318V4.27053C110.318 4.15153 110.321 4.02403 110.327 3.88803C110.338 3.75203 110.35 3.61319 110.361 3.47153L106.179 11.0875C106.049 11.3425 105.85 11.47 105.584 11.47H105.346C105.08 11.47 104.881 11.3425 104.751 11.0875L100.484 3.43753C100.518 3.73786 100.535 4.01553 100.535 4.27053V13.221H99.0898V1.04053H100.305C100.453 1.04053 100.566 1.05469 100.645 1.08303C100.725 1.11136 100.801 1.19069 100.875 1.32103L105.082 8.81803C105.15 8.95403 105.216 9.09569 105.278 9.24303C105.346 9.39036 105.408 9.54053 105.465 9.69353C105.522 9.54053 105.581 9.39036 105.643 9.24303C105.706 9.09003 105.774 8.94553 105.847 8.80953L109.978 1.32103C110.046 1.19069 110.12 1.11136 110.199 1.08303C110.284 1.05469 110.401 1.04053 110.548 1.04053H111.763Z" fill="#353945"/>
<path d="M94.7873 15.2783C94.742 15.2387 94.7108 15.2018 94.6938 15.1678C94.6768 15.1338 94.6683 15.0913 94.6683 15.0403C94.6683 15.0007 94.6796 14.961 94.7023 14.9213C94.7306 14.8817 94.7618 14.8448 94.7958 14.8108C94.8525 14.7485 94.9233 14.6663 95.0083 14.5643C95.099 14.4623 95.1896 14.3405 95.2803 14.1988C95.371 14.0628 95.4531 13.9098 95.5268 13.7398C95.6061 13.5755 95.6628 13.3998 95.6968 13.2128C95.6798 13.2185 95.66 13.2213 95.6373 13.2213C95.6203 13.2213 95.6033 13.2213 95.5863 13.2213C95.2916 13.2213 95.0508 13.125 94.8638 12.9323C94.6825 12.734 94.5918 12.4818 94.5918 12.1758C94.5918 11.9095 94.6825 11.6828 94.8638 11.4958C95.0508 11.3088 95.2973 11.2153 95.6033 11.2153C95.7733 11.2153 95.9235 11.2465 96.0538 11.3088C96.1841 11.3712 96.2918 11.459 96.3768 11.5723C96.4675 11.68 96.5355 11.8075 96.5808 11.9548C96.6261 12.0965 96.6488 12.2523 96.6488 12.4223C96.6488 12.6773 96.612 12.9437 96.5383 13.2213C96.4703 13.4933 96.3655 13.7625 96.2238 14.0288C96.0878 14.3008 95.9206 14.5643 95.7223 14.8193C95.524 15.0743 95.2973 15.3095 95.0423 15.5248L94.7873 15.2783Z" fill="#353945"/>
<path d="M92.3965 4.61082V13.2213H90.8835V4.61082H92.3965ZM92.7195 1.90782C92.7195 2.05516 92.6884 2.19399 92.626 2.32432C92.5694 2.44899 92.49 2.56232 92.388 2.66432C92.2917 2.76066 92.1755 2.83716 92.0395 2.89382C91.9092 2.95049 91.7704 2.97882 91.623 2.97882C91.4757 2.97882 91.3369 2.95049 91.2065 2.89382C91.0819 2.83716 90.9714 2.76066 90.875 2.66432C90.7787 2.56232 90.7022 2.44899 90.6455 2.32432C90.5889 2.19399 90.5605 2.05516 90.5605 1.90782C90.5605 1.76049 90.5889 1.62166 90.6455 1.49132C90.7022 1.35532 90.7787 1.23916 90.875 1.14282C90.9714 1.04082 91.0819 0.961491 91.2065 0.904824C91.3369 0.848157 91.4757 0.819824 91.623 0.819824C91.7704 0.819824 91.9092 0.848157 92.0395 0.904824C92.1755 0.961491 92.2917 1.04082 92.388 1.14282C92.49 1.23916 92.5694 1.35532 92.626 1.49132C92.6884 1.62166 92.7195 1.76049 92.7195 1.90782Z" fill="#353945"/>
<path d="M87.0137 9.34502C86.3167 9.36769 85.7217 9.42435 85.2287 9.51502C84.7413 9.60002 84.3418 9.71335 84.0302 9.85502C83.7242 9.99669 83.5003 10.1639 83.3587 10.3565C83.2227 10.5492 83.1547 10.7645 83.1547 11.0025C83.1547 11.2292 83.1915 11.4247 83.2652 11.589C83.3388 11.7534 83.438 11.8894 83.5627 11.997C83.693 12.099 83.8432 12.1755 84.0132 12.2265C84.1888 12.2719 84.3758 12.2945 84.5742 12.2945C84.8405 12.2945 85.0842 12.269 85.3052 12.218C85.5262 12.1614 85.733 12.082 85.9257 11.98C86.124 11.878 86.311 11.7562 86.4867 11.6145C86.668 11.4729 86.8437 11.3114 87.0137 11.13V9.34502ZM82.1262 5.82602C82.6022 5.36702 83.115 5.02419 83.6647 4.79752C84.2143 4.57085 84.8235 4.45752 85.4922 4.45752C85.9738 4.45752 86.4017 4.53685 86.7757 4.69552C87.1497 4.85419 87.4642 5.07519 87.7192 5.35852C87.9742 5.64185 88.1668 5.98469 88.2972 6.38702C88.4275 6.78935 88.4927 7.23135 88.4927 7.71302V13.221H87.8212C87.6738 13.221 87.5605 13.1984 87.4812 13.153C87.4018 13.102 87.3395 13.0057 87.2942 12.864L87.1242 12.048C86.8975 12.2577 86.6765 12.4447 86.4612 12.609C86.2458 12.7677 86.0192 12.9037 85.7812 13.017C85.5432 13.1247 85.2882 13.2069 85.0162 13.2635C84.7498 13.3259 84.4523 13.357 84.1237 13.357C83.7893 13.357 83.4748 13.3117 83.1802 13.221C82.8855 13.1247 82.6277 12.983 82.4067 12.796C82.1913 12.609 82.0185 12.3739 81.8882 12.0905C81.7635 11.8015 81.7012 11.4615 81.7012 11.0705C81.7012 10.7305 81.7947 10.4047 81.9817 10.093C82.1687 9.77569 82.4718 9.49519 82.8912 9.25152C83.3105 9.00785 83.8573 8.80952 84.5317 8.65652C85.206 8.49785 86.0333 8.40719 87.0137 8.38452V7.71302C87.0137 7.04435 86.8692 6.54002 86.5802 6.20002C86.2912 5.85435 85.869 5.68152 85.3137 5.68152C84.9397 5.68152 84.6252 5.72969 84.3702 5.82602C84.1208 5.91669 83.9027 6.02152 83.7157 6.14052C83.5343 6.25385 83.3757 6.35869 83.2397 6.45502C83.1093 6.54569 82.979 6.59102 82.8487 6.59102C82.7467 6.59102 82.6588 6.56552 82.5852 6.51452C82.5115 6.45785 82.4492 6.38985 82.3982 6.31052L82.1262 5.82602Z" fill="#353945"/>
<path d="M74.3555 11.1472C74.6332 11.5212 74.9363 11.7847 75.265 11.9377C75.5993 12.0907 75.9648 12.1672 76.3615 12.1672C77.1718 12.1672 77.7923 11.881 78.223 11.3087C78.6537 10.7364 78.869 9.88352 78.869 8.75018C78.869 7.69618 78.6763 6.92268 78.291 6.42968C77.9113 5.93102 77.3673 5.68168 76.659 5.68168C76.166 5.68168 75.7353 5.79502 75.367 6.02168C75.0043 6.24835 74.6672 6.56852 74.3555 6.98218V11.1472ZM74.3555 5.85168C74.7182 5.43235 75.1261 5.09802 75.5795 4.84868C76.0385 4.59935 76.5655 4.47468 77.1605 4.47468C77.6648 4.47468 78.1182 4.57102 78.5205 4.76368C78.9285 4.95635 79.2741 5.23685 79.5575 5.60518C79.8408 5.96785 80.0562 6.40985 80.2035 6.93118C80.3565 7.45252 80.433 8.03902 80.433 8.69068C80.433 9.38768 80.348 10.0224 80.178 10.5947C80.008 11.167 79.7615 11.6572 79.4385 12.0652C79.1212 12.4675 78.733 12.782 78.274 13.0087C77.815 13.2297 77.2993 13.3402 76.727 13.3402C76.1603 13.3402 75.6815 13.2354 75.2905 13.0257C74.9051 12.8104 74.568 12.5072 74.279 12.1162L74.2025 12.8982C74.1572 13.1135 74.0268 13.2212 73.8115 13.2212H72.834V0.700684H74.3555V5.85168Z" fill="#353945"/>
<path d="M58.8555 13.2211V4.61061H59.765C59.9803 4.61061 60.1135 4.71544 60.1645 4.92511L60.275 5.80911C60.5923 5.41811 60.9493 5.09794 61.346 4.84861C61.7426 4.59928 62.2016 4.47461 62.723 4.47461C63.301 4.47461 63.7685 4.63611 64.1255 4.95911C64.4881 5.28211 64.7488 5.71844 64.9075 6.26811C65.0321 5.95644 65.1908 5.68728 65.3835 5.46061C65.5818 5.23394 65.8028 5.04694 66.0465 4.89961C66.2901 4.75228 66.548 4.64461 66.82 4.57661C67.0976 4.50861 67.3781 4.47461 67.6615 4.47461C68.1148 4.47461 68.5171 4.54828 68.8685 4.69561C69.2255 4.83728 69.5258 5.04694 69.7695 5.32461C70.0188 5.60228 70.2086 5.94511 70.339 6.35311C70.4693 6.75544 70.5345 7.21728 70.5345 7.73861V13.2211H69.013V7.73861C69.013 7.06428 68.8656 6.55428 68.571 6.20861C68.2763 5.85728 67.8513 5.68161 67.296 5.68161C67.0466 5.68161 66.8086 5.72694 66.582 5.81761C66.361 5.90261 66.1655 6.03011 65.9955 6.20011C65.8255 6.37011 65.6895 6.58544 65.5875 6.84611C65.4911 7.10111 65.443 7.39861 65.443 7.73861V13.2211H63.9215V7.73861C63.9215 7.04728 63.7826 6.53161 63.505 6.19161C63.2273 5.85161 62.8221 5.68161 62.2895 5.68161C61.9155 5.68161 61.5698 5.78361 61.2525 5.98761C60.9351 6.18594 60.6433 6.45794 60.377 6.80361V13.2211H58.8555Z" fill="#353945"/>
<path d="M56.4565 4.61084V13.2213H55.5555C55.3402 13.2213 55.2042 13.1165 55.1475 12.9068L55.0285 11.9803C54.6545 12.394 54.2352 12.7283 53.7705 12.9833C53.3059 13.2327 52.7732 13.3573 52.1725 13.3573C51.7022 13.3573 51.2857 13.2808 50.923 13.1278C50.566 12.9692 50.2657 12.7482 50.022 12.4648C49.7784 12.1815 49.5942 11.8387 49.4695 11.4363C49.3505 11.034 49.291 10.5892 49.291 10.1018V4.61084H50.804V10.1018C50.804 10.7535 50.9514 11.2578 51.246 11.6148C51.5464 11.9718 52.0025 12.1503 52.6145 12.1503C53.0622 12.1503 53.4787 12.0455 53.864 11.8358C54.255 11.6205 54.6148 11.3258 54.9435 10.9518V4.61084H56.4565Z" fill="#353945"/>
<path d="M46.7692 1.04053V13.221H45.3242V4.27053C45.3242 4.15153 45.327 4.02403 45.3327 3.88803C45.344 3.75203 45.3554 3.61319 45.3667 3.47153L41.1847 11.0875C41.0544 11.3425 40.856 11.47 40.5897 11.47H40.3517C40.0854 11.47 39.887 11.3425 39.7567 11.0875L35.4897 3.43753C35.5237 3.73786 35.5407 4.01553 35.5407 4.27053V13.221H34.0957V1.04053H35.3112C35.4585 1.04053 35.5719 1.05469 35.6512 1.08303C35.7305 1.11136 35.807 1.19069 35.8807 1.32103L40.0882 8.81803C40.1562 8.95403 40.2214 9.09569 40.2837 9.24303C40.3517 9.39036 40.414 9.54053 40.4707 9.69353C40.5274 9.54053 40.5869 9.39036 40.6492 9.24303C40.7115 9.09003 40.7795 8.94553 40.8532 8.80953L44.9842 1.32103C45.0522 1.19069 45.1259 1.11136 45.2052 1.08303C45.2902 1.05469 45.4064 1.04053 45.5537 1.04053H46.7692Z" fill="#353945"/>
<path d="M19.4345 4.33879C19.5139 3.78345 19.6669 3.29329 19.8935 2.86829C20.1202 2.43762 20.4064 2.07779 20.752 1.78879C21.1034 1.49979 21.5029 1.28162 21.9505 1.13429C22.4039 0.981286 22.8912 0.904785 23.4125 0.904785C23.9282 0.904785 24.4042 0.978452 24.8405 1.12579C25.2769 1.27312 25.6509 1.48279 25.9625 1.75479C26.2799 2.02679 26.5264 2.35545 26.702 2.74079C26.8777 3.12612 26.9655 3.55395 26.9655 4.02429C26.9655 4.40962 26.9145 4.75529 26.8125 5.06129C26.7162 5.36162 26.5745 5.62512 26.3875 5.85179C26.2062 6.07845 25.9852 6.27112 25.7245 6.42979C25.4639 6.58845 25.172 6.71879 24.849 6.82079C25.6424 7.02479 26.2374 7.37612 26.634 7.87479C27.0364 8.36779 27.2375 8.98545 27.2375 9.72779C27.2375 10.2888 27.1299 10.7931 26.9145 11.2408C26.7049 11.6885 26.4159 12.071 26.0475 12.3883C25.6792 12.7 25.2485 12.9408 24.7555 13.1108C24.2682 13.2751 23.744 13.3573 23.183 13.3573C22.537 13.3573 21.9845 13.278 21.5255 13.1193C21.0665 12.955 20.6784 12.7311 20.361 12.4478C20.0437 12.1645 19.783 11.8301 19.579 11.4448C19.375 11.0538 19.2022 10.6316 19.0605 10.1783L19.715 9.90629C19.885 9.83262 20.0494 9.81279 20.208 9.84679C20.3724 9.88079 20.4914 9.97429 20.565 10.1273C20.6387 10.286 20.7294 10.4758 20.837 10.6968C20.9504 10.9178 21.1034 11.1303 21.296 11.3343C21.4887 11.5383 21.7324 11.7111 22.027 11.8528C22.3274 11.9945 22.707 12.0653 23.166 12.0653C23.591 12.0653 23.9622 11.9973 24.2795 11.8613C24.6025 11.7196 24.8689 11.5383 25.0785 11.3173C25.2939 11.0963 25.4554 10.8498 25.563 10.5778C25.6707 10.3058 25.7245 10.0366 25.7245 9.77029C25.7245 9.44162 25.682 9.14129 25.597 8.86929C25.512 8.59729 25.3534 8.36212 25.121 8.16379C24.8887 7.96545 24.5685 7.80962 24.1605 7.69629C23.7582 7.58295 23.2397 7.52629 22.605 7.52629V6.42979C23.1264 6.42412 23.5684 6.36745 23.931 6.25979C24.2994 6.15212 24.5969 6.00479 24.8235 5.81779C25.0559 5.63079 25.223 5.40695 25.325 5.14629C25.4327 4.88562 25.4865 4.59662 25.4865 4.27929C25.4865 3.92795 25.4299 3.62195 25.3165 3.36129C25.2089 3.10062 25.0587 2.88529 24.866 2.71529C24.6734 2.54529 24.4439 2.41779 24.1775 2.33279C23.9169 2.24779 23.6335 2.20529 23.3275 2.20529C23.0215 2.20529 22.7354 2.25062 22.469 2.34129C22.2084 2.43195 21.976 2.55945 21.772 2.72379C21.5737 2.88245 21.4065 3.07229 21.2705 3.29329C21.1345 3.51429 21.0382 3.75795 20.9815 4.02429C20.9079 4.22262 20.8144 4.35579 20.701 4.42379C20.5934 4.48612 20.4347 4.50312 20.225 4.47479L19.4345 4.33879Z" fill="#353945"/>
<path d="M16.8561 11.7848C17.0205 11.7848 17.1508 11.833 17.2471 11.9293C17.3435 12.0256 17.3916 12.1503 17.3916 12.3033V13.2213H9.26562V12.7028C9.26562 12.5951 9.28829 12.4846 9.33362 12.3713C9.37896 12.258 9.44979 12.1531 9.54613 12.0568L13.4476 8.13829C13.7706 7.80962 14.0653 7.49512 14.3316 7.19479C14.598 6.88879 14.8246 6.58279 15.0116 6.27679C15.1986 5.97079 15.3431 5.66195 15.4451 5.35029C15.5471 5.03295 15.5981 4.69579 15.5981 4.33879C15.5981 3.98179 15.5415 3.67012 15.4281 3.40379C15.3148 3.13179 15.159 2.90795 14.9606 2.73229C14.768 2.55662 14.5385 2.42629 14.2721 2.34129C14.0058 2.25062 13.7196 2.20529 13.4136 2.20529C13.102 2.20529 12.8158 2.25062 12.5551 2.34129C12.2945 2.43195 12.0621 2.55945 11.8581 2.72379C11.6598 2.88245 11.4926 3.07229 11.3566 3.29329C11.2206 3.51429 11.1243 3.75795 11.0676 4.02429C10.9996 4.22262 10.9061 4.35579 10.7871 4.42379C10.6738 4.48612 10.5123 4.50312 10.3026 4.47479L9.51213 4.33879C9.59146 3.78345 9.74446 3.29329 9.97113 2.86829C10.2035 2.43762 10.4925 2.07779 10.8381 1.78879C11.1895 1.49979 11.589 1.28162 12.0366 1.13429C12.4843 0.981286 12.9688 0.904785 13.4901 0.904785C14.0058 0.904785 14.4875 0.981286 14.9351 1.13429C15.3828 1.28729 15.771 1.51112 16.0996 1.80579C16.4283 2.09479 16.6861 2.44895 16.8731 2.86829C17.0601 3.28762 17.1536 3.76362 17.1536 4.29629C17.1536 4.74962 17.0856 5.17179 16.9496 5.56279C16.8136 5.94812 16.6295 6.31645 16.3971 6.66779C16.1648 7.01912 15.8956 7.36195 15.5896 7.69629C15.2893 8.03062 14.9691 8.36779 14.6291 8.70779L11.4161 11.9888C11.6428 11.9265 11.8723 11.8783 12.1046 11.8443C12.337 11.8046 12.5608 11.7848 12.7761 11.7848H16.8561Z" fill="#353945"/>
<path d="M7.259 12.0651V13.2211H0.731V12.0651H3.3405V3.76064C3.3405 3.5113 3.349 3.25914 3.366 3.00414L1.1985 4.86564C1.12483 4.92797 1.05117 4.96764 0.9775 4.98464C0.903833 4.99597 0.835833 4.99597 0.7735 4.98464C0.711167 4.9733 0.651667 4.95064 0.595 4.91664C0.544 4.88264 0.504333 4.8458 0.476 4.80614L0 4.15164L3.6295 1.01514H4.862V12.0651H7.259Z" fill="#353945"/>
</svg>
