<svg width="191" height="16" viewBox="0 0 191 16" fill="none" xmlns="http://www.w3.org/2000/svg">
<path d="M188.699 9.34453C188.002 9.3672 187.407 9.42386 186.914 9.51453C186.427 9.59953 186.027 9.71286 185.716 9.85453C185.41 9.9962 185.186 10.1634 185.044 10.356C184.908 10.5487 184.84 10.764 184.84 11.002C184.84 11.2287 184.877 11.4242 184.951 11.5885C185.024 11.7529 185.124 11.8889 185.248 11.9965C185.379 12.0985 185.529 12.175 185.699 12.226C185.874 12.2714 186.061 12.294 186.26 12.294C186.526 12.294 186.77 12.2685 186.991 12.2175C187.212 12.1609 187.419 12.0815 187.611 11.9795C187.81 11.8775 187.997 11.7557 188.172 11.614C188.354 11.4724 188.529 11.3109 188.699 11.1295V9.34453ZM183.812 5.82553C184.288 5.36653 184.801 5.0237 185.35 4.79703C185.9 4.57036 186.509 4.45703 187.178 4.45703C187.659 4.45703 188.087 4.53636 188.461 4.69503C188.835 4.8537 189.15 5.0747 189.405 5.35803C189.66 5.64136 189.852 5.9842 189.983 6.38653C190.113 6.78886 190.178 7.23086 190.178 7.71253V13.2205H189.507C189.359 13.2205 189.246 13.1979 189.167 13.1525C189.087 13.1015 189.025 13.0052 188.98 12.8635L188.81 12.0475C188.583 12.2572 188.362 12.4442 188.147 12.6085C187.931 12.7672 187.705 12.9032 187.467 13.0165C187.229 13.1242 186.974 13.2064 186.702 13.263C186.435 13.3254 186.138 13.3565 185.809 13.3565C185.475 13.3565 185.16 13.3112 184.866 13.2205C184.571 13.1242 184.313 12.9825 184.092 12.7955C183.877 12.6085 183.704 12.3734 183.574 12.09C183.449 11.801 183.387 11.461 183.387 11.07C183.387 10.73 183.48 10.4042 183.667 10.0925C183.854 9.7752 184.157 9.4947 184.577 9.25103C184.996 9.00736 185.543 8.80903 186.217 8.65603C186.892 8.49736 187.719 8.4067 188.699 8.38403V7.71253C188.699 7.04386 188.555 6.53953 188.266 6.19953C187.977 5.85386 187.555 5.68103 186.999 5.68103C186.625 5.68103 186.311 5.7292 186.056 5.82553C185.806 5.9162 185.588 6.02103 185.401 6.14003C185.22 6.25336 185.061 6.3582 184.925 6.45453C184.795 6.5452 184.665 6.59053 184.534 6.59053C184.432 6.59053 184.344 6.56503 184.271 6.51403C184.197 6.45736 184.135 6.38936 184.084 6.31003L183.812 5.82553Z" fill="#353945"/>
<path d="M179.409 6.33553C179.681 5.7462 180.015 5.2872 180.412 4.95853C180.809 4.6242 181.293 4.45703 181.866 4.45703C182.047 4.45703 182.22 4.47686 182.384 4.51653C182.554 4.5562 182.704 4.61853 182.835 4.70353L182.724 5.83403C182.69 5.9757 182.605 6.04653 182.469 6.04653C182.39 6.04653 182.274 6.02953 182.121 5.99553C181.968 5.96153 181.795 5.94453 181.602 5.94453C181.33 5.94453 181.086 5.9842 180.871 6.06353C180.661 6.14286 180.472 6.26186 180.302 6.42053C180.137 6.57353 179.987 6.7662 179.851 6.99853C179.721 7.2252 179.602 7.48586 179.494 7.78053V13.2205H177.973V4.61003H178.84C179.004 4.61003 179.117 4.6412 179.18 4.70353C179.242 4.76586 179.284 4.87353 179.307 5.02653L179.409 6.33553Z" fill="#353945"/>
<path d="M174.523 13.3565C173.843 13.3565 173.319 13.1666 172.951 12.787C172.588 12.4073 172.407 11.8605 172.407 11.1465V5.87648H171.37C171.279 5.87648 171.203 5.85098 171.14 5.79998C171.078 5.74331 171.047 5.65831 171.047 5.54498V4.94148L172.458 4.76298L172.806 2.10248C172.823 2.01748 172.86 1.94948 172.917 1.89848C172.979 1.84181 173.059 1.81348 173.155 1.81348H173.92V4.77998H176.41V5.87648H173.92V11.0445C173.92 11.4071 174.008 11.6763 174.183 11.852C174.359 12.0276 174.586 12.1155 174.863 12.1155C175.022 12.1155 175.158 12.0956 175.271 12.056C175.39 12.0106 175.492 11.9625 175.577 11.9115C175.662 11.8605 175.733 11.8151 175.79 11.7755C175.852 11.7301 175.906 11.7075 175.951 11.7075C176.031 11.7075 176.102 11.7556 176.164 11.852L176.606 12.5745C176.345 12.8181 176.031 13.0108 175.662 13.1525C175.294 13.2885 174.914 13.3565 174.523 13.3565Z" fill="#353945"/>
<path d="M164.037 5.7577C164.405 5.3667 164.813 5.05503 165.261 4.82269C165.709 4.59036 166.224 4.4742 166.808 4.4742C167.278 4.4742 167.692 4.55353 168.049 4.7122C168.412 4.8652 168.712 5.0862 168.95 5.3752C169.194 5.65853 169.378 6.00136 169.503 6.4037C169.627 6.80603 169.69 7.25086 169.69 7.7382V13.2207H168.168V7.7382C168.168 7.08653 168.018 6.58219 167.718 6.22519C167.423 5.86253 166.972 5.6812 166.366 5.6812C165.918 5.6812 165.499 5.78886 165.108 6.0042C164.723 6.21953 164.366 6.51136 164.037 6.87969V13.2207H162.516V0.700195H164.037V5.7577Z" fill="#353945"/>
<path d="M160.177 6.03011C160.109 6.15478 160.004 6.21711 159.863 6.21711C159.778 6.21711 159.681 6.18594 159.574 6.12361C159.466 6.06128 159.333 5.99328 159.174 5.91961C159.021 5.84028 158.837 5.76944 158.622 5.70711C158.406 5.63911 158.151 5.60511 157.857 5.60511C157.602 5.60511 157.372 5.63911 157.168 5.70711C156.964 5.76944 156.789 5.85728 156.641 5.97061C156.5 6.08394 156.389 6.21711 156.31 6.37011C156.236 6.51744 156.199 6.67894 156.199 6.85461C156.199 7.07561 156.262 7.25978 156.386 7.40711C156.517 7.55444 156.687 7.68194 156.896 7.78961C157.106 7.89728 157.344 7.99361 157.61 8.07861C157.877 8.15794 158.149 8.24578 158.426 8.34211C158.71 8.43278 158.984 8.53478 159.251 8.64811C159.517 8.76144 159.755 8.90311 159.965 9.07311C160.174 9.24311 160.342 9.45278 160.466 9.70211C160.597 9.94578 160.662 10.2404 160.662 10.5861C160.662 10.9828 160.591 11.3511 160.449 11.6911C160.308 12.0254 160.098 12.3173 159.82 12.5666C159.543 12.8103 159.203 13.0029 158.8 13.1446C158.398 13.2863 157.933 13.3571 157.406 13.3571C156.806 13.3571 156.262 13.2608 155.774 13.0681C155.287 12.8698 154.873 12.6176 154.533 12.3116L154.89 11.7336C154.936 11.6599 154.989 11.6033 155.052 11.5636C155.114 11.5239 155.193 11.5041 155.29 11.5041C155.392 11.5041 155.499 11.5438 155.613 11.6231C155.726 11.7024 155.862 11.7903 156.021 11.8866C156.185 11.9829 156.383 12.0708 156.616 12.1501C156.848 12.2294 157.137 12.2691 157.483 12.2691C157.777 12.2691 158.035 12.2323 158.256 12.1586C158.477 12.0793 158.661 11.9744 158.809 11.8441C158.956 11.7138 159.064 11.5636 159.132 11.3936C159.205 11.2236 159.242 11.0423 159.242 10.8496C159.242 10.6116 159.177 10.4161 159.047 10.2631C158.922 10.1044 158.755 9.97128 158.545 9.86361C158.336 9.75028 158.095 9.65394 157.823 9.57461C157.556 9.48961 157.282 9.40178 156.998 9.31111C156.721 9.22044 156.446 9.11844 156.174 9.00511C155.907 8.88611 155.669 8.73878 155.46 8.56311C155.25 8.38744 155.08 8.17211 154.95 7.91711C154.825 7.65644 154.763 7.34194 154.763 6.97361C154.763 6.64494 154.831 6.33044 154.967 6.03011C155.103 5.72411 155.301 5.45778 155.562 5.23111C155.822 4.99878 156.143 4.81461 156.522 4.67861C156.902 4.54261 157.335 4.47461 157.823 4.47461C158.389 4.47461 158.897 4.56528 159.344 4.74661C159.798 4.92228 160.189 5.16594 160.517 5.47761L160.177 6.03011Z" fill="#353945"/>
<path d="M151.379 9.34453C150.682 9.3672 150.087 9.42386 149.594 9.51453C149.107 9.59953 148.707 9.71286 148.395 9.85453C148.089 9.9962 147.866 10.1634 147.724 10.356C147.588 10.5487 147.52 10.764 147.52 11.002C147.52 11.2287 147.557 11.4242 147.63 11.5885C147.704 11.7529 147.803 11.8889 147.928 11.9965C148.058 12.0985 148.208 12.175 148.378 12.226C148.554 12.2714 148.741 12.294 148.939 12.294C149.206 12.294 149.449 12.2685 149.67 12.2175C149.891 12.1609 150.098 12.0815 150.291 11.9795C150.489 11.8775 150.676 11.7557 150.852 11.614C151.033 11.4724 151.209 11.3109 151.379 11.1295V9.34453ZM146.491 5.82553C146.967 5.36653 147.48 5.0237 148.03 4.79703C148.58 4.57036 149.189 4.45703 149.857 4.45703C150.339 4.45703 150.767 4.53636 151.141 4.69503C151.515 4.8537 151.829 5.0747 152.084 5.35803C152.339 5.64136 152.532 5.9842 152.662 6.38653C152.793 6.78886 152.858 7.23086 152.858 7.71253V13.2205H152.186C152.039 13.2205 151.926 13.1979 151.846 13.1525C151.767 13.1015 151.705 13.0052 151.659 12.8635L151.489 12.0475C151.263 12.2572 151.042 12.4442 150.826 12.6085C150.611 12.7672 150.384 12.9032 150.146 13.0165C149.908 13.1242 149.653 13.2064 149.381 13.263C149.115 13.3254 148.818 13.3565 148.489 13.3565C148.155 13.3565 147.84 13.3112 147.545 13.2205C147.251 13.1242 146.993 12.9825 146.772 12.7955C146.557 12.6085 146.384 12.3734 146.253 12.09C146.129 11.801 146.066 11.461 146.066 11.07C146.066 10.73 146.16 10.4042 146.347 10.0925C146.534 9.7752 146.837 9.4947 147.256 9.25103C147.676 9.00736 148.223 8.80903 148.897 8.65603C149.571 8.49736 150.399 8.4067 151.379 8.38403V7.71253C151.379 7.04386 151.234 6.53953 150.945 6.19953C150.656 5.85386 150.234 5.68103 149.679 5.68103C149.305 5.68103 148.99 5.7292 148.735 5.82553C148.486 5.9162 148.268 6.02103 148.081 6.14003C147.9 6.25336 147.741 6.3582 147.605 6.45453C147.475 6.5452 147.344 6.59053 147.214 6.59053C147.112 6.59053 147.024 6.56503 146.95 6.51403C146.877 6.45736 146.814 6.38936 146.763 6.31003L146.491 5.82553Z" fill="#353945"/>
<path d="M142.089 6.33553C142.361 5.7462 142.695 5.2872 143.092 4.95853C143.489 4.6242 143.973 4.45703 144.545 4.45703C144.727 4.45703 144.9 4.47686 145.064 4.51653C145.234 4.5562 145.384 4.61853 145.514 4.70353L145.404 5.83403C145.37 5.9757 145.285 6.04653 145.149 6.04653C145.07 6.04653 144.953 6.02953 144.8 5.99553C144.647 5.96153 144.475 5.94453 144.282 5.94453C144.01 5.94453 143.766 5.9842 143.551 6.06353C143.341 6.14286 143.151 6.26186 142.981 6.42053C142.817 6.57353 142.667 6.7662 142.531 6.99853C142.401 7.2252 142.282 7.48586 142.174 7.78053V13.2205H140.652V4.61003H141.519C141.684 4.61003 141.797 4.6412 141.859 4.70353C141.922 4.76586 141.964 4.87353 141.987 5.02653L142.089 6.33553Z" fill="#353945"/>
<path d="M136.869 9.34453C136.172 9.3672 135.577 9.42386 135.084 9.51453C134.597 9.59953 134.197 9.71286 133.886 9.85453C133.58 9.9962 133.356 10.1634 133.214 10.356C133.078 10.5487 133.01 10.764 133.01 11.002C133.01 11.2287 133.047 11.4242 133.121 11.5885C133.194 11.7529 133.293 11.8889 133.418 11.9965C133.548 12.0985 133.699 12.175 133.869 12.226C134.044 12.2714 134.231 12.294 134.43 12.294C134.696 12.294 134.94 12.2685 135.161 12.2175C135.382 12.1609 135.588 12.0815 135.781 11.9795C135.979 11.8775 136.166 11.7557 136.342 11.614C136.523 11.4724 136.699 11.3109 136.869 11.1295V9.34453ZM131.982 5.82553C132.458 5.36653 132.97 5.0237 133.52 4.79703C134.07 4.57036 134.679 4.45703 135.348 4.45703C135.829 4.45703 136.257 4.53636 136.631 4.69503C137.005 4.8537 137.32 5.0747 137.575 5.35803C137.83 5.64136 138.022 5.9842 138.153 6.38653C138.283 6.78886 138.348 7.23086 138.348 7.71253V13.2205H137.677C137.529 13.2205 137.416 13.1979 137.337 13.1525C137.257 13.1015 137.195 13.0052 137.15 12.8635L136.98 12.0475C136.753 12.2572 136.532 12.4442 136.317 12.6085C136.101 12.7672 135.875 12.9032 135.637 13.0165C135.399 13.1242 135.144 13.2064 134.872 13.263C134.605 13.3254 134.308 13.3565 133.979 13.3565C133.645 13.3565 133.33 13.3112 133.036 13.2205C132.741 13.1242 132.483 12.9825 132.262 12.7955C132.047 12.6085 131.874 12.3734 131.744 12.09C131.619 11.801 131.557 11.461 131.557 11.07C131.557 10.73 131.65 10.4042 131.837 10.0925C132.024 9.7752 132.327 9.4947 132.747 9.25103C133.166 9.00736 133.713 8.80903 134.387 8.65603C135.061 8.49736 135.889 8.4067 136.869 8.38403V7.71253C136.869 7.04386 136.725 6.53953 136.436 6.19953C136.147 5.85386 135.724 5.68103 135.169 5.68103C134.795 5.68103 134.481 5.7292 134.226 5.82553C133.976 5.9162 133.758 6.02103 133.571 6.14003C133.39 6.25336 133.231 6.3582 133.095 6.45453C132.965 6.5452 132.834 6.59053 132.704 6.59053C132.602 6.59053 132.514 6.56503 132.441 6.51403C132.367 6.45736 132.305 6.38936 132.254 6.31003L131.982 5.82553Z" fill="#353945"/>
<path d="M124.244 5.7577C124.612 5.3667 125.02 5.05503 125.468 4.82269C125.916 4.59036 126.431 4.4742 127.015 4.4742C127.485 4.4742 127.899 4.55353 128.256 4.7122C128.619 4.8652 128.919 5.0862 129.157 5.3752C129.401 5.65853 129.585 6.00136 129.71 6.4037C129.834 6.80603 129.897 7.25086 129.897 7.7382V13.2207H128.375V7.7382C128.375 7.08653 128.225 6.58219 127.925 6.22519C127.63 5.86253 127.179 5.6812 126.573 5.6812C126.125 5.6812 125.706 5.78886 125.315 6.0042C124.93 6.21953 124.573 6.51136 124.244 6.87969V13.2207H122.723V0.700195H124.244V5.7577Z" fill="#353945"/>
<path d="M118.939 9.34453C118.242 9.3672 117.647 9.42386 117.154 9.51453C116.667 9.59953 116.268 9.71286 115.956 9.85453C115.65 9.9962 115.426 10.1634 115.284 10.356C115.148 10.5487 115.08 10.764 115.08 11.002C115.08 11.2287 115.117 11.4242 115.191 11.5885C115.265 11.7529 115.364 11.8889 115.488 11.9965C115.619 12.0985 115.769 12.175 115.939 12.226C116.115 12.2714 116.302 12.294 116.5 12.294C116.766 12.294 117.01 12.2685 117.231 12.2175C117.452 12.1609 117.659 12.0815 117.851 11.9795C118.05 11.8775 118.237 11.7557 118.412 11.614C118.594 11.4724 118.769 11.3109 118.939 11.1295V9.34453ZM114.052 5.82553C114.528 5.36653 115.041 5.0237 115.59 4.79703C116.14 4.57036 116.749 4.45703 117.418 4.45703C117.9 4.45703 118.327 4.53636 118.701 4.69503C119.075 4.8537 119.39 5.0747 119.645 5.35803C119.9 5.64136 120.093 5.9842 120.223 6.38653C120.353 6.78886 120.418 7.23086 120.418 7.71253V13.2205H119.747C119.6 13.2205 119.486 13.1979 119.407 13.1525C119.328 13.1015 119.265 13.0052 119.22 12.8635L119.05 12.0475C118.823 12.2572 118.602 12.4442 118.387 12.6085C118.172 12.7672 117.945 12.9032 117.707 13.0165C117.469 13.1242 117.214 13.2064 116.942 13.263C116.676 13.3254 116.378 13.3565 116.049 13.3565C115.715 13.3565 115.401 13.3112 115.106 13.2205C114.811 13.1242 114.553 12.9825 114.332 12.7955C114.117 12.6085 113.944 12.3734 113.814 12.09C113.689 11.801 113.627 11.461 113.627 11.07C113.627 10.73 113.72 10.4042 113.907 10.0925C114.094 9.7752 114.398 9.4947 114.817 9.25103C115.236 9.00736 115.783 8.80903 116.457 8.65603C117.132 8.49736 117.959 8.4067 118.939 8.38403V7.71253C118.939 7.04386 118.795 6.53953 118.506 6.19953C118.217 5.85386 117.795 5.68103 117.239 5.68103C116.865 5.68103 116.551 5.7292 116.296 5.82553C116.047 5.9162 115.828 6.02103 115.641 6.14003C115.46 6.25336 115.301 6.3582 115.165 6.45453C115.035 6.5452 114.905 6.59053 114.774 6.59053C114.672 6.59053 114.585 6.56503 114.511 6.51403C114.437 6.45736 114.375 6.38936 114.324 6.31003L114.052 5.82553Z" fill="#353945"/>
<path d="M111.763 1.04004V13.2205H110.318V4.27004C110.318 4.15104 110.321 4.02354 110.327 3.88754C110.338 3.75154 110.35 3.61271 110.361 3.47104L106.179 11.087C106.049 11.342 105.85 11.4695 105.584 11.4695H105.346C105.08 11.4695 104.881 11.342 104.751 11.087L100.484 3.43704C100.518 3.73737 100.535 4.01504 100.535 4.27004V13.2205H99.0898V1.04004H100.305C100.453 1.04004 100.566 1.05421 100.645 1.08254C100.725 1.11087 100.801 1.19021 100.875 1.32054L105.082 8.81754C105.15 8.95354 105.216 9.09521 105.278 9.24254C105.346 9.38987 105.408 9.54004 105.465 9.69304C105.522 9.54004 105.581 9.38987 105.643 9.24254C105.706 9.08954 105.774 8.94504 105.847 8.80904L109.978 1.32054C110.046 1.19021 110.12 1.11087 110.199 1.08254C110.284 1.05421 110.401 1.04004 110.548 1.04004H111.763Z" fill="#353945"/>
<path d="M94.7873 15.2778C94.742 15.2382 94.7108 15.2013 94.6938 15.1673C94.6768 15.1333 94.6683 15.0908 94.6683 15.0398C94.6683 15.0002 94.6796 14.9605 94.7023 14.9208C94.7306 14.8812 94.7618 14.8443 94.7958 14.8103C94.8525 14.748 94.9233 14.6658 95.0083 14.5638C95.099 14.4618 95.1896 14.34 95.2803 14.1983C95.371 14.0623 95.4531 13.9093 95.5268 13.7393C95.6061 13.575 95.6628 13.3993 95.6968 13.2123C95.6798 13.218 95.66 13.2208 95.6373 13.2208C95.6203 13.2208 95.6033 13.2208 95.5863 13.2208C95.2916 13.2208 95.0508 13.1245 94.8638 12.9318C94.6825 12.7335 94.5918 12.4813 94.5918 12.1753C94.5918 11.909 94.6825 11.6823 94.8638 11.4953C95.0508 11.3083 95.2973 11.2148 95.6033 11.2148C95.7733 11.2148 95.9235 11.246 96.0538 11.3083C96.1841 11.3707 96.2918 11.4585 96.3768 11.5718C96.4675 11.6795 96.5355 11.807 96.5808 11.9543C96.6261 12.096 96.6488 12.2518 96.6488 12.4218C96.6488 12.6768 96.612 12.9432 96.5383 13.2208C96.4703 13.4928 96.3655 13.762 96.2238 14.0283C96.0878 14.3003 95.9206 14.5638 95.7223 14.8188C95.524 15.0738 95.2973 15.309 95.0423 15.5243L94.7873 15.2778Z" fill="#353945"/>
<path d="M92.3965 4.61034V13.2208H90.8835V4.61034H92.3965ZM92.7195 1.90734C92.7195 2.05467 92.6884 2.1935 92.626 2.32384C92.5694 2.4485 92.49 2.56184 92.388 2.66384C92.2917 2.76017 92.1755 2.83667 92.0395 2.89334C91.9092 2.95 91.7704 2.97834 91.623 2.97834C91.4757 2.97834 91.3369 2.95 91.2065 2.89334C91.0819 2.83667 90.9714 2.76017 90.875 2.66384C90.7787 2.56184 90.7022 2.4485 90.6455 2.32384C90.5889 2.1935 90.5605 2.05467 90.5605 1.90734C90.5605 1.76 90.5889 1.62117 90.6455 1.49084C90.7022 1.35484 90.7787 1.23867 90.875 1.14234C90.9714 1.04034 91.0819 0.961003 91.2065 0.904335C91.3369 0.847669 91.4757 0.819336 91.623 0.819336C91.7704 0.819336 91.9092 0.847669 92.0395 0.904335C92.1755 0.961003 92.2917 1.04034 92.388 1.14234C92.49 1.23867 92.5694 1.35484 92.626 1.49084C92.6884 1.62117 92.7195 1.76 92.7195 1.90734Z" fill="#353945"/>
<path d="M87.0137 9.34453C86.3167 9.3672 85.7217 9.42386 85.2287 9.51453C84.7413 9.59953 84.3418 9.71286 84.0302 9.85453C83.7242 9.9962 83.5003 10.1634 83.3587 10.356C83.2227 10.5487 83.1547 10.764 83.1547 11.002C83.1547 11.2287 83.1915 11.4242 83.2652 11.5885C83.3388 11.7529 83.438 11.8889 83.5627 11.9965C83.693 12.0985 83.8432 12.175 84.0132 12.226C84.1888 12.2714 84.3758 12.294 84.5742 12.294C84.8405 12.294 85.0842 12.2685 85.3052 12.2175C85.5262 12.1609 85.733 12.0815 85.9257 11.9795C86.124 11.8775 86.311 11.7557 86.4867 11.614C86.668 11.4724 86.8437 11.3109 87.0137 11.1295V9.34453ZM82.1262 5.82553C82.6022 5.36653 83.115 5.0237 83.6647 4.79703C84.2143 4.57036 84.8235 4.45703 85.4922 4.45703C85.9738 4.45703 86.4017 4.53636 86.7757 4.69503C87.1497 4.8537 87.4642 5.0747 87.7192 5.35803C87.9742 5.64136 88.1668 5.9842 88.2972 6.38653C88.4275 6.78886 88.4927 7.23086 88.4927 7.71253V13.2205H87.8212C87.6738 13.2205 87.5605 13.1979 87.4812 13.1525C87.4018 13.1015 87.3395 13.0052 87.2942 12.8635L87.1242 12.0475C86.8975 12.2572 86.6765 12.4442 86.4612 12.6085C86.2458 12.7672 86.0192 12.9032 85.7812 13.0165C85.5432 13.1242 85.2882 13.2064 85.0162 13.263C84.7498 13.3254 84.4523 13.3565 84.1237 13.3565C83.7893 13.3565 83.4748 13.3112 83.1802 13.2205C82.8855 13.1242 82.6277 12.9825 82.4067 12.7955C82.1913 12.6085 82.0185 12.3734 81.8882 12.09C81.7635 11.801 81.7012 11.461 81.7012 11.07C81.7012 10.73 81.7947 10.4042 81.9817 10.0925C82.1687 9.7752 82.4718 9.4947 82.8912 9.25103C83.3105 9.00736 83.8573 8.80903 84.5317 8.65603C85.206 8.49736 86.0333 8.4067 87.0137 8.38403V7.71253C87.0137 7.04386 86.8692 6.53953 86.5802 6.19953C86.2912 5.85386 85.869 5.68103 85.3137 5.68103C84.9397 5.68103 84.6252 5.7292 84.3702 5.82553C84.1208 5.9162 83.9027 6.02103 83.7157 6.14003C83.5343 6.25336 83.3757 6.3582 83.2397 6.45453C83.1093 6.5452 82.979 6.59053 82.8487 6.59053C82.7467 6.59053 82.6588 6.56503 82.5852 6.51403C82.5115 6.45736 82.4492 6.38936 82.3982 6.31003L82.1262 5.82553Z" fill="#353945"/>
<path d="M74.3555 11.1467C74.6332 11.5207 74.9363 11.7842 75.265 11.9372C75.5993 12.0902 75.9648 12.1667 76.3615 12.1667C77.1718 12.1667 77.7923 11.8805 78.223 11.3082C78.6537 10.7359 78.869 9.88303 78.869 8.74969C78.869 7.69569 78.6763 6.9222 78.291 6.4292C77.9113 5.93053 77.3673 5.6812 76.659 5.6812C76.166 5.6812 75.7353 5.79453 75.367 6.0212C75.0043 6.24786 74.6672 6.56803 74.3555 6.9817V11.1467ZM74.3555 5.8512C74.7182 5.43186 75.1261 5.09753 75.5795 4.8482C76.0385 4.59886 76.5655 4.4742 77.1605 4.4742C77.6648 4.4742 78.1182 4.57053 78.5205 4.7632C78.9285 4.95586 79.2741 5.23636 79.5575 5.6047C79.8408 5.96736 80.0562 6.40936 80.2035 6.9307C80.3565 7.45203 80.433 8.03853 80.433 8.6902C80.433 9.3872 80.348 10.0219 80.178 10.5942C80.008 11.1665 79.7615 11.6567 79.4385 12.0647C79.1212 12.467 78.733 12.7815 78.274 13.0082C77.815 13.2292 77.2993 13.3397 76.727 13.3397C76.1603 13.3397 75.6815 13.2349 75.2905 13.0252C74.9051 12.8099 74.568 12.5067 74.279 12.1157L74.2025 12.8977C74.1572 13.113 74.0268 13.2207 73.8115 13.2207H72.834V0.700195H74.3555V5.8512Z" fill="#353945"/>
<path d="M58.8555 13.2211V4.61061H59.765C59.9803 4.61061 60.1135 4.71544 60.1645 4.92511L60.275 5.80911C60.5923 5.41811 60.9493 5.09794 61.346 4.84861C61.7426 4.59928 62.2016 4.47461 62.723 4.47461C63.301 4.47461 63.7685 4.63611 64.1255 4.95911C64.4881 5.28211 64.7488 5.71844 64.9075 6.26811C65.0321 5.95644 65.1908 5.68728 65.3835 5.46061C65.5818 5.23394 65.8028 5.04694 66.0465 4.89961C66.2901 4.75228 66.548 4.64461 66.82 4.57661C67.0976 4.50861 67.3781 4.47461 67.6615 4.47461C68.1148 4.47461 68.5171 4.54828 68.8685 4.69561C69.2255 4.83728 69.5258 5.04694 69.7695 5.32461C70.0188 5.60228 70.2086 5.94511 70.339 6.35311C70.4693 6.75544 70.5345 7.21728 70.5345 7.73861V13.2211H69.013V7.73861C69.013 7.06428 68.8656 6.55428 68.571 6.20861C68.2763 5.85728 67.8513 5.68161 67.296 5.68161C67.0466 5.68161 66.8086 5.72694 66.582 5.81761C66.361 5.90261 66.1655 6.03011 65.9955 6.20011C65.8255 6.37011 65.6895 6.58544 65.5875 6.84611C65.4911 7.10111 65.443 7.39861 65.443 7.73861V13.2211H63.9215V7.73861C63.9215 7.04728 63.7826 6.53161 63.505 6.19161C63.2273 5.85161 62.8221 5.68161 62.2895 5.68161C61.9155 5.68161 61.5698 5.78361 61.2525 5.98761C60.9351 6.18594 60.6433 6.45794 60.377 6.80361V13.2211H58.8555Z" fill="#353945"/>
<path d="M56.4565 4.61035V13.2209H55.5555C55.3402 13.2209 55.2042 13.116 55.1475 12.9064L55.0285 11.9799C54.6545 12.3935 54.2352 12.7279 53.7705 12.9829C53.3059 13.2322 52.7732 13.3569 52.1725 13.3569C51.7022 13.3569 51.2857 13.2804 50.923 13.1274C50.566 12.9687 50.2657 12.7477 50.022 12.4644C49.7784 12.181 49.5942 11.8382 49.4695 11.4359C49.3505 11.0335 49.291 10.5887 49.291 10.1014V4.61035H50.804V10.1014C50.804 10.753 50.9514 11.2574 51.246 11.6144C51.5464 11.9714 52.0025 12.1499 52.6145 12.1499C53.0622 12.1499 53.4787 12.045 53.864 11.8354C54.255 11.62 54.6148 11.3254 54.9435 10.9514V4.61035H56.4565Z" fill="#353945"/>
<path d="M46.7692 1.04004V13.2205H45.3242V4.27004C45.3242 4.15104 45.327 4.02354 45.3327 3.88754C45.344 3.75154 45.3554 3.61271 45.3667 3.47104L41.1847 11.087C41.0544 11.342 40.856 11.4695 40.5897 11.4695H40.3517C40.0854 11.4695 39.887 11.342 39.7567 11.087L35.4897 3.43704C35.5237 3.73737 35.5407 4.01504 35.5407 4.27004V13.2205H34.0957V1.04004H35.3112C35.4585 1.04004 35.5719 1.05421 35.6512 1.08254C35.7305 1.11087 35.807 1.19021 35.8807 1.32054L40.0882 8.81754C40.1562 8.95354 40.2214 9.09521 40.2837 9.24254C40.3517 9.38987 40.414 9.54004 40.4707 9.69304C40.5274 9.54004 40.5869 9.38987 40.6492 9.24254C40.7115 9.08954 40.7795 8.94504 40.8532 8.80904L44.9842 1.32054C45.0522 1.19021 45.1259 1.11087 45.2052 1.08254C45.2902 1.05421 45.4064 1.04004 45.5537 1.04004H46.7692Z" fill="#353945"/>
<path d="M19.4345 4.3383C19.5139 3.78296 19.6669 3.2928 19.8935 2.8678C20.1202 2.43713 20.4064 2.0773 20.752 1.7883C21.1034 1.4993 21.5029 1.28113 21.9505 1.1338C22.4039 0.980797 22.8912 0.904297 23.4125 0.904297C23.9282 0.904297 24.4042 0.977964 24.8405 1.1253C25.2769 1.27263 25.6509 1.4823 25.9625 1.7543C26.2799 2.0263 26.5264 2.35496 26.702 2.7403C26.8777 3.12563 26.9655 3.55346 26.9655 4.0238C26.9655 4.40913 26.9145 4.7548 26.8125 5.0608C26.7162 5.36113 26.5745 5.62463 26.3875 5.8513C26.2062 6.07796 25.9852 6.27063 25.7245 6.4293C25.4639 6.58796 25.172 6.7183 24.849 6.8203C25.6424 7.0243 26.2374 7.37563 26.634 7.8743C27.0364 8.3673 27.2375 8.98497 27.2375 9.7273C27.2375 10.2883 27.1299 10.7926 26.9145 11.2403C26.7049 11.688 26.4159 12.0705 26.0475 12.3878C25.6792 12.6995 25.2485 12.9403 24.7555 13.1103C24.2682 13.2746 23.744 13.3568 23.183 13.3568C22.537 13.3568 21.9845 13.2775 21.5255 13.1188C21.0665 12.9545 20.6784 12.7306 20.361 12.4473C20.0437 12.164 19.783 11.8296 19.579 11.4443C19.375 11.0533 19.2022 10.6311 19.0605 10.1778L19.715 9.9058C19.885 9.83213 20.0494 9.8123 20.208 9.8463C20.3724 9.8803 20.4914 9.9738 20.565 10.1268C20.6387 10.2855 20.7294 10.4753 20.837 10.6963C20.9504 10.9173 21.1034 11.1298 21.296 11.3338C21.4887 11.5378 21.7324 11.7106 22.027 11.8523C22.3274 11.994 22.707 12.0648 23.166 12.0648C23.591 12.0648 23.9622 11.9968 24.2795 11.8608C24.6025 11.7191 24.8689 11.5378 25.0785 11.3168C25.2939 11.0958 25.4554 10.8493 25.563 10.5773C25.6707 10.3053 25.7245 10.0361 25.7245 9.7698C25.7245 9.44113 25.682 9.1408 25.597 8.8688C25.512 8.5968 25.3534 8.36163 25.121 8.1633C24.8887 7.96496 24.5685 7.80913 24.1605 7.6958C23.7582 7.58246 23.2397 7.5258 22.605 7.5258V6.4293C23.1264 6.42363 23.5684 6.36696 23.931 6.2593C24.2994 6.15163 24.5969 6.0043 24.8235 5.8173C25.0559 5.6303 25.223 5.40646 25.325 5.1458C25.4327 4.88513 25.4865 4.59613 25.4865 4.2788C25.4865 3.92746 25.4299 3.62146 25.3165 3.3608C25.2089 3.10013 25.0587 2.8848 24.866 2.7148C24.6734 2.5448 24.4439 2.4173 24.1775 2.3323C23.9169 2.2473 23.6335 2.2048 23.3275 2.2048C23.0215 2.2048 22.7354 2.25013 22.469 2.3408C22.2084 2.43146 21.976 2.55896 21.772 2.7233C21.5737 2.88196 21.4065 3.0718 21.2705 3.2928C21.1345 3.5138 21.0382 3.75746 20.9815 4.0238C20.9079 4.22213 20.8144 4.3553 20.701 4.4233C20.5934 4.48563 20.4347 4.50263 20.225 4.4743L19.4345 4.3383Z" fill="#353945"/>
<path d="M16.8561 11.7843C17.0205 11.7843 17.1508 11.8325 17.2471 11.9288C17.3435 12.0251 17.3916 12.1498 17.3916 12.3028V13.2208H9.26562V12.7023C9.26562 12.5946 9.28829 12.4841 9.33362 12.3708C9.37896 12.2575 9.44979 12.1526 9.54613 12.0563L13.4476 8.1378C13.7706 7.80913 14.0653 7.49463 14.3316 7.1943C14.598 6.8883 14.8246 6.5823 15.0116 6.2763C15.1986 5.9703 15.3431 5.66146 15.4451 5.3498C15.5471 5.03246 15.5981 4.6953 15.5981 4.3383C15.5981 3.9813 15.5415 3.66963 15.4281 3.4033C15.3148 3.1313 15.159 2.90746 14.9606 2.7318C14.768 2.55613 14.5385 2.4258 14.2721 2.3408C14.0058 2.25013 13.7196 2.2048 13.4136 2.2048C13.102 2.2048 12.8158 2.25013 12.5551 2.3408C12.2945 2.43146 12.0621 2.55896 11.8581 2.7233C11.6598 2.88196 11.4926 3.0718 11.3566 3.2928C11.2206 3.5138 11.1243 3.75746 11.0676 4.0238C10.9996 4.22213 10.9061 4.3553 10.7871 4.4233C10.6738 4.48563 10.5123 4.50263 10.3026 4.4743L9.51213 4.3383C9.59146 3.78296 9.74446 3.2928 9.97113 2.8678C10.2035 2.43713 10.4925 2.0773 10.8381 1.7883C11.1895 1.4993 11.589 1.28113 12.0366 1.1338C12.4843 0.980797 12.9688 0.904297 13.4901 0.904297C14.0058 0.904297 14.4875 0.980797 14.9351 1.1338C15.3828 1.2868 15.771 1.51063 16.0996 1.8053C16.4283 2.0943 16.6861 2.44846 16.8731 2.8678C17.0601 3.28713 17.1536 3.76313 17.1536 4.2958C17.1536 4.74913 17.0856 5.1713 16.9496 5.5623C16.8136 5.94763 16.6295 6.31596 16.3971 6.6673C16.1648 7.01863 15.8956 7.36146 15.5896 7.6958C15.2893 8.03013 14.9691 8.3673 14.6291 8.7073L11.4161 11.9883C11.6428 11.926 11.8723 11.8778 12.1046 11.8438C12.337 11.8041 12.5608 11.7843 12.7761 11.7843H16.8561Z" fill="#353945"/>
<path d="M7.259 12.0646V13.2206H0.731V12.0646H3.3405V3.76015C3.3405 3.51082 3.349 3.25865 3.366 3.00365L1.1985 4.86515C1.12483 4.92748 1.05117 4.96715 0.9775 4.98415C0.903833 4.99548 0.835833 4.99548 0.7735 4.98415C0.711167 4.97282 0.651667 4.95015 0.595 4.91615C0.544 4.88215 0.504333 4.84532 0.476 4.80565L0 4.15115L3.6295 1.01465H4.862V12.0646H7.259Z" fill="#353945"/>
</svg>
