<svg width="65" height="171" viewBox="0 0 65 171" fill="none" xmlns="http://www.w3.org/2000/svg">
<g clip-path="url(#clip0_832_1216)">
<path d="M44.0254 170.703L65 170.703L54.5127 160.216L44.0254 170.703Z" fill="#FF5722"/>
<path d="M44.0254 135.164L65 135.164L54.5127 124.677L44.0254 135.164Z" fill="#FF5722"/>
<path d="M44.0254 99.6104L65 99.6104L54.5127 89.1231L44.0254 99.6104Z" fill="#FF5722"/>
<path d="M44.0254 64.0723L65 64.0723L54.5127 53.585L44.0254 64.0723Z" fill="#FF5722"/>
<path d="M44.0254 28.5332L65 28.5332L54.5127 18.0308L44.0254 28.5332Z" fill="#FF5722"/>
<path d="M0.000507355 153.427L20.9751 153.427L10.4878 142.939L0.000507355 153.427Z" fill="#FF5722"/>
<path d="M0.000507355 117.873L20.9751 117.873L10.4878 107.386L0.000507355 117.873Z" fill="#FF5722"/>
<path d="M0.000507355 82.334L20.9751 82.334L10.4878 71.8467L0.000507355 82.334Z" fill="#FF5722"/>
<path d="M0.000507355 46.7959L20.9751 46.7959L10.4878 36.3086L0.000507355 46.7959Z" fill="#FF5722"/>
<path d="M0.000507355 11.2422L20.9751 11.2422L10.4878 0.754896L0.000507355 11.2422Z" fill="#FF5722"/>
</g>
<defs>
<clipPath id="clip0_832_1216">
<rect width="65" height="169.949" fill="white" transform="translate(65 170.703) rotate(180)"/>
</clipPath>
</defs>
</svg>
