<svg width="71" height="13" viewBox="0 0 71 13" fill="none" xmlns="http://www.w3.org/2000/svg">
<path d="M67.1513 12.7692C66.426 12.7692 65.7753 12.6412 65.1993 12.3852C64.6233 12.1185 64.1646 11.7612 63.8233 11.3132C63.4926 10.8652 63.3113 10.3692 63.2793 9.82519H65.5353C65.578 10.1665 65.7433 10.4492 66.0313 10.6732C66.33 10.8972 66.698 11.0092 67.1353 11.0092C67.562 11.0092 67.8926 10.9239 68.1273 10.7532C68.3726 10.5825 68.4953 10.3639 68.4953 10.0972C68.4953 9.80919 68.346 9.59585 68.0473 9.45719C67.7593 9.30785 67.2953 9.14785 66.6553 8.97719C65.994 8.81719 65.45 8.65185 65.0233 8.48119C64.6073 8.31052 64.2446 8.04919 63.9353 7.69719C63.6366 7.34519 63.4873 6.87052 63.4873 6.27319C63.4873 5.78252 63.626 5.33452 63.9033 4.92919C64.1913 4.52385 64.5966 4.20385 65.1193 3.96919C65.6526 3.73452 66.2766 3.61719 66.9913 3.61719C68.0473 3.61719 68.89 3.88385 69.5193 4.41719C70.1486 4.93985 70.4953 5.64919 70.5593 6.54519H68.4153C68.3833 6.19319 68.234 5.91585 67.9673 5.71319C67.7113 5.49985 67.3646 5.39319 66.9273 5.39319C66.522 5.39319 66.2073 5.46785 65.9833 5.61719C65.77 5.76652 65.6633 5.97452 65.6633 6.24119C65.6633 6.53985 65.8126 6.76919 66.1113 6.92919C66.41 7.07852 66.874 7.23319 67.5033 7.39319C68.1433 7.55319 68.6713 7.71852 69.0873 7.88919C69.5033 8.05985 69.8606 8.32652 70.1593 8.68919C70.4686 9.04119 70.6286 9.51052 70.6393 10.0972C70.6393 10.6092 70.4953 11.0679 70.2073 11.4732C69.93 11.8785 69.5246 12.1985 68.9913 12.4332C68.4686 12.6572 67.8553 12.7692 67.1513 12.7692Z" fill="#363940"/>
<path d="M60.1655 5.60134V9.88934C60.1655 10.188 60.2348 10.4067 60.3735 10.5453C60.5228 10.6733 60.7682 10.7373 61.1095 10.7373H62.1495V12.6253H60.7415C58.8535 12.6253 57.9095 11.708 57.9095 9.87334V5.60134H56.8535V3.76134H57.9095V1.56934H60.1655V3.76134H62.1495V5.60134H60.1655Z" fill="#363940"/>
<path d="M47.3555 8.19319C47.3555 7.27585 47.5421 6.47585 47.9155 5.79319C48.2888 5.09985 48.8061 4.56652 49.4675 4.19319C50.1288 3.80919 50.8861 3.61719 51.7395 3.61719C52.8381 3.61719 53.7448 3.89452 54.4595 4.44919C55.1848 4.99319 55.6701 5.76119 55.9155 6.75319H53.4995C53.3715 6.36919 53.1528 6.07052 52.8435 5.85719C52.5448 5.63319 52.1715 5.52119 51.7235 5.52119C51.0835 5.52119 50.5768 5.75585 50.2035 6.22519C49.8301 6.68385 49.6435 7.33985 49.6435 8.19319C49.6435 9.03585 49.8301 9.69185 50.2035 10.1612C50.5768 10.6199 51.0835 10.8492 51.7235 10.8492C52.6301 10.8492 53.2221 10.4439 53.4995 9.63319H55.9155C55.6701 10.5932 55.1848 11.3559 54.4595 11.9212C53.7341 12.4865 52.8275 12.7692 51.7395 12.7692C50.8861 12.7692 50.1288 12.5825 49.4675 12.2092C48.8061 11.8252 48.2888 11.2919 47.9155 10.6092C47.5421 9.91585 47.3555 9.11052 47.3555 8.19319Z" fill="#363940"/>
<path d="M45.7214 3.76123V12.6252H43.4654V11.5052C43.1774 11.8892 42.7988 12.1932 42.3294 12.4172C41.8708 12.6306 41.3694 12.7372 40.8254 12.7372C40.1321 12.7372 39.5188 12.5932 38.9854 12.3052C38.4521 12.0066 38.0308 11.5746 37.7214 11.0092C37.4228 10.4332 37.2734 9.75056 37.2734 8.96123V3.76123H39.5134V8.64123C39.5134 9.34523 39.6894 9.88923 40.0414 10.2732C40.3934 10.6466 40.8734 10.8332 41.4814 10.8332C42.1001 10.8332 42.5854 10.6466 42.9374 10.2732C43.2894 9.88923 43.4654 9.34523 43.4654 8.64123V3.76123H45.7214Z" fill="#363940"/>
<path d="M25.9336 8.16116C25.9336 7.26516 26.1096 6.47049 26.4616 5.77716C26.8243 5.08382 27.3149 4.55049 27.9336 4.17716C28.5523 3.80382 29.2403 3.61716 29.9976 3.61716C30.5736 3.61716 31.1229 3.74516 31.6456 4.00116C32.1683 4.24649 32.5843 4.57716 32.8936 4.99316V0.785156H35.1656V12.6252H32.8936V11.3132C32.6163 11.7505 32.2269 12.1025 31.7256 12.3692C31.2243 12.6358 30.6429 12.7692 29.9816 12.7692C29.2349 12.7692 28.5523 12.5772 27.9336 12.1932C27.3149 11.8092 26.8243 11.2705 26.4616 10.5772C26.1096 9.87316 25.9336 9.06782 25.9336 8.16116ZM32.9096 8.19316C32.9096 7.64916 32.8029 7.18516 32.5896 6.80116C32.3763 6.40649 32.0883 6.10782 31.7256 5.90516C31.3629 5.69182 30.9736 5.58516 30.5576 5.58516C30.1416 5.58516 29.7576 5.68649 29.4056 5.88916C29.0536 6.09182 28.7656 6.39049 28.5416 6.78516C28.3283 7.16916 28.2216 7.62782 28.2216 8.16116C28.2216 8.69449 28.3283 9.16382 28.5416 9.56916C28.7656 9.96382 29.0536 10.2678 29.4056 10.4812C29.7683 10.6945 30.1523 10.8012 30.5576 10.8012C30.9736 10.8012 31.3629 10.6998 31.7256 10.4972C32.0883 10.2838 32.3763 9.98516 32.5896 9.60116C32.8029 9.20649 32.9096 8.73716 32.9096 8.19316Z" fill="#363940"/>
<path d="M20.2421 12.7692C19.3888 12.7692 18.6208 12.5825 17.9381 12.2092C17.2554 11.8252 16.7168 11.2865 16.3221 10.5932C15.9381 9.89986 15.7461 9.09985 15.7461 8.19319C15.7461 7.28652 15.9434 6.48652 16.3381 5.79319C16.7434 5.09985 17.2928 4.56652 17.9861 4.19319C18.6794 3.80919 19.4528 3.61719 20.3061 3.61719C21.1594 3.61719 21.9328 3.80919 22.6261 4.19319C23.3194 4.56652 23.8634 5.09985 24.2581 5.79319C24.6634 6.48652 24.8661 7.28652 24.8661 8.19319C24.8661 9.09985 24.6581 9.89986 24.2421 10.5932C23.8368 11.2865 23.2821 11.8252 22.5781 12.2092C21.8848 12.5825 21.1061 12.7692 20.2421 12.7692ZM20.2421 10.8172C20.6474 10.8172 21.0261 10.7212 21.3781 10.5292C21.7408 10.3265 22.0288 10.0279 22.2421 9.63319C22.4554 9.23852 22.5621 8.75852 22.5621 8.19319C22.5621 7.35052 22.3381 6.70519 21.8901 6.25719C21.4528 5.79852 20.9141 5.56919 20.2741 5.56919C19.6341 5.56919 19.0954 5.79852 18.6581 6.25719C18.2314 6.70519 18.0181 7.35052 18.0181 8.19319C18.0181 9.03585 18.2261 9.68652 18.6421 10.1452C19.0688 10.5932 19.6021 10.8172 20.2421 10.8172Z" fill="#363940"/>
<path d="M12.0779 5.1373C12.3659 4.66797 12.7392 4.29997 13.1979 4.0333C13.6672 3.76663 14.2006 3.6333 14.7979 3.6333V5.9853H14.2059C13.5019 5.9853 12.9686 6.15063 12.6059 6.4813C12.2539 6.81197 12.0779 7.38797 12.0779 8.2093V12.6253H9.83789V3.7613H12.0779V5.1373Z" fill="#363940"/>
<path d="M8.24752 4.91303C8.24752 5.51037 8.10352 6.07036 7.81552 6.59303C7.53818 7.1157 7.09552 7.53703 6.48752 7.85703C5.89018 8.17703 5.13285 8.33703 4.21552 8.33703H2.34352V12.625H0.103516V1.45703H4.21552C5.07952 1.45703 5.81552 1.60636 6.42352 1.90503C7.03152 2.2037 7.48485 2.61436 7.78352 3.13703C8.09285 3.6597 8.24752 4.2517 8.24752 4.91303ZM4.11952 6.52903C4.73818 6.52903 5.19685 6.39036 5.49552 6.11303C5.79418 5.82503 5.94352 5.42503 5.94352 4.91303C5.94352 3.82503 5.33552 3.28103 4.11952 3.28103H2.34352V6.52903H4.11952Z" fill="#363940"/>
</svg>
