<svg width="71" height="13" viewBox="0 0 71 13" fill="none" xmlns="http://www.w3.org/2000/svg">
<path d="M67.1513 12.2692C66.426 12.2692 65.7753 12.1412 65.1993 11.8852C64.6233 11.6185 64.1646 11.2612 63.8233 10.8132C63.4926 10.3652 63.3113 9.86919 63.2793 9.32519H65.5353C65.578 9.66652 65.7433 9.94919 66.0313 10.1732C66.33 10.3972 66.698 10.5092 67.1353 10.5092C67.562 10.5092 67.8926 10.4239 68.1273 10.2532C68.3726 10.0825 68.4953 9.86385 68.4953 9.59719C68.4953 9.30919 68.346 9.09585 68.0473 8.95719C67.7593 8.80785 67.2953 8.64785 66.6553 8.47719C65.994 8.31719 65.45 8.15185 65.0233 7.98119C64.6073 7.81052 64.2446 7.54919 63.9353 7.19719C63.6366 6.84519 63.4873 6.37052 63.4873 5.77319C63.4873 5.28252 63.626 4.83452 63.9033 4.42919C64.1913 4.02385 64.5966 3.70385 65.1193 3.46919C65.6526 3.23452 66.2766 3.11719 66.9913 3.11719C68.0473 3.11719 68.89 3.38385 69.5193 3.91719C70.1486 4.43985 70.4953 5.14919 70.5593 6.04519H68.4153C68.3833 5.69319 68.234 5.41585 67.9673 5.21319C67.7113 4.99985 67.3646 4.89319 66.9273 4.89319C66.522 4.89319 66.2073 4.96785 65.9833 5.11719C65.77 5.26652 65.6633 5.47452 65.6633 5.74119C65.6633 6.03985 65.8126 6.26919 66.1113 6.42919C66.41 6.57852 66.874 6.73319 67.5033 6.89319C68.1433 7.05319 68.6713 7.21852 69.0873 7.38919C69.5033 7.55985 69.8606 7.82652 70.1593 8.18919C70.4686 8.54119 70.6286 9.01052 70.6393 9.59719C70.6393 10.1092 70.4953 10.5679 70.2073 10.9732C69.93 11.3785 69.5246 11.6985 68.9913 11.9332C68.4686 12.1572 67.8553 12.2692 67.1513 12.2692Z" fill="#363940"/>
<path d="M60.1655 5.10134V9.38934C60.1655 9.688 60.2348 9.90667 60.3735 10.0453C60.5228 10.1733 60.7682 10.2373 61.1095 10.2373H62.1495V12.1253H60.7415C58.8535 12.1253 57.9095 11.208 57.9095 9.37334V5.10134H56.8535V3.26134H57.9095V1.06934H60.1655V3.26134H62.1495V5.10134H60.1655Z" fill="#363940"/>
<path d="M47.3555 7.69319C47.3555 6.77585 47.5421 5.97585 47.9155 5.29319C48.2888 4.59985 48.8061 4.06652 49.4675 3.69319C50.1288 3.30919 50.8861 3.11719 51.7395 3.11719C52.8381 3.11719 53.7448 3.39452 54.4595 3.94919C55.1848 4.49319 55.6701 5.26119 55.9155 6.25319H53.4995C53.3715 5.86919 53.1528 5.57052 52.8435 5.35719C52.5448 5.13319 52.1715 5.02119 51.7235 5.02119C51.0835 5.02119 50.5768 5.25585 50.2035 5.72519C49.8301 6.18385 49.6435 6.83985 49.6435 7.69319C49.6435 8.53585 49.8301 9.19185 50.2035 9.66119C50.5768 10.1199 51.0835 10.3492 51.7235 10.3492C52.6301 10.3492 53.2221 9.94385 53.4995 9.13319H55.9155C55.6701 10.0932 55.1848 10.8559 54.4595 11.4212C53.7341 11.9865 52.8275 12.2692 51.7395 12.2692C50.8861 12.2692 50.1288 12.0825 49.4675 11.7092C48.8061 11.3252 48.2888 10.7919 47.9155 10.1092C47.5421 9.41585 47.3555 8.61052 47.3555 7.69319Z" fill="#363940"/>
<path d="M45.7214 3.26074V12.1247H43.4654V11.0047C43.1774 11.3887 42.7988 11.6927 42.3294 11.9167C41.8708 12.1301 41.3694 12.2367 40.8254 12.2367C40.1321 12.2367 39.5188 12.0927 38.9854 11.8047C38.4521 11.5061 38.0308 11.0741 37.7214 10.5087C37.4228 9.93274 37.2734 9.25008 37.2734 8.46074V3.26074H39.5134V8.14074C39.5134 8.84474 39.6894 9.38874 40.0414 9.77274C40.3934 10.1461 40.8734 10.3327 41.4814 10.3327C42.1001 10.3327 42.5854 10.1461 42.9374 9.77274C43.2894 9.38874 43.4654 8.84474 43.4654 8.14074V3.26074H45.7214Z" fill="#363940"/>
<path d="M25.9336 7.66116C25.9336 6.76516 26.1096 5.97049 26.4616 5.27716C26.8243 4.58382 27.3149 4.05049 27.9336 3.67716C28.5523 3.30382 29.2403 3.11716 29.9976 3.11716C30.5736 3.11716 31.1229 3.24516 31.6456 3.50116C32.1683 3.74649 32.5843 4.07716 32.8936 4.49316V0.285156H35.1656V12.1252H32.8936V10.8132C32.6163 11.2505 32.2269 11.6025 31.7256 11.8692C31.2243 12.1358 30.6429 12.2692 29.9816 12.2692C29.2349 12.2692 28.5523 12.0772 27.9336 11.6932C27.3149 11.3092 26.8243 10.7705 26.4616 10.0772C26.1096 9.37316 25.9336 8.56782 25.9336 7.66116ZM32.9096 7.69316C32.9096 7.14916 32.8029 6.68516 32.5896 6.30116C32.3763 5.90649 32.0883 5.60782 31.7256 5.40516C31.3629 5.19182 30.9736 5.08516 30.5576 5.08516C30.1416 5.08516 29.7576 5.18649 29.4056 5.38916C29.0536 5.59182 28.7656 5.89049 28.5416 6.28516C28.3283 6.66916 28.2216 7.12782 28.2216 7.66116C28.2216 8.19449 28.3283 8.66382 28.5416 9.06916C28.7656 9.46382 29.0536 9.76782 29.4056 9.98116C29.7683 10.1945 30.1523 10.3012 30.5576 10.3012C30.9736 10.3012 31.3629 10.1998 31.7256 9.99716C32.0883 9.78382 32.3763 9.48516 32.5896 9.10116C32.8029 8.70649 32.9096 8.23716 32.9096 7.69316Z" fill="#363940"/>
<path d="M20.2421 12.2692C19.3888 12.2692 18.6208 12.0825 17.9381 11.7092C17.2554 11.3252 16.7168 10.7865 16.3221 10.0932C15.9381 9.39985 15.7461 8.59985 15.7461 7.69319C15.7461 6.78652 15.9434 5.98652 16.3381 5.29319C16.7434 4.59985 17.2928 4.06652 17.9861 3.69319C18.6794 3.30919 19.4528 3.11719 20.3061 3.11719C21.1594 3.11719 21.9328 3.30919 22.6261 3.69319C23.3194 4.06652 23.8634 4.59985 24.2581 5.29319C24.6634 5.98652 24.8661 6.78652 24.8661 7.69319C24.8661 8.59985 24.6581 9.39985 24.2421 10.0932C23.8368 10.7865 23.2821 11.3252 22.5781 11.7092C21.8848 12.0825 21.1061 12.2692 20.2421 12.2692ZM20.2421 10.3172C20.6474 10.3172 21.0261 10.2212 21.3781 10.0292C21.7408 9.82652 22.0288 9.52785 22.2421 9.13319C22.4554 8.73852 22.5621 8.25852 22.5621 7.69319C22.5621 6.85052 22.3381 6.20519 21.8901 5.75719C21.4528 5.29852 20.9141 5.06919 20.2741 5.06919C19.6341 5.06919 19.0954 5.29852 18.6581 5.75719C18.2314 6.20519 18.0181 6.85052 18.0181 7.69319C18.0181 8.53585 18.2261 9.18652 18.6421 9.64519C19.0688 10.0932 19.6021 10.3172 20.2421 10.3172Z" fill="#363940"/>
<path d="M12.0779 4.63681C12.3659 4.16748 12.7392 3.79948 13.1979 3.53281C13.6672 3.26615 14.2006 3.13281 14.7979 3.13281V5.48481H14.2059C13.5019 5.48481 12.9686 5.65015 12.6059 5.98081C12.2539 6.31148 12.0779 6.88748 12.0779 7.70881V12.1248H9.83789V3.26081H12.0779V4.63681Z" fill="#363940"/>
<path d="M8.24752 4.41303C8.24752 5.01036 8.10352 5.57036 7.81552 6.09303C7.53818 6.6157 7.09552 7.03703 6.48752 7.35703C5.89018 7.67703 5.13285 7.83703 4.21552 7.83703H2.34352V12.125H0.103516V0.957031H4.21552C5.07952 0.957031 5.81552 1.10636 6.42352 1.40503C7.03152 1.7037 7.48485 2.11436 7.78352 2.63703C8.09285 3.1597 8.24752 3.7517 8.24752 4.41303ZM4.11952 6.02903C4.73818 6.02903 5.19685 5.89036 5.49552 5.61303C5.79418 5.32503 5.94352 4.92503 5.94352 4.41303C5.94352 3.32503 5.33552 2.78103 4.11952 2.78103H2.34352V6.02903H4.11952Z" fill="#363940"/>
</svg>
