<svg width="32" height="32" viewBox="0 0 32 32" fill="none" xmlns="http://www.w3.org/2000/svg">
<path d="M28.5804 3.44297C27.9134 2.75846 26.9264 2.50345 26.006 2.77187L4.54384 9.01302C3.57277 9.28281 2.88449 10.0572 2.69908 11.0411C2.50966 12.0423 3.17128 13.3134 4.03562 13.8449L10.7464 17.9694C11.4347 18.3922 12.323 18.2862 12.8926 17.7117L20.577 9.97939C20.9638 9.57674 21.6041 9.57674 21.991 9.97939C22.3778 10.3686 22.3778 10.9995 21.991 11.4021L14.2932 19.1358C13.7222 19.7089 13.6156 20.6014 14.0357 21.2939L18.1361 28.0721C18.6162 28.8773 19.4433 29.3337 20.3502 29.3337C20.457 29.3337 20.577 29.3337 20.6838 29.3202C21.7242 29.1861 22.5512 28.4747 22.858 27.4681L29.2206 6.03338C29.5008 5.1207 29.2473 4.12749 28.5804 3.44297Z" fill="white"/>
</svg>
