<svg width="32" height="32" viewBox="0 0 32 32" fill="none" xmlns="http://www.w3.org/2000/svg">
<path d="M28.5804 3.4426C27.9134 2.75809 26.9264 2.50308 26.006 2.77151L4.54384 9.01265C3.57277 9.28244 2.88449 10.0569 2.69908 11.0407C2.50966 12.042 3.17128 13.313 4.03562 13.8445L10.7464 17.969C11.4347 18.3918 12.323 18.2858 12.8926 17.7113L20.577 9.97903C20.9638 9.57637 21.6041 9.57637 21.991 9.97903C22.3778 10.3683 22.3778 10.9991 21.991 11.4017L14.2932 19.1354C13.7222 19.7085 13.6156 20.601 14.0357 21.2936L18.1361 28.0717C18.6162 28.8769 19.4433 29.3333 20.3502 29.3333C20.457 29.3333 20.577 29.3333 20.6838 29.3198C21.7242 29.1857 22.5512 28.4744 22.858 27.4677L29.2206 6.03301C29.5008 5.12033 29.2473 4.12712 28.5804 3.4426Z" fill="white"/>
</svg>
