<svg width="32" height="32" viewBox="0 0 32 32" fill="none" xmlns="http://www.w3.org/2000/svg">
<path d="M28.5809 3.44297C27.9139 2.75846 26.9269 2.50345 26.0065 2.77187L4.54433 9.01302C3.57326 9.28281 2.88498 10.0572 2.69957 11.0411C2.51015 12.0423 3.17177 13.3134 4.03611 13.8449L10.7469 17.9694C11.4351 18.3922 12.3235 18.2862 12.8931 17.7117L20.5775 9.97939C20.9643 9.57674 21.6046 9.57674 21.9915 9.97939C22.3783 10.3686 22.3783 10.9995 21.9915 11.4021L14.2937 19.1358C13.7227 19.7089 13.6161 20.6014 14.0362 21.2939L18.1366 28.0721C18.6167 28.8773 19.4438 29.3337 20.3507 29.3337C20.4575 29.3337 20.5775 29.3337 20.6843 29.3202C21.7247 29.1861 22.5517 28.4747 22.8585 27.4681L29.2211 6.03338C29.5013 5.1207 29.2478 4.12749 28.5809 3.44297Z" fill="white"/>
</svg>
