<svg width="20" height="20" viewBox="0 0 20 20" fill="none" xmlns="http://www.w3.org/2000/svg">
<g clip-path="url(#clip0_1073_524)">
<mask id="mask0_1073_524" style="mask-type:alpha" maskUnits="userSpaceOnUse" x="0" y="0" width="20" height="20">
<path fill-rule="evenodd" clip-rule="evenodd" d="M5.83301 17.5048C5.83301 16.5843 6.5792 15.8381 7.49967 15.8381C8.42015 15.8381 9.16634 16.5843 9.16634 17.5048C9.16634 18.4253 8.42015 19.1715 7.49967 19.1715C6.5792 19.1715 5.83301 18.4253 5.83301 17.5048Z" fill="#7A869A"/>
<path fill-rule="evenodd" clip-rule="evenodd" d="M15 17.5048C15 16.5843 15.7462 15.8381 16.6667 15.8381C17.5871 15.8381 18.3333 16.5843 18.3333 17.5048C18.3333 18.4253 17.5871 19.1715 16.6667 19.1715C15.7462 19.1715 15 18.4253 15 17.5048Z" fill="#7A869A"/>
<path fill-rule="evenodd" clip-rule="evenodd" d="M0 0.838216C0 0.377979 0.373096 0.00488281 0.833333 0.00488281H4.16667C4.56386 0.00488281 4.90584 0.285204 4.98379 0.674669L5.68369 4.17155H19.1667C19.415 4.17155 19.6504 4.28232 19.8087 4.47368C19.9671 4.66503 20.0318 4.91703 19.9852 5.16099L18.6507 12.1589C18.5364 12.7344 18.2233 13.2513 17.7663 13.6193C17.3115 13.9854 16.743 14.1807 16.1595 14.1715H8.07387C7.49031 14.1807 6.92184 13.9854 6.46707 13.6193C6.01021 13.2515 5.6972 12.7348 5.58277 12.1596C5.58273 12.1594 5.58282 12.1598 5.58277 12.1596L4.19066 5.20422C4.18501 5.18121 4.18032 5.15783 4.17663 5.13411L3.4836 1.67155H0.833333C0.373096 1.67155 0 1.29845 0 0.838216ZM6.01727 5.83822L7.21737 11.8342C7.25547 12.026 7.35983 12.1984 7.51218 12.321C7.66453 12.4436 7.85516 12.5088 8.0507 12.505L8.06667 12.5049H16.1667L16.1826 12.505C16.3782 12.5088 16.5688 12.4436 16.7212 12.321C16.8728 12.1989 16.9769 12.0276 17.0154 11.8369L18.1594 5.83822H6.01727Z" fill="#7A869A"/>
</mask>
<g mask="url(#mask0_1073_524)">
<rect y="0.00488281" width="20" height="20" fill="#7A869A"/>
</g>
</g>
<defs>
<clipPath id="clip0_1073_524">
<rect width="20" height="20" fill="white" transform="translate(0 0.00488281)"/>
</clipPath>
</defs>
</svg>
