<svg width="20" height="22" viewBox="0 0 20 22" fill="none" xmlns="http://www.w3.org/2000/svg">
<path fill-rule="evenodd" clip-rule="evenodd" d="M18 0.144531H2C0.89543 0.144531 0 1.10817 0 2.29689V19.5157C0 20.7044 0.89543 21.6681 2 21.6681H18C19.1046 21.6681 20 20.7044 20 19.5157V2.29689C20 1.10817 19.1046 0.144531 18 0.144531ZM4 5.05625C4 5.98548 4.70032 6.74041 5.56637 6.74041C6.4297 6.74041 7.13184 5.98548 7.13184 5.05625C7.13184 4.128 6.4297 3.37306 5.56637 3.37306C4.70123 3.37306 4 4.12702 4 5.05625ZM4.25044 17.3634H6.93695V8.06914H4.25044V17.3634ZM17 17.3634H14.3153V12.8435C14.3153 11.7655 14.2971 10.379 12.9192 10.379C11.5213 10.379 11.3064 11.553 11.3064 12.7652V17.3634H8.62172V8.06914H11.1989V9.33912H11.2354C11.5942 8.60866 12.4703 7.83806 13.7771 7.83806C16.4973 7.83806 17 9.76309 17 12.2658V17.3634Z" fill="#304659"/>
</svg>
