<svg width="21" height="26" viewBox="0 0 21 26" fill="none" xmlns="http://www.w3.org/2000/svg">
<path fill-rule="evenodd" clip-rule="evenodd" d="M18.2779 0.222778H2.17498C1.0633 0.222778 0.162109 1.3448 0.162109 2.72888V22.7777C0.162109 24.1617 1.0633 25.2838 2.17498 25.2838H10.2265V15.849H7.20715V12.311H10.2265V10.4111C10.2265 6.81411 11.7257 5.23497 14.1767 5.23497C15.3274 5.23497 15.9466 5.337 16.2474 5.38656L16.2651 5.38947V8.773H14.5934C13.5531 8.773 13.2458 9.44286 13.2458 10.7991V12.311H16.239L15.8252 15.849H13.2458V25.2838H18.2779C19.3896 25.2838 20.2908 24.1617 20.2908 22.7777V2.72888C20.2908 1.3448 19.3896 0.222778 18.2779 0.222778Z" fill="#304659"/>
</svg>
