<svg width="20" height="23" viewBox="0 0 20 23" fill="none" xmlns="http://www.w3.org/2000/svg">
<path fill-rule="evenodd" clip-rule="evenodd" d="M6 0.644531H14C17.3137 0.644531 20 3.53546 20 7.1016V15.711C20 19.2772 17.3137 22.1681 14 22.1681H6C2.68629 22.1681 0 19.2772 0 15.711V7.1016C0 3.53546 2.68629 0.644531 6 0.644531ZM16 3.87306C16.5 3.87306 17 4.41115 17 4.94924C17 5.48733 16.5 6.02542 16 6.02542C15.5 6.02542 15 5.48733 15 4.94924C15 4.41115 15.5 3.87306 16 3.87306ZM15 11.4063C15 8.43875 12.7575 6.02542 10 6.02542C7.2425 6.02542 5 8.43875 5 11.4063C5 14.3739 7.2425 16.7872 10 16.7872C12.7575 16.7872 15 14.3739 15 11.4063ZM10 8.17777C8.34315 8.17777 7 9.62324 7 11.4063C7 13.1894 8.34315 14.6348 10 14.6348C11.6569 14.6348 13 13.1894 13 11.4063C13 9.62324 11.6569 8.17777 10 8.17777Z" fill="#304659"/>
</svg>
