<svg width="20" height="22" viewBox="0 0 20 22" fill="none" xmlns="http://www.w3.org/2000/svg">
<path fill-rule="evenodd" clip-rule="evenodd" d="M18 0.0195312H2C0.89543 0.0195312 0 0.983173 0 2.17189V19.3907C0 20.5794 0.89543 21.5431 2 21.5431H18C19.1046 21.5431 20 20.5794 20 19.3907V2.17189C20 0.983173 19.1046 0.0195312 18 0.0195312ZM15.3502 6.73419C15.9312 6.66192 16.4847 6.50168 17 6.26357C16.615 6.86249 16.1277 7.38859 15.5661 7.81047C15.5715 7.93877 15.5742 8.06764 15.5742 8.19706C15.5742 12.1464 12.686 16.7003 7.40283 16.7003C5.78051 16.7003 4.27126 16.2056 3 15.3579C3.22507 15.3859 3.45391 15.3999 3.68544 15.3999C5.03154 15.3999 6.26995 14.922 7.25261 14.1202C5.99588 14.0961 4.93516 13.2316 4.56956 12.0444C4.74455 12.0786 4.92493 12.0977 5.10961 12.0977C5.37183 12.0977 5.62598 12.0612 5.86666 11.9929C4.55232 11.7189 3.56267 10.511 3.56267 9.06268V9.02514C3.94981 9.24869 4.39295 9.38315 4.86354 9.39884C4.09303 8.86322 3.58636 7.9483 3.58636 6.9118C3.58636 6.36329 3.72797 5.85009 3.97458 5.40859C5.39175 7.21715 7.50783 8.40716 9.89474 8.53154C9.84628 8.3136 9.82043 8.085 9.82043 7.85081C9.82043 6.20082 11.1062 4.86233 12.6925 4.86233C13.5184 4.86233 14.2647 5.22539 14.7886 5.80639C15.4434 5.67192 16.0583 5.42316 16.6129 5.08084C16.3986 5.77893 15.9436 6.36441 15.3502 6.73419Z" fill="#304659"/>
</svg>
