<svg width="20" height="22" viewBox="0 0 20 22" fill="none" xmlns="http://www.w3.org/2000/svg">
<path fill-rule="evenodd" clip-rule="evenodd" d="M18 0.144531H2C0.89543 0.144531 0 1.10817 0 2.29689V19.5157C0 20.7044 0.89543 21.6681 2 21.6681H18C19.1046 21.6681 20 20.7044 20 19.5157V2.29689C20 1.10817 19.1046 0.144531 18 0.144531ZM15.3502 6.85919C15.9312 6.78692 16.4847 6.62668 17 6.38857C16.615 6.98749 16.1277 7.51359 15.5661 7.93547C15.5715 8.06377 15.5742 8.19264 15.5742 8.32206C15.5742 12.2714 12.686 16.8253 7.40283 16.8253C5.78051 16.8253 4.27126 16.3306 3 15.4829C3.22507 15.5109 3.45391 15.5249 3.68544 15.5249C5.03154 15.5249 6.26995 15.047 7.25261 14.2452C5.99588 14.2211 4.93516 13.3566 4.56956 12.1694C4.74455 12.2036 4.92493 12.2227 5.10961 12.2227C5.37183 12.2227 5.62598 12.1862 5.86666 12.1179C4.55232 11.8439 3.56267 10.636 3.56267 9.18768V9.15014C3.94981 9.37369 4.39295 9.50815 4.86354 9.52384C4.09303 8.98822 3.58636 8.0733 3.58636 7.0368C3.58636 6.48829 3.72797 5.97509 3.97458 5.53359C5.39175 7.34215 7.50783 8.53216 9.89474 8.65654C9.84628 8.4386 9.82043 8.21 9.82043 7.97581C9.82043 6.32582 11.1062 4.98733 12.6925 4.98733C13.5184 4.98733 14.2647 5.35039 14.7886 5.93139C15.4434 5.79692 16.0583 5.54816 16.6129 5.20584C16.3986 5.90393 15.9436 6.48941 15.3502 6.85919Z" fill="#304659"/>
</svg>
