<svg width="20" height="22" viewBox="0 0 20 22" fill="none" xmlns="http://www.w3.org/2000/svg">
<path fill-rule="evenodd" clip-rule="evenodd" d="M18 0.144531H2C0.89543 0.144531 0 1.10817 0 2.29689V19.5157C0 20.7044 0.89543 21.6681 2 21.6681H10V13.5651H7V10.5265H10V8.89474C10 5.80548 11.4897 4.44924 13.925 4.44924C15.0684 4.44924 15.6836 4.53686 15.9825 4.57943L16 4.58193V7.48786H14.339C13.3053 7.48786 13 8.06317 13 9.22798V10.5265H15.9741L15.5629 13.5651H13V21.6681H18C19.1046 21.6681 20 20.7044 20 19.5157V2.29689C20 1.10817 19.1046 0.144531 18 0.144531Z" fill="#304659"/>
</svg>
