<svg width="20" height="23" viewBox="0 0 20 23" fill="none" xmlns="http://www.w3.org/2000/svg">
<path fill-rule="evenodd" clip-rule="evenodd" d="M18 0.644531H2C0.89543 0.644531 0 1.60817 0 2.79689V20.0157C0 21.2044 0.89543 22.1681 2 22.1681H10V14.0651H7V11.0265H10V9.39474C10 6.30548 11.4897 4.94924 13.925 4.94924C15.0684 4.94924 15.6836 5.03686 15.9825 5.07943L16 5.08193V7.98786H14.339C13.3053 7.98786 13 8.56317 13 9.72798V11.0265H15.9741L15.5629 14.0651H13V22.1681H18C19.1046 22.1681 20 21.2044 20 20.0157V2.79689C20 1.60817 19.1046 0.644531 18 0.644531Z" fill="#304659"/>
</svg>
