<svg width="20" height="22" viewBox="0 0 20 22" fill="none" xmlns="http://www.w3.org/2000/svg">
<path fill-rule="evenodd" clip-rule="evenodd" d="M18 0.0194092H2C0.89543 0.0194092 0 0.983051 0 2.17176V19.3906C0 20.5793 0.89543 21.543 2 21.543H18C19.1046 21.543 20 20.5793 20 19.3906V2.17176C20 0.983051 19.1046 0.0194092 18 0.0194092ZM15.3502 6.73407C15.9312 6.6618 16.4847 6.50156 17 6.26344C16.615 6.86237 16.1277 7.38847 15.5661 7.81035C15.5715 7.93865 15.5742 8.06751 15.5742 8.19694C15.5742 12.1463 12.686 16.7002 7.40283 16.7002C5.78051 16.7002 4.27126 16.2054 3 15.3578C3.22507 15.3858 3.45391 15.3998 3.68544 15.3998C5.03154 15.3998 6.26995 14.9219 7.25261 14.1201C5.99588 14.096 4.93516 13.2315 4.56956 12.0443C4.74455 12.0785 4.92493 12.0975 5.10961 12.0975C5.37183 12.0975 5.62598 12.0611 5.86666 11.9928C4.55232 11.7188 3.56267 10.5109 3.56267 9.06255V9.02502C3.94981 9.24856 4.39295 9.38303 4.86354 9.39872C4.09303 8.8631 3.58636 7.94818 3.58636 6.91168C3.58636 6.36317 3.72797 5.84996 3.97458 5.40847C5.39175 7.21702 7.50783 8.40704 9.89474 8.53142C9.84628 8.31347 9.82043 8.08488 9.82043 7.85069C9.82043 6.20069 11.1062 4.86221 12.6925 4.86221C13.5184 4.86221 14.2647 5.22526 14.7886 5.80626C15.4434 5.6718 16.0583 5.42304 16.6129 5.08071C16.3986 5.77881 15.9436 6.36429 15.3502 6.73407Z" fill="#304659"/>
</svg>
