<svg width="20" height="21" viewBox="0 0 20 21" fill="none" xmlns="http://www.w3.org/2000/svg">
<path fill-rule="evenodd" clip-rule="evenodd" d="M18 0.869263H2C0.89543 0.869263 0 1.73476 0 2.8024V18.2675C0 19.3351 0.89543 20.2006 2 20.2006H18C19.1046 20.2006 20 19.3351 20 18.2675V2.8024C20 1.73476 19.1046 0.869263 18 0.869263ZM4 5.28071C4 6.1153 4.70032 6.79334 5.56637 6.79334C6.4297 6.79334 7.13184 6.1153 7.13184 5.28071C7.13184 4.44701 6.4297 3.76896 5.56637 3.76896C4.70123 3.76896 4 4.44613 4 5.28071ZM4.25044 16.3343H6.93695V7.98673H4.25044V16.3343ZM17 16.3343H14.3153V12.2749C14.3153 11.3066 14.2971 10.0613 12.9192 10.0613C11.5213 10.0613 11.3064 11.1158 11.3064 12.2045V16.3343H8.62172V7.98673H11.1989V9.12736H11.2354C11.5942 8.4713 12.4703 7.77919 13.7771 7.77919C16.4973 7.77919 17 9.50816 17 11.756V16.3343Z" fill="#304659"/>
</svg>
