<svg width="20" height="22" viewBox="0 0 20 22" fill="none" xmlns="http://www.w3.org/2000/svg">
<path fill-rule="evenodd" clip-rule="evenodd" d="M18 0.0194092H2C0.89543 0.0194092 0 0.983051 0 2.17176V19.3906C0 20.5793 0.89543 21.543 2 21.543H18C19.1046 21.543 20 20.5793 20 19.3906V2.17176C20 0.983051 19.1046 0.0194092 18 0.0194092ZM4 4.93113C4 5.86035 4.70032 6.61529 5.56637 6.61529C6.4297 6.61529 7.13184 5.86035 7.13184 4.93113C7.13184 4.00288 6.4297 3.24794 5.56637 3.24794C4.70123 3.24794 4 4.0019 4 4.93113ZM4.25044 17.2382H6.93695V7.94402H4.25044V17.2382ZM17 17.2382H14.3153V12.7184C14.3153 11.6404 14.2971 10.2539 12.9192 10.2539C11.5213 10.2539 11.3064 11.4279 11.3064 12.6401V17.2382H8.62172V7.94402H11.1989V9.21399H11.2354C11.5942 8.48354 12.4703 7.71293 13.7771 7.71293C16.4973 7.71293 17 9.63797 17 12.1407V17.2382Z" fill="#304659"/>
</svg>
