<svg width="20" height="23" viewBox="0 0 20 23" fill="none" xmlns="http://www.w3.org/2000/svg">
<path fill-rule="evenodd" clip-rule="evenodd" d="M18 0.644531H2C0.89543 0.644531 0 1.60817 0 2.79689V20.0157C0 21.2044 0.89543 22.1681 2 22.1681H18C19.1046 22.1681 20 21.2044 20 20.0157V2.79689C20 1.60817 19.1046 0.644531 18 0.644531ZM15.3502 7.35919C15.9312 7.28692 16.4847 7.12668 17 6.88857C16.615 7.48749 16.1277 8.01359 15.5661 8.43547C15.5715 8.56377 15.5742 8.69264 15.5742 8.82206C15.5742 12.7714 12.686 17.3253 7.40283 17.3253C5.78051 17.3253 4.27126 16.8306 3 15.9829C3.22507 16.0109 3.45391 16.0249 3.68544 16.0249C5.03154 16.0249 6.26995 15.547 7.25261 14.7452C5.99588 14.7211 4.93516 13.8566 4.56956 12.6694C4.74455 12.7036 4.92493 12.7227 5.10961 12.7227C5.37183 12.7227 5.62598 12.6862 5.86666 12.6179C4.55232 12.3439 3.56267 11.136 3.56267 9.68768V9.65014C3.94981 9.87369 4.39295 10.0082 4.86354 10.0238C4.09303 9.48822 3.58636 8.5733 3.58636 7.5368C3.58636 6.98829 3.72797 6.47509 3.97458 6.03359C5.39175 7.84215 7.50783 9.03216 9.89474 9.15654C9.84628 8.9386 9.82043 8.71 9.82043 8.47581C9.82043 6.82582 11.1062 5.48733 12.6925 5.48733C13.5184 5.48733 14.2647 5.85039 14.7886 6.43139C15.4434 6.29692 16.0583 6.04816 16.6129 5.70584C16.3986 6.40393 15.9436 6.98941 15.3502 7.35919Z" fill="#304659"/>
</svg>
