<svg width="20" height="22" viewBox="0 0 20 22" fill="none" xmlns="http://www.w3.org/2000/svg">
<path fill-rule="evenodd" clip-rule="evenodd" d="M6 0.0193634H14C17.3137 0.0193634 20 2.91029 20 6.47643V15.0858C20 18.652 17.3137 21.5429 14 21.5429H6C2.68629 21.5429 0 18.652 0 15.0858V6.47643C0 2.91029 2.68629 0.0193634 6 0.0193634ZM16 3.2479C16.5 3.2479 17 3.78598 17 4.32407C17 4.86216 16.5 5.40025 16 5.40025C15.5 5.40025 15 4.86216 15 4.32407C15 3.78598 15.5 3.2479 16 3.2479ZM15 10.7811C15 7.81358 12.7575 5.40025 10 5.40025C7.2425 5.40025 5 7.81358 5 10.7811C5 13.7487 7.2425 16.162 10 16.162C12.7575 16.162 15 13.7487 15 10.7811ZM10 7.55261C8.34315 7.55261 7 8.99807 7 10.7811C7 12.5642 8.34315 14.0097 10 14.0097C11.6569 14.0097 13 12.5642 13 10.7811C13 8.99807 11.6569 7.55261 10 7.55261Z" fill="#304659"/>
</svg>
