<svg width="20" height="22" viewBox="0 0 20 22" fill="none" xmlns="http://www.w3.org/2000/svg">
<path fill-rule="evenodd" clip-rule="evenodd" d="M6 0.0193481H14C17.3137 0.0193481 20 2.91027 20 6.47641V15.0858C20 18.652 17.3137 21.5429 14 21.5429H6C2.68629 21.5429 0 18.652 0 15.0858V6.47641C0 2.91027 2.68629 0.0193481 6 0.0193481ZM16 3.24788C16.5 3.24788 17 3.78597 17 4.32406C17 4.86215 16.5 5.40024 16 5.40024C15.5 5.40024 15 4.86215 15 4.32406C15 3.78597 15.5 3.24788 16 3.24788ZM15 10.7811C15 7.81356 12.7575 5.40024 10 5.40024C7.2425 5.40024 5 7.81356 5 10.7811C5 13.7487 7.2425 16.162 10 16.162C12.7575 16.162 15 13.7487 15 10.7811ZM10 7.55259C8.34315 7.55259 7 8.99805 7 10.7811C7 12.5642 8.34315 14.0097 10 14.0097C11.6569 14.0097 13 12.5642 13 10.7811C13 8.99805 11.6569 7.55259 10 7.55259Z" fill="#304659"/>
</svg>
