<svg width="21" height="26" viewBox="0 0 21 26" fill="none" xmlns="http://www.w3.org/2000/svg">
<path fill-rule="evenodd" clip-rule="evenodd" d="M18.7926 0.222778H2.68963C1.57795 0.222778 0.676758 1.3448 0.676758 2.72888V22.7777C0.676758 24.1617 1.57795 25.2838 2.68963 25.2838H18.7926C19.9043 25.2838 20.8055 24.1617 20.8055 22.7777V2.72888C20.8055 1.3448 19.9043 0.222778 18.7926 0.222778ZM16.1258 8.04101C16.7105 7.95685 17.2675 7.77028 17.7862 7.49303C17.3987 8.1904 16.9083 8.80295 16.3431 9.29417C16.3485 9.44356 16.3512 9.5936 16.3512 9.7443C16.3512 14.3427 13.4444 19.645 8.12723 19.645C6.49446 19.645 4.9755 19.069 3.69606 18.082C3.92258 18.1146 4.15289 18.1309 4.38591 18.1309C5.74067 18.1309 6.98706 17.5745 7.97603 16.641C6.71123 16.6129 5.64367 15.6063 5.27572 14.224C5.45184 14.2638 5.63338 14.286 5.81925 14.286C6.08316 14.286 6.33894 14.2436 6.58117 14.164C5.25838 13.845 4.26235 12.4385 4.26235 10.7522V10.7085C4.65198 10.9688 5.09797 11.1253 5.5716 11.1436C4.79613 10.5199 4.2862 9.45465 4.2862 8.2478C4.2862 7.60915 4.42872 7.0116 4.67691 6.49754C6.10321 8.60333 8.2329 9.98893 10.6352 10.1338C10.5864 9.87999 10.5604 9.61383 10.5604 9.34114C10.5604 7.41997 11.8545 5.8615 13.4509 5.8615C14.2822 5.8615 15.0333 6.28422 15.5605 6.96071C16.2195 6.80415 16.8384 6.5145 17.3965 6.11592C17.1808 6.92875 16.7229 7.61045 16.1258 8.04101Z" fill="#304659"/>
</svg>
