<svg width="20" height="21" viewBox="0 0 20 21" fill="none" xmlns="http://www.w3.org/2000/svg">
<path fill-rule="evenodd" clip-rule="evenodd" d="M6 0.869263H14C17.3137 0.869263 20 3.46574 20 6.66866V14.4012C20 17.6041 17.3137 20.2006 14 20.2006H6C2.68629 20.2006 0 17.6041 0 14.4012V6.66866C0 3.46574 2.68629 0.869263 6 0.869263ZM16 3.76896C16.5 3.76896 17 4.25225 17 4.73553C17 5.21881 16.5 5.7021 16 5.7021C15.5 5.7021 15 5.21881 15 4.73553C15 4.25225 15.5 3.76896 16 3.76896ZM15 10.5349C15 7.86962 12.7575 5.7021 10 5.7021C7.2425 5.7021 5 7.86962 5 10.5349C5 13.2002 7.2425 15.3678 10 15.3678C12.7575 15.3678 15 13.2002 15 10.5349ZM10 7.63523C8.34315 7.63523 7 8.93347 7 10.5349C7 12.1364 8.34315 13.4346 10 13.4346C11.6569 13.4346 13 12.1364 13 10.5349C13 8.93347 11.6569 7.63523 10 7.63523Z" fill="#304659"/>
</svg>
