<svg width="20" height="22" viewBox="0 0 20 22" fill="none" xmlns="http://www.w3.org/2000/svg">
<path fill-rule="evenodd" clip-rule="evenodd" d="M18 0.0193634H2C0.89543 0.0193634 0 0.983005 0 2.17172V19.3906C0 20.5793 0.89543 21.5429 2 21.5429H18C19.1046 21.5429 20 20.5793 20 19.3906V2.17172C20 0.983005 19.1046 0.0193634 18 0.0193634ZM15.3502 6.73403C15.9312 6.66175 16.4847 6.50151 17 6.2634C16.615 6.86233 16.1277 7.38842 15.5661 7.8103C15.5715 7.93861 15.5742 8.06747 15.5742 8.19689C15.5742 12.1462 12.686 16.7001 7.40283 16.7001C5.78051 16.7001 4.27126 16.2054 3 15.3577C3.22507 15.3857 3.45391 15.3997 3.68544 15.3997C5.03154 15.3997 6.26995 14.9218 7.25261 14.1201C5.99588 14.096 4.93516 13.2315 4.56956 12.0443C4.74455 12.0784 4.92493 12.0975 5.10961 12.0975C5.37183 12.0975 5.62598 12.0611 5.86666 11.9927C4.55232 11.7188 3.56267 10.5108 3.56267 9.06251V9.02497C3.94981 9.24852 4.39295 9.38298 4.86354 9.39867C4.09303 8.86305 3.58636 7.94813 3.58636 6.91163C3.58636 6.36313 3.72797 5.84992 3.97458 5.40843C5.39175 7.21698 7.50783 8.40699 9.89474 8.53137C9.84628 8.31343 9.82043 8.08484 9.82043 7.85064C9.82043 6.20065 11.1062 4.86216 12.6925 4.86216C13.5184 4.86216 14.2647 5.22522 14.7886 5.80622C15.4434 5.67175 16.0583 5.42299 16.6129 5.08067C16.3986 5.77876 15.9436 6.36425 15.3502 6.73403Z" fill="#304659"/>
</svg>
