<svg width="20" height="22" viewBox="0 0 20 22" fill="none" xmlns="http://www.w3.org/2000/svg">
<path fill-rule="evenodd" clip-rule="evenodd" d="M6 0.0195312H14C17.3137 0.0195312 20 2.91046 20 6.4766V15.086C20 18.6522 17.3137 21.5431 14 21.5431H6C2.68629 21.5431 0 18.6522 0 15.086V6.4766C0 2.91046 2.68629 0.0195312 6 0.0195312ZM16 3.24806C16.5 3.24806 17 3.78615 17 4.32424C17 4.86233 16.5 5.40042 16 5.40042C15.5 5.40042 15 4.86233 15 4.32424C15 3.78615 15.5 3.24806 16 3.24806ZM15 10.7813C15 7.81375 12.7575 5.40042 10 5.40042C7.2425 5.40042 5 7.81375 5 10.7813C5 13.7489 7.2425 16.1622 10 16.1622C12.7575 16.1622 15 13.7489 15 10.7813ZM10 7.55277C8.34315 7.55277 7 8.99824 7 10.7813C7 12.5644 8.34315 14.0098 10 14.0098C11.6569 14.0098 13 12.5644 13 10.7813C13 8.99824 11.6569 7.55277 10 7.55277Z" fill="#304659"/>
</svg>
