<svg width="20" height="23" viewBox="0 0 20 23" fill="none" xmlns="http://www.w3.org/2000/svg">
<path fill-rule="evenodd" clip-rule="evenodd" d="M18 0.644531H2C0.89543 0.644531 0 1.60817 0 2.79689V20.0157C0 21.2044 0.89543 22.1681 2 22.1681H18C19.1046 22.1681 20 21.2044 20 20.0157V2.79689C20 1.60817 19.1046 0.644531 18 0.644531ZM4 5.55625C4 6.48548 4.70032 7.24041 5.56637 7.24041C6.4297 7.24041 7.13184 6.48548 7.13184 5.55625C7.13184 4.628 6.4297 3.87306 5.56637 3.87306C4.70123 3.87306 4 4.62702 4 5.55625ZM4.25044 17.8634H6.93695V8.56914H4.25044V17.8634ZM17 17.8634H14.3153V13.3435C14.3153 12.2655 14.2971 10.879 12.9192 10.879C11.5213 10.879 11.3064 12.053 11.3064 13.2652V17.8634H8.62172V8.56914H11.1989V9.83912H11.2354C11.5942 9.10866 12.4703 8.33806 13.7771 8.33806C16.4973 8.33806 17 10.2631 17 12.7658V17.8634Z" fill="#304659"/>
</svg>
