<svg width="21" height="26" viewBox="0 0 21 26" fill="none" xmlns="http://www.w3.org/2000/svg">
<path fill-rule="evenodd" clip-rule="evenodd" d="M18.5348 0.222778H2.43182C1.32014 0.222778 0.418945 1.3448 0.418945 2.72888V22.7777C0.418945 24.1617 1.32014 25.2838 2.43182 25.2838H18.5348C19.6465 25.2838 20.5476 24.1617 20.5476 22.7777V2.72888C20.5476 1.3448 19.6465 0.222778 18.5348 0.222778ZM4.44468 5.94174C4.44468 7.02369 5.14951 7.9027 6.02114 7.9027C6.89002 7.9027 7.59668 7.02369 7.59668 5.94174C7.59668 4.86094 6.89002 3.98193 6.02114 3.98193C5.15042 3.98193 4.44468 4.8598 4.44468 5.94174ZM4.69673 20.2716H7.40054V9.44981H4.69673V20.2716ZM17.5283 20.2716H14.8264V15.0089C14.8264 13.7537 14.808 12.1393 13.4213 12.1393C12.0144 12.1393 11.7981 13.5063 11.7981 14.9177V20.2716H9.09614V9.44981H11.69V10.9285H11.7266C12.0877 10.078 12.9695 9.18075 14.2847 9.18075C17.0224 9.18075 17.5283 11.4222 17.5283 14.3362V20.2716Z" fill="#304659"/>
</svg>
