<svg width="20" height="22" viewBox="0 0 20 22" fill="none" xmlns="http://www.w3.org/2000/svg">
<path fill-rule="evenodd" clip-rule="evenodd" d="M18 0.0193481H2C0.89543 0.0193481 0 0.98299 0 2.1717V19.3905C0 20.5793 0.89543 21.5429 2 21.5429H18C19.1046 21.5429 20 20.5793 20 19.3905V2.1717C20 0.98299 19.1046 0.0193481 18 0.0193481ZM4 4.93107C4 5.86029 4.70032 6.61523 5.56637 6.61523C6.4297 6.61523 7.13184 5.86029 7.13184 4.93107C7.13184 4.00282 6.4297 3.24788 5.56637 3.24788C4.70123 3.24788 4 4.00184 4 4.93107ZM4.25044 17.2382H6.93695V7.94396H4.25044V17.2382ZM17 17.2382H14.3153V12.7184C14.3153 11.6403 14.2971 10.2538 12.9192 10.2538C11.5213 10.2538 11.3064 11.4278 11.3064 12.64V17.2382H8.62172V7.94396H11.1989V9.21393H11.2354C11.5942 8.48348 12.4703 7.71287 13.7771 7.71287C16.4973 7.71287 17 9.63791 17 12.1407V17.2382Z" fill="#304659"/>
</svg>
