<svg width="20" height="22" viewBox="0 0 20 22" fill="none" xmlns="http://www.w3.org/2000/svg">
<path fill-rule="evenodd" clip-rule="evenodd" d="M18 0.0193634H2C0.89543 0.0193634 0 0.983005 0 2.17172V19.3906C0 20.5793 0.89543 21.5429 2 21.5429H10V13.4399H7V10.4013H10V8.76957C10 5.68031 11.4897 4.32407 13.925 4.32407C15.0684 4.32407 15.6836 4.4117 15.9825 4.45426L16 4.45676V7.36269H14.339C13.3053 7.36269 13 7.938 13 9.10281V10.4013H15.9741L15.5629 13.4399H13V21.5429H18C19.1046 21.5429 20 20.5793 20 19.3906V2.17172C20 0.983005 19.1046 0.0193634 18 0.0193634Z" fill="#304659"/>
</svg>
