<svg width="20" height="22" viewBox="0 0 20 22" fill="none" xmlns="http://www.w3.org/2000/svg">
<path fill-rule="evenodd" clip-rule="evenodd" d="M18 0.0193481H2C0.89543 0.0193481 0 0.98299 0 2.1717V19.3905C0 20.5793 0.89543 21.5429 2 21.5429H10V13.4399H7V10.4013H10V8.76956C10 5.68029 11.4897 4.32406 13.925 4.32406C15.0684 4.32406 15.6836 4.41168 15.9825 4.45425L16 4.45674V7.36268H14.339C13.3053 7.36268 13 7.93799 13 9.10279V10.4013H15.9741L15.5629 13.4399H13V21.5429H18C19.1046 21.5429 20 20.5793 20 19.3905V2.1717C20 0.98299 19.1046 0.0193481 18 0.0193481Z" fill="#304659"/>
</svg>
