<svg width="20" height="22" viewBox="0 0 20 22" fill="none" xmlns="http://www.w3.org/2000/svg">
<path fill-rule="evenodd" clip-rule="evenodd" d="M6 0.144531H14C17.3137 0.144531 20 3.03546 20 6.6016V15.211C20 18.7772 17.3137 21.6681 14 21.6681H6C2.68629 21.6681 0 18.7772 0 15.211V6.6016C0 3.03546 2.68629 0.144531 6 0.144531ZM16 3.37306C16.5 3.37306 17 3.91115 17 4.44924C17 4.98733 16.5 5.52542 16 5.52542C15.5 5.52542 15 4.98733 15 4.44924C15 3.91115 15.5 3.37306 16 3.37306ZM15 10.9063C15 7.93875 12.7575 5.52542 10 5.52542C7.2425 5.52542 5 7.93875 5 10.9063C5 13.8739 7.2425 16.2872 10 16.2872C12.7575 16.2872 15 13.8739 15 10.9063ZM10 7.67777C8.34315 7.67777 7 9.12324 7 10.9063C7 12.6894 8.34315 14.1348 10 14.1348C11.6569 14.1348 13 12.6894 13 10.9063C13 9.12324 11.6569 7.67777 10 7.67777Z" fill="#304659"/>
</svg>
