<svg width="20" height="21" viewBox="0 0 20 21" fill="none" xmlns="http://www.w3.org/2000/svg">
<path fill-rule="evenodd" clip-rule="evenodd" d="M18 0.869263H2C0.89543 0.869263 0 1.73476 0 2.8024V18.2675C0 19.3351 0.89543 20.2006 2 20.2006H10V12.9229H7V10.1938H10V8.72825C10 5.95363 11.4897 4.73553 13.925 4.73553C15.0684 4.73553 15.6836 4.81423 15.9825 4.85246L16 4.8547V7.46466H14.339C13.3053 7.46466 13 7.98138 13 9.02754V10.1938H15.9741L15.5629 12.9229H13V20.2006H18C19.1046 20.2006 20 19.3351 20 18.2675V2.8024C20 1.73476 19.1046 0.869263 18 0.869263Z" fill="#304659"/>
</svg>
