<svg width="20" height="22" viewBox="0 0 20 22" fill="none" xmlns="http://www.w3.org/2000/svg">
<path fill-rule="evenodd" clip-rule="evenodd" d="M18 0.0195312H2C0.89543 0.0195312 0 0.983173 0 2.17189V19.3907C0 20.5794 0.89543 21.5431 2 21.5431H10V13.4401H7V10.4015H10V8.76974C10 5.68048 11.4897 4.32424 13.925 4.32424C15.0684 4.32424 15.6836 4.41186 15.9825 4.45443L16 4.45693V7.36286H14.339C13.3053 7.36286 13 7.93817 13 9.10298V10.4015H15.9741L15.5629 13.4401H13V21.5431H18C19.1046 21.5431 20 20.5794 20 19.3907V2.17189C20 0.983173 19.1046 0.0195312 18 0.0195312Z" fill="#304659"/>
</svg>
