<svg width="20" height="22" viewBox="0 0 20 22" fill="none" xmlns="http://www.w3.org/2000/svg">
<path fill-rule="evenodd" clip-rule="evenodd" d="M6 0.0194092H14C17.3137 0.0194092 20 2.91034 20 6.47647V15.0859C20 18.652 17.3137 21.543 14 21.543H6C2.68629 21.543 0 18.652 0 15.0859V6.47647C0 2.91034 2.68629 0.0194092 6 0.0194092ZM16 3.24794C16.5 3.24794 17 3.78603 17 4.32412C17 4.86221 16.5 5.4003 16 5.4003C15.5 5.4003 15 4.86221 15 4.32412C15 3.78603 15.5 3.24794 16 3.24794ZM15 10.7812C15 7.81362 12.7575 5.4003 10 5.4003C7.2425 5.4003 5 7.81362 5 10.7812C5 13.7487 7.2425 16.1621 10 16.1621C12.7575 16.1621 15 13.7487 15 10.7812ZM10 7.55265C8.34315 7.55265 7 8.99811 7 10.7812C7 12.5643 8.34315 14.0097 10 14.0097C11.6569 14.0097 13 12.5643 13 10.7812C13 8.99811 11.6569 7.55265 10 7.55265Z" fill="#304659"/>
</svg>
