<svg width="20" height="22" viewBox="0 0 20 22" fill="none" xmlns="http://www.w3.org/2000/svg">
<path fill-rule="evenodd" clip-rule="evenodd" d="M18 0.0192871H2C0.89543 0.0192871 0 0.982929 0 2.17164V19.3905C0 20.5792 0.89543 21.5428 2 21.5428H18C19.1046 21.5428 20 20.5792 20 19.3905V2.17164C20 0.982929 19.1046 0.0192871 18 0.0192871ZM15.3502 6.73395C15.9312 6.66167 16.4847 6.50144 17 6.26332C16.615 6.86225 16.1277 7.38834 15.5661 7.81023C15.5715 7.93853 15.5742 8.06739 15.5742 8.19681C15.5742 12.1462 12.686 16.7 7.40283 16.7C5.78051 16.7 4.27126 16.2053 3 15.3576C3.22507 15.3856 3.45391 15.3997 3.68544 15.3997C5.03154 15.3997 6.26995 14.9217 7.25261 14.12C5.99588 14.0959 4.93516 13.2314 4.56956 12.0442C4.74455 12.0784 4.92493 12.0974 5.10961 12.0974C5.37183 12.0974 5.62598 12.061 5.86666 11.9926C4.55232 11.7187 3.56267 10.5107 3.56267 9.06243V9.02489C3.94981 9.24844 4.39295 9.38291 4.86354 9.39859C4.09303 8.86298 3.58636 7.94805 3.58636 6.91155C3.58636 6.36305 3.72797 5.84984 3.97458 5.40835C5.39175 7.2169 7.50783 8.40692 9.89474 8.5313C9.84628 8.31335 9.82043 8.08476 9.82043 7.85057C9.82043 6.20057 11.1062 4.86209 12.6925 4.86209C13.5184 4.86209 14.2647 5.22514 14.7886 5.80614C15.4434 5.67168 16.0583 5.42292 16.6129 5.08059C16.3986 5.77869 15.9436 6.36417 15.3502 6.73395Z" fill="#304659"/>
</svg>
