<svg width="20" height="22" viewBox="0 0 20 22" fill="none" xmlns="http://www.w3.org/2000/svg">
<path fill-rule="evenodd" clip-rule="evenodd" d="M18 0.0192871H2C0.89543 0.0192871 0 0.982929 0 2.17164V19.3905C0 20.5792 0.89543 21.5428 2 21.5428H10V13.4399H7V10.4012H10V8.7695C10 5.68023 11.4897 4.324 13.925 4.324C15.0684 4.324 15.6836 4.41162 15.9825 4.45419L16 4.45668V7.36262H14.339C13.3053 7.36262 13 7.93793 13 9.10273V10.4012H15.9741L15.5629 13.4399H13V21.5428H18C19.1046 21.5428 20 20.5792 20 19.3905V2.17164C20 0.982929 19.1046 0.0192871 18 0.0192871Z" fill="#304659"/>
</svg>
