<svg width="20" height="21" viewBox="0 0 20 21" fill="none" xmlns="http://www.w3.org/2000/svg">
<path fill-rule="evenodd" clip-rule="evenodd" d="M18 0.869263H2C0.89543 0.869263 0 1.73476 0 2.8024V18.2675C0 19.3351 0.89543 20.2006 2 20.2006H18C19.1046 20.2006 20 19.3351 20 18.2675V2.8024C20 1.73476 19.1046 0.869263 18 0.869263ZM15.3502 6.90002C15.9312 6.83511 16.4847 6.69119 17 6.47733C16.615 7.01526 16.1277 7.48777 15.5661 7.86668C15.5715 7.98192 15.5742 8.09765 15.5742 8.21389C15.5742 11.761 12.686 15.851 7.40283 15.851C5.78051 15.851 4.27126 15.4067 3 14.6454C3.22507 14.6705 3.45391 14.6831 3.68544 14.6831C5.03154 14.6831 6.26995 14.2539 7.25261 13.5338C5.99588 13.5121 4.93516 12.7357 4.56956 11.6694C4.74455 11.7001 4.92493 11.7172 5.10961 11.7172C5.37183 11.7172 5.62598 11.6845 5.86666 11.6231C4.55232 11.377 3.56267 10.2921 3.56267 8.99135V8.95763C3.94981 9.15841 4.39295 9.27918 4.86354 9.29327C4.09303 8.81221 3.58636 7.99047 3.58636 7.05954C3.58636 6.5669 3.72797 6.10597 3.97458 5.70944C5.39175 7.33379 7.50783 8.4026 9.89474 8.51431C9.84628 8.31856 9.82043 8.11325 9.82043 7.90291C9.82043 6.42097 11.1062 5.21881 12.6925 5.21881C13.5184 5.21881 14.2647 5.54489 14.7886 6.06672C15.4434 5.94595 16.0583 5.72252 16.6129 5.41506C16.3986 6.04206 15.9436 6.56791 15.3502 6.90002Z" fill="#304659"/>
</svg>
