<svg width="20" height="22" viewBox="0 0 20 22" fill="none" xmlns="http://www.w3.org/2000/svg">
<path fill-rule="evenodd" clip-rule="evenodd" d="M18 0.0193634H2C0.89543 0.0193634 0 0.983005 0 2.17172V19.3906C0 20.5793 0.89543 21.5429 2 21.5429H18C19.1046 21.5429 20 20.5793 20 19.3906V2.17172C20 0.983005 19.1046 0.0193634 18 0.0193634ZM4 4.93108C4 5.86031 4.70032 6.61524 5.56637 6.61524C6.4297 6.61524 7.13184 5.86031 7.13184 4.93108C7.13184 4.00283 6.4297 3.2479 5.56637 3.2479C4.70123 3.2479 4 4.00185 4 4.93108ZM4.25044 17.2382H6.93695V7.94397H4.25044V17.2382ZM17 17.2382H14.3153V12.7184C14.3153 11.6403 14.2971 10.2538 12.9192 10.2538C11.5213 10.2538 11.3064 11.4278 11.3064 12.64V17.2382H8.62172V7.94397H11.1989V9.21395H11.2354C11.5942 8.48349 12.4703 7.71289 13.7771 7.71289C16.4973 7.71289 17 9.63793 17 12.1407V17.2382Z" fill="#304659"/>
</svg>
