<svg width="20" height="22" viewBox="0 0 20 22" fill="none" xmlns="http://www.w3.org/2000/svg">
<path fill-rule="evenodd" clip-rule="evenodd" d="M18 0.0193481H2C0.89543 0.0193481 0 0.98299 0 2.1717V19.3905C0 20.5793 0.89543 21.5429 2 21.5429H18C19.1046 21.5429 20 20.5793 20 19.3905V2.1717C20 0.98299 19.1046 0.0193481 18 0.0193481ZM15.3502 6.73401C15.9312 6.66174 16.4847 6.5015 17 6.26338C16.615 6.86231 16.1277 7.38841 15.5661 7.81029C15.5715 7.93859 15.5742 8.06745 15.5742 8.19688C15.5742 12.1462 12.686 16.7001 7.40283 16.7001C5.78051 16.7001 4.27126 16.2054 3 15.3577C3.22507 15.3857 3.45391 15.3997 3.68544 15.3997C5.03154 15.3997 6.26995 14.9218 7.25261 14.1201C5.99588 14.096 4.93516 13.2315 4.56956 12.0443C4.74455 12.0784 4.92493 12.0975 5.10961 12.0975C5.37183 12.0975 5.62598 12.0611 5.86666 11.9927C4.55232 11.7187 3.56267 10.5108 3.56267 9.06249V9.02496C3.94981 9.2485 4.39295 9.38297 4.86354 9.39866C4.09303 8.86304 3.58636 7.94812 3.58636 6.91162C3.58636 6.36311 3.72797 5.8499 3.97458 5.40841C5.39175 7.21696 7.50783 8.40698 9.89474 8.53136C9.84628 8.31341 9.82043 8.08482 9.82043 7.85063C9.82043 6.20063 11.1062 4.86215 12.6925 4.86215C13.5184 4.86215 14.2647 5.2252 14.7886 5.8062C15.4434 5.67174 16.0583 5.42298 16.6129 5.08065C16.3986 5.77875 15.9436 6.36423 15.3502 6.73401Z" fill="#304659"/>
</svg>
