<svg width="20" height="22" viewBox="0 0 20 22" fill="none" xmlns="http://www.w3.org/2000/svg">
<path fill-rule="evenodd" clip-rule="evenodd" d="M6 0.0192871H14C17.3137 0.0192871 20 2.91021 20 6.47635V15.0858C20 18.6519 17.3137 21.5428 14 21.5428H6C2.68629 21.5428 0 18.6519 0 15.0858V6.47635C0 2.91021 2.68629 0.0192871 6 0.0192871ZM16 3.24782C16.5 3.24782 17 3.78591 17 4.324C17 4.86209 16.5 5.40017 16 5.40017C15.5 5.40017 15 4.86209 15 4.324C15 3.78591 15.5 3.24782 16 3.24782ZM15 10.7811C15 7.8135 12.7575 5.40017 10 5.40017C7.2425 5.40017 5 7.8135 5 10.7811C5 13.7486 7.2425 16.1619 10 16.1619C12.7575 16.1619 15 13.7486 15 10.7811ZM10 7.55253C8.34315 7.55253 7 8.99799 7 10.7811C7 12.5641 8.34315 14.0096 10 14.0096C11.6569 14.0096 13 12.5641 13 10.7811C13 8.99799 11.6569 7.55253 10 7.55253Z" fill="#304659"/>
</svg>
