<svg width="20" height="22" viewBox="0 0 20 22" fill="none" xmlns="http://www.w3.org/2000/svg">
<path fill-rule="evenodd" clip-rule="evenodd" d="M18 0.0195312H2C0.89543 0.0195312 0 0.983173 0 2.17189V19.3907C0 20.5794 0.89543 21.5431 2 21.5431H18C19.1046 21.5431 20 20.5794 20 19.3907V2.17189C20 0.983173 19.1046 0.0195312 18 0.0195312ZM4 4.93125C4 5.86048 4.70032 6.61541 5.56637 6.61541C6.4297 6.61541 7.13184 5.86048 7.13184 4.93125C7.13184 4.003 6.4297 3.24806 5.56637 3.24806C4.70123 3.24806 4 4.00202 4 4.93125ZM4.25044 17.2384H6.93695V7.94414H4.25044V17.2384ZM17 17.2384H14.3153V12.7185C14.3153 11.6405 14.2971 10.254 12.9192 10.254C11.5213 10.254 11.3064 11.428 11.3064 12.6402V17.2384H8.62172V7.94414H11.1989V9.21412H11.2354C11.5942 8.48366 12.4703 7.71306 13.7771 7.71306C16.4973 7.71306 17 9.63809 17 12.1408V17.2384Z" fill="#304659"/>
</svg>
