<svg width="20" height="22" viewBox="0 0 20 22" fill="none" xmlns="http://www.w3.org/2000/svg">
<path fill-rule="evenodd" clip-rule="evenodd" d="M18 0.0192871H2C0.89543 0.0192871 0 0.982929 0 2.17164V19.3905C0 20.5792 0.89543 21.5428 2 21.5428H18C19.1046 21.5428 20 20.5792 20 19.3905V2.17164C20 0.982929 19.1046 0.0192871 18 0.0192871ZM4 4.931C4 5.86023 4.70032 6.61517 5.56637 6.61517C6.4297 6.61517 7.13184 5.86023 7.13184 4.931C7.13184 4.00276 6.4297 3.24782 5.56637 3.24782C4.70123 3.24782 4 4.00178 4 4.931ZM4.25044 17.2381H6.93695V7.94389H4.25044V17.2381ZM17 17.2381H14.3153V12.7183C14.3153 11.6402 14.2971 10.2537 12.9192 10.2537C11.5213 10.2537 11.3064 11.4278 11.3064 12.64V17.2381H8.62172V7.94389H11.1989V9.21387H11.2354C11.5942 8.48341 12.4703 7.71281 13.7771 7.71281C16.4973 7.71281 17 9.63785 17 12.1406V17.2381Z" fill="#304659"/>
</svg>
