<svg width="20" height="22" viewBox="0 0 20 22" fill="none" xmlns="http://www.w3.org/2000/svg">
<path fill-rule="evenodd" clip-rule="evenodd" d="M18 0.0194092H2C0.89543 0.0194092 0 0.983051 0 2.17176V19.3906C0 20.5793 0.89543 21.543 2 21.543H10V13.44H7V10.4014H10V8.76962C10 5.68036 11.4897 4.32412 13.925 4.32412C15.0684 4.32412 15.6836 4.41174 15.9825 4.45431L16 4.45681V7.36274H14.339C13.3053 7.36274 13 7.93805 13 9.10285V10.4014H15.9741L15.5629 13.44H13V21.543H18C19.1046 21.543 20 20.5793 20 19.3906V2.17176C20 0.983051 19.1046 0.0194092 18 0.0194092Z" fill="#304659"/>
</svg>
