<svg width="22" height="26" viewBox="0 0 22 26" fill="none" xmlns="http://www.w3.org/2000/svg">
<path fill-rule="evenodd" clip-rule="evenodd" d="M6.9722 0.222778H15.0237C18.3587 0.222778 21.0623 3.58883 21.0623 7.74107V17.7655C21.0623 21.9177 18.3587 25.2838 15.0237 25.2838H6.9722C3.63717 25.2838 0.933594 21.9177 0.933594 17.7655V7.74107C0.933594 3.58883 3.63717 0.222778 6.9722 0.222778ZM17.0366 3.98193C17.5398 3.98193 18.043 4.60845 18.043 5.23497C18.043 5.8615 17.5398 6.48802 17.0366 6.48802C16.5333 6.48802 16.0301 5.8615 16.0301 5.23497C16.0301 4.60845 16.5333 3.98193 17.0366 3.98193ZM16.0301 12.7533C16.0301 9.29799 13.7732 6.48802 10.9979 6.48802C8.2227 6.48802 5.96577 9.29799 5.96577 12.7533C5.96577 16.2086 8.2227 19.0185 10.9979 19.0185C13.7732 19.0185 16.0301 16.2086 16.0301 12.7533ZM10.9979 8.99412C9.33043 8.99412 7.97864 10.6772 7.97864 12.7533C7.97864 14.8294 9.33043 16.5124 10.9979 16.5124C12.6655 16.5124 14.0172 14.8294 14.0172 12.7533C14.0172 10.6772 12.6655 8.99412 10.9979 8.99412Z" fill="#304659"/>
</svg>
