<svg width="69" height="15" viewBox="0 0 69 15" fill="none" xmlns="http://www.w3.org/2000/svg">
<path d="M68.9965 6.9688C68.9965 7.25814 68.9779 7.51947 68.9405 7.7528H63.0465C63.0932 8.3688 63.3219 8.86347 63.7325 9.2368C64.1432 9.61014 64.6472 9.7968 65.2445 9.7968C66.1032 9.7968 66.7099 9.43747 67.0645 8.7188H68.7865C68.5532 9.42814 68.1285 10.0115 67.5125 10.4688C66.9059 10.9168 66.1499 11.1408 65.2445 11.1408C64.5072 11.1408 63.8445 10.9775 63.2565 10.6508C62.6779 10.3148 62.2205 9.84814 61.8845 9.2508C61.5579 8.64414 61.3945 7.94414 61.3945 7.1508C61.3945 6.35747 61.5532 5.66214 61.8705 5.06481C62.1972 4.45814 62.6499 3.99147 63.2285 3.6648C63.8165 3.33814 64.4885 3.1748 65.2445 3.1748C65.9725 3.1748 66.6212 3.33347 67.1905 3.6508C67.7599 3.96814 68.2032 4.41614 68.5205 4.9948C68.8379 5.56414 68.9965 6.22214 68.9965 6.9688ZM67.3305 6.4648C67.3212 5.8768 67.1112 5.40547 66.7005 5.0508C66.2899 4.69614 65.7812 4.5188 65.1745 4.5188C64.6239 4.5188 64.1525 4.69614 63.7605 5.0508C63.3685 5.39614 63.1352 5.86747 63.0605 6.4648H67.3305Z" fill="#777E91"/>
<path d="M58.1487 4.4208C58.3821 4.02881 58.6901 3.72547 59.0727 3.51081C59.4647 3.28681 59.9267 3.1748 60.4587 3.1748V4.8268H60.0527C59.4274 4.8268 58.9514 4.98547 58.6247 5.3028C58.3074 5.62014 58.1487 6.1708 58.1487 6.9548V11.0148H56.5527V3.30081H58.1487V4.4208Z" fill="#777E91"/>
<path d="M54.9829 6.9688C54.9829 7.25814 54.9642 7.51947 54.9269 7.7528H49.0329C49.0795 8.3688 49.3082 8.86347 49.7189 9.2368C50.1295 9.61014 50.6335 9.7968 51.2309 9.7968C52.0895 9.7968 52.6962 9.43747 53.0509 8.7188H54.7729C54.5395 9.42814 54.1149 10.0115 53.4989 10.4688C52.8922 10.9168 52.1362 11.1408 51.2309 11.1408C50.4935 11.1408 49.8309 10.9775 49.2429 10.6508C48.6642 10.3148 48.2069 9.84814 47.8709 9.2508C47.5442 8.64414 47.3809 7.94414 47.3809 7.1508C47.3809 6.35747 47.5395 5.66214 47.8569 5.06481C48.1835 4.45814 48.6362 3.99147 49.2149 3.6648C49.8029 3.33814 50.4749 3.1748 51.2309 3.1748C51.9589 3.1748 52.6075 3.33347 53.1769 3.6508C53.7462 3.96814 54.1895 4.41614 54.5069 4.9948C54.8242 5.56414 54.9829 6.22214 54.9829 6.9688ZM53.3169 6.4648C53.3075 5.8768 53.0975 5.40547 52.6869 5.0508C52.2762 4.69614 51.7675 4.5188 51.1609 4.5188C50.6102 4.5188 50.1389 4.69614 49.7469 5.0508C49.3549 5.39614 49.1215 5.86747 49.0469 6.4648H53.3169Z" fill="#777E91"/>
<path d="M42.8103 3.17527C43.3983 3.17527 43.921 3.30127 44.3783 3.55327C44.845 3.80527 45.209 4.17861 45.4703 4.67327C45.741 5.16794 45.8763 5.76527 45.8763 6.46527V11.0153H44.2943V6.70327C44.2943 6.01261 44.1216 5.48527 43.7763 5.12127C43.431 4.74794 42.9596 4.56127 42.3623 4.56127C41.765 4.56127 41.289 4.74794 40.9343 5.12127C40.589 5.48527 40.4163 6.01261 40.4163 6.70327V11.0153H38.8203V0.655273H40.4163V4.19727C40.687 3.87061 41.0276 3.61861 41.4383 3.44127C41.8583 3.26394 42.3156 3.17527 42.8103 3.17527Z" fill="#777E91"/>
<path d="M33.6137 6.9688C33.6137 7.25814 33.5951 7.51947 33.5577 7.7528H27.6637C27.7104 8.3688 27.9391 8.86347 28.3497 9.2368C28.7604 9.61014 29.2644 9.7968 29.8617 9.7968C30.7204 9.7968 31.3271 9.43747 31.6817 8.7188H33.4037C33.1704 9.42814 32.7457 10.0115 32.1297 10.4688C31.5231 10.9168 30.7671 11.1408 29.8617 11.1408C29.1244 11.1408 28.4617 10.9775 27.8737 10.6508C27.2951 10.3148 26.8377 9.84814 26.5017 9.2508C26.1751 8.64414 26.0117 7.94414 26.0117 7.1508C26.0117 6.35747 26.1704 5.66214 26.4877 5.06481C26.8144 4.45814 27.2671 3.99147 27.8457 3.6648C28.4337 3.33814 29.1057 3.1748 29.8617 3.1748C30.5897 3.1748 31.2384 3.33347 31.8077 3.6508C32.3771 3.96814 32.8204 4.41614 33.1377 4.9948C33.4551 5.56414 33.6137 6.22214 33.6137 6.9688ZM31.9477 6.4648C31.9384 5.8768 31.7284 5.40547 31.3177 5.0508C30.9071 4.69614 30.3984 4.5188 29.7917 4.5188C29.2411 4.5188 28.7697 4.69614 28.3777 5.0508C27.9857 5.39614 27.7524 5.86747 27.6777 6.4648H31.9477Z" fill="#777E91"/>
<path d="M18.6507 4.4348C18.9214 4.08014 19.29 3.78147 19.7567 3.5388C20.2234 3.29614 20.7507 3.1748 21.3387 3.1748C22.0107 3.1748 22.622 3.3428 23.1727 3.6788C23.7327 4.00547 24.1714 4.46747 24.4887 5.06481C24.806 5.66214 24.9647 6.34814 24.9647 7.1228C24.9647 7.89747 24.806 8.5928 24.4887 9.20881C24.1714 9.81547 23.7327 10.2915 23.1727 10.6368C22.622 10.9728 22.0107 11.1408 21.3387 11.1408C20.7507 11.1408 20.228 11.0241 19.7707 10.7908C19.3134 10.5481 18.94 10.2495 18.6507 9.8948V14.6828H17.0547V3.30081H18.6507V4.4348ZM23.3407 7.1228C23.3407 6.5908 23.2287 6.13347 23.0047 5.7508C22.79 5.3588 22.5007 5.0648 22.1367 4.8688C21.782 4.66347 21.3994 4.5608 20.9887 4.5608C20.5874 4.5608 20.2047 4.66347 19.8407 4.8688C19.486 5.07414 19.1967 5.3728 18.9727 5.7648C18.758 6.15681 18.6507 6.6188 18.6507 7.1508C18.6507 7.6828 18.758 8.14947 18.9727 8.55081C19.1967 8.94281 19.486 9.24147 19.8407 9.44681C20.2047 9.65214 20.5874 9.7548 20.9887 9.7548C21.3994 9.7548 21.782 9.65214 22.1367 9.44681C22.5007 9.23214 22.79 8.92414 23.0047 8.52281C23.2287 8.12147 23.3407 7.6548 23.3407 7.1228Z" fill="#777E91"/>
<path d="M15.8501 3.30176L11.1181 14.6418H9.46609L11.0341 10.8898L7.99609 3.30176H9.77409L11.9441 9.18176L14.1981 3.30176H15.8501Z" fill="#777E91"/>
<path d="M7.29 1.28516V2.58716H4.7V11.0152H3.104V2.58716H0.5V1.28516H7.29Z" fill="#777E91"/>
</svg>
