<svg width="69" height="15" viewBox="0 0 69 15" fill="none" xmlns="http://www.w3.org/2000/svg">
<path d="M68.4965 6.62701C68.4965 6.91634 68.4779 7.17767 68.4405 7.41101H62.5465C62.5932 8.02701 62.8219 8.52167 63.2325 8.89501C63.6432 9.26834 64.1472 9.45501 64.7445 9.45501C65.6032 9.45501 66.2099 9.09567 66.5645 8.37701H68.2865C68.0532 9.08634 67.6285 9.66967 67.0125 10.127C66.4059 10.575 65.6499 10.799 64.7445 10.799C64.0072 10.799 63.3445 10.6357 62.7565 10.309C62.1779 9.97301 61.7205 9.50634 61.3845 8.90901C61.0579 8.30234 60.8945 7.60234 60.8945 6.80901C60.8945 6.01567 61.0532 5.32034 61.3705 4.72301C61.6972 4.11634 62.1499 3.64967 62.7285 3.32301C63.3165 2.99634 63.9885 2.83301 64.7445 2.83301C65.4725 2.83301 66.1212 2.99167 66.6905 3.30901C67.2599 3.62634 67.7032 4.07434 68.0205 4.65301C68.3379 5.22234 68.4965 5.88034 68.4965 6.62701ZM66.8305 6.12301C66.8212 5.53501 66.6112 5.06367 66.2005 4.70901C65.7899 4.35434 65.2812 4.17701 64.6745 4.17701C64.1239 4.17701 63.6525 4.35434 63.2605 4.70901C62.8685 5.05434 62.6352 5.52567 62.5605 6.12301H66.8305Z" fill="#777E91"/>
<path d="M57.6487 4.07901C57.8821 3.68701 58.1901 3.38367 58.5727 3.16901C58.9647 2.94501 59.4267 2.83301 59.9587 2.83301V4.48501H59.5527C58.9274 4.48501 58.4514 4.64367 58.1247 4.96101C57.8074 5.27834 57.6487 5.82901 57.6487 6.61301V10.673H56.0527V2.95901H57.6487V4.07901Z" fill="#777E91"/>
<path d="M54.4829 6.62701C54.4829 6.91634 54.4642 7.17767 54.4269 7.41101H48.5329C48.5795 8.02701 48.8082 8.52167 49.2189 8.89501C49.6295 9.26834 50.1335 9.45501 50.7309 9.45501C51.5895 9.45501 52.1962 9.09567 52.5509 8.37701H54.2729C54.0395 9.08634 53.6149 9.66967 52.9989 10.127C52.3922 10.575 51.6362 10.799 50.7309 10.799C49.9935 10.799 49.3309 10.6357 48.7429 10.309C48.1642 9.97301 47.7069 9.50634 47.3709 8.90901C47.0442 8.30234 46.8809 7.60234 46.8809 6.80901C46.8809 6.01567 47.0395 5.32034 47.3569 4.72301C47.6835 4.11634 48.1362 3.64967 48.7149 3.32301C49.3029 2.99634 49.9749 2.83301 50.7309 2.83301C51.4589 2.83301 52.1075 2.99167 52.6769 3.30901C53.2462 3.62634 53.6895 4.07434 54.0069 4.65301C54.3242 5.22234 54.4829 5.88034 54.4829 6.62701ZM52.8169 6.12301C52.8075 5.53501 52.5975 5.06367 52.1869 4.70901C51.7762 4.35434 51.2675 4.17701 50.6609 4.17701C50.1102 4.17701 49.6389 4.35434 49.2469 4.70901C48.8549 5.05434 48.6215 5.52567 48.5469 6.12301H52.8169Z" fill="#777E91"/>
<path d="M42.3103 2.83348C42.8983 2.83348 43.421 2.95948 43.8783 3.21148C44.345 3.46348 44.709 3.83681 44.9703 4.33148C45.241 4.82614 45.3763 5.42348 45.3763 6.12348V10.6735H43.7943V6.36148C43.7943 5.67081 43.6216 5.14348 43.2763 4.77948C42.931 4.40614 42.4596 4.21948 41.8623 4.21948C41.265 4.21948 40.789 4.40614 40.4343 4.77948C40.089 5.14348 39.9163 5.67081 39.9163 6.36148V10.6735H38.3203V0.313477H39.9163V3.85548C40.187 3.52881 40.5276 3.27681 40.9383 3.09948C41.3583 2.92214 41.8156 2.83348 42.3103 2.83348Z" fill="#777E91"/>
<path d="M33.1137 6.62701C33.1137 6.91634 33.0951 7.17767 33.0577 7.41101H27.1637C27.2104 8.02701 27.4391 8.52167 27.8497 8.89501C28.2604 9.26834 28.7644 9.45501 29.3617 9.45501C30.2204 9.45501 30.8271 9.09567 31.1817 8.37701H32.9037C32.6704 9.08634 32.2457 9.66967 31.6297 10.127C31.0231 10.575 30.2671 10.799 29.3617 10.799C28.6244 10.799 27.9617 10.6357 27.3737 10.309C26.7951 9.97301 26.3377 9.50634 26.0017 8.90901C25.6751 8.30234 25.5117 7.60234 25.5117 6.80901C25.5117 6.01567 25.6704 5.32034 25.9877 4.72301C26.3144 4.11634 26.7671 3.64967 27.3457 3.32301C27.9337 2.99634 28.6057 2.83301 29.3617 2.83301C30.0897 2.83301 30.7384 2.99167 31.3077 3.30901C31.8771 3.62634 32.3204 4.07434 32.6377 4.65301C32.9551 5.22234 33.1137 5.88034 33.1137 6.62701ZM31.4477 6.12301C31.4384 5.53501 31.2284 5.06367 30.8177 4.70901C30.4071 4.35434 29.8984 4.17701 29.2917 4.17701C28.7411 4.17701 28.2697 4.35434 27.8777 4.70901C27.4857 5.05434 27.2524 5.52567 27.1777 6.12301H31.4477Z" fill="#777E91"/>
<path d="M18.1507 4.09301C18.4214 3.73834 18.79 3.43967 19.2567 3.19701C19.7234 2.95434 20.2507 2.83301 20.8387 2.83301C21.5107 2.83301 22.122 3.00101 22.6727 3.33701C23.2327 3.66367 23.6714 4.12567 23.9887 4.72301C24.306 5.32034 24.4647 6.00634 24.4647 6.78101C24.4647 7.55567 24.306 8.25101 23.9887 8.86701C23.6714 9.47367 23.2327 9.94967 22.6727 10.295C22.122 10.631 21.5107 10.799 20.8387 10.799C20.2507 10.799 19.728 10.6823 19.2707 10.449C18.8134 10.2063 18.44 9.90767 18.1507 9.55301V14.341H16.5547V2.95901H18.1507V4.09301ZM22.8407 6.78101C22.8407 6.24901 22.7287 5.79167 22.5047 5.40901C22.29 5.01701 22.0007 4.72301 21.6367 4.52701C21.282 4.32167 20.8994 4.21901 20.4887 4.21901C20.0874 4.21901 19.7047 4.32167 19.3407 4.52701C18.986 4.73234 18.6967 5.03101 18.4727 5.42301C18.258 5.81501 18.1507 6.27701 18.1507 6.80901C18.1507 7.34101 18.258 7.80767 18.4727 8.20901C18.6967 8.60101 18.986 8.89967 19.3407 9.10501C19.7047 9.31034 20.0874 9.41301 20.4887 9.41301C20.8994 9.41301 21.282 9.31034 21.6367 9.10501C22.0007 8.89034 22.29 8.58234 22.5047 8.18101C22.7287 7.77968 22.8407 7.31301 22.8407 6.78101Z" fill="#777E91"/>
<path d="M15.3501 2.95996L10.6181 14.3H8.96609L10.5341 10.548L7.49609 2.95996H9.27409L11.4441 8.83996L13.6981 2.95996H15.3501Z" fill="#777E91"/>
<path d="M6.79 0.943359V2.24536H4.2V10.6734H2.604V2.24536H0V0.943359H6.79Z" fill="#777E91"/>
</svg>
