<svg width="69" height="15" viewBox="0 0 69 15" fill="none" xmlns="http://www.w3.org/2000/svg">
<path d="M68.4965 6.31353C68.4965 6.60286 68.4779 6.8642 68.4405 7.09753H62.5465C62.5932 7.71353 62.8219 8.2082 63.2325 8.58153C63.6432 8.95486 64.1472 9.14153 64.7445 9.14153C65.6032 9.14153 66.2099 8.7822 66.5645 8.06353H68.2865C68.0532 8.77286 67.6285 9.3562 67.0125 9.81353C66.4059 10.2615 65.6499 10.4855 64.7445 10.4855C64.0072 10.4855 63.3445 10.3222 62.7565 9.99553C62.1779 9.65953 61.7205 9.19286 61.3845 8.59553C61.0579 7.98886 60.8945 7.28886 60.8945 6.49553C60.8945 5.7022 61.0532 5.00686 61.3705 4.40953C61.6972 3.80287 62.1499 3.3362 62.7285 3.00953C63.3165 2.68286 63.9885 2.51953 64.7445 2.51953C65.4725 2.51953 66.1212 2.6782 66.6905 2.99553C67.2599 3.31286 67.7032 3.76086 68.0205 4.33953C68.3379 4.90886 68.4965 5.56686 68.4965 6.31353ZM66.8305 5.80953C66.8212 5.22153 66.6112 4.7502 66.2005 4.39553C65.7899 4.04086 65.2812 3.86353 64.6745 3.86353C64.1239 3.86353 63.6525 4.04086 63.2605 4.39553C62.8685 4.74086 62.6352 5.2122 62.5605 5.80953H66.8305Z" fill="#777E90"/>
<path d="M57.6487 3.76553C57.8821 3.37353 58.1901 3.0702 58.5727 2.85553C58.9647 2.63153 59.4267 2.51953 59.9587 2.51953V4.17153H59.5527C58.9274 4.17153 58.4514 4.3302 58.1247 4.64753C57.8074 4.96486 57.6487 5.51553 57.6487 6.29953V10.3595H56.0527V2.64553H57.6487V3.76553Z" fill="#777E90"/>
<path d="M54.4829 6.31353C54.4829 6.60286 54.4642 6.8642 54.4269 7.09753H48.5329C48.5795 7.71353 48.8082 8.2082 49.2189 8.58153C49.6295 8.95486 50.1335 9.14153 50.7309 9.14153C51.5895 9.14153 52.1962 8.7822 52.5509 8.06353H54.2729C54.0395 8.77286 53.6149 9.3562 52.9989 9.81353C52.3922 10.2615 51.6362 10.4855 50.7309 10.4855C49.9935 10.4855 49.3309 10.3222 48.7429 9.99553C48.1642 9.65953 47.7069 9.19286 47.3709 8.59553C47.0442 7.98886 46.8809 7.28886 46.8809 6.49553C46.8809 5.7022 47.0395 5.00686 47.3569 4.40953C47.6835 3.80287 48.1362 3.3362 48.7149 3.00953C49.3029 2.68286 49.9749 2.51953 50.7309 2.51953C51.4589 2.51953 52.1075 2.6782 52.6769 2.99553C53.2462 3.31286 53.6895 3.76086 54.0069 4.33953C54.3242 4.90886 54.4829 5.56686 54.4829 6.31353ZM52.8169 5.80953C52.8075 5.22153 52.5975 4.7502 52.1869 4.39553C51.7762 4.04086 51.2675 3.86353 50.6609 3.86353C50.1102 3.86353 49.6389 4.04086 49.2469 4.39553C48.8549 4.74086 48.6215 5.2122 48.5469 5.80953H52.8169Z" fill="#777E90"/>
<path d="M42.3103 2.52C42.8983 2.52 43.421 2.646 43.8783 2.898C44.345 3.15 44.709 3.52333 44.9703 4.018C45.241 4.51267 45.3763 5.11 45.3763 5.81V10.36H43.7943V6.048C43.7943 5.35733 43.6216 4.83 43.2763 4.466C42.931 4.09267 42.4596 3.906 41.8623 3.906C41.265 3.906 40.789 4.09267 40.4343 4.466C40.089 4.83 39.9163 5.35733 39.9163 6.048V10.36H38.3203V0H39.9163V3.542C40.187 3.21533 40.5276 2.96333 40.9383 2.786C41.3583 2.60867 41.8156 2.52 42.3103 2.52Z" fill="#777E90"/>
<path d="M33.1137 6.31353C33.1137 6.60286 33.0951 6.8642 33.0577 7.09753H27.1637C27.2104 7.71353 27.4391 8.2082 27.8497 8.58153C28.2604 8.95486 28.7644 9.14153 29.3617 9.14153C30.2204 9.14153 30.8271 8.7822 31.1817 8.06353H32.9037C32.6704 8.77286 32.2457 9.3562 31.6297 9.81353C31.0231 10.2615 30.2671 10.4855 29.3617 10.4855C28.6244 10.4855 27.9617 10.3222 27.3737 9.99553C26.7951 9.65953 26.3377 9.19286 26.0017 8.59553C25.6751 7.98886 25.5117 7.28886 25.5117 6.49553C25.5117 5.7022 25.6704 5.00686 25.9877 4.40953C26.3144 3.80287 26.7671 3.3362 27.3457 3.00953C27.9337 2.68286 28.6057 2.51953 29.3617 2.51953C30.0897 2.51953 30.7384 2.6782 31.3077 2.99553C31.8771 3.31286 32.3204 3.76086 32.6377 4.33953C32.9551 4.90886 33.1137 5.56686 33.1137 6.31353ZM31.4477 5.80953C31.4384 5.22153 31.2284 4.7502 30.8177 4.39553C30.4071 4.04086 29.8984 3.86353 29.2917 3.86353C28.7411 3.86353 28.2697 4.04086 27.8777 4.39553C27.4857 4.74086 27.2524 5.2122 27.1777 5.80953H31.4477Z" fill="#777E90"/>
<path d="M18.1507 3.77953C18.4214 3.42486 18.79 3.1262 19.2567 2.88353C19.7234 2.64086 20.2507 2.51953 20.8387 2.51953C21.5107 2.51953 22.122 2.68753 22.6727 3.02353C23.2327 3.3502 23.6714 3.8122 23.9887 4.40953C24.306 5.00686 24.4647 5.69286 24.4647 6.46753C24.4647 7.2422 24.306 7.93753 23.9887 8.55353C23.6714 9.1602 23.2327 9.6362 22.6727 9.98153C22.122 10.3175 21.5107 10.4855 20.8387 10.4855C20.2507 10.4855 19.728 10.3689 19.2707 10.1355C18.8134 9.89286 18.44 9.5942 18.1507 9.23953V14.0275H16.5547V2.64553H18.1507V3.77953ZM22.8407 6.46753C22.8407 5.93553 22.7287 5.4782 22.5047 5.09553C22.29 4.70353 22.0007 4.40953 21.6367 4.21353C21.282 4.0082 20.8994 3.90553 20.4887 3.90553C20.0874 3.90553 19.7047 4.0082 19.3407 4.21353C18.986 4.41886 18.6967 4.71753 18.4727 5.10953C18.258 5.50153 18.1507 5.96353 18.1507 6.49553C18.1507 7.02753 18.258 7.4942 18.4727 7.89553C18.6967 8.28753 18.986 8.5862 19.3407 8.79153C19.7047 8.99686 20.0874 9.09953 20.4887 9.09953C20.8994 9.09953 21.282 8.99686 21.6367 8.79153C22.0007 8.57686 22.29 8.26887 22.5047 7.86753C22.7287 7.4662 22.8407 6.99953 22.8407 6.46753Z" fill="#777E90"/>
<path d="M15.3501 2.64648L10.6181 13.9865H8.96609L10.5341 10.2345L7.49609 2.64648H9.27409L11.4441 8.52648L13.6981 2.64648H15.3501Z" fill="#777E90"/>
<path d="M6.79 0.629883V1.93188H4.2V10.3599H2.604V1.93188H0V0.629883H6.79Z" fill="#777E90"/>
</svg>
