<svg width="69" height="15" viewBox="0 0 69 15" fill="none" xmlns="http://www.w3.org/2000/svg">
<path d="M68.4956 6.9688C68.4956 7.25814 68.4769 7.51947 68.4396 7.7528H62.5456C62.5922 8.3688 62.8209 8.86347 63.2316 9.2368C63.6422 9.61014 64.1462 9.7968 64.7436 9.7968C65.6022 9.7968 66.2089 9.43747 66.5636 8.7188H68.2856C68.0522 9.42814 67.6276 10.0115 67.0116 10.4688C66.4049 10.9168 65.6489 11.1408 64.7436 11.1408C64.0062 11.1408 63.3436 10.9775 62.7556 10.6508C62.1769 10.3148 61.7196 9.84814 61.3836 9.2508C61.0569 8.64414 60.8936 7.94414 60.8936 7.1508C60.8936 6.35747 61.0522 5.66214 61.3696 5.06481C61.6962 4.45814 62.1489 3.99147 62.7276 3.6648C63.3156 3.33814 63.9876 3.1748 64.7436 3.1748C65.4716 3.1748 66.1202 3.33347 66.6896 3.6508C67.2589 3.96814 67.7022 4.41614 68.0196 4.9948C68.3369 5.56414 68.4956 6.22214 68.4956 6.9688ZM66.8296 6.4648C66.8202 5.8768 66.6102 5.40547 66.1996 5.0508C65.7889 4.69614 65.2802 4.5188 64.6735 4.5188C64.1229 4.5188 63.6516 4.69614 63.2596 5.0508C62.8676 5.39614 62.6342 5.86747 62.5596 6.4648H66.8296Z" fill="#777E90"/>
<path d="M57.6487 4.4208C57.8821 4.02881 58.1901 3.72547 58.5727 3.51081C58.9647 3.28681 59.4267 3.1748 59.9587 3.1748V4.8268H59.5527C58.9274 4.8268 58.4514 4.98547 58.1247 5.3028C57.8074 5.62014 57.6487 6.1708 57.6487 6.9548V11.0148H56.0527V3.30081H57.6487V4.4208Z" fill="#777E90"/>
<path d="M54.4819 6.9688C54.4819 7.25814 54.4632 7.51947 54.4259 7.7528H48.5319C48.5785 8.3688 48.8072 8.86347 49.2179 9.2368C49.6285 9.61014 50.1325 9.7968 50.7299 9.7968C51.5885 9.7968 52.1952 9.43747 52.5499 8.7188H54.2719C54.0385 9.42814 53.6139 10.0115 52.9979 10.4688C52.3912 10.9168 51.6352 11.1408 50.7299 11.1408C49.9925 11.1408 49.3299 10.9775 48.7419 10.6508C48.1632 10.3148 47.7059 9.84814 47.3699 9.2508C47.0432 8.64414 46.8799 7.94414 46.8799 7.1508C46.8799 6.35747 47.0385 5.66214 47.3559 5.06481C47.6825 4.45814 48.1352 3.99147 48.7139 3.6648C49.3019 3.33814 49.9739 3.1748 50.7299 3.1748C51.4579 3.1748 52.1065 3.33347 52.6759 3.6508C53.2452 3.96814 53.6885 4.41614 54.0059 4.9948C54.3232 5.56414 54.4819 6.22214 54.4819 6.9688ZM52.8159 6.4648C52.8065 5.8768 52.5965 5.40547 52.1859 5.0508C51.7752 4.69614 51.2665 4.5188 50.6599 4.5188C50.1092 4.5188 49.6379 4.69614 49.2459 5.0508C48.8539 5.39614 48.6205 5.86747 48.5459 6.4648H52.8159Z" fill="#777E90"/>
<path d="M42.3103 3.17527C42.8983 3.17527 43.421 3.30127 43.8783 3.55327C44.345 3.80527 44.709 4.17861 44.9703 4.67327C45.241 5.16794 45.3763 5.76527 45.3763 6.46527V11.0153H43.7943V6.70327C43.7943 6.01261 43.6216 5.48527 43.2763 5.12127C42.931 4.74794 42.4596 4.56127 41.8623 4.56127C41.265 4.56127 40.789 4.74794 40.4343 5.12127C40.089 5.48527 39.9163 6.01261 39.9163 6.70327V11.0153H38.3203V0.655273H39.9163V4.19727C40.187 3.87061 40.5276 3.61861 40.9383 3.44127C41.3583 3.26394 41.8156 3.17527 42.3103 3.17527Z" fill="#777E90"/>
<path d="M33.1127 6.9688C33.1127 7.25814 33.0941 7.51947 33.0567 7.7528H27.1627C27.2094 8.3688 27.4381 8.86347 27.8487 9.2368C28.2594 9.61014 28.7634 9.7968 29.3607 9.7968C30.2194 9.7968 30.8261 9.43747 31.1807 8.7188H32.9027C32.6694 9.42814 32.2447 10.0115 31.6287 10.4688C31.0221 10.9168 30.2661 11.1408 29.3607 11.1408C28.6234 11.1408 27.9607 10.9775 27.3727 10.6508C26.7941 10.3148 26.3367 9.84814 26.0007 9.2508C25.6741 8.64414 25.5107 7.94414 25.5107 7.1508C25.5107 6.35747 25.6694 5.66214 25.9867 5.06481C26.3134 4.45814 26.7661 3.99147 27.3447 3.6648C27.9327 3.33814 28.6047 3.1748 29.3607 3.1748C30.0887 3.1748 30.7374 3.33347 31.3067 3.6508C31.8761 3.96814 32.3194 4.41614 32.6367 4.9948C32.9541 5.56414 33.1127 6.22214 33.1127 6.9688ZM31.4467 6.4648C31.4374 5.8768 31.2274 5.40547 30.8167 5.0508C30.4061 4.69614 29.8974 4.5188 29.2907 4.5188C28.7401 4.5188 28.2687 4.69614 27.8767 5.0508C27.4847 5.39614 27.2514 5.86747 27.1767 6.4648H31.4467Z" fill="#777E90"/>
<path d="M18.1507 4.4348C18.4214 4.08014 18.79 3.78147 19.2567 3.5388C19.7234 3.29614 20.2507 3.1748 20.8387 3.1748C21.5107 3.1748 22.122 3.3428 22.6727 3.6788C23.2327 4.00547 23.6714 4.46747 23.9887 5.06481C24.306 5.66214 24.4647 6.34814 24.4647 7.1228C24.4647 7.89747 24.306 8.5928 23.9887 9.20881C23.6714 9.81547 23.2327 10.2915 22.6727 10.6368C22.122 10.9728 21.5107 11.1408 20.8387 11.1408C20.2507 11.1408 19.728 11.0241 19.2707 10.7908C18.8134 10.5481 18.44 10.2495 18.1507 9.8948V14.6828H16.5547V3.30081H18.1507V4.4348ZM22.8407 7.1228C22.8407 6.5908 22.7287 6.13347 22.5047 5.7508C22.29 5.3588 22.0007 5.0648 21.6367 4.8688C21.282 4.66347 20.8994 4.5608 20.4887 4.5608C20.0874 4.5608 19.7047 4.66347 19.3407 4.8688C18.986 5.07414 18.6967 5.3728 18.4727 5.7648C18.258 6.15681 18.1507 6.6188 18.1507 7.1508C18.1507 7.6828 18.258 8.14947 18.4727 8.55081C18.6967 8.94281 18.986 9.24147 19.3407 9.44681C19.7047 9.65214 20.0874 9.7548 20.4887 9.7548C20.8994 9.7548 21.282 9.65214 21.6367 9.44681C22.0007 9.23214 22.29 8.92414 22.5047 8.52281C22.7287 8.12147 22.8407 7.6548 22.8407 7.1228Z" fill="#777E90"/>
<path d="M15.3501 3.30176L10.6181 14.6418H8.96609L10.5341 10.8898L7.49609 3.30176H9.27409L11.4441 9.18176L13.6981 3.30176H15.3501Z" fill="#777E90"/>
<path d="M6.79 1.28516V2.58716H4.2V11.0152H2.604V2.58716H0V1.28516H6.79Z" fill="#777E90"/>
</svg>
