<svg width="69" height="15" viewBox="0 0 69 15" fill="none" xmlns="http://www.w3.org/2000/svg">
<path d="M68.9965 6.60845C68.9965 6.89779 68.9779 7.15912 68.9405 7.39245H63.0465C63.0932 8.00845 63.3219 8.50312 63.7325 8.87645C64.1432 9.24979 64.6472 9.43645 65.2445 9.43645C66.1032 9.43645 66.7099 9.07712 67.0645 8.35845H68.7865C68.5532 9.06779 68.1285 9.65112 67.5125 10.1085C66.9059 10.5565 66.1499 10.7805 65.2445 10.7805C64.5072 10.7805 63.8445 10.6171 63.2565 10.2905C62.6779 9.95445 62.2205 9.48779 61.8845 8.89045C61.5579 8.28379 61.3945 7.58379 61.3945 6.79045C61.3945 5.99712 61.5532 5.30179 61.8705 4.70445C62.1972 4.09779 62.6499 3.63112 63.2285 3.30445C63.8165 2.97779 64.4885 2.81445 65.2445 2.81445C65.9725 2.81445 66.6212 2.97312 67.1905 3.29045C67.7599 3.60779 68.2032 4.05579 68.5205 4.63445C68.8379 5.20379 68.9965 5.86179 68.9965 6.60845ZM67.3305 6.10445C67.3212 5.51645 67.1112 5.04512 66.7005 4.69045C66.2899 4.33579 65.7812 4.15845 65.1745 4.15845C64.6239 4.15845 64.1525 4.33579 63.7605 4.69045C63.3685 5.03579 63.1352 5.50712 63.0605 6.10445H67.3305Z" fill="#777E91"/>
<path d="M58.1487 4.06045C58.3821 3.66845 58.6901 3.36512 59.0727 3.15045C59.4647 2.92645 59.9267 2.81445 60.4587 2.81445V4.46645H60.0527C59.4274 4.46645 58.9514 4.62512 58.6247 4.94245C58.3074 5.25979 58.1487 5.81045 58.1487 6.59445V10.6545H56.5527V2.94045H58.1487V4.06045Z" fill="#777E91"/>
<path d="M54.9829 6.60845C54.9829 6.89779 54.9642 7.15912 54.9269 7.39245H49.0329C49.0795 8.00845 49.3082 8.50312 49.7189 8.87645C50.1295 9.24979 50.6335 9.43645 51.2309 9.43645C52.0895 9.43645 52.6962 9.07712 53.0509 8.35845H54.7729C54.5395 9.06779 54.1149 9.65112 53.4989 10.1085C52.8922 10.5565 52.1362 10.7805 51.2309 10.7805C50.4935 10.7805 49.8309 10.6171 49.2429 10.2905C48.6642 9.95445 48.2069 9.48779 47.8709 8.89045C47.5442 8.28379 47.3809 7.58379 47.3809 6.79045C47.3809 5.99712 47.5395 5.30179 47.8569 4.70445C48.1835 4.09779 48.6362 3.63112 49.2149 3.30445C49.8029 2.97779 50.4749 2.81445 51.2309 2.81445C51.9589 2.81445 52.6075 2.97312 53.1769 3.29045C53.7462 3.60779 54.1895 4.05579 54.5069 4.63445C54.8242 5.20379 54.9829 5.86179 54.9829 6.60845ZM53.3169 6.10445C53.3075 5.51645 53.0975 5.04512 52.6869 4.69045C52.2762 4.33579 51.7675 4.15845 51.1609 4.15845C50.6102 4.15845 50.1389 4.33579 49.7469 4.69045C49.3549 5.03579 49.1215 5.50712 49.0469 6.10445H53.3169Z" fill="#777E91"/>
<path d="M42.8103 2.81492C43.3983 2.81492 43.921 2.94092 44.3783 3.19292C44.845 3.44492 45.209 3.81826 45.4703 4.31292C45.741 4.80759 45.8763 5.40492 45.8763 6.10492V10.6549H44.2943V6.34292C44.2943 5.65226 44.1216 5.12492 43.7763 4.76092C43.431 4.38759 42.9596 4.20092 42.3623 4.20092C41.765 4.20092 41.289 4.38759 40.9343 4.76092C40.589 5.12492 40.4163 5.65226 40.4163 6.34292V10.6549H38.8203V0.294922H40.4163V3.83692C40.687 3.51026 41.0276 3.25825 41.4383 3.08092C41.8583 2.90359 42.3156 2.81492 42.8103 2.81492Z" fill="#777E91"/>
<path d="M33.6137 6.60845C33.6137 6.89779 33.5951 7.15912 33.5577 7.39245H27.6637C27.7104 8.00845 27.9391 8.50312 28.3497 8.87645C28.7604 9.24979 29.2644 9.43645 29.8617 9.43645C30.7204 9.43645 31.3271 9.07712 31.6817 8.35845H33.4037C33.1704 9.06779 32.7457 9.65112 32.1297 10.1085C31.5231 10.5565 30.7671 10.7805 29.8617 10.7805C29.1244 10.7805 28.4617 10.6171 27.8737 10.2905C27.2951 9.95445 26.8377 9.48779 26.5017 8.89045C26.1751 8.28379 26.0117 7.58379 26.0117 6.79045C26.0117 5.99712 26.1704 5.30179 26.4877 4.70445C26.8144 4.09779 27.2671 3.63112 27.8457 3.30445C28.4337 2.97779 29.1057 2.81445 29.8617 2.81445C30.5897 2.81445 31.2384 2.97312 31.8077 3.29045C32.3771 3.60779 32.8204 4.05579 33.1377 4.63445C33.4551 5.20379 33.6137 5.86179 33.6137 6.60845ZM31.9477 6.10445C31.9384 5.51645 31.7284 5.04512 31.3177 4.69045C30.9071 4.33579 30.3984 4.15845 29.7917 4.15845C29.2411 4.15845 28.7697 4.33579 28.3777 4.69045C27.9857 5.03579 27.7524 5.50712 27.6777 6.10445H31.9477Z" fill="#777E91"/>
<path d="M18.6507 4.07445C18.9214 3.71979 19.29 3.42112 19.7567 3.17845C20.2234 2.93579 20.7507 2.81445 21.3387 2.81445C22.0107 2.81445 22.622 2.98245 23.1727 3.31845C23.7327 3.64512 24.1714 4.10712 24.4887 4.70445C24.806 5.30179 24.9647 5.98779 24.9647 6.76245C24.9647 7.53712 24.806 8.23245 24.4887 8.84845C24.1714 9.45512 23.7327 9.93112 23.1727 10.2765C22.622 10.6125 22.0107 10.7805 21.3387 10.7805C20.7507 10.7805 20.228 10.6638 19.7707 10.4305C19.3134 10.1878 18.94 9.88912 18.6507 9.53445V14.3225H17.0547V2.94045H18.6507V4.07445ZM23.3407 6.76245C23.3407 6.23045 23.2287 5.77312 23.0047 5.39045C22.79 4.99845 22.5007 4.70445 22.1367 4.50845C21.782 4.30312 21.3994 4.20045 20.9887 4.20045C20.5874 4.20045 20.2047 4.30312 19.8407 4.50845C19.486 4.71379 19.1967 5.01245 18.9727 5.40445C18.758 5.79645 18.6507 6.25845 18.6507 6.79045C18.6507 7.32245 18.758 7.78912 18.9727 8.19045C19.1967 8.58245 19.486 8.88112 19.8407 9.08645C20.2047 9.29179 20.5874 9.39445 20.9887 9.39445C21.3994 9.39445 21.782 9.29179 22.1367 9.08645C22.5007 8.87179 22.79 8.56379 23.0047 8.16245C23.2287 7.76112 23.3407 7.29445 23.3407 6.76245Z" fill="#777E91"/>
<path d="M15.8501 2.94141L11.1181 14.2814H9.46609L11.0341 10.5294L7.99609 2.94141H9.77409L11.9441 8.82141L14.1981 2.94141H15.8501Z" fill="#777E91"/>
<path d="M7.29 0.924805V2.2268H4.7V10.6548H3.104V2.2268H0.5V0.924805H7.29Z" fill="#777E91"/>
</svg>
