<svg width="69" height="15" viewBox="0 0 69 15" fill="none" xmlns="http://www.w3.org/2000/svg">
<path d="M68.9965 6.98052C68.9965 7.26986 68.9779 7.53119 68.9405 7.76452H63.0465C63.0932 8.38052 63.3219 8.87519 63.7325 9.24852C64.1432 9.62186 64.6472 9.80852 65.2445 9.80852C66.1032 9.80852 66.7099 9.44919 67.0645 8.73052H68.7865C68.5532 9.43986 68.1285 10.0232 67.5125 10.4805C66.9059 10.9285 66.1499 11.1525 65.2445 11.1525C64.5072 11.1525 63.8445 10.9892 63.2565 10.6625C62.6779 10.3265 62.2205 9.85986 61.8845 9.26252C61.5579 8.65586 61.3945 7.95586 61.3945 7.16252C61.3945 6.36919 61.5532 5.67386 61.8705 5.07652C62.1972 4.46986 62.6499 4.00319 63.2285 3.67652C63.8165 3.34986 64.4885 3.18652 65.2445 3.18652C65.9725 3.18652 66.6212 3.34519 67.1905 3.66252C67.7599 3.97986 68.2032 4.42786 68.5205 5.00652C68.8379 5.57586 68.9965 6.23386 68.9965 6.98052ZM67.3305 6.47652C67.3212 5.88852 67.1112 5.41719 66.7005 5.06252C66.2899 4.70786 65.7812 4.53052 65.1745 4.53052C64.6239 4.53052 64.1525 4.70786 63.7605 5.06252C63.3685 5.40786 63.1352 5.87919 63.0605 6.47652H67.3305Z" fill="#777E90"/>
<path d="M58.1487 4.43252C58.3821 4.04052 58.6901 3.73719 59.0727 3.52252C59.4647 3.29852 59.9267 3.18652 60.4587 3.18652V4.83852H60.0527C59.4274 4.83852 58.9514 4.99719 58.6247 5.31452C58.3074 5.63186 58.1487 6.18252 58.1487 6.96652V11.0265H56.5527V3.31252H58.1487V4.43252Z" fill="#777E90"/>
<path d="M54.9829 6.98052C54.9829 7.26986 54.9642 7.53119 54.9269 7.76452H49.0329C49.0795 8.38052 49.3082 8.87519 49.7189 9.24852C50.1295 9.62186 50.6335 9.80852 51.2309 9.80852C52.0895 9.80852 52.6962 9.44919 53.0509 8.73052H54.7729C54.5395 9.43986 54.1149 10.0232 53.4989 10.4805C52.8922 10.9285 52.1362 11.1525 51.2309 11.1525C50.4935 11.1525 49.8309 10.9892 49.2429 10.6625C48.6642 10.3265 48.2069 9.85986 47.8709 9.26252C47.5442 8.65586 47.3809 7.95586 47.3809 7.16252C47.3809 6.36919 47.5395 5.67386 47.8569 5.07652C48.1835 4.46986 48.6362 4.00319 49.2149 3.67652C49.8029 3.34986 50.4749 3.18652 51.2309 3.18652C51.9589 3.18652 52.6075 3.34519 53.1769 3.66252C53.7462 3.97986 54.1895 4.42786 54.5069 5.00652C54.8242 5.57586 54.9829 6.23386 54.9829 6.98052ZM53.3169 6.47652C53.3075 5.88852 53.0975 5.41719 52.6869 5.06252C52.2762 4.70786 51.7675 4.53052 51.1609 4.53052C50.6102 4.53052 50.1389 4.70786 49.7469 5.06252C49.3549 5.40786 49.1215 5.87919 49.0469 6.47652H53.3169Z" fill="#777E90"/>
<path d="M42.8103 3.18699C43.3983 3.18699 43.921 3.31299 44.3783 3.56499C44.845 3.81699 45.209 4.19033 45.4703 4.68499C45.741 5.17966 45.8763 5.77699 45.8763 6.47699V11.027H44.2943V6.71499C44.2943 6.02433 44.1216 5.49699 43.7763 5.13299C43.431 4.75966 42.9596 4.57299 42.3623 4.57299C41.765 4.57299 41.289 4.75966 40.9343 5.13299C40.589 5.49699 40.4163 6.02433 40.4163 6.71499V11.027H38.8203V0.666992H40.4163V4.20899C40.687 3.88233 41.0276 3.63033 41.4383 3.45299C41.8583 3.27566 42.3156 3.18699 42.8103 3.18699Z" fill="#777E90"/>
<path d="M33.6137 6.98052C33.6137 7.26986 33.5951 7.53119 33.5577 7.76452H27.6637C27.7104 8.38052 27.9391 8.87519 28.3497 9.24852C28.7604 9.62186 29.2644 9.80852 29.8617 9.80852C30.7204 9.80852 31.3271 9.44919 31.6817 8.73052H33.4037C33.1704 9.43986 32.7457 10.0232 32.1297 10.4805C31.5231 10.9285 30.7671 11.1525 29.8617 11.1525C29.1244 11.1525 28.4617 10.9892 27.8737 10.6625C27.2951 10.3265 26.8377 9.85986 26.5017 9.26252C26.1751 8.65586 26.0117 7.95586 26.0117 7.16252C26.0117 6.36919 26.1704 5.67386 26.4877 5.07652C26.8144 4.46986 27.2671 4.00319 27.8457 3.67652C28.4337 3.34986 29.1057 3.18652 29.8617 3.18652C30.5897 3.18652 31.2384 3.34519 31.8077 3.66252C32.3771 3.97986 32.8204 4.42786 33.1377 5.00652C33.4551 5.57586 33.6137 6.23386 33.6137 6.98052ZM31.9477 6.47652C31.9384 5.88852 31.7284 5.41719 31.3177 5.06252C30.9071 4.70786 30.3984 4.53052 29.7917 4.53052C29.2411 4.53052 28.7697 4.70786 28.3777 5.06252C27.9857 5.40786 27.7524 5.87919 27.6777 6.47652H31.9477Z" fill="#777E90"/>
<path d="M18.6507 4.44652C18.9214 4.09186 19.29 3.79319 19.7567 3.55052C20.2234 3.30786 20.7507 3.18652 21.3387 3.18652C22.0107 3.18652 22.622 3.35452 23.1727 3.69052C23.7327 4.01719 24.1714 4.47919 24.4887 5.07652C24.806 5.67386 24.9647 6.35986 24.9647 7.13452C24.9647 7.90919 24.806 8.60452 24.4887 9.22052C24.1714 9.82719 23.7327 10.3032 23.1727 10.6485C22.622 10.9845 22.0107 11.1525 21.3387 11.1525C20.7507 11.1525 20.228 11.0359 19.7707 10.8025C19.3134 10.5599 18.94 10.2612 18.6507 9.90652V14.6945H17.0547V3.31252H18.6507V4.44652ZM23.3407 7.13452C23.3407 6.60252 23.2287 6.14519 23.0047 5.76252C22.79 5.37052 22.5007 5.07652 22.1367 4.88052C21.782 4.67519 21.3994 4.57252 20.9887 4.57252C20.5874 4.57252 20.2047 4.67519 19.8407 4.88052C19.486 5.08586 19.1967 5.38452 18.9727 5.77652C18.758 6.16852 18.6507 6.63052 18.6507 7.16252C18.6507 7.69452 18.758 8.16119 18.9727 8.56252C19.1967 8.95452 19.486 9.25319 19.8407 9.45852C20.2047 9.66386 20.5874 9.76652 20.9887 9.76652C21.3994 9.76652 21.782 9.66386 22.1367 9.45852C22.5007 9.24386 22.79 8.93586 23.0047 8.53452C23.2287 8.13319 23.3407 7.66652 23.3407 7.13452Z" fill="#777E90"/>
<path d="M15.8501 3.31348L11.1181 14.6535H9.46609L11.0341 10.9015L7.99609 3.31348H9.77409L11.9441 9.19348L14.1981 3.31348H15.8501Z" fill="#777E90"/>
<path d="M7.29 1.29688V2.59888H4.7V11.0269H3.104V2.59888H0.5V1.29688H7.29Z" fill="#777E90"/>
</svg>
