<svg width="69" height="15" viewBox="0 0 69 15" fill="none" xmlns="http://www.w3.org/2000/svg">
<path d="M68.9965 6.34087C68.9965 6.63021 68.9779 6.89154 68.9405 7.12488H63.0465C63.0932 7.74088 63.3219 8.23554 63.7325 8.60888C64.1432 8.98221 64.6472 9.16887 65.2445 9.16887C66.1032 9.16887 66.7099 8.80954 67.0645 8.09087H68.7865C68.5532 8.80021 68.1285 9.38354 67.5125 9.84088C66.9059 10.2889 66.1499 10.5129 65.2445 10.5129C64.5072 10.5129 63.8445 10.3495 63.2565 10.0229C62.6779 9.68687 62.2205 9.22021 61.8845 8.62288C61.5579 8.01621 61.3945 7.31621 61.3945 6.52287C61.3945 5.72954 61.5532 5.03421 61.8705 4.43688C62.1972 3.83021 62.6499 3.36354 63.2285 3.03687C63.8165 2.71021 64.4885 2.54688 65.2445 2.54688C65.9725 2.54688 66.6212 2.70554 67.1905 3.02287C67.7599 3.34021 68.2032 3.78821 68.5205 4.36687C68.8379 4.93621 68.9965 5.59421 68.9965 6.34087ZM67.3305 5.83687C67.3212 5.24888 67.1112 4.77754 66.7005 4.42287C66.2899 4.06821 65.7812 3.89087 65.1745 3.89087C64.6239 3.89087 64.1525 4.06821 63.7605 4.42287C63.3685 4.76821 63.1352 5.23954 63.0605 5.83687H67.3305Z" fill="#777E91"/>
<path d="M58.1487 3.79288C58.3821 3.40088 58.6901 3.09754 59.0727 2.88288C59.4647 2.65888 59.9267 2.54688 60.4587 2.54688V4.19887H60.0527C59.4274 4.19887 58.9514 4.35754 58.6247 4.67488C58.3074 4.99221 58.1487 5.54287 58.1487 6.32687V10.3869H56.5527V2.67288H58.1487V3.79288Z" fill="#777E91"/>
<path d="M54.9829 6.34087C54.9829 6.63021 54.9642 6.89154 54.9269 7.12488H49.0329C49.0795 7.74088 49.3082 8.23554 49.7189 8.60888C50.1295 8.98221 50.6335 9.16887 51.2309 9.16887C52.0895 9.16887 52.6962 8.80954 53.0509 8.09087H54.7729C54.5395 8.80021 54.1149 9.38354 53.4989 9.84088C52.8922 10.2889 52.1362 10.5129 51.2309 10.5129C50.4935 10.5129 49.8309 10.3495 49.2429 10.0229C48.6642 9.68687 48.2069 9.22021 47.8709 8.62288C47.5442 8.01621 47.3809 7.31621 47.3809 6.52287C47.3809 5.72954 47.5395 5.03421 47.8569 4.43688C48.1835 3.83021 48.6362 3.36354 49.2149 3.03687C49.8029 2.71021 50.4749 2.54688 51.2309 2.54688C51.9589 2.54688 52.6075 2.70554 53.1769 3.02287C53.7462 3.34021 54.1895 3.78821 54.5069 4.36687C54.8242 4.93621 54.9829 5.59421 54.9829 6.34087ZM53.3169 5.83687C53.3075 5.24888 53.0975 4.77754 52.6869 4.42287C52.2762 4.06821 51.7675 3.89087 51.1609 3.89087C50.6102 3.89087 50.1389 4.06821 49.7469 4.42287C49.3549 4.76821 49.1215 5.23954 49.0469 5.83687H53.3169Z" fill="#777E91"/>
<path d="M42.8103 2.54734C43.3983 2.54734 43.921 2.67334 44.3783 2.92534C44.845 3.17734 45.209 3.55068 45.4703 4.04534C45.741 4.54001 45.8763 5.13734 45.8763 5.83734V10.3873H44.2943V6.07534C44.2943 5.38468 44.1216 4.85734 43.7763 4.49334C43.431 4.12001 42.9596 3.93334 42.3623 3.93334C41.765 3.93334 41.289 4.12001 40.9343 4.49334C40.589 4.85734 40.4163 5.38468 40.4163 6.07534V10.3873H38.8203V0.0273438H40.4163V3.56934C40.687 3.24268 41.0276 2.99068 41.4383 2.81334C41.8583 2.63601 42.3156 2.54734 42.8103 2.54734Z" fill="#777E91"/>
<path d="M33.6137 6.34087C33.6137 6.63021 33.5951 6.89154 33.5577 7.12488H27.6637C27.7104 7.74088 27.9391 8.23554 28.3497 8.60888C28.7604 8.98221 29.2644 9.16887 29.8617 9.16887C30.7204 9.16887 31.3271 8.80954 31.6817 8.09087H33.4037C33.1704 8.80021 32.7457 9.38354 32.1297 9.84088C31.5231 10.2889 30.7671 10.5129 29.8617 10.5129C29.1244 10.5129 28.4617 10.3495 27.8737 10.0229C27.2951 9.68687 26.8377 9.22021 26.5017 8.62288C26.1751 8.01621 26.0117 7.31621 26.0117 6.52287C26.0117 5.72954 26.1704 5.03421 26.4877 4.43688C26.8144 3.83021 27.2671 3.36354 27.8457 3.03687C28.4337 2.71021 29.1057 2.54688 29.8617 2.54688C30.5897 2.54688 31.2384 2.70554 31.8077 3.02287C32.3771 3.34021 32.8204 3.78821 33.1377 4.36687C33.4551 4.93621 33.6137 5.59421 33.6137 6.34087ZM31.9477 5.83687C31.9384 5.24888 31.7284 4.77754 31.3177 4.42287C30.9071 4.06821 30.3984 3.89087 29.7917 3.89087C29.2411 3.89087 28.7697 4.06821 28.3777 4.42287C27.9857 4.76821 27.7524 5.23954 27.6777 5.83687H31.9477Z" fill="#777E91"/>
<path d="M18.6507 3.80688C18.9214 3.45221 19.29 3.15354 19.7567 2.91087C20.2234 2.66821 20.7507 2.54688 21.3387 2.54688C22.0107 2.54688 22.622 2.71488 23.1727 3.05087C23.7327 3.37754 24.1714 3.83954 24.4887 4.43688C24.806 5.03421 24.9647 5.72021 24.9647 6.49487C24.9647 7.26954 24.806 7.96488 24.4887 8.58088C24.1714 9.18754 23.7327 9.66354 23.1727 10.0089C22.622 10.3449 22.0107 10.5129 21.3387 10.5129C20.7507 10.5129 20.228 10.3962 19.7707 10.1629C19.3134 9.92021 18.94 9.62154 18.6507 9.26688V14.0549H17.0547V2.67288H18.6507V3.80688ZM23.3407 6.49487C23.3407 5.96288 23.2287 5.50554 23.0047 5.12288C22.79 4.73088 22.5007 4.43688 22.1367 4.24088C21.782 4.03554 21.3994 3.93287 20.9887 3.93287C20.5874 3.93287 20.2047 4.03554 19.8407 4.24088C19.486 4.44621 19.1967 4.74488 18.9727 5.13688C18.758 5.52888 18.6507 5.99088 18.6507 6.52287C18.6507 7.05487 18.758 7.52154 18.9727 7.92288C19.1967 8.31488 19.486 8.61354 19.8407 8.81888C20.2047 9.02421 20.5874 9.12687 20.9887 9.12687C21.3994 9.12687 21.782 9.02421 22.1367 8.81888C22.5007 8.60421 22.79 8.29621 23.0047 7.89488C23.2287 7.49354 23.3407 7.02688 23.3407 6.49487Z" fill="#777E91"/>
<path d="M15.8501 2.67383L11.1181 14.0138H9.46609L11.0341 10.2618L7.99609 2.67383H9.77409L11.9441 8.55383L14.1981 2.67383H15.8501Z" fill="#777E91"/>
<path d="M7.29 0.657227V1.95923H4.7V10.3872H3.104V1.95923H0.5V0.657227H7.29Z" fill="#777E91"/>
</svg>
