<svg width="69" height="15" viewBox="0 0 69 15" fill="none" xmlns="http://www.w3.org/2000/svg">
<path d="M68.4965 6.31402C68.4965 6.60335 68.4779 6.86469 68.4405 7.09802H62.5465C62.5932 7.71402 62.8219 8.20869 63.2325 8.58202C63.6432 8.95535 64.1472 9.14202 64.7445 9.14202C65.6032 9.14202 66.2099 8.78269 66.5645 8.06402H68.2865C68.0532 8.77335 67.6285 9.35669 67.0125 9.81402C66.4059 10.262 65.6499 10.486 64.7445 10.486C64.0072 10.486 63.3445 10.3227 62.7565 9.99602C62.1779 9.66002 61.7205 9.19335 61.3845 8.59602C61.0579 7.98935 60.8945 7.28935 60.8945 6.49602C60.8945 5.70269 61.0532 5.00735 61.3705 4.41002C61.6972 3.80335 62.1499 3.33669 62.7285 3.01002C63.3165 2.68335 63.9885 2.52002 64.7445 2.52002C65.4725 2.52002 66.1212 2.67869 66.6905 2.99602C67.2599 3.31335 67.7032 3.76135 68.0205 4.34002C68.3379 4.90935 68.4965 5.56735 68.4965 6.31402ZM66.8305 5.81002C66.8212 5.22202 66.6112 4.75069 66.2005 4.39602C65.7899 4.04135 65.2812 3.86402 64.6745 3.86402C64.1239 3.86402 63.6525 4.04135 63.2605 4.39602C62.8685 4.74135 62.6352 5.21269 62.5605 5.81002H66.8305Z" fill="#777E91"/>
<path d="M57.6487 3.76602C57.8821 3.37402 58.1901 3.07069 58.5727 2.85602C58.9647 2.63202 59.4267 2.52002 59.9587 2.52002V4.17202H59.5527C58.9274 4.17202 58.4514 4.33069 58.1247 4.64802C57.8074 4.96535 57.6487 5.51602 57.6487 6.30002V10.36H56.0527V2.64602H57.6487V3.76602Z" fill="#777E91"/>
<path d="M54.4829 6.31402C54.4829 6.60335 54.4642 6.86469 54.4269 7.09802H48.5329C48.5795 7.71402 48.8082 8.20869 49.2189 8.58202C49.6295 8.95535 50.1335 9.14202 50.7309 9.14202C51.5895 9.14202 52.1962 8.78269 52.5509 8.06402H54.2729C54.0395 8.77335 53.6149 9.35669 52.9989 9.81402C52.3922 10.262 51.6362 10.486 50.7309 10.486C49.9935 10.486 49.3309 10.3227 48.7429 9.99602C48.1642 9.66002 47.7069 9.19335 47.3709 8.59602C47.0442 7.98935 46.8809 7.28935 46.8809 6.49602C46.8809 5.70269 47.0395 5.00735 47.3569 4.41002C47.6835 3.80335 48.1362 3.33669 48.7149 3.01002C49.3029 2.68335 49.9749 2.52002 50.7309 2.52002C51.4589 2.52002 52.1075 2.67869 52.6769 2.99602C53.2462 3.31335 53.6895 3.76135 54.0069 4.34002C54.3242 4.90935 54.4829 5.56735 54.4829 6.31402ZM52.8169 5.81002C52.8075 5.22202 52.5975 4.75069 52.1869 4.39602C51.7762 4.04135 51.2675 3.86402 50.6609 3.86402C50.1102 3.86402 49.6389 4.04135 49.2469 4.39602C48.8549 4.74135 48.6215 5.21269 48.5469 5.81002H52.8169Z" fill="#777E91"/>
<path d="M42.3103 2.52C42.8983 2.52 43.421 2.646 43.8783 2.898C44.345 3.15 44.709 3.52333 44.9703 4.018C45.241 4.51267 45.3763 5.11 45.3763 5.81V10.36H43.7943V6.048C43.7943 5.35733 43.6216 4.83 43.2763 4.466C42.931 4.09267 42.4596 3.906 41.8623 3.906C41.265 3.906 40.789 4.09267 40.4343 4.466C40.089 4.83 39.9163 5.35733 39.9163 6.048V10.36H38.3203V0H39.9163V3.542C40.187 3.21533 40.5276 2.96333 40.9383 2.786C41.3583 2.60867 41.8156 2.52 42.3103 2.52Z" fill="#777E91"/>
<path d="M33.1137 6.31402C33.1137 6.60335 33.0951 6.86469 33.0577 7.09802H27.1637C27.2104 7.71402 27.4391 8.20869 27.8497 8.58202C28.2604 8.95535 28.7644 9.14202 29.3617 9.14202C30.2204 9.14202 30.8271 8.78269 31.1817 8.06402H32.9037C32.6704 8.77335 32.2457 9.35669 31.6297 9.81402C31.0231 10.262 30.2671 10.486 29.3617 10.486C28.6244 10.486 27.9617 10.3227 27.3737 9.99602C26.7951 9.66002 26.3377 9.19335 26.0017 8.59602C25.6751 7.98935 25.5117 7.28935 25.5117 6.49602C25.5117 5.70269 25.6704 5.00735 25.9877 4.41002C26.3144 3.80335 26.7671 3.33669 27.3457 3.01002C27.9337 2.68335 28.6057 2.52002 29.3617 2.52002C30.0897 2.52002 30.7384 2.67869 31.3077 2.99602C31.8771 3.31335 32.3204 3.76135 32.6377 4.34002C32.9551 4.90935 33.1137 5.56735 33.1137 6.31402ZM31.4477 5.81002C31.4384 5.22202 31.2284 4.75069 30.8177 4.39602C30.4071 4.04135 29.8984 3.86402 29.2917 3.86402C28.7411 3.86402 28.2697 4.04135 27.8777 4.39602C27.4857 4.74135 27.2524 5.21269 27.1777 5.81002H31.4477Z" fill="#777E91"/>
<path d="M18.1507 3.78002C18.4214 3.42535 18.79 3.12669 19.2567 2.88402C19.7234 2.64135 20.2507 2.52002 20.8387 2.52002C21.5107 2.52002 22.122 2.68802 22.6727 3.02402C23.2327 3.35069 23.6714 3.81269 23.9887 4.41002C24.306 5.00735 24.4647 5.69335 24.4647 6.46802C24.4647 7.24269 24.306 7.93802 23.9887 8.55402C23.6714 9.16069 23.2327 9.63669 22.6727 9.98202C22.122 10.318 21.5107 10.486 20.8387 10.486C20.2507 10.486 19.728 10.3694 19.2707 10.136C18.8134 9.89335 18.44 9.59469 18.1507 9.24002V14.028H16.5547V2.64602H18.1507V3.78002ZM22.8407 6.46802C22.8407 5.93602 22.7287 5.47869 22.5047 5.09602C22.29 4.70402 22.0007 4.41002 21.6367 4.21402C21.282 4.00869 20.8994 3.90602 20.4887 3.90602C20.0874 3.90602 19.7047 4.00869 19.3407 4.21402C18.986 4.41935 18.6967 4.71802 18.4727 5.11002C18.258 5.50202 18.1507 5.96402 18.1507 6.49602C18.1507 7.02802 18.258 7.49469 18.4727 7.89602C18.6967 8.28802 18.986 8.58669 19.3407 8.79202C19.7047 8.99735 20.0874 9.10002 20.4887 9.10002C20.8994 9.10002 21.282 8.99735 21.6367 8.79202C22.0007 8.57735 22.29 8.26935 22.5047 7.86802C22.7287 7.46669 22.8407 7.00002 22.8407 6.46802Z" fill="#777E91"/>
<path d="M15.3501 2.646L10.6181 13.986H8.96609L10.5341 10.234L7.49609 2.646H9.27409L11.4441 8.526L13.6981 2.646H15.3501Z" fill="#777E91"/>
<path d="M6.79 0.629883V1.93188H4.2V10.3599H2.604V1.93188H0V0.629883H6.79Z" fill="#777E91"/>
</svg>
