<svg width="69" height="15" viewBox="0 0 69 15" fill="none" xmlns="http://www.w3.org/2000/svg">
<path d="M68.4965 6.6275C68.4965 6.91683 68.4779 7.17816 68.4405 7.4115H62.5465C62.5932 8.0275 62.8219 8.52216 63.2325 8.8955C63.6432 9.26883 64.1472 9.4555 64.7445 9.4555C65.6032 9.4555 66.2099 9.09616 66.5645 8.3775H68.2865C68.0532 9.08683 67.6285 9.67016 67.0125 10.1275C66.4059 10.5755 65.6499 10.7995 64.7445 10.7995C64.0072 10.7995 63.3445 10.6362 62.7565 10.3095C62.1779 9.9735 61.7205 9.50683 61.3845 8.9095C61.0579 8.30283 60.8945 7.60283 60.8945 6.8095C60.8945 6.01616 61.0532 5.32083 61.3705 4.7235C61.6972 4.11683 62.1499 3.65016 62.7285 3.3235C63.3165 2.99683 63.9885 2.8335 64.7445 2.8335C65.4725 2.8335 66.1212 2.99216 66.6905 3.3095C67.2599 3.62683 67.7032 4.07483 68.0205 4.6535C68.3379 5.22283 68.4965 5.88083 68.4965 6.6275ZM66.8305 6.1235C66.8212 5.5355 66.6112 5.06416 66.2005 4.7095C65.7899 4.35483 65.2812 4.1775 64.6745 4.1775C64.1239 4.1775 63.6525 4.35483 63.2605 4.7095C62.8685 5.05483 62.6352 5.52616 62.5605 6.1235H66.8305Z" fill="#777E91"/>
<path d="M57.6487 4.0795C57.8821 3.6875 58.1901 3.38416 58.5727 3.1695C58.9647 2.9455 59.4267 2.8335 59.9587 2.8335V4.4855H59.5527C58.9274 4.4855 58.4514 4.64416 58.1247 4.9615C57.8074 5.27883 57.6487 5.8295 57.6487 6.6135V10.6735H56.0527V2.9595H57.6487V4.0795Z" fill="#777E91"/>
<path d="M54.4829 6.6275C54.4829 6.91683 54.4642 7.17816 54.4269 7.4115H48.5329C48.5795 8.0275 48.8082 8.52216 49.2189 8.8955C49.6295 9.26883 50.1335 9.4555 50.7309 9.4555C51.5895 9.4555 52.1962 9.09616 52.5509 8.3775H54.2729C54.0395 9.08683 53.6149 9.67016 52.9989 10.1275C52.3922 10.5755 51.6362 10.7995 50.7309 10.7995C49.9935 10.7995 49.3309 10.6362 48.7429 10.3095C48.1642 9.9735 47.7069 9.50683 47.3709 8.9095C47.0442 8.30283 46.8809 7.60283 46.8809 6.8095C46.8809 6.01616 47.0395 5.32083 47.3569 4.7235C47.6835 4.11683 48.1362 3.65016 48.7149 3.3235C49.3029 2.99683 49.9749 2.8335 50.7309 2.8335C51.4589 2.8335 52.1075 2.99216 52.6769 3.3095C53.2462 3.62683 53.6895 4.07483 54.0069 4.6535C54.3242 5.22283 54.4829 5.88083 54.4829 6.6275ZM52.8169 6.1235C52.8075 5.5355 52.5975 5.06416 52.1869 4.7095C51.7762 4.35483 51.2675 4.1775 50.6609 4.1775C50.1102 4.1775 49.6389 4.35483 49.2469 4.7095C48.8549 5.05483 48.6215 5.52616 48.5469 6.1235H52.8169Z" fill="#777E91"/>
<path d="M42.3103 2.83348C42.8983 2.83348 43.421 2.95948 43.8783 3.21148C44.345 3.46348 44.709 3.83681 44.9703 4.33148C45.241 4.82614 45.3763 5.42348 45.3763 6.12348V10.6735H43.7943V6.36148C43.7943 5.67081 43.6216 5.14348 43.2763 4.77948C42.931 4.40614 42.4596 4.21948 41.8623 4.21948C41.265 4.21948 40.789 4.40614 40.4343 4.77948C40.089 5.14348 39.9163 5.67081 39.9163 6.36148V10.6735H38.3203V0.313477H39.9163V3.85548C40.187 3.52881 40.5276 3.27681 40.9383 3.09948C41.3583 2.92214 41.8156 2.83348 42.3103 2.83348Z" fill="#777E91"/>
<path d="M33.1137 6.6275C33.1137 6.91683 33.0951 7.17816 33.0577 7.4115H27.1637C27.2104 8.0275 27.4391 8.52216 27.8497 8.8955C28.2604 9.26883 28.7644 9.4555 29.3617 9.4555C30.2204 9.4555 30.8271 9.09616 31.1817 8.3775H32.9037C32.6704 9.08683 32.2457 9.67016 31.6297 10.1275C31.0231 10.5755 30.2671 10.7995 29.3617 10.7995C28.6244 10.7995 27.9617 10.6362 27.3737 10.3095C26.7951 9.9735 26.3377 9.50683 26.0017 8.9095C25.6751 8.30283 25.5117 7.60283 25.5117 6.8095C25.5117 6.01616 25.6704 5.32083 25.9877 4.7235C26.3144 4.11683 26.7671 3.65016 27.3457 3.3235C27.9337 2.99683 28.6057 2.8335 29.3617 2.8335C30.0897 2.8335 30.7384 2.99216 31.3077 3.3095C31.8771 3.62683 32.3204 4.07483 32.6377 4.6535C32.9551 5.22283 33.1137 5.88083 33.1137 6.6275ZM31.4477 6.1235C31.4384 5.5355 31.2284 5.06416 30.8177 4.7095C30.4071 4.35483 29.8984 4.1775 29.2917 4.1775C28.7411 4.1775 28.2697 4.35483 27.8777 4.7095C27.4857 5.05483 27.2524 5.52616 27.1777 6.1235H31.4477Z" fill="#777E91"/>
<path d="M18.1507 4.0935C18.4214 3.73883 18.79 3.44016 19.2567 3.1975C19.7234 2.95483 20.2507 2.8335 20.8387 2.8335C21.5107 2.8335 22.122 3.0015 22.6727 3.3375C23.2327 3.66416 23.6714 4.12616 23.9887 4.7235C24.306 5.32083 24.4647 6.00683 24.4647 6.7815C24.4647 7.55616 24.306 8.2515 23.9887 8.8675C23.6714 9.47416 23.2327 9.95016 22.6727 10.2955C22.122 10.6315 21.5107 10.7995 20.8387 10.7995C20.2507 10.7995 19.728 10.6828 19.2707 10.4495C18.8134 10.2068 18.44 9.90816 18.1507 9.5535V14.3415H16.5547V2.9595H18.1507V4.0935ZM22.8407 6.7815C22.8407 6.2495 22.7287 5.79216 22.5047 5.4095C22.29 5.0175 22.0007 4.7235 21.6367 4.5275C21.282 4.32216 20.8994 4.2195 20.4887 4.2195C20.0874 4.2195 19.7047 4.32216 19.3407 4.5275C18.986 4.73283 18.6967 5.0315 18.4727 5.4235C18.258 5.8155 18.1507 6.2775 18.1507 6.8095C18.1507 7.3415 18.258 7.80816 18.4727 8.2095C18.6967 8.6015 18.986 8.90016 19.3407 9.1055C19.7047 9.31083 20.0874 9.4135 20.4887 9.4135C20.8994 9.4135 21.282 9.31083 21.6367 9.1055C22.0007 8.89083 22.29 8.58283 22.5047 8.1815C22.7287 7.78016 22.8407 7.3135 22.8407 6.7815Z" fill="#777E91"/>
<path d="M15.3501 2.95947L10.6181 14.2995H8.96609L10.5341 10.5475L7.49609 2.95947H9.27409L11.4441 8.83947L13.6981 2.95947H15.3501Z" fill="#777E91"/>
<path d="M6.79 0.943359V2.24536H4.2V10.6734H2.604V2.24536H0V0.943359H6.79Z" fill="#777E91"/>
</svg>
