<svg width="84" height="21" viewBox="0 0 84 21" fill="none" xmlns="http://www.w3.org/2000/svg">
<path d="M80.9102 16.1016C79.7383 16.0859 79.0352 15.3828 78.8008 13.9922C78.6758 14.3047 78.4961 14.6016 78.2617 14.8828C77.543 15.6953 76.5898 16.1016 75.4023 16.1016C74.918 16.1016 74.4727 16.0234 74.0664 15.8672C72.9883 15.4453 72.4492 14.6094 72.4492 13.3594C72.4492 13.125 72.4727 12.8984 72.5195 12.6797C72.9102 11.0234 74.9805 10.1719 78.7305 10.125V8.625C78.7148 7.01562 78.0742 6.19531 76.8086 6.16406C76.4961 6.16406 76.2305 6.21875 76.0117 6.32812C75.7148 6.5 75.4648 6.89844 75.2617 7.52344C75.2148 7.67969 75.1758 7.79688 75.1445 7.875C74.957 8.39062 74.6211 8.64844 74.1367 8.64844C74.0117 8.64844 73.8867 8.63281 73.7617 8.60156C73.293 8.46094 73.0586 8.14062 73.0586 7.64062C73.0586 7.375 73.1445 7.10938 73.3164 6.84375C73.8945 6 75.1289 5.57812 77.0195 5.57812C79.6289 5.59375 80.9492 6.80469 80.9805 9.21094V14.1328C80.9961 14.8984 81.1914 15.2969 81.5664 15.3281C82.0508 15.3125 82.3477 14.75 82.457 13.6406L83.0664 13.6641C83.0508 14.0234 83.0039 14.3438 82.9258 14.625C82.6758 15.6094 82.0039 16.1016 80.9102 16.1016ZM76.3633 15.1406C76.5977 15.1406 76.8398 15.0859 77.0898 14.9766C77.918 14.6172 78.4648 13.8906 78.7305 12.7969V10.7578C77.8086 10.7734 77.0586 10.8516 76.4805 10.9922C75.3555 11.2734 74.793 11.9453 74.793 13.0078C74.793 13.2266 74.8086 13.4297 74.8398 13.6172C74.9961 14.6328 75.5039 15.1406 76.3633 15.1406Z" fill="#191825"/>
<path d="M63.0508 19.5938C63.2539 19.5938 63.4492 19.5547 63.6367 19.4766C64.3867 19.1797 65.168 18.0469 65.9805 16.0781L61.6211 6.46875H60.543V5.85938H65.4883V6.46875H63.9648L67.0352 13.5469L69.8477 6.46875H68.1133V5.85938H71.7227C71.7227 5.98438 71.7148 6.08594 71.6992 6.16406C71.6523 6.36719 71.4648 6.46875 71.1367 6.46875C71.0273 6.46875 70.9258 6.47656 70.832 6.49219C70.6289 6.53906 70.4492 6.77344 70.293 7.19531L66.8008 15.9844C66.4727 16.8125 66.1289 17.5234 65.7695 18.1172C64.8789 19.6172 63.8008 20.3672 62.5352 20.3672C62.0977 20.3672 61.6992 20.2891 61.3398 20.1328C60.6836 19.8203 60.3555 19.3906 60.3555 18.8438C60.3555 18.7656 60.3633 18.6875 60.3789 18.6094C60.5039 18.1406 60.8242 17.9062 61.3398 17.9062C61.5586 17.9062 61.7461 17.9609 61.9023 18.0703C62.0742 18.1797 62.2539 18.4922 62.4414 19.0078C62.582 19.3984 62.7852 19.5938 63.0508 19.5938Z" fill="#191825"/>
<path d="M52.5273 15.2812C52.6211 15.2812 52.707 15.2891 52.7852 15.3047C52.9883 15.3516 53.0898 15.5391 53.0898 15.8672H47.7227V15.2812C48.1133 15.2812 48.418 15.25 48.6367 15.1875C49.1055 15.0625 49.3398 14.6484 49.3398 13.9453V1.21875H47.7227V0.632812H51.5898V7.89844C51.7305 7.55469 51.9258 7.22656 52.1758 6.91406C52.9414 6.02344 53.9336 5.57812 55.1523 5.57812C55.6211 5.57812 56.0586 5.67188 56.4648 5.85938C57.6836 6.40625 58.293 7.57812 58.293 9.375V15.2812H59.3008C59.4102 15.2812 59.5039 15.2891 59.582 15.3047C59.7852 15.3359 59.8867 15.5234 59.8867 15.8672H54.6836V15.2812C55.1055 15.2812 55.4102 15.2422 55.5977 15.1641C55.8789 15.0234 56.0195 14.6172 56.0195 13.9453V9.21094C56.0195 8.82031 55.9727 8.45312 55.8789 8.10938C55.582 7.17188 54.9727 6.70312 54.0508 6.70312C53.6914 6.70312 53.3398 6.80469 52.9961 7.00781C52.0586 7.57031 51.5898 8.5625 51.5898 9.98438V15.2812H52.5273Z" fill="#191825"/>
<path d="M42.918 15.8672L42.6602 13.5C42.6289 13.5781 42.5977 13.6562 42.5664 13.7344C41.8477 15.3125 40.6758 16.1016 39.0508 16.1016C38.1914 16.1016 37.418 15.8438 36.7305 15.3281C35.4961 14.4062 34.8789 12.9922 34.8789 11.0859C34.8789 9.75781 35.1992 8.59375 35.8398 7.59375C36.7461 6.23438 38.0117 5.55469 39.6367 5.55469C40.8711 5.55469 41.8711 5.94531 42.6367 6.72656V1.21875H40.4336V0.632812H44.8867L44.9102 15.2578H46.0586C46.1523 15.2578 46.2383 15.2656 46.3164 15.2812C46.5195 15.3125 46.6211 15.5078 46.6211 15.8672H42.918ZM37.3633 10.8047C37.3633 11.5547 37.4336 12.2266 37.5742 12.8203C37.9492 14.3516 38.7148 15.1172 39.8711 15.1172C40.3867 15.1172 40.8477 14.9453 41.2539 14.6016C42.207 13.8047 42.6836 12.3906 42.6836 10.3594C42.6836 9.54688 42.5898 8.83594 42.4023 8.22656C41.9961 6.89844 41.2383 6.23438 40.1289 6.23438C39.707 6.23438 39.3164 6.34375 38.957 6.5625C37.8945 7.21875 37.3633 8.63281 37.3633 10.8047Z" fill="#191825"/>
<path d="M33.2852 15.8672H27.0273V15.2578H28.9023V2.41406H27.0273V1.80469H33.2852V2.41406H31.4102V15.2578H32.6758C32.7539 15.2578 32.832 15.2656 32.9102 15.2812C33.1602 15.3281 33.2852 15.5234 33.2852 15.8672Z" fill="#191825"/>
<path d="M26.2773 15.8672H20.7227V15.2578H22.293L20.5352 10.7109H15.7305L13.9961 15.2578H15.2148C15.3086 15.2578 15.4023 15.2656 15.4961 15.2812C15.6992 15.3281 15.8008 15.5234 15.8008 15.8672H11.582V15.2578H13.0586L18.2617 1.80469H19.5039L24.9414 15.2578H25.6914C25.7695 15.2578 25.8477 15.2656 25.9258 15.2812C26.1602 15.3125 26.2773 15.5078 26.2773 15.8672ZM20.2539 10.0312L18.1211 4.47656L15.9883 10.0312H20.2539Z" fill="#191825"/>
<path d="M5.55859 6.44531H3.94141L6.75391 14.0391L9.66016 6.44531H7.83203V5.85938H11.5117C11.5117 6.03125 11.4961 6.16406 11.4648 6.25781C11.4336 6.38281 11.2695 6.44531 10.9727 6.44531C10.8945 6.44531 10.8164 6.45312 10.7383 6.46875C10.4883 6.51562 10.2695 6.75781 10.082 7.19531L6.73047 15.9844H6.21484C5.91797 15.9844 5.67578 15.9375 5.48828 15.8438C5.19141 15.7031 4.87891 15.1953 4.55078 14.3203L1.64453 6.44531H0.660156V5.85938H5.55859V6.44531Z" fill="#191825"/>
</svg>
