<svg width="84" height="20" viewBox="0 0 84 20" fill="none" xmlns="http://www.w3.org/2000/svg">
<path d="M80.9043 15.6045C79.7324 15.5889 79.0293 14.8857 78.7949 13.4951C78.6699 13.8076 78.4902 14.1045 78.2559 14.3857C77.5371 15.1982 76.584 15.6045 75.3965 15.6045C74.9121 15.6045 74.4668 15.5264 74.0605 15.3701C72.9824 14.9482 72.4434 14.1123 72.4434 12.8623C72.4434 12.6279 72.4668 12.4014 72.5137 12.1826C72.9043 10.5264 74.9746 9.6748 78.7246 9.62793V8.12793C78.709 6.51855 78.0684 5.69824 76.8027 5.66699C76.4902 5.66699 76.2246 5.72168 76.0059 5.83105C75.709 6.00293 75.459 6.40137 75.2559 7.02637C75.209 7.18262 75.1699 7.2998 75.1387 7.37793C74.9512 7.89355 74.6152 8.15137 74.1309 8.15137C74.0059 8.15137 73.8809 8.13574 73.7559 8.10449C73.2871 7.96387 73.0527 7.64355 73.0527 7.14355C73.0527 6.87793 73.1387 6.6123 73.3105 6.34668C73.8887 5.50293 75.123 5.08105 77.0137 5.08105C79.623 5.09668 80.9434 6.30762 80.9746 8.71387V13.6357C80.9902 14.4014 81.1855 14.7998 81.5605 14.8311C82.0449 14.8154 82.3418 14.2529 82.4512 13.1436L83.0605 13.167C83.0449 13.5264 82.998 13.8467 82.9199 14.1279C82.6699 15.1123 81.998 15.6045 80.9043 15.6045ZM76.3574 14.6436C76.5918 14.6436 76.834 14.5889 77.084 14.4795C77.9121 14.1201 78.459 13.3936 78.7246 12.2998V10.2607C77.8027 10.2764 77.0527 10.3545 76.4746 10.4951C75.3496 10.7764 74.7871 11.4482 74.7871 12.5107C74.7871 12.7295 74.8027 12.9326 74.834 13.1201C74.9902 14.1357 75.498 14.6436 76.3574 14.6436Z" fill="#191825"/>
<path d="M63.0449 19.0967C63.248 19.0967 63.4434 19.0576 63.6309 18.9795C64.3809 18.6826 65.1621 17.5498 65.9746 15.5811L61.6152 5.97168H60.5371V5.3623H65.4824V5.97168H63.959L67.0293 13.0498L69.8418 5.97168H68.1074V5.3623H71.7168C71.7168 5.4873 71.709 5.58887 71.6934 5.66699C71.6465 5.87012 71.459 5.97168 71.1309 5.97168C71.0215 5.97168 70.9199 5.97949 70.8262 5.99512C70.623 6.04199 70.4434 6.27637 70.2871 6.69824L66.7949 15.4873C66.4668 16.3154 66.123 17.0264 65.7637 17.6201C64.873 19.1201 63.7949 19.8701 62.5293 19.8701C62.0918 19.8701 61.6934 19.792 61.334 19.6357C60.6777 19.3232 60.3496 18.8936 60.3496 18.3467C60.3496 18.2686 60.3574 18.1904 60.373 18.1123C60.498 17.6436 60.8184 17.4092 61.334 17.4092C61.5527 17.4092 61.7402 17.4639 61.8965 17.5732C62.0684 17.6826 62.248 17.9951 62.4355 18.5107C62.5762 18.9014 62.7793 19.0967 63.0449 19.0967Z" fill="#191825"/>
<path d="M52.5215 14.7842C52.6152 14.7842 52.7012 14.792 52.7793 14.8076C52.9824 14.8545 53.084 15.042 53.084 15.3701H47.7168V14.7842C48.1074 14.7842 48.4121 14.7529 48.6309 14.6904C49.0996 14.5654 49.334 14.1514 49.334 13.4482V0.72168H47.7168V0.135742H51.584V7.40137C51.7246 7.05762 51.9199 6.72949 52.1699 6.41699C52.9355 5.52637 53.9277 5.08105 55.1465 5.08105C55.6152 5.08105 56.0527 5.1748 56.459 5.3623C57.6777 5.90918 58.2871 7.08105 58.2871 8.87793V14.7842H59.2949C59.4043 14.7842 59.498 14.792 59.5762 14.8076C59.7793 14.8389 59.8809 15.0264 59.8809 15.3701H54.6777V14.7842C55.0996 14.7842 55.4043 14.7451 55.5918 14.667C55.873 14.5264 56.0137 14.1201 56.0137 13.4482V8.71387C56.0137 8.32324 55.9668 7.95605 55.873 7.6123C55.5762 6.6748 54.9668 6.20605 54.0449 6.20605C53.6855 6.20605 53.334 6.30762 52.9902 6.51074C52.0527 7.07324 51.584 8.06543 51.584 9.4873V14.7842H52.5215Z" fill="#191825"/>
<path d="M42.9121 15.3701L42.6543 13.0029C42.623 13.0811 42.5918 13.1592 42.5605 13.2373C41.8418 14.8154 40.6699 15.6045 39.0449 15.6045C38.1855 15.6045 37.4121 15.3467 36.7246 14.8311C35.4902 13.9092 34.873 12.4951 34.873 10.5889C34.873 9.26074 35.1934 8.09668 35.834 7.09668C36.7402 5.7373 38.0059 5.05762 39.6309 5.05762C40.8652 5.05762 41.8652 5.44824 42.6309 6.22949V0.72168H40.4277V0.135742H44.8809L44.9043 14.7607H46.0527C46.1465 14.7607 46.2324 14.7686 46.3105 14.7842C46.5137 14.8154 46.6152 15.0107 46.6152 15.3701H42.9121ZM37.3574 10.3076C37.3574 11.0576 37.4277 11.7295 37.5684 12.3232C37.9434 13.8545 38.709 14.6201 39.8652 14.6201C40.3809 14.6201 40.8418 14.4482 41.248 14.1045C42.2012 13.3076 42.6777 11.8936 42.6777 9.8623C42.6777 9.0498 42.584 8.33887 42.3965 7.72949C41.9902 6.40137 41.2324 5.7373 40.123 5.7373C39.7012 5.7373 39.3105 5.84668 38.9512 6.06543C37.8887 6.72168 37.3574 8.13574 37.3574 10.3076Z" fill="#191825"/>
<path d="M33.2793 15.3701H27.0215V14.7607H28.8965V1.91699H27.0215V1.30762H33.2793V1.91699H31.4043V14.7607H32.6699C32.748 14.7607 32.8262 14.7686 32.9043 14.7842C33.1543 14.8311 33.2793 15.0264 33.2793 15.3701Z" fill="#191825"/>
<path d="M26.2715 15.3701H20.7168V14.7607H22.2871L20.5293 10.2139H15.7246L13.9902 14.7607H15.209C15.3027 14.7607 15.3965 14.7686 15.4902 14.7842C15.6934 14.8311 15.7949 15.0264 15.7949 15.3701H11.5762V14.7607H13.0527L18.2559 1.30762H19.498L24.9355 14.7607H25.6855C25.7637 14.7607 25.8418 14.7686 25.9199 14.7842C26.1543 14.8154 26.2715 15.0107 26.2715 15.3701ZM20.248 9.53418L18.1152 3.97949L15.9824 9.53418H20.248Z" fill="#191825"/>
<path d="M5.55273 5.94824H3.93555L6.74805 13.542L9.6543 5.94824H7.82617V5.3623H11.5059C11.5059 5.53418 11.4902 5.66699 11.459 5.76074C11.4277 5.88574 11.2637 5.94824 10.9668 5.94824C10.8887 5.94824 10.8105 5.95605 10.7324 5.97168C10.4824 6.01855 10.2637 6.26074 10.0762 6.69824L6.72461 15.4873H6.20898C5.91211 15.4873 5.66992 15.4404 5.48242 15.3467C5.18555 15.2061 4.87305 14.6982 4.54492 13.8232L1.63867 5.94824H0.654297V5.3623H5.55273V5.94824Z" fill="#191825"/>
</svg>
