<svg width="84" height="20" viewBox="0 0 84 20" fill="none" xmlns="http://www.w3.org/2000/svg">
<path d="M80.9102 15.6064C79.7383 15.5908 79.0352 14.8877 78.8008 13.4971C78.6758 13.8096 78.4961 14.1064 78.2617 14.3877C77.543 15.2002 76.5898 15.6064 75.4023 15.6064C74.918 15.6064 74.4727 15.5283 74.0664 15.3721C72.9883 14.9502 72.4492 14.1143 72.4492 12.8643C72.4492 12.6299 72.4727 12.4033 72.5195 12.1846C72.9102 10.5283 74.9805 9.67676 78.7305 9.62988V8.12988C78.7148 6.52051 78.0742 5.7002 76.8086 5.66895C76.4961 5.66895 76.2305 5.72363 76.0117 5.83301C75.7148 6.00488 75.4648 6.40332 75.2617 7.02832C75.2148 7.18457 75.1758 7.30176 75.1445 7.37988C74.957 7.89551 74.6211 8.15332 74.1367 8.15332C74.0117 8.15332 73.8867 8.1377 73.7617 8.10645C73.293 7.96582 73.0586 7.64551 73.0586 7.14551C73.0586 6.87988 73.1445 6.61426 73.3164 6.34863C73.8945 5.50488 75.1289 5.08301 77.0195 5.08301C79.6289 5.09863 80.9492 6.30957 80.9805 8.71582V13.6377C80.9961 14.4033 81.1914 14.8018 81.5664 14.833C82.0508 14.8174 82.3477 14.2549 82.457 13.1455L83.0664 13.1689C83.0508 13.5283 83.0039 13.8486 82.9258 14.1299C82.6758 15.1143 82.0039 15.6064 80.9102 15.6064ZM76.3633 14.6455C76.5977 14.6455 76.8398 14.5908 77.0898 14.4814C77.918 14.1221 78.4648 13.3955 78.7305 12.3018V10.2627C77.8086 10.2783 77.0586 10.3564 76.4805 10.4971C75.3555 10.7783 74.793 11.4502 74.793 12.5127C74.793 12.7314 74.8086 12.9346 74.8398 13.1221C74.9961 14.1377 75.5039 14.6455 76.3633 14.6455Z" fill="#191825"/>
<path d="M63.0508 19.0986C63.2539 19.0986 63.4492 19.0596 63.6367 18.9814C64.3867 18.6846 65.168 17.5518 65.9805 15.583L61.6211 5.97363H60.543V5.36426H65.4883V5.97363H63.9648L67.0352 13.0518L69.8477 5.97363H68.1133V5.36426H71.7227C71.7227 5.48926 71.7148 5.59082 71.6992 5.66895C71.6523 5.87207 71.4648 5.97363 71.1367 5.97363C71.0273 5.97363 70.9258 5.98145 70.832 5.99707C70.6289 6.04395 70.4492 6.27832 70.293 6.7002L66.8008 15.4893C66.4727 16.3174 66.1289 17.0283 65.7695 17.6221C64.8789 19.1221 63.8008 19.8721 62.5352 19.8721C62.0977 19.8721 61.6992 19.7939 61.3398 19.6377C60.6836 19.3252 60.3555 18.8955 60.3555 18.3486C60.3555 18.2705 60.3633 18.1924 60.3789 18.1143C60.5039 17.6455 60.8242 17.4111 61.3398 17.4111C61.5586 17.4111 61.7461 17.4658 61.9023 17.5752C62.0742 17.6846 62.2539 17.9971 62.4414 18.5127C62.582 18.9033 62.7852 19.0986 63.0508 19.0986Z" fill="#191825"/>
<path d="M52.5273 14.7861C52.6211 14.7861 52.707 14.7939 52.7852 14.8096C52.9883 14.8564 53.0898 15.0439 53.0898 15.3721H47.7227V14.7861C48.1133 14.7861 48.418 14.7549 48.6367 14.6924C49.1055 14.5674 49.3398 14.1533 49.3398 13.4502V0.723633H47.7227V0.137695H51.5898V7.40332C51.7305 7.05957 51.9258 6.73145 52.1758 6.41895C52.9414 5.52832 53.9336 5.08301 55.1523 5.08301C55.6211 5.08301 56.0586 5.17676 56.4648 5.36426C57.6836 5.91113 58.293 7.08301 58.293 8.87988V14.7861H59.3008C59.4102 14.7861 59.5039 14.7939 59.582 14.8096C59.7852 14.8408 59.8867 15.0283 59.8867 15.3721H54.6836V14.7861C55.1055 14.7861 55.4102 14.7471 55.5977 14.6689C55.8789 14.5283 56.0195 14.1221 56.0195 13.4502V8.71582C56.0195 8.3252 55.9727 7.95801 55.8789 7.61426C55.582 6.67676 54.9727 6.20801 54.0508 6.20801C53.6914 6.20801 53.3398 6.30957 52.9961 6.5127C52.0586 7.0752 51.5898 8.06738 51.5898 9.48926V14.7861H52.5273Z" fill="#191825"/>
<path d="M42.918 15.3721L42.6602 13.0049C42.6289 13.083 42.5977 13.1611 42.5664 13.2393C41.8477 14.8174 40.6758 15.6064 39.0508 15.6064C38.1914 15.6064 37.418 15.3486 36.7305 14.833C35.4961 13.9111 34.8789 12.4971 34.8789 10.5908C34.8789 9.2627 35.1992 8.09863 35.8398 7.09863C36.7461 5.73926 38.0117 5.05957 39.6367 5.05957C40.8711 5.05957 41.8711 5.4502 42.6367 6.23145V0.723633H40.4336V0.137695H44.8867L44.9102 14.7627H46.0586C46.1523 14.7627 46.2383 14.7705 46.3164 14.7861C46.5195 14.8174 46.6211 15.0127 46.6211 15.3721H42.918ZM37.3633 10.3096C37.3633 11.0596 37.4336 11.7314 37.5742 12.3252C37.9492 13.8564 38.7148 14.6221 39.8711 14.6221C40.3867 14.6221 40.8477 14.4502 41.2539 14.1064C42.207 13.3096 42.6836 11.8955 42.6836 9.86426C42.6836 9.05176 42.5898 8.34082 42.4023 7.73145C41.9961 6.40332 41.2383 5.73926 40.1289 5.73926C39.707 5.73926 39.3164 5.84863 38.957 6.06738C37.8945 6.72363 37.3633 8.1377 37.3633 10.3096Z" fill="#191825"/>
<path d="M33.2852 15.3721H27.0273V14.7627H28.9023V1.91895H27.0273V1.30957H33.2852V1.91895H31.4102V14.7627H32.6758C32.7539 14.7627 32.832 14.7705 32.9102 14.7861C33.1602 14.833 33.2852 15.0283 33.2852 15.3721Z" fill="#191825"/>
<path d="M26.2773 15.3721H20.7227V14.7627H22.293L20.5352 10.2158H15.7305L13.9961 14.7627H15.2148C15.3086 14.7627 15.4023 14.7705 15.4961 14.7861C15.6992 14.833 15.8008 15.0283 15.8008 15.3721H11.582V14.7627H13.0586L18.2617 1.30957H19.5039L24.9414 14.7627H25.6914C25.7695 14.7627 25.8477 14.7705 25.9258 14.7861C26.1602 14.8174 26.2773 15.0127 26.2773 15.3721ZM20.2539 9.53613L18.1211 3.98145L15.9883 9.53613H20.2539Z" fill="#191825"/>
<path d="M5.55859 5.9502H3.94141L6.75391 13.5439L9.66016 5.9502H7.83203V5.36426H11.5117C11.5117 5.53613 11.4961 5.66895 11.4648 5.7627C11.4336 5.8877 11.2695 5.9502 10.9727 5.9502C10.8945 5.9502 10.8164 5.95801 10.7383 5.97363C10.4883 6.02051 10.2695 6.2627 10.082 6.7002L6.73047 15.4893H6.21484C5.91797 15.4893 5.67578 15.4424 5.48828 15.3486C5.19141 15.208 4.87891 14.7002 4.55078 13.8252L1.64453 5.9502H0.660156V5.36426H5.55859V5.9502Z" fill="#191825"/>
</svg>
