<svg width="40" height="40" viewBox="0 0 40 40" fill="none" xmlns="http://www.w3.org/2000/svg">
<path fill-rule="evenodd" clip-rule="evenodd" d="M8.55078 3.59787C7.12012 4.59823 5.82642 5.78098 4.70337 7.1124C9.29267 6.68633 15.1232 7.38205 21.8924 10.7667C29.121 14.3809 34.9418 14.5031 38.9928 13.7217C38.6252 12.6088 38.1624 11.5392 37.6143 10.5224C32.977 11.0115 27.032 10.3641 20.1036 6.89998C15.704 4.70018 11.8258 3.79401 8.55078 3.59787ZM34.9054 6.66665C31.2433 2.575 25.9214 0 19.998 0C18.2585 0 16.5707 0.222107 14.9617 0.63948C17.1409 1.23409 19.4559 2.10399 21.8924 3.32227C26.965 5.85853 31.3444 6.67516 34.9054 6.66665ZM39.8589 17.6281C34.9649 18.5945 28.2068 18.396 20.1036 14.3444C12.528 10.5566 6.49848 10.6043 2.43195 11.508C2.22205 11.5546 2.01709 11.6036 1.81708 11.6546C1.28467 12.8125 0.859681 14.0301 0.554749 15.2945C0.880433 15.2075 1.21698 15.1248 1.56421 15.0476C6.49762 13.9513 13.4681 13.9989 21.8924 18.2111C29.4681 21.9989 35.4976 21.9512 39.5642 21.0475C39.7035 21.0166 39.8408 20.9846 39.9758 20.9516C39.9906 20.6363 39.998 20.319 39.998 20C39.998 19.1975 39.9508 18.406 39.8589 17.6281ZM39.3228 25.1723C34.4763 26.0196 27.915 25.6944 20.1036 21.7888C12.528 18.001 6.49848 18.0487 2.43195 18.9524C1.5293 19.1529 0.717286 19.3972 0.000976875 19.6551C-0.000976125 19.7698 -0.00195312 19.8848 -0.00195312 20C-0.00195312 31.0457 8.95234 40 19.998 40C29.2551 40 37.0433 33.7109 39.3228 25.1723Z" fill="url(#paint0_linear_1196_157)"/>
<defs>
<linearGradient id="paint0_linear_1196_157" x1="35.998" y1="43.2" x2="-3.73517" y2="35.5931" gradientUnits="userSpaceOnUse">
<stop stop-color="#5D50C6"/>
<stop offset="1" stop-color="#F85E9F"/>
</linearGradient>
</defs>
</svg>
