<svg width="40" height="40" viewBox="0 0 40 40" fill="none" xmlns="http://www.w3.org/2000/svg">
<path fill-rule="evenodd" clip-rule="evenodd" d="M8.55664 3.59787C7.12598 4.59823 5.83228 5.78098 4.70923 7.1124C9.29853 6.68633 15.1291 7.38204 21.8983 10.7667C29.1269 14.3809 34.9477 14.5031 38.9987 13.7217C38.6311 12.6088 38.1683 11.5392 37.6202 10.5224C32.9829 11.0115 27.0379 10.3641 20.1095 6.89998C15.7099 4.70018 11.8317 3.79401 8.55664 3.59787ZM34.9113 6.66665C31.2492 2.575 25.9273 0 20.0039 0C18.2644 0 16.5766 0.222107 14.9676 0.63948C17.1468 1.23409 19.4618 2.10399 21.8983 3.32227C26.9709 5.85853 31.3503 6.67516 34.9113 6.66665ZM39.8648 17.6281C34.9708 18.5945 28.2127 18.396 20.1095 14.3444C12.5339 10.5566 6.50434 10.6043 2.43781 11.508C2.22791 11.5546 2.02295 11.6036 1.82294 11.6546C1.29053 12.8125 0.86554 14.0301 0.560608 15.2945C0.886292 15.2075 1.22284 15.1248 1.57007 15.0476C6.50348 13.9513 13.474 13.9989 21.8983 18.2111C29.474 21.9989 35.5035 21.9512 39.5701 21.0475C39.7094 21.0166 39.8467 20.9846 39.9817 20.9516C39.9965 20.6363 40.0039 20.319 40.0039 20C40.0039 19.1975 39.9567 18.406 39.8648 17.6281ZM39.3287 25.1723C34.4822 26.0196 27.9209 25.6944 20.1095 21.7888C12.5339 18.001 6.50434 18.0487 2.43781 18.9524C1.53516 19.1529 0.723145 19.3972 0.00683625 19.6551C0.00488325 19.7698 0.00390625 19.8848 0.00390625 20C0.00390625 31.0457 8.9582 40 20.0039 40C29.261 40 37.0492 33.7109 39.3287 25.1723Z" fill="url(#paint0_linear_1175_12203)"/>
<defs>
<linearGradient id="paint0_linear_1175_12203" x1="36.0039" y1="43.2" x2="-3.72931" y2="35.5931" gradientUnits="userSpaceOnUse">
<stop stop-color="#5D50C6"/>
<stop offset="1" stop-color="#F85E9F"/>
</linearGradient>
</defs>
</svg>
