<svg width="41" height="40" viewBox="0 0 41 40" fill="none" xmlns="http://www.w3.org/2000/svg">
<path fill-rule="evenodd" clip-rule="evenodd" d="M9.05276 3.60073C7.6221 4.60109 6.3284 5.78384 5.20535 7.11526C9.79465 6.68919 15.6252 7.38491 22.3944 10.7695C29.623 14.3837 35.4438 14.5059 39.4948 13.7245C39.1272 12.6116 38.6644 11.542 38.1163 10.5252C33.479 11.0143 27.534 10.3669 20.6056 6.90284C16.206 4.70304 12.3278 3.79687 9.05276 3.60073ZM35.4074 6.66951C31.7453 2.57786 26.4234 0.00286865 20.5 0.00286865C18.7605 0.00286865 17.0727 0.224976 15.4637 0.642349C17.6429 1.23695 19.9579 2.10685 22.3944 3.32513C27.467 5.86139 31.8464 6.67802 35.4074 6.66951ZM40.3609 17.6309C35.4669 18.5973 28.7088 18.3988 20.6056 14.3472C13.03 10.5594 7.00046 10.6071 2.93393 11.5108C2.72403 11.5574 2.51907 11.6064 2.31906 11.6574C1.78665 12.8153 1.36166 14.0329 1.05673 15.2973C1.38242 15.2103 1.71896 15.1276 2.06619 15.0504C6.9996 13.9541 13.9701 14.0017 22.3944 18.2139C29.9701 22.0017 35.9996 21.954 40.0662 21.0503C40.2055 21.0194 40.3428 20.9874 40.4778 20.9544C40.4926 20.6391 40.5 20.3218 40.5 20.0028C40.5 19.2003 40.4528 18.4088 40.3609 17.6309ZM39.8248 25.1751C34.9783 26.0224 28.417 25.6972 20.6056 21.7916C13.03 18.0038 7.00046 18.0515 2.93393 18.9552C2.03128 19.1557 1.21927 19.4 0.502961 19.6579C0.501008 19.7726 0.500031 19.8876 0.500031 20.0028C0.500031 31.0485 9.45432 40.0028 20.5 40.0028C29.7571 40.0028 37.5453 33.7137 39.8248 25.1751Z" fill="url(#paint0_linear_1182_365)"/>
<defs>
<linearGradient id="paint0_linear_1182_365" x1="36.5" y1="43.2028" x2="-3.23318" y2="35.596" gradientUnits="userSpaceOnUse">
<stop stop-color="#5D50C6"/>
<stop offset="1" stop-color="#F85E9F"/>
</linearGradient>
</defs>
</svg>
