<svg width="40" height="40" viewBox="0 0 40 40" fill="none" xmlns="http://www.w3.org/2000/svg">
<path fill-rule="evenodd" clip-rule="evenodd" d="M8.55761 3.60275C7.12695 4.60311 5.83325 5.78586 4.7102 7.11728C9.2995 6.69121 15.13 7.38693 21.8992 10.7716C29.1278 14.3858 34.9486 14.508 38.9996 13.7266C38.632 12.6137 38.1692 11.5441 37.6211 10.5273C32.9838 11.0164 27.0388 10.369 20.1104 6.90486C15.7108 4.70506 11.8326 3.79889 8.55761 3.60275ZM34.9122 6.67153C31.2501 2.57988 25.9282 0.00488281 20.0048 0.00488281C18.2653 0.00488281 16.5775 0.22699 14.9685 0.644363C17.1477 1.23897 19.4627 2.10887 21.8992 3.32715C26.9718 5.86341 31.3512 6.68004 34.9122 6.67153ZM39.8657 17.633C34.9717 18.5994 28.2136 18.4009 20.1104 14.3493C12.5348 10.5615 6.50531 10.6092 2.43878 11.5129C2.22888 11.5595 2.02392 11.6085 1.82391 11.6595C1.2915 12.8174 0.866517 14.035 0.561585 15.2994C0.887269 15.2124 1.22381 15.1297 1.57104 15.0525C6.50445 13.9562 13.4749 14.0038 21.8992 18.216C29.4749 22.0038 35.5044 21.9561 39.571 21.0524C39.7103 21.0215 39.8476 20.9895 39.9826 20.9565C39.9974 20.6412 40.0048 20.3239 40.0048 20.0049C40.0048 19.2024 39.9576 18.4109 39.8657 17.633ZM39.3296 25.1772C34.4831 26.0245 27.9218 25.6993 20.1104 21.7937C12.5348 18.0059 6.50531 18.0536 2.43878 18.9573C1.53613 19.1578 0.724122 19.4021 0.00781281 19.66C0.00585981 19.7747 0.00488281 19.8897 0.00488281 20.0049C0.00488281 31.0506 8.95917 40.0049 20.0048 40.0049C29.2619 40.0049 37.0501 33.7158 39.3296 25.1772Z" fill="url(#paint0_linear_1073_1006)"/>
<defs>
<linearGradient id="paint0_linear_1073_1006" x1="36.0048" y1="43.2049" x2="-3.72833" y2="35.598" gradientUnits="userSpaceOnUse">
<stop stop-color="#5D50C6"/>
<stop offset="1" stop-color="#F85E9F"/>
</linearGradient>
</defs>
</svg>
