<svg width="40" height="41" viewBox="0 0 40 41" fill="none" xmlns="http://www.w3.org/2000/svg">
<path fill-rule="evenodd" clip-rule="evenodd" d="M8.55755 4.09787C7.12689 5.09823 5.83319 6.28098 4.71014 7.6124C9.29944 7.18633 15.13 7.88204 21.8992 11.2667C29.1278 14.8809 34.9486 15.0031 38.9996 14.2217C38.632 13.1088 38.1692 12.0392 37.6211 11.0224C32.9838 11.5115 27.0388 10.8641 20.1104 7.39998C15.7108 5.20018 11.8326 4.29401 8.55755 4.09787ZM34.9122 7.16665C31.2501 3.075 25.9282 0.5 20.0048 0.5C18.2653 0.5 16.5775 0.722107 14.9685 1.13948C17.1477 1.73409 19.4627 2.60399 21.8992 3.82227C26.9718 6.35853 31.3512 7.17516 34.9122 7.16665ZM39.8657 18.1281C34.9717 19.0945 28.2136 18.896 20.1104 14.8444C12.5348 11.0566 6.50525 11.1043 2.43872 12.008C2.22882 12.0546 2.02386 12.1036 1.82385 12.1546C1.29144 13.3125 0.866456 14.5301 0.561524 15.7945C0.887208 15.7075 1.22375 15.6248 1.57098 15.5476C6.50439 14.4513 13.4749 14.4989 21.8992 18.7111C29.4749 22.4989 35.5044 22.4512 39.571 21.5475C39.7103 21.5166 39.8476 21.4846 39.9826 21.4516C39.9974 21.1363 40.0048 20.819 40.0048 20.5C40.0048 19.6975 39.9576 18.906 39.8657 18.1281ZM39.3296 25.6723C34.4831 26.5196 27.9218 26.1944 20.1104 22.2888C12.5348 18.501 6.50525 18.5487 2.43872 19.4524C1.53607 19.6529 0.724061 19.8972 0.00775178 20.1551C0.00579878 20.2698 0.00482178 20.3848 0.00482178 20.5C0.00482178 31.5457 8.95911 40.5 20.0048 40.5C29.2619 40.5 37.0501 34.2109 39.3296 25.6723Z" fill="url(#paint0_linear_1103_2730)"/>
<defs>
<linearGradient id="paint0_linear_1103_2730" x1="36.0048" y1="43.7" x2="-3.72839" y2="36.0931" gradientUnits="userSpaceOnUse">
<stop stop-color="#5D50C6"/>
<stop offset="1" stop-color="#F85E9F"/>
</linearGradient>
</defs>
</svg>
