<svg width="38" height="43" viewBox="0 0 38 43" fill="none" xmlns="http://www.w3.org/2000/svg">
<path d="M19 0.78125C15.2422 0.78125 11.5687 2.00005 8.44417 4.28352C5.31964 6.56699 2.88436 9.81258 1.4463 13.6099C0.0082324 17.4071 -0.368031 21.5855 0.365088 25.6167C1.09821 29.6479 2.90778 33.3507 5.56498 36.2571C8.22218 39.1634 11.6077 41.1426 15.2933 41.9444C18.9789 42.7463 22.7992 42.3347 26.271 40.7619C29.7428 39.189 32.7102 36.5254 34.7979 33.1079C36.8857 29.6905 38 25.6726 38 21.5625C38 18.8335 37.5086 16.1312 36.5537 13.6099C35.5989 11.0886 34.1993 8.79765 32.435 6.86794C30.6707 4.93822 28.5762 3.40748 26.271 2.36313C23.9658 1.31877 21.4951 0.78125 19 0.78125V0.78125ZM24.149 24.2433C24.3271 24.4365 24.4684 24.6663 24.5649 24.9195C24.6614 25.1728 24.711 25.4444 24.711 25.7187C24.711 25.9931 24.6614 26.2647 24.5649 26.5179C24.4684 26.7712 24.3271 27.001 24.149 27.1942C23.9724 27.389 23.7622 27.5436 23.5307 27.6491C23.2992 27.7546 23.0508 27.8089 22.8 27.8089C22.5492 27.8089 22.3008 27.7546 22.0693 27.6491C21.8378 27.5436 21.6276 27.389 21.451 27.1942L19 24.4927L16.549 27.1942C16.3724 27.389 16.1622 27.5436 15.9307 27.6491C15.6992 27.7546 15.4508 27.8089 15.2 27.8089C14.9492 27.8089 14.7008 27.7546 14.4693 27.6491C14.2378 27.5436 14.0276 27.389 13.851 27.1942C13.6729 27.001 13.5316 26.7712 13.4351 26.5179C13.3387 26.2647 13.289 25.9931 13.289 25.7187C13.289 25.4444 13.3387 25.1728 13.4351 24.9195C13.5316 24.6663 13.6729 24.4365 13.851 24.2433L16.321 21.5625L13.851 18.8817C13.4932 18.4904 13.2922 17.9597 13.2922 17.4062C13.2922 16.8528 13.4932 16.3221 13.851 15.9308C14.2088 15.5395 14.694 15.3196 15.2 15.3196C15.706 15.3196 16.1912 15.5395 16.549 15.9308L19 18.6323L21.451 15.9308C21.8088 15.5395 22.294 15.3196 22.8 15.3196C23.306 15.3196 23.7912 15.5395 24.149 15.9308C24.5068 16.3221 24.7078 16.8528 24.7078 17.4062C24.7078 17.9597 24.5068 18.4904 24.149 18.8817L21.679 21.5625L24.149 24.2433Z" fill="black"/>
</svg>
