<svg width="40" height="40" viewBox="0 0 40 40" fill="none" xmlns="http://www.w3.org/2000/svg">
<path fill-rule="evenodd" clip-rule="evenodd" d="M8.5625 3.59787C7.13183 4.59823 5.83814 5.78098 4.71509 7.1124C9.30439 6.68633 15.1349 7.38204 21.9041 10.7667C29.1327 14.3809 34.9535 14.5031 39.0045 13.7217C38.6369 12.6088 38.1741 11.5392 37.626 10.5224C32.9887 11.0115 27.0437 10.3641 20.1153 6.89998C15.7157 4.70018 11.8375 3.79401 8.5625 3.59787ZM34.9171 6.66665C31.255 2.575 25.9331 0 20.0097 0C18.2702 0 16.5824 0.222107 14.9734 0.63948C17.1526 1.23409 19.4676 2.10399 21.9041 3.32227C26.9767 5.85853 31.3561 6.67516 34.9171 6.66665ZM39.8706 17.6281C34.9766 18.5945 28.2185 18.396 20.1153 14.3444C12.5397 10.5566 6.5102 10.6043 2.44367 11.508C2.23377 11.5546 2.02881 11.6036 1.8288 11.6546C1.29639 12.8125 0.8714 14.0301 0.566468 15.2945C0.892152 15.2075 1.2287 15.1248 1.57593 15.0476C6.50934 13.9513 13.4798 13.9989 21.9041 18.2111C29.4798 21.9989 35.5093 21.9512 39.5759 21.0475C39.7152 21.0166 39.8525 20.9846 39.9875 20.9516C40.0023 20.6363 40.0097 20.319 40.0097 20C40.0097 19.1975 39.9625 18.406 39.8706 17.6281ZM39.3345 25.1723C34.488 26.0196 27.9267 25.6944 20.1153 21.7888C12.5397 18.001 6.5102 18.0487 2.44367 18.9524C1.54102 19.1529 0.729005 19.3972 0.0126956 19.6551C0.0107426 19.7698 0.00976562 19.8848 0.00976562 20C0.00976562 31.0457 8.96406 40 20.0097 40C29.2668 40 37.055 33.7109 39.3345 25.1723Z" fill="url(#paint0_linear_1151_8662)"/>
<defs>
<linearGradient id="paint0_linear_1151_8662" x1="36.0097" y1="43.2" x2="-3.72345" y2="35.5931" gradientUnits="userSpaceOnUse">
<stop stop-color="#5D50C6"/>
<stop offset="1" stop-color="#F85E9F"/>
</linearGradient>
</defs>
</svg>
