<svg width="41" height="41" viewBox="0 0 41 41" fill="none" xmlns="http://www.w3.org/2000/svg">
<path fill-rule="evenodd" clip-rule="evenodd" d="M9.05761 4.09787C7.62695 5.09823 6.33325 6.28098 5.2102 7.6124C9.7995 7.18633 15.63 7.88204 22.3992 11.2667C29.6278 14.8809 35.4486 15.0031 39.4996 14.2217C39.132 13.1088 38.6692 12.0392 38.1211 11.0224C33.4838 11.5115 27.5388 10.8641 20.6104 7.39998C16.2108 5.20018 12.3326 4.29401 9.05761 4.09787ZM35.4122 7.16665C31.7501 3.075 26.4282 0.5 20.5048 0.5C18.7653 0.5 17.0775 0.722107 15.4685 1.13948C17.6477 1.73409 19.9627 2.60399 22.3992 3.82227C27.4718 6.35853 31.8512 7.17516 35.4122 7.16665ZM40.3657 18.1281C35.4717 19.0945 28.7136 18.896 20.6104 14.8444C13.0348 11.0566 7.00531 11.1043 2.93878 12.008C2.72888 12.0546 2.52392 12.1036 2.32391 12.1546C1.7915 13.3125 1.36652 14.5301 1.06158 15.7945C1.38727 15.7075 1.72381 15.6248 2.07104 15.5476C7.00445 14.4513 13.9749 14.4989 22.3992 18.7111C29.9749 22.4989 36.0044 22.4512 40.071 21.5475C40.2103 21.5166 40.3476 21.4846 40.4826 21.4516C40.4974 21.1363 40.5048 20.819 40.5048 20.5C40.5048 19.6975 40.4576 18.906 40.3657 18.1281ZM39.8296 25.6723C34.9831 26.5196 28.4218 26.1944 20.6104 22.2888C13.0348 18.501 7.00531 18.5487 2.93878 19.4524C2.03613 19.6529 1.22412 19.8972 0.507813 20.1551C0.50586 20.2698 0.504883 20.3848 0.504883 20.5C0.504883 31.5457 9.45917 40.5 20.5048 40.5C29.7619 40.5 37.5501 34.2109 39.8296 25.6723Z" fill="url(#paint0_linear_1105_3924)"/>
<defs>
<linearGradient id="paint0_linear_1105_3924" x1="36.5048" y1="43.7" x2="-3.22833" y2="36.0931" gradientUnits="userSpaceOnUse">
<stop stop-color="#5D50C6"/>
<stop offset="1" stop-color="#F85E9F"/>
</linearGradient>
</defs>
</svg>
