<svg width="41" height="40" viewBox="0 0 41 40" fill="none" xmlns="http://www.w3.org/2000/svg">
<path fill-rule="evenodd" clip-rule="evenodd" d="M9.06054 3.59787C7.62988 4.59823 6.33618 5.78098 5.21313 7.1124C9.80243 6.68633 15.633 7.38204 22.4022 10.7667C29.6308 14.3809 35.4516 14.5031 39.5026 13.7217C39.135 12.6088 38.6722 11.5392 38.1241 10.5224C33.4868 11.0115 27.5418 10.3641 20.6134 6.89998C16.2138 4.70018 12.3356 3.79401 9.06054 3.59787ZM35.4152 6.66665C31.7531 2.575 26.4312 0 20.5078 0C18.7683 0 17.0805 0.222107 15.4715 0.63948C17.6507 1.23409 19.9657 2.10399 22.4022 3.32227C27.4748 5.85853 31.8542 6.67516 35.4152 6.66665ZM40.3687 17.6281C35.4747 18.5945 28.7166 18.396 20.6134 14.3444C13.0378 10.5566 7.00824 10.6043 2.94171 11.508C2.73181 11.5546 2.52685 11.6036 2.32684 11.6546C1.79443 12.8125 1.36945 14.0301 1.06451 15.2945C1.3902 15.2075 1.72674 15.1248 2.07397 15.0476C7.00738 13.9513 13.9779 13.9989 22.4022 18.2111C29.9779 21.9989 36.0074 21.9512 40.074 21.0475C40.2133 21.0166 40.3506 20.9846 40.4856 20.9516C40.5004 20.6363 40.5078 20.319 40.5078 20C40.5078 19.1975 40.4606 18.406 40.3687 17.6281ZM39.8326 25.1723C34.9861 26.0196 28.4248 25.6944 20.6134 21.7888C13.0378 18.001 7.00824 18.0487 2.94171 18.9524C2.03906 19.1529 1.22705 19.3972 0.510743 19.6551C0.50879 19.7698 0.507812 19.8848 0.507812 20C0.507812 31.0457 9.4621 40 20.5078 40C29.7649 40 37.5531 33.7109 39.8326 25.1723Z" fill="url(#paint0_linear_1056_4101)"/>
<defs>
<linearGradient id="paint0_linear_1056_4101" x1="36.5078" y1="43.2" x2="-3.2254" y2="35.5931" gradientUnits="userSpaceOnUse">
<stop stop-color="#5D50C6"/>
<stop offset="1" stop-color="#F85E9F"/>
</linearGradient>
</defs>
</svg>
