<svg width="40" height="40" viewBox="0 0 40 40" fill="none" xmlns="http://www.w3.org/2000/svg">
<path fill-rule="evenodd" clip-rule="evenodd" d="M8.56237 3.59787C7.13171 4.59823 5.83801 5.78098 4.71496 7.1124C9.30426 6.68633 15.1348 7.38205 21.904 10.7667C29.1326 14.3809 34.9534 14.5031 39.0044 13.7217C38.6368 12.6088 38.174 11.5392 37.6259 10.5224C32.9886 11.0115 27.0436 10.3641 20.1152 6.89998C15.7156 4.70018 11.8374 3.79401 8.56237 3.59787ZM34.917 6.66665C31.2549 2.575 25.933 0 20.0096 0C18.2701 0 16.5823 0.222107 14.9733 0.63948C17.1525 1.23409 19.4675 2.10399 21.904 3.32227C26.9766 5.85853 31.356 6.67516 34.917 6.66665ZM39.8705 17.6281C34.9765 18.5945 28.2184 18.396 20.1152 14.3444C12.5396 10.5566 6.51007 10.6043 2.44354 11.508C2.23364 11.5546 2.02868 11.6036 1.82867 11.6546C1.29626 12.8125 0.871278 14.0301 0.566346 15.2945C0.89203 15.2075 1.22857 15.1248 1.5758 15.0476C6.50921 13.9513 13.4797 13.9989 21.904 18.2111C29.4797 21.9989 35.5092 21.9512 39.5758 21.0475C39.7151 21.0166 39.8524 20.9846 39.9874 20.9516C40.0022 20.6363 40.0096 20.319 40.0096 20C40.0096 19.1975 39.9624 18.406 39.8705 17.6281ZM39.3344 25.1723C34.4879 26.0196 27.9266 25.6944 20.1152 21.7888C12.5396 18.001 6.51007 18.0487 2.44354 18.9524C1.54089 19.1529 0.728883 19.3972 0.0125736 19.6551C0.0106206 19.7698 0.00964355 19.8848 0.00964355 20C0.00964355 31.0457 8.96393 40 20.0096 40C29.2667 40 37.0549 33.7109 39.3344 25.1723Z" fill="url(#paint0_linear_1151_8662)"/>
<defs>
<linearGradient id="paint0_linear_1151_8662" x1="36.0096" y1="43.2" x2="-3.72357" y2="35.5931" gradientUnits="userSpaceOnUse">
<stop stop-color="#5D50C6"/>
<stop offset="1" stop-color="#F85E9F"/>
</linearGradient>
</defs>
</svg>
