<svg width="41" height="41" viewBox="0 0 41 41" fill="none" xmlns="http://www.w3.org/2000/svg">
<path fill-rule="evenodd" clip-rule="evenodd" d="M9.45434 4.09787C8.02368 5.09823 6.72998 6.28098 5.60693 7.6124C10.1962 7.18633 16.0268 7.88204 22.796 11.2667C30.0246 14.8809 35.8454 15.0031 39.8964 14.2217C39.5288 13.1088 39.066 12.0392 38.5179 11.0224C33.8806 11.5115 27.9356 10.8641 21.0072 7.39998C16.6076 5.20018 12.7294 4.29401 9.45434 4.09787ZM35.809 7.16665C32.1469 3.075 26.825 0.5 20.9016 0.5C19.1621 0.5 17.4743 0.722107 15.8653 1.13948C18.0445 1.73409 20.3595 2.60399 22.796 3.82227C27.8686 6.35853 32.248 7.17516 35.809 7.16665ZM40.7625 18.1281C35.8685 19.0945 29.1104 18.896 21.0072 14.8444C13.4316 11.0566 7.40204 11.1043 3.33551 12.008C3.12561 12.0546 2.92065 12.1036 2.72064 12.1546C2.18823 13.3125 1.76325 14.5301 1.45831 15.7945C1.784 15.7075 2.12054 15.6248 2.46777 15.5476C7.40118 14.4513 14.3717 14.4989 22.796 18.7111C30.3717 22.4989 36.4012 22.4512 40.4678 21.5475C40.6071 21.5166 40.7444 21.4846 40.8794 21.4516C40.8942 21.1363 40.9016 20.819 40.9016 20.5C40.9016 19.6975 40.8544 18.906 40.7625 18.1281ZM40.2264 25.6723C35.3799 26.5196 28.8186 26.1944 21.0072 22.2888C13.4316 18.501 7.40204 18.5487 3.33551 19.4524C2.43286 19.6529 1.62085 19.8972 0.904541 20.1551C0.902588 20.2698 0.901611 20.3848 0.901611 20.5C0.901611 31.5457 9.8559 40.5 20.9016 40.5C30.1587 40.5 37.9469 34.2109 40.2264 25.6723Z" fill="url(#paint0_linear_1104_3194)"/>
<defs>
<linearGradient id="paint0_linear_1104_3194" x1="36.9016" y1="43.7" x2="-2.8316" y2="36.0931" gradientUnits="userSpaceOnUse">
<stop stop-color="#5D50C6"/>
<stop offset="1" stop-color="#F85E9F"/>
</linearGradient>
</defs>
</svg>
