<svg width="41" height="41" viewBox="0 0 41 41" fill="none" xmlns="http://www.w3.org/2000/svg">
<path fill-rule="evenodd" clip-rule="evenodd" d="M9.21289 4.09787C7.78223 5.09823 6.48853 6.28098 5.36548 7.6124C9.95478 7.18633 15.7853 7.88204 22.5545 11.2667C29.7831 14.8809 35.6039 15.0031 39.6549 14.2217C39.2873 13.1088 38.8245 12.0392 38.2764 11.0224C33.6391 11.5115 27.6941 10.8641 20.7657 7.39998C16.3661 5.20018 12.4879 4.29401 9.21289 4.09787ZM35.5675 7.16665C31.9054 3.075 26.5835 0.5 20.6601 0.5C18.9206 0.5 17.2328 0.722107 15.6238 1.13948C17.803 1.73409 20.118 2.60399 22.5545 3.82227C27.6271 6.35853 32.0065 7.17516 35.5675 7.16665ZM40.521 18.1281C35.627 19.0945 28.8689 18.896 20.7657 14.8444C13.1901 11.0566 7.16059 11.1043 3.09406 12.008C2.88416 12.0546 2.6792 12.1036 2.47919 12.1546C1.94678 13.3125 1.52179 14.5301 1.21686 15.7945C1.54254 15.7075 1.87909 15.6248 2.22632 15.5476C7.15973 14.4513 14.1302 14.4989 22.5545 18.7111C30.1302 22.4989 36.1597 22.4512 40.2263 21.5475C40.3656 21.5166 40.5029 21.4846 40.6379 21.4516C40.6527 21.1363 40.6601 20.819 40.6601 20.5C40.6601 19.6975 40.6129 18.906 40.521 18.1281ZM39.9849 25.6723C35.1384 26.5196 28.5771 26.1944 20.7657 22.2888C13.1901 18.501 7.16059 18.5487 3.09406 19.4524C2.19141 19.6529 1.3794 19.8972 0.663086 20.1551C0.661133 20.2698 0.660156 20.3848 0.660156 20.5C0.660156 31.5457 9.61445 40.5 20.6601 40.5C29.9172 40.5 37.7054 34.2109 39.9849 25.6723Z" fill="url(#paint0_linear_1120_817)"/>
<defs>
<linearGradient id="paint0_linear_1120_817" x1="36.6601" y1="43.7" x2="-3.07306" y2="36.0931" gradientUnits="userSpaceOnUse">
<stop stop-color="#5D50C6"/>
<stop offset="1" stop-color="#F85E9F"/>
</linearGradient>
</defs>
</svg>
