<svg width="40" height="40" viewBox="0 0 40 40" fill="none" xmlns="http://www.w3.org/2000/svg">
<path fill-rule="evenodd" clip-rule="evenodd" d="M8.55275 3.60079C7.12209 4.60115 5.82839 5.78391 4.70534 7.11532C9.29464 6.68925 15.1252 7.38497 21.8944 10.7696C29.123 14.3838 34.9438 14.506 38.9948 13.7246C38.6272 12.6117 38.1644 11.5421 37.6163 10.5253C32.979 11.0144 27.034 10.367 20.1056 6.9029C15.706 4.7031 11.8278 3.79693 8.55275 3.60079ZM34.9074 6.66957C31.2453 2.57792 25.9234 0.00292969 20 0.00292969C18.2605 0.00292969 16.5727 0.225037 14.9637 0.64241C17.1429 1.23701 19.4579 2.10691 21.8944 3.32519C26.967 5.86145 31.3464 6.67808 34.9074 6.66957ZM39.8609 17.631C34.9669 18.5974 28.2088 18.3989 20.1056 14.3473C12.53 10.5595 6.50045 10.6072 2.43392 11.5109C2.22402 11.5575 2.01906 11.6065 1.81905 11.6575C1.28664 12.8154 0.861657 14.033 0.556725 15.2974C0.882409 15.2104 1.21895 15.1277 1.56618 15.0505C6.49959 13.9542 13.4701 14.0018 21.8944 18.214C29.4701 22.0018 35.4996 21.9541 39.5662 21.0504C39.7055 21.0195 39.8428 20.9875 39.9778 20.9545C39.9926 20.6392 40 20.3219 40 20.0029C40 19.2004 39.9528 18.4089 39.8609 17.631ZM39.3248 25.1752C34.4783 26.0225 27.917 25.6973 20.1056 21.7917C12.53 18.0039 6.50045 18.0516 2.43392 18.9553C1.53127 19.1558 0.719262 19.4001 0.00295289 19.658C0.000999889 19.7727 2.28882e-05 19.8877 2.28882e-05 20.0029C2.28882e-05 31.0486 8.95431 40.0029 20 40.0029C29.2571 40.0029 37.0453 33.7138 39.3248 25.1752Z" fill="url(#paint0_linear_1105_5114)"/>
<defs>
<linearGradient id="paint0_linear_1105_5114" x1="36" y1="43.2029" x2="-3.73319" y2="35.596" gradientUnits="userSpaceOnUse">
<stop stop-color="#5D50C6"/>
<stop offset="1" stop-color="#F85E9F"/>
</linearGradient>
</defs>
</svg>
