<svg width="41" height="40" viewBox="0 0 41 40" fill="none" xmlns="http://www.w3.org/2000/svg">
<path fill-rule="evenodd" clip-rule="evenodd" d="M9.05273 3.60079C7.62207 4.60115 6.32837 5.78391 5.20532 7.11532C9.79462 6.68925 15.6252 7.38497 22.3944 10.7696C29.623 14.3838 35.4438 14.506 39.4948 13.7246C39.1272 12.6117 38.6644 11.5421 38.1163 10.5253C33.479 11.0144 27.534 10.367 20.6056 6.9029C16.206 4.7031 12.3278 3.79693 9.05273 3.60079ZM35.4074 6.66957C31.7453 2.57792 26.4234 0.00292969 20.5 0.00292969C18.7605 0.00292969 17.0727 0.225037 15.4637 0.64241C17.6429 1.23701 19.9579 2.10691 22.3944 3.32519C27.467 5.86145 31.8464 6.67808 35.4074 6.66957ZM40.3609 17.631C35.4669 18.5974 28.7088 18.3989 20.6056 14.3473C13.03 10.5595 7.00043 10.6072 2.9339 11.5109C2.724 11.5575 2.51904 11.6065 2.31903 11.6575C1.78662 12.8154 1.36163 14.033 1.0567 15.2974C1.38239 15.2104 1.71893 15.1277 2.06616 15.0505C6.99957 13.9542 13.9701 14.0018 22.3944 18.214C29.9701 22.0018 35.9996 21.9541 40.0662 21.0504C40.2055 21.0195 40.3428 20.9875 40.4778 20.9545C40.4926 20.6392 40.5 20.3219 40.5 20.0029C40.5 19.2004 40.4528 18.4089 40.3609 17.631ZM39.8248 25.1752C34.9783 26.0225 28.417 25.6973 20.6056 21.7917C13.03 18.0039 7.00043 18.0516 2.9339 18.9553C2.03125 19.1558 1.21924 19.4001 0.50293 19.658C0.500977 19.7727 0.5 19.8877 0.5 20.0029C0.5 31.0486 9.45429 40.0029 20.5 40.0029C29.7571 40.0029 37.5453 33.7138 39.8248 25.1752Z" fill="url(#paint0_linear_1134_8456)"/>
<defs>
<linearGradient id="paint0_linear_1134_8456" x1="36.5" y1="43.2029" x2="-3.23321" y2="35.596" gradientUnits="userSpaceOnUse">
<stop stop-color="#5D50C6"/>
<stop offset="1" stop-color="#F85E9F"/>
</linearGradient>
</defs>
</svg>
