<svg width="41" height="40" viewBox="0 0 41 40" fill="none" xmlns="http://www.w3.org/2000/svg">
<path fill-rule="evenodd" clip-rule="evenodd" d="M9.21289 3.60275C7.78223 4.60311 6.48853 5.78586 5.36548 7.11728C9.95478 6.69121 15.7853 7.38693 22.5545 10.7716C29.7831 14.3858 35.6039 14.508 39.6549 13.7266C39.2873 12.6137 38.8245 11.5441 38.2764 10.5273C33.6391 11.0164 27.6941 10.369 20.7657 6.90486C16.3661 4.70506 12.4879 3.79889 9.21289 3.60275ZM35.5675 6.67153C31.9054 2.57988 26.5835 0.00488281 20.6601 0.00488281C18.9206 0.00488281 17.2328 0.22699 15.6238 0.644363C17.803 1.23897 20.118 2.10887 22.5545 3.32715C27.6271 5.86341 32.0065 6.68004 35.5675 6.67153ZM40.521 17.633C35.627 18.5994 28.8689 18.4009 20.7657 14.3493C13.1901 10.5615 7.16059 10.6092 3.09406 11.5129C2.88416 11.5595 2.6792 11.6085 2.47919 11.6595C1.94678 12.8174 1.52179 14.035 1.21686 15.2994C1.54254 15.2124 1.87909 15.1297 2.22632 15.0525C7.15973 13.9562 14.1302 14.0038 22.5545 18.216C30.1302 22.0038 36.1597 21.9561 40.2263 21.0524C40.3656 21.0215 40.5029 20.9895 40.6379 20.9565C40.6527 20.6412 40.6601 20.3239 40.6601 20.0049C40.6601 19.2024 40.6129 18.4109 40.521 17.633ZM39.9849 25.1772C35.1384 26.0245 28.5771 25.6993 20.7657 21.7937C13.1901 18.0059 7.16059 18.0536 3.09406 18.9573C2.19141 19.1578 1.3794 19.4021 0.663086 19.66C0.661133 19.7747 0.660156 19.8897 0.660156 20.0049C0.660156 31.0506 9.61445 40.0049 20.6601 40.0049C29.9172 40.0049 37.7054 33.7158 39.9849 25.1772Z" fill="url(#paint0_linear_1151_9065)"/>
<defs>
<linearGradient id="paint0_linear_1151_9065" x1="36.6601" y1="43.2049" x2="-3.07306" y2="35.598" gradientUnits="userSpaceOnUse">
<stop stop-color="#5D50C6"/>
<stop offset="1" stop-color="#F85E9F"/>
</linearGradient>
</defs>
</svg>
