<svg width="220" height="17" viewBox="0 0 220 17" fill="none" xmlns="http://www.w3.org/2000/svg">
<path d="M215.872 0.554688C216.96 0.554688 217.83 0.853354 218.48 1.45069C219.142 2.04802 219.472 2.86402 219.472 3.89869C219.472 4.97602 219.131 5.78669 218.448 6.33069C217.766 6.87469 216.859 7.14669 215.728 7.14669L215.664 8.41069H214.08L214 5.89869H214.528C215.563 5.89869 216.352 5.76002 216.896 5.48269C217.451 5.20535 217.728 4.67735 217.728 3.89869C217.728 3.33335 217.563 2.89069 217.232 2.57069C216.912 2.25069 216.464 2.09069 215.888 2.09069C215.312 2.09069 214.859 2.24535 214.528 2.55469C214.198 2.86402 214.032 3.29602 214.032 3.85069H212.32C212.32 3.21069 212.464 2.64002 212.752 2.13869C213.04 1.63735 213.451 1.24802 213.984 0.970688C214.528 0.693354 215.158 0.554688 215.872 0.554688ZM214.848 11.9467C214.518 11.9467 214.24 11.8347 214.016 11.6107C213.792 11.3867 213.68 11.1094 213.68 10.7787C213.68 10.448 213.792 10.1707 214.016 9.94669C214.24 9.72269 214.518 9.61069 214.848 9.61069C215.168 9.61069 215.44 9.72269 215.664 9.94669C215.888 10.1707 216 10.448 216 10.7787C216 11.1094 215.888 11.3867 215.664 11.6107C215.44 11.8347 215.168 11.9467 214.848 11.9467Z" fill="#23262F"/>
<path d="M208.564 4.299C208.831 3.851 209.183 3.50433 209.62 3.259C210.068 3.003 210.596 2.875 211.204 2.875V4.763H210.74C210.026 4.763 209.482 4.94433 209.108 5.307C208.746 5.66967 208.564 6.299 208.564 7.195V11.835H206.74V3.019H208.564V4.299Z" fill="#23262F"/>
<path d="M204.944 7.211C204.944 7.54167 204.923 7.84033 204.88 8.107H198.144C198.197 8.811 198.459 9.37633 198.928 9.803C199.397 10.2297 199.973 10.443 200.656 10.443C201.637 10.443 202.331 10.0323 202.736 9.211H204.704C204.437 10.0217 203.952 10.6883 203.248 11.211C202.555 11.723 201.691 11.979 200.656 11.979C199.813 11.979 199.056 11.7923 198.384 11.419C197.723 11.035 197.2 10.5017 196.816 9.819C196.443 9.12567 196.256 8.32567 196.256 7.419C196.256 6.51233 196.437 5.71767 196.8 5.035C197.173 4.34167 197.691 3.80833 198.352 3.435C199.024 3.06167 199.792 2.875 200.656 2.875C201.488 2.875 202.229 3.05633 202.88 3.419C203.531 3.78167 204.037 4.29367 204.4 4.955C204.763 5.60567 204.944 6.35767 204.944 7.211ZM203.04 6.635C203.029 5.963 202.789 5.42433 202.32 5.019C201.851 4.61367 201.269 4.411 200.576 4.411C199.947 4.411 199.408 4.61367 198.96 5.019C198.512 5.41367 198.245 5.95233 198.16 6.635H203.04Z" fill="#23262F"/>
<path d="M187.845 4.315C188.155 3.90967 188.576 3.56833 189.109 3.291C189.643 3.01367 190.245 2.875 190.917 2.875C191.685 2.875 192.384 3.067 193.013 3.451C193.653 3.82433 194.155 4.35233 194.517 5.035C194.88 5.71767 195.061 6.50167 195.061 7.387C195.061 8.27233 194.88 9.067 194.517 9.771C194.155 10.4643 193.653 11.0083 193.013 11.403C192.384 11.787 191.685 11.979 190.917 11.979C190.245 11.979 189.648 11.8457 189.125 11.579C188.603 11.3017 188.176 10.9603 187.845 10.555V16.027H186.021V3.019H187.845V4.315ZM193.205 7.387C193.205 6.779 193.077 6.25633 192.821 5.819C192.576 5.371 192.245 5.035 191.829 4.811C191.424 4.57633 190.987 4.459 190.517 4.459C190.059 4.459 189.621 4.57633 189.205 4.811C188.8 5.04567 188.469 5.387 188.213 5.835C187.968 6.283 187.845 6.811 187.845 7.419C187.845 8.027 187.968 8.56033 188.213 9.019C188.469 9.467 188.8 9.80833 189.205 10.043C189.621 10.2777 190.059 10.395 190.517 10.395C190.987 10.395 191.424 10.2777 191.829 10.043C192.245 9.79767 192.576 9.44567 192.821 8.987C193.077 8.52833 193.205 7.995 193.205 7.387Z" fill="#23262F"/>
<path d="M183.627 -0.00488281V11.8351H181.803V-0.00488281H183.627Z" fill="#23262F"/>
<path d="M180.006 7.211C180.006 7.54167 179.985 7.84033 179.942 8.107H173.206C173.26 8.811 173.521 9.37633 173.99 9.803C174.46 10.2297 175.036 10.443 175.718 10.443C176.7 10.443 177.393 10.0323 177.798 9.211H179.766C179.5 10.0217 179.014 10.6883 178.31 11.211C177.617 11.723 176.753 11.979 175.718 11.979C174.876 11.979 174.118 11.7923 173.446 11.419C172.785 11.035 172.262 10.5017 171.878 9.819C171.505 9.12567 171.318 8.32567 171.318 7.419C171.318 6.51233 171.5 5.71767 171.862 5.035C172.236 4.34167 172.753 3.80833 173.414 3.435C174.086 3.06167 174.854 2.875 175.718 2.875C176.55 2.875 177.292 3.05633 177.942 3.419C178.593 3.78167 179.1 4.29367 179.462 4.955C179.825 5.60567 180.006 6.35767 180.006 7.211ZM178.102 6.635C178.092 5.963 177.852 5.42433 177.382 5.019C176.913 4.61367 176.332 4.411 175.638 4.411C175.009 4.411 174.47 4.61367 174.022 5.019C173.574 5.41367 173.308 5.95233 173.222 6.635H178.102Z" fill="#23262F"/>
<path d="M169.526 0.714844V11.8348H167.702V6.97084H162.47V11.8348H160.646V0.714844H162.47V5.48284H167.702V0.714844H169.526Z" fill="#23262F"/>
<path d="M145.037 7.387C145.037 6.50167 145.218 5.71767 145.581 5.035C145.954 4.35233 146.456 3.82433 147.085 3.451C147.725 3.067 148.429 2.875 149.197 2.875C149.89 2.875 150.493 3.01367 151.005 3.291C151.528 3.55767 151.944 3.89367 152.253 4.299V3.019H154.093V11.835H152.253V10.523C151.944 10.939 151.522 11.2857 150.989 11.563C150.456 11.8403 149.848 11.979 149.165 11.979C148.408 11.979 147.714 11.787 147.085 11.403C146.456 11.0083 145.954 10.4643 145.581 9.771C145.218 9.067 145.037 8.27233 145.037 7.387ZM152.253 7.419C152.253 6.811 152.125 6.283 151.869 5.835C151.624 5.387 151.298 5.04567 150.893 4.811C150.488 4.57633 150.05 4.459 149.581 4.459C149.112 4.459 148.674 4.57633 148.269 4.811C147.864 5.035 147.533 5.371 147.277 5.819C147.032 6.25633 146.909 6.779 146.909 7.387C146.909 7.995 147.032 8.52833 147.277 8.987C147.533 9.44567 147.864 9.79767 148.269 10.043C148.685 10.2777 149.122 10.395 149.581 10.395C150.05 10.395 150.488 10.2777 150.893 10.043C151.298 9.80833 151.624 9.467 151.869 9.019C152.125 8.56033 152.253 8.027 152.253 7.419Z" fill="#23262F"/>
<path d="M130.037 7.38712C130.037 6.50178 130.218 5.71778 130.581 5.03512C130.954 4.35245 131.456 3.82445 132.085 3.45112C132.725 3.06712 133.434 2.87512 134.213 2.87512C134.789 2.87512 135.354 3.00312 135.909 3.25912C136.474 3.50445 136.922 3.83512 137.253 4.25112V-0.00488281H139.093V11.8351H137.253V10.5071C136.954 10.9338 136.538 11.2858 136.005 11.5631C135.482 11.8405 134.88 11.9791 134.197 11.9791C133.429 11.9791 132.725 11.7871 132.085 11.4031C131.456 11.0085 130.954 10.4645 130.581 9.77112C130.218 9.06712 130.037 8.27245 130.037 7.38712ZM137.253 7.41912C137.253 6.81112 137.125 6.28312 136.869 5.83512C136.624 5.38712 136.298 5.04578 135.893 4.81112C135.488 4.57645 135.05 4.45912 134.581 4.45912C134.112 4.45912 133.674 4.57645 133.269 4.81112C132.864 5.03512 132.533 5.37112 132.277 5.81912C132.032 6.25645 131.909 6.77912 131.909 7.38712C131.909 7.99512 132.032 8.52845 132.277 8.98712C132.533 9.44578 132.864 9.79778 133.269 10.0431C133.685 10.2778 134.122 10.3951 134.581 10.3951C135.05 10.3951 135.488 10.2778 135.893 10.0431C136.298 9.80845 136.624 9.46712 136.869 9.01912C137.125 8.56045 137.253 8.02712 137.253 7.41912Z" fill="#23262F"/>
<path d="M128.85 7.211C128.85 7.54167 128.829 7.84033 128.786 8.107H122.05C122.103 8.811 122.365 9.37633 122.834 9.803C123.303 10.2297 123.879 10.443 124.562 10.443C125.543 10.443 126.237 10.0323 126.642 9.211H128.61C128.343 10.0217 127.858 10.6883 127.154 11.211C126.461 11.723 125.597 11.979 124.562 11.979C123.719 11.979 122.962 11.7923 122.29 11.419C121.629 11.035 121.106 10.5017 120.722 9.819C120.349 9.12567 120.162 8.32567 120.162 7.419C120.162 6.51233 120.343 5.71767 120.706 5.035C121.079 4.34167 121.597 3.80833 122.258 3.435C122.93 3.06167 123.698 2.875 124.562 2.875C125.394 2.875 126.135 3.05633 126.786 3.419C127.437 3.78167 127.943 4.29367 128.306 4.955C128.669 5.60567 128.85 6.35767 128.85 7.211ZM126.946 6.635C126.935 5.963 126.695 5.42433 126.226 5.019C125.757 4.61367 125.175 4.411 124.482 4.411C123.853 4.411 123.314 4.61367 122.866 5.019C122.418 5.41367 122.151 5.95233 122.066 6.635H126.946Z" fill="#23262F"/>
<path d="M118.975 7.211C118.975 7.54167 118.954 7.84033 118.911 8.107H112.175C112.228 8.811 112.49 9.37633 112.959 9.803C113.428 10.2297 114.004 10.443 114.687 10.443C115.668 10.443 116.362 10.0323 116.767 9.211H118.735C118.468 10.0217 117.983 10.6883 117.279 11.211C116.586 11.723 115.722 11.979 114.687 11.979C113.844 11.979 113.087 11.7923 112.415 11.419C111.754 11.035 111.231 10.5017 110.847 9.819C110.474 9.12567 110.287 8.32567 110.287 7.419C110.287 6.51233 110.468 5.71767 110.831 5.035C111.204 4.34167 111.722 3.80833 112.383 3.435C113.055 3.06167 113.823 2.875 114.687 2.875C115.519 2.875 116.26 3.05633 116.911 3.419C117.562 3.78167 118.068 4.29367 118.431 4.955C118.794 5.60567 118.975 6.35767 118.975 7.211ZM117.071 6.635C117.06 5.963 116.82 5.42433 116.351 5.019C115.882 4.61367 115.3 4.411 114.607 4.411C113.978 4.411 113.439 4.61367 112.991 5.019C112.543 5.41367 112.276 5.95233 112.191 6.635H117.071Z" fill="#23262F"/>
<path d="M104.954 2.875C105.647 2.875 106.266 3.019 106.81 3.307C107.365 3.595 107.797 4.02167 108.106 4.587C108.415 5.15233 108.57 5.835 108.57 6.635V11.835H106.762V6.907C106.762 6.11767 106.565 5.515 106.17 5.099C105.775 4.67233 105.237 4.459 104.554 4.459C103.871 4.459 103.327 4.67233 102.922 5.099C102.527 5.515 102.33 6.11767 102.33 6.907V11.835H100.506V3.019H102.33V4.027C102.629 3.66433 103.007 3.38167 103.466 3.179C103.935 2.97633 104.431 2.875 104.954 2.875Z" fill="#23262F"/>
<path d="M93.9429 3.01953V11.8355H92.1189V10.7955C91.8309 11.1582 91.4522 11.4462 90.9829 11.6595C90.5242 11.8622 90.0336 11.9635 89.5109 11.9635C88.8176 11.9635 88.1936 11.8195 87.6389 11.5315C87.0949 11.2435 86.6629 10.8169 86.3429 10.2515C86.0336 9.6862 85.8789 9.00353 85.8789 8.20353V3.01953H87.6869V7.93153C87.6869 8.72086 87.8842 9.32886 88.2789 9.75553C88.6736 10.1715 89.2122 10.3795 89.8949 10.3795C90.5776 10.3795 91.1162 10.1715 91.5109 9.75553C91.9162 9.32886 92.1189 8.72086 92.1189 7.93153V3.01953H93.9429Z" fill="#23262F"/>
<path d="M79.5801 11.979C78.7481 11.979 77.9961 11.7923 77.3241 11.419C76.6521 11.035 76.1241 10.5017 75.7401 9.819C75.3561 9.12567 75.1641 8.32567 75.1641 7.419C75.1641 6.523 75.3614 5.72833 75.7561 5.035C76.1507 4.34167 76.6894 3.80833 77.3721 3.435C78.0547 3.06167 78.8174 2.875 79.6601 2.875C80.5027 2.875 81.2654 3.06167 81.9481 3.435C82.6307 3.80833 83.1694 4.34167 83.5641 5.035C83.9587 5.72833 84.1561 6.523 84.1561 7.419C84.1561 8.315 83.9534 9.10967 83.5481 9.803C83.1427 10.4963 82.5881 11.035 81.8841 11.419C81.1907 11.7923 80.4227 11.979 79.5801 11.979ZM79.5801 10.395C80.0494 10.395 80.4867 10.283 80.8921 10.059C81.3081 9.835 81.6441 9.499 81.9001 9.051C82.1561 8.603 82.2841 8.059 82.2841 7.419C82.2841 6.779 82.1614 6.24033 81.9161 5.803C81.6707 5.355 81.3454 5.019 80.9401 4.795C80.5347 4.571 80.0974 4.459 79.6281 4.459C79.1587 4.459 78.7214 4.571 78.3161 4.795C77.9214 5.019 77.6067 5.355 77.3721 5.803C77.1374 6.24033 77.0201 6.779 77.0201 7.419C77.0201 8.36833 77.2601 9.10433 77.7401 9.627C78.2307 10.139 78.8441 10.395 79.5801 10.395Z" fill="#23262F"/>
<path d="M74.3783 3.01953L68.9703 15.9795H67.0823L68.8743 11.6915L65.4023 3.01953H67.4343L69.9143 9.73953L72.4903 3.01953H74.3783Z" fill="#23262F"/>
<path d="M55.9082 11.979C55.0762 11.979 54.3242 11.7923 53.6522 11.419C52.9802 11.035 52.4522 10.5017 52.0682 9.819C51.6842 9.12567 51.4922 8.32567 51.4922 7.419C51.4922 6.523 51.6895 5.72833 52.0842 5.035C52.4789 4.34167 53.0175 3.80833 53.7002 3.435C54.3829 3.06167 55.1455 2.875 55.9882 2.875C56.8309 2.875 57.5935 3.06167 58.2762 3.435C58.9589 3.80833 59.4975 4.34167 59.8922 5.035C60.2869 5.72833 60.4842 6.523 60.4842 7.419C60.4842 8.315 60.2815 9.10967 59.8762 9.803C59.4709 10.4963 58.9162 11.035 58.2122 11.419C57.5189 11.7923 56.7509 11.979 55.9082 11.979ZM55.9082 10.395C56.3775 10.395 56.8149 10.283 57.2202 10.059C57.6362 9.835 57.9722 9.499 58.2282 9.051C58.4842 8.603 58.6122 8.059 58.6122 7.419C58.6122 6.779 58.4895 6.24033 58.2442 5.803C57.9989 5.355 57.6735 5.019 57.2682 4.795C56.8629 4.571 56.4255 4.459 55.9562 4.459C55.4869 4.459 55.0495 4.571 54.6442 4.795C54.2495 5.019 53.9349 5.355 53.7002 5.803C53.4655 6.24033 53.3482 6.779 53.3482 7.419C53.3482 8.36833 53.5882 9.10433 54.0682 9.627C54.5589 10.139 55.1722 10.395 55.9082 10.395Z" fill="#23262F"/>
<path d="M40.6309 7.38712C40.6309 6.50178 40.8122 5.71778 41.1749 5.03512C41.5482 4.35245 42.0495 3.82445 42.6789 3.45112C43.3189 3.06712 44.0282 2.87512 44.8069 2.87512C45.3829 2.87512 45.9482 3.00312 46.5029 3.25912C47.0682 3.50445 47.5162 3.83512 47.8469 4.25112V-0.00488281H49.6869V11.8351H47.8469V10.5071C47.5482 10.9338 47.1322 11.2858 46.5989 11.5631C46.0762 11.8405 45.4735 11.9791 44.7909 11.9791C44.0229 11.9791 43.3189 11.7871 42.6789 11.4031C42.0495 11.0085 41.5482 10.4645 41.1749 9.77112C40.8122 9.06712 40.6309 8.27245 40.6309 7.38712ZM47.8469 7.41912C47.8469 6.81112 47.7189 6.28312 47.4629 5.83512C47.2175 5.38712 46.8922 5.04578 46.4869 4.81112C46.0815 4.57645 45.6442 4.45912 45.1749 4.45912C44.7055 4.45912 44.2682 4.57645 43.8629 4.81112C43.4575 5.03512 43.1269 5.37112 42.8709 5.81912C42.6255 6.25645 42.5029 6.77912 42.5029 7.38712C42.5029 7.99512 42.6255 8.52845 42.8709 8.98712C43.1269 9.44578 43.4575 9.79778 43.8629 10.0431C44.2789 10.2778 44.7162 10.3951 45.1749 10.3951C45.6442 10.3951 46.0815 10.2778 46.4869 10.0431C46.8922 9.80845 47.2175 9.46712 47.4629 9.01912C47.7189 8.56045 47.8469 8.02712 47.8469 7.41912Z" fill="#23262F"/>
<path d="M35.7065 3.01953L30.2985 15.9795H28.4105L30.2025 11.6915L26.7305 3.01953H28.7625L31.2425 9.73953L33.8185 3.01953H35.7065Z" fill="#23262F"/>
<path d="M21.9409 2.87512C22.6129 2.87512 23.2102 3.01912 23.7329 3.30712C24.2662 3.59512 24.6822 4.02178 24.9809 4.58712C25.2902 5.15245 25.4449 5.83512 25.4449 6.63512V11.8351H23.6369V6.90712C23.6369 6.11778 23.4395 5.51512 23.0449 5.09912C22.6502 4.67245 22.1115 4.45912 21.4289 4.45912C20.7462 4.45912 20.2022 4.67245 19.7969 5.09912C19.4022 5.51512 19.2049 6.11778 19.2049 6.90712V11.8351H17.3809V-0.00488281H19.2049V4.04312C19.5142 3.66978 19.9035 3.38178 20.3729 3.17912C20.8529 2.97645 21.3755 2.87512 21.9409 2.87512Z" fill="#23262F"/>
<path d="M15.876 0.714844L12.58 11.8348H10.516L8.18 3.41884L5.7 11.8348L3.652 11.8508L0.5 0.714844H2.436L4.74 9.77084L7.236 0.714844H9.284L11.604 9.72285L13.924 0.714844H15.876Z" fill="#23262F"/>
</svg>
